<?xml version="1.0" encoding="utf-8" standalone="no"?>
<!DOCTYPE svg PUBLIC "-//W3C//DTD SVG 1.1//EN"
  "http://www.w3.org/Graphics/SVG/1.1/DTD/svg11.dtd">
<!-- Created with matplotlib (https://matplotlib.org/) -->
<svg height="360pt" version="1.1" viewBox="0 0 576 360" width="576pt" xmlns="http://www.w3.org/2000/svg" xmlns:xlink="http://www.w3.org/1999/xlink">
 <metadata>
  <rdf:RDF xmlns:cc="http://creativecommons.org/ns#" xmlns:dc="http://purl.org/dc/elements/1.1/" xmlns:rdf="http://www.w3.org/1999/02/22-rdf-syntax-ns#">
   <cc:Work>
    <dc:type rdf:resource="http://purl.org/dc/dcmitype/StillImage"/>
    <dc:date>2021-01-11T10:11:38.944709</dc:date>
    <dc:format>image/svg+xml</dc:format>
    <dc:creator>
     <cc:Agent>
      <dc:title>Matplotlib v3.3.3, https://matplotlib.org/</dc:title>
     </cc:Agent>
    </dc:creator>
   </cc:Work>
  </rdf:RDF>
 </metadata>
 <defs>
  <style type="text/css">*{stroke-linecap:butt;stroke-linejoin:round;}</style>
 </defs>
 <g id="figure_1">
  <g id="patch_1">
   <path d="M 0 360 
L 576 360 
L 576 0 
L 0 0 
z
" style="fill:#ffffff;"/>
  </g>
  <g id="axes_1">
   <g id="patch_2">
    <path d="M 60.932 326.72 
L 561.06 326.72 
L 561.06 31.92 
L 60.932 31.92 
z
" style="fill:#ffffff;"/>
   </g>
   <g id="matplotlib.axis_1">
    <g id="xtick_1">
     <g id="line2d_1">
      <defs>
       <path d="M 0 0 
L 0 3.5 
" id="mcee0f59f73" style="stroke:#000000;stroke-width:0.8;"/>
      </defs>
      <g>
       <use style="stroke:#000000;stroke-width:0.8;" x="60.932" xlink:href="#mcee0f59f73" y="326.72"/>
      </g>
     </g>
     <g id="text_1">
      <!-- Γ -->
      <g transform="translate(56.753094 345.117656)scale(0.15 -0.15)">
       <defs>
        <path d="M 9.8125 0 
L 9.8125 72.90625 
L 55.171875 72.90625 
L 55.171875 64.59375 
L 19.671875 64.59375 
L 19.671875 0 
z
" id="DejaVuSans-915"/>
       </defs>
       <use xlink:href="#DejaVuSans-915"/>
      </g>
     </g>
    </g>
    <g id="xtick_2">
     <g id="line2d_2">
      <g>
       <use style="stroke:#000000;stroke-width:0.8;" x="121.941126" xlink:href="#mcee0f59f73" y="326.72"/>
      </g>
     </g>
     <g id="text_2">
      <!-- K -->
      <g transform="translate(117.022766 345.117656)scale(0.15 -0.15)">
       <defs>
        <path d="M 9.8125 72.90625 
L 19.671875 72.90625 
L 19.671875 42.09375 
L 52.390625 72.90625 
L 65.09375 72.90625 
L 28.90625 38.921875 
L 67.671875 0 
L 54.6875 0 
L 19.671875 35.109375 
L 19.671875 0 
L 9.8125 0 
z
" id="DejaVuSans-75"/>
       </defs>
       <use xlink:href="#DejaVuSans-75"/>
      </g>
     </g>
    </g>
    <g id="xtick_3">
     <g id="line2d_3">
      <g>
       <use style="stroke:#000000;stroke-width:0.8;" x="152.445689" xlink:href="#mcee0f59f73" y="326.72"/>
      </g>
     </g>
     <g id="text_3">
      <!-- M -->
      <g transform="translate(145.974595 345.117656)scale(0.15 -0.15)">
       <defs>
        <path d="M 9.8125 72.90625 
L 24.515625 72.90625 
L 43.109375 23.296875 
L 61.8125 72.90625 
L 76.515625 72.90625 
L 76.515625 0 
L 66.890625 0 
L 66.890625 64.015625 
L 48.09375 14.015625 
L 38.1875 14.015625 
L 19.390625 64.015625 
L 19.390625 0 
L 9.8125 0 
z
" id="DejaVuSans-77"/>
       </defs>
       <use xlink:href="#DejaVuSans-77"/>
      </g>
     </g>
    </g>
    <g id="xtick_4">
     <g id="line2d_4">
      <g>
       <use style="stroke:#000000;stroke-width:0.8;" x="205.281142" xlink:href="#mcee0f59f73" y="326.72"/>
      </g>
     </g>
     <g id="text_4">
      <!-- Γ -->
      <g transform="translate(201.102235 345.117656)scale(0.15 -0.15)">
       <use xlink:href="#DejaVuSans-915"/>
      </g>
     </g>
    </g>
    <g id="xtick_5">
     <g id="line2d_5">
      <g>
       <use style="stroke:#000000;stroke-width:0.8;" x="275.757714" xlink:href="#mcee0f59f73" y="326.72"/>
      </g>
     </g>
     <g id="text_5">
      <!-- A -->
      <g transform="translate(270.627245 345.117656)scale(0.15 -0.15)">
       <defs>
        <path d="M 34.1875 63.1875 
L 20.796875 26.90625 
L 47.609375 26.90625 
z
M 28.609375 72.90625 
L 39.796875 72.90625 
L 67.578125 0 
L 57.328125 0 
L 50.6875 18.703125 
L 17.828125 18.703125 
L 11.1875 0 
L 0.78125 0 
z
" id="DejaVuSans-65"/>
       </defs>
       <use xlink:href="#DejaVuSans-65"/>
      </g>
     </g>
    </g>
    <g id="xtick_6">
     <g id="line2d_6">
      <g>
       <use style="stroke:#000000;stroke-width:0.8;" x="336.76684" xlink:href="#mcee0f59f73" y="326.72"/>
      </g>
     </g>
     <g id="text_6">
      <!-- H -->
      <g transform="translate(331.126605 345.117656)scale(0.15 -0.15)">
       <defs>
        <path d="M 9.8125 72.90625 
L 19.671875 72.90625 
L 19.671875 43.015625 
L 55.515625 43.015625 
L 55.515625 72.90625 
L 65.375 72.90625 
L 65.375 0 
L 55.515625 0 
L 55.515625 34.71875 
L 19.671875 34.71875 
L 19.671875 0 
L 9.8125 0 
z
" id="DejaVuSans-72"/>
       </defs>
       <use xlink:href="#DejaVuSans-72"/>
      </g>
     </g>
    </g>
    <g id="xtick_7">
     <g id="line2d_7">
      <g>
       <use style="stroke:#000000;stroke-width:0.8;" x="367.271403" xlink:href="#mcee0f59f73" y="326.72"/>
      </g>
     </g>
     <g id="text_7">
      <!-- L -->
      <g transform="translate(363.092496 345.117656)scale(0.15 -0.15)">
       <defs>
        <path d="M 9.8125 72.90625 
L 19.671875 72.90625 
L 19.671875 8.296875 
L 55.171875 8.296875 
L 55.171875 0 
L 9.8125 0 
z
" id="DejaVuSans-76"/>
       </defs>
       <use xlink:href="#DejaVuSans-76"/>
      </g>
     </g>
    </g>
    <g id="xtick_8">
     <g id="line2d_8">
      <g>
       <use style="stroke:#000000;stroke-width:0.8;" x="420.106855" xlink:href="#mcee0f59f73" y="326.72"/>
      </g>
     </g>
     <g id="text_8">
      <!-- A|K -->
      <g transform="translate(407.531465 345.183281)scale(0.15 -0.15)">
       <defs>
        <path d="M 21 76.421875 
L 21 -23.578125 
L 12.703125 -23.578125 
L 12.703125 76.421875 
z
" id="DejaVuSans-124"/>
       </defs>
       <use xlink:href="#DejaVuSans-65"/>
       <use x="68.408203" xlink:href="#DejaVuSans-124"/>
       <use x="102.099609" xlink:href="#DejaVuSans-75"/>
      </g>
     </g>
    </g>
    <g id="xtick_9">
     <g id="line2d_9">
      <g>
       <use style="stroke:#000000;stroke-width:0.8;" x="420.106855" xlink:href="#mcee0f59f73" y="326.72"/>
      </g>
     </g>
     <g id="text_9">
      <!-- A|K -->
      <g transform="translate(407.531465 345.183281)scale(0.15 -0.15)">
       <use xlink:href="#DejaVuSans-65"/>
       <use x="68.408203" xlink:href="#DejaVuSans-124"/>
       <use x="102.099609" xlink:href="#DejaVuSans-75"/>
      </g>
     </g>
    </g>
    <g id="xtick_10">
     <g id="line2d_10">
      <g>
       <use style="stroke:#000000;stroke-width:0.8;" x="490.583428" xlink:href="#mcee0f59f73" y="326.72"/>
      </g>
     </g>
     <g id="text_10">
      <!-- H|M -->
      <g transform="translate(475.945537 345.183281)scale(0.15 -0.15)">
       <use xlink:href="#DejaVuSans-72"/>
       <use x="75.195312" xlink:href="#DejaVuSans-124"/>
       <use x="108.886719" xlink:href="#DejaVuSans-77"/>
      </g>
     </g>
    </g>
    <g id="xtick_11">
     <g id="line2d_11">
      <g>
       <use style="stroke:#000000;stroke-width:0.8;" x="490.583428" xlink:href="#mcee0f59f73" y="326.72"/>
      </g>
     </g>
     <g id="text_11">
      <!-- H|M -->
      <g transform="translate(475.945537 345.183281)scale(0.15 -0.15)">
       <use xlink:href="#DejaVuSans-72"/>
       <use x="75.195312" xlink:href="#DejaVuSans-124"/>
       <use x="108.886719" xlink:href="#DejaVuSans-77"/>
      </g>
     </g>
    </g>
    <g id="xtick_12">
     <g id="line2d_12">
      <g>
       <use style="stroke:#000000;stroke-width:0.8;" x="561.06" xlink:href="#mcee0f59f73" y="326.72"/>
      </g>
     </g>
     <g id="text_12">
      <!-- L -->
      <g transform="translate(556.881094 345.117656)scale(0.15 -0.15)">
       <use xlink:href="#DejaVuSans-76"/>
      </g>
     </g>
    </g>
   </g>
   <g id="matplotlib.axis_2">
    <g id="ytick_1">
     <g id="line2d_13">
      <defs>
       <path d="M 0 0 
L -3.5 0 
" id="m68cba060dd" style="stroke:#000000;stroke-width:0.8;"/>
      </defs>
      <g>
       <use style="stroke:#000000;stroke-width:0.8;" x="60.932" xlink:href="#m68cba060dd" y="297.24"/>
      </g>
     </g>
     <g id="text_13">
      <!-- −4 -->
      <g transform="translate(31.818719 302.938828)scale(0.15 -0.15)">
       <defs>
        <path d="M 10.59375 35.5 
L 73.1875 35.5 
L 73.1875 27.203125 
L 10.59375 27.203125 
z
" id="DejaVuSans-8722"/>
        <path d="M 37.796875 64.3125 
L 12.890625 25.390625 
L 37.796875 25.390625 
z
M 35.203125 72.90625 
L 47.609375 72.90625 
L 47.609375 25.390625 
L 58.015625 25.390625 
L 58.015625 17.1875 
L 47.609375 17.1875 
L 47.609375 0 
L 37.796875 0 
L 37.796875 17.1875 
L 4.890625 17.1875 
L 4.890625 26.703125 
z
" id="DejaVuSans-52"/>
       </defs>
       <use xlink:href="#DejaVuSans-8722"/>
       <use x="83.789062" xlink:href="#DejaVuSans-52"/>
      </g>
     </g>
    </g>
    <g id="ytick_2">
     <g id="line2d_14">
      <g>
       <use style="stroke:#000000;stroke-width:0.8;" x="60.932" xlink:href="#m68cba060dd" y="238.28"/>
      </g>
     </g>
     <g id="text_14">
      <!-- −2 -->
      <g transform="translate(31.818719 243.978828)scale(0.15 -0.15)">
       <defs>
        <path d="M 19.1875 8.296875 
L 53.609375 8.296875 
L 53.609375 0 
L 7.328125 0 
L 7.328125 8.296875 
Q 12.9375 14.109375 22.625 23.890625 
Q 32.328125 33.6875 34.8125 36.53125 
Q 39.546875 41.84375 41.421875 45.53125 
Q 43.3125 49.21875 43.3125 52.78125 
Q 43.3125 58.59375 39.234375 62.25 
Q 35.15625 65.921875 28.609375 65.921875 
Q 23.96875 65.921875 18.8125 64.3125 
Q 13.671875 62.703125 7.8125 59.421875 
L 7.8125 69.390625 
Q 13.765625 71.78125 18.9375 73 
Q 24.125 74.21875 28.421875 74.21875 
Q 39.75 74.21875 46.484375 68.546875 
Q 53.21875 62.890625 53.21875 53.421875 
Q 53.21875 48.921875 51.53125 44.890625 
Q 49.859375 40.875 45.40625 35.40625 
Q 44.1875 33.984375 37.640625 27.21875 
Q 31.109375 20.453125 19.1875 8.296875 
z
" id="DejaVuSans-50"/>
       </defs>
       <use xlink:href="#DejaVuSans-8722"/>
       <use x="83.789062" xlink:href="#DejaVuSans-50"/>
      </g>
     </g>
    </g>
    <g id="ytick_3">
     <g id="line2d_15">
      <g>
       <use style="stroke:#000000;stroke-width:0.8;" x="60.932" xlink:href="#m68cba060dd" y="179.32"/>
      </g>
     </g>
     <g id="text_15">
      <!-- 0 -->
      <g transform="translate(44.38825 185.018828)scale(0.15 -0.15)">
       <defs>
        <path d="M 31.78125 66.40625 
Q 24.171875 66.40625 20.328125 58.90625 
Q 16.5 51.421875 16.5 36.375 
Q 16.5 21.390625 20.328125 13.890625 
Q 24.171875 6.390625 31.78125 6.390625 
Q 39.453125 6.390625 43.28125 13.890625 
Q 47.125 21.390625 47.125 36.375 
Q 47.125 51.421875 43.28125 58.90625 
Q 39.453125 66.40625 31.78125 66.40625 
z
M 31.78125 74.21875 
Q 44.046875 74.21875 50.515625 64.515625 
Q 56.984375 54.828125 56.984375 36.375 
Q 56.984375 17.96875 50.515625 8.265625 
Q 44.046875 -1.421875 31.78125 -1.421875 
Q 19.53125 -1.421875 13.0625 8.265625 
Q 6.59375 17.96875 6.59375 36.375 
Q 6.59375 54.828125 13.0625 64.515625 
Q 19.53125 74.21875 31.78125 74.21875 
z
" id="DejaVuSans-48"/>
       </defs>
       <use xlink:href="#DejaVuSans-48"/>
      </g>
     </g>
    </g>
    <g id="ytick_4">
     <g id="line2d_16">
      <g>
       <use style="stroke:#000000;stroke-width:0.8;" x="60.932" xlink:href="#m68cba060dd" y="120.36"/>
      </g>
     </g>
     <g id="text_16">
      <!-- 2 -->
      <g transform="translate(44.38825 126.058828)scale(0.15 -0.15)">
       <use xlink:href="#DejaVuSans-50"/>
      </g>
     </g>
    </g>
    <g id="ytick_5">
     <g id="line2d_17">
      <g>
       <use style="stroke:#000000;stroke-width:0.8;" x="60.932" xlink:href="#m68cba060dd" y="61.4"/>
      </g>
     </g>
     <g id="text_17">
      <!-- 4 -->
      <g transform="translate(44.38825 67.098828)scale(0.15 -0.15)">
       <use xlink:href="#DejaVuSans-52"/>
      </g>
     </g>
    </g>
    <g id="text_18">
     <!-- $\varepsilon_n(k) - \varepsilon_{\mathrm{F}}$ (eV) -->
     <g transform="translate(24.699188 231.595)rotate(-90)scale(0.15 -0.15)">
      <defs>
       <path d="M 19.734375 29.5 
Q 14.453125 30.671875 12.15625 33.84375 
Q 10.453125 36.078125 10.453125 39.109375 
Q 10.453125 47.40625 18.359375 52.25 
Q 24.609375 56.0625 34.1875 56.0625 
Q 37.890625 56.0625 41.9375 55.46875 
Q 46 54.890625 50.53125 53.71875 
L 48.96875 45.5625 
Q 44.484375 46.96875 40.71875 47.609375 
Q 36.859375 48.25 33.40625 48.25 
Q 27.59375 48.25 23.78125 46 
Q 19.1875 43.3125 19.1875 39.40625 
Q 19.1875 36.8125 21.578125 35.015625 
Q 24.421875 32.859375 30.078125 32.859375 
L 37.640625 32.859375 
L 36.234375 25.4375 
L 29 25.4375 
Q 22.265625 25.4375 18.3125 22.953125 
Q 12.9375 19.578125 12.9375 14.3125 
Q 12.9375 10.984375 15.828125 8.796875 
Q 19.4375 6.0625 26.8125 6.0625 
Q 31.34375 6.0625 35.6875 6.9375 
Q 40.046875 7.859375 43.84375 9.671875 
L 42.1875 1.3125 
Q 37.546875 -0.046875 33.296875 -0.734375 
Q 29.046875 -1.421875 25.140625 -1.421875 
Q 13.53125 -1.421875 8.0625 3.03125 
Q 3.90625 6.453125 3.90625 12.203125 
Q 3.90625 19.96875 9.375 24.75 
Q 13.421875 28.328125 19.734375 29.5 
z
" id="DejaVuSans-Oblique-949"/>
       <path d="M 55.71875 33.015625 
L 49.3125 0 
L 40.28125 0 
L 46.6875 32.671875 
Q 47.125 34.96875 47.359375 36.71875 
Q 47.609375 38.484375 47.609375 39.5 
Q 47.609375 43.609375 45.015625 45.890625 
Q 42.4375 48.1875 37.796875 48.1875 
Q 30.5625 48.1875 25.34375 43.375 
Q 20.125 38.578125 18.5 30.328125 
L 12.5 0 
L 3.515625 0 
L 14.109375 54.6875 
L 23.09375 54.6875 
L 21.296875 46.09375 
Q 25.046875 50.828125 30.3125 53.40625 
Q 35.59375 56 41.40625 56 
Q 48.640625 56 52.609375 52.09375 
Q 56.59375 48.1875 56.59375 41.109375 
Q 56.59375 39.359375 56.375 37.359375 
Q 56.15625 35.359375 55.71875 33.015625 
z
" id="DejaVuSans-Oblique-110"/>
       <path d="M 31 75.875 
Q 24.46875 64.65625 21.28125 53.65625 
Q 18.109375 42.671875 18.109375 31.390625 
Q 18.109375 20.125 21.3125 9.0625 
Q 24.515625 -2 31 -13.1875 
L 23.1875 -13.1875 
Q 15.875 -1.703125 12.234375 9.375 
Q 8.59375 20.453125 8.59375 31.390625 
Q 8.59375 42.28125 12.203125 53.3125 
Q 15.828125 64.359375 23.1875 75.875 
z
" id="DejaVuSans-40"/>
       <path d="M 18.3125 75.984375 
L 27.296875 75.984375 
L 18.703125 31.6875 
L 49.515625 54.6875 
L 61.1875 54.6875 
L 26.8125 28.515625 
L 51.90625 0 
L 41.015625 0 
L 17.671875 26.703125 
L 12.5 0 
L 3.515625 0 
z
" id="DejaVuSans-Oblique-107"/>
       <path d="M 8.015625 75.875 
L 15.828125 75.875 
Q 23.140625 64.359375 26.78125 53.3125 
Q 30.421875 42.28125 30.421875 31.390625 
Q 30.421875 20.453125 26.78125 9.375 
Q 23.140625 -1.703125 15.828125 -13.1875 
L 8.015625 -13.1875 
Q 14.5 -2 17.703125 9.0625 
Q 20.90625 20.125 20.90625 31.390625 
Q 20.90625 42.671875 17.703125 53.65625 
Q 14.5 64.65625 8.015625 75.875 
z
" id="DejaVuSans-41"/>
       <path d="M 9.8125 72.90625 
L 51.703125 72.90625 
L 51.703125 64.59375 
L 19.671875 64.59375 
L 19.671875 43.109375 
L 48.578125 43.109375 
L 48.578125 34.8125 
L 19.671875 34.8125 
L 19.671875 0 
L 9.8125 0 
z
" id="DejaVuSans-70"/>
       <path id="DejaVuSans-32"/>
       <path d="M 56.203125 29.59375 
L 56.203125 25.203125 
L 14.890625 25.203125 
Q 15.484375 15.921875 20.484375 11.0625 
Q 25.484375 6.203125 34.421875 6.203125 
Q 39.59375 6.203125 44.453125 7.46875 
Q 49.3125 8.734375 54.109375 11.28125 
L 54.109375 2.78125 
Q 49.265625 0.734375 44.1875 -0.34375 
Q 39.109375 -1.421875 33.890625 -1.421875 
Q 20.796875 -1.421875 13.15625 6.1875 
Q 5.515625 13.8125 5.515625 26.8125 
Q 5.515625 40.234375 12.765625 48.109375 
Q 20.015625 56 32.328125 56 
Q 43.359375 56 49.78125 48.890625 
Q 56.203125 41.796875 56.203125 29.59375 
z
M 47.21875 32.234375 
Q 47.125 39.59375 43.09375 43.984375 
Q 39.0625 48.390625 32.421875 48.390625 
Q 24.90625 48.390625 20.390625 44.140625 
Q 15.875 39.890625 15.1875 32.171875 
z
" id="DejaVuSans-101"/>
       <path d="M 28.609375 0 
L 0.78125 72.90625 
L 11.078125 72.90625 
L 34.1875 11.53125 
L 57.328125 72.90625 
L 67.578125 72.90625 
L 39.796875 0 
z
" id="DejaVuSans-86"/>
      </defs>
      <use transform="translate(0 0.015625)" xlink:href="#DejaVuSans-Oblique-949"/>
      <use transform="translate(54.052734 -16.390625)scale(0.7)" xlink:href="#DejaVuSans-Oblique-110"/>
      <use transform="translate(101.152344 0.015625)" xlink:href="#DejaVuSans-40"/>
      <use transform="translate(140.166016 0.015625)" xlink:href="#DejaVuSans-Oblique-107"/>
      <use transform="translate(198.076172 0.015625)" xlink:href="#DejaVuSans-41"/>
      <use transform="translate(256.572266 0.015625)" xlink:href="#DejaVuSans-8722"/>
      <use transform="translate(359.84375 0.015625)" xlink:href="#DejaVuSans-Oblique-949"/>
      <use transform="translate(413.896484 -16.390625)scale(0.7)" xlink:href="#DejaVuSans-70"/>
      <use transform="translate(456.894531 0.015625)" xlink:href="#DejaVuSans-32"/>
      <use transform="translate(488.681641 0.015625)" xlink:href="#DejaVuSans-40"/>
      <use transform="translate(527.695312 0.015625)" xlink:href="#DejaVuSans-101"/>
      <use transform="translate(589.21875 0.015625)" xlink:href="#DejaVuSans-86"/>
      <use transform="translate(657.626953 0.015625)" xlink:href="#DejaVuSans-41"/>
     </g>
    </g>
   </g>
   <g id="line2d_18">
    <path clip-path="url(#pa91db72b59)" d="M 0 0 
" style="fill:none;stroke:#ff0000;stroke-linecap:square;stroke-width:2;"/>
   </g>
   <g id="line2d_19">
    <path clip-path="url(#pa91db72b59)" d="M 0 0 
" style="fill:none;stroke:#ff0000;stroke-linecap:square;stroke-width:2;"/>
   </g>
   <g id="line2d_20">
    <path clip-path="url(#pa91db72b59)" d="M 0 0 
" style="fill:none;stroke:#ff0000;stroke-linecap:square;stroke-width:2;"/>
   </g>
   <g id="line2d_21">
    <path clip-path="url(#pa91db72b59)" d="M 0 0 
" style="fill:none;stroke:#ff0000;stroke-linecap:square;stroke-width:2;"/>
   </g>
   <g id="line2d_22">
    <path clip-path="url(#pa91db72b59)" d="M 0 0 
" style="fill:none;stroke:#ff0000;stroke-linecap:square;stroke-width:2;"/>
   </g>
   <g id="line2d_23">
    <path clip-path="url(#pa91db72b59)" d="M 0 0 
" style="fill:none;stroke:#ff0000;stroke-linecap:square;stroke-width:2;"/>
   </g>
   <g id="line2d_24">
    <path clip-path="url(#pa91db72b59)" d="M 0 0 
" style="fill:none;stroke:#ff0000;stroke-linecap:square;stroke-width:2;"/>
   </g>
   <g id="line2d_25">
    <path clip-path="url(#pa91db72b59)" d="M 0 0 
" style="fill:none;stroke:#ff0000;stroke-linecap:square;stroke-width:2;"/>
   </g>
   <g id="line2d_26">
    <path clip-path="url(#pa91db72b59)" d="M 267.376998 361 
L 276.593455 360.959387 
L 276.998983 361 
M 418.863798 361 
L 420.106855 360.931606 
L 420.106855 361 
L 420.106855 361 
" style="fill:none;stroke:#ff0000;stroke-linecap:square;stroke-width:2;"/>
   </g>
   <g id="line2d_27">
    <path clip-path="url(#pa91db72b59)" d="M 60.932 353.202818 
L 63.474047 353.362862 
L 66.016094 353.808921 
L 69.40549 354.694037 
L 85.50512 359.30072 
L 92.138275 361 
M 121.860613 361 
L 121.941126 360.925085 
L 122.006737 361 
M 166.864714 361 
L 171.734822 347.633845 
L 172.57348 348.039686 
L 175.928112 350.071975 
L 179.282744 351.852696 
L 182.637376 353.345503 
L 185.15335 354.241848 
L 187.669324 354.903888 
L 190.185298 355.275076 
L 191.862614 355.330335 
L 193.53993 355.221054 
L 196.055904 354.788262 
L 201.92651 353.477416 
L 204.442484 353.220529 
L 211.993196 353.16928 
L 226.256312 353.078555 
L 230.451346 356.731945 
L 235.094006 361 
M 267.374427 361 
L 277.429197 360.94783 
L 279.183455 361 
M 333.984609 361 
L 335.931098 359.409657 
L 336.76684 358.654412 
L 337.614189 359.641788 
L 338.541754 361 
M 416.866227 361 
L 420.935992 360.924332 
L 430.885625 360.800062 
L 442.493531 360.417413 
L 460.734526 359.538574 
L 475.658977 358.905594 
L 486.437747 358.674636 
L 490.583428 358.654412 
L 490.583428 361 
L 490.583428 361 
" style="fill:none;stroke:#ff0000;stroke-linecap:square;stroke-width:2;"/>
   </g>
   <g id="line2d_28">
    <path clip-path="url(#pa91db72b59)" d="M 60.932 343.111255 
L 64.321396 342.966526 
L 67.710792 342.532578 
L 71.100188 341.810133 
L 74.489584 340.800419 
L 77.878979 339.505206 
L 81.268375 337.926875 
L 84.657771 336.068507 
L 88.047167 333.934035 
L 88.894516 333.357836 
L 89.741865 333.863956 
L 94.825959 346.221447 
L 100.700034 361 
M 117.159043 361 
L 119.399079 360.23662 
L 120.246428 360.12981 
L 121.093777 360.318785 
L 121.941126 360.925047 
L 124.483173 358.307806 
L 127.02522 355.368508 
L 131.261964 350.02239 
L 136.346058 343.547588 
L 138.888105 340.569886 
L 141.430152 337.916165 
L 143.12485 336.376571 
L 144.819548 335.051161 
L 146.514246 333.962372 
L 148.208944 333.128791 
L 149.903642 332.564892 
L 151.59834 332.280424 
L 152.445689 332.244739 
L 153.284347 332.672557 
L 156.638979 335.634149 
L 161.670927 339.972918 
L 165.864216 343.315754 
L 170.057506 346.365655 
L 171.734822 347.495377 
L 175.089454 338.806955 
L 176.76677 334.541534 
L 177.605428 333.557469 
L 180.96006 335.714604 
L 184.314692 337.602928 
L 187.669324 339.217989 
L 191.023956 340.556427 
L 194.378588 341.615696 
L 197.73322 342.393909 
L 201.087852 342.889747 
L 204.442484 343.102393 
L 206.959155 343.18376 
L 209.476176 343.562326 
L 211.993196 344.256226 
L 214.510216 345.249537 
L 217.027237 346.520278 
L 219.544257 348.041194 
L 222.061278 349.7815 
L 226.256312 352.895689 
L 249.748503 352.139358 
L 265.689632 351.755272 
L 276.593455 351.696103 
L 279.10068 351.94203 
L 281.607904 352.43373 
L 285.786611 353.556507 
L 300.829957 357.817326 
L 308.35163 359.762161 
L 313.366079 360.818177 
L 314.438144 361 
M 327.227345 361 
L 329.245167 360.458867 
L 331.752391 359.521837 
L 335.095357 358.151344 
L 335.931098 358.150404 
L 336.76684 358.654373 
L 339.308887 356.11712 
L 341.850933 353.271463 
L 346.087678 348.100368 
L 347.782376 345.979305 
L 348.629725 345.762011 
L 352.019121 347.102397 
L 355.408517 348.179689 
L 358.797913 348.990332 
L 362.187309 349.531973 
L 365.576705 349.803147 
L 367.271403 349.837062 
L 374.819324 358.88757 
L 376.736093 361 
M 380.882794 361 
L 385.721878 347.808889 
L 386.560536 345.835989 
L 389.915168 347.913574 
L 393.2698 349.750758 
L 396.624432 351.316028 
L 399.140406 352.282506 
L 401.65638 353.035146 
L 404.172354 353.524471 
L 405.84967 353.673867 
L 407.526986 353.664105 
L 410.04296 353.359998 
L 413.397592 352.621913 
L 416.752223 351.94346 
L 419.268197 351.696221 
L 420.106855 351.679167 
L 420.106855 360.925047 
L 430.056489 360.818234 
L 440.835259 360.484846 
L 456.588846 359.746054 
L 474.829841 358.932837 
L 485.608611 358.683456 
L 490.583428 358.654373 
L 490.583428 332.244739 
L 503.849606 332.133947 
L 519.603193 331.769366 
L 523.748873 331.650097 
L 524.57801 331.767579 
L 530.381963 336.436197 
L 534.527643 339.531153 
L 538.673324 342.32895 
L 541.989869 344.304751 
L 545.306413 346.013588 
L 548.622958 347.429747 
L 551.110366 348.287132 
L 553.597775 348.961189 
L 556.085183 349.446502 
L 558.572592 349.73923 
L 561.06 349.837062 
L 561.06 349.837062 
" style="fill:none;stroke:#ff0000;stroke-linecap:square;stroke-width:2;"/>
   </g>
   <g id="line2d_29">
    <path clip-path="url(#pa91db72b59)" d="M 60.932 292.382234 
L 62.626698 292.561737 
L 64.321396 293.098083 
L 66.016094 293.984876 
L 67.710792 295.211799 
L 69.40549 296.765103 
L 71.100188 298.628333 
L 72.794886 300.782797 
L 74.489584 303.208375 
L 77.03163 307.309161 
L 79.573677 311.901494 
L 82.115724 316.915647 
L 85.50512 324.145509 
L 88.894516 331.869964 
L 89.741865 332.764781 
L 93.131261 330.226048 
L 96.520657 327.42686 
L 99.910053 324.377753 
L 100.757402 324.496507 
L 104.994146 330.870541 
L 110.07824 338.928765 
L 118.55173 352.642172 
L 120.246428 354.861691 
L 121.093777 355.543515 
L 121.941126 355.767798 
L 122.788475 355.590754 
L 123.635824 355.157569 
L 125.330522 353.884847 
L 127.02522 352.315461 
L 129.567267 349.645838 
L 134.65136 343.813182 
L 138.040756 340.007578 
L 140.582803 337.4112 
L 143.12485 335.161187 
L 144.819548 333.901984 
L 146.514246 332.864116 
L 148.208944 332.067534 
L 149.903642 331.527734 
L 151.59834 331.255135 
L 152.445689 331.220926 
L 153.284347 330.786308 
L 155.800321 328.472783 
L 162.509585 321.841822 
L 163.348242 321.602737 
L 167.541532 325.548204 
L 171.734822 329.155138 
L 175.089454 331.766749 
L 176.76677 332.976843 
L 177.605428 332.451117 
L 180.96006 324.409991 
L 184.314692 316.969156 
L 186.830666 311.858524 
L 189.34664 307.215107 
L 191.862614 303.099532 
L 193.53993 300.679355 
L 195.217246 298.538712 
L 196.894562 296.694408 
L 198.571878 295.161884 
L 200.249194 293.954689 
L 201.92651 293.083971 
L 203.603826 292.558097 
L 205.281142 292.382234 
L 220.383264 292.270455 
L 240.519428 291.867599 
L 264.850625 291.407587 
L 276.593455 291.38944 
L 278.264938 291.729647 
L 279.936421 292.406243 
L 281.607904 293.411635 
L 283.279387 294.735097 
L 284.95087 296.362664 
L 286.622353 298.278411 
L 288.293836 300.464549 
L 290.80106 304.209365 
L 293.308284 308.45418 
L 295.815509 313.133667 
L 299.158474 319.941727 
L 302.50144 327.27447 
L 306.680147 336.997274 
L 312.530338 351.299038 
L 315.873303 359.657623 
L 316.547074 361 
M 319.060779 361 
L 319.216269 360.887565 
L 323.394976 356.150586 
L 327.573684 351.027274 
L 330.080908 347.777833 
L 330.91665 347.160696 
L 334.259615 352.500805 
L 335.095357 353.645608 
L 335.931098 354.482999 
L 336.76684 354.774963 
L 337.614189 354.553422 
L 338.461538 354.047011 
L 340.156236 352.653869 
L 342.698282 350.105484 
L 346.087678 346.265117 
L 346.935027 345.264406 
L 347.782376 345.386397 
L 348.629725 345.249504 
L 352.019121 346.725139 
L 355.408517 347.909592 
L 358.797913 348.800178 
L 362.187309 349.394953 
L 365.576705 349.692653 
L 367.271403 349.72988 
L 369.787377 346.486648 
L 373.980666 340.726607 
L 375.657982 338.335786 
L 376.49664 338.377308 
L 380.68993 341.688903 
L 384.88322 344.714411 
L 385.721878 345.281832 
L 386.560536 345.580891 
L 390.753826 334.771609 
L 394.108458 326.60747 
L 397.46309 318.98509 
L 399.979064 313.694194 
L 402.495038 308.828131 
L 405.011012 304.444487 
L 407.526986 300.60192 
L 409.204302 298.369679 
L 410.881618 296.420245 
L 412.558934 294.769078 
L 414.23625 293.429981 
L 415.913565 292.414693 
L 417.590881 291.732449 
L 419.268197 291.38973 
L 420.106855 291.346823 
L 420.106855 355.767798 
L 436.689578 355.656537 
L 457.417982 355.277348 
L 484.779475 354.797077 
L 490.583428 354.774963 
L 490.583428 331.220926 
L 502.191334 331.110811 
L 515.457512 330.751173 
L 522.919737 330.478128 
L 524.57801 331.625836 
L 527.894554 331.528506 
L 534.527643 337.53865 
L 537.844188 340.230419 
L 541.160733 342.645711 
L 544.477277 344.74881 
L 546.964686 346.103087 
L 549.452094 347.254302 
L 551.939502 348.193685 
L 554.426911 348.914181 
L 556.914319 349.4104 
L 559.401728 349.67869 
L 561.06 349.72988 
L 561.06 349.72988 
" style="fill:none;stroke:#ff0000;stroke-linecap:square;stroke-width:2;"/>
   </g>
   <g id="line2d_30">
    <path clip-path="url(#pa91db72b59)" d="M 60.932 292.382211 
L 63.474047 292.525868 
L 66.016094 292.956195 
L 68.558141 293.671257 
L 71.100188 294.667848 
L 73.642235 295.941449 
L 76.184281 297.486268 
L 78.726328 299.295326 
L 81.268375 301.360194 
L 83.810422 303.671479 
L 87.199818 307.118048 
L 90.589214 310.955848 
L 93.97861 315.154101 
L 97.368006 319.679404 
L 99.910053 323.266901 
L 100.757402 323.578084 
L 104.994146 319.37203 
L 110.07824 313.950242 
L 116.009683 307.62063 
L 117.704381 306.100357 
L 119.399079 304.962676 
L 120.246428 304.59707 
L 121.093777 304.38375 
L 121.941126 304.316466 
L 123.635824 304.535633 
L 125.330522 305.059939 
L 128.719918 306.47245 
L 134.65136 308.979119 
L 138.040756 310.179616 
L 141.430152 311.150986 
L 144.819548 311.873768 
L 148.208944 312.337649 
L 151.59834 312.537324 
L 152.445689 312.545653 
L 153.284347 312.676661 
L 154.123005 313.044088 
L 155.800321 314.256563 
L 158.316295 316.605362 
L 162.509585 320.780609 
L 163.348242 320.999039 
L 174.250796 310.176662 
L 179.282744 305.523402 
L 183.476034 301.978584 
L 186.830666 299.435896 
L 190.185298 297.212131 
L 192.701272 295.784831 
L 195.217246 294.586104 
L 197.73322 293.633673 
L 200.249194 292.942234 
L 202.765168 292.522802 
L 205.281142 292.382211 
L 220.383264 292.270431 
L 240.519428 291.867576 
L 264.850625 291.407563 
L 276.593455 291.362058 
L 279.10068 291.590786 
L 281.607904 292.093095 
L 284.115128 292.866814 
L 286.622353 293.908763 
L 289.129577 295.214407 
L 291.636801 296.778358 
L 294.144026 298.593876 
L 296.65125 300.653176 
L 299.158474 302.947444 
L 302.50144 306.354709 
L 305.844406 310.136041 
L 309.187372 314.262846 
L 312.530338 318.704325 
L 316.709045 324.648493 
L 320.887752 330.965169 
L 325.902201 338.93273 
L 330.080908 345.783605 
L 330.91665 346.667663 
L 335.931098 340.008929 
L 336.76684 339.549242 
L 337.614189 339.820227 
L 341.003585 341.825589 
L 344.39298 343.725667 
L 346.935027 344.994794 
L 347.782376 344.835489 
L 348.629725 344.925165 
L 352.019121 340.853619 
L 354.561168 338.069689 
L 357.103215 335.633099 
L 358.797913 334.247225 
L 360.492611 333.079698 
L 362.187309 332.150252 
L 363.882007 331.474697 
L 365.576705 331.064632 
L 367.271403 330.927158 
L 368.110061 331.264298 
L 369.787377 332.627666 
L 375.657982 337.684307 
L 376.49664 337.123064 
L 381.528588 329.63041 
L 388.237852 319.214225 
L 397.46309 304.868284 
L 400.817722 299.996057 
L 402.495038 297.709289 
L 405.011012 296.094882 
L 407.526986 294.691078 
L 410.04296 293.512545 
L 412.558934 292.576443 
L 415.074908 291.897024 
L 417.590881 291.484909 
L 420.106855 291.346799 
L 420.106855 304.316466 
L 422.594264 304.446124 
L 425.081672 304.832307 
L 427.569081 305.467025 
L 430.056489 306.337339 
L 432.543898 307.425897 
L 435.860442 309.180363 
L 439.176987 311.228783 
L 443.322667 314.108151 
L 448.297484 317.866275 
L 460.734526 327.422197 
L 464.880207 330.303334 
L 469.025888 332.892278 
L 472.342433 334.708324 
L 475.658977 336.266414 
L 478.975522 337.542599 
L 482.292066 338.517383 
L 484.779475 339.041529 
L 487.266883 339.383005 
L 489.754292 339.538839 
L 490.583428 339.549242 
L 490.583428 312.545653 
L 493.070836 312.684047 
L 495.558245 313.096196 
L 498.045653 313.773369 
L 500.533061 314.701472 
L 503.02047 315.861731 
L 505.507878 317.23166 
L 508.824423 319.339748 
L 512.140967 321.709278 
L 516.286648 324.934746 
L 522.919737 330.394813 
L 524.57801 330.414109 
L 526.236282 330.349577 
L 527.065418 330.698023 
L 527.894554 331.499142 
L 531.211099 331.432384 
L 549.452094 331.014209 
L 561.06 330.927158 
L 561.06 330.927158 
" style="fill:none;stroke:#ff0000;stroke-linecap:square;stroke-width:2;"/>
   </g>
   <g id="line2d_31">
    <path clip-path="url(#pa91db72b59)" d="M 60.932 243.729447 
L 62.626698 243.852626 
L 64.321396 244.219331 
L 66.016094 244.820857 
L 67.710792 245.643643 
L 69.40549 246.670341 
L 71.947537 248.548868 
L 74.489584 250.76967 
L 77.03163 253.261825 
L 80.421026 256.894446 
L 85.50512 262.7438 
L 98.215355 277.616984 
L 103.299448 283.129319 
L 107.536193 287.353267 
L 110.925589 290.396529 
L 113.467636 292.393682 
L 115.162334 293.518424 
L 116.857032 294.384959 
L 117.704381 294.678876 
L 118.55173 294.848629 
L 119.399079 294.868329 
L 120.246428 294.71652 
L 121.093777 294.383601 
L 121.941126 293.875893 
L 125.330522 296.112428 
L 128.719918 298.101891 
L 132.109313 299.837832 
L 135.498709 301.314933 
L 138.888105 302.528935 
L 142.277501 303.476492 
L 145.666897 304.155065 
L 149.056293 304.56289 
L 152.445689 304.698947 
L 153.284347 304.554344 
L 154.123005 304.146181 
L 154.961663 303.5322 
L 156.638979 301.905986 
L 159.154953 298.940734 
L 162.509585 294.522725 
L 166.702874 288.59919 
L 172.57348 279.863744 
L 185.992008 259.648314 
L 189.34664 255.061867 
L 191.862614 251.938533 
L 194.378588 249.195818 
L 196.055904 247.632965 
L 197.73322 246.318164 
L 199.410536 245.27273 
L 201.087852 244.503798 
L 202.765168 244.004182 
L 204.442484 243.759708 
L 206.120148 243.747388 
L 208.637169 244.01556 
L 211.154189 244.599476 
L 213.67121 245.485827 
L 216.18823 246.654921 
L 218.705251 248.081764 
L 221.222271 249.73725 
L 224.578298 252.244736 
L 227.934326 255.021723 
L 232.968366 259.515617 
L 245.553469 270.945841 
L 249.748503 274.385004 
L 253.10453 276.885694 
L 256.460557 279.119094 
L 259.816584 281.050537 
L 262.333605 282.283236 
L 264.850625 283.319491 
L 267.367646 284.150924 
L 269.884666 284.770906 
L 272.401687 285.174541 
L 274.918707 285.358695 
L 277.429197 285.4786 
L 279.10068 285.799501 
L 280.772163 286.327227 
L 282.443645 287.051665 
L 284.115128 287.95967 
L 286.622353 289.631868 
L 289.129577 291.625326 
L 291.636801 293.88155 
L 294.979767 297.202286 
L 299.158474 301.690806 
L 307.515889 311.114326 
L 314.201821 318.527146 
L 319.216269 323.787815 
L 323.394976 327.897659 
L 327.573684 331.71278 
L 331.752391 335.189546 
L 334.259615 337.062637 
L 335.095357 337.611705 
L 335.931098 338.017564 
L 336.76684 337.851326 
L 340.156236 340.311872 
L 343.545631 342.498011 
L 346.935027 344.403554 
L 347.782376 344.257728 
L 352.86647 338.368045 
L 355.408517 335.729652 
L 357.950564 333.447444 
L 359.645262 332.17178 
L 361.33996 331.121132 
L 363.034658 330.315224 
L 364.729356 329.769285 
L 366.424054 329.493685 
L 367.271403 329.459124 
L 368.110061 329.115339 
L 369.787377 327.698881 
L 373.980666 323.693539 
L 392.431142 305.768478 
L 396.624432 302.140332 
L 399.979064 299.498692 
L 402.495038 297.704469 
L 405.011012 294.535879 
L 407.526986 291.749421 
L 409.204302 290.14693 
L 410.881618 288.769807 
L 412.558934 287.628248 
L 414.23625 286.724885 
L 415.913565 286.056365 
L 417.590881 285.616235 
L 419.268197 285.398141 
L 420.106855 285.370983 
L 420.106855 293.875893 
L 421.765128 293.950681 
L 424.252536 294.341197 
L 426.739945 295.057091 
L 429.227353 296.082109 
L 431.714761 297.393636 
L 434.20217 298.964004 
L 436.689578 300.761727 
L 440.006123 303.453379 
L 444.151804 307.173659 
L 449.955757 312.756666 
L 458.247118 320.754752 
L 462.392799 324.484046 
L 466.53848 327.893354 
L 469.855024 330.332483 
L 473.171569 332.474922 
L 476.488113 334.289514 
L 478.975522 335.419711 
L 481.46293 336.342203 
L 483.950339 337.049922 
L 486.437747 337.53742 
L 488.925155 337.801027 
L 490.583428 337.851326 
L 490.583428 304.698947 
L 492.2417 304.776173 
L 493.899972 305.006985 
L 496.387381 305.63541 
L 498.874789 306.588832 
L 501.362198 307.845558 
L 503.849606 309.37823 
L 506.337014 311.15494 
L 509.653559 313.843262 
L 512.970104 316.817255 
L 517.94492 321.62467 
L 526.236282 329.88956 
L 527.065418 330.317227 
L 546.964686 329.638753 
L 558.572592 329.464957 
L 561.06 329.459124 
L 561.06 329.459124 
" style="fill:none;stroke:#ff0000;stroke-linecap:square;stroke-width:2;"/>
   </g>
   <g id="line2d_32">
    <path clip-path="url(#pa91db72b59)" d="M 60.932 243.729399 
L 65.168745 243.836753 
L 67.710792 244.141871 
L 69.40549 244.568428 
L 71.100188 245.240555 
L 72.794886 246.171199 
L 74.489584 247.333761 
L 77.03163 249.421138 
L 79.573677 251.808409 
L 82.963073 255.296842 
L 88.047167 260.883753 
L 99.910053 274.050792 
L 104.994146 279.327846 
L 109.230891 283.44333 
L 113.467636 287.259294 
L 117.704381 290.744876 
L 121.093777 293.27903 
L 121.941126 293.875853 
L 123.635824 292.420526 
L 125.330522 290.5457 
L 127.872569 287.266795 
L 131.261964 282.401718 
L 135.498709 275.855839 
L 140.582803 267.555831 
L 147.361595 255.996638 
L 151.59834 248.831594 
L 152.445689 248.059773 
L 158.316295 247.938966 
L 164.1869 247.588104 
L 170.896164 246.950579 
L 180.121402 245.821563 
L 191.023956 244.514222 
L 196.894562 244.014695 
L 201.92651 243.776068 
L 206.120148 243.74734 
L 208.637169 244.015512 
L 211.154189 244.599428 
L 213.67121 245.485779 
L 216.18823 246.654873 
L 218.705251 248.081717 
L 221.222271 249.737203 
L 224.578298 252.24469 
L 227.934326 255.021677 
L 232.968366 259.515572 
L 245.553469 270.945798 
L 249.748503 274.384961 
L 253.10453 276.885651 
L 256.460557 279.119052 
L 259.816584 281.050495 
L 262.333605 282.283194 
L 264.850625 283.31945 
L 267.367646 284.150883 
L 269.884666 284.770865 
L 272.401687 285.1745 
L 274.918707 285.358654 
L 279.936421 285.501123 
L 282.443645 285.75823 
L 284.95087 286.252678 
L 286.622353 286.773414 
L 288.293836 287.487907 
L 289.965318 288.419744 
L 291.636801 289.574792 
L 293.308284 290.940573 
L 295.815509 293.326169 
L 298.322733 296.020034 
L 302.50144 300.929491 
L 318.380528 320.154912 
L 322.559235 324.758883 
L 326.737942 329.046379 
L 330.91665 332.982004 
L 334.259615 335.859033 
L 336.76684 337.85129 
L 337.614189 336.917113 
L 340.156236 333.257184 
L 344.39298 326.685219 
L 349.477074 318.397041 
L 357.103215 305.460075 
L 361.33996 298.389051 
L 363.034658 295.797786 
L 364.729356 293.597996 
L 365.576705 292.769758 
L 366.424054 292.222364 
L 367.271403 292.029396 
L 372.30335 291.897796 
L 377.335298 291.51114 
L 382.367246 290.894105 
L 388.237852 289.939329 
L 397.46309 288.15908 
L 405.84967 286.621127 
L 410.881618 285.920589 
L 415.074908 285.538642 
L 419.268197 285.37566 
L 420.106855 285.370942 
L 420.106855 293.875853 
L 421.765128 293.950641 
L 424.252536 294.341157 
L 426.739945 295.057052 
L 429.227353 296.082069 
L 431.714761 297.393596 
L 434.20217 298.963964 
L 436.689578 300.761688 
L 440.006123 303.45334 
L 444.151804 307.17362 
L 449.955757 312.756628 
L 458.247118 320.754715 
L 462.392799 324.484009 
L 466.53848 327.893317 
L 469.855024 330.332447 
L 473.171569 332.474885 
L 476.488113 334.289478 
L 478.975522 335.419675 
L 481.46293 336.342167 
L 483.950339 337.049886 
L 486.437747 337.537383 
L 488.925155 337.800991 
L 490.583428 337.85129 
L 490.583428 248.059773 
L 492.2417 248.135071 
L 494.729108 248.528197 
L 497.216517 249.248657 
L 499.703925 250.279732 
L 502.191334 251.598308 
L 504.678742 253.17604 
L 507.166151 254.980908 
L 510.482695 257.680803 
L 514.628376 261.40813 
L 520.432329 266.993655 
L 528.72369 274.982435 
L 532.869371 278.703462 
L 537.015052 282.103608 
L 540.331596 284.535451 
L 543.648141 286.671137 
L 546.964686 288.479764 
L 549.452094 289.606166 
L 551.939502 290.525512 
L 554.426911 291.230765 
L 556.914319 291.716566 
L 559.401728 291.979272 
L 561.06 292.029396 
L 561.06 292.029396 
" style="fill:none;stroke:#ff0000;stroke-linecap:square;stroke-width:2;"/>
   </g>
   <g id="line2d_33">
    <path clip-path="url(#pa91db72b59)" d="M 60.932 237.946906 
L 63.474047 238.090039 
L 66.863443 238.594419 
L 69.40549 238.927357 
L 71.100188 238.982354 
L 72.794886 238.860217 
L 74.489584 238.568277 
L 77.03163 237.862169 
L 79.573677 236.893879 
L 82.115724 235.70569 
L 85.50512 233.818412 
L 88.894516 231.610822 
L 92.283912 229.098836 
L 95.673308 226.292202 
L 99.062704 223.197903 
L 102.4521 219.821694 
L 105.841495 216.168901 
L 109.230891 212.244712 
L 113.467636 206.966015 
L 117.704381 201.282903 
L 121.941126 195.207855 
L 126.177871 201.673563 
L 131.261964 209.894557 
L 137.193407 219.968945 
L 145.666897 234.875086 
L 150.750991 243.792485 
L 151.59834 245.140427 
L 152.445689 245.915037 
L 157.477637 245.787158 
L 162.509585 245.410857 
L 167.541532 244.808119 
L 173.412138 243.868068 
L 180.96006 242.410811 
L 201.92651 238.19042 
L 204.442484 237.962994 
L 206.959155 237.996022 
L 209.476176 238.252735 
L 211.993196 238.724522 
L 214.510216 239.402633 
L 217.027237 240.274676 
L 220.383264 241.711816 
L 223.739291 243.421922 
L 227.934326 245.86712 
L 232.968366 249.113666 
L 248.909496 259.666397 
L 253.10453 262.066575 
L 256.460557 263.77081 
L 259.816584 265.250553 
L 263.172612 266.480608 
L 266.528639 267.440672 
L 269.884666 268.115205 
L 272.401687 268.427059 
L 274.918707 268.569405 
L 277.429197 268.667946 
L 279.10068 268.926781 
L 281.607904 269.575221 
L 288.293836 271.622619 
L 289.965318 271.886542 
L 291.636801 271.96602 
L 293.308284 271.851339 
L 294.979767 271.548403 
L 296.65125 271.071558 
L 299.158474 270.066786 
L 301.665699 268.759761 
L 304.172923 267.189956 
L 306.680147 265.385424 
L 310.023113 262.647248 
L 313.366079 259.557358 
L 316.709045 256.136377 
L 320.052011 252.398736 
L 323.394976 248.355296 
L 326.737942 244.014845 
L 330.91665 238.183233 
L 335.095357 231.913293 
L 336.76684 229.285609 
L 341.003585 236.243884 
L 346.087678 245.064948 
L 352.86647 257.325681 
L 359.645262 269.569786 
L 362.187309 273.834995 
L 363.882007 276.342689 
L 364.729356 277.399458 
L 365.576705 278.246561 
L 366.424054 278.805296 
L 367.271403 279.002047 
L 372.30335 278.889842 
L 377.335298 278.556592 
L 382.367246 278.011439 
L 387.399194 277.265788 
L 392.431142 276.32567 
L 397.46309 275.177574 
L 401.65638 274.026959 
L 405.84967 272.657004 
L 415.913565 269.117152 
L 417.590881 268.778716 
L 419.268197 268.601457 
L 420.106855 268.578905 
L 420.106855 195.207855 
L 422.594264 195.333448 
L 425.081672 195.707442 
L 427.569081 196.321928 
L 430.056489 197.164056 
L 432.543898 198.216874 
L 435.860442 199.91283 
L 439.176987 201.892056 
L 443.322667 204.673579 
L 448.297484 208.304607 
L 460.734526 217.549048 
L 464.880207 220.339569 
L 469.025888 222.847359 
L 472.342433 224.605969 
L 475.658977 226.113941 
L 478.975522 227.348104 
L 482.292066 228.289864 
L 484.779475 228.795802 
L 487.266883 229.125282 
L 489.754292 229.275577 
L 490.583428 229.285609 
L 490.583428 245.915037 
L 493.070836 246.034461 
L 495.558245 246.390371 
L 498.045653 246.975758 
L 500.533061 247.779316 
L 503.02047 248.785918 
L 506.337014 250.411614 
L 509.653559 252.314762 
L 513.79924 254.99854 
L 518.774057 258.515345 
L 532.040235 268.080698 
L 536.185916 270.758258 
L 540.331596 273.14826 
L 543.648141 274.810871 
L 546.964686 276.222613 
L 550.28123 277.361562 
L 553.597775 278.210458 
L 556.085183 278.649013 
L 558.572592 278.913609 
L 561.06 279.002047 
L 561.06 279.002047 
" style="fill:none;stroke:#ff0000;stroke-linecap:square;stroke-width:2;"/>
   </g>
   <g id="line2d_34">
    <path clip-path="url(#pa91db72b59)" d="M 60.932 156.410792 
L 62.626698 156.307189 
L 68.558141 155.566297 
L 71.100188 155.757278 
L 73.642235 156.160082 
L 77.03163 156.935882 
L 80.421026 157.96119 
L 83.810422 159.240212 
L 87.199818 160.787436 
L 90.589214 162.62075 
L 93.97861 164.758609 
L 97.368006 167.218124 
L 100.757402 170.013354 
L 104.146797 173.154041 
L 107.536193 176.644411 
L 110.925589 180.482529 
L 114.314985 184.659593 
L 117.704381 189.160271 
L 121.941126 195.207851 
L 126.177871 188.754892 
L 130.414616 181.939939 
L 135.498709 173.310921 
L 140.582803 164.229699 
L 146.514246 153.166865 
L 150.750991 145.35933 
L 151.59834 144.131414 
L 152.445689 143.579138 
L 155.800321 143.682767 
L 159.154953 143.989411 
L 162.509585 144.486886 
L 166.702874 145.346356 
L 171.734822 146.654468 
L 178.444086 148.674994 
L 189.34664 152.144363 
L 193.53993 153.718197 
L 197.73322 155.00022 
L 201.92651 156.034364 
L 203.603826 156.309108 
L 205.281142 156.410792 
L 207.798162 156.510622 
L 210.315182 156.807842 
L 212.832203 157.295766 
L 215.349223 157.96371 
L 218.705251 159.109492 
L 222.061278 160.50895 
L 226.256312 162.544314 
L 229.612339 165.023353 
L 235.485387 169.663364 
L 244.714462 176.972147 
L 248.909496 180.03444 
L 253.10453 182.807427 
L 256.460557 184.767828 
L 259.816584 186.464532 
L 263.172612 187.871262 
L 265.689632 188.723167 
L 268.206653 189.393001 
L 270.723673 189.875324 
L 273.240693 190.16626 
L 275.757714 190.263599 
L 278.264938 190.161063 
L 286.622353 189.48363 
L 289.129577 189.606695 
L 291.636801 189.938259 
L 294.144026 190.463146 
L 296.65125 191.169401 
L 299.158474 192.051861 
L 302.50144 193.504212 
L 305.008665 194.806578 
L 307.515889 196.299437 
L 310.023113 197.990622 
L 312.530338 199.88782 
L 315.037562 201.997761 
L 318.380528 205.150634 
L 321.723494 208.697211 
L 325.066459 212.635982 
L 328.409425 216.956784 
L 331.752391 221.64067 
L 335.095357 226.660347 
L 336.76684 229.285606 
L 341.003585 222.326635 
L 345.240329 214.951515 
L 349.477074 207.176347 
L 354.561168 197.343151 
L 359.645262 186.994234 
L 364.729356 176.169565 
L 367.271403 170.660036 
L 370.626035 170.803055 
L 373.142008 171.145463 
L 375.657982 171.775629 
L 378.173956 172.603286 
L 381.528588 173.976998 
L 384.88322 175.603662 
L 389.07651 177.887397 
L 402.495038 185.431882 
L 405.84967 186.996903 
L 409.204302 188.305616 
L 411.720276 189.088416 
L 414.23625 189.681646 
L 416.752223 190.072235 
L 419.268197 190.251598 
L 420.106855 190.263599 
L 420.106855 195.207851 
L 422.594264 195.333444 
L 425.081672 195.707437 
L 427.569081 196.321924 
L 430.056489 197.164052 
L 432.543898 198.21687 
L 435.860442 199.912826 
L 439.176987 201.892052 
L 443.322667 204.673575 
L 448.297484 208.304604 
L 460.734526 217.549045 
L 464.880207 220.339566 
L 469.025888 222.847356 
L 472.342433 224.605967 
L 475.658977 226.113939 
L 478.975522 227.348101 
L 482.292066 228.289861 
L 484.779475 228.795799 
L 487.266883 229.12528 
L 489.754292 229.275575 
L 490.583428 229.285606 
L 490.583428 143.579138 
L 493.070836 143.673604 
L 495.558245 143.9552 
L 498.045653 144.418834 
L 501.362198 145.305386 
L 504.678742 146.472968 
L 507.995287 147.88662 
L 512.140967 149.937618 
L 517.115784 152.700176 
L 526.236282 158.126222 
L 532.869371 161.934884 
L 537.844188 164.505428 
L 541.989869 166.373488 
L 545.306413 167.651475 
L 548.622958 168.713584 
L 551.939502 169.546303 
L 555.256047 170.206583 
L 558.572592 170.576478 
L 561.06 170.660036 
L 561.06 170.660036 
" style="fill:none;stroke:#ff0000;stroke-linecap:square;stroke-width:2;"/>
   </g>
   <g id="line2d_35">
    <path clip-path="url(#pa91db72b59)" d="M 60.932 154.068354 
L 63.474047 153.993376 
L 65.168745 153.778354 
L 66.863443 153.254344 
L 68.558141 152.315036 
L 70.252839 151.005612 
L 71.947537 149.401751 
L 73.642235 147.556075 
L 76.184281 144.412926 
L 78.726328 140.903295 
L 86.352469 129.594086 
L 93.131261 118.960928 
L 102.4521 104.364336 
L 107.536193 96.857688 
L 111.772938 91.028813 
L 115.162334 86.738401 
L 117.704381 83.825193 
L 119.399079 82.127753 
L 120.246428 81.417832 
L 121.093777 80.883252 
L 121.941126 80.661552 
L 122.788475 80.944141 
L 123.635824 81.799043 
L 124.483173 83.070644 
L 126.177871 86.199152 
L 129.567267 93.16364 
L 148.208944 132.32375 
L 150.750991 137.112499 
L 151.59834 138.366821 
L 152.445689 138.927831 
L 154.961663 139.022041 
L 157.477637 139.302245 
L 159.993611 139.761675 
L 163.348242 140.633481 
L 166.702874 141.767271 
L 170.896164 143.481211 
L 175.928112 145.82996 
L 186.830666 151.069703 
L 187.669324 151.429059 
L 191.862614 152.473201 
L 196.055904 153.291887 
L 199.410536 153.748935 
L 202.765168 154.009165 
L 208.637169 154.312316 
L 211.154189 154.81046 
L 213.67121 155.567265 
L 216.18823 156.566715 
L 218.705251 157.788385 
L 222.061278 159.721121 
L 225.417305 161.942905 
L 229.612339 165.023326 
L 235.485387 169.663337 
L 244.714462 176.97212 
L 248.909496 180.034413 
L 253.10453 182.8074 
L 256.460557 184.767801 
L 259.816584 186.464505 
L 263.172612 187.871235 
L 265.689632 188.72314 
L 268.206653 189.392974 
L 270.723673 189.875297 
L 273.240693 190.166233 
L 275.757714 190.263572 
L 277.429197 190.080069 
L 279.10068 189.5341 
L 280.772163 188.638416 
L 282.443645 187.412745 
L 284.115128 185.881934 
L 285.786611 184.073923 
L 288.293836 180.906022 
L 290.80106 177.276917 
L 293.308284 173.276262 
L 296.65125 167.500494 
L 300.829957 159.793652 
L 308.35163 145.305504 
L 312.530338 137.429867 
L 320.052011 123.698984 
L 324.230718 116.431582 
L 327.573684 111.194297 
L 330.91665 106.388555 
L 333.423874 103.094505 
L 335.095357 101.088065 
L 335.931098 100.20015 
L 336.76684 99.672817 
L 337.614189 100.648875 
L 339.308887 104.511417 
L 361.33996 157.199075 
L 366.424054 168.70952 
L 367.271403 170.524838 
L 369.787377 170.639965 
L 373.142008 171.094792 
L 376.49664 171.716497 
L 379.851272 172.579686 
L 383.205904 173.649099 
L 387.399194 175.211525 
L 393.2698 177.658607 
L 406.688328 183.565409 
L 409.204302 184.912315 
L 411.720276 186.5192 
L 415.074908 188.707522 
L 416.752223 189.544363 
L 418.429539 190.079723 
L 420.106855 190.263572 
L 420.106855 80.661552 
L 423.4234 80.781122 
L 426.739945 81.135629 
L 430.056489 81.712991 
L 433.373034 82.494049 
L 437.518714 83.719055 
L 441.664395 85.16743 
L 447.468348 87.453314 
L 464.880207 94.543365 
L 469.855024 96.235586 
L 474.000705 97.42932 
L 478.146386 98.391653 
L 482.292066 99.097328 
L 485.608611 99.464529 
L 488.925155 99.649606 
L 490.583428 99.672817 
L 490.583428 138.927831 
L 493.070836 139.04858 
L 495.558245 139.407579 
L 498.045653 139.995716 
L 500.533061 140.798671 
L 503.02047 141.798225 
L 506.337014 143.39995 
L 509.653559 145.258953 
L 513.79924 147.858068 
L 519.603193 151.813957 
L 530.381963 159.257334 
L 535.35678 162.380758 
L 539.50246 164.700945 
L 542.819005 166.32827 
L 546.135549 167.723862 
L 549.452094 168.866257 
L 551.939502 169.542413 
L 555.256047 170.124674 
L 558.572592 170.451085 
L 561.06 170.524838 
L 561.06 170.524838 
" style="fill:none;stroke:#ff0000;stroke-linecap:square;stroke-width:2;"/>
   </g>
   <g id="line2d_36">
    <path clip-path="url(#pa91db72b59)" d="M 60.932 154.068328 
L 62.626698 153.92679 
L 64.321396 153.504848 
L 66.016094 152.810478 
L 67.710792 151.856224 
L 69.40549 150.658244 
L 71.100188 149.235291 
L 73.642235 146.72352 
L 76.184281 143.821386 
L 78.726328 140.597106 
L 81.268375 137.104673 
L 85.50512 130.307285 
L 91.436563 120.225267 
L 101.604751 102.811641 
L 106.688844 94.593004 
L 110.925589 88.199149 
L 114.314985 83.450981 
L 117.704381 79.070932 
L 121.093777 75.087734 
L 121.941126 74.156445 
L 122.788475 74.805608 
L 123.635824 74.909403 
L 124.483173 74.623192 
L 126.177871 73.544434 
L 132.956662 68.596557 
L 135.498709 67.019517 
L 136.346058 66.539489 
L 137.193407 67.139529 
L 139.735454 71.561233 
L 141.430152 74.180518 
L 143.12485 76.49029 
L 144.819548 78.459785 
L 146.514246 80.064657 
L 148.208944 81.284668 
L 149.903642 82.106861 
L 151.59834 82.520191 
L 152.445689 82.572351 
L 153.284347 82.937072 
L 166.702874 91.727477 
L 176.76677 114.175571 
L 181.798718 124.84707 
L 185.15335 131.545733 
L 188.507982 137.759208 
L 191.023956 141.998016 
L 193.53993 145.774811 
L 195.217246 147.981441 
L 196.894562 149.894118 
L 198.571878 151.470083 
L 200.249194 152.669876 
L 201.92651 153.478673 
L 203.603826 153.927138 
L 205.281142 154.068328 
L 207.798162 154.205754 
L 210.315182 154.614998 
L 212.832203 155.287119 
L 215.349223 156.207758 
L 217.866244 157.357859 
L 220.383264 158.714547 
L 223.739291 160.80003 
L 227.095319 162.981781 
L 232.12936 165.753913 
L 247.231482 174.279906 
L 251.426516 176.356144 
L 255.62155 178.189694 
L 258.977578 179.450812 
L 262.333605 180.50807 
L 265.689632 181.346083 
L 269.045659 181.953006 
L 272.401687 182.320481 
L 275.757714 182.443636 
L 277.429197 182.363452 
L 279.10068 182.114353 
L 280.772163 181.672545 
L 282.443645 181.005808 
L 284.115128 180.084503 
L 285.786611 178.892327 
L 287.458094 177.430635 
L 289.129577 175.715191 
L 291.636801 172.718924 
L 294.144026 169.293024 
L 296.65125 165.519345 
L 299.994216 160.06869 
L 304.172923 152.777756 
L 310.023113 142.074834 
L 315.873303 130.998084 
L 320.052011 123.473595 
L 324.230718 116.42141 
L 328.409425 109.578422 
L 331.752391 104.464554 
L 335.095357 99.727373 
L 336.76684 97.511793 
L 337.614189 97.648675 
L 339.308887 96.110191 
L 342.698282 92.935551 
L 345.240329 90.829748 
L 347.782376 88.978837 
L 350.324423 87.379317 
L 352.86647 86.024181 
L 355.408517 84.905337 
L 357.950564 84.014816 
L 360.492611 83.345412 
L 363.034658 82.891213 
L 365.576705 82.647971 
L 367.271403 82.601742 
L 368.110061 83.347913 
L 368.948719 84.949498 
L 371.464692 90.865809 
L 376.49664 103.547417 
L 391.592484 141.893053 
L 395.785774 151.925999 
L 399.140406 159.499894 
L 402.495038 166.485952 
L 405.011012 171.182293 
L 406.688328 173.961968 
L 408.365644 176.38038 
L 410.04296 178.363593 
L 411.720276 179.872145 
L 413.397592 180.940175 
L 415.074908 181.65688 
L 416.752223 182.111127 
L 418.429539 182.362874 
L 420.106855 182.443636 
L 420.106855 74.156445 
L 422.594264 74.249549 
L 425.081672 74.524897 
L 428.398217 75.156036 
L 431.714761 76.055068 
L 435.031306 77.182173 
L 439.176987 78.851946 
L 444.151804 81.13985 
L 451.614029 84.890201 
L 460.734526 89.460263 
L 465.709343 91.722415 
L 469.855024 93.395148 
L 474.000705 94.826458 
L 477.317249 95.772327 
L 480.633794 96.524242 
L 483.950339 97.069988 
L 487.266883 97.40092 
L 490.583428 97.511793 
L 490.583428 82.572351 
L 495.558245 82.463893 
L 501.362198 82.098746 
L 504.678742 81.89865 
L 522.090601 81.481583 
L 537.015052 80.91297 
L 545.306413 80.576533 
L 549.452094 81.468602 
L 553.597775 82.125278 
L 556.914319 82.453542 
L 560.230864 82.595796 
L 561.06 82.601742 
L 561.06 82.601742 
" style="fill:none;stroke:#ff0000;stroke-linecap:square;stroke-width:2;"/>
   </g>
   <g id="line2d_37">
    <path clip-path="url(#pa91db72b59)" d="M 60.932 107.129952 
L 63.474047 106.967331 
L 66.016094 106.480932 
L 68.558141 105.67355 
L 71.100188 104.548628 
L 73.642235 103.111817 
L 76.184281 101.369975 
L 78.726328 99.332206 
L 81.268375 97.006962 
L 83.810422 94.405725 
L 86.352469 91.540313 
L 89.741865 87.331217 
L 93.131261 82.707631 
L 96.520657 77.706505 
L 100.757402 70.98642 
L 104.994146 63.833802 
L 105.841495 62.361041 
L 106.688844 61.171437 
L 111.772938 56.184068 
L 112.620287 56.48366 
L 120.246428 71.618382 
L 121.093777 73.030149 
L 121.941126 74.156409 
L 125.330522 70.695489 
L 127.872569 68.380545 
L 130.414616 66.307289 
L 132.956662 64.474504 
L 134.65136 63.38496 
L 135.498709 63.94895 
L 136.346058 65.562249 
L 137.193407 66.082998 
L 140.582803 72.044828 
L 142.277501 74.613464 
L 143.972199 76.832444 
L 145.666897 78.679881 
L 147.361595 80.136846 
L 149.056293 81.188854 
L 150.750991 81.824571 
L 152.445689 82.037376 
L 153.284347 81.671887 
L 159.993611 77.185449 
L 160.832269 78.547866 
L 166.702874 91.600176 
L 171.734822 94.50441 
L 176.76677 97.160104 
L 181.798718 99.561922 
L 187.669324 102.089124 
L 194.378588 104.705389 
L 197.73322 105.843103 
L 200.249194 106.523521 
L 202.765168 106.972446 
L 205.281142 107.129952 
L 211.154189 107.014277 
L 217.027237 106.678764 
L 223.739291 106.061868 
L 231.290353 105.142968 
L 244.714462 103.226692 
L 255.62155 101.779948 
L 262.333605 101.100759 
L 268.206653 100.704361 
L 274.0797 100.526448 
L 277.429197 100.447614 
L 279.936421 100.085643 
L 282.443645 99.414617 
L 284.95087 98.439065 
L 287.458094 97.162736 
L 289.965318 95.59139 
L 292.472543 93.73168 
L 294.979767 91.592371 
L 297.486992 89.182547 
L 299.994216 86.512368 
L 303.337182 82.566234 
L 306.680147 78.20581 
L 310.023113 73.462411 
L 313.366079 68.371176 
L 317.544786 61.583127 
L 319.216269 58.755533 
L 320.052011 59.028616 
L 325.066459 70.330993 
L 331.752391 86.039834 
L 335.931098 95.919505 
L 336.76684 97.511758 
L 340.156236 93.351532 
L 342.698282 90.535632 
L 345.240329 87.989109 
L 347.782376 85.717159 
L 350.324423 83.722981 
L 352.86647 82.008185 
L 355.408517 80.573167 
L 357.950564 79.417557 
L 360.492611 78.540539 
L 362.187309 78.110181 
L 363.034658 78.164845 
L 364.729356 79.023391 
L 366.424054 79.454812 
L 368.110061 79.602315 
L 369.787377 80.219737 
L 372.30335 81.618095 
L 384.88322 89.118007 
L 389.07651 91.301808 
L 393.2698 93.264247 
L 397.46309 94.990248 
L 401.65638 96.478028 
L 405.84967 97.742503 
L 410.881618 99.034416 
L 415.913565 100.118995 
L 418.429539 100.448103 
L 420.106855 100.517182 
L 420.106855 74.156409 
L 422.594264 74.249341 
L 425.081672 74.524108 
L 428.398217 75.154229 
L 431.714761 76.052752 
L 435.031306 77.179405 
L 439.176987 78.850872 
L 444.151804 81.13938 
L 451.614029 84.89002 
L 460.734526 89.460233 
L 465.709343 91.722414 
L 469.855024 93.395135 
L 474.000705 94.826438 
L 477.317249 95.772304 
L 480.633794 96.524216 
L 483.950339 97.069958 
L 487.266883 97.400887 
L 490.583428 97.511758 
L 490.583428 82.037376 
L 503.02047 81.92607 
L 505.507878 81.725174 
L 514.628376 80.699069 
L 531.211099 78.747291 
L 534.527643 78.59733 
L 537.015052 78.738354 
L 539.50246 79.165938 
L 545.306413 80.456777 
L 561.06 79.509705 
L 561.06 79.509705 
" style="fill:none;stroke:#ff0000;stroke-linecap:square;stroke-width:2;"/>
   </g>
   <g id="line2d_38">
    <path clip-path="url(#pa91db72b59)" d="M 60.932 107.129868 
L 62.626698 106.956406 
L 64.321396 106.442846 
L 66.016094 105.607551 
L 67.710792 104.482282 
L 69.40549 103.109382 
L 71.947537 100.70439 
L 75.336932 97.129952 
L 80.421026 91.418823 
L 84.657771 86.2978 
L 88.047167 81.868673 
L 94.825959 72.320475 
L 96.520657 70.402764 
L 99.062704 68.10215 
L 104.994146 62.772799 
L 105.841495 61.976389 
L 106.688844 60.875512 
L 110.925589 53.26566 
L 111.772938 54.781952 
L 112.620287 55.335139 
L 114.314985 53.631769 
L 115.162334 52.523102 
L 121.093777 46.560548 
L 122.788475 46.555808 
L 126.177871 49.797722 
L 127.872569 51.470904 
L 129.567267 53.470806 
L 131.261964 56.015583 
L 132.956662 59.054107 
L 134.65136 62.313307 
L 135.498709 62.879498 
L 136.346058 64.2704 
L 137.193407 65.964987 
L 138.888105 65.241735 
L 141.430152 64.161989 
L 143.972199 63.303548 
L 146.514246 62.668209 
L 149.056293 62.256775 
L 151.59834 62.069701 
L 152.445689 62.057228 
L 153.284347 62.744131 
L 154.123005 64.174972 
L 156.638979 69.354629 
L 159.993611 76.686118 
L 160.832269 76.638538 
L 164.1869 74.558425 
L 166.702874 73.218671 
L 168.38019 72.584638 
L 169.218848 72.418045 
L 170.057506 72.391194 
L 170.896164 72.512902 
L 172.57348 73.135354 
L 175.089454 74.517505 
L 178.444086 76.622433 
L 182.637376 79.193052 
L 185.992008 86.29506 
L 188.507982 91.093799 
L 191.023956 95.359842 
L 193.53993 99.038228 
L 195.217246 101.138656 
L 196.894562 102.941038 
L 198.571878 104.434119 
L 200.249194 105.606512 
L 201.92651 106.450578 
L 203.603826 106.959702 
L 205.281142 107.129868 
L 211.154189 107.014193 
L 217.027237 106.67868 
L 223.739291 106.061784 
L 231.290353 105.142884 
L 244.714462 103.226607 
L 255.62155 101.779863 
L 262.333605 101.100673 
L 268.206653 100.704275 
L 274.0797 100.526361 
L 276.593455 100.475381 
L 278.264938 100.145589 
L 279.936421 99.515259 
L 281.607904 98.641123 
L 284.115128 97.052417 
L 288.293836 94.088652 
L 291.636801 91.39384 
L 294.144026 89.10333 
L 296.65125 86.557971 
L 299.158474 83.753899 
L 302.50144 79.61811 
L 305.844406 75.047858 
L 309.187372 70.070328 
L 312.530338 64.715672 
L 316.709045 57.548945 
L 317.544786 56.063887 
L 318.380528 55.386155 
L 319.216269 57.198658 
L 320.052011 57.321626 
L 330.91665 38.646015 
L 332.588132 36.452018 
L 333.423874 35.591882 
L 334.259615 34.906738 
L 335.095357 34.399366 
L 335.931098 34.078731 
L 336.76684 33.96564 
L 337.614189 34.098477 
L 338.461538 34.516322 
L 339.308887 35.233389 
L 340.156236 36.238205 
L 341.003585 37.495774 
L 342.698282 40.634203 
L 346.935027 51.560564 
L 349.477074 57.592649 
L 352.019121 63.063002 
L 354.561168 67.875967 
L 356.255866 70.677249 
L 357.950564 73.126394 
L 359.645262 75.202603 
L 361.33996 76.887423 
L 362.187309 77.577822 
L 363.034658 77.941197 
L 365.576705 77.618742 
L 367.271403 77.557343 
L 368.110061 76.823447 
L 368.948719 75.560909 
L 370.626035 74.737179 
L 373.980666 72.639627 
L 383.205904 66.648722 
L 386.560536 64.763864 
L 389.07651 63.586983 
L 390.753826 62.985846 
L 392.431142 62.665966 
L 393.2698 62.743282 
L 396.624432 70.764332 
L 399.140406 76.334169 
L 401.65638 81.453986 
L 404.172354 86.068363 
L 406.688328 90.124691 
L 408.365644 92.493956 
L 410.04296 94.579211 
L 411.720276 96.367164 
L 413.397592 97.846863 
L 415.074908 99.008442 
L 416.752223 99.843929 
L 418.429539 100.348772 
L 420.106855 100.517096 
L 420.106855 46.603166 
L 421.765128 46.449124 
L 423.4234 45.987004 
L 425.081672 45.221734 
L 426.739945 44.16086 
L 428.398217 42.814345 
L 430.056489 41.193841 
L 432.543898 38.567897 
L 440.006123 37.873841 
L 470.68416 34.713892 
L 478.975522 34.225513 
L 486.437747 33.999281 
L 490.583428 33.96564 
L 490.583428 62.057228 
L 493.899972 62.193046 
L 497.216517 62.584187 
L 500.533061 63.206187 
L 503.849606 64.037865 
L 507.995287 65.335302 
L 512.140967 66.865427 
L 517.94492 69.273239 
L 530.381963 74.588111 
L 533.698507 75.750026 
L 536.185916 76.370385 
L 537.844188 76.599644 
L 540.331596 76.691679 
L 544.477277 76.532536 
L 551.110366 76.24961 
L 555.256047 77.050073 
L 558.572592 77.455117 
L 561.06 77.557343 
L 561.06 77.557343 
" style="fill:none;stroke:#ff0000;stroke-linecap:square;stroke-width:2;"/>
   </g>
   <g id="line2d_39">
    <path clip-path="url(#pa91db72b59)" d="M 60.932 95.098707 
L 62.626698 94.980855 
L 64.321396 94.6246 
L 66.016094 94.020519 
L 67.710792 93.153607 
L 69.40549 92.003666 
L 71.100188 90.553479 
L 72.794886 88.802344 
L 75.336932 85.750151 
L 77.03163 83.727072 
L 78.726328 82.048845 
L 80.421026 80.742158 
L 83.810422 78.594207 
L 88.894516 75.373214 
L 92.283912 72.986798 
L 93.97861 71.603511 
L 95.673308 69.846658 
L 97.368006 67.461575 
L 99.910053 63.354381 
L 104.146797 55.970422 
L 108.383542 48.162984 
L 110.925589 53.088332 
L 112.620287 50.095696 
L 114.314985 46.89121 
L 115.162334 46.652352 
L 116.009683 45.586916 
L 116.857032 44.803482 
L 117.704381 44.436889 
L 118.55173 44.507944 
L 119.399079 44.874106 
L 121.093777 45.977549 
L 121.941126 45.645187 
L 122.788475 45.994819 
L 124.483173 44.990959 
L 125.330522 44.630718 
L 126.177871 44.423124 
L 127.02522 44.559097 
L 127.872569 45.460247 
L 129.567267 49.072133 
L 134.65136 60.702758 
L 135.498709 62.514602 
L 136.346058 62.400049 
L 138.888105 61.116218 
L 141.430152 60.060819 
L 143.972199 59.229528 
L 146.514246 58.618606 
L 149.056293 58.224914 
L 151.59834 58.046407 
L 152.445689 58.034517 
L 153.284347 57.364204 
L 154.123005 57.579957 
L 155.800321 58.364843 
L 157.477637 59.474683 
L 159.993611 61.440506 
L 165.864216 66.15273 
L 167.541532 67.284061 
L 169.218848 68.11252 
L 170.057506 68.339273 
L 170.896164 68.414363 
L 172.57348 68.199298 
L 176.76677 67.018043 
L 177.605428 67.206509 
L 180.96006 75.332272 
L 182.637376 79.168567 
L 185.992008 81.456664 
L 187.669324 82.865505 
L 189.34664 84.553125 
L 194.378588 89.975354 
L 196.055904 91.457481 
L 197.73322 92.686982 
L 199.410536 93.656365 
L 201.087852 94.370306 
L 202.765168 94.838413 
L 204.442484 95.069928 
L 206.959155 95.079313 
L 211.993196 94.838603 
L 221.222271 94.342048 
L 227.934326 94.24601 
L 235.485387 94.38184 
L 244.714462 94.784436 
L 266.528639 95.829024 
L 274.918707 95.967333 
L 276.593455 95.938088 
L 278.264938 95.689872 
L 279.936421 95.1714 
L 281.607904 94.332494 
L 283.279387 93.104436 
L 284.95087 91.425583 
L 286.622353 89.278716 
L 288.293836 86.689908 
L 289.965318 83.702065 
L 291.636801 80.357229 
L 294.144026 74.751097 
L 296.65125 68.532686 
L 299.994216 59.450727 
L 300.829957 57.061964 
L 301.665699 55.710965 
L 314.201821 47.262782 
L 315.037562 48.326713 
L 317.544786 53.591913 
L 318.380528 54.56227 
L 323.394976 45.265118 
L 327.573684 37.382632 
L 330.080908 35.254217 
L 331.752391 33.638622 
L 333.423874 31.753379 
L 336.76684 27.847304 
L 337.614189 28.899934 
L 338.461538 30.382532 
L 340.156236 34.121653 
L 343.545631 42.303431 
L 352.019121 60.254692 
L 354.561168 64.795335 
L 356.255866 67.459923 
L 357.950564 69.79842 
L 359.645262 71.78548 
L 361.33996 73.400389 
L 363.034658 74.625859 
L 364.729356 75.449934 
L 366.424054 75.864177 
L 367.271403 75.917019 
L 368.110061 75.82146 
L 368.948719 75.258726 
L 371.464692 69.60029 
L 377.335298 56.227895 
L 381.528588 47.215694 
L 384.88322 40.518259 
L 389.915168 54.137831 
L 393.2698 62.733035 
L 394.108458 63.205358 
L 394.947116 64.281727 
L 396.624432 67.599062 
L 400.817722 76.428347 
L 403.333696 81.17197 
L 405.84967 85.35047 
L 407.526986 87.786229 
L 409.204302 89.920085 
L 410.881618 91.732959 
L 412.558934 93.211983 
L 414.23625 94.353708 
L 415.913565 95.170305 
L 417.590881 95.688665 
L 419.268197 95.937876 
L 420.106855 95.968491 
L 420.106855 45.645187 
L 420.935992 45.629597 
L 422.594264 45.279911 
L 424.252536 44.562526 
L 425.910808 43.472476 
L 427.569081 41.992346 
L 429.227353 40.106363 
L 430.056489 39.024375 
L 430.885625 38.690593 
L 431.714761 38.630986 
L 432.543898 38.281045 
L 435.031306 34.842452 
L 436.689578 32.538114 
L 437.518714 32.253521 
L 442.493531 31.660865 
L 464.880207 29.156215 
L 473.171569 28.46847 
L 480.633794 28.054153 
L 488.096019 27.860475 
L 490.583428 27.847304 
L 490.583428 58.034517 
L 493.899972 58.1491 
L 497.216517 58.485382 
L 500.533061 59.026387 
L 504.678742 59.960492 
L 508.824423 61.143426 
L 513.79924 62.828424 
L 519.603193 65.051685 
L 538.673324 72.596972 
L 543.648141 74.24795 
L 548.622958 75.653771 
L 551.110366 76.165209 
L 557.743455 75.944989 
L 561.06 75.917019 
L 561.06 75.917019 
" style="fill:none;stroke:#ff0000;stroke-linecap:square;stroke-width:2;"/>
   </g>
   <g id="line2d_40">
    <path clip-path="url(#pa91db72b59)" d="M 60.932 83.451812 
L 63.474047 83.364319 
L 66.016094 83.09834 
L 68.558141 82.640122 
L 71.100188 81.952945 
L 72.794886 81.321349 
L 74.489584 80.467878 
L 76.184281 79.221154 
L 77.03163 78.361089 
L 77.878979 77.295392 
L 78.726328 76.012129 
L 80.421026 72.867917 
L 82.115724 69.141677 
L 84.657771 62.809732 
L 85.50512 61.841548 
L 93.131261 56.681597 
L 101.604751 50.904397 
L 107.536193 46.600236 
L 108.383542 48.067625 
L 110.07824 44.94162 
L 110.925589 43.959218 
L 115.162334 40.529018 
L 116.009683 40.130496 
L 116.857032 40.444617 
L 117.704381 40.488308 
L 118.55173 40.234521 
L 120.246428 39.45758 
L 121.093777 39.185709 
L 121.941126 39.084085 
L 122.788475 39.198328 
L 123.635824 39.56214 
L 124.483173 40.19102 
L 125.330522 41.073708 
L 127.02522 43.431726 
L 129.567267 47.417267 
L 131.261964 49.603806 
L 132.956662 51.221237 
L 134.65136 52.44622 
L 136.346058 53.431541 
L 138.888105 54.619691 
L 141.430152 55.551589 
L 143.972199 56.270156 
L 146.514246 56.793133 
L 149.056293 57.128542 
L 151.59834 57.280208 
L 153.284347 57.359601 
L 154.961663 54.36894 
L 164.1869 36.362618 
L 165.025558 34.815651 
L 165.864216 36.248883 
L 176.76677 65.094288 
L 177.605428 66.815355 
L 180.121402 66.410197 
L 180.96006 66.365701 
L 181.798718 66.806678 
L 184.314692 71.846138 
L 185.992008 74.748757 
L 187.669324 77.122022 
L 189.34664 78.887793 
L 191.023956 80.133607 
L 192.701272 81.032021 
L 194.378588 81.7118 
L 196.894562 82.463146 
L 199.410536 82.978382 
L 201.92651 83.299106 
L 204.442484 83.442317 
L 206.120148 83.417357 
L 207.798162 83.140954 
L 209.476176 82.584597 
L 211.154189 81.742344 
L 212.832203 80.609144 
L 214.510216 79.181625 
L 216.18823 77.460242 
L 217.866244 75.649415 
L 225.417305 75.09503 
L 234.64638 74.168772 
L 261.494598 71.273473 
L 268.206653 70.869786 
L 273.240693 70.718666 
L 277.429197 70.589168 
L 279.10068 70.260402 
L 280.772163 69.727421 
L 282.443645 69.007487 
L 284.95087 67.630335 
L 287.458094 65.990876 
L 291.636801 62.947383 
L 299.158474 57.447534 
L 300.829957 56.284719 
L 301.665699 54.633042 
L 305.844406 42.040983 
L 307.515889 36.920191 
L 308.35163 35.289721 
L 311.694596 41.610727 
L 314.201821 46.613502 
L 315.037562 46.68516 
L 321.723494 41.8959 
L 326.737942 38.053948 
L 327.573684 37.305398 
L 330.91665 31.213852 
L 332.588132 28.700984 
L 333.423874 27.763177 
L 334.259615 27.143476 
L 335.095357 26.920596 
L 335.931098 27.151508 
L 336.76684 27.782062 
L 339.308887 25.344162 
L 347.782376 17.827036 
L 359.645262 6.693638 
L 362.187309 4.789616 
L 363.882007 3.816091 
L 365.576705 3.18091 
L 367.271403 2.958685 
L 368.110061 3.119596 
L 368.948719 3.596376 
L 369.787377 4.370613 
L 370.626035 5.415974 
L 371.464692 6.700732 
L 373.142008 9.855436 
L 374.819324 13.590504 
L 377.335298 19.87586 
L 381.528588 31.227437 
L 384.88322 40.439911 
L 385.721878 38.813005 
L 386.560536 40.276589 
L 389.915168 49.644359 
L 392.431142 56.069088 
L 393.2698 57.929817 
L 394.108458 59.406201 
L 394.947116 60.268403 
L 395.785774 60.650858 
L 400.817722 61.85512 
L 402.495038 62.562431 
L 405.011012 63.925883 
L 413.397592 68.999612 
L 415.074908 69.723156 
L 416.752223 70.257476 
L 418.429539 70.588396 
L 420.106855 70.70019 
L 420.106855 39.084085 
L 425.910808 38.966611 
L 430.056489 38.747094 
L 430.885625 37.869387 
L 433.373034 34.40669 
L 434.20217 33.507279 
L 435.031306 32.834752 
L 435.860442 32.370758 
L 437.518714 31.87716 
L 440.006123 31.620241 
L 445.810076 31.14359 
L 459.076254 29.67259 
L 469.025888 28.715101 
L 477.317249 28.14372 
L 484.779475 27.847571 
L 490.583428 27.782062 
L 490.583428 57.290275 
L 492.2417 57.132694 
L 493.899972 56.660821 
L 495.558245 55.879715 
L 497.216517 54.796093 
L 498.874789 53.416647 
L 500.533061 51.749113 
L 502.191334 49.802505 
L 503.849606 47.587662 
L 506.337014 43.785994 
L 508.824423 39.448623 
L 511.311831 34.621997 
L 513.79924 29.354934 
L 517.115784 21.733006 
L 520.432329 13.530974 
L 522.919737 7.061897 
L 523.748873 6.456477 
L 533.698507 4.945049 
L 541.160733 4.036268 
L 547.793822 3.444744 
L 554.426911 3.081423 
L 561.06 2.958685 
L 561.06 2.958685 
" style="fill:none;stroke:#ff0000;stroke-linecap:square;stroke-width:2;"/>
   </g>
   <g id="line2d_41">
    <path clip-path="url(#pa91db72b59)" d="M 60.932 76.029411 
L 62.626698 75.913876 
L 64.321396 75.571809 
L 66.016094 75.016048 
L 67.710792 74.265859 
L 70.252839 72.838965 
L 72.794886 71.146387 
L 77.878979 67.3892 
L 84.657771 62.433777 
L 85.50512 60.547134 
L 88.047167 53.388881 
L 88.894516 14.739172 
L 92.283912 19.682041 
L 95.673308 25.037913 
L 99.062704 30.764841 
L 103.299448 38.3792 
L 107.536193 46.417383 
L 108.383542 45.957205 
L 110.07824 44.639409 
L 110.925589 43.318167 
L 113.467636 38.525884 
L 114.314985 37.096504 
L 115.162334 39.522045 
L 116.009683 39.677501 
L 117.704381 37.985642 
L 121.941126 33.165954 
L 122.788475 34.187874 
L 123.635824 35.474687 
L 125.330522 38.613043 
L 127.02522 41.794477 
L 127.872569 42.601285 
L 128.719918 42.828819 
L 134.65136 43.384937 
L 143.972199 44.680499 
L 148.208944 45.015917 
L 152.445689 45.130031 
L 153.284347 45.042876 
L 154.123005 44.787706 
L 154.961663 44.380887 
L 156.638979 43.200768 
L 158.316295 41.668194 
L 160.832269 38.954572 
L 163.348242 35.904967 
L 164.1869 34.822804 
L 165.864216 33.288907 
L 170.057506 25.981385 
L 173.412138 20.562917 
L 175.928112 16.772215 
L 176.76677 54.787066 
L 179.282744 61.026634 
L 180.96006 64.89589 
L 181.798718 66.293898 
L 184.314692 66.642458 
L 185.992008 67.125986 
L 187.669324 67.821021 
L 190.185298 69.184991 
L 198.571878 74.303617 
L 200.249194 75.036788 
L 201.92651 75.581077 
L 203.603826 75.91625 
L 205.281142 76.029411 
L 211.993196 75.916751 
L 217.027237 75.696952 
L 217.866244 75.450153 
L 219.544257 73.157108 
L 222.061278 69.211226 
L 224.578298 64.694963 
L 227.095319 59.651838 
L 229.612339 54.129256 
L 232.968366 46.102183 
L 233.807373 43.988599 
L 234.64638 38.91403 
L 246.392475 37.482847 
L 255.62155 36.58572 
L 261.494598 36.159969 
L 262.333605 2.470857 
L 267.367646 2.971611 
L 272.401687 3.250526 
L 278.264938 3.506872 
L 279.936421 3.866431 
L 281.607904 4.404852 
L 283.279387 5.12103 
L 284.95087 6.013483 
L 287.458094 7.678497 
L 289.965318 9.727941 
L 292.472543 12.151953 
L 294.979767 14.938736 
L 297.486992 18.074615 
L 299.994216 21.544172 
L 302.50144 25.330301 
L 305.844406 30.838806 
L 307.515889 33.777172 
L 308.35163 34.394981 
L 310.023113 29.601843 
L 310.858855 27.509673 
L 311.694596 25.876086 
L 312.530338 25.063539 
L 313.366079 25.294825 
L 314.201821 25.988106 
L 315.037562 26.256924 
L 315.873303 26.065176 
L 317.544786 25.136948 
L 320.052011 23.362588 
L 323.394976 20.691443 
L 326.737942 17.703125 
L 330.080908 14.35838 
L 332.588132 11.554087 
L 335.095357 8.422672 
L 336.76684 6.226828 
L 337.614189 7.13811 
L 338.461538 7.646881 
L 339.308887 7.750217 
L 340.156236 7.477548 
L 341.003585 6.882137 
L 341.850933 6.025084 
L 343.545631 3.746077 
L 345.240329 0.984149 
L 346.357194 -1 
M 373.294923 -1 
L 378.173956 14.761858 
L 383.205904 30.361945 
L 385.721878 37.842172 
L 386.560536 37.214417 
L 389.915168 31.117563 
L 393.2698 25.529633 
L 395.785774 21.6977 
L 398.301748 18.191673 
L 400.817722 15.026676 
L 403.333696 12.21656 
L 405.84967 9.77379 
L 408.365644 7.709306 
L 410.881618 6.032443 
L 412.558934 5.133724 
L 414.23625 4.412538 
L 415.913565 3.870357 
L 417.590881 3.508288 
L 419.268197 3.327068 
L 420.106855 3.304407 
L 420.106855 33.165954 
L 425.910808 33.044729 
L 431.714761 32.693677 
L 435.860442 32.291134 
L 436.689578 31.973371 
L 437.518714 30.832959 
L 440.006123 26.562715 
L 444.151804 18.819521 
L 447.468348 12.708365 
L 449.12662 10.064643 
L 449.955757 8.954972 
L 450.784893 8.046686 
L 451.614029 7.397284 
L 452.443165 7.14002 
L 453.272301 7.428291 
L 454.101437 8.231214 
L 454.930573 9.260878 
L 455.75971 9.952808 
L 456.588846 10.27385 
L 457.417982 10.36288 
L 459.076254 10.170542 
L 470.68416 7.947619 
L 476.488113 7.121915 
L 481.46293 6.610378 
L 486.437747 6.307021 
L 490.583428 6.226828 
L 490.583428 45.130031 
L 492.2417 44.988861 
L 493.899972 44.565342 
L 495.558245 43.862282 
L 497.216517 42.8846 
L 498.874789 41.637545 
L 500.533061 40.12757 
L 502.191334 38.362013 
L 503.849606 36.349406 
L 506.337014 32.885568 
L 508.824423 28.918522 
L 511.311831 24.48524 
L 512.970104 21.290626 
L 513.79924 8.092853 
L 522.919737 6.592139 
L 523.748873 4.851528 
L 525.898032 -1 
L 525.898032 -1 
" style="fill:none;stroke:#ff0000;stroke-linecap:square;stroke-width:2;"/>
   </g>
   <g id="line2d_42">
    <path clip-path="url(#pa91db72b59)" d="M 121.941126 326.72 
L 121.941126 31.92 
" style="fill:none;stroke:#000000;stroke-dasharray:1.85,0.8;stroke-dashoffset:0;stroke-width:0.5;"/>
   </g>
   <g id="line2d_43">
    <path clip-path="url(#pa91db72b59)" d="M 152.445689 326.72 
L 152.445689 31.92 
" style="fill:none;stroke:#000000;stroke-dasharray:1.85,0.8;stroke-dashoffset:0;stroke-width:0.5;"/>
   </g>
   <g id="line2d_44">
    <path clip-path="url(#pa91db72b59)" d="M 205.281142 326.72 
L 205.281142 31.92 
" style="fill:none;stroke:#000000;stroke-dasharray:1.85,0.8;stroke-dashoffset:0;stroke-width:0.5;"/>
   </g>
   <g id="line2d_45">
    <path clip-path="url(#pa91db72b59)" d="M 275.757714 326.72 
L 275.757714 31.92 
" style="fill:none;stroke:#000000;stroke-dasharray:1.85,0.8;stroke-dashoffset:0;stroke-width:0.5;"/>
   </g>
   <g id="line2d_46">
    <path clip-path="url(#pa91db72b59)" d="M 336.76684 326.72 
L 336.76684 31.92 
" style="fill:none;stroke:#000000;stroke-dasharray:1.85,0.8;stroke-dashoffset:0;stroke-width:0.5;"/>
   </g>
   <g id="line2d_47">
    <path clip-path="url(#pa91db72b59)" d="M 367.271403 326.72 
L 367.271403 31.92 
" style="fill:none;stroke:#000000;stroke-dasharray:1.85,0.8;stroke-dashoffset:0;stroke-width:0.5;"/>
   </g>
   <g id="line2d_48">
    <path clip-path="url(#pa91db72b59)" d="M 420.106855 326.72 
L 420.106855 31.92 
" style="fill:none;stroke:#000000;stroke-dasharray:1.85,0.8;stroke-dashoffset:0;stroke-width:0.5;"/>
   </g>
   <g id="line2d_49">
    <path clip-path="url(#pa91db72b59)" d="M 420.106855 326.72 
L 420.106855 31.92 
" style="fill:none;stroke:#000000;stroke-dasharray:1.85,0.8;stroke-dashoffset:0;stroke-width:0.5;"/>
   </g>
   <g id="line2d_50">
    <path clip-path="url(#pa91db72b59)" d="M 490.583428 326.72 
L 490.583428 31.92 
" style="fill:none;stroke:#000000;stroke-dasharray:1.85,0.8;stroke-dashoffset:0;stroke-width:0.5;"/>
   </g>
   <g id="line2d_51">
    <path clip-path="url(#pa91db72b59)" d="M 490.583428 326.72 
L 490.583428 31.92 
" style="fill:none;stroke:#000000;stroke-dasharray:1.85,0.8;stroke-dashoffset:0;stroke-width:0.5;"/>
   </g>
   <g id="line2d_52">
    <path clip-path="url(#pa91db72b59)" d="M 60.932 179.32 
L 561.06 179.32 
" style="fill:none;stroke:#000000;stroke-dasharray:1.85,0.8;stroke-dashoffset:0;stroke-width:0.5;"/>
   </g>
   <g id="patch_3">
    <path d="M 60.932 326.72 
L 60.932 31.92 
" style="fill:none;stroke:#000000;stroke-linecap:square;stroke-linejoin:miter;stroke-width:0.8;"/>
   </g>
   <g id="patch_4">
    <path d="M 561.06 326.72 
L 561.06 31.92 
" style="fill:none;stroke:#000000;stroke-linecap:square;stroke-linejoin:miter;stroke-width:0.8;"/>
   </g>
   <g id="patch_5">
    <path d="M 60.932 326.72 
L 561.06 326.72 
" style="fill:none;stroke:#000000;stroke-linecap:square;stroke-linejoin:miter;stroke-width:0.8;"/>
   </g>
   <g id="patch_6">
    <path d="M 60.932 31.92 
L 561.06 31.92 
" style="fill:none;stroke:#000000;stroke-linecap:square;stroke-linejoin:miter;stroke-width:0.8;"/>
   </g>
   <g id="text_19">
    <!-- Bandstructure of C$_8$Li -->
    <g transform="translate(214.246 25.92)scale(0.18 -0.18)">
     <defs>
      <path d="M 19.671875 34.8125 
L 19.671875 8.109375 
L 35.5 8.109375 
Q 43.453125 8.109375 47.28125 11.40625 
Q 51.125 14.703125 51.125 21.484375 
Q 51.125 28.328125 47.28125 31.5625 
Q 43.453125 34.8125 35.5 34.8125 
z
M 19.671875 64.796875 
L 19.671875 42.828125 
L 34.28125 42.828125 
Q 41.5 42.828125 45.03125 45.53125 
Q 48.578125 48.25 48.578125 53.8125 
Q 48.578125 59.328125 45.03125 62.0625 
Q 41.5 64.796875 34.28125 64.796875 
z
M 9.8125 72.90625 
L 35.015625 72.90625 
Q 46.296875 72.90625 52.390625 68.21875 
Q 58.5 63.53125 58.5 54.890625 
Q 58.5 48.1875 55.375 44.234375 
Q 52.25 40.28125 46.1875 39.3125 
Q 53.46875 37.75 57.5 32.78125 
Q 61.53125 27.828125 61.53125 20.40625 
Q 61.53125 10.640625 54.890625 5.3125 
Q 48.25 0 35.984375 0 
L 9.8125 0 
z
" id="DejaVuSans-66"/>
      <path d="M 34.28125 27.484375 
Q 23.390625 27.484375 19.1875 25 
Q 14.984375 22.515625 14.984375 16.5 
Q 14.984375 11.71875 18.140625 8.90625 
Q 21.296875 6.109375 26.703125 6.109375 
Q 34.1875 6.109375 38.703125 11.40625 
Q 43.21875 16.703125 43.21875 25.484375 
L 43.21875 27.484375 
z
M 52.203125 31.203125 
L 52.203125 0 
L 43.21875 0 
L 43.21875 8.296875 
Q 40.140625 3.328125 35.546875 0.953125 
Q 30.953125 -1.421875 24.3125 -1.421875 
Q 15.921875 -1.421875 10.953125 3.296875 
Q 6 8.015625 6 15.921875 
Q 6 25.140625 12.171875 29.828125 
Q 18.359375 34.515625 30.609375 34.515625 
L 43.21875 34.515625 
L 43.21875 35.40625 
Q 43.21875 41.609375 39.140625 45 
Q 35.0625 48.390625 27.6875 48.390625 
Q 23 48.390625 18.546875 47.265625 
Q 14.109375 46.140625 10.015625 43.890625 
L 10.015625 52.203125 
Q 14.9375 54.109375 19.578125 55.046875 
Q 24.21875 56 28.609375 56 
Q 40.484375 56 46.34375 49.84375 
Q 52.203125 43.703125 52.203125 31.203125 
z
" id="DejaVuSans-97"/>
      <path d="M 54.890625 33.015625 
L 54.890625 0 
L 45.90625 0 
L 45.90625 32.71875 
Q 45.90625 40.484375 42.875 44.328125 
Q 39.84375 48.1875 33.796875 48.1875 
Q 26.515625 48.1875 22.3125 43.546875 
Q 18.109375 38.921875 18.109375 30.90625 
L 18.109375 0 
L 9.078125 0 
L 9.078125 54.6875 
L 18.109375 54.6875 
L 18.109375 46.1875 
Q 21.34375 51.125 25.703125 53.5625 
Q 30.078125 56 35.796875 56 
Q 45.21875 56 50.046875 50.171875 
Q 54.890625 44.34375 54.890625 33.015625 
z
" id="DejaVuSans-110"/>
      <path d="M 45.40625 46.390625 
L 45.40625 75.984375 
L 54.390625 75.984375 
L 54.390625 0 
L 45.40625 0 
L 45.40625 8.203125 
Q 42.578125 3.328125 38.25 0.953125 
Q 33.9375 -1.421875 27.875 -1.421875 
Q 17.96875 -1.421875 11.734375 6.484375 
Q 5.515625 14.40625 5.515625 27.296875 
Q 5.515625 40.1875 11.734375 48.09375 
Q 17.96875 56 27.875 56 
Q 33.9375 56 38.25 53.625 
Q 42.578125 51.265625 45.40625 46.390625 
z
M 14.796875 27.296875 
Q 14.796875 17.390625 18.875 11.75 
Q 22.953125 6.109375 30.078125 6.109375 
Q 37.203125 6.109375 41.296875 11.75 
Q 45.40625 17.390625 45.40625 27.296875 
Q 45.40625 37.203125 41.296875 42.84375 
Q 37.203125 48.484375 30.078125 48.484375 
Q 22.953125 48.484375 18.875 42.84375 
Q 14.796875 37.203125 14.796875 27.296875 
z
" id="DejaVuSans-100"/>
      <path d="M 44.28125 53.078125 
L 44.28125 44.578125 
Q 40.484375 46.53125 36.375 47.5 
Q 32.28125 48.484375 27.875 48.484375 
Q 21.1875 48.484375 17.84375 46.4375 
Q 14.5 44.390625 14.5 40.28125 
Q 14.5 37.15625 16.890625 35.375 
Q 19.28125 33.59375 26.515625 31.984375 
L 29.59375 31.296875 
Q 39.15625 29.25 43.1875 25.515625 
Q 47.21875 21.78125 47.21875 15.09375 
Q 47.21875 7.46875 41.1875 3.015625 
Q 35.15625 -1.421875 24.609375 -1.421875 
Q 20.21875 -1.421875 15.453125 -0.5625 
Q 10.6875 0.296875 5.421875 2 
L 5.421875 11.28125 
Q 10.40625 8.6875 15.234375 7.390625 
Q 20.0625 6.109375 24.8125 6.109375 
Q 31.15625 6.109375 34.5625 8.28125 
Q 37.984375 10.453125 37.984375 14.40625 
Q 37.984375 18.0625 35.515625 20.015625 
Q 33.0625 21.96875 24.703125 23.78125 
L 21.578125 24.515625 
Q 13.234375 26.265625 9.515625 29.90625 
Q 5.8125 33.546875 5.8125 39.890625 
Q 5.8125 47.609375 11.28125 51.796875 
Q 16.75 56 26.8125 56 
Q 31.78125 56 36.171875 55.265625 
Q 40.578125 54.546875 44.28125 53.078125 
z
" id="DejaVuSans-115"/>
      <path d="M 18.3125 70.21875 
L 18.3125 54.6875 
L 36.8125 54.6875 
L 36.8125 47.703125 
L 18.3125 47.703125 
L 18.3125 18.015625 
Q 18.3125 11.328125 20.140625 9.421875 
Q 21.96875 7.515625 27.59375 7.515625 
L 36.8125 7.515625 
L 36.8125 0 
L 27.59375 0 
Q 17.1875 0 13.234375 3.875 
Q 9.28125 7.765625 9.28125 18.015625 
L 9.28125 47.703125 
L 2.6875 47.703125 
L 2.6875 54.6875 
L 9.28125 54.6875 
L 9.28125 70.21875 
z
" id="DejaVuSans-116"/>
      <path d="M 41.109375 46.296875 
Q 39.59375 47.171875 37.8125 47.578125 
Q 36.03125 48 33.890625 48 
Q 26.265625 48 22.1875 43.046875 
Q 18.109375 38.09375 18.109375 28.8125 
L 18.109375 0 
L 9.078125 0 
L 9.078125 54.6875 
L 18.109375 54.6875 
L 18.109375 46.1875 
Q 20.953125 51.171875 25.484375 53.578125 
Q 30.03125 56 36.53125 56 
Q 37.453125 56 38.578125 55.875 
Q 39.703125 55.765625 41.0625 55.515625 
z
" id="DejaVuSans-114"/>
      <path d="M 8.5 21.578125 
L 8.5 54.6875 
L 17.484375 54.6875 
L 17.484375 21.921875 
Q 17.484375 14.15625 20.5 10.265625 
Q 23.53125 6.390625 29.59375 6.390625 
Q 36.859375 6.390625 41.078125 11.03125 
Q 45.3125 15.671875 45.3125 23.6875 
L 45.3125 54.6875 
L 54.296875 54.6875 
L 54.296875 0 
L 45.3125 0 
L 45.3125 8.40625 
Q 42.046875 3.421875 37.71875 1 
Q 33.40625 -1.421875 27.6875 -1.421875 
Q 18.265625 -1.421875 13.375 4.4375 
Q 8.5 10.296875 8.5 21.578125 
z
M 31.109375 56 
z
" id="DejaVuSans-117"/>
      <path d="M 48.78125 52.59375 
L 48.78125 44.1875 
Q 44.96875 46.296875 41.140625 47.34375 
Q 37.3125 48.390625 33.40625 48.390625 
Q 24.65625 48.390625 19.8125 42.84375 
Q 14.984375 37.3125 14.984375 27.296875 
Q 14.984375 17.28125 19.8125 11.734375 
Q 24.65625 6.203125 33.40625 6.203125 
Q 37.3125 6.203125 41.140625 7.25 
Q 44.96875 8.296875 48.78125 10.40625 
L 48.78125 2.09375 
Q 45.015625 0.34375 40.984375 -0.53125 
Q 36.96875 -1.421875 32.421875 -1.421875 
Q 20.0625 -1.421875 12.78125 6.34375 
Q 5.515625 14.109375 5.515625 27.296875 
Q 5.515625 40.671875 12.859375 48.328125 
Q 20.21875 56 33.015625 56 
Q 37.15625 56 41.109375 55.140625 
Q 45.0625 54.296875 48.78125 52.59375 
z
" id="DejaVuSans-99"/>
      <path d="M 30.609375 48.390625 
Q 23.390625 48.390625 19.1875 42.75 
Q 14.984375 37.109375 14.984375 27.296875 
Q 14.984375 17.484375 19.15625 11.84375 
Q 23.34375 6.203125 30.609375 6.203125 
Q 37.796875 6.203125 41.984375 11.859375 
Q 46.1875 17.53125 46.1875 27.296875 
Q 46.1875 37.015625 41.984375 42.703125 
Q 37.796875 48.390625 30.609375 48.390625 
z
M 30.609375 56 
Q 42.328125 56 49.015625 48.375 
Q 55.71875 40.765625 55.71875 27.296875 
Q 55.71875 13.875 49.015625 6.21875 
Q 42.328125 -1.421875 30.609375 -1.421875 
Q 18.84375 -1.421875 12.171875 6.21875 
Q 5.515625 13.875 5.515625 27.296875 
Q 5.515625 40.765625 12.171875 48.375 
Q 18.84375 56 30.609375 56 
z
" id="DejaVuSans-111"/>
      <path d="M 37.109375 75.984375 
L 37.109375 68.5 
L 28.515625 68.5 
Q 23.6875 68.5 21.796875 66.546875 
Q 19.921875 64.59375 19.921875 59.515625 
L 19.921875 54.6875 
L 34.71875 54.6875 
L 34.71875 47.703125 
L 19.921875 47.703125 
L 19.921875 0 
L 10.890625 0 
L 10.890625 47.703125 
L 2.296875 47.703125 
L 2.296875 54.6875 
L 10.890625 54.6875 
L 10.890625 58.5 
Q 10.890625 67.625 15.140625 71.796875 
Q 19.390625 75.984375 28.609375 75.984375 
z
" id="DejaVuSans-102"/>
      <path d="M 64.40625 67.28125 
L 64.40625 56.890625 
Q 59.421875 61.53125 53.78125 63.8125 
Q 48.140625 66.109375 41.796875 66.109375 
Q 29.296875 66.109375 22.65625 58.46875 
Q 16.015625 50.828125 16.015625 36.375 
Q 16.015625 21.96875 22.65625 14.328125 
Q 29.296875 6.6875 41.796875 6.6875 
Q 48.140625 6.6875 53.78125 8.984375 
Q 59.421875 11.28125 64.40625 15.921875 
L 64.40625 5.609375 
Q 59.234375 2.09375 53.4375 0.328125 
Q 47.65625 -1.421875 41.21875 -1.421875 
Q 24.65625 -1.421875 15.125 8.703125 
Q 5.609375 18.84375 5.609375 36.375 
Q 5.609375 53.953125 15.125 64.078125 
Q 24.65625 74.21875 41.21875 74.21875 
Q 47.75 74.21875 53.53125 72.484375 
Q 59.328125 70.75 64.40625 67.28125 
z
" id="DejaVuSans-67"/>
      <path d="M 31.78125 34.625 
Q 24.75 34.625 20.71875 30.859375 
Q 16.703125 27.09375 16.703125 20.515625 
Q 16.703125 13.921875 20.71875 10.15625 
Q 24.75 6.390625 31.78125 6.390625 
Q 38.8125 6.390625 42.859375 10.171875 
Q 46.921875 13.96875 46.921875 20.515625 
Q 46.921875 27.09375 42.890625 30.859375 
Q 38.875 34.625 31.78125 34.625 
z
M 21.921875 38.8125 
Q 15.578125 40.375 12.03125 44.71875 
Q 8.5 49.078125 8.5 55.328125 
Q 8.5 64.0625 14.71875 69.140625 
Q 20.953125 74.21875 31.78125 74.21875 
Q 42.671875 74.21875 48.875 69.140625 
Q 55.078125 64.0625 55.078125 55.328125 
Q 55.078125 49.078125 51.53125 44.71875 
Q 48 40.375 41.703125 38.8125 
Q 48.828125 37.15625 52.796875 32.3125 
Q 56.78125 27.484375 56.78125 20.515625 
Q 56.78125 9.90625 50.3125 4.234375 
Q 43.84375 -1.421875 31.78125 -1.421875 
Q 19.734375 -1.421875 13.25 4.234375 
Q 6.78125 9.90625 6.78125 20.515625 
Q 6.78125 27.484375 10.78125 32.3125 
Q 14.796875 37.15625 21.921875 38.8125 
z
M 18.3125 54.390625 
Q 18.3125 48.734375 21.84375 45.5625 
Q 25.390625 42.390625 31.78125 42.390625 
Q 38.140625 42.390625 41.71875 45.5625 
Q 45.3125 48.734375 45.3125 54.390625 
Q 45.3125 60.0625 41.71875 63.234375 
Q 38.140625 66.40625 31.78125 66.40625 
Q 25.390625 66.40625 21.84375 63.234375 
Q 18.3125 60.0625 18.3125 54.390625 
z
" id="DejaVuSans-56"/>
      <path d="M 9.421875 54.6875 
L 18.40625 54.6875 
L 18.40625 0 
L 9.421875 0 
z
M 9.421875 75.984375 
L 18.40625 75.984375 
L 18.40625 64.59375 
L 9.421875 64.59375 
z
" id="DejaVuSans-105"/>
     </defs>
     <use transform="translate(0 0.015625)" xlink:href="#DejaVuSans-66"/>
     <use transform="translate(68.603516 0.015625)" xlink:href="#DejaVuSans-97"/>
     <use transform="translate(129.882812 0.015625)" xlink:href="#DejaVuSans-110"/>
     <use transform="translate(193.261719 0.015625)" xlink:href="#DejaVuSans-100"/>
     <use transform="translate(256.738281 0.015625)" xlink:href="#DejaVuSans-115"/>
     <use transform="translate(308.837891 0.015625)" xlink:href="#DejaVuSans-116"/>
     <use transform="translate(348.046875 0.015625)" xlink:href="#DejaVuSans-114"/>
     <use transform="translate(389.160156 0.015625)" xlink:href="#DejaVuSans-117"/>
     <use transform="translate(452.539062 0.015625)" xlink:href="#DejaVuSans-99"/>
     <use transform="translate(507.519531 0.015625)" xlink:href="#DejaVuSans-116"/>
     <use transform="translate(546.728516 0.015625)" xlink:href="#DejaVuSans-117"/>
     <use transform="translate(610.107422 0.015625)" xlink:href="#DejaVuSans-114"/>
     <use transform="translate(651.220703 0.015625)" xlink:href="#DejaVuSans-101"/>
     <use transform="translate(712.744141 0.015625)" xlink:href="#DejaVuSans-32"/>
     <use transform="translate(744.53125 0.015625)" xlink:href="#DejaVuSans-111"/>
     <use transform="translate(805.712891 0.015625)" xlink:href="#DejaVuSans-102"/>
     <use transform="translate(840.917969 0.015625)" xlink:href="#DejaVuSans-32"/>
     <use transform="translate(872.705078 0.015625)" xlink:href="#DejaVuSans-67"/>
     <use transform="translate(943.486328 -16.390625)scale(0.7)" xlink:href="#DejaVuSans-56"/>
     <use transform="translate(990.756836 0.015625)" xlink:href="#DejaVuSans-76"/>
     <use transform="translate(1046.469727 0.015625)" xlink:href="#DejaVuSans-105"/>
    </g>
   </g>
  </g>
 </g>
 <defs>
  <clipPath id="pa91db72b59">
   <rect height="294.8" width="500.128" x="60.932" y="31.92"/>
  </clipPath>
 </defs>
</svg>
