<?xml version="1.0" encoding="utf-8" standalone="no"?>
<!DOCTYPE svg PUBLIC "-//W3C//DTD SVG 1.1//EN"
  "http://www.w3.org/Graphics/SVG/1.1/DTD/svg11.dtd">
<!-- Created with matplotlib (https://matplotlib.org/) -->
<svg height="360pt" version="1.1" viewBox="0 0 360 360" width="360pt" xmlns="http://www.w3.org/2000/svg" xmlns:xlink="http://www.w3.org/1999/xlink">
 <metadata>
  <rdf:RDF xmlns:cc="http://creativecommons.org/ns#" xmlns:dc="http://purl.org/dc/elements/1.1/" xmlns:rdf="http://www.w3.org/1999/02/22-rdf-syntax-ns#">
   <cc:Work>
    <dc:type rdf:resource="http://purl.org/dc/dcmitype/StillImage"/>
    <dc:date>2021-01-11T10:11:39.112497</dc:date>
    <dc:format>image/svg+xml</dc:format>
    <dc:creator>
     <cc:Agent>
      <dc:title>Matplotlib v3.3.3, https://matplotlib.org/</dc:title>
     </cc:Agent>
    </dc:creator>
   </cc:Work>
  </rdf:RDF>
 </metadata>
 <defs>
  <style type="text/css">*{stroke-linecap:butt;stroke-linejoin:round;}</style>
 </defs>
 <g id="figure_1">
  <g id="patch_1">
   <path d="M 0 360 
L 360 360 
L 360 0 
L 0 0 
z
" style="fill:#ffffff;"/>
  </g>
  <g id="axes_1">
   <g id="patch_2">
    <path d="M 42.59 311.128 
L 346.005 311.128 
L 346.005 12.685278 
L 42.59 12.685278 
z
" style="fill:#ffffff;"/>
   </g>
   <g id="matplotlib.axis_1">
    <g id="xtick_1">
     <g id="line2d_1">
      <defs>
       <path d="M 0 0 
L 0 3.5 
" id="m47cfa8c56c" style="stroke:#000000;stroke-width:0.8;"/>
      </defs>
      <g>
       <use style="stroke:#000000;stroke-width:0.8;" x="42.59" xlink:href="#m47cfa8c56c" y="311.128"/>
      </g>
     </g>
     <g id="text_1">
      <!-- −8 -->
      <g transform="translate(35.218906 325.726438)scale(0.1 -0.1)">
       <defs>
        <path d="M 10.59375 35.5 
L 73.1875 35.5 
L 73.1875 27.203125 
L 10.59375 27.203125 
z
" id="DejaVuSans-8722"/>
        <path d="M 31.78125 34.625 
Q 24.75 34.625 20.71875 30.859375 
Q 16.703125 27.09375 16.703125 20.515625 
Q 16.703125 13.921875 20.71875 10.15625 
Q 24.75 6.390625 31.78125 6.390625 
Q 38.8125 6.390625 42.859375 10.171875 
Q 46.921875 13.96875 46.921875 20.515625 
Q 46.921875 27.09375 42.890625 30.859375 
Q 38.875 34.625 31.78125 34.625 
z
M 21.921875 38.8125 
Q 15.578125 40.375 12.03125 44.71875 
Q 8.5 49.078125 8.5 55.328125 
Q 8.5 64.0625 14.71875 69.140625 
Q 20.953125 74.21875 31.78125 74.21875 
Q 42.671875 74.21875 48.875 69.140625 
Q 55.078125 64.0625 55.078125 55.328125 
Q 55.078125 49.078125 51.53125 44.71875 
Q 48 40.375 41.703125 38.8125 
Q 48.828125 37.15625 52.796875 32.3125 
Q 56.78125 27.484375 56.78125 20.515625 
Q 56.78125 9.90625 50.3125 4.234375 
Q 43.84375 -1.421875 31.78125 -1.421875 
Q 19.734375 -1.421875 13.25 4.234375 
Q 6.78125 9.90625 6.78125 20.515625 
Q 6.78125 27.484375 10.78125 32.3125 
Q 14.796875 37.15625 21.921875 38.8125 
z
M 18.3125 54.390625 
Q 18.3125 48.734375 21.84375 45.5625 
Q 25.390625 42.390625 31.78125 42.390625 
Q 38.140625 42.390625 41.71875 45.5625 
Q 45.3125 48.734375 45.3125 54.390625 
Q 45.3125 60.0625 41.71875 63.234375 
Q 38.140625 66.40625 31.78125 66.40625 
Q 25.390625 66.40625 21.84375 63.234375 
Q 18.3125 60.0625 18.3125 54.390625 
z
" id="DejaVuSans-56"/>
       </defs>
       <use xlink:href="#DejaVuSans-8722"/>
       <use x="83.789062" xlink:href="#DejaVuSans-56"/>
      </g>
     </g>
    </g>
    <g id="xtick_2">
     <g id="line2d_2">
      <g>
       <use style="stroke:#000000;stroke-width:0.8;" x="80.516875" xlink:href="#m47cfa8c56c" y="311.128"/>
      </g>
     </g>
     <g id="text_2">
      <!-- −6 -->
      <g transform="translate(73.145781 325.726438)scale(0.1 -0.1)">
       <defs>
        <path d="M 33.015625 40.375 
Q 26.375 40.375 22.484375 35.828125 
Q 18.609375 31.296875 18.609375 23.390625 
Q 18.609375 15.53125 22.484375 10.953125 
Q 26.375 6.390625 33.015625 6.390625 
Q 39.65625 6.390625 43.53125 10.953125 
Q 47.40625 15.53125 47.40625 23.390625 
Q 47.40625 31.296875 43.53125 35.828125 
Q 39.65625 40.375 33.015625 40.375 
z
M 52.59375 71.296875 
L 52.59375 62.3125 
Q 48.875 64.0625 45.09375 64.984375 
Q 41.3125 65.921875 37.59375 65.921875 
Q 27.828125 65.921875 22.671875 59.328125 
Q 17.53125 52.734375 16.796875 39.40625 
Q 19.671875 43.65625 24.015625 45.921875 
Q 28.375 48.1875 33.59375 48.1875 
Q 44.578125 48.1875 50.953125 41.515625 
Q 57.328125 34.859375 57.328125 23.390625 
Q 57.328125 12.15625 50.6875 5.359375 
Q 44.046875 -1.421875 33.015625 -1.421875 
Q 20.359375 -1.421875 13.671875 8.265625 
Q 6.984375 17.96875 6.984375 36.375 
Q 6.984375 53.65625 15.1875 63.9375 
Q 23.390625 74.21875 37.203125 74.21875 
Q 40.921875 74.21875 44.703125 73.484375 
Q 48.484375 72.75 52.59375 71.296875 
z
" id="DejaVuSans-54"/>
       </defs>
       <use xlink:href="#DejaVuSans-8722"/>
       <use x="83.789062" xlink:href="#DejaVuSans-54"/>
      </g>
     </g>
    </g>
    <g id="xtick_3">
     <g id="line2d_3">
      <g>
       <use style="stroke:#000000;stroke-width:0.8;" x="118.44375" xlink:href="#m47cfa8c56c" y="311.128"/>
      </g>
     </g>
     <g id="text_3">
      <!-- −4 -->
      <g transform="translate(111.072656 325.726438)scale(0.1 -0.1)">
       <defs>
        <path d="M 37.796875 64.3125 
L 12.890625 25.390625 
L 37.796875 25.390625 
z
M 35.203125 72.90625 
L 47.609375 72.90625 
L 47.609375 25.390625 
L 58.015625 25.390625 
L 58.015625 17.1875 
L 47.609375 17.1875 
L 47.609375 0 
L 37.796875 0 
L 37.796875 17.1875 
L 4.890625 17.1875 
L 4.890625 26.703125 
z
" id="DejaVuSans-52"/>
       </defs>
       <use xlink:href="#DejaVuSans-8722"/>
       <use x="83.789062" xlink:href="#DejaVuSans-52"/>
      </g>
     </g>
    </g>
    <g id="xtick_4">
     <g id="line2d_4">
      <g>
       <use style="stroke:#000000;stroke-width:0.8;" x="156.370625" xlink:href="#m47cfa8c56c" y="311.128"/>
      </g>
     </g>
     <g id="text_4">
      <!-- −2 -->
      <g transform="translate(148.999531 325.726438)scale(0.1 -0.1)">
       <defs>
        <path d="M 19.1875 8.296875 
L 53.609375 8.296875 
L 53.609375 0 
L 7.328125 0 
L 7.328125 8.296875 
Q 12.9375 14.109375 22.625 23.890625 
Q 32.328125 33.6875 34.8125 36.53125 
Q 39.546875 41.84375 41.421875 45.53125 
Q 43.3125 49.21875 43.3125 52.78125 
Q 43.3125 58.59375 39.234375 62.25 
Q 35.15625 65.921875 28.609375 65.921875 
Q 23.96875 65.921875 18.8125 64.3125 
Q 13.671875 62.703125 7.8125 59.421875 
L 7.8125 69.390625 
Q 13.765625 71.78125 18.9375 73 
Q 24.125 74.21875 28.421875 74.21875 
Q 39.75 74.21875 46.484375 68.546875 
Q 53.21875 62.890625 53.21875 53.421875 
Q 53.21875 48.921875 51.53125 44.890625 
Q 49.859375 40.875 45.40625 35.40625 
Q 44.1875 33.984375 37.640625 27.21875 
Q 31.109375 20.453125 19.1875 8.296875 
z
" id="DejaVuSans-50"/>
       </defs>
       <use xlink:href="#DejaVuSans-8722"/>
       <use x="83.789062" xlink:href="#DejaVuSans-50"/>
      </g>
     </g>
    </g>
    <g id="xtick_5">
     <g id="line2d_5">
      <g>
       <use style="stroke:#000000;stroke-width:0.8;" x="194.2975" xlink:href="#m47cfa8c56c" y="311.128"/>
      </g>
     </g>
     <g id="text_5">
      <!-- 0 -->
      <g transform="translate(191.11625 325.726438)scale(0.1 -0.1)">
       <defs>
        <path d="M 31.78125 66.40625 
Q 24.171875 66.40625 20.328125 58.90625 
Q 16.5 51.421875 16.5 36.375 
Q 16.5 21.390625 20.328125 13.890625 
Q 24.171875 6.390625 31.78125 6.390625 
Q 39.453125 6.390625 43.28125 13.890625 
Q 47.125 21.390625 47.125 36.375 
Q 47.125 51.421875 43.28125 58.90625 
Q 39.453125 66.40625 31.78125 66.40625 
z
M 31.78125 74.21875 
Q 44.046875 74.21875 50.515625 64.515625 
Q 56.984375 54.828125 56.984375 36.375 
Q 56.984375 17.96875 50.515625 8.265625 
Q 44.046875 -1.421875 31.78125 -1.421875 
Q 19.53125 -1.421875 13.0625 8.265625 
Q 6.59375 17.96875 6.59375 36.375 
Q 6.59375 54.828125 13.0625 64.515625 
Q 19.53125 74.21875 31.78125 74.21875 
z
" id="DejaVuSans-48"/>
       </defs>
       <use xlink:href="#DejaVuSans-48"/>
      </g>
     </g>
    </g>
    <g id="xtick_6">
     <g id="line2d_6">
      <g>
       <use style="stroke:#000000;stroke-width:0.8;" x="232.224375" xlink:href="#m47cfa8c56c" y="311.128"/>
      </g>
     </g>
     <g id="text_6">
      <!-- 2 -->
      <g transform="translate(229.043125 325.726438)scale(0.1 -0.1)">
       <use xlink:href="#DejaVuSans-50"/>
      </g>
     </g>
    </g>
    <g id="xtick_7">
     <g id="line2d_7">
      <g>
       <use style="stroke:#000000;stroke-width:0.8;" x="270.15125" xlink:href="#m47cfa8c56c" y="311.128"/>
      </g>
     </g>
     <g id="text_7">
      <!-- 4 -->
      <g transform="translate(266.97 325.726438)scale(0.1 -0.1)">
       <use xlink:href="#DejaVuSans-52"/>
      </g>
     </g>
    </g>
    <g id="xtick_8">
     <g id="line2d_8">
      <g>
       <use style="stroke:#000000;stroke-width:0.8;" x="308.078125" xlink:href="#m47cfa8c56c" y="311.128"/>
      </g>
     </g>
     <g id="text_8">
      <!-- 6 -->
      <g transform="translate(304.896875 325.726438)scale(0.1 -0.1)">
       <use xlink:href="#DejaVuSans-54"/>
      </g>
     </g>
    </g>
    <g id="xtick_9">
     <g id="line2d_9">
      <g>
       <use style="stroke:#000000;stroke-width:0.8;" x="346.005" xlink:href="#m47cfa8c56c" y="311.128"/>
      </g>
     </g>
     <g id="text_9">
      <!-- 8 -->
      <g transform="translate(342.82375 325.726438)scale(0.1 -0.1)">
       <use xlink:href="#DejaVuSans-56"/>
      </g>
     </g>
    </g>
    <g id="text_10">
     <!-- $\varepsilon_n(k) - \varepsilon_{\mathrm{F}}$ (eV) -->
     <g transform="translate(142.0225 343.203781)scale(0.15 -0.15)">
      <defs>
       <path d="M 19.734375 29.5 
Q 14.453125 30.671875 12.15625 33.84375 
Q 10.453125 36.078125 10.453125 39.109375 
Q 10.453125 47.40625 18.359375 52.25 
Q 24.609375 56.0625 34.1875 56.0625 
Q 37.890625 56.0625 41.9375 55.46875 
Q 46 54.890625 50.53125 53.71875 
L 48.96875 45.5625 
Q 44.484375 46.96875 40.71875 47.609375 
Q 36.859375 48.25 33.40625 48.25 
Q 27.59375 48.25 23.78125 46 
Q 19.1875 43.3125 19.1875 39.40625 
Q 19.1875 36.8125 21.578125 35.015625 
Q 24.421875 32.859375 30.078125 32.859375 
L 37.640625 32.859375 
L 36.234375 25.4375 
L 29 25.4375 
Q 22.265625 25.4375 18.3125 22.953125 
Q 12.9375 19.578125 12.9375 14.3125 
Q 12.9375 10.984375 15.828125 8.796875 
Q 19.4375 6.0625 26.8125 6.0625 
Q 31.34375 6.0625 35.6875 6.9375 
Q 40.046875 7.859375 43.84375 9.671875 
L 42.1875 1.3125 
Q 37.546875 -0.046875 33.296875 -0.734375 
Q 29.046875 -1.421875 25.140625 -1.421875 
Q 13.53125 -1.421875 8.0625 3.03125 
Q 3.90625 6.453125 3.90625 12.203125 
Q 3.90625 19.96875 9.375 24.75 
Q 13.421875 28.328125 19.734375 29.5 
z
" id="DejaVuSans-Oblique-949"/>
       <path d="M 55.71875 33.015625 
L 49.3125 0 
L 40.28125 0 
L 46.6875 32.671875 
Q 47.125 34.96875 47.359375 36.71875 
Q 47.609375 38.484375 47.609375 39.5 
Q 47.609375 43.609375 45.015625 45.890625 
Q 42.4375 48.1875 37.796875 48.1875 
Q 30.5625 48.1875 25.34375 43.375 
Q 20.125 38.578125 18.5 30.328125 
L 12.5 0 
L 3.515625 0 
L 14.109375 54.6875 
L 23.09375 54.6875 
L 21.296875 46.09375 
Q 25.046875 50.828125 30.3125 53.40625 
Q 35.59375 56 41.40625 56 
Q 48.640625 56 52.609375 52.09375 
Q 56.59375 48.1875 56.59375 41.109375 
Q 56.59375 39.359375 56.375 37.359375 
Q 56.15625 35.359375 55.71875 33.015625 
z
" id="DejaVuSans-Oblique-110"/>
       <path d="M 31 75.875 
Q 24.46875 64.65625 21.28125 53.65625 
Q 18.109375 42.671875 18.109375 31.390625 
Q 18.109375 20.125 21.3125 9.0625 
Q 24.515625 -2 31 -13.1875 
L 23.1875 -13.1875 
Q 15.875 -1.703125 12.234375 9.375 
Q 8.59375 20.453125 8.59375 31.390625 
Q 8.59375 42.28125 12.203125 53.3125 
Q 15.828125 64.359375 23.1875 75.875 
z
" id="DejaVuSans-40"/>
       <path d="M 18.3125 75.984375 
L 27.296875 75.984375 
L 18.703125 31.6875 
L 49.515625 54.6875 
L 61.1875 54.6875 
L 26.8125 28.515625 
L 51.90625 0 
L 41.015625 0 
L 17.671875 26.703125 
L 12.5 0 
L 3.515625 0 
z
" id="DejaVuSans-Oblique-107"/>
       <path d="M 8.015625 75.875 
L 15.828125 75.875 
Q 23.140625 64.359375 26.78125 53.3125 
Q 30.421875 42.28125 30.421875 31.390625 
Q 30.421875 20.453125 26.78125 9.375 
Q 23.140625 -1.703125 15.828125 -13.1875 
L 8.015625 -13.1875 
Q 14.5 -2 17.703125 9.0625 
Q 20.90625 20.125 20.90625 31.390625 
Q 20.90625 42.671875 17.703125 53.65625 
Q 14.5 64.65625 8.015625 75.875 
z
" id="DejaVuSans-41"/>
       <path d="M 9.8125 72.90625 
L 51.703125 72.90625 
L 51.703125 64.59375 
L 19.671875 64.59375 
L 19.671875 43.109375 
L 48.578125 43.109375 
L 48.578125 34.8125 
L 19.671875 34.8125 
L 19.671875 0 
L 9.8125 0 
z
" id="DejaVuSans-70"/>
       <path id="DejaVuSans-32"/>
       <path d="M 56.203125 29.59375 
L 56.203125 25.203125 
L 14.890625 25.203125 
Q 15.484375 15.921875 20.484375 11.0625 
Q 25.484375 6.203125 34.421875 6.203125 
Q 39.59375 6.203125 44.453125 7.46875 
Q 49.3125 8.734375 54.109375 11.28125 
L 54.109375 2.78125 
Q 49.265625 0.734375 44.1875 -0.34375 
Q 39.109375 -1.421875 33.890625 -1.421875 
Q 20.796875 -1.421875 13.15625 6.1875 
Q 5.515625 13.8125 5.515625 26.8125 
Q 5.515625 40.234375 12.765625 48.109375 
Q 20.015625 56 32.328125 56 
Q 43.359375 56 49.78125 48.890625 
Q 56.203125 41.796875 56.203125 29.59375 
z
M 47.21875 32.234375 
Q 47.125 39.59375 43.09375 43.984375 
Q 39.0625 48.390625 32.421875 48.390625 
Q 24.90625 48.390625 20.390625 44.140625 
Q 15.875 39.890625 15.1875 32.171875 
z
" id="DejaVuSans-101"/>
       <path d="M 28.609375 0 
L 0.78125 72.90625 
L 11.078125 72.90625 
L 34.1875 11.53125 
L 57.328125 72.90625 
L 67.578125 72.90625 
L 39.796875 0 
z
" id="DejaVuSans-86"/>
      </defs>
      <use transform="translate(0 0.015625)" xlink:href="#DejaVuSans-Oblique-949"/>
      <use transform="translate(54.052734 -16.390625)scale(0.7)" xlink:href="#DejaVuSans-Oblique-110"/>
      <use transform="translate(101.152344 0.015625)" xlink:href="#DejaVuSans-40"/>
      <use transform="translate(140.166016 0.015625)" xlink:href="#DejaVuSans-Oblique-107"/>
      <use transform="translate(198.076172 0.015625)" xlink:href="#DejaVuSans-41"/>
      <use transform="translate(256.572266 0.015625)" xlink:href="#DejaVuSans-8722"/>
      <use transform="translate(359.84375 0.015625)" xlink:href="#DejaVuSans-Oblique-949"/>
      <use transform="translate(413.896484 -16.390625)scale(0.7)" xlink:href="#DejaVuSans-70"/>
      <use transform="translate(456.894531 0.015625)" xlink:href="#DejaVuSans-32"/>
      <use transform="translate(488.681641 0.015625)" xlink:href="#DejaVuSans-40"/>
      <use transform="translate(527.695312 0.015625)" xlink:href="#DejaVuSans-101"/>
      <use transform="translate(589.21875 0.015625)" xlink:href="#DejaVuSans-86"/>
      <use transform="translate(657.626953 0.015625)" xlink:href="#DejaVuSans-41"/>
     </g>
    </g>
   </g>
   <g id="matplotlib.axis_2">
    <g id="ytick_1">
     <g id="line2d_10">
      <defs>
       <path d="M 0 0 
L -3.5 0 
" id="m969b8a5b13" style="stroke:#000000;stroke-width:0.8;"/>
      </defs>
      <g>
       <use style="stroke:#000000;stroke-width:0.8;" x="42.59" xlink:href="#m969b8a5b13" y="311.128"/>
      </g>
     </g>
     <g id="text_11">
      <!-- 0 -->
      <g transform="translate(29.2275 314.927219)scale(0.1 -0.1)">
       <use xlink:href="#DejaVuSans-48"/>
      </g>
     </g>
    </g>
    <g id="ytick_2">
     <g id="line2d_11">
      <g>
       <use style="stroke:#000000;stroke-width:0.8;" x="42.59" xlink:href="#m969b8a5b13" y="251.886199"/>
      </g>
     </g>
     <g id="text_12">
      <!-- 1 -->
      <g transform="translate(29.2275 255.685417)scale(0.1 -0.1)">
       <defs>
        <path d="M 12.40625 8.296875 
L 28.515625 8.296875 
L 28.515625 63.921875 
L 10.984375 60.40625 
L 10.984375 69.390625 
L 28.421875 72.90625 
L 38.28125 72.90625 
L 38.28125 8.296875 
L 54.390625 8.296875 
L 54.390625 0 
L 12.40625 0 
z
" id="DejaVuSans-49"/>
       </defs>
       <use xlink:href="#DejaVuSans-49"/>
      </g>
     </g>
    </g>
    <g id="ytick_3">
     <g id="line2d_12">
      <g>
       <use style="stroke:#000000;stroke-width:0.8;" x="42.59" xlink:href="#m969b8a5b13" y="192.644397"/>
      </g>
     </g>
     <g id="text_13">
      <!-- 2 -->
      <g transform="translate(29.2275 196.443616)scale(0.1 -0.1)">
       <use xlink:href="#DejaVuSans-50"/>
      </g>
     </g>
    </g>
    <g id="ytick_4">
     <g id="line2d_13">
      <g>
       <use style="stroke:#000000;stroke-width:0.8;" x="42.59" xlink:href="#m969b8a5b13" y="133.402596"/>
      </g>
     </g>
     <g id="text_14">
      <!-- 3 -->
      <g transform="translate(29.2275 137.201814)scale(0.1 -0.1)">
       <defs>
        <path d="M 40.578125 39.3125 
Q 47.65625 37.796875 51.625 33 
Q 55.609375 28.21875 55.609375 21.1875 
Q 55.609375 10.40625 48.1875 4.484375 
Q 40.765625 -1.421875 27.09375 -1.421875 
Q 22.515625 -1.421875 17.65625 -0.515625 
Q 12.796875 0.390625 7.625 2.203125 
L 7.625 11.71875 
Q 11.71875 9.328125 16.59375 8.109375 
Q 21.484375 6.890625 26.8125 6.890625 
Q 36.078125 6.890625 40.9375 10.546875 
Q 45.796875 14.203125 45.796875 21.1875 
Q 45.796875 27.640625 41.28125 31.265625 
Q 36.765625 34.90625 28.71875 34.90625 
L 20.21875 34.90625 
L 20.21875 43.015625 
L 29.109375 43.015625 
Q 36.375 43.015625 40.234375 45.921875 
Q 44.09375 48.828125 44.09375 54.296875 
Q 44.09375 59.90625 40.109375 62.90625 
Q 36.140625 65.921875 28.71875 65.921875 
Q 24.65625 65.921875 20.015625 65.03125 
Q 15.375 64.15625 9.8125 62.3125 
L 9.8125 71.09375 
Q 15.4375 72.65625 20.34375 73.4375 
Q 25.25 74.21875 29.59375 74.21875 
Q 40.828125 74.21875 47.359375 69.109375 
Q 53.90625 64.015625 53.90625 55.328125 
Q 53.90625 49.265625 50.4375 45.09375 
Q 46.96875 40.921875 40.578125 39.3125 
z
" id="DejaVuSans-51"/>
       </defs>
       <use xlink:href="#DejaVuSans-51"/>
      </g>
     </g>
    </g>
    <g id="ytick_5">
     <g id="line2d_14">
      <g>
       <use style="stroke:#000000;stroke-width:0.8;" x="42.59" xlink:href="#m969b8a5b13" y="74.160794"/>
      </g>
     </g>
     <g id="text_15">
      <!-- 4 -->
      <g transform="translate(29.2275 77.960013)scale(0.1 -0.1)">
       <use xlink:href="#DejaVuSans-52"/>
      </g>
     </g>
    </g>
    <g id="ytick_6">
     <g id="line2d_15">
      <g>
       <use style="stroke:#000000;stroke-width:0.8;" x="42.59" xlink:href="#m969b8a5b13" y="14.918993"/>
      </g>
     </g>
     <g id="text_16">
      <!-- 5 -->
      <g transform="translate(29.2275 18.718211)scale(0.1 -0.1)">
       <defs>
        <path d="M 10.796875 72.90625 
L 49.515625 72.90625 
L 49.515625 64.59375 
L 19.828125 64.59375 
L 19.828125 46.734375 
Q 21.96875 47.46875 24.109375 47.828125 
Q 26.265625 48.1875 28.421875 48.1875 
Q 40.625 48.1875 47.75 41.5 
Q 54.890625 34.8125 54.890625 23.390625 
Q 54.890625 11.625 47.5625 5.09375 
Q 40.234375 -1.421875 26.90625 -1.421875 
Q 22.3125 -1.421875 17.546875 -0.640625 
Q 12.796875 0.140625 7.71875 1.703125 
L 7.71875 11.625 
Q 12.109375 9.234375 16.796875 8.0625 
Q 21.484375 6.890625 26.703125 6.890625 
Q 35.15625 6.890625 40.078125 11.328125 
Q 45.015625 15.765625 45.015625 23.390625 
Q 45.015625 31 40.078125 35.4375 
Q 35.15625 39.890625 26.703125 39.890625 
Q 22.75 39.890625 18.8125 39.015625 
Q 14.890625 38.140625 10.796875 36.28125 
z
" id="DejaVuSans-53"/>
       </defs>
       <use xlink:href="#DejaVuSans-53"/>
      </g>
     </g>
    </g>
    <g id="text_17">
     <!-- Density of States (1/eV) -->
     <g transform="translate(22.107969 251.455467)rotate(-90)scale(0.15 -0.15)">
      <defs>
       <path d="M 19.671875 64.796875 
L 19.671875 8.109375 
L 31.59375 8.109375 
Q 46.6875 8.109375 53.6875 14.9375 
Q 60.6875 21.78125 60.6875 36.53125 
Q 60.6875 51.171875 53.6875 57.984375 
Q 46.6875 64.796875 31.59375 64.796875 
z
M 9.8125 72.90625 
L 30.078125 72.90625 
Q 51.265625 72.90625 61.171875 64.09375 
Q 71.09375 55.28125 71.09375 36.53125 
Q 71.09375 17.671875 61.125 8.828125 
Q 51.171875 0 30.078125 0 
L 9.8125 0 
z
" id="DejaVuSans-68"/>
       <path d="M 54.890625 33.015625 
L 54.890625 0 
L 45.90625 0 
L 45.90625 32.71875 
Q 45.90625 40.484375 42.875 44.328125 
Q 39.84375 48.1875 33.796875 48.1875 
Q 26.515625 48.1875 22.3125 43.546875 
Q 18.109375 38.921875 18.109375 30.90625 
L 18.109375 0 
L 9.078125 0 
L 9.078125 54.6875 
L 18.109375 54.6875 
L 18.109375 46.1875 
Q 21.34375 51.125 25.703125 53.5625 
Q 30.078125 56 35.796875 56 
Q 45.21875 56 50.046875 50.171875 
Q 54.890625 44.34375 54.890625 33.015625 
z
" id="DejaVuSans-110"/>
       <path d="M 44.28125 53.078125 
L 44.28125 44.578125 
Q 40.484375 46.53125 36.375 47.5 
Q 32.28125 48.484375 27.875 48.484375 
Q 21.1875 48.484375 17.84375 46.4375 
Q 14.5 44.390625 14.5 40.28125 
Q 14.5 37.15625 16.890625 35.375 
Q 19.28125 33.59375 26.515625 31.984375 
L 29.59375 31.296875 
Q 39.15625 29.25 43.1875 25.515625 
Q 47.21875 21.78125 47.21875 15.09375 
Q 47.21875 7.46875 41.1875 3.015625 
Q 35.15625 -1.421875 24.609375 -1.421875 
Q 20.21875 -1.421875 15.453125 -0.5625 
Q 10.6875 0.296875 5.421875 2 
L 5.421875 11.28125 
Q 10.40625 8.6875 15.234375 7.390625 
Q 20.0625 6.109375 24.8125 6.109375 
Q 31.15625 6.109375 34.5625 8.28125 
Q 37.984375 10.453125 37.984375 14.40625 
Q 37.984375 18.0625 35.515625 20.015625 
Q 33.0625 21.96875 24.703125 23.78125 
L 21.578125 24.515625 
Q 13.234375 26.265625 9.515625 29.90625 
Q 5.8125 33.546875 5.8125 39.890625 
Q 5.8125 47.609375 11.28125 51.796875 
Q 16.75 56 26.8125 56 
Q 31.78125 56 36.171875 55.265625 
Q 40.578125 54.546875 44.28125 53.078125 
z
" id="DejaVuSans-115"/>
       <path d="M 9.421875 54.6875 
L 18.40625 54.6875 
L 18.40625 0 
L 9.421875 0 
z
M 9.421875 75.984375 
L 18.40625 75.984375 
L 18.40625 64.59375 
L 9.421875 64.59375 
z
" id="DejaVuSans-105"/>
       <path d="M 18.3125 70.21875 
L 18.3125 54.6875 
L 36.8125 54.6875 
L 36.8125 47.703125 
L 18.3125 47.703125 
L 18.3125 18.015625 
Q 18.3125 11.328125 20.140625 9.421875 
Q 21.96875 7.515625 27.59375 7.515625 
L 36.8125 7.515625 
L 36.8125 0 
L 27.59375 0 
Q 17.1875 0 13.234375 3.875 
Q 9.28125 7.765625 9.28125 18.015625 
L 9.28125 47.703125 
L 2.6875 47.703125 
L 2.6875 54.6875 
L 9.28125 54.6875 
L 9.28125 70.21875 
z
" id="DejaVuSans-116"/>
       <path d="M 32.171875 -5.078125 
Q 28.375 -14.84375 24.75 -17.8125 
Q 21.140625 -20.796875 15.09375 -20.796875 
L 7.90625 -20.796875 
L 7.90625 -13.28125 
L 13.1875 -13.28125 
Q 16.890625 -13.28125 18.9375 -11.515625 
Q 21 -9.765625 23.484375 -3.21875 
L 25.09375 0.875 
L 2.984375 54.6875 
L 12.5 54.6875 
L 29.59375 11.921875 
L 46.6875 54.6875 
L 56.203125 54.6875 
z
" id="DejaVuSans-121"/>
       <path d="M 30.609375 48.390625 
Q 23.390625 48.390625 19.1875 42.75 
Q 14.984375 37.109375 14.984375 27.296875 
Q 14.984375 17.484375 19.15625 11.84375 
Q 23.34375 6.203125 30.609375 6.203125 
Q 37.796875 6.203125 41.984375 11.859375 
Q 46.1875 17.53125 46.1875 27.296875 
Q 46.1875 37.015625 41.984375 42.703125 
Q 37.796875 48.390625 30.609375 48.390625 
z
M 30.609375 56 
Q 42.328125 56 49.015625 48.375 
Q 55.71875 40.765625 55.71875 27.296875 
Q 55.71875 13.875 49.015625 6.21875 
Q 42.328125 -1.421875 30.609375 -1.421875 
Q 18.84375 -1.421875 12.171875 6.21875 
Q 5.515625 13.875 5.515625 27.296875 
Q 5.515625 40.765625 12.171875 48.375 
Q 18.84375 56 30.609375 56 
z
" id="DejaVuSans-111"/>
       <path d="M 37.109375 75.984375 
L 37.109375 68.5 
L 28.515625 68.5 
Q 23.6875 68.5 21.796875 66.546875 
Q 19.921875 64.59375 19.921875 59.515625 
L 19.921875 54.6875 
L 34.71875 54.6875 
L 34.71875 47.703125 
L 19.921875 47.703125 
L 19.921875 0 
L 10.890625 0 
L 10.890625 47.703125 
L 2.296875 47.703125 
L 2.296875 54.6875 
L 10.890625 54.6875 
L 10.890625 58.5 
Q 10.890625 67.625 15.140625 71.796875 
Q 19.390625 75.984375 28.609375 75.984375 
z
" id="DejaVuSans-102"/>
       <path d="M 53.515625 70.515625 
L 53.515625 60.890625 
Q 47.90625 63.578125 42.921875 64.890625 
Q 37.9375 66.21875 33.296875 66.21875 
Q 25.25 66.21875 20.875 63.09375 
Q 16.5 59.96875 16.5 54.203125 
Q 16.5 49.359375 19.40625 46.890625 
Q 22.3125 44.4375 30.421875 42.921875 
L 36.375 41.703125 
Q 47.40625 39.59375 52.65625 34.296875 
Q 57.90625 29 57.90625 20.125 
Q 57.90625 9.515625 50.796875 4.046875 
Q 43.703125 -1.421875 29.984375 -1.421875 
Q 24.8125 -1.421875 18.96875 -0.25 
Q 13.140625 0.921875 6.890625 3.21875 
L 6.890625 13.375 
Q 12.890625 10.015625 18.65625 8.296875 
Q 24.421875 6.59375 29.984375 6.59375 
Q 38.421875 6.59375 43.015625 9.90625 
Q 47.609375 13.234375 47.609375 19.390625 
Q 47.609375 24.75 44.3125 27.78125 
Q 41.015625 30.8125 33.5 32.328125 
L 27.484375 33.5 
Q 16.453125 35.6875 11.515625 40.375 
Q 6.59375 45.0625 6.59375 53.421875 
Q 6.59375 63.09375 13.40625 68.65625 
Q 20.21875 74.21875 32.171875 74.21875 
Q 37.3125 74.21875 42.625 73.28125 
Q 47.953125 72.359375 53.515625 70.515625 
z
" id="DejaVuSans-83"/>
       <path d="M 34.28125 27.484375 
Q 23.390625 27.484375 19.1875 25 
Q 14.984375 22.515625 14.984375 16.5 
Q 14.984375 11.71875 18.140625 8.90625 
Q 21.296875 6.109375 26.703125 6.109375 
Q 34.1875 6.109375 38.703125 11.40625 
Q 43.21875 16.703125 43.21875 25.484375 
L 43.21875 27.484375 
z
M 52.203125 31.203125 
L 52.203125 0 
L 43.21875 0 
L 43.21875 8.296875 
Q 40.140625 3.328125 35.546875 0.953125 
Q 30.953125 -1.421875 24.3125 -1.421875 
Q 15.921875 -1.421875 10.953125 3.296875 
Q 6 8.015625 6 15.921875 
Q 6 25.140625 12.171875 29.828125 
Q 18.359375 34.515625 30.609375 34.515625 
L 43.21875 34.515625 
L 43.21875 35.40625 
Q 43.21875 41.609375 39.140625 45 
Q 35.0625 48.390625 27.6875 48.390625 
Q 23 48.390625 18.546875 47.265625 
Q 14.109375 46.140625 10.015625 43.890625 
L 10.015625 52.203125 
Q 14.9375 54.109375 19.578125 55.046875 
Q 24.21875 56 28.609375 56 
Q 40.484375 56 46.34375 49.84375 
Q 52.203125 43.703125 52.203125 31.203125 
z
" id="DejaVuSans-97"/>
       <path d="M 25.390625 72.90625 
L 33.6875 72.90625 
L 8.296875 -9.28125 
L 0 -9.28125 
z
" id="DejaVuSans-47"/>
      </defs>
      <use xlink:href="#DejaVuSans-68"/>
      <use x="77.001953" xlink:href="#DejaVuSans-101"/>
      <use x="138.525391" xlink:href="#DejaVuSans-110"/>
      <use x="201.904297" xlink:href="#DejaVuSans-115"/>
      <use x="254.003906" xlink:href="#DejaVuSans-105"/>
      <use x="281.787109" xlink:href="#DejaVuSans-116"/>
      <use x="320.996094" xlink:href="#DejaVuSans-121"/>
      <use x="380.175781" xlink:href="#DejaVuSans-32"/>
      <use x="411.962891" xlink:href="#DejaVuSans-111"/>
      <use x="473.144531" xlink:href="#DejaVuSans-102"/>
      <use x="508.349609" xlink:href="#DejaVuSans-32"/>
      <use x="540.136719" xlink:href="#DejaVuSans-83"/>
      <use x="603.613281" xlink:href="#DejaVuSans-116"/>
      <use x="642.822266" xlink:href="#DejaVuSans-97"/>
      <use x="704.101562" xlink:href="#DejaVuSans-116"/>
      <use x="743.310547" xlink:href="#DejaVuSans-101"/>
      <use x="804.833984" xlink:href="#DejaVuSans-115"/>
      <use x="856.933594" xlink:href="#DejaVuSans-32"/>
      <use x="888.720703" xlink:href="#DejaVuSans-40"/>
      <use x="927.734375" xlink:href="#DejaVuSans-49"/>
      <use x="991.357422" xlink:href="#DejaVuSans-47"/>
      <use x="1025.048828" xlink:href="#DejaVuSans-101"/>
      <use x="1086.572266" xlink:href="#DejaVuSans-86"/>
      <use x="1154.980469" xlink:href="#DejaVuSans-41"/>
     </g>
    </g>
   </g>
   <g id="line2d_16">
    <path clip-path="url(#p63c30e96c0)" d="M 42.517868 176.120024 
L 43.308862 149.386815 
L 43.783458 139.536636 
L 44.099856 136.796825 
L 44.258055 136.72989 
L 44.416254 137.553994 
L 44.732651 141.777757 
L 45.207248 153.401053 
L 46.472838 188.615334 
L 46.789236 192.845436 
L 47.105634 194.553223 
L 47.263833 194.570783 
L 47.422031 194.126182 
L 47.738429 192.199631 
L 48.845821 183.571943 
L 49.162218 182.644374 
L 49.320417 182.586724 
L 49.478616 182.79855 
L 49.795014 183.972285 
L 50.26961 187.221324 
L 51.535201 198.976424 
L 52.326195 207.168926 
L 52.95899 216.610268 
L 53.591785 230.138674 
L 55.490171 274.619877 
L 55.964768 280.6972 
L 56.439364 284.434966 
L 56.913961 286.484326 
L 57.388557 287.488552 
L 57.863154 287.901475 
L 58.33775 287.938893 
L 58.654148 287.760002 
L 58.970545 287.363938 
L 59.286943 286.667475 
L 59.76154 284.830162 
L 60.236136 281.75075 
L 60.868931 275.568843 
L 62.292721 259.884047 
L 62.767317 257.409725 
L 63.083715 256.95283 
L 63.241914 257.052681 
L 63.558311 257.796621 
L 64.032908 259.844545 
L 65.456697 266.695758 
L 66.089492 268.649402 
L 66.722288 269.965898 
L 67.355083 270.838351 
L 67.987878 271.384313 
L 68.620674 271.616257 
L 69.09527 271.507386 
L 69.411668 271.226928 
L 69.728065 270.70468 
L 70.044463 269.854338 
L 70.51906 267.742372 
L 70.993656 264.323093 
L 71.468252 259.337696 
L 72.101048 250.089066 
L 72.733843 237.826072 
L 73.366638 221.858174 
L 73.999434 199.901265 
L 74.632229 168.677621 
L 75.423223 115.661246 
L 76.372416 50.69639 
L 76.847012 31.352959 
L 77.16341 26.896836 
L 77.321609 27.449698 
L 77.479808 29.84009 
L 77.796205 39.744762 
L 78.270802 64.650468 
L 79.536392 139.339273 
L 80.010989 153.416111 
L 80.327387 157.097026 
L 80.485585 157.49157 
L 80.643784 157.115617 
L 80.960182 154.73908 
L 81.751176 147.318345 
L 81.909375 146.717162 
L 82.067574 146.629486 
L 82.225772 147.099015 
L 82.54217 149.761846 
L 83.016767 157.700272 
L 83.807761 177.242129 
L 84.756954 200.140066 
L 85.547948 213.871993 
L 86.180743 221.53925 
L 86.655339 225.425913 
L 87.129936 227.559466 
L 87.446334 228.000787 
L 87.604532 227.954816 
L 87.92093 227.426334 
L 88.553725 225.380116 
L 89.186521 223.418572 
L 89.661117 222.501479 
L 90.452111 221.29012 
L 90.926708 220.010796 
L 91.559503 217.371505 
L 93.29969 208.803275 
L 93.774286 204.284671 
L 94.248883 196.443658 
L 94.723479 184.548887 
L 96.147269 143.33419 
L 96.463666 140.249187 
L 96.621865 140.296768 
L 96.780064 141.46009 
L 97.096462 147.0648 
L 97.571058 162.447274 
L 99.469444 235.474485 
L 99.944041 244.297215 
L 100.418637 249.437767 
L 100.893234 252.15003 
L 101.36783 253.478552 
L 101.842426 254.104184 
L 102.317023 254.393442 
L 102.949818 254.52524 
L 103.582614 254.467597 
L 104.215409 254.209532 
L 104.848204 253.657705 
L 105.322801 252.943261 
L 105.797397 251.855562 
L 106.430192 249.679084 
L 107.379385 245.183396 
L 108.012181 242.458817 
L 108.486777 241.292812 
L 108.803175 241.074338 
L 109.119572 241.281646 
L 109.594169 242.153674 
L 110.226964 243.464798 
L 110.543362 243.771989 
L 110.701561 243.771656 
L 111.017958 243.402781 
L 111.334356 242.51104 
L 111.808952 240.277599 
L 113.074543 233.366857 
L 113.390941 232.807989 
L 113.549139 232.847619 
L 113.707338 233.109872 
L 114.023736 234.278747 
L 114.498332 237.339233 
L 115.763923 246.680694 
L 116.238519 248.400302 
L 116.554917 248.72847 
L 116.713116 248.640604 
L 117.029513 247.94925 
L 117.345911 246.528951 
L 117.820508 242.788316 
L 118.295104 236.491495 
L 118.769701 226.603959 
L 119.244297 211.999246 
L 119.877092 184.442046 
L 121.142683 122.704395 
L 121.45908 114.770553 
L 121.617279 113.022292 
L 121.775478 112.889527 
L 121.933677 114.401815 
L 122.250075 122.16476 
L 122.724671 143.394636 
L 124.14846 215.765093 
L 124.623057 227.938593 
L 125.097653 234.367303 
L 126.521443 247.379036 
L 127.945232 265.325117 
L 128.26163 267.136566 
L 128.419829 267.545561 
L 128.578028 267.62214 
L 128.736226 267.379315 
L 129.052624 266.038894 
L 129.52722 262.499128 
L 130.476413 255.021199 
L 130.792811 253.718014 
L 131.109209 253.282549 
L 131.267408 253.37515 
L 131.583805 254.077632 
L 132.2166 256.653505 
L 132.849396 258.96663 
L 133.165793 259.497702 
L 133.323992 259.559302 
L 133.482191 259.480809 
L 133.798589 258.920525 
L 134.273185 257.243269 
L 135.696975 251.145887 
L 136.013372 250.635961 
L 136.171571 250.590153 
L 136.32977 250.693559 
L 136.646167 251.356176 
L 137.120764 253.420102 
L 137.753559 257.607945 
L 139.01915 266.262048 
L 139.651945 269.07875 
L 140.28474 270.82345 
L 140.917536 271.840476 
L 141.550331 272.425887 
L 142.183126 272.748522 
L 142.97412 272.892363 
L 143.765115 272.789049 
L 144.556109 272.432492 
L 145.188904 271.929152 
L 145.821699 271.15135 
L 146.296296 270.284023 
L 146.770892 269.014346 
L 147.245489 267.105465 
L 147.720085 264.237 
L 148.194682 260.063871 
L 148.827477 252.067336 
L 149.618471 238.479827 
L 150.884062 215.762961 
L 151.358658 210.729071 
L 151.675056 209.498931 
L 151.833254 209.634696 
L 151.991453 210.299027 
L 152.307851 213.216919 
L 152.782447 221.169595 
L 154.680833 259.645653 
L 155.15543 263.544825 
L 156.579219 271.959324 
L 157.212014 278.773041 
L 158.319406 290.973717 
L 158.794003 294.305666 
L 159.268599 296.09322 
L 159.584997 296.449839 
L 159.743196 296.388224 
L 160.059593 295.803378 
L 160.375991 294.632792 
L 160.850587 291.913191 
L 162.590774 280.203542 
L 162.907172 279.430353 
L 163.065371 279.286459 
L 163.22357 279.29504 
L 163.539967 279.714776 
L 164.014564 281.075751 
L 165.754751 286.963736 
L 166.545745 288.542396 
L 167.336739 289.595674 
L 168.285932 290.464432 
L 169.393324 291.157355 
L 170.658914 291.675349 
L 172.082704 292.005166 
L 173.506493 292.114332 
L 174.930283 292.012439 
L 176.195873 291.72485 
L 177.461464 291.200411 
L 178.410657 290.586575 
L 179.201651 289.85016 
L 179.992645 288.772965 
L 180.62544 287.517403 
L 181.258236 285.794079 
L 182.840224 280.949608 
L 183.156621 280.575651 
L 183.473019 280.588109 
L 183.789417 280.948116 
L 184.580411 282.123117 
L 184.73861 282.097873 
L 184.896808 281.881945 
L 185.213206 280.721 
L 185.529604 278.408753 
L 186.0042 272.74054 
L 187.42799 252.234254 
L 187.744387 250.463322 
L 187.902586 250.208661 
L 188.060785 250.362292 
L 188.377183 251.759963 
L 188.851779 255.770749 
L 189.800972 264.320308 
L 190.11737 265.814024 
L 190.433767 266.290539 
L 190.591966 266.144159 
L 190.908364 265.14484 
L 191.38296 262.268671 
L 192.490352 254.477125 
L 192.80675 253.299861 
L 193.123147 252.879703 
L 193.281346 252.948291 
L 193.597744 253.57409 
L 194.07234 255.399275 
L 195.337931 261.021552 
L 195.812527 262.258207 
L 196.128925 262.681215 
L 196.445323 262.752223 
L 196.76172 262.438425 
L 197.078118 261.701604 
L 197.552714 259.737171 
L 198.18551 255.599474 
L 199.292901 247.426039 
L 199.609299 246.095007 
L 199.925697 245.630158 
L 200.083895 245.751636 
L 200.400293 246.686802 
L 200.87489 249.538537 
L 202.773275 263.332069 
L 203.247872 265.006812 
L 203.722468 265.964455 
L 204.197065 266.370967 
L 204.513463 266.391812 
L 204.82986 266.227669 
L 205.304457 265.614321 
L 205.779053 264.466127 
L 206.25365 262.604672 
L 206.728246 259.811997 
L 207.361041 254.371859 
L 208.152035 245.162547 
L 209.259427 232.491301 
L 209.734024 229.468588 
L 210.050421 228.774794 
L 210.20862 228.859417 
L 210.525018 229.886271 
L 210.841415 231.96959 
L 211.474211 238.454986 
L 212.739801 252.59123 
L 213.214398 256.00711 
L 213.688994 258.025692 
L 214.005392 258.656462 
L 214.32179 258.794462 
L 214.638187 258.526787 
L 215.112784 257.607206 
L 215.903778 255.956876 
L 216.220175 255.776677 
L 216.378374 255.871537 
L 216.694772 256.492044 
L 217.01117 257.702973 
L 217.485766 260.457284 
L 219.542351 273.857877 
L 220.333345 279.085624 
L 222.073532 291.831505 
L 222.706327 294.418157 
L 223.180924 295.505015 
L 223.65552 296.095713 
L 224.288315 296.457175 
L 225.237508 296.651793 
L 227.610491 296.823423 
L 231.407262 296.878762 
L 235.362233 296.718044 
L 236.311426 296.543755 
L 236.786022 296.257335 
L 237.10242 295.860588 
L 237.418818 295.161417 
L 237.735215 293.983338 
L 238.051613 292.098573 
L 238.526209 287.377393 
L 239.000806 279.703059 
L 239.633601 264.592105 
L 241.215589 222.464339 
L 241.690186 215.82535 
L 242.164782 212.413476 
L 242.797578 210.131834 
L 243.272174 208.071196 
L 243.904969 203.715823 
L 245.17056 194.134742 
L 245.803355 189.515582 
L 246.277952 184.295677 
L 246.910747 173.706921 
L 247.85994 156.332464 
L 248.176338 153.345414 
L 248.334536 152.81358 
L 248.492735 152.995205 
L 248.650934 153.911574 
L 248.967332 157.893767 
L 249.441928 168.369427 
L 251.182115 213.312548 
L 251.656712 219.84262 
L 252.131308 223.711627 
L 252.447706 225.071061 
L 252.764103 225.544013 
L 252.922302 225.439204 
L 253.080501 225.087103 
L 253.396899 223.537273 
L 253.713296 220.624045 
L 254.187893 212.952646 
L 254.662489 200.402652 
L 255.295285 175.809403 
L 256.719074 114.3869 
L 257.035472 107.273174 
L 257.351869 104.225895 
L 257.510068 104.202514 
L 257.668267 105.091653 
L 257.984665 109.151214 
L 259.566653 136.227812 
L 259.883051 137.296129 
L 260.041249 137.273782 
L 260.357647 136.584669 
L 260.832243 135.565832 
L 260.990442 135.62965 
L 261.148641 136.020913 
L 261.465039 137.944414 
L 261.939635 143.711064 
L 262.730629 158.309183 
L 263.838021 178.434985 
L 264.629015 188.688207 
L 265.26181 194.396187 
L 265.894606 198.316552 
L 266.6856 201.641601 
L 267.476594 204.015357 
L 268.742185 207.324016 
L 269.216781 209.444858 
L 269.849576 213.568669 
L 271.431565 224.709177 
L 272.538956 231.342506 
L 273.32995 238.073267 
L 274.911939 252.534678 
L 275.544734 256.401494 
L 276.177529 258.934364 
L 276.652126 260.016688 
L 276.968523 260.317359 
L 277.284921 260.21556 
L 277.601319 259.624459 
L 277.917716 258.443403 
L 278.392313 255.376358 
L 278.866909 250.690467 
L 280.607096 230.792543 
L 280.923494 229.596736 
L 281.081693 229.454341 
L 281.239892 229.594797 
L 281.556289 230.584131 
L 282.663681 235.539115 
L 282.82188 235.643255 
L 282.980079 235.466769 
L 283.296476 234.226115 
L 283.771073 230.324595 
L 285.353061 213.698954 
L 285.669459 212.242121 
L 285.985856 211.68282 
L 286.144055 211.706203 
L 286.460453 212.255153 
L 286.935049 213.972329 
L 288.358839 219.940063 
L 288.675236 220.508065 
L 288.991634 220.616508 
L 289.308032 220.299884 
L 290.257224 218.754555 
L 290.415423 218.844891 
L 290.573622 219.16659 
L 290.89002 220.682102 
L 291.206417 223.574687 
L 291.681014 230.642052 
L 292.472008 247.658036 
L 293.421201 267.852732 
L 294.053996 276.905344 
L 294.528593 281.15737 
L 295.003189 283.779112 
L 295.477786 285.34084 
L 295.952382 286.29219 
L 296.585177 287.089552 
L 297.53437 287.895759 
L 300.065552 289.731242 
L 300.381949 289.674671 
L 300.698347 289.373277 
L 301.014744 288.735959 
L 301.331142 287.668216 
L 301.805739 285.070921 
L 302.280335 281.099881 
L 302.91313 273.649947 
L 305.127914 243.553318 
L 305.60251 240.500512 
L 305.918908 239.567747 
L 306.077107 239.454558 
L 306.235306 239.59169 
L 306.551703 240.675948 
L 306.868101 242.94855 
L 307.342697 248.792026 
L 307.975493 260.811496 
L 309.557481 294.099902 
L 310.032077 299.974258 
L 310.506674 303.569818 
L 310.98127 305.497471 
L 311.455867 306.40787 
L 311.930463 306.790194 
L 312.563259 306.958915 
L 313.987048 307.001324 
L 315.410837 306.884234 
L 316.043633 306.641176 
L 316.518229 306.209645 
L 316.992826 305.362485 
L 317.467422 303.857328 
L 317.942019 301.476813 
L 318.574814 296.908471 
L 319.682206 288.249732 
L 319.998603 286.846488 
L 320.315001 286.334733 
L 320.4732 286.43979 
L 320.789597 287.348643 
L 321.264194 290.146792 
L 323.004381 302.426425 
L 323.637176 304.825888 
L 324.586369 307.345034 
L 325.535562 309.339113 
L 326.168357 310.246363 
L 326.801153 310.769043 
L 327.433948 311.008493 
L 328.54134 311.117435 
L 333.761901 311.128 
L 333.761901 311.128 
" style="fill:none;stroke:#ff0000;stroke-linecap:square;stroke-width:2;"/>
   </g>
   <g id="patch_3">
    <path d="M 42.59 311.128 
L 42.59 12.685278 
" style="fill:none;stroke:#000000;stroke-linecap:square;stroke-linejoin:miter;stroke-width:0.8;"/>
   </g>
   <g id="patch_4">
    <path d="M 346.005 311.128 
L 346.005 12.685278 
" style="fill:none;stroke:#000000;stroke-linecap:square;stroke-linejoin:miter;stroke-width:0.8;"/>
   </g>
   <g id="patch_5">
    <path d="M 42.59 311.128 
L 346.005 311.128 
" style="fill:none;stroke:#000000;stroke-linecap:square;stroke-linejoin:miter;stroke-width:0.8;"/>
   </g>
   <g id="patch_6">
    <path d="M 42.59 12.685278 
L 346.005 12.685278 
" style="fill:none;stroke:#000000;stroke-linecap:square;stroke-linejoin:miter;stroke-width:0.8;"/>
   </g>
  </g>
 </g>
 <defs>
  <clipPath id="p63c30e96c0">
   <rect height="298.442722" width="303.415" x="42.59" y="12.685278"/>
  </clipPath>
 </defs>
</svg>
