<?xml version="1.0" encoding="utf-8" standalone="no"?>
<!DOCTYPE svg PUBLIC "-//W3C//DTD SVG 1.1//EN"
  "http://www.w3.org/Graphics/SVG/1.1/DTD/svg11.dtd">
<!-- Created with matplotlib (https://matplotlib.org/) -->
<svg height="360pt" version="1.1" viewBox="0 0 576 360" width="576pt" xmlns="http://www.w3.org/2000/svg" xmlns:xlink="http://www.w3.org/1999/xlink">
 <metadata>
  <rdf:RDF xmlns:cc="http://creativecommons.org/ns#" xmlns:dc="http://purl.org/dc/elements/1.1/" xmlns:rdf="http://www.w3.org/1999/02/22-rdf-syntax-ns#">
   <cc:Work>
    <dc:type rdf:resource="http://purl.org/dc/dcmitype/StillImage"/>
    <dc:date>2021-01-10T22:16:00.171215</dc:date>
    <dc:format>image/svg+xml</dc:format>
    <dc:creator>
     <cc:Agent>
      <dc:title>Matplotlib v3.3.3, https://matplotlib.org/</dc:title>
     </cc:Agent>
    </dc:creator>
   </cc:Work>
  </rdf:RDF>
 </metadata>
 <defs>
  <style type="text/css">*{stroke-linecap:butt;stroke-linejoin:round;}</style>
 </defs>
 <g id="figure_1">
  <g id="patch_1">
   <path d="M 0 360 
L 576 360 
L 576 0 
L 0 0 
z
" style="fill:#ffffff;"/>
  </g>
  <g id="axes_1">
   <g id="patch_2">
    <path d="M 60.932 326.72 
L 561.06 326.72 
L 561.06 31.92 
L 60.932 31.92 
z
" style="fill:#ffffff;"/>
   </g>
   <g id="matplotlib.axis_1">
    <g id="xtick_1">
     <g id="line2d_1">
      <defs>
       <path d="M 0 0 
L 0 3.5 
" id="m066a4ec8d8" style="stroke:#000000;stroke-width:0.8;"/>
      </defs>
      <g>
       <use style="stroke:#000000;stroke-width:0.8;" x="60.932" xlink:href="#m066a4ec8d8" y="326.72"/>
      </g>
     </g>
     <g id="text_1">
      <!-- Γ -->
      <g transform="translate(56.753094 345.117656)scale(0.15 -0.15)">
       <defs>
        <path d="M 9.8125 0 
L 9.8125 72.90625 
L 55.171875 72.90625 
L 55.171875 64.59375 
L 19.671875 64.59375 
L 19.671875 0 
z
" id="DejaVuSans-915"/>
       </defs>
       <use xlink:href="#DejaVuSans-915"/>
      </g>
     </g>
    </g>
    <g id="xtick_2">
     <g id="line2d_2">
      <g>
       <use style="stroke:#000000;stroke-width:0.8;" x="140.476667" xlink:href="#m066a4ec8d8" y="326.72"/>
      </g>
     </g>
     <g id="text_2">
      <!-- K -->
      <g transform="translate(135.558308 345.117656)scale(0.15 -0.15)">
       <defs>
        <path d="M 9.8125 72.90625 
L 19.671875 72.90625 
L 19.671875 42.09375 
L 52.390625 72.90625 
L 65.09375 72.90625 
L 28.90625 38.921875 
L 67.671875 0 
L 54.6875 0 
L 19.671875 35.109375 
L 19.671875 0 
L 9.8125 0 
z
" id="DejaVuSans-75"/>
       </defs>
       <use xlink:href="#DejaVuSans-75"/>
      </g>
     </g>
    </g>
    <g id="xtick_3">
     <g id="line2d_3">
      <g>
       <use style="stroke:#000000;stroke-width:0.8;" x="180.249001" xlink:href="#m066a4ec8d8" y="326.72"/>
      </g>
     </g>
     <g id="text_3">
      <!-- M -->
      <g transform="translate(173.777907 345.117656)scale(0.15 -0.15)">
       <defs>
        <path d="M 9.8125 72.90625 
L 24.515625 72.90625 
L 43.109375 23.296875 
L 61.8125 72.90625 
L 76.515625 72.90625 
L 76.515625 0 
L 66.890625 0 
L 66.890625 64.015625 
L 48.09375 14.015625 
L 38.1875 14.015625 
L 19.390625 64.015625 
L 19.390625 0 
L 9.8125 0 
z
" id="DejaVuSans-77"/>
       </defs>
       <use xlink:href="#DejaVuSans-77"/>
      </g>
     </g>
    </g>
    <g id="xtick_4">
     <g id="line2d_4">
      <g>
       <use style="stroke:#000000;stroke-width:0.8;" x="249.136704" xlink:href="#m066a4ec8d8" y="326.72"/>
      </g>
     </g>
     <g id="text_4">
      <!-- Γ -->
      <g transform="translate(244.957797 345.117656)scale(0.15 -0.15)">
       <use xlink:href="#DejaVuSans-915"/>
      </g>
     </g>
    </g>
    <g id="xtick_5">
     <g id="line2d_5">
      <g>
       <use style="stroke:#000000;stroke-width:0.8;" x="290.376235" xlink:href="#m066a4ec8d8" y="326.72"/>
      </g>
     </g>
     <g id="text_5">
      <!-- A -->
      <g transform="translate(285.245766 345.117656)scale(0.15 -0.15)">
       <defs>
        <path d="M 34.1875 63.1875 
L 20.796875 26.90625 
L 47.609375 26.90625 
z
M 28.609375 72.90625 
L 39.796875 72.90625 
L 67.578125 0 
L 57.328125 0 
L 50.6875 18.703125 
L 17.828125 18.703125 
L 11.1875 0 
L 0.78125 0 
z
" id="DejaVuSans-65"/>
       </defs>
       <use xlink:href="#DejaVuSans-65"/>
      </g>
     </g>
    </g>
    <g id="xtick_6">
     <g id="line2d_6">
      <g>
       <use style="stroke:#000000;stroke-width:0.8;" x="369.920902" xlink:href="#m066a4ec8d8" y="326.72"/>
      </g>
     </g>
     <g id="text_6">
      <!-- H -->
      <g transform="translate(364.280668 345.117656)scale(0.15 -0.15)">
       <defs>
        <path d="M 9.8125 72.90625 
L 19.671875 72.90625 
L 19.671875 43.015625 
L 55.515625 43.015625 
L 55.515625 72.90625 
L 65.375 72.90625 
L 65.375 0 
L 55.515625 0 
L 55.515625 34.71875 
L 19.671875 34.71875 
L 19.671875 0 
L 9.8125 0 
z
" id="DejaVuSans-72"/>
       </defs>
       <use xlink:href="#DejaVuSans-72"/>
      </g>
     </g>
    </g>
    <g id="xtick_7">
     <g id="line2d_7">
      <g>
       <use style="stroke:#000000;stroke-width:0.8;" x="409.693236" xlink:href="#m066a4ec8d8" y="326.72"/>
      </g>
     </g>
     <g id="text_7">
      <!-- L -->
      <g transform="translate(405.514329 345.117656)scale(0.15 -0.15)">
       <defs>
        <path d="M 9.8125 72.90625 
L 19.671875 72.90625 
L 19.671875 8.296875 
L 55.171875 8.296875 
L 55.171875 0 
L 9.8125 0 
z
" id="DejaVuSans-76"/>
       </defs>
       <use xlink:href="#DejaVuSans-76"/>
      </g>
     </g>
    </g>
    <g id="xtick_8">
     <g id="line2d_8">
      <g>
       <use style="stroke:#000000;stroke-width:0.8;" x="478.580938" xlink:href="#m066a4ec8d8" y="326.72"/>
      </g>
     </g>
     <g id="text_8">
      <!-- A|K -->
      <g transform="translate(466.005548 345.183281)scale(0.15 -0.15)">
       <defs>
        <path d="M 21 76.421875 
L 21 -23.578125 
L 12.703125 -23.578125 
L 12.703125 76.421875 
z
" id="DejaVuSans-124"/>
       </defs>
       <use xlink:href="#DejaVuSans-65"/>
       <use x="68.408203" xlink:href="#DejaVuSans-124"/>
       <use x="102.099609" xlink:href="#DejaVuSans-75"/>
      </g>
     </g>
    </g>
    <g id="xtick_9">
     <g id="line2d_9">
      <g>
       <use style="stroke:#000000;stroke-width:0.8;" x="478.580938" xlink:href="#m066a4ec8d8" y="326.72"/>
      </g>
     </g>
     <g id="text_9">
      <!-- A|K -->
      <g transform="translate(466.005548 345.183281)scale(0.15 -0.15)">
       <use xlink:href="#DejaVuSans-65"/>
       <use x="68.408203" xlink:href="#DejaVuSans-124"/>
       <use x="102.099609" xlink:href="#DejaVuSans-75"/>
      </g>
     </g>
    </g>
    <g id="xtick_10">
     <g id="line2d_10">
      <g>
       <use style="stroke:#000000;stroke-width:0.8;" x="519.820469" xlink:href="#m066a4ec8d8" y="326.72"/>
      </g>
     </g>
     <g id="text_10">
      <!-- H|M -->
      <g transform="translate(505.182578 345.183281)scale(0.15 -0.15)">
       <use xlink:href="#DejaVuSans-72"/>
       <use x="75.195312" xlink:href="#DejaVuSans-124"/>
       <use x="108.886719" xlink:href="#DejaVuSans-77"/>
      </g>
     </g>
    </g>
    <g id="xtick_11">
     <g id="line2d_11">
      <g>
       <use style="stroke:#000000;stroke-width:0.8;" x="519.820469" xlink:href="#m066a4ec8d8" y="326.72"/>
      </g>
     </g>
     <g id="text_11">
      <!-- H|M -->
      <g transform="translate(505.182578 345.183281)scale(0.15 -0.15)">
       <use xlink:href="#DejaVuSans-72"/>
       <use x="75.195312" xlink:href="#DejaVuSans-124"/>
       <use x="108.886719" xlink:href="#DejaVuSans-77"/>
      </g>
     </g>
    </g>
    <g id="xtick_12">
     <g id="line2d_12">
      <g>
       <use style="stroke:#000000;stroke-width:0.8;" x="561.06" xlink:href="#m066a4ec8d8" y="326.72"/>
      </g>
     </g>
     <g id="text_12">
      <!-- L -->
      <g transform="translate(556.881094 345.117656)scale(0.15 -0.15)">
       <use xlink:href="#DejaVuSans-76"/>
      </g>
     </g>
    </g>
   </g>
   <g id="matplotlib.axis_2">
    <g id="ytick_1">
     <g id="line2d_13">
      <defs>
       <path d="M 0 0 
L -3.5 0 
" id="md1ea5958a1" style="stroke:#000000;stroke-width:0.8;"/>
      </defs>
      <g>
       <use style="stroke:#000000;stroke-width:0.8;" x="60.932" xlink:href="#md1ea5958a1" y="297.24"/>
      </g>
     </g>
     <g id="text_13">
      <!-- −4 -->
      <g transform="translate(31.818719 302.938828)scale(0.15 -0.15)">
       <defs>
        <path d="M 10.59375 35.5 
L 73.1875 35.5 
L 73.1875 27.203125 
L 10.59375 27.203125 
z
" id="DejaVuSans-8722"/>
        <path d="M 37.796875 64.3125 
L 12.890625 25.390625 
L 37.796875 25.390625 
z
M 35.203125 72.90625 
L 47.609375 72.90625 
L 47.609375 25.390625 
L 58.015625 25.390625 
L 58.015625 17.1875 
L 47.609375 17.1875 
L 47.609375 0 
L 37.796875 0 
L 37.796875 17.1875 
L 4.890625 17.1875 
L 4.890625 26.703125 
z
" id="DejaVuSans-52"/>
       </defs>
       <use xlink:href="#DejaVuSans-8722"/>
       <use x="83.789062" xlink:href="#DejaVuSans-52"/>
      </g>
     </g>
    </g>
    <g id="ytick_2">
     <g id="line2d_14">
      <g>
       <use style="stroke:#000000;stroke-width:0.8;" x="60.932" xlink:href="#md1ea5958a1" y="238.28"/>
      </g>
     </g>
     <g id="text_14">
      <!-- −2 -->
      <g transform="translate(31.818719 243.978828)scale(0.15 -0.15)">
       <defs>
        <path d="M 19.1875 8.296875 
L 53.609375 8.296875 
L 53.609375 0 
L 7.328125 0 
L 7.328125 8.296875 
Q 12.9375 14.109375 22.625 23.890625 
Q 32.328125 33.6875 34.8125 36.53125 
Q 39.546875 41.84375 41.421875 45.53125 
Q 43.3125 49.21875 43.3125 52.78125 
Q 43.3125 58.59375 39.234375 62.25 
Q 35.15625 65.921875 28.609375 65.921875 
Q 23.96875 65.921875 18.8125 64.3125 
Q 13.671875 62.703125 7.8125 59.421875 
L 7.8125 69.390625 
Q 13.765625 71.78125 18.9375 73 
Q 24.125 74.21875 28.421875 74.21875 
Q 39.75 74.21875 46.484375 68.546875 
Q 53.21875 62.890625 53.21875 53.421875 
Q 53.21875 48.921875 51.53125 44.890625 
Q 49.859375 40.875 45.40625 35.40625 
Q 44.1875 33.984375 37.640625 27.21875 
Q 31.109375 20.453125 19.1875 8.296875 
z
" id="DejaVuSans-50"/>
       </defs>
       <use xlink:href="#DejaVuSans-8722"/>
       <use x="83.789062" xlink:href="#DejaVuSans-50"/>
      </g>
     </g>
    </g>
    <g id="ytick_3">
     <g id="line2d_15">
      <g>
       <use style="stroke:#000000;stroke-width:0.8;" x="60.932" xlink:href="#md1ea5958a1" y="179.32"/>
      </g>
     </g>
     <g id="text_15">
      <!-- 0 -->
      <g transform="translate(44.38825 185.018828)scale(0.15 -0.15)">
       <defs>
        <path d="M 31.78125 66.40625 
Q 24.171875 66.40625 20.328125 58.90625 
Q 16.5 51.421875 16.5 36.375 
Q 16.5 21.390625 20.328125 13.890625 
Q 24.171875 6.390625 31.78125 6.390625 
Q 39.453125 6.390625 43.28125 13.890625 
Q 47.125 21.390625 47.125 36.375 
Q 47.125 51.421875 43.28125 58.90625 
Q 39.453125 66.40625 31.78125 66.40625 
z
M 31.78125 74.21875 
Q 44.046875 74.21875 50.515625 64.515625 
Q 56.984375 54.828125 56.984375 36.375 
Q 56.984375 17.96875 50.515625 8.265625 
Q 44.046875 -1.421875 31.78125 -1.421875 
Q 19.53125 -1.421875 13.0625 8.265625 
Q 6.59375 17.96875 6.59375 36.375 
Q 6.59375 54.828125 13.0625 64.515625 
Q 19.53125 74.21875 31.78125 74.21875 
z
" id="DejaVuSans-48"/>
       </defs>
       <use xlink:href="#DejaVuSans-48"/>
      </g>
     </g>
    </g>
    <g id="ytick_4">
     <g id="line2d_16">
      <g>
       <use style="stroke:#000000;stroke-width:0.8;" x="60.932" xlink:href="#md1ea5958a1" y="120.36"/>
      </g>
     </g>
     <g id="text_16">
      <!-- 2 -->
      <g transform="translate(44.38825 126.058828)scale(0.15 -0.15)">
       <use xlink:href="#DejaVuSans-50"/>
      </g>
     </g>
    </g>
    <g id="ytick_5">
     <g id="line2d_17">
      <g>
       <use style="stroke:#000000;stroke-width:0.8;" x="60.932" xlink:href="#md1ea5958a1" y="61.4"/>
      </g>
     </g>
     <g id="text_17">
      <!-- 4 -->
      <g transform="translate(44.38825 67.098828)scale(0.15 -0.15)">
       <use xlink:href="#DejaVuSans-52"/>
      </g>
     </g>
    </g>
    <g id="text_18">
     <!-- $\varepsilon_n(k) - \varepsilon_{\mathrm{F}}$ (eV) -->
     <g transform="translate(24.699188 231.595)rotate(-90)scale(0.15 -0.15)">
      <defs>
       <path d="M 19.734375 29.5 
Q 14.453125 30.671875 12.15625 33.84375 
Q 10.453125 36.078125 10.453125 39.109375 
Q 10.453125 47.40625 18.359375 52.25 
Q 24.609375 56.0625 34.1875 56.0625 
Q 37.890625 56.0625 41.9375 55.46875 
Q 46 54.890625 50.53125 53.71875 
L 48.96875 45.5625 
Q 44.484375 46.96875 40.71875 47.609375 
Q 36.859375 48.25 33.40625 48.25 
Q 27.59375 48.25 23.78125 46 
Q 19.1875 43.3125 19.1875 39.40625 
Q 19.1875 36.8125 21.578125 35.015625 
Q 24.421875 32.859375 30.078125 32.859375 
L 37.640625 32.859375 
L 36.234375 25.4375 
L 29 25.4375 
Q 22.265625 25.4375 18.3125 22.953125 
Q 12.9375 19.578125 12.9375 14.3125 
Q 12.9375 10.984375 15.828125 8.796875 
Q 19.4375 6.0625 26.8125 6.0625 
Q 31.34375 6.0625 35.6875 6.9375 
Q 40.046875 7.859375 43.84375 9.671875 
L 42.1875 1.3125 
Q 37.546875 -0.046875 33.296875 -0.734375 
Q 29.046875 -1.421875 25.140625 -1.421875 
Q 13.53125 -1.421875 8.0625 3.03125 
Q 3.90625 6.453125 3.90625 12.203125 
Q 3.90625 19.96875 9.375 24.75 
Q 13.421875 28.328125 19.734375 29.5 
z
" id="DejaVuSans-Oblique-949"/>
       <path d="M 55.71875 33.015625 
L 49.3125 0 
L 40.28125 0 
L 46.6875 32.671875 
Q 47.125 34.96875 47.359375 36.71875 
Q 47.609375 38.484375 47.609375 39.5 
Q 47.609375 43.609375 45.015625 45.890625 
Q 42.4375 48.1875 37.796875 48.1875 
Q 30.5625 48.1875 25.34375 43.375 
Q 20.125 38.578125 18.5 30.328125 
L 12.5 0 
L 3.515625 0 
L 14.109375 54.6875 
L 23.09375 54.6875 
L 21.296875 46.09375 
Q 25.046875 50.828125 30.3125 53.40625 
Q 35.59375 56 41.40625 56 
Q 48.640625 56 52.609375 52.09375 
Q 56.59375 48.1875 56.59375 41.109375 
Q 56.59375 39.359375 56.375 37.359375 
Q 56.15625 35.359375 55.71875 33.015625 
z
" id="DejaVuSans-Oblique-110"/>
       <path d="M 31 75.875 
Q 24.46875 64.65625 21.28125 53.65625 
Q 18.109375 42.671875 18.109375 31.390625 
Q 18.109375 20.125 21.3125 9.0625 
Q 24.515625 -2 31 -13.1875 
L 23.1875 -13.1875 
Q 15.875 -1.703125 12.234375 9.375 
Q 8.59375 20.453125 8.59375 31.390625 
Q 8.59375 42.28125 12.203125 53.3125 
Q 15.828125 64.359375 23.1875 75.875 
z
" id="DejaVuSans-40"/>
       <path d="M 18.3125 75.984375 
L 27.296875 75.984375 
L 18.703125 31.6875 
L 49.515625 54.6875 
L 61.1875 54.6875 
L 26.8125 28.515625 
L 51.90625 0 
L 41.015625 0 
L 17.671875 26.703125 
L 12.5 0 
L 3.515625 0 
z
" id="DejaVuSans-Oblique-107"/>
       <path d="M 8.015625 75.875 
L 15.828125 75.875 
Q 23.140625 64.359375 26.78125 53.3125 
Q 30.421875 42.28125 30.421875 31.390625 
Q 30.421875 20.453125 26.78125 9.375 
Q 23.140625 -1.703125 15.828125 -13.1875 
L 8.015625 -13.1875 
Q 14.5 -2 17.703125 9.0625 
Q 20.90625 20.125 20.90625 31.390625 
Q 20.90625 42.671875 17.703125 53.65625 
Q 14.5 64.65625 8.015625 75.875 
z
" id="DejaVuSans-41"/>
       <path d="M 9.8125 72.90625 
L 51.703125 72.90625 
L 51.703125 64.59375 
L 19.671875 64.59375 
L 19.671875 43.109375 
L 48.578125 43.109375 
L 48.578125 34.8125 
L 19.671875 34.8125 
L 19.671875 0 
L 9.8125 0 
z
" id="DejaVuSans-70"/>
       <path id="DejaVuSans-32"/>
       <path d="M 56.203125 29.59375 
L 56.203125 25.203125 
L 14.890625 25.203125 
Q 15.484375 15.921875 20.484375 11.0625 
Q 25.484375 6.203125 34.421875 6.203125 
Q 39.59375 6.203125 44.453125 7.46875 
Q 49.3125 8.734375 54.109375 11.28125 
L 54.109375 2.78125 
Q 49.265625 0.734375 44.1875 -0.34375 
Q 39.109375 -1.421875 33.890625 -1.421875 
Q 20.796875 -1.421875 13.15625 6.1875 
Q 5.515625 13.8125 5.515625 26.8125 
Q 5.515625 40.234375 12.765625 48.109375 
Q 20.015625 56 32.328125 56 
Q 43.359375 56 49.78125 48.890625 
Q 56.203125 41.796875 56.203125 29.59375 
z
M 47.21875 32.234375 
Q 47.125 39.59375 43.09375 43.984375 
Q 39.0625 48.390625 32.421875 48.390625 
Q 24.90625 48.390625 20.390625 44.140625 
Q 15.875 39.890625 15.1875 32.171875 
z
" id="DejaVuSans-101"/>
       <path d="M 28.609375 0 
L 0.78125 72.90625 
L 11.078125 72.90625 
L 34.1875 11.53125 
L 57.328125 72.90625 
L 67.578125 72.90625 
L 39.796875 0 
z
" id="DejaVuSans-86"/>
      </defs>
      <use transform="translate(0 0.015625)" xlink:href="#DejaVuSans-Oblique-949"/>
      <use transform="translate(54.052734 -16.390625)scale(0.7)" xlink:href="#DejaVuSans-Oblique-110"/>
      <use transform="translate(101.152344 0.015625)" xlink:href="#DejaVuSans-40"/>
      <use transform="translate(140.166016 0.015625)" xlink:href="#DejaVuSans-Oblique-107"/>
      <use transform="translate(198.076172 0.015625)" xlink:href="#DejaVuSans-41"/>
      <use transform="translate(256.572266 0.015625)" xlink:href="#DejaVuSans-8722"/>
      <use transform="translate(359.84375 0.015625)" xlink:href="#DejaVuSans-Oblique-949"/>
      <use transform="translate(413.896484 -16.390625)scale(0.7)" xlink:href="#DejaVuSans-70"/>
      <use transform="translate(456.894531 0.015625)" xlink:href="#DejaVuSans-32"/>
      <use transform="translate(488.681641 0.015625)" xlink:href="#DejaVuSans-40"/>
      <use transform="translate(527.695312 0.015625)" xlink:href="#DejaVuSans-101"/>
      <use transform="translate(589.21875 0.015625)" xlink:href="#DejaVuSans-86"/>
      <use transform="translate(657.626953 0.015625)" xlink:href="#DejaVuSans-41"/>
     </g>
    </g>
   </g>
   <g id="line2d_18">
    <path clip-path="url(#pd822d42111)" d="M 0 0 
" style="fill:none;stroke:#ff0000;stroke-linecap:square;stroke-width:2;"/>
   </g>
   <g id="line2d_19">
    <path clip-path="url(#pd822d42111)" d="M 0 0 
" style="fill:none;stroke:#ff0000;stroke-linecap:square;stroke-width:2;"/>
   </g>
   <g id="line2d_20">
    <path clip-path="url(#pd822d42111)" d="M 60.932 337.765597 
L 61.77822 337.858485 
L 62.62444 338.187404 
L 63.47066 338.736837 
L 64.316879 339.501956 
L 65.163099 340.478279 
L 66.009319 341.660396 
L 67.701759 344.615881 
L 69.394199 348.308723 
L 71.086638 352.671253 
L 72.779078 357.630655 
L 73.833244 361 
M 236.439427 361 
L 237.375389 357.874568 
L 239.055576 352.757581 
L 240.735764 348.307071 
L 242.415952 344.57831 
L 244.09614 341.620606 
L 244.936234 340.444325 
L 245.776328 339.475794 
L 246.616422 338.718562 
L 247.456516 338.175615 
L 248.29661 337.849469 
L 249.978327 337.764743 
L 260.077804 337.629403 
L 290.376235 336.931171 
L 291.213547 337.018985 
L 292.050859 337.33311 
L 292.888171 337.8583 
L 293.725484 338.589877 
L 294.562796 339.523751 
L 295.400108 340.65491 
L 297.074733 343.485287 
L 298.749357 347.025679 
L 300.423982 351.212973 
L 302.098607 355.97953 
L 303.693668 361 
M 465.484143 361 
L 467.099654 355.709417 
L 468.739838 350.916719 
L 470.380021 346.756009 
L 472.020205 343.275263 
L 473.660388 340.517853 
L 474.48048 339.42216 
L 475.300571 338.520276 
L 476.120663 337.815518 
L 476.940755 337.31032 
L 477.760847 337.006828 
L 478.580938 336.931171 
L 478.580938 361 
L 478.580938 361 
" style="fill:none;stroke:#ff0000;stroke-linecap:square;stroke-width:2;"/>
   </g>
   <g id="line2d_21">
    <path clip-path="url(#pd822d42111)" d="M 60.932 337.739163 
L 62.62444 337.982264 
L 64.316879 338.65086 
L 66.009319 339.760527 
L 67.701759 341.305179 
L 69.394199 343.276102 
L 71.086638 345.662054 
L 72.779078 348.449259 
L 74.471518 351.62162 
L 76.163958 355.161005 
L 78.656297 361 
M 114.455817 361 
L 119.321171 341.394802 
L 134.553128 279.063459 
L 137.938008 266.697132 
L 140.476667 258.254397 
L 143.861547 268.537732 
L 147.246426 277.971009 
L 149.785086 284.473031 
L 152.323745 290.476343 
L 154.862405 295.975214 
L 157.401065 300.964464 
L 159.939724 305.439615 
L 162.478384 309.396804 
L 165.017043 312.832736 
L 166.709483 314.832353 
L 168.401923 316.598337 
L 170.094363 318.130071 
L 171.786802 319.42703 
L 173.479242 320.488765 
L 175.171682 321.314933 
L 176.864122 321.905244 
L 178.556561 322.259514 
L 181.089095 322.567413 
L 181.929189 323.131386 
L 182.769283 324.053962 
L 183.609377 325.311202 
L 184.449471 326.873285 
L 186.129659 330.778835 
L 187.809846 335.505187 
L 190.330128 343.629688 
L 193.690504 355.512669 
L 195.193873 361 
M 230.191291 361 
L 233.174919 355.084098 
L 235.695201 350.509768 
L 238.215483 346.454095 
L 239.89567 344.102126 
L 241.575858 342.074673 
L 243.256046 340.405896 
L 244.936234 339.125625 
L 246.616422 338.258066 
L 248.29661 337.819301 
L 249.978327 337.738309 
L 260.077804 337.602936 
L 290.376235 336.904534 
L 292.050859 337.138519 
L 293.725484 337.779014 
L 295.400108 338.842084 
L 297.074733 340.322014 
L 298.749357 342.211085 
L 300.423982 344.499244 
L 302.098607 347.174088 
L 303.773231 350.221344 
L 305.447856 353.625067 
L 307.959793 359.3598 
L 308.623356 361 
M 357.211011 361 
L 369.08359 318.41763 
L 369.920902 315.54732 
L 373.305781 326.6451 
L 376.690661 336.794797 
L 379.22932 343.777365 
L 381.76798 350.215227 
L 384.30664 356.104617 
L 386.627458 361 
M 459.012899 361 
L 462.179104 354.74584 
L 464.639379 350.278065 
L 467.099654 346.276408 
L 468.739838 343.925203 
L 470.380021 341.866809 
L 472.020205 340.13273 
L 473.660388 338.751203 
L 475.300571 337.746029 
L 476.940755 337.13546 
L 478.580938 336.904534 
L 478.580938 258.254397 
L 479.422561 258.340107 
L 480.264184 258.596378 
L 481.105807 259.02011 
L 481.947431 259.606366 
L 483.630677 261.238335 
L 485.313923 263.422639 
L 486.997169 266.075391 
L 488.680415 269.105734 
L 491.205284 274.157934 
L 495.4134 283.241164 
L 499.621515 292.239676 
L 502.146384 297.260925 
L 504.671254 301.83782 
L 507.196123 305.868256 
L 508.879369 308.210686 
L 510.562615 310.253893 
L 512.245861 311.981292 
L 513.929108 313.379276 
L 515.612354 314.437082 
L 517.2956 315.146698 
L 518.978846 315.502874 
L 519.820469 315.54732 
L 519.820469 322.377617 
L 520.64526 322.468341 
L 521.47005 322.739407 
L 522.294841 323.18755 
L 523.119632 323.807488 
L 523.944422 324.592098 
L 525.594003 326.61905 
L 527.243585 329.185248 
L 528.893166 332.196378 
L 531.367538 337.335923 
L 534.6667 344.877385 
L 541.265025 360.141915 
L 541.660721 361 
L 541.660721 361 
" style="fill:none;stroke:#ff0000;stroke-linecap:square;stroke-width:2;"/>
   </g>
   <g id="line2d_22">
    <path clip-path="url(#pd822d42111)" d="M 60.932 191.791694 
L 65.163099 191.678782 
L 68.547979 191.405157 
L 71.932858 190.922912 
L 75.317738 190.176105 
L 77.856397 189.407881 
L 80.395057 188.4373 
L 82.933716 187.246078 
L 85.472376 185.819732 
L 88.011036 184.14655 
L 90.549695 182.217742 
L 93.088355 180.025718 
L 95.627014 177.564029 
L 98.165674 174.826561 
L 100.704334 171.807044 
L 103.242993 168.498162 
L 105.781653 164.894118 
L 108.320312 160.985691 
L 110.858972 156.765589 
L 113.397632 152.225428 
L 114.243852 152.76619 
L 119.321171 176.267537 
L 123.55227 194.872332 
L 127.783369 212.459721 
L 131.168249 225.732562 
L 134.553128 238.252714 
L 137.938008 249.986107 
L 140.476667 258.24828 
L 143.015327 250.679622 
L 144.707767 246.172165 
L 146.400206 242.126177 
L 148.092646 238.552724 
L 149.785086 235.450804 
L 151.477526 232.807266 
L 153.169965 230.59829 
L 154.862405 228.791253 
L 156.554845 227.347238 
L 158.247285 226.223571 
L 159.939724 225.376173 
L 161.632164 224.761546 
L 163.324604 224.3381 
L 165.863263 223.978342 
L 168.401923 223.849127 
L 172.633022 223.900917 
L 180.249001 224.073531 
L 181.089095 223.844554 
L 181.929189 223.163072 
L 182.769283 222.044776 
L 183.609377 220.513836 
L 184.449471 218.600261 
L 186.129659 213.760107 
L 187.809846 207.793264 
L 189.490034 200.940822 
L 192.010316 189.419044 
L 194.530598 176.824021 
L 197.05088 163.487202 
L 197.890974 161.254406 
L 204.611725 169.168687 
L 208.812195 173.72594 
L 212.172571 177.03644 
L 215.532946 180.007618 
L 218.893322 182.620527 
L 222.253698 184.870544 
L 224.77398 186.322334 
L 227.294261 187.577008 
L 229.814543 188.641508 
L 233.174919 189.780463 
L 236.535295 190.623868 
L 239.89567 191.206238 
L 243.256046 191.568539 
L 247.456516 191.774282 
L 249.136704 191.791694 
L 249.978327 191.690451 
L 250.81995 191.386954 
L 251.661573 190.881898 
L 252.503196 190.17643 
L 253.344819 189.272137 
L 254.186442 188.171023 
L 255.869688 185.388615 
L 257.552934 181.851994 
L 259.236181 177.589851 
L 260.919427 172.634379 
L 262.602673 167.020575 
L 264.285919 160.785582 
L 266.810788 150.352982 
L 269.335658 138.741086 
L 271.860527 126.0872 
L 275.227019 107.844909 
L 279.435135 83.41393 
L 285.326496 48.831753 
L 287.009742 40.257349 
L 287.851365 36.6585 
L 288.692988 33.793925 
L 289.534611 32.671731 
L 297.074733 32.514517 
L 300.423982 32.199392 
L 302.935919 31.748966 
L 305.447856 31.043864 
L 307.959793 30.021546 
L 309.634417 29.135545 
L 311.309042 28.072179 
L 312.146354 27.834771 
L 312.983666 27.864373 
L 313.820979 31.054474 
L 316.332915 44.288605 
L 320.519477 67.643838 
L 327.217975 106.54319 
L 336.42841 159.842309 
L 341.452284 187.7208 
L 346.476158 214.295557 
L 350.662719 235.270355 
L 354.849281 255.068837 
L 359.035842 273.610988 
L 362.385091 287.4975 
L 365.73434 300.513697 
L 369.08359 312.63818 
L 369.920902 315.521768 
L 374.152001 301.522942 
L 377.536881 291.143258 
L 380.07554 283.949223 
L 382.6142 277.329008 
L 385.152859 271.328718 
L 387.691519 265.977644 
L 390.230179 261.288456 
L 391.922618 258.529017 
L 393.615058 256.058299 
L 395.307498 253.86987 
L 396.999938 251.955863 
L 398.692377 250.307498 
L 400.384817 248.915717 
L 402.077257 247.771642 
L 403.769697 246.867188 
L 405.462136 246.195373 
L 407.154576 245.750599 
L 408.847016 245.529239 
L 409.693236 245.501614 
L 410.513327 245.354523 
L 411.333419 244.914628 
L 412.153511 244.186018 
L 412.973602 243.175242 
L 413.793694 241.891029 
L 414.613786 240.343879 
L 416.253969 236.50905 
L 417.894153 231.774082 
L 419.534336 226.245342 
L 421.174519 220.024103 
L 423.634794 209.591178 
L 426.09507 198.06656 
L 429.375436 181.361384 
L 432.655803 163.482174 
L 436.756262 139.961705 
L 444.137087 95.98311 
L 449.877729 62.180998 
L 453.158096 44.120403 
L 454.798279 42.280988 
L 457.258554 39.800551 
L 459.718829 37.62839 
L 462.179104 35.83227 
L 463.819288 34.867741 
L 465.459471 34.096352 
L 467.099654 33.51416 
L 468.739838 33.107001 
L 471.200113 32.769486 
L 474.48048 32.651065 
L 478.580938 32.66438 
L 478.580938 258.24828 
L 479.422561 258.334064 
L 480.264184 258.590555 
L 481.105807 259.014649 
L 481.947431 259.601397 
L 483.630677 261.23469 
L 485.313923 263.420597 
L 486.997169 266.074218 
L 488.680415 269.102963 
L 491.205284 274.151896 
L 495.4134 283.229777 
L 499.621515 292.223683 
L 502.146384 297.242613 
L 504.671254 301.817532 
L 507.196123 305.846324 
L 508.879369 308.187837 
L 510.562615 310.230267 
L 512.245861 311.957024 
L 513.929108 313.354498 
L 515.612354 314.411923 
L 517.2956 315.121288 
L 518.978846 315.477337 
L 519.820469 315.521768 
L 519.820469 224.073531 
L 521.47005 224.179769 
L 523.119632 224.495471 
L 524.769213 225.011192 
L 526.418794 225.71249 
L 528.893166 227.069364 
L 531.367538 228.722672 
L 534.6667 231.23898 
L 544.564188 239.089164 
L 547.86335 241.283448 
L 550.337722 242.67271 
L 552.812094 243.807444 
L 555.286466 244.664286 
L 557.760838 245.226657 
L 560.235209 245.484386 
L 561.06 245.501614 
L 561.06 245.501614 
" style="fill:none;stroke:#ff0000;stroke-linecap:square;stroke-width:2;"/>
   </g>
   <g id="line2d_23">
    <path clip-path="url(#pd822d42111)" d="M 60.932 39.425695 
L 62.62444 39.341021 
L 64.316879 39.103194 
L 66.009319 38.706009 
L 67.701759 38.146632 
L 69.394199 37.421955 
L 71.086638 36.529696 
L 72.779078 35.465184 
L 75.317738 33.536924 
L 77.856397 31.197662 
L 80.395057 28.435538 
L 82.933716 25.237877 
L 85.472376 21.598992 
L 86.318596 20.285771 
L 87.164816 20.232183 
L 91.395915 39.933463 
L 96.473234 64.782074 
L 113.397632 148.740565 
L 114.243852 150.639534 
L 117.628731 143.926912 
L 121.01361 136.613978 
L 124.39849 128.692958 
L 127.783369 120.165287 
L 131.168249 111.047321 
L 134.553128 101.372627 
L 138.784228 88.597392 
L 140.476667 83.320147 
L 143.861547 93.544747 
L 147.246426 102.933839 
L 149.785086 109.407845 
L 152.323745 115.384737 
L 154.862405 120.858114 
L 157.401065 125.822187 
L 159.939724 130.272588 
L 162.478384 134.206233 
L 165.017043 137.619728 
L 166.709483 139.605431 
L 168.401923 141.358603 
L 170.094363 142.878814 
L 171.786802 144.165708 
L 173.479242 145.218989 
L 175.171682 146.038443 
L 176.864122 146.623595 
L 178.556561 146.974747 
L 182.769283 147.487334 
L 184.449471 148.174086 
L 186.129659 149.167177 
L 187.809846 150.427797 
L 189.490034 151.912936 
L 192.010316 154.46507 
L 195.370692 158.261908 
L 197.05088 160.250678 
L 197.890974 158.919095 
L 202.931537 130.691222 
L 214.692852 64.114476 
L 218.053228 46.187402 
L 221.413604 43.164933 
L 223.933886 41.196539 
L 226.454167 39.552055 
L 228.134355 38.665584 
L 229.814543 37.965333 
L 231.494731 37.463722 
L 233.174919 37.165863 
L 234.855107 37.0674 
L 236.535295 37.152809 
L 239.055576 37.559807 
L 247.456516 39.353382 
L 249.978327 39.419103 
L 253.344819 39.26205 
L 256.711311 38.904354 
L 260.919427 38.206652 
L 265.969165 37.088787 
L 280.276758 33.660947 
L 283.64325 33.121736 
L 287.009742 32.780916 
L 291.213547 32.543268 
L 292.050859 32.231298 
L 293.725484 31.174055 
L 297.912045 30.855008 
L 302.098607 30.282143 
L 306.285168 29.441779 
L 310.471729 28.322578 
L 311.309042 28.070969 
L 312.983666 26.81576 
L 313.820979 27.004136 
L 315.495603 26.436446 
L 318.844852 24.946541 
L 322.194101 23.157509 
L 325.543351 21.046711 
L 328.055288 19.229832 
L 330.567224 17.192821 
L 333.079161 14.917983 
L 335.591098 12.387788 
L 338.103035 9.584832 
L 340.614972 6.495916 
L 343.126909 3.101814 
L 345.896241 -1 
M 388.5413 -1 
L 391.922618 19.452844 
L 394.461278 33.614274 
L 396.999938 46.403097 
L 398.692377 54.007746 
L 400.384817 60.759547 
L 402.077257 66.564949 
L 403.769697 71.335593 
L 404.615916 73.307541 
L 405.462136 74.990897 
L 406.308356 76.380153 
L 407.154576 77.467466 
L 408.000796 78.248105 
L 408.847016 78.71865 
L 409.693236 78.877932 
L 412.153511 78.740984 
L 414.613786 78.330285 
L 417.074061 77.648228 
L 419.534336 76.697898 
L 421.994611 75.486021 
L 424.454886 74.019493 
L 426.915161 72.301559 
L 429.375436 70.353649 
L 432.655803 67.417417 
L 435.93617 64.131282 
L 439.216537 60.550716 
L 444.137087 54.785477 
L 453.158096 44.068302 
L 454.798279 36.153371 
L 455.618371 32.946504 
L 456.438462 30.750872 
L 457.258554 29.629685 
L 458.078646 29.179878 
L 458.898737 29.050246 
L 460.538921 29.162797 
L 464.639379 29.905344 
L 468.739838 30.574574 
L 472.840296 31.022191 
L 475.300571 31.177185 
L 476.940755 32.24414 
L 477.760847 32.544489 
L 478.580938 32.64504 
L 478.580938 83.320147 
L 479.422561 83.179686 
L 480.264184 82.759708 
L 481.105807 82.06328 
L 481.947431 81.09557 
L 482.789054 79.863561 
L 483.630677 78.375818 
L 485.313923 74.673773 
L 486.997169 70.079622 
L 488.680415 64.692454 
L 490.363661 58.613799 
L 492.888531 48.417555 
L 495.4134 37.215333 
L 499.621515 17.232473 
L 502.146384 5.52965 
L 502.988008 2.255057 
L 504.140747 -1 
M 519.820469 -1 
L 519.820469 147.091857 
L 520.64526 146.944922 
L 521.47005 146.505259 
L 522.294841 145.776253 
L 523.119632 144.763695 
L 523.944422 143.474422 
L 524.769213 141.917433 
L 526.418794 138.04515 
L 528.068375 133.24067 
L 529.717957 127.607875 
L 531.367538 121.251261 
L 533.84191 110.580809 
L 536.316281 98.832807 
L 540.440235 77.826179 
L 543.739397 77.745115 
L 547.038559 77.902642 
L 560.235209 78.872915 
L 561.06 78.877932 
L 561.06 78.877932 
" style="fill:none;stroke:#ff0000;stroke-linecap:square;stroke-width:2;"/>
   </g>
   <g id="line2d_24">
    <path clip-path="url(#pd822d42111)" d="M 60.932 39.378134 
L 61.77822 39.27548 
L 62.62444 38.95708 
L 63.47066 38.42762 
L 64.316879 37.692197 
L 65.163099 36.758777 
L 66.855539 34.33119 
L 68.547979 31.230096 
L 70.240419 27.561706 
L 72.779078 21.268605 
L 77.010177 9.778331 
L 80.395057 0.773151 
L 81.099072 -1 
M 82.194301 -1 
L 84.626156 9.077076 
L 86.318596 16.449651 
L 87.164816 18.922293 
L 89.703475 14.528928 
L 92.242135 9.679765 
L 94.780795 4.374811 
L 97.155011 -1 
M 117.693246 -1 
L 121.85983 15.1283 
L 129.475809 44.894524 
L 133.706908 60.521931 
L 137.091788 72.29188 
L 140.476667 83.316452 
L 150.631306 51.539688 
L 153.169965 44.595025 
L 154.862405 40.668538 
L 155.708625 39.016735 
L 156.554845 37.630564 
L 157.401065 36.559866 
L 158.247285 35.856745 
L 159.093504 35.570783 
L 159.939724 35.742111 
L 160.785944 36.393504 
L 161.632164 37.52412 
L 162.478384 39.106705 
L 163.324604 41.091336 
L 165.017043 45.996593 
L 167.555703 54.618185 
L 170.094363 63.329339 
L 171.786802 68.6185 
L 173.479242 73.225183 
L 175.171682 76.976907 
L 176.017902 78.490803 
L 176.864122 79.745839 
L 177.710341 80.732227 
L 178.556561 81.44159 
L 179.402781 81.870121 
L 180.249001 82.013332 
L 181.929189 81.84718 
L 183.609377 81.356915 
L 185.289565 80.563944 
L 186.969752 79.500525 
L 188.64994 78.205945 
L 191.170222 75.919467 
L 193.690504 73.333597 
L 197.890974 68.635385 
L 212.172571 52.234211 
L 216.37304 47.833009 
L 218.053228 46.107737 
L 221.413604 29.010682 
L 224.77398 13.06435 
L 227.294261 2.000398 
L 228.014753 -1 
M 231.986887 -1 
L 234.015013 7.453375 
L 235.695201 13.818222 
L 237.375389 19.57017 
L 239.055576 24.666051 
L 240.735764 29.062677 
L 242.415952 32.72137 
L 244.09614 35.607228 
L 244.936234 36.750943 
L 245.776328 37.691972 
L 246.616422 38.425964 
L 247.456516 38.951976 
L 248.29661 39.269266 
L 249.136704 39.378134 
L 252.503196 39.273489 
L 255.869688 38.965603 
L 260.077804 38.322161 
L 264.285919 37.446788 
L 271.018904 35.774859 
L 277.751888 34.143799 
L 281.960004 33.343321 
L 285.326496 32.900772 
L 288.692988 32.667226 
L 290.376235 31.252118 
L 292.888171 31.208232 
L 293.725484 30.996028 
L 294.562796 30.084421 
L 296.237421 27.710553 
L 297.912045 24.674785 
L 299.58667 21.078855 
L 302.098607 14.89854 
L 306.285168 3.569966 
L 307.12248 1.288375 
L 307.959793 2.883751 
L 310.471729 14.249128 
L 312.983666 26.207521 
L 313.820979 26.11371 
L 315.495603 24.55606 
L 318.00754 21.825735 
L 320.519477 18.613356 
L 323.031414 14.917056 
L 325.543351 10.742185 
L 328.055288 6.101573 
L 330.567224 1.013383 
L 331.505582 -1 
M 415.565199 -1 
L 417.894153 0.004052 
L 420.354428 1.362971 
L 422.814703 2.974264 
L 426.09507 5.416817 
L 431.01562 9.440795 
L 438.396445 15.517711 
L 442.496904 18.591763 
L 445.77727 20.783572 
L 448.237545 22.226915 
L 450.69782 23.435532 
L 452.338004 24.029707 
L 453.158096 24.209384 
L 453.978187 24.242883 
L 454.798279 24.002844 
L 455.618371 23.216396 
L 456.438462 21.489909 
L 457.258554 18.766713 
L 458.898737 11.917192 
L 461.910596 -1 
M 463.033619 -1 
L 465.459471 8.243773 
L 467.099654 13.755849 
L 468.739838 18.629505 
L 470.380021 22.828777 
L 472.020205 26.317242 
L 473.660388 29.065352 
L 474.48048 30.153061 
L 475.300571 31.046737 
L 476.120663 31.209989 
L 478.580938 31.252118 
L 478.580938 83.316452 
L 479.422561 83.175696 
L 480.264184 82.754832 
L 481.105807 82.056921 
L 481.947431 81.087122 
L 482.789054 79.852405 
L 483.630677 78.361314 
L 485.313923 74.650533 
L 486.997169 70.044589 
L 488.680415 64.641907 
L 490.363661 58.542889 
L 492.888531 48.302435 
L 495.4134 37.026313 
L 498.779892 20.872942 
L 503.142812 -1 
M 519.820469 -1 
L 519.820469 82.013332 
L 522.294841 81.86831 
L 524.769213 81.455095 
L 528.068375 80.604234 
L 534.6667 78.726457 
L 537.141072 78.220053 
L 540.440235 77.665694 
L 548.688141 34.411963 
L 551.162513 22.796172 
L 552.812094 15.859078 
L 554.461675 9.78462 
L 556.111256 4.771913 
L 556.936047 2.725346 
L 557.760838 1.015808 
L 558.585628 -0.336697 
L 559.144518 -1 
L 559.144518 -1 
" style="fill:none;stroke:#ff0000;stroke-linecap:square;stroke-width:2;"/>
   </g>
   <g id="line2d_25">
    <path clip-path="url(#pd822d42111)" d="M 127.721758 -1 
L 128.629589 1.443056 
L 130.322029 5.616269 
L 132.014469 9.266597 
L 133.706908 12.351653 
L 135.399348 14.827108 
L 137.091788 16.64807 
L 137.938008 17.299266 
L 138.784228 17.77048 
L 139.630447 18.056647 
L 140.476667 18.153446 
L 141.322887 18.055429 
L 142.169107 17.75958 
L 143.015327 17.262442 
L 143.861547 16.561319 
L 144.707767 15.654281 
L 145.553987 14.540199 
L 146.400206 13.218798 
L 148.092646 9.957478 
L 149.785086 5.88665 
L 151.477526 1.037125 
L 152.115408 -1 
M 307.040041 -1 
L 307.12248 -0.663765 
L 307.971773 -1 
M 478.580938 -1 
L 478.580938 18.153446 
L 480.264184 18.042327 
L 481.947431 17.710849 
L 483.630677 17.161143 
L 485.313923 16.396489 
L 486.997169 15.424293 
L 488.680415 14.251005 
L 491.205284 12.133005 
L 493.730154 9.615578 
L 496.255023 6.731551 
L 498.779892 3.484443 
L 500.463138 1.043423 
L 501.646056 -1 
L 501.646056 -1 
" style="fill:none;stroke:#ff0000;stroke-linecap:square;stroke-width:2;"/>
   </g>
   <g id="line2d_26">
    <path clip-path="url(#pd822d42111)" d="M 0 0 
" style="fill:none;stroke:#ff0000;stroke-linecap:square;stroke-width:2;"/>
   </g>
   <g id="line2d_27">
    <path clip-path="url(#pd822d42111)" d="M 0 0 
" style="fill:none;stroke:#ff0000;stroke-linecap:square;stroke-width:2;"/>
   </g>
   <g id="line2d_28">
    <path clip-path="url(#pd822d42111)" d="M 140.476667 326.72 
L 140.476667 31.92 
" style="fill:none;stroke:#000000;stroke-dasharray:1.85,0.8;stroke-dashoffset:0;stroke-width:0.5;"/>
   </g>
   <g id="line2d_29">
    <path clip-path="url(#pd822d42111)" d="M 180.249001 326.72 
L 180.249001 31.92 
" style="fill:none;stroke:#000000;stroke-dasharray:1.85,0.8;stroke-dashoffset:0;stroke-width:0.5;"/>
   </g>
   <g id="line2d_30">
    <path clip-path="url(#pd822d42111)" d="M 249.136704 326.72 
L 249.136704 31.92 
" style="fill:none;stroke:#000000;stroke-dasharray:1.85,0.8;stroke-dashoffset:0;stroke-width:0.5;"/>
   </g>
   <g id="line2d_31">
    <path clip-path="url(#pd822d42111)" d="M 290.376235 326.72 
L 290.376235 31.92 
" style="fill:none;stroke:#000000;stroke-dasharray:1.85,0.8;stroke-dashoffset:0;stroke-width:0.5;"/>
   </g>
   <g id="line2d_32">
    <path clip-path="url(#pd822d42111)" d="M 369.920902 326.72 
L 369.920902 31.92 
" style="fill:none;stroke:#000000;stroke-dasharray:1.85,0.8;stroke-dashoffset:0;stroke-width:0.5;"/>
   </g>
   <g id="line2d_33">
    <path clip-path="url(#pd822d42111)" d="M 409.693236 326.72 
L 409.693236 31.92 
" style="fill:none;stroke:#000000;stroke-dasharray:1.85,0.8;stroke-dashoffset:0;stroke-width:0.5;"/>
   </g>
   <g id="line2d_34">
    <path clip-path="url(#pd822d42111)" d="M 478.580938 326.72 
L 478.580938 31.92 
" style="fill:none;stroke:#000000;stroke-dasharray:1.85,0.8;stroke-dashoffset:0;stroke-width:0.5;"/>
   </g>
   <g id="line2d_35">
    <path clip-path="url(#pd822d42111)" d="M 478.580938 326.72 
L 478.580938 31.92 
" style="fill:none;stroke:#000000;stroke-dasharray:1.85,0.8;stroke-dashoffset:0;stroke-width:0.5;"/>
   </g>
   <g id="line2d_36">
    <path clip-path="url(#pd822d42111)" d="M 519.820469 326.72 
L 519.820469 31.92 
" style="fill:none;stroke:#000000;stroke-dasharray:1.85,0.8;stroke-dashoffset:0;stroke-width:0.5;"/>
   </g>
   <g id="line2d_37">
    <path clip-path="url(#pd822d42111)" d="M 519.820469 326.72 
L 519.820469 31.92 
" style="fill:none;stroke:#000000;stroke-dasharray:1.85,0.8;stroke-dashoffset:0;stroke-width:0.5;"/>
   </g>
   <g id="line2d_38">
    <path clip-path="url(#pd822d42111)" d="M 60.932 179.32 
L 561.06 179.32 
" style="fill:none;stroke:#000000;stroke-dasharray:1.85,0.8;stroke-dashoffset:0;stroke-width:0.5;"/>
   </g>
   <g id="patch_3">
    <path d="M 60.932 326.72 
L 60.932 31.92 
" style="fill:none;stroke:#000000;stroke-linecap:square;stroke-linejoin:miter;stroke-width:0.8;"/>
   </g>
   <g id="patch_4">
    <path d="M 561.06 326.72 
L 561.06 31.92 
" style="fill:none;stroke:#000000;stroke-linecap:square;stroke-linejoin:miter;stroke-width:0.8;"/>
   </g>
   <g id="patch_5">
    <path d="M 60.932 326.72 
L 561.06 326.72 
" style="fill:none;stroke:#000000;stroke-linecap:square;stroke-linejoin:miter;stroke-width:0.8;"/>
   </g>
   <g id="patch_6">
    <path d="M 60.932 31.92 
L 561.06 31.92 
" style="fill:none;stroke:#000000;stroke-linecap:square;stroke-linejoin:miter;stroke-width:0.8;"/>
   </g>
   <g id="text_19">
    <!-- Bandstructure of C$_2$Li -->
    <g transform="translate(214.246 25.92)scale(0.18 -0.18)">
     <defs>
      <path d="M 19.671875 34.8125 
L 19.671875 8.109375 
L 35.5 8.109375 
Q 43.453125 8.109375 47.28125 11.40625 
Q 51.125 14.703125 51.125 21.484375 
Q 51.125 28.328125 47.28125 31.5625 
Q 43.453125 34.8125 35.5 34.8125 
z
M 19.671875 64.796875 
L 19.671875 42.828125 
L 34.28125 42.828125 
Q 41.5 42.828125 45.03125 45.53125 
Q 48.578125 48.25 48.578125 53.8125 
Q 48.578125 59.328125 45.03125 62.0625 
Q 41.5 64.796875 34.28125 64.796875 
z
M 9.8125 72.90625 
L 35.015625 72.90625 
Q 46.296875 72.90625 52.390625 68.21875 
Q 58.5 63.53125 58.5 54.890625 
Q 58.5 48.1875 55.375 44.234375 
Q 52.25 40.28125 46.1875 39.3125 
Q 53.46875 37.75 57.5 32.78125 
Q 61.53125 27.828125 61.53125 20.40625 
Q 61.53125 10.640625 54.890625 5.3125 
Q 48.25 0 35.984375 0 
L 9.8125 0 
z
" id="DejaVuSans-66"/>
      <path d="M 34.28125 27.484375 
Q 23.390625 27.484375 19.1875 25 
Q 14.984375 22.515625 14.984375 16.5 
Q 14.984375 11.71875 18.140625 8.90625 
Q 21.296875 6.109375 26.703125 6.109375 
Q 34.1875 6.109375 38.703125 11.40625 
Q 43.21875 16.703125 43.21875 25.484375 
L 43.21875 27.484375 
z
M 52.203125 31.203125 
L 52.203125 0 
L 43.21875 0 
L 43.21875 8.296875 
Q 40.140625 3.328125 35.546875 0.953125 
Q 30.953125 -1.421875 24.3125 -1.421875 
Q 15.921875 -1.421875 10.953125 3.296875 
Q 6 8.015625 6 15.921875 
Q 6 25.140625 12.171875 29.828125 
Q 18.359375 34.515625 30.609375 34.515625 
L 43.21875 34.515625 
L 43.21875 35.40625 
Q 43.21875 41.609375 39.140625 45 
Q 35.0625 48.390625 27.6875 48.390625 
Q 23 48.390625 18.546875 47.265625 
Q 14.109375 46.140625 10.015625 43.890625 
L 10.015625 52.203125 
Q 14.9375 54.109375 19.578125 55.046875 
Q 24.21875 56 28.609375 56 
Q 40.484375 56 46.34375 49.84375 
Q 52.203125 43.703125 52.203125 31.203125 
z
" id="DejaVuSans-97"/>
      <path d="M 54.890625 33.015625 
L 54.890625 0 
L 45.90625 0 
L 45.90625 32.71875 
Q 45.90625 40.484375 42.875 44.328125 
Q 39.84375 48.1875 33.796875 48.1875 
Q 26.515625 48.1875 22.3125 43.546875 
Q 18.109375 38.921875 18.109375 30.90625 
L 18.109375 0 
L 9.078125 0 
L 9.078125 54.6875 
L 18.109375 54.6875 
L 18.109375 46.1875 
Q 21.34375 51.125 25.703125 53.5625 
Q 30.078125 56 35.796875 56 
Q 45.21875 56 50.046875 50.171875 
Q 54.890625 44.34375 54.890625 33.015625 
z
" id="DejaVuSans-110"/>
      <path d="M 45.40625 46.390625 
L 45.40625 75.984375 
L 54.390625 75.984375 
L 54.390625 0 
L 45.40625 0 
L 45.40625 8.203125 
Q 42.578125 3.328125 38.25 0.953125 
Q 33.9375 -1.421875 27.875 -1.421875 
Q 17.96875 -1.421875 11.734375 6.484375 
Q 5.515625 14.40625 5.515625 27.296875 
Q 5.515625 40.1875 11.734375 48.09375 
Q 17.96875 56 27.875 56 
Q 33.9375 56 38.25 53.625 
Q 42.578125 51.265625 45.40625 46.390625 
z
M 14.796875 27.296875 
Q 14.796875 17.390625 18.875 11.75 
Q 22.953125 6.109375 30.078125 6.109375 
Q 37.203125 6.109375 41.296875 11.75 
Q 45.40625 17.390625 45.40625 27.296875 
Q 45.40625 37.203125 41.296875 42.84375 
Q 37.203125 48.484375 30.078125 48.484375 
Q 22.953125 48.484375 18.875 42.84375 
Q 14.796875 37.203125 14.796875 27.296875 
z
" id="DejaVuSans-100"/>
      <path d="M 44.28125 53.078125 
L 44.28125 44.578125 
Q 40.484375 46.53125 36.375 47.5 
Q 32.28125 48.484375 27.875 48.484375 
Q 21.1875 48.484375 17.84375 46.4375 
Q 14.5 44.390625 14.5 40.28125 
Q 14.5 37.15625 16.890625 35.375 
Q 19.28125 33.59375 26.515625 31.984375 
L 29.59375 31.296875 
Q 39.15625 29.25 43.1875 25.515625 
Q 47.21875 21.78125 47.21875 15.09375 
Q 47.21875 7.46875 41.1875 3.015625 
Q 35.15625 -1.421875 24.609375 -1.421875 
Q 20.21875 -1.421875 15.453125 -0.5625 
Q 10.6875 0.296875 5.421875 2 
L 5.421875 11.28125 
Q 10.40625 8.6875 15.234375 7.390625 
Q 20.0625 6.109375 24.8125 6.109375 
Q 31.15625 6.109375 34.5625 8.28125 
Q 37.984375 10.453125 37.984375 14.40625 
Q 37.984375 18.0625 35.515625 20.015625 
Q 33.0625 21.96875 24.703125 23.78125 
L 21.578125 24.515625 
Q 13.234375 26.265625 9.515625 29.90625 
Q 5.8125 33.546875 5.8125 39.890625 
Q 5.8125 47.609375 11.28125 51.796875 
Q 16.75 56 26.8125 56 
Q 31.78125 56 36.171875 55.265625 
Q 40.578125 54.546875 44.28125 53.078125 
z
" id="DejaVuSans-115"/>
      <path d="M 18.3125 70.21875 
L 18.3125 54.6875 
L 36.8125 54.6875 
L 36.8125 47.703125 
L 18.3125 47.703125 
L 18.3125 18.015625 
Q 18.3125 11.328125 20.140625 9.421875 
Q 21.96875 7.515625 27.59375 7.515625 
L 36.8125 7.515625 
L 36.8125 0 
L 27.59375 0 
Q 17.1875 0 13.234375 3.875 
Q 9.28125 7.765625 9.28125 18.015625 
L 9.28125 47.703125 
L 2.6875 47.703125 
L 2.6875 54.6875 
L 9.28125 54.6875 
L 9.28125 70.21875 
z
" id="DejaVuSans-116"/>
      <path d="M 41.109375 46.296875 
Q 39.59375 47.171875 37.8125 47.578125 
Q 36.03125 48 33.890625 48 
Q 26.265625 48 22.1875 43.046875 
Q 18.109375 38.09375 18.109375 28.8125 
L 18.109375 0 
L 9.078125 0 
L 9.078125 54.6875 
L 18.109375 54.6875 
L 18.109375 46.1875 
Q 20.953125 51.171875 25.484375 53.578125 
Q 30.03125 56 36.53125 56 
Q 37.453125 56 38.578125 55.875 
Q 39.703125 55.765625 41.0625 55.515625 
z
" id="DejaVuSans-114"/>
      <path d="M 8.5 21.578125 
L 8.5 54.6875 
L 17.484375 54.6875 
L 17.484375 21.921875 
Q 17.484375 14.15625 20.5 10.265625 
Q 23.53125 6.390625 29.59375 6.390625 
Q 36.859375 6.390625 41.078125 11.03125 
Q 45.3125 15.671875 45.3125 23.6875 
L 45.3125 54.6875 
L 54.296875 54.6875 
L 54.296875 0 
L 45.3125 0 
L 45.3125 8.40625 
Q 42.046875 3.421875 37.71875 1 
Q 33.40625 -1.421875 27.6875 -1.421875 
Q 18.265625 -1.421875 13.375 4.4375 
Q 8.5 10.296875 8.5 21.578125 
z
M 31.109375 56 
z
" id="DejaVuSans-117"/>
      <path d="M 48.78125 52.59375 
L 48.78125 44.1875 
Q 44.96875 46.296875 41.140625 47.34375 
Q 37.3125 48.390625 33.40625 48.390625 
Q 24.65625 48.390625 19.8125 42.84375 
Q 14.984375 37.3125 14.984375 27.296875 
Q 14.984375 17.28125 19.8125 11.734375 
Q 24.65625 6.203125 33.40625 6.203125 
Q 37.3125 6.203125 41.140625 7.25 
Q 44.96875 8.296875 48.78125 10.40625 
L 48.78125 2.09375 
Q 45.015625 0.34375 40.984375 -0.53125 
Q 36.96875 -1.421875 32.421875 -1.421875 
Q 20.0625 -1.421875 12.78125 6.34375 
Q 5.515625 14.109375 5.515625 27.296875 
Q 5.515625 40.671875 12.859375 48.328125 
Q 20.21875 56 33.015625 56 
Q 37.15625 56 41.109375 55.140625 
Q 45.0625 54.296875 48.78125 52.59375 
z
" id="DejaVuSans-99"/>
      <path d="M 30.609375 48.390625 
Q 23.390625 48.390625 19.1875 42.75 
Q 14.984375 37.109375 14.984375 27.296875 
Q 14.984375 17.484375 19.15625 11.84375 
Q 23.34375 6.203125 30.609375 6.203125 
Q 37.796875 6.203125 41.984375 11.859375 
Q 46.1875 17.53125 46.1875 27.296875 
Q 46.1875 37.015625 41.984375 42.703125 
Q 37.796875 48.390625 30.609375 48.390625 
z
M 30.609375 56 
Q 42.328125 56 49.015625 48.375 
Q 55.71875 40.765625 55.71875 27.296875 
Q 55.71875 13.875 49.015625 6.21875 
Q 42.328125 -1.421875 30.609375 -1.421875 
Q 18.84375 -1.421875 12.171875 6.21875 
Q 5.515625 13.875 5.515625 27.296875 
Q 5.515625 40.765625 12.171875 48.375 
Q 18.84375 56 30.609375 56 
z
" id="DejaVuSans-111"/>
      <path d="M 37.109375 75.984375 
L 37.109375 68.5 
L 28.515625 68.5 
Q 23.6875 68.5 21.796875 66.546875 
Q 19.921875 64.59375 19.921875 59.515625 
L 19.921875 54.6875 
L 34.71875 54.6875 
L 34.71875 47.703125 
L 19.921875 47.703125 
L 19.921875 0 
L 10.890625 0 
L 10.890625 47.703125 
L 2.296875 47.703125 
L 2.296875 54.6875 
L 10.890625 54.6875 
L 10.890625 58.5 
Q 10.890625 67.625 15.140625 71.796875 
Q 19.390625 75.984375 28.609375 75.984375 
z
" id="DejaVuSans-102"/>
      <path d="M 64.40625 67.28125 
L 64.40625 56.890625 
Q 59.421875 61.53125 53.78125 63.8125 
Q 48.140625 66.109375 41.796875 66.109375 
Q 29.296875 66.109375 22.65625 58.46875 
Q 16.015625 50.828125 16.015625 36.375 
Q 16.015625 21.96875 22.65625 14.328125 
Q 29.296875 6.6875 41.796875 6.6875 
Q 48.140625 6.6875 53.78125 8.984375 
Q 59.421875 11.28125 64.40625 15.921875 
L 64.40625 5.609375 
Q 59.234375 2.09375 53.4375 0.328125 
Q 47.65625 -1.421875 41.21875 -1.421875 
Q 24.65625 -1.421875 15.125 8.703125 
Q 5.609375 18.84375 5.609375 36.375 
Q 5.609375 53.953125 15.125 64.078125 
Q 24.65625 74.21875 41.21875 74.21875 
Q 47.75 74.21875 53.53125 72.484375 
Q 59.328125 70.75 64.40625 67.28125 
z
" id="DejaVuSans-67"/>
      <path d="M 9.421875 54.6875 
L 18.40625 54.6875 
L 18.40625 0 
L 9.421875 0 
z
M 9.421875 75.984375 
L 18.40625 75.984375 
L 18.40625 64.59375 
L 9.421875 64.59375 
z
" id="DejaVuSans-105"/>
     </defs>
     <use transform="translate(0 0.015625)" xlink:href="#DejaVuSans-66"/>
     <use transform="translate(68.603516 0.015625)" xlink:href="#DejaVuSans-97"/>
     <use transform="translate(129.882812 0.015625)" xlink:href="#DejaVuSans-110"/>
     <use transform="translate(193.261719 0.015625)" xlink:href="#DejaVuSans-100"/>
     <use transform="translate(256.738281 0.015625)" xlink:href="#DejaVuSans-115"/>
     <use transform="translate(308.837891 0.015625)" xlink:href="#DejaVuSans-116"/>
     <use transform="translate(348.046875 0.015625)" xlink:href="#DejaVuSans-114"/>
     <use transform="translate(389.160156 0.015625)" xlink:href="#DejaVuSans-117"/>
     <use transform="translate(452.539062 0.015625)" xlink:href="#DejaVuSans-99"/>
     <use transform="translate(507.519531 0.015625)" xlink:href="#DejaVuSans-116"/>
     <use transform="translate(546.728516 0.015625)" xlink:href="#DejaVuSans-117"/>
     <use transform="translate(610.107422 0.015625)" xlink:href="#DejaVuSans-114"/>
     <use transform="translate(651.220703 0.015625)" xlink:href="#DejaVuSans-101"/>
     <use transform="translate(712.744141 0.015625)" xlink:href="#DejaVuSans-32"/>
     <use transform="translate(744.53125 0.015625)" xlink:href="#DejaVuSans-111"/>
     <use transform="translate(805.712891 0.015625)" xlink:href="#DejaVuSans-102"/>
     <use transform="translate(840.917969 0.015625)" xlink:href="#DejaVuSans-32"/>
     <use transform="translate(872.705078 0.015625)" xlink:href="#DejaVuSans-67"/>
     <use transform="translate(943.486328 -16.390625)scale(0.7)" xlink:href="#DejaVuSans-50"/>
     <use transform="translate(990.756836 0.015625)" xlink:href="#DejaVuSans-76"/>
     <use transform="translate(1046.469727 0.015625)" xlink:href="#DejaVuSans-105"/>
    </g>
   </g>
  </g>
 </g>
 <defs>
  <clipPath id="pd822d42111">
   <rect height="294.8" width="500.128" x="60.932" y="31.92"/>
  </clipPath>
 </defs>
</svg>
