<?xml version="1.0" encoding="utf-8" standalone="no"?>
<!DOCTYPE svg PUBLIC "-//W3C//DTD SVG 1.1//EN"
  "http://www.w3.org/Graphics/SVG/1.1/DTD/svg11.dtd">
<!-- Created with matplotlib (https://matplotlib.org/) -->
<svg height="360pt" version="1.1" viewBox="0 0 360 360" width="360pt" xmlns="http://www.w3.org/2000/svg" xmlns:xlink="http://www.w3.org/1999/xlink">
 <metadata>
  <rdf:RDF xmlns:cc="http://creativecommons.org/ns#" xmlns:dc="http://purl.org/dc/elements/1.1/" xmlns:rdf="http://www.w3.org/1999/02/22-rdf-syntax-ns#">
   <cc:Work>
    <dc:type rdf:resource="http://purl.org/dc/dcmitype/StillImage"/>
    <dc:date>2021-01-10T22:16:00.317760</dc:date>
    <dc:format>image/svg+xml</dc:format>
    <dc:creator>
     <cc:Agent>
      <dc:title>Matplotlib v3.3.3, https://matplotlib.org/</dc:title>
     </cc:Agent>
    </dc:creator>
   </cc:Work>
  </rdf:RDF>
 </metadata>
 <defs>
  <style type="text/css">*{stroke-linecap:butt;stroke-linejoin:round;}</style>
 </defs>
 <g id="figure_1">
  <g id="patch_1">
   <path d="M 0 360 
L 360 360 
L 360 0 
L 0 0 
z
" style="fill:#ffffff;"/>
  </g>
  <g id="axes_1">
   <g id="patch_2">
    <path d="M 52.13 311.128 
L 346.005 311.128 
L 346.005 10.8 
L 52.13 10.8 
z
" style="fill:#ffffff;"/>
   </g>
   <g id="matplotlib.axis_1">
    <g id="xtick_1">
     <g id="line2d_1">
      <defs>
       <path d="M 0 0 
L 0 3.5 
" id="m90f04cea2c" style="stroke:#000000;stroke-width:0.8;"/>
      </defs>
      <g>
       <use style="stroke:#000000;stroke-width:0.8;" x="52.13" xlink:href="#m90f04cea2c" y="311.128"/>
      </g>
     </g>
     <g id="text_1">
      <!-- −8 -->
      <g transform="translate(44.758906 325.726437)scale(0.1 -0.1)">
       <defs>
        <path d="M 10.59375 35.5 
L 73.1875 35.5 
L 73.1875 27.203125 
L 10.59375 27.203125 
z
" id="DejaVuSans-8722"/>
        <path d="M 31.78125 34.625 
Q 24.75 34.625 20.71875 30.859375 
Q 16.703125 27.09375 16.703125 20.515625 
Q 16.703125 13.921875 20.71875 10.15625 
Q 24.75 6.390625 31.78125 6.390625 
Q 38.8125 6.390625 42.859375 10.171875 
Q 46.921875 13.96875 46.921875 20.515625 
Q 46.921875 27.09375 42.890625 30.859375 
Q 38.875 34.625 31.78125 34.625 
z
M 21.921875 38.8125 
Q 15.578125 40.375 12.03125 44.71875 
Q 8.5 49.078125 8.5 55.328125 
Q 8.5 64.0625 14.71875 69.140625 
Q 20.953125 74.21875 31.78125 74.21875 
Q 42.671875 74.21875 48.875 69.140625 
Q 55.078125 64.0625 55.078125 55.328125 
Q 55.078125 49.078125 51.53125 44.71875 
Q 48 40.375 41.703125 38.8125 
Q 48.828125 37.15625 52.796875 32.3125 
Q 56.78125 27.484375 56.78125 20.515625 
Q 56.78125 9.90625 50.3125 4.234375 
Q 43.84375 -1.421875 31.78125 -1.421875 
Q 19.734375 -1.421875 13.25 4.234375 
Q 6.78125 9.90625 6.78125 20.515625 
Q 6.78125 27.484375 10.78125 32.3125 
Q 14.796875 37.15625 21.921875 38.8125 
z
M 18.3125 54.390625 
Q 18.3125 48.734375 21.84375 45.5625 
Q 25.390625 42.390625 31.78125 42.390625 
Q 38.140625 42.390625 41.71875 45.5625 
Q 45.3125 48.734375 45.3125 54.390625 
Q 45.3125 60.0625 41.71875 63.234375 
Q 38.140625 66.40625 31.78125 66.40625 
Q 25.390625 66.40625 21.84375 63.234375 
Q 18.3125 60.0625 18.3125 54.390625 
z
" id="DejaVuSans-56"/>
       </defs>
       <use xlink:href="#DejaVuSans-8722"/>
       <use x="83.789062" xlink:href="#DejaVuSans-56"/>
      </g>
     </g>
    </g>
    <g id="xtick_2">
     <g id="line2d_2">
      <g>
       <use style="stroke:#000000;stroke-width:0.8;" x="88.864375" xlink:href="#m90f04cea2c" y="311.128"/>
      </g>
     </g>
     <g id="text_2">
      <!-- −6 -->
      <g transform="translate(81.493281 325.726437)scale(0.1 -0.1)">
       <defs>
        <path d="M 33.015625 40.375 
Q 26.375 40.375 22.484375 35.828125 
Q 18.609375 31.296875 18.609375 23.390625 
Q 18.609375 15.53125 22.484375 10.953125 
Q 26.375 6.390625 33.015625 6.390625 
Q 39.65625 6.390625 43.53125 10.953125 
Q 47.40625 15.53125 47.40625 23.390625 
Q 47.40625 31.296875 43.53125 35.828125 
Q 39.65625 40.375 33.015625 40.375 
z
M 52.59375 71.296875 
L 52.59375 62.3125 
Q 48.875 64.0625 45.09375 64.984375 
Q 41.3125 65.921875 37.59375 65.921875 
Q 27.828125 65.921875 22.671875 59.328125 
Q 17.53125 52.734375 16.796875 39.40625 
Q 19.671875 43.65625 24.015625 45.921875 
Q 28.375 48.1875 33.59375 48.1875 
Q 44.578125 48.1875 50.953125 41.515625 
Q 57.328125 34.859375 57.328125 23.390625 
Q 57.328125 12.15625 50.6875 5.359375 
Q 44.046875 -1.421875 33.015625 -1.421875 
Q 20.359375 -1.421875 13.671875 8.265625 
Q 6.984375 17.96875 6.984375 36.375 
Q 6.984375 53.65625 15.1875 63.9375 
Q 23.390625 74.21875 37.203125 74.21875 
Q 40.921875 74.21875 44.703125 73.484375 
Q 48.484375 72.75 52.59375 71.296875 
z
" id="DejaVuSans-54"/>
       </defs>
       <use xlink:href="#DejaVuSans-8722"/>
       <use x="83.789062" xlink:href="#DejaVuSans-54"/>
      </g>
     </g>
    </g>
    <g id="xtick_3">
     <g id="line2d_3">
      <g>
       <use style="stroke:#000000;stroke-width:0.8;" x="125.59875" xlink:href="#m90f04cea2c" y="311.128"/>
      </g>
     </g>
     <g id="text_3">
      <!-- −4 -->
      <g transform="translate(118.227656 325.726437)scale(0.1 -0.1)">
       <defs>
        <path d="M 37.796875 64.3125 
L 12.890625 25.390625 
L 37.796875 25.390625 
z
M 35.203125 72.90625 
L 47.609375 72.90625 
L 47.609375 25.390625 
L 58.015625 25.390625 
L 58.015625 17.1875 
L 47.609375 17.1875 
L 47.609375 0 
L 37.796875 0 
L 37.796875 17.1875 
L 4.890625 17.1875 
L 4.890625 26.703125 
z
" id="DejaVuSans-52"/>
       </defs>
       <use xlink:href="#DejaVuSans-8722"/>
       <use x="83.789062" xlink:href="#DejaVuSans-52"/>
      </g>
     </g>
    </g>
    <g id="xtick_4">
     <g id="line2d_4">
      <g>
       <use style="stroke:#000000;stroke-width:0.8;" x="162.333125" xlink:href="#m90f04cea2c" y="311.128"/>
      </g>
     </g>
     <g id="text_4">
      <!-- −2 -->
      <g transform="translate(154.962031 325.726437)scale(0.1 -0.1)">
       <defs>
        <path d="M 19.1875 8.296875 
L 53.609375 8.296875 
L 53.609375 0 
L 7.328125 0 
L 7.328125 8.296875 
Q 12.9375 14.109375 22.625 23.890625 
Q 32.328125 33.6875 34.8125 36.53125 
Q 39.546875 41.84375 41.421875 45.53125 
Q 43.3125 49.21875 43.3125 52.78125 
Q 43.3125 58.59375 39.234375 62.25 
Q 35.15625 65.921875 28.609375 65.921875 
Q 23.96875 65.921875 18.8125 64.3125 
Q 13.671875 62.703125 7.8125 59.421875 
L 7.8125 69.390625 
Q 13.765625 71.78125 18.9375 73 
Q 24.125 74.21875 28.421875 74.21875 
Q 39.75 74.21875 46.484375 68.546875 
Q 53.21875 62.890625 53.21875 53.421875 
Q 53.21875 48.921875 51.53125 44.890625 
Q 49.859375 40.875 45.40625 35.40625 
Q 44.1875 33.984375 37.640625 27.21875 
Q 31.109375 20.453125 19.1875 8.296875 
z
" id="DejaVuSans-50"/>
       </defs>
       <use xlink:href="#DejaVuSans-8722"/>
       <use x="83.789062" xlink:href="#DejaVuSans-50"/>
      </g>
     </g>
    </g>
    <g id="xtick_5">
     <g id="line2d_5">
      <g>
       <use style="stroke:#000000;stroke-width:0.8;" x="199.0675" xlink:href="#m90f04cea2c" y="311.128"/>
      </g>
     </g>
     <g id="text_5">
      <!-- 0 -->
      <g transform="translate(195.88625 325.726437)scale(0.1 -0.1)">
       <defs>
        <path d="M 31.78125 66.40625 
Q 24.171875 66.40625 20.328125 58.90625 
Q 16.5 51.421875 16.5 36.375 
Q 16.5 21.390625 20.328125 13.890625 
Q 24.171875 6.390625 31.78125 6.390625 
Q 39.453125 6.390625 43.28125 13.890625 
Q 47.125 21.390625 47.125 36.375 
Q 47.125 51.421875 43.28125 58.90625 
Q 39.453125 66.40625 31.78125 66.40625 
z
M 31.78125 74.21875 
Q 44.046875 74.21875 50.515625 64.515625 
Q 56.984375 54.828125 56.984375 36.375 
Q 56.984375 17.96875 50.515625 8.265625 
Q 44.046875 -1.421875 31.78125 -1.421875 
Q 19.53125 -1.421875 13.0625 8.265625 
Q 6.59375 17.96875 6.59375 36.375 
Q 6.59375 54.828125 13.0625 64.515625 
Q 19.53125 74.21875 31.78125 74.21875 
z
" id="DejaVuSans-48"/>
       </defs>
       <use xlink:href="#DejaVuSans-48"/>
      </g>
     </g>
    </g>
    <g id="xtick_6">
     <g id="line2d_6">
      <g>
       <use style="stroke:#000000;stroke-width:0.8;" x="235.801875" xlink:href="#m90f04cea2c" y="311.128"/>
      </g>
     </g>
     <g id="text_6">
      <!-- 2 -->
      <g transform="translate(232.620625 325.726437)scale(0.1 -0.1)">
       <use xlink:href="#DejaVuSans-50"/>
      </g>
     </g>
    </g>
    <g id="xtick_7">
     <g id="line2d_7">
      <g>
       <use style="stroke:#000000;stroke-width:0.8;" x="272.53625" xlink:href="#m90f04cea2c" y="311.128"/>
      </g>
     </g>
     <g id="text_7">
      <!-- 4 -->
      <g transform="translate(269.355 325.726437)scale(0.1 -0.1)">
       <use xlink:href="#DejaVuSans-52"/>
      </g>
     </g>
    </g>
    <g id="xtick_8">
     <g id="line2d_8">
      <g>
       <use style="stroke:#000000;stroke-width:0.8;" x="309.270625" xlink:href="#m90f04cea2c" y="311.128"/>
      </g>
     </g>
     <g id="text_8">
      <!-- 6 -->
      <g transform="translate(306.089375 325.726437)scale(0.1 -0.1)">
       <use xlink:href="#DejaVuSans-54"/>
      </g>
     </g>
    </g>
    <g id="xtick_9">
     <g id="line2d_9">
      <g>
       <use style="stroke:#000000;stroke-width:0.8;" x="346.005" xlink:href="#m90f04cea2c" y="311.128"/>
      </g>
     </g>
     <g id="text_9">
      <!-- 8 -->
      <g transform="translate(342.82375 325.726437)scale(0.1 -0.1)">
       <use xlink:href="#DejaVuSans-56"/>
      </g>
     </g>
    </g>
    <g id="text_10">
     <!-- $\varepsilon_n(k) - \varepsilon_{\mathrm{F}}$ (eV) -->
     <g transform="translate(146.7925 343.203781)scale(0.15 -0.15)">
      <defs>
       <path d="M 19.734375 29.5 
Q 14.453125 30.671875 12.15625 33.84375 
Q 10.453125 36.078125 10.453125 39.109375 
Q 10.453125 47.40625 18.359375 52.25 
Q 24.609375 56.0625 34.1875 56.0625 
Q 37.890625 56.0625 41.9375 55.46875 
Q 46 54.890625 50.53125 53.71875 
L 48.96875 45.5625 
Q 44.484375 46.96875 40.71875 47.609375 
Q 36.859375 48.25 33.40625 48.25 
Q 27.59375 48.25 23.78125 46 
Q 19.1875 43.3125 19.1875 39.40625 
Q 19.1875 36.8125 21.578125 35.015625 
Q 24.421875 32.859375 30.078125 32.859375 
L 37.640625 32.859375 
L 36.234375 25.4375 
L 29 25.4375 
Q 22.265625 25.4375 18.3125 22.953125 
Q 12.9375 19.578125 12.9375 14.3125 
Q 12.9375 10.984375 15.828125 8.796875 
Q 19.4375 6.0625 26.8125 6.0625 
Q 31.34375 6.0625 35.6875 6.9375 
Q 40.046875 7.859375 43.84375 9.671875 
L 42.1875 1.3125 
Q 37.546875 -0.046875 33.296875 -0.734375 
Q 29.046875 -1.421875 25.140625 -1.421875 
Q 13.53125 -1.421875 8.0625 3.03125 
Q 3.90625 6.453125 3.90625 12.203125 
Q 3.90625 19.96875 9.375 24.75 
Q 13.421875 28.328125 19.734375 29.5 
z
" id="DejaVuSans-Oblique-949"/>
       <path d="M 55.71875 33.015625 
L 49.3125 0 
L 40.28125 0 
L 46.6875 32.671875 
Q 47.125 34.96875 47.359375 36.71875 
Q 47.609375 38.484375 47.609375 39.5 
Q 47.609375 43.609375 45.015625 45.890625 
Q 42.4375 48.1875 37.796875 48.1875 
Q 30.5625 48.1875 25.34375 43.375 
Q 20.125 38.578125 18.5 30.328125 
L 12.5 0 
L 3.515625 0 
L 14.109375 54.6875 
L 23.09375 54.6875 
L 21.296875 46.09375 
Q 25.046875 50.828125 30.3125 53.40625 
Q 35.59375 56 41.40625 56 
Q 48.640625 56 52.609375 52.09375 
Q 56.59375 48.1875 56.59375 41.109375 
Q 56.59375 39.359375 56.375 37.359375 
Q 56.15625 35.359375 55.71875 33.015625 
z
" id="DejaVuSans-Oblique-110"/>
       <path d="M 31 75.875 
Q 24.46875 64.65625 21.28125 53.65625 
Q 18.109375 42.671875 18.109375 31.390625 
Q 18.109375 20.125 21.3125 9.0625 
Q 24.515625 -2 31 -13.1875 
L 23.1875 -13.1875 
Q 15.875 -1.703125 12.234375 9.375 
Q 8.59375 20.453125 8.59375 31.390625 
Q 8.59375 42.28125 12.203125 53.3125 
Q 15.828125 64.359375 23.1875 75.875 
z
" id="DejaVuSans-40"/>
       <path d="M 18.3125 75.984375 
L 27.296875 75.984375 
L 18.703125 31.6875 
L 49.515625 54.6875 
L 61.1875 54.6875 
L 26.8125 28.515625 
L 51.90625 0 
L 41.015625 0 
L 17.671875 26.703125 
L 12.5 0 
L 3.515625 0 
z
" id="DejaVuSans-Oblique-107"/>
       <path d="M 8.015625 75.875 
L 15.828125 75.875 
Q 23.140625 64.359375 26.78125 53.3125 
Q 30.421875 42.28125 30.421875 31.390625 
Q 30.421875 20.453125 26.78125 9.375 
Q 23.140625 -1.703125 15.828125 -13.1875 
L 8.015625 -13.1875 
Q 14.5 -2 17.703125 9.0625 
Q 20.90625 20.125 20.90625 31.390625 
Q 20.90625 42.671875 17.703125 53.65625 
Q 14.5 64.65625 8.015625 75.875 
z
" id="DejaVuSans-41"/>
       <path d="M 9.8125 72.90625 
L 51.703125 72.90625 
L 51.703125 64.59375 
L 19.671875 64.59375 
L 19.671875 43.109375 
L 48.578125 43.109375 
L 48.578125 34.8125 
L 19.671875 34.8125 
L 19.671875 0 
L 9.8125 0 
z
" id="DejaVuSans-70"/>
       <path id="DejaVuSans-32"/>
       <path d="M 56.203125 29.59375 
L 56.203125 25.203125 
L 14.890625 25.203125 
Q 15.484375 15.921875 20.484375 11.0625 
Q 25.484375 6.203125 34.421875 6.203125 
Q 39.59375 6.203125 44.453125 7.46875 
Q 49.3125 8.734375 54.109375 11.28125 
L 54.109375 2.78125 
Q 49.265625 0.734375 44.1875 -0.34375 
Q 39.109375 -1.421875 33.890625 -1.421875 
Q 20.796875 -1.421875 13.15625 6.1875 
Q 5.515625 13.8125 5.515625 26.8125 
Q 5.515625 40.234375 12.765625 48.109375 
Q 20.015625 56 32.328125 56 
Q 43.359375 56 49.78125 48.890625 
Q 56.203125 41.796875 56.203125 29.59375 
z
M 47.21875 32.234375 
Q 47.125 39.59375 43.09375 43.984375 
Q 39.0625 48.390625 32.421875 48.390625 
Q 24.90625 48.390625 20.390625 44.140625 
Q 15.875 39.890625 15.1875 32.171875 
z
" id="DejaVuSans-101"/>
       <path d="M 28.609375 0 
L 0.78125 72.90625 
L 11.078125 72.90625 
L 34.1875 11.53125 
L 57.328125 72.90625 
L 67.578125 72.90625 
L 39.796875 0 
z
" id="DejaVuSans-86"/>
      </defs>
      <use transform="translate(0 0.015625)" xlink:href="#DejaVuSans-Oblique-949"/>
      <use transform="translate(54.052734 -16.390625)scale(0.7)" xlink:href="#DejaVuSans-Oblique-110"/>
      <use transform="translate(101.152344 0.015625)" xlink:href="#DejaVuSans-40"/>
      <use transform="translate(140.166016 0.015625)" xlink:href="#DejaVuSans-Oblique-107"/>
      <use transform="translate(198.076172 0.015625)" xlink:href="#DejaVuSans-41"/>
      <use transform="translate(256.572266 0.015625)" xlink:href="#DejaVuSans-8722"/>
      <use transform="translate(359.84375 0.015625)" xlink:href="#DejaVuSans-Oblique-949"/>
      <use transform="translate(413.896484 -16.390625)scale(0.7)" xlink:href="#DejaVuSans-70"/>
      <use transform="translate(456.894531 0.015625)" xlink:href="#DejaVuSans-32"/>
      <use transform="translate(488.681641 0.015625)" xlink:href="#DejaVuSans-40"/>
      <use transform="translate(527.695312 0.015625)" xlink:href="#DejaVuSans-101"/>
      <use transform="translate(589.21875 0.015625)" xlink:href="#DejaVuSans-86"/>
      <use transform="translate(657.626953 0.015625)" xlink:href="#DejaVuSans-41"/>
     </g>
    </g>
   </g>
   <g id="matplotlib.axis_2">
    <g id="ytick_1">
     <g id="line2d_10">
      <defs>
       <path d="M 0 0 
L -3.5 0 
" id="m84d739282b" style="stroke:#000000;stroke-width:0.8;"/>
      </defs>
      <g>
       <use style="stroke:#000000;stroke-width:0.8;" x="52.13" xlink:href="#m84d739282b" y="311.128"/>
      </g>
     </g>
     <g id="text_11">
      <!-- 0.0 -->
      <g transform="translate(29.226875 314.927219)scale(0.1 -0.1)">
       <defs>
        <path d="M 10.6875 12.40625 
L 21 12.40625 
L 21 0 
L 10.6875 0 
z
" id="DejaVuSans-46"/>
       </defs>
       <use xlink:href="#DejaVuSans-48"/>
       <use x="63.623047" xlink:href="#DejaVuSans-46"/>
       <use x="95.410156" xlink:href="#DejaVuSans-48"/>
      </g>
     </g>
    </g>
    <g id="ytick_2">
     <g id="line2d_11">
      <g>
       <use style="stroke:#000000;stroke-width:0.8;" x="52.13" xlink:href="#m84d739282b" y="272.370952"/>
      </g>
     </g>
     <g id="text_12">
      <!-- 0.2 -->
      <g transform="translate(29.226875 276.17017)scale(0.1 -0.1)">
       <use xlink:href="#DejaVuSans-48"/>
       <use x="63.623047" xlink:href="#DejaVuSans-46"/>
       <use x="95.410156" xlink:href="#DejaVuSans-50"/>
      </g>
     </g>
    </g>
    <g id="ytick_3">
     <g id="line2d_12">
      <g>
       <use style="stroke:#000000;stroke-width:0.8;" x="52.13" xlink:href="#m84d739282b" y="233.613903"/>
      </g>
     </g>
     <g id="text_13">
      <!-- 0.4 -->
      <g transform="translate(29.226875 237.413122)scale(0.1 -0.1)">
       <use xlink:href="#DejaVuSans-48"/>
       <use x="63.623047" xlink:href="#DejaVuSans-46"/>
       <use x="95.410156" xlink:href="#DejaVuSans-52"/>
      </g>
     </g>
    </g>
    <g id="ytick_4">
     <g id="line2d_13">
      <g>
       <use style="stroke:#000000;stroke-width:0.8;" x="52.13" xlink:href="#m84d739282b" y="194.856855"/>
      </g>
     </g>
     <g id="text_14">
      <!-- 0.6 -->
      <g transform="translate(29.226875 198.656074)scale(0.1 -0.1)">
       <use xlink:href="#DejaVuSans-48"/>
       <use x="63.623047" xlink:href="#DejaVuSans-46"/>
       <use x="95.410156" xlink:href="#DejaVuSans-54"/>
      </g>
     </g>
    </g>
    <g id="ytick_5">
     <g id="line2d_14">
      <g>
       <use style="stroke:#000000;stroke-width:0.8;" x="52.13" xlink:href="#m84d739282b" y="156.099807"/>
      </g>
     </g>
     <g id="text_15">
      <!-- 0.8 -->
      <g transform="translate(29.226875 159.899026)scale(0.1 -0.1)">
       <use xlink:href="#DejaVuSans-48"/>
       <use x="63.623047" xlink:href="#DejaVuSans-46"/>
       <use x="95.410156" xlink:href="#DejaVuSans-56"/>
      </g>
     </g>
    </g>
    <g id="ytick_6">
     <g id="line2d_15">
      <g>
       <use style="stroke:#000000;stroke-width:0.8;" x="52.13" xlink:href="#m84d739282b" y="117.342759"/>
      </g>
     </g>
     <g id="text_16">
      <!-- 1.0 -->
      <g transform="translate(29.226875 121.141977)scale(0.1 -0.1)">
       <defs>
        <path d="M 12.40625 8.296875 
L 28.515625 8.296875 
L 28.515625 63.921875 
L 10.984375 60.40625 
L 10.984375 69.390625 
L 28.421875 72.90625 
L 38.28125 72.90625 
L 38.28125 8.296875 
L 54.390625 8.296875 
L 54.390625 0 
L 12.40625 0 
z
" id="DejaVuSans-49"/>
       </defs>
       <use xlink:href="#DejaVuSans-49"/>
       <use x="63.623047" xlink:href="#DejaVuSans-46"/>
       <use x="95.410156" xlink:href="#DejaVuSans-48"/>
      </g>
     </g>
    </g>
    <g id="ytick_7">
     <g id="line2d_16">
      <g>
       <use style="stroke:#000000;stroke-width:0.8;" x="52.13" xlink:href="#m84d739282b" y="78.58571"/>
      </g>
     </g>
     <g id="text_17">
      <!-- 1.2 -->
      <g transform="translate(29.226875 82.384929)scale(0.1 -0.1)">
       <use xlink:href="#DejaVuSans-49"/>
       <use x="63.623047" xlink:href="#DejaVuSans-46"/>
       <use x="95.410156" xlink:href="#DejaVuSans-50"/>
      </g>
     </g>
    </g>
    <g id="ytick_8">
     <g id="line2d_17">
      <g>
       <use style="stroke:#000000;stroke-width:0.8;" x="52.13" xlink:href="#m84d739282b" y="39.828662"/>
      </g>
     </g>
     <g id="text_18">
      <!-- 1.4 -->
      <g transform="translate(29.226875 43.627881)scale(0.1 -0.1)">
       <use xlink:href="#DejaVuSans-49"/>
       <use x="63.623047" xlink:href="#DejaVuSans-46"/>
       <use x="95.410156" xlink:href="#DejaVuSans-52"/>
      </g>
     </g>
    </g>
    <g id="text_19">
     <!-- Density of States (1/eV) -->
     <g transform="translate(22.107344 250.512828)rotate(-90)scale(0.15 -0.15)">
      <defs>
       <path d="M 19.671875 64.796875 
L 19.671875 8.109375 
L 31.59375 8.109375 
Q 46.6875 8.109375 53.6875 14.9375 
Q 60.6875 21.78125 60.6875 36.53125 
Q 60.6875 51.171875 53.6875 57.984375 
Q 46.6875 64.796875 31.59375 64.796875 
z
M 9.8125 72.90625 
L 30.078125 72.90625 
Q 51.265625 72.90625 61.171875 64.09375 
Q 71.09375 55.28125 71.09375 36.53125 
Q 71.09375 17.671875 61.125 8.828125 
Q 51.171875 0 30.078125 0 
L 9.8125 0 
z
" id="DejaVuSans-68"/>
       <path d="M 54.890625 33.015625 
L 54.890625 0 
L 45.90625 0 
L 45.90625 32.71875 
Q 45.90625 40.484375 42.875 44.328125 
Q 39.84375 48.1875 33.796875 48.1875 
Q 26.515625 48.1875 22.3125 43.546875 
Q 18.109375 38.921875 18.109375 30.90625 
L 18.109375 0 
L 9.078125 0 
L 9.078125 54.6875 
L 18.109375 54.6875 
L 18.109375 46.1875 
Q 21.34375 51.125 25.703125 53.5625 
Q 30.078125 56 35.796875 56 
Q 45.21875 56 50.046875 50.171875 
Q 54.890625 44.34375 54.890625 33.015625 
z
" id="DejaVuSans-110"/>
       <path d="M 44.28125 53.078125 
L 44.28125 44.578125 
Q 40.484375 46.53125 36.375 47.5 
Q 32.28125 48.484375 27.875 48.484375 
Q 21.1875 48.484375 17.84375 46.4375 
Q 14.5 44.390625 14.5 40.28125 
Q 14.5 37.15625 16.890625 35.375 
Q 19.28125 33.59375 26.515625 31.984375 
L 29.59375 31.296875 
Q 39.15625 29.25 43.1875 25.515625 
Q 47.21875 21.78125 47.21875 15.09375 
Q 47.21875 7.46875 41.1875 3.015625 
Q 35.15625 -1.421875 24.609375 -1.421875 
Q 20.21875 -1.421875 15.453125 -0.5625 
Q 10.6875 0.296875 5.421875 2 
L 5.421875 11.28125 
Q 10.40625 8.6875 15.234375 7.390625 
Q 20.0625 6.109375 24.8125 6.109375 
Q 31.15625 6.109375 34.5625 8.28125 
Q 37.984375 10.453125 37.984375 14.40625 
Q 37.984375 18.0625 35.515625 20.015625 
Q 33.0625 21.96875 24.703125 23.78125 
L 21.578125 24.515625 
Q 13.234375 26.265625 9.515625 29.90625 
Q 5.8125 33.546875 5.8125 39.890625 
Q 5.8125 47.609375 11.28125 51.796875 
Q 16.75 56 26.8125 56 
Q 31.78125 56 36.171875 55.265625 
Q 40.578125 54.546875 44.28125 53.078125 
z
" id="DejaVuSans-115"/>
       <path d="M 9.421875 54.6875 
L 18.40625 54.6875 
L 18.40625 0 
L 9.421875 0 
z
M 9.421875 75.984375 
L 18.40625 75.984375 
L 18.40625 64.59375 
L 9.421875 64.59375 
z
" id="DejaVuSans-105"/>
       <path d="M 18.3125 70.21875 
L 18.3125 54.6875 
L 36.8125 54.6875 
L 36.8125 47.703125 
L 18.3125 47.703125 
L 18.3125 18.015625 
Q 18.3125 11.328125 20.140625 9.421875 
Q 21.96875 7.515625 27.59375 7.515625 
L 36.8125 7.515625 
L 36.8125 0 
L 27.59375 0 
Q 17.1875 0 13.234375 3.875 
Q 9.28125 7.765625 9.28125 18.015625 
L 9.28125 47.703125 
L 2.6875 47.703125 
L 2.6875 54.6875 
L 9.28125 54.6875 
L 9.28125 70.21875 
z
" id="DejaVuSans-116"/>
       <path d="M 32.171875 -5.078125 
Q 28.375 -14.84375 24.75 -17.8125 
Q 21.140625 -20.796875 15.09375 -20.796875 
L 7.90625 -20.796875 
L 7.90625 -13.28125 
L 13.1875 -13.28125 
Q 16.890625 -13.28125 18.9375 -11.515625 
Q 21 -9.765625 23.484375 -3.21875 
L 25.09375 0.875 
L 2.984375 54.6875 
L 12.5 54.6875 
L 29.59375 11.921875 
L 46.6875 54.6875 
L 56.203125 54.6875 
z
" id="DejaVuSans-121"/>
       <path d="M 30.609375 48.390625 
Q 23.390625 48.390625 19.1875 42.75 
Q 14.984375 37.109375 14.984375 27.296875 
Q 14.984375 17.484375 19.15625 11.84375 
Q 23.34375 6.203125 30.609375 6.203125 
Q 37.796875 6.203125 41.984375 11.859375 
Q 46.1875 17.53125 46.1875 27.296875 
Q 46.1875 37.015625 41.984375 42.703125 
Q 37.796875 48.390625 30.609375 48.390625 
z
M 30.609375 56 
Q 42.328125 56 49.015625 48.375 
Q 55.71875 40.765625 55.71875 27.296875 
Q 55.71875 13.875 49.015625 6.21875 
Q 42.328125 -1.421875 30.609375 -1.421875 
Q 18.84375 -1.421875 12.171875 6.21875 
Q 5.515625 13.875 5.515625 27.296875 
Q 5.515625 40.765625 12.171875 48.375 
Q 18.84375 56 30.609375 56 
z
" id="DejaVuSans-111"/>
       <path d="M 37.109375 75.984375 
L 37.109375 68.5 
L 28.515625 68.5 
Q 23.6875 68.5 21.796875 66.546875 
Q 19.921875 64.59375 19.921875 59.515625 
L 19.921875 54.6875 
L 34.71875 54.6875 
L 34.71875 47.703125 
L 19.921875 47.703125 
L 19.921875 0 
L 10.890625 0 
L 10.890625 47.703125 
L 2.296875 47.703125 
L 2.296875 54.6875 
L 10.890625 54.6875 
L 10.890625 58.5 
Q 10.890625 67.625 15.140625 71.796875 
Q 19.390625 75.984375 28.609375 75.984375 
z
" id="DejaVuSans-102"/>
       <path d="M 53.515625 70.515625 
L 53.515625 60.890625 
Q 47.90625 63.578125 42.921875 64.890625 
Q 37.9375 66.21875 33.296875 66.21875 
Q 25.25 66.21875 20.875 63.09375 
Q 16.5 59.96875 16.5 54.203125 
Q 16.5 49.359375 19.40625 46.890625 
Q 22.3125 44.4375 30.421875 42.921875 
L 36.375 41.703125 
Q 47.40625 39.59375 52.65625 34.296875 
Q 57.90625 29 57.90625 20.125 
Q 57.90625 9.515625 50.796875 4.046875 
Q 43.703125 -1.421875 29.984375 -1.421875 
Q 24.8125 -1.421875 18.96875 -0.25 
Q 13.140625 0.921875 6.890625 3.21875 
L 6.890625 13.375 
Q 12.890625 10.015625 18.65625 8.296875 
Q 24.421875 6.59375 29.984375 6.59375 
Q 38.421875 6.59375 43.015625 9.90625 
Q 47.609375 13.234375 47.609375 19.390625 
Q 47.609375 24.75 44.3125 27.78125 
Q 41.015625 30.8125 33.5 32.328125 
L 27.484375 33.5 
Q 16.453125 35.6875 11.515625 40.375 
Q 6.59375 45.0625 6.59375 53.421875 
Q 6.59375 63.09375 13.40625 68.65625 
Q 20.21875 74.21875 32.171875 74.21875 
Q 37.3125 74.21875 42.625 73.28125 
Q 47.953125 72.359375 53.515625 70.515625 
z
" id="DejaVuSans-83"/>
       <path d="M 34.28125 27.484375 
Q 23.390625 27.484375 19.1875 25 
Q 14.984375 22.515625 14.984375 16.5 
Q 14.984375 11.71875 18.140625 8.90625 
Q 21.296875 6.109375 26.703125 6.109375 
Q 34.1875 6.109375 38.703125 11.40625 
Q 43.21875 16.703125 43.21875 25.484375 
L 43.21875 27.484375 
z
M 52.203125 31.203125 
L 52.203125 0 
L 43.21875 0 
L 43.21875 8.296875 
Q 40.140625 3.328125 35.546875 0.953125 
Q 30.953125 -1.421875 24.3125 -1.421875 
Q 15.921875 -1.421875 10.953125 3.296875 
Q 6 8.015625 6 15.921875 
Q 6 25.140625 12.171875 29.828125 
Q 18.359375 34.515625 30.609375 34.515625 
L 43.21875 34.515625 
L 43.21875 35.40625 
Q 43.21875 41.609375 39.140625 45 
Q 35.0625 48.390625 27.6875 48.390625 
Q 23 48.390625 18.546875 47.265625 
Q 14.109375 46.140625 10.015625 43.890625 
L 10.015625 52.203125 
Q 14.9375 54.109375 19.578125 55.046875 
Q 24.21875 56 28.609375 56 
Q 40.484375 56 46.34375 49.84375 
Q 52.203125 43.703125 52.203125 31.203125 
z
" id="DejaVuSans-97"/>
       <path d="M 25.390625 72.90625 
L 33.6875 72.90625 
L 8.296875 -9.28125 
L 0 -9.28125 
z
" id="DejaVuSans-47"/>
      </defs>
      <use xlink:href="#DejaVuSans-68"/>
      <use x="77.001953" xlink:href="#DejaVuSans-101"/>
      <use x="138.525391" xlink:href="#DejaVuSans-110"/>
      <use x="201.904297" xlink:href="#DejaVuSans-115"/>
      <use x="254.003906" xlink:href="#DejaVuSans-105"/>
      <use x="281.787109" xlink:href="#DejaVuSans-116"/>
      <use x="320.996094" xlink:href="#DejaVuSans-121"/>
      <use x="380.175781" xlink:href="#DejaVuSans-32"/>
      <use x="411.962891" xlink:href="#DejaVuSans-111"/>
      <use x="473.144531" xlink:href="#DejaVuSans-102"/>
      <use x="508.349609" xlink:href="#DejaVuSans-32"/>
      <use x="540.136719" xlink:href="#DejaVuSans-83"/>
      <use x="603.613281" xlink:href="#DejaVuSans-116"/>
      <use x="642.822266" xlink:href="#DejaVuSans-97"/>
      <use x="704.101562" xlink:href="#DejaVuSans-116"/>
      <use x="743.310547" xlink:href="#DejaVuSans-101"/>
      <use x="804.833984" xlink:href="#DejaVuSans-115"/>
      <use x="856.933594" xlink:href="#DejaVuSans-32"/>
      <use x="888.720703" xlink:href="#DejaVuSans-40"/>
      <use x="927.734375" xlink:href="#DejaVuSans-49"/>
      <use x="991.357422" xlink:href="#DejaVuSans-47"/>
      <use x="1025.048828" xlink:href="#DejaVuSans-101"/>
      <use x="1086.572266" xlink:href="#DejaVuSans-86"/>
      <use x="1154.980469" xlink:href="#DejaVuSans-41"/>
     </g>
    </g>
   </g>
   <g id="line2d_18">
    <path clip-path="url(#pd2390ad871)" d="M 51.935871 263.229556 
L 53.780307 264.693514 
L 55.394189 265.581997 
L 56.085852 265.934502 
L 59.544169 266.918326 
L 61.388605 267.259796 
L 62.771932 267.329514 
L 63.69415 267.304146 
L 65.999695 266.828942 
L 66.921913 266.289683 
L 67.383022 265.862656 
L 67.844131 265.174483 
L 68.30524 263.975527 
L 68.766349 261.931338 
L 69.227458 258.698923 
L 69.919121 251.291871 
L 71.302448 234.115952 
L 71.763557 231.621875 
L 71.994112 231.394618 
L 72.224666 231.814885 
L 72.685775 234.226732 
L 74.760766 249.303791 
L 75.452429 251.898081 
L 76.144093 253.588806 
L 77.066311 255.114601 
L 77.988529 256.140886 
L 79.141301 257.004075 
L 80.063519 257.454178 
L 81.216291 257.784984 
L 82.369064 257.903846 
L 83.752391 257.798935 
L 85.135718 257.433312 
L 86.519045 256.807895 
L 87.902372 255.880354 
L 89.055144 254.845471 
L 90.207917 253.518219 
L 91.360689 251.810093 
L 92.513461 249.614365 
L 93.435679 247.350146 
L 94.357897 244.461972 
L 95.049561 241.671116 
L 95.741224 237.936427 
L 96.202333 234.446998 
L 96.663442 229.332819 
L 97.124551 221.171977 
L 97.58566 207.746106 
L 98.046769 186.406507 
L 98.507878 155.359343 
L 100.12176 29.361467 
L 100.352314 25.101333 
L 100.582869 27.561104 
L 100.813423 36.823836 
L 101.274532 73.156291 
L 102.888413 240.279551 
L 103.349522 265.506723 
L 103.810631 279.610964 
L 104.27174 286.334948 
L 104.732849 288.973334 
L 104.963404 289.471359 
L 105.193958 289.655484 
L 105.424513 289.629431 
L 105.885622 289.167968 
L 106.346731 288.286561 
L 106.80784 286.94243 
L 107.268949 284.98008 
L 107.960612 280.577651 
L 109.343939 269.752104 
L 109.805048 268.142423 
L 110.035603 268.077553 
L 110.266157 268.512172 
L 110.727266 270.632415 
L 111.649484 276.344137 
L 111.880039 277.209147 
L 112.110593 277.595983 
L 112.341148 277.432427 
L 112.571702 276.689633 
L 113.032811 273.587132 
L 114.646692 259.072803 
L 114.877247 258.439187 
L 115.107801 258.370378 
L 115.338356 258.823374 
L 115.799465 260.958061 
L 117.643901 272.467416 
L 118.335564 275.124422 
L 119.027228 277.027783 
L 119.949446 278.8649 
L 121.102218 280.565448 
L 122.254991 281.833519 
L 123.638318 283.017733 
L 125.252199 284.059796 
L 126.86608 284.841267 
L 128.710516 285.504978 
L 130.785507 286.015468 
L 133.091052 286.331192 
L 135.396597 286.3984 
L 137.471587 286.23294 
L 139.546577 285.805739 
L 141.391013 285.126825 
L 142.543786 284.476402 
L 143.696558 283.615336 
L 144.618776 282.624353 
L 145.31044 281.638925 
L 146.002103 280.27278 
L 146.693767 278.249973 
L 147.38543 275.413988 
L 148.538202 270.289887 
L 148.768757 269.717418 
L 148.999311 269.479555 
L 149.229866 269.640653 
L 149.46042 270.238999 
L 149.921529 272.726329 
L 150.613193 278.695636 
L 151.535411 286.462817 
L 151.99652 288.904322 
L 152.457629 290.24336 
L 152.688183 290.557696 
L 152.918738 290.67646 
L 153.149292 290.629018 
L 153.610401 290.125857 
L 154.07151 289.145519 
L 154.532619 287.618565 
L 154.993728 285.297152 
L 155.454837 281.834493 
L 156.146501 274.063857 
L 157.529828 255.844257 
L 157.990937 253.099857 
L 158.221491 252.841698 
L 158.452045 253.318376 
L 158.913154 256.137198 
L 159.835372 265.345162 
L 160.527036 271.441848 
L 161.218699 275.404007 
L 161.910363 277.709976 
L 162.602026 279.048836 
L 163.063135 279.578614 
L 163.754799 279.969536 
L 164.446462 280.041069 
L 165.138126 279.834211 
L 165.599235 279.472291 
L 166.060344 278.881546 
L 166.521453 278.024937 
L 166.982562 276.80526 
L 167.443671 274.984245 
L 167.90478 272.142608 
L 168.365889 267.734102 
L 168.826998 261.289645 
L 169.518661 248.017383 
L 170.210324 234.317746 
L 170.671433 228.960541 
L 170.901988 228.3385 
L 171.132542 229.327272 
L 171.363097 231.949177 
L 171.824206 241.493455 
L 173.438087 284.634645 
L 173.899196 291.339086 
L 174.360305 295.268359 
L 174.821414 297.371173 
L 175.282523 298.457235 
L 175.743632 299.027817 
L 176.435296 299.441558 
L 178.971395 300.262608 
L 180.815831 300.614006 
L 181.738049 300.78226 
L 182.890821 300.855078 
L 184.274148 301.137483 
L 185.657475 301.194348 
L 186.579693 301.341858 
L 187.040802 301.216663 
L 187.501911 300.794923 
L 187.96302 299.761138 
L 188.424129 297.426249 
L 188.885238 292.693404 
L 189.346347 284.34626 
L 189.807456 271.686007 
L 191.651892 210.670207 
L 191.882447 207.961079 
L 192.113001 207.094445 
L 192.343555 207.950234 
L 192.57411 210.291218 
L 193.035219 218.126076 
L 194.418546 245.28774 
L 195.110209 254.024727 
L 195.801873 259.802545 
L 196.493536 263.795613 
L 197.415754 267.592965 
L 198.337972 270.484275 
L 199.26019 272.723519 
L 200.643517 275.230221 
L 201.79629 277.055329 
L 202.718508 277.995024 
L 203.640725 279.032406 
L 204.562943 280.024249 
L 205.485161 280.498476 
L 206.176825 280.987614 
L 207.329597 281.952985 
L 208.021261 282.103752 
L 208.712924 282.280873 
L 210.326806 283.156331 
L 211.940687 283.172893 
L 212.862905 283.466898 
L 213.324014 283.392621 
L 214.015678 282.962777 
L 215.399004 281.95566 
L 215.860113 281.129219 
L 216.321222 279.486674 
L 216.782331 276.770849 
L 217.473995 270.726277 
L 218.857322 257.415524 
L 219.318431 255.499974 
L 219.548985 255.392206 
L 219.77954 255.870086 
L 220.240649 258.398877 
L 220.932312 264.622612 
L 221.85453 272.54854 
L 222.315639 275.126933 
L 223.007303 277.551132 
L 224.39063 281.029033 
L 224.851739 281.869122 
L 225.312848 282.374041 
L 226.46562 283.180535 
L 228.079501 285.050569 
L 228.771165 285.162775 
L 229.232274 285.259522 
L 229.693383 285.579167 
L 230.846155 286.706325 
L 231.307264 286.81512 
L 232.229482 286.747526 
L 232.690591 286.97452 
L 233.843364 287.963405 
L 234.304473 288.019525 
L 235.226691 287.814544 
L 235.6878 287.994569 
L 236.840572 288.906774 
L 237.301681 288.919733 
L 238.223899 288.64367 
L 238.685008 288.796247 
L 239.83778 289.640244 
L 240.298889 289.627555 
L 241.221107 289.305313 
L 241.682216 289.445664 
L 242.834989 290.226528 
L 243.296098 290.174353 
L 244.218316 289.860569 
L 244.679425 290.015852 
L 245.601643 290.61336 
L 246.062752 290.651464 
L 247.215524 290.367821 
L 247.676633 290.509981 
L 248.598851 290.951585 
L 249.290514 290.952298 
L 250.212732 290.809789 
L 250.904396 290.965 
L 252.057168 291.30433 
L 252.748832 291.22858 
L 253.67105 291.141814 
L 255.054377 291.467692 
L 255.515486 291.145601 
L 255.976595 290.266326 
L 256.437704 288.546991 
L 256.898813 285.462762 
L 257.359922 280.184822 
L 257.821031 271.796816 
L 258.28214 259.752527 
L 258.973803 235.516257 
L 261.048793 155.649977 
L 261.509902 146.802404 
L 261.740457 145.35116 
L 261.971011 146.17107 
L 262.201566 149.303608 
L 262.662675 161.801272 
L 264.507111 229.143121 
L 264.96822 237.723391 
L 265.429329 243.260078 
L 266.120992 248.356512 
L 266.582101 250.504773 
L 267.04321 251.927524 
L 267.734874 253.207603 
L 268.657092 254.800872 
L 269.57931 256.54562 
L 270.040419 257.088464 
L 270.962636 257.656395 
L 271.6543 258.235813 
L 272.807072 259.315259 
L 273.498736 259.540887 
L 274.651508 259.775733 
L 276.034835 260.303311 
L 276.726499 260.217163 
L 277.879271 259.997976 
L 279.032044 259.904902 
L 279.723707 259.49163 
L 281.798697 257.644155 
L 282.259806 256.602298 
L 282.720915 254.644385 
L 283.182024 250.960135 
L 283.643133 244.090189 
L 284.104242 231.984995 
L 284.565351 212.695933 
L 285.257015 169.638201 
L 286.409787 88.840718 
L 286.870896 68.818686 
L 287.332005 59.858545 
L 287.56256 58.867684 
L 287.793114 59.421138 
L 288.484778 63.108535 
L 288.715332 62.93798 
L 288.945887 61.467557 
L 289.406996 54.85556 
L 290.098659 41.995167 
L 290.329214 39.328109 
L 290.559768 38.429965 
L 290.790323 39.69665 
L 291.020877 43.351028 
L 291.481986 57.822824 
L 292.17365 93.607935 
L 293.556976 172.165918 
L 294.018085 189.259434 
L 294.479194 200.049859 
L 294.940303 205.616813 
L 295.401412 207.804457 
L 295.862521 208.438845 
L 296.784739 208.93085 
L 297.015294 208.910431 
L 297.245848 208.684891 
L 297.476403 208.157367 
L 297.937512 205.894599 
L 298.398621 201.892231 
L 299.781948 187.849244 
L 300.012502 186.916857 
L 300.243057 186.671481 
L 300.473611 187.100531 
L 300.93472 189.676191 
L 301.626384 195.999938 
L 302.779156 206.329842 
L 303.47082 210.681637 
L 304.162483 213.60492 
L 304.854146 215.583324 
L 306.006919 218.211846 
L 306.468028 218.92272 
L 306.929137 219.263534 
L 307.390246 219.252035 
L 307.851355 218.975123 
L 308.312464 218.443912 
L 308.773573 217.496441 
L 309.234682 215.829835 
L 309.695791 213.157295 
L 310.387454 207.30433 
L 311.079118 201.11388 
L 311.540227 198.654658 
L 311.770781 198.323548 
L 312.001336 198.683874 
L 312.23189 199.736702 
L 312.692999 203.65333 
L 314.76799 226.13322 
L 315.229098 228.626097 
L 315.690207 230.301585 
L 316.151316 231.393511 
L 316.612425 232.055059 
L 317.304089 232.533925 
L 318.687416 233.065648 
L 319.148525 233.041154 
L 319.609634 232.782253 
L 320.301297 232.028929 
L 320.762406 231.293067 
L 321.223515 230.107636 
L 321.684624 227.938007 
L 322.145733 224.181663 
L 322.837397 215.229674 
L 323.990169 199.054314 
L 324.451278 196.027014 
L 324.681833 195.573946 
L 324.912387 195.759594 
L 325.142942 196.472457 
L 325.604051 198.915447 
L 326.526268 204.253191 
L 326.987377 205.886638 
L 327.217932 206.334177 
L 327.448486 206.519138 
L 327.679041 206.42922 
L 327.909595 206.050762 
L 328.370704 204.38412 
L 328.831813 201.531787 
L 330.21514 190.857485 
L 330.676249 189.391755 
L 330.906804 189.323678 
L 331.137358 189.612295 
L 331.829022 191.018593 
L 332.059576 191.014342 
L 332.290131 190.485587 
L 332.520685 189.342014 
L 332.981794 185.269248 
L 334.134567 172.661303 
L 334.365121 171.472601 
L 334.595676 171.051847 
L 334.82623 171.393282 
L 335.056785 172.41837 
L 335.517894 175.936435 
L 336.440112 183.711923 
L 336.901221 185.432218 
L 337.131775 185.385886 
L 337.36233 184.657261 
L 337.592884 183.208135 
L 338.053993 178.071513 
L 338.515102 170.045267 
L 340.128983 135.515042 
L 340.359538 133.063487 
L 340.590092 131.838347 
L 340.820647 131.833706 
L 341.051201 132.929955 
L 341.51231 137.477244 
L 342.203974 145.509846 
L 342.665083 148.476377 
L 342.895637 148.781849 
L 343.126192 148.258833 
L 343.356746 146.941008 
L 343.817855 142.216981 
L 344.509519 131.574803 
L 345.201182 120.810647 
L 345.662291 116.955155 
L 345.892846 116.829042 
L 346.1234 118.147206 
L 346.1234 118.147206 
" style="fill:none;stroke:#ff0000;stroke-linecap:square;stroke-width:2;"/>
   </g>
   <g id="patch_3">
    <path d="M 52.13 311.128 
L 52.13 10.8 
" style="fill:none;stroke:#000000;stroke-linecap:square;stroke-linejoin:miter;stroke-width:0.8;"/>
   </g>
   <g id="patch_4">
    <path d="M 346.005 311.128 
L 346.005 10.8 
" style="fill:none;stroke:#000000;stroke-linecap:square;stroke-linejoin:miter;stroke-width:0.8;"/>
   </g>
   <g id="patch_5">
    <path d="M 52.13 311.128 
L 346.005 311.128 
" style="fill:none;stroke:#000000;stroke-linecap:square;stroke-linejoin:miter;stroke-width:0.8;"/>
   </g>
   <g id="patch_6">
    <path d="M 52.13 10.8 
L 346.005 10.8 
" style="fill:none;stroke:#000000;stroke-linecap:square;stroke-linejoin:miter;stroke-width:0.8;"/>
   </g>
  </g>
 </g>
 <defs>
  <clipPath id="pd2390ad871">
   <rect height="300.328" width="293.875" x="52.13" y="10.8"/>
  </clipPath>
 </defs>
</svg>
