<?xml version="1.0" encoding="utf-8" standalone="no"?>
<!DOCTYPE svg PUBLIC "-//W3C//DTD SVG 1.1//EN"
  "http://www.w3.org/Graphics/SVG/1.1/DTD/svg11.dtd">
<!-- Created with matplotlib (https://matplotlib.org/) -->
<svg height="504pt" version="1.1" viewBox="0 0 360 504" width="360pt" xmlns="http://www.w3.org/2000/svg" xmlns:xlink="http://www.w3.org/1999/xlink">
 <metadata>
  <rdf:RDF xmlns:cc="http://creativecommons.org/ns#" xmlns:dc="http://purl.org/dc/elements/1.1/" xmlns:rdf="http://www.w3.org/1999/02/22-rdf-syntax-ns#">
   <cc:Work>
    <dc:type rdf:resource="http://purl.org/dc/dcmitype/StillImage"/>
    <dc:date>2021-03-09T16:30:50.982209</dc:date>
    <dc:format>image/svg+xml</dc:format>
    <dc:creator>
     <cc:Agent>
      <dc:title>Matplotlib v3.3.4, https://matplotlib.org/</dc:title>
     </cc:Agent>
    </dc:creator>
   </cc:Work>
  </rdf:RDF>
 </metadata>
 <defs>
  <style type="text/css">*{stroke-linecap:butt;stroke-linejoin:round;}</style>
 </defs>
 <g id="figure_1">
  <g id="patch_1">
   <path d="M 0 504 
L 360 504 
L 360 0 
L 0 0 
z
" style="fill:#ffffff;"/>
  </g>
  <g id="axes_1">
   <g id="patch_2">
    <path d="M 45 448.56 
L 324 448.56 
L 324 60.48 
L 45 60.48 
z
" style="fill:#ffffff;"/>
   </g>
   <g id="matplotlib.axis_1">
    <g id="xtick_1">
     <g id="line2d_1">
      <defs>
       <path d="M 0 0 
L 0 3.5 
" id="m12bc382697" style="stroke:#000000;stroke-width:0.8;"/>
      </defs>
      <g>
       <use style="stroke:#000000;stroke-width:0.8;" x="45" xlink:href="#m12bc382697" y="448.56"/>
      </g>
     </g>
     <g id="text_1">
      <!-- 0 -->
      <g transform="translate(41.81875 463.158437)scale(0.1 -0.1)">
       <defs>
        <path d="M 31.78125 66.40625 
Q 24.171875 66.40625 20.328125 58.90625 
Q 16.5 51.421875 16.5 36.375 
Q 16.5 21.390625 20.328125 13.890625 
Q 24.171875 6.390625 31.78125 6.390625 
Q 39.453125 6.390625 43.28125 13.890625 
Q 47.125 21.390625 47.125 36.375 
Q 47.125 51.421875 43.28125 58.90625 
Q 39.453125 66.40625 31.78125 66.40625 
z
M 31.78125 74.21875 
Q 44.046875 74.21875 50.515625 64.515625 
Q 56.984375 54.828125 56.984375 36.375 
Q 56.984375 17.96875 50.515625 8.265625 
Q 44.046875 -1.421875 31.78125 -1.421875 
Q 19.53125 -1.421875 13.0625 8.265625 
Q 6.59375 17.96875 6.59375 36.375 
Q 6.59375 54.828125 13.0625 64.515625 
Q 19.53125 74.21875 31.78125 74.21875 
z
" id="DejaVuSans-48"/>
       </defs>
       <use xlink:href="#DejaVuSans-48"/>
      </g>
     </g>
    </g>
    <g id="xtick_2">
     <g id="line2d_2">
      <g>
       <use style="stroke:#000000;stroke-width:0.8;" x="76" xlink:href="#m12bc382697" y="448.56"/>
      </g>
     </g>
     <g id="text_2">
      <!-- 2 -->
      <g transform="translate(72.81875 463.158437)scale(0.1 -0.1)">
       <defs>
        <path d="M 19.1875 8.296875 
L 53.609375 8.296875 
L 53.609375 0 
L 7.328125 0 
L 7.328125 8.296875 
Q 12.9375 14.109375 22.625 23.890625 
Q 32.328125 33.6875 34.8125 36.53125 
Q 39.546875 41.84375 41.421875 45.53125 
Q 43.3125 49.21875 43.3125 52.78125 
Q 43.3125 58.59375 39.234375 62.25 
Q 35.15625 65.921875 28.609375 65.921875 
Q 23.96875 65.921875 18.8125 64.3125 
Q 13.671875 62.703125 7.8125 59.421875 
L 7.8125 69.390625 
Q 13.765625 71.78125 18.9375 73 
Q 24.125 74.21875 28.421875 74.21875 
Q 39.75 74.21875 46.484375 68.546875 
Q 53.21875 62.890625 53.21875 53.421875 
Q 53.21875 48.921875 51.53125 44.890625 
Q 49.859375 40.875 45.40625 35.40625 
Q 44.1875 33.984375 37.640625 27.21875 
Q 31.109375 20.453125 19.1875 8.296875 
z
" id="DejaVuSans-50"/>
       </defs>
       <use xlink:href="#DejaVuSans-50"/>
      </g>
     </g>
    </g>
    <g id="xtick_3">
     <g id="line2d_3">
      <g>
       <use style="stroke:#000000;stroke-width:0.8;" x="107" xlink:href="#m12bc382697" y="448.56"/>
      </g>
     </g>
     <g id="text_3">
      <!-- 4 -->
      <g transform="translate(103.81875 463.158437)scale(0.1 -0.1)">
       <defs>
        <path d="M 37.796875 64.3125 
L 12.890625 25.390625 
L 37.796875 25.390625 
z
M 35.203125 72.90625 
L 47.609375 72.90625 
L 47.609375 25.390625 
L 58.015625 25.390625 
L 58.015625 17.1875 
L 47.609375 17.1875 
L 47.609375 0 
L 37.796875 0 
L 37.796875 17.1875 
L 4.890625 17.1875 
L 4.890625 26.703125 
z
" id="DejaVuSans-52"/>
       </defs>
       <use xlink:href="#DejaVuSans-52"/>
      </g>
     </g>
    </g>
    <g id="xtick_4">
     <g id="line2d_4">
      <g>
       <use style="stroke:#000000;stroke-width:0.8;" x="138" xlink:href="#m12bc382697" y="448.56"/>
      </g>
     </g>
     <g id="text_4">
      <!-- 6 -->
      <g transform="translate(134.81875 463.158437)scale(0.1 -0.1)">
       <defs>
        <path d="M 33.015625 40.375 
Q 26.375 40.375 22.484375 35.828125 
Q 18.609375 31.296875 18.609375 23.390625 
Q 18.609375 15.53125 22.484375 10.953125 
Q 26.375 6.390625 33.015625 6.390625 
Q 39.65625 6.390625 43.53125 10.953125 
Q 47.40625 15.53125 47.40625 23.390625 
Q 47.40625 31.296875 43.53125 35.828125 
Q 39.65625 40.375 33.015625 40.375 
z
M 52.59375 71.296875 
L 52.59375 62.3125 
Q 48.875 64.0625 45.09375 64.984375 
Q 41.3125 65.921875 37.59375 65.921875 
Q 27.828125 65.921875 22.671875 59.328125 
Q 17.53125 52.734375 16.796875 39.40625 
Q 19.671875 43.65625 24.015625 45.921875 
Q 28.375 48.1875 33.59375 48.1875 
Q 44.578125 48.1875 50.953125 41.515625 
Q 57.328125 34.859375 57.328125 23.390625 
Q 57.328125 12.15625 50.6875 5.359375 
Q 44.046875 -1.421875 33.015625 -1.421875 
Q 20.359375 -1.421875 13.671875 8.265625 
Q 6.984375 17.96875 6.984375 36.375 
Q 6.984375 53.65625 15.1875 63.9375 
Q 23.390625 74.21875 37.203125 74.21875 
Q 40.921875 74.21875 44.703125 73.484375 
Q 48.484375 72.75 52.59375 71.296875 
z
" id="DejaVuSans-54"/>
       </defs>
       <use xlink:href="#DejaVuSans-54"/>
      </g>
     </g>
    </g>
    <g id="xtick_5">
     <g id="line2d_5">
      <g>
       <use style="stroke:#000000;stroke-width:0.8;" x="169" xlink:href="#m12bc382697" y="448.56"/>
      </g>
     </g>
     <g id="text_5">
      <!-- 8 -->
      <g transform="translate(165.81875 463.158437)scale(0.1 -0.1)">
       <defs>
        <path d="M 31.78125 34.625 
Q 24.75 34.625 20.71875 30.859375 
Q 16.703125 27.09375 16.703125 20.515625 
Q 16.703125 13.921875 20.71875 10.15625 
Q 24.75 6.390625 31.78125 6.390625 
Q 38.8125 6.390625 42.859375 10.171875 
Q 46.921875 13.96875 46.921875 20.515625 
Q 46.921875 27.09375 42.890625 30.859375 
Q 38.875 34.625 31.78125 34.625 
z
M 21.921875 38.8125 
Q 15.578125 40.375 12.03125 44.71875 
Q 8.5 49.078125 8.5 55.328125 
Q 8.5 64.0625 14.71875 69.140625 
Q 20.953125 74.21875 31.78125 74.21875 
Q 42.671875 74.21875 48.875 69.140625 
Q 55.078125 64.0625 55.078125 55.328125 
Q 55.078125 49.078125 51.53125 44.71875 
Q 48 40.375 41.703125 38.8125 
Q 48.828125 37.15625 52.796875 32.3125 
Q 56.78125 27.484375 56.78125 20.515625 
Q 56.78125 9.90625 50.3125 4.234375 
Q 43.84375 -1.421875 31.78125 -1.421875 
Q 19.734375 -1.421875 13.25 4.234375 
Q 6.78125 9.90625 6.78125 20.515625 
Q 6.78125 27.484375 10.78125 32.3125 
Q 14.796875 37.15625 21.921875 38.8125 
z
M 18.3125 54.390625 
Q 18.3125 48.734375 21.84375 45.5625 
Q 25.390625 42.390625 31.78125 42.390625 
Q 38.140625 42.390625 41.71875 45.5625 
Q 45.3125 48.734375 45.3125 54.390625 
Q 45.3125 60.0625 41.71875 63.234375 
Q 38.140625 66.40625 31.78125 66.40625 
Q 25.390625 66.40625 21.84375 63.234375 
Q 18.3125 60.0625 18.3125 54.390625 
z
" id="DejaVuSans-56"/>
       </defs>
       <use xlink:href="#DejaVuSans-56"/>
      </g>
     </g>
    </g>
    <g id="xtick_6">
     <g id="line2d_6">
      <g>
       <use style="stroke:#000000;stroke-width:0.8;" x="200" xlink:href="#m12bc382697" y="448.56"/>
      </g>
     </g>
     <g id="text_6">
      <!-- 10 -->
      <g transform="translate(193.6375 463.158437)scale(0.1 -0.1)">
       <defs>
        <path d="M 12.40625 8.296875 
L 28.515625 8.296875 
L 28.515625 63.921875 
L 10.984375 60.40625 
L 10.984375 69.390625 
L 28.421875 72.90625 
L 38.28125 72.90625 
L 38.28125 8.296875 
L 54.390625 8.296875 
L 54.390625 0 
L 12.40625 0 
z
" id="DejaVuSans-49"/>
       </defs>
       <use xlink:href="#DejaVuSans-49"/>
       <use x="63.623047" xlink:href="#DejaVuSans-48"/>
      </g>
     </g>
    </g>
    <g id="xtick_7">
     <g id="line2d_7">
      <g>
       <use style="stroke:#000000;stroke-width:0.8;" x="231" xlink:href="#m12bc382697" y="448.56"/>
      </g>
     </g>
     <g id="text_7">
      <!-- 12 -->
      <g transform="translate(224.6375 463.158437)scale(0.1 -0.1)">
       <use xlink:href="#DejaVuSans-49"/>
       <use x="63.623047" xlink:href="#DejaVuSans-50"/>
      </g>
     </g>
    </g>
    <g id="xtick_8">
     <g id="line2d_8">
      <g>
       <use style="stroke:#000000;stroke-width:0.8;" x="262" xlink:href="#m12bc382697" y="448.56"/>
      </g>
     </g>
     <g id="text_8">
      <!-- 14 -->
      <g transform="translate(255.6375 463.158437)scale(0.1 -0.1)">
       <use xlink:href="#DejaVuSans-49"/>
       <use x="63.623047" xlink:href="#DejaVuSans-52"/>
      </g>
     </g>
    </g>
    <g id="xtick_9">
     <g id="line2d_9">
      <g>
       <use style="stroke:#000000;stroke-width:0.8;" x="293" xlink:href="#m12bc382697" y="448.56"/>
      </g>
     </g>
     <g id="text_9">
      <!-- 16 -->
      <g transform="translate(286.6375 463.158437)scale(0.1 -0.1)">
       <use xlink:href="#DejaVuSans-49"/>
       <use x="63.623047" xlink:href="#DejaVuSans-54"/>
      </g>
     </g>
    </g>
    <g id="xtick_10">
     <g id="line2d_10">
      <g>
       <use style="stroke:#000000;stroke-width:0.8;" x="324" xlink:href="#m12bc382697" y="448.56"/>
      </g>
     </g>
     <g id="text_10">
      <!-- 18 -->
      <g transform="translate(317.6375 463.158437)scale(0.1 -0.1)">
       <use xlink:href="#DejaVuSans-49"/>
       <use x="63.623047" xlink:href="#DejaVuSans-56"/>
      </g>
     </g>
    </g>
    <g id="text_11">
     <!-- Energy [eV] -->
     <g transform="translate(155.00625 476.836563)scale(0.1 -0.1)">
      <defs>
       <path d="M 9.8125 72.90625 
L 55.90625 72.90625 
L 55.90625 64.59375 
L 19.671875 64.59375 
L 19.671875 43.015625 
L 54.390625 43.015625 
L 54.390625 34.71875 
L 19.671875 34.71875 
L 19.671875 8.296875 
L 56.78125 8.296875 
L 56.78125 0 
L 9.8125 0 
z
" id="DejaVuSans-69"/>
       <path d="M 54.890625 33.015625 
L 54.890625 0 
L 45.90625 0 
L 45.90625 32.71875 
Q 45.90625 40.484375 42.875 44.328125 
Q 39.84375 48.1875 33.796875 48.1875 
Q 26.515625 48.1875 22.3125 43.546875 
Q 18.109375 38.921875 18.109375 30.90625 
L 18.109375 0 
L 9.078125 0 
L 9.078125 54.6875 
L 18.109375 54.6875 
L 18.109375 46.1875 
Q 21.34375 51.125 25.703125 53.5625 
Q 30.078125 56 35.796875 56 
Q 45.21875 56 50.046875 50.171875 
Q 54.890625 44.34375 54.890625 33.015625 
z
" id="DejaVuSans-110"/>
       <path d="M 56.203125 29.59375 
L 56.203125 25.203125 
L 14.890625 25.203125 
Q 15.484375 15.921875 20.484375 11.0625 
Q 25.484375 6.203125 34.421875 6.203125 
Q 39.59375 6.203125 44.453125 7.46875 
Q 49.3125 8.734375 54.109375 11.28125 
L 54.109375 2.78125 
Q 49.265625 0.734375 44.1875 -0.34375 
Q 39.109375 -1.421875 33.890625 -1.421875 
Q 20.796875 -1.421875 13.15625 6.1875 
Q 5.515625 13.8125 5.515625 26.8125 
Q 5.515625 40.234375 12.765625 48.109375 
Q 20.015625 56 32.328125 56 
Q 43.359375 56 49.78125 48.890625 
Q 56.203125 41.796875 56.203125 29.59375 
z
M 47.21875 32.234375 
Q 47.125 39.59375 43.09375 43.984375 
Q 39.0625 48.390625 32.421875 48.390625 
Q 24.90625 48.390625 20.390625 44.140625 
Q 15.875 39.890625 15.1875 32.171875 
z
" id="DejaVuSans-101"/>
       <path d="M 41.109375 46.296875 
Q 39.59375 47.171875 37.8125 47.578125 
Q 36.03125 48 33.890625 48 
Q 26.265625 48 22.1875 43.046875 
Q 18.109375 38.09375 18.109375 28.8125 
L 18.109375 0 
L 9.078125 0 
L 9.078125 54.6875 
L 18.109375 54.6875 
L 18.109375 46.1875 
Q 20.953125 51.171875 25.484375 53.578125 
Q 30.03125 56 36.53125 56 
Q 37.453125 56 38.578125 55.875 
Q 39.703125 55.765625 41.0625 55.515625 
z
" id="DejaVuSans-114"/>
       <path d="M 45.40625 27.984375 
Q 45.40625 37.75 41.375 43.109375 
Q 37.359375 48.484375 30.078125 48.484375 
Q 22.859375 48.484375 18.828125 43.109375 
Q 14.796875 37.75 14.796875 27.984375 
Q 14.796875 18.265625 18.828125 12.890625 
Q 22.859375 7.515625 30.078125 7.515625 
Q 37.359375 7.515625 41.375 12.890625 
Q 45.40625 18.265625 45.40625 27.984375 
z
M 54.390625 6.78125 
Q 54.390625 -7.171875 48.1875 -13.984375 
Q 42 -20.796875 29.203125 -20.796875 
Q 24.46875 -20.796875 20.265625 -20.09375 
Q 16.0625 -19.390625 12.109375 -17.921875 
L 12.109375 -9.1875 
Q 16.0625 -11.328125 19.921875 -12.34375 
Q 23.78125 -13.375 27.78125 -13.375 
Q 36.625 -13.375 41.015625 -8.765625 
Q 45.40625 -4.15625 45.40625 5.171875 
L 45.40625 9.625 
Q 42.625 4.78125 38.28125 2.390625 
Q 33.9375 0 27.875 0 
Q 17.828125 0 11.671875 7.65625 
Q 5.515625 15.328125 5.515625 27.984375 
Q 5.515625 40.671875 11.671875 48.328125 
Q 17.828125 56 27.875 56 
Q 33.9375 56 38.28125 53.609375 
Q 42.625 51.21875 45.40625 46.390625 
L 45.40625 54.6875 
L 54.390625 54.6875 
z
" id="DejaVuSans-103"/>
       <path d="M 32.171875 -5.078125 
Q 28.375 -14.84375 24.75 -17.8125 
Q 21.140625 -20.796875 15.09375 -20.796875 
L 7.90625 -20.796875 
L 7.90625 -13.28125 
L 13.1875 -13.28125 
Q 16.890625 -13.28125 18.9375 -11.515625 
Q 21 -9.765625 23.484375 -3.21875 
L 25.09375 0.875 
L 2.984375 54.6875 
L 12.5 54.6875 
L 29.59375 11.921875 
L 46.6875 54.6875 
L 56.203125 54.6875 
z
" id="DejaVuSans-121"/>
       <path id="DejaVuSans-32"/>
       <path d="M 8.59375 75.984375 
L 29.296875 75.984375 
L 29.296875 69 
L 17.578125 69 
L 17.578125 -6.203125 
L 29.296875 -6.203125 
L 29.296875 -13.1875 
L 8.59375 -13.1875 
z
" id="DejaVuSans-91"/>
       <path d="M 28.609375 0 
L 0.78125 72.90625 
L 11.078125 72.90625 
L 34.1875 11.53125 
L 57.328125 72.90625 
L 67.578125 72.90625 
L 39.796875 0 
z
" id="DejaVuSans-86"/>
       <path d="M 30.421875 75.984375 
L 30.421875 -13.1875 
L 9.71875 -13.1875 
L 9.71875 -6.203125 
L 21.390625 -6.203125 
L 21.390625 69 
L 9.71875 69 
L 9.71875 75.984375 
z
" id="DejaVuSans-93"/>
      </defs>
      <use xlink:href="#DejaVuSans-69"/>
      <use x="63.183594" xlink:href="#DejaVuSans-110"/>
      <use x="126.5625" xlink:href="#DejaVuSans-101"/>
      <use x="188.085938" xlink:href="#DejaVuSans-114"/>
      <use x="227.449219" xlink:href="#DejaVuSans-103"/>
      <use x="290.925781" xlink:href="#DejaVuSans-121"/>
      <use x="350.105469" xlink:href="#DejaVuSans-32"/>
      <use x="381.892578" xlink:href="#DejaVuSans-91"/>
      <use x="420.90625" xlink:href="#DejaVuSans-101"/>
      <use x="482.429688" xlink:href="#DejaVuSans-86"/>
      <use x="550.837891" xlink:href="#DejaVuSans-93"/>
     </g>
    </g>
   </g>
   <g id="matplotlib.axis_2">
    <g id="ytick_1">
     <g id="line2d_11">
      <defs>
       <path d="M 0 0 
L -3.5 0 
" id="m0f63ddb39e" style="stroke:#000000;stroke-width:0.8;"/>
      </defs>
      <g>
       <use style="stroke:#000000;stroke-width:0.8;" x="45" xlink:href="#m0f63ddb39e" y="411.520433"/>
      </g>
     </g>
     <g id="text_12">
      <!-- 0 -->
      <g transform="translate(31.6375 415.319651)scale(0.1 -0.1)">
       <use xlink:href="#DejaVuSans-48"/>
      </g>
     </g>
    </g>
    <g id="ytick_2">
     <g id="line2d_12">
      <g>
       <use style="stroke:#000000;stroke-width:0.8;" x="45" xlink:href="#m0f63ddb39e" y="363.021514"/>
      </g>
     </g>
     <g id="text_13">
      <!-- 1 -->
      <g transform="translate(31.6375 366.820733)scale(0.1 -0.1)">
       <use xlink:href="#DejaVuSans-49"/>
      </g>
     </g>
    </g>
    <g id="ytick_3">
     <g id="line2d_13">
      <g>
       <use style="stroke:#000000;stroke-width:0.8;" x="45" xlink:href="#m0f63ddb39e" y="314.522595"/>
      </g>
     </g>
     <g id="text_14">
      <!-- 2 -->
      <g transform="translate(31.6375 318.321814)scale(0.1 -0.1)">
       <use xlink:href="#DejaVuSans-50"/>
      </g>
     </g>
    </g>
    <g id="ytick_4">
     <g id="line2d_14">
      <g>
       <use style="stroke:#000000;stroke-width:0.8;" x="45" xlink:href="#m0f63ddb39e" y="266.023677"/>
      </g>
     </g>
     <g id="text_15">
      <!-- 3 -->
      <g transform="translate(31.6375 269.822895)scale(0.1 -0.1)">
       <defs>
        <path d="M 40.578125 39.3125 
Q 47.65625 37.796875 51.625 33 
Q 55.609375 28.21875 55.609375 21.1875 
Q 55.609375 10.40625 48.1875 4.484375 
Q 40.765625 -1.421875 27.09375 -1.421875 
Q 22.515625 -1.421875 17.65625 -0.515625 
Q 12.796875 0.390625 7.625 2.203125 
L 7.625 11.71875 
Q 11.71875 9.328125 16.59375 8.109375 
Q 21.484375 6.890625 26.8125 6.890625 
Q 36.078125 6.890625 40.9375 10.546875 
Q 45.796875 14.203125 45.796875 21.1875 
Q 45.796875 27.640625 41.28125 31.265625 
Q 36.765625 34.90625 28.71875 34.90625 
L 20.21875 34.90625 
L 20.21875 43.015625 
L 29.109375 43.015625 
Q 36.375 43.015625 40.234375 45.921875 
Q 44.09375 48.828125 44.09375 54.296875 
Q 44.09375 59.90625 40.109375 62.90625 
Q 36.140625 65.921875 28.71875 65.921875 
Q 24.65625 65.921875 20.015625 65.03125 
Q 15.375 64.15625 9.8125 62.3125 
L 9.8125 71.09375 
Q 15.4375 72.65625 20.34375 73.4375 
Q 25.25 74.21875 29.59375 74.21875 
Q 40.828125 74.21875 47.359375 69.109375 
Q 53.90625 64.015625 53.90625 55.328125 
Q 53.90625 49.265625 50.4375 45.09375 
Q 46.96875 40.921875 40.578125 39.3125 
z
" id="DejaVuSans-51"/>
       </defs>
       <use xlink:href="#DejaVuSans-51"/>
      </g>
     </g>
    </g>
    <g id="ytick_5">
     <g id="line2d_15">
      <g>
       <use style="stroke:#000000;stroke-width:0.8;" x="45" xlink:href="#m0f63ddb39e" y="217.524758"/>
      </g>
     </g>
     <g id="text_16">
      <!-- 4 -->
      <g transform="translate(31.6375 221.323977)scale(0.1 -0.1)">
       <use xlink:href="#DejaVuSans-52"/>
      </g>
     </g>
    </g>
    <g id="ytick_6">
     <g id="line2d_16">
      <g>
       <use style="stroke:#000000;stroke-width:0.8;" x="45" xlink:href="#m0f63ddb39e" y="169.02584"/>
      </g>
     </g>
     <g id="text_17">
      <!-- 5 -->
      <g transform="translate(31.6375 172.825058)scale(0.1 -0.1)">
       <defs>
        <path d="M 10.796875 72.90625 
L 49.515625 72.90625 
L 49.515625 64.59375 
L 19.828125 64.59375 
L 19.828125 46.734375 
Q 21.96875 47.46875 24.109375 47.828125 
Q 26.265625 48.1875 28.421875 48.1875 
Q 40.625 48.1875 47.75 41.5 
Q 54.890625 34.8125 54.890625 23.390625 
Q 54.890625 11.625 47.5625 5.09375 
Q 40.234375 -1.421875 26.90625 -1.421875 
Q 22.3125 -1.421875 17.546875 -0.640625 
Q 12.796875 0.140625 7.71875 1.703125 
L 7.71875 11.625 
Q 12.109375 9.234375 16.796875 8.0625 
Q 21.484375 6.890625 26.703125 6.890625 
Q 35.15625 6.890625 40.078125 11.328125 
Q 45.015625 15.765625 45.015625 23.390625 
Q 45.015625 31 40.078125 35.4375 
Q 35.15625 39.890625 26.703125 39.890625 
Q 22.75 39.890625 18.8125 39.015625 
Q 14.890625 38.140625 10.796875 36.28125 
z
" id="DejaVuSans-53"/>
       </defs>
       <use xlink:href="#DejaVuSans-53"/>
      </g>
     </g>
    </g>
    <g id="ytick_7">
     <g id="line2d_17">
      <g>
       <use style="stroke:#000000;stroke-width:0.8;" x="45" xlink:href="#m0f63ddb39e" y="120.526921"/>
      </g>
     </g>
     <g id="text_18">
      <!-- 6 -->
      <g transform="translate(31.6375 124.32614)scale(0.1 -0.1)">
       <use xlink:href="#DejaVuSans-54"/>
      </g>
     </g>
    </g>
    <g id="ytick_8">
     <g id="line2d_18">
      <g>
       <use style="stroke:#000000;stroke-width:0.8;" x="45" xlink:href="#m0f63ddb39e" y="72.028002"/>
      </g>
     </g>
     <g id="text_19">
      <!-- 7 -->
      <g transform="translate(31.6375 75.827221)scale(0.1 -0.1)">
       <defs>
        <path d="M 8.203125 72.90625 
L 55.078125 72.90625 
L 55.078125 68.703125 
L 28.609375 0 
L 18.3125 0 
L 43.21875 64.59375 
L 8.203125 64.59375 
z
" id="DejaVuSans-55"/>
       </defs>
       <use xlink:href="#DejaVuSans-55"/>
      </g>
     </g>
    </g>
    <g id="text_20">
     <!-- Loss Function -->
     <g transform="translate(25.557812 288.341094)rotate(-90)scale(0.1 -0.1)">
      <defs>
       <path d="M 9.8125 72.90625 
L 19.671875 72.90625 
L 19.671875 8.296875 
L 55.171875 8.296875 
L 55.171875 0 
L 9.8125 0 
z
" id="DejaVuSans-76"/>
       <path d="M 30.609375 48.390625 
Q 23.390625 48.390625 19.1875 42.75 
Q 14.984375 37.109375 14.984375 27.296875 
Q 14.984375 17.484375 19.15625 11.84375 
Q 23.34375 6.203125 30.609375 6.203125 
Q 37.796875 6.203125 41.984375 11.859375 
Q 46.1875 17.53125 46.1875 27.296875 
Q 46.1875 37.015625 41.984375 42.703125 
Q 37.796875 48.390625 30.609375 48.390625 
z
M 30.609375 56 
Q 42.328125 56 49.015625 48.375 
Q 55.71875 40.765625 55.71875 27.296875 
Q 55.71875 13.875 49.015625 6.21875 
Q 42.328125 -1.421875 30.609375 -1.421875 
Q 18.84375 -1.421875 12.171875 6.21875 
Q 5.515625 13.875 5.515625 27.296875 
Q 5.515625 40.765625 12.171875 48.375 
Q 18.84375 56 30.609375 56 
z
" id="DejaVuSans-111"/>
       <path d="M 44.28125 53.078125 
L 44.28125 44.578125 
Q 40.484375 46.53125 36.375 47.5 
Q 32.28125 48.484375 27.875 48.484375 
Q 21.1875 48.484375 17.84375 46.4375 
Q 14.5 44.390625 14.5 40.28125 
Q 14.5 37.15625 16.890625 35.375 
Q 19.28125 33.59375 26.515625 31.984375 
L 29.59375 31.296875 
Q 39.15625 29.25 43.1875 25.515625 
Q 47.21875 21.78125 47.21875 15.09375 
Q 47.21875 7.46875 41.1875 3.015625 
Q 35.15625 -1.421875 24.609375 -1.421875 
Q 20.21875 -1.421875 15.453125 -0.5625 
Q 10.6875 0.296875 5.421875 2 
L 5.421875 11.28125 
Q 10.40625 8.6875 15.234375 7.390625 
Q 20.0625 6.109375 24.8125 6.109375 
Q 31.15625 6.109375 34.5625 8.28125 
Q 37.984375 10.453125 37.984375 14.40625 
Q 37.984375 18.0625 35.515625 20.015625 
Q 33.0625 21.96875 24.703125 23.78125 
L 21.578125 24.515625 
Q 13.234375 26.265625 9.515625 29.90625 
Q 5.8125 33.546875 5.8125 39.890625 
Q 5.8125 47.609375 11.28125 51.796875 
Q 16.75 56 26.8125 56 
Q 31.78125 56 36.171875 55.265625 
Q 40.578125 54.546875 44.28125 53.078125 
z
" id="DejaVuSans-115"/>
       <path d="M 9.8125 72.90625 
L 51.703125 72.90625 
L 51.703125 64.59375 
L 19.671875 64.59375 
L 19.671875 43.109375 
L 48.578125 43.109375 
L 48.578125 34.8125 
L 19.671875 34.8125 
L 19.671875 0 
L 9.8125 0 
z
" id="DejaVuSans-70"/>
       <path d="M 8.5 21.578125 
L 8.5 54.6875 
L 17.484375 54.6875 
L 17.484375 21.921875 
Q 17.484375 14.15625 20.5 10.265625 
Q 23.53125 6.390625 29.59375 6.390625 
Q 36.859375 6.390625 41.078125 11.03125 
Q 45.3125 15.671875 45.3125 23.6875 
L 45.3125 54.6875 
L 54.296875 54.6875 
L 54.296875 0 
L 45.3125 0 
L 45.3125 8.40625 
Q 42.046875 3.421875 37.71875 1 
Q 33.40625 -1.421875 27.6875 -1.421875 
Q 18.265625 -1.421875 13.375 4.4375 
Q 8.5 10.296875 8.5 21.578125 
z
M 31.109375 56 
z
" id="DejaVuSans-117"/>
       <path d="M 48.78125 52.59375 
L 48.78125 44.1875 
Q 44.96875 46.296875 41.140625 47.34375 
Q 37.3125 48.390625 33.40625 48.390625 
Q 24.65625 48.390625 19.8125 42.84375 
Q 14.984375 37.3125 14.984375 27.296875 
Q 14.984375 17.28125 19.8125 11.734375 
Q 24.65625 6.203125 33.40625 6.203125 
Q 37.3125 6.203125 41.140625 7.25 
Q 44.96875 8.296875 48.78125 10.40625 
L 48.78125 2.09375 
Q 45.015625 0.34375 40.984375 -0.53125 
Q 36.96875 -1.421875 32.421875 -1.421875 
Q 20.0625 -1.421875 12.78125 6.34375 
Q 5.515625 14.109375 5.515625 27.296875 
Q 5.515625 40.671875 12.859375 48.328125 
Q 20.21875 56 33.015625 56 
Q 37.15625 56 41.109375 55.140625 
Q 45.0625 54.296875 48.78125 52.59375 
z
" id="DejaVuSans-99"/>
       <path d="M 18.3125 70.21875 
L 18.3125 54.6875 
L 36.8125 54.6875 
L 36.8125 47.703125 
L 18.3125 47.703125 
L 18.3125 18.015625 
Q 18.3125 11.328125 20.140625 9.421875 
Q 21.96875 7.515625 27.59375 7.515625 
L 36.8125 7.515625 
L 36.8125 0 
L 27.59375 0 
Q 17.1875 0 13.234375 3.875 
Q 9.28125 7.765625 9.28125 18.015625 
L 9.28125 47.703125 
L 2.6875 47.703125 
L 2.6875 54.6875 
L 9.28125 54.6875 
L 9.28125 70.21875 
z
" id="DejaVuSans-116"/>
       <path d="M 9.421875 54.6875 
L 18.40625 54.6875 
L 18.40625 0 
L 9.421875 0 
z
M 9.421875 75.984375 
L 18.40625 75.984375 
L 18.40625 64.59375 
L 9.421875 64.59375 
z
" id="DejaVuSans-105"/>
      </defs>
      <use xlink:href="#DejaVuSans-76"/>
      <use x="53.962891" xlink:href="#DejaVuSans-111"/>
      <use x="115.144531" xlink:href="#DejaVuSans-115"/>
      <use x="167.244141" xlink:href="#DejaVuSans-115"/>
      <use x="219.34375" xlink:href="#DejaVuSans-32"/>
      <use x="251.130859" xlink:href="#DejaVuSans-70"/>
      <use x="303.150391" xlink:href="#DejaVuSans-117"/>
      <use x="366.529297" xlink:href="#DejaVuSans-110"/>
      <use x="429.908203" xlink:href="#DejaVuSans-99"/>
      <use x="484.888672" xlink:href="#DejaVuSans-116"/>
      <use x="524.097656" xlink:href="#DejaVuSans-105"/>
      <use x="551.880859" xlink:href="#DejaVuSans-111"/>
      <use x="613.0625" xlink:href="#DejaVuSans-110"/>
     </g>
    </g>
   </g>
   <g id="line2d_19">
    <path clip-path="url(#pcc9cd332d3)" d="M 45 333.922163 
L 51.144262 333.896119 
L 61.001161 333.880696 
L 75.147763 333.755812 
L 84.593433 333.505121 
L 86.1153 333.472384 
L 86.880426 333.41598 
L 88.612335 333.214079 
L 94.292325 332.773272 
L 96.688098 332.095354 
L 97.896184 331.842287 
L 98.502792 331.595379 
L 99.517654 331.348859 
L 101.767402 330.071155 
L 102.178973 329.50362 
L 102.797826 328.592471 
L 103.211382 328.092253 
L 103.625728 327.437421 
L 104.248735 326.971783 
L 104.66508 326.122567 
L 105.291078 324.325197 
L 106.548531 318.734387 
L 107.601989 311.892499 
L 108.024798 307.076168 
L 108.660546 298.192136 
L 109.298138 282.708178 
L 110.151165 251.735798 
L 110.578919 227.394967 
L 111.007525 189.64564 
L 111.436952 130.496213 
L 111.867217 80.504789 
L 112.082667 78.12 
L 112.298319 81.121889 
L 112.514187 91.875506 
L 112.946575 145.147445 
L 113.379784 199.241102 
L 114.248792 259.861259 
L 115.12121 286.543957 
L 115.558697 295.711417 
L 116.436276 306.453588 
L 117.096747 310.875816 
L 117.53814 314.875376 
L 118.867591 321.226116 
L 119.312503 322.675021 
L 119.981514 323.88439 
L 120.65254 325.05433 
L 121.101001 325.246191 
L 121.325565 325.148951 
L 122.000621 324.26889 
L 122.226084 324.491694 
L 122.677692 325.622349 
L 123.130199 325.976488 
L 123.356794 325.992881 
L 124.26545 325.365838 
L 124.72115 325.416859 
L 125.177764 325.255261 
L 125.635293 325.412494 
L 126.093753 325.992202 
L 127.474694 328.929587 
L 127.936873 329.368405 
L 128.399982 329.58248 
L 129.096412 330.394545 
L 129.329021 330.437612 
L 129.794951 330.333388 
L 130.963961 330.472192 
L 131.433223 330.481747 
L 133.556816 331.210976 
L 134.031395 330.934969 
L 134.506951 330.655227 
L 134.745093 330.683793 
L 135.700095 331.596494 
L 136.179076 331.550663 
L 136.659048 331.366221 
L 137.140014 331.452307 
L 137.621971 331.540623 
L 138.588876 331.036526 
L 140.779119 331.710321 
L 141.513773 331.566813 
L 142.496875 331.818474 
L 144.227249 331.626127 
L 145.471016 331.793157 
L 146.22041 331.852714 
L 146.721323 331.768035 
L 148.735594 331.997532 
L 149.241825 332.057088 
L 149.74914 332.099379 
L 150.257524 332.080368 
L 151.022124 332.143465 
L 152.55867 331.959606 
L 153.846657 331.938848 
L 156.70461 331.321651 
L 157.227874 331.068341 
L 159.332247 330.696306 
L 159.596584 330.673608 
L 160.656768 330.175767 
L 161.188574 330.108935 
L 161.721556 329.969113 
L 162.255686 329.874346 
L 163.32745 329.430726 
L 163.865082 329.555466 
L 166.570948 329.035945 
L 167.115696 329.161072 
L 167.661637 329.005197 
L 168.208772 328.84452 
L 168.757131 328.868527 
L 169.85746 328.651591 
L 170.409461 328.869351 
L 171.794789 328.751548 
L 172.072782 328.660564 
L 172.908604 328.998019 
L 173.467379 328.843744 
L 174.307866 329.005294 
L 174.588649 329.056121 
L 175.15116 328.949763 
L 175.714941 329.054423 
L 176.279978 329.160684 
L 177.129889 328.829728 
L 182.579844 329.023093 
L 183.451115 328.91174 
L 184.033605 329.000832 
L 184.617413 328.864841 
L 184.90982 328.978765 
L 185.495643 329.455024 
L 185.789042 329.37859 
L 186.376864 328.950393 
L 186.966019 328.821047 
L 187.556538 328.982936 
L 188.14839 329.186389 
L 188.741621 329.16859 
L 189.336202 328.965137 
L 191.728239 329.312389 
L 192.329701 329.242696 
L 192.932558 329.331692 
L 194.142457 329.79248 
L 195.662744 329.634131 
L 196.273335 329.81736 
L 196.885337 329.965621 
L 197.49878 330.042395 
L 198.729945 330.46031 
L 201.209651 330.939382 
L 202.145556 331.262628 
L 204.657533 330.726521 
L 206.557151 329.996806 
L 207.193364 329.888168 
L 208.79053 329.78181 
L 209.753406 329.538443 
L 210.397229 329.605808 
L 211.042603 329.509489 
L 213.639612 329.452502 
L 214.619941 329.764011 
L 215.603804 329.548627 
L 216.261701 329.393819 
L 216.92118 329.37117 
L 217.58227 329.557745 
L 219.908712 329.568269 
L 220.577056 329.361227 
L 221.247013 329.416662 
L 221.918627 329.716143 
L 222.25504 329.837487 
L 225.641929 329.897529 
L 227.694113 330.410502 
L 228.725902 330.60634 
L 229.761519 330.857468 
L 231.14835 330.698876 
L 231.844347 330.549209 
L 233.591926 329.569821 
L 234.293998 329.549985 
L 234.997838 329.749461 
L 235.350416 329.719634 
L 236.056906 329.213985 
L 236.765148 328.44969 
L 237.475187 327.573169 
L 237.830866 327.491109 
L 238.186993 327.662747 
L 239.258074 328.798204 
L 239.616 328.995643 
L 239.974376 329.061553 
L 240.333201 329.012763 
L 240.692476 328.826769 
L 241.052215 328.442852 
L 241.773043 327.198564 
L 242.495699 325.713721 
L 242.857717 325.308949 
L 243.220184 325.368215 
L 245.039466 327.644366 
L 246.136602 328.196041 
L 246.50324 328.136193 
L 246.870357 327.840786 
L 247.237924 327.336931 
L 247.605972 326.521422 
L 248.343492 324.579913 
L 248.712951 324.112481 
L 249.082874 323.8663 
L 249.453293 323.868094 
L 249.824176 324.058598 
L 251.312471 325.926437 
L 252.433726 327.293719 
L 253.183631 327.652126 
L 253.55932 327.590144 
L 254.31214 327.003404 
L 255.066896 325.964654 
L 256.5823 323.220585 
L 256.962392 323.190904 
L 257.724031 323.495138 
L 258.105594 323.835358 
L 258.870209 324.924401 
L 261.176066 326.905388 
L 261.562125 327.084737 
L 261.948695 326.995014 
L 262.335777 326.64878 
L 262.723369 326.077899 
L 264.668945 322.267194 
L 265.45075 322.154385 
L 265.842434 322.205115 
L 267.414321 322.923045 
L 268.203395 323.679822 
L 268.598706 323.961261 
L 269.390912 324.848888 
L 270.185225 325.358078 
L 270.583156 325.528891 
L 270.98163 325.531413 
L 271.380631 325.151085 
L 272.580827 322.889774 
L 272.981967 322.61367 
L 274.99568 320.21792 
L 275.400029 320.215447 
L 276.210384 320.500136 
L 277.429971 321.455904 
L 278.245767 322.260646 
L 279.063764 323.677833 
L 279.473599 323.903838 
L 279.883962 323.723325 
L 280.294898 323.748108 
L 280.706392 323.927069 
L 281.118428 323.515022 
L 281.944176 321.445234 
L 282.357902 320.83764 
L 283.187012 320.264916 
L 283.602412 319.823673 
L 284.434917 319.340914 
L 284.852007 319.032316 
L 285.687906 318.98469 
L 286.946026 319.4593 
L 288.209307 319.614836 
L 288.631542 319.918973 
L 289.47778 321.340622 
L 289.901751 321.243818 
L 290.326312 321.032751 
L 291.1772 321.72483 
L 291.603512 321.459929 
L 293.743907 317.840309 
L 294.173768 317.421667 
L 294.604204 317.483212 
L 295.035243 317.81121 
L 295.466887 317.636468 
L 296.765384 316.41512 
L 297.199415 316.128055 
L 297.634051 316.300808 
L 298.069291 316.679973 
L 298.941584 317.013839 
L 299.378638 317.48263 
L 299.816311 318.422005 
L 300.254589 319.051182 
L 301.132974 318.448049 
L 302.013808 319.170101 
L 302.455155 319.09711 
L 302.897122 318.463132 
L 303.339694 317.628563 
L 303.782901 317.054869 
L 304.671159 316.795352 
L 305.561929 315.088578 
L 306.455209 314.697046 
L 306.902787 314.54151 
L 307.799834 314.720713 
L 308.249303 314.481129 
L 308.699423 314.111907 
L 309.150163 314.275348 
L 310.95954 316.404305 
L 311.413489 316.617458 
L 312.323323 315.763634 
L 312.779209 315.992695 
L 313.23573 316.401977 
L 313.692919 316.321517 
L 314.150757 315.520703 
L 315.068373 313.192804 
L 316.911509 310.89153 
L 317.837029 310.613631 
L 318.30079 310.378072 
L 318.7652 309.956519 
L 319.230294 309.703888 
L 320.629571 310.337478 
L 321.565787 311.386898 
L 322.504715 311.715866 
L 322.975187 311.649762 
L 323.918175 310.030141 
L 324.390693 309.453828 
L 324.390693 309.453828 
" style="fill:none;stroke:#1f77b4;stroke-linecap:square;stroke-width:1.5;"/>
   </g>
   <g id="line2d_20">
    <path clip-path="url(#pcc9cd332d3)" d="M 45 353.32173 
L 47.968359 353.011822 
L 48.599286 352.778154 
L 49.549653 353.139471 
L 51.144262 353.190492 
L 53.886119 353.071621 
L 55.681438 352.866471 
L 57.493651 352.883106 
L 67.686808 353.216536 
L 88.805666 352.739016 
L 94.88875 352.266733 
L 100.537352 351.065755 
L 103.418462 349.278181 
L 104.456806 348.093353 
L 104.873539 347.397975 
L 105.500158 346.873508 
L 106.128574 345.5717 
L 106.75882 343.800568 
L 108.024798 338.478491 
L 108.872865 333.13973 
L 109.937591 320.740205 
L 110.364942 312.917572 
L 110.793113 300.068657 
L 111.436952 273.269852 
L 111.867217 240.932228 
L 112.514187 173.287828 
L 112.946575 120.93664 
L 113.163079 112.705306 
L 113.596723 122.109441 
L 113.813862 132.507657 
L 115.12121 261.311279 
L 115.777774 289.444435 
L 116.656221 313.235774 
L 117.317342 322.890987 
L 117.980417 329.005488 
L 119.089938 337.717349 
L 119.312503 338.120811 
L 119.758298 338.437267 
L 119.981514 339.065328 
L 120.428642 341.186864 
L 120.65254 341.61899 
L 120.876654 341.503611 
L 121.325565 340.926037 
L 122.000621 341.628544 
L 122.226084 341.762595 
L 122.677692 342.296956 
L 122.903837 342.188415 
L 123.130199 342.207864 
L 124.037941 343.539304 
L 124.26545 343.675489 
L 124.949341 343.626457 
L 125.40642 343.677187 
L 125.635293 343.586688 
L 126.093753 343.825254 
L 126.323339 344.035642 
L 126.783177 345.304956 
L 127.243961 346.460297 
L 127.705659 346.969245 
L 128.631878 347.779031 
L 129.329021 347.916574 
L 130.028288 347.763851 
L 130.495644 347.767828 
L 130.963961 347.541726 
L 131.198461 347.739553 
L 131.903447 348.953336 
L 132.138923 349.046454 
L 132.846777 348.581155 
L 133.083229 348.737418 
L 133.556816 349.345255 
L 133.793982 349.49342 
L 134.745093 349.524168 
L 134.983468 349.656618 
L 135.222105 349.63203 
L 135.939461 349.249858 
L 136.418938 349.350881 
L 136.899407 349.747796 
L 137.380868 350.192871 
L 137.863321 350.256938 
L 140.534746 350.180892 
L 141.268624 350.357234 
L 145.471016 350.936553 
L 146.721323 350.62553 
L 147.223306 350.553557 
L 148.482883 350.91759 
L 150.003185 350.785479 
L 150.512112 350.902895 
L 152.301896 350.898142 
L 153.588505 351.04747 
L 155.661444 350.732373 
L 156.443403 350.546622 
L 156.966094 350.501664 
L 157.489933 350.244474 
L 158.540987 349.99645 
L 159.332247 349.655309 
L 159.8612 349.729852 
L 161.188574 348.980835 
L 161.721556 348.796733 
L 162.523186 348.5264 
L 163.32745 348.711132 
L 163.865082 348.736545 
L 164.403894 348.773793 
L 165.214311 348.570485 
L 166.299032 348.732908 
L 168.208772 348.459762 
L 168.757131 348.365335 
L 169.306683 348.550164 
L 169.581916 348.453215 
L 170.133313 348.039422 
L 170.409461 348.002563 
L 171.794789 348.439102 
L 173.187837 348.354131 
L 174.027394 348.145489 
L 175.15116 348.110036 
L 175.432887 347.984812 
L 175.714941 348.048831 
L 176.279978 348.406656 
L 176.562962 348.371979 
L 177.413834 347.914586 
L 178.267589 348.121628 
L 178.838346 348.24821 
L 179.696907 348.0902 
L 180.270903 348.206452 
L 180.846185 348.339582 
L 181.42277 348.176237 
L 182.000656 348.036318 
L 182.869943 348.199323 
L 183.451115 348.16096 
L 184.033605 348.102228 
L 184.617413 348.35064 
L 190.230645 348.227937 
L 190.82865 348.650945 
L 191.428035 348.675679 
L 192.630959 348.287785 
L 193.234513 348.679559 
L 193.53681 348.829954 
L 194.749515 348.765887 
L 195.967861 348.677765 
L 196.57915 348.884661 
L 197.19188 349.199759 
L 199.038644 349.290791 
L 202.458269 350.262418 
L 203.398592 350.357088 
L 204.342232 350.194568 
L 204.973206 350.043494 
L 206.875071 349.351221 
L 207.512044 349.34414 
L 209.111102 348.947467 
L 210.397229 349.065417 
L 211.042603 348.734606 
L 211.365871 348.757788 
L 212.01357 349.012504 
L 212.988023 348.618693 
L 213.965996 348.909881 
L 214.619941 348.749689 
L 215.275451 348.524751 
L 215.932558 348.70085 
L 216.591247 348.491189 
L 217.251531 348.44206 
L 217.913412 348.718843 
L 218.909241 348.517718 
L 219.575151 348.601864 
L 220.242675 348.634164 
L 221.918627 348.934033 
L 222.59187 348.844795 
L 224.621502 348.918562 
L 224.961231 348.809245 
L 225.982913 348.958428 
L 226.666123 349.108193 
L 228.725902 349.343509 
L 230.800995 349.891935 
L 231.844347 349.845328 
L 233.591926 349.326583 
L 234.293998 349.355295 
L 236.410802 348.74416 
L 237.119943 348.300007 
L 238.900598 347.779371 
L 239.258074 347.807015 
L 239.616 347.955228 
L 239.974376 347.948681 
L 240.692476 347.406802 
L 241.052215 347.093596 
L 241.412404 347.004746 
L 242.134146 347.232594 
L 242.495699 347.105187 
L 243.220184 346.420916 
L 243.583117 346.361262 
L 244.310377 346.469755 
L 245.039466 346.174299 
L 245.770431 346.33871 
L 246.50324 345.831703 
L 246.870357 345.616319 
L 247.605972 345.770206 
L 247.9745 345.969779 
L 248.343492 345.950719 
L 249.082874 344.875595 
L 249.453293 344.731311 
L 249.824176 345.14651 
L 250.195526 345.345744 
L 250.939681 344.816038 
L 251.312471 344.761089 
L 251.685742 344.932678 
L 252.059494 345.255245 
L 252.433726 345.375764 
L 253.183631 344.692124 
L 253.55932 344.813031 
L 253.935489 345.072598 
L 254.31214 345.140787 
L 255.066896 345.039715 
L 255.823622 344.954115 
L 256.202721 344.811091 
L 256.5823 344.812304 
L 256.962392 344.944512 
L 257.342963 344.844701 
L 258.105594 343.955328 
L 258.487653 343.815942 
L 258.870209 343.841404 
L 259.253276 344.017649 
L 260.020882 344.734609 
L 260.405438 344.724278 
L 261.176066 344.31359 
L 261.562125 344.323241 
L 261.948695 344.164843 
L 263.111459 343.249863 
L 263.889171 343.666081 
L 265.059592 344.148742 
L 265.45075 343.849503 
L 266.234631 342.848437 
L 267.020574 342.395651 
L 267.414321 342.299623 
L 267.808594 342.388231 
L 268.994546 343.124493 
L 269.787804 342.841017 
L 270.583156 342.342594 
L 271.380631 341.77244 
L 272.180229 341.580142 
L 272.580827 341.80217 
L 273.383634 342.978366 
L 273.785828 343.165232 
L 274.18858 342.792954 
L 274.99568 341.233763 
L 275.400029 340.872979 
L 275.804935 340.738007 
L 276.61636 340.085502 
L 277.022895 340.303311 
L 278.245767 342.115522 
L 279.063764 342.051891 
L 279.473599 341.914688 
L 279.883962 341.333865 
L 280.706392 339.75149 
L 281.118428 339.427809 
L 281.531023 339.554197 
L 282.357902 340.198747 
L 283.187012 341.332652 
L 283.602412 341.396816 
L 284.434917 340.11562 
L 284.852007 339.843299 
L 285.687906 339.664338 
L 286.526084 339.196711 
L 287.366541 338.817547 
L 287.787629 338.957175 
L 288.209307 339.710897 
L 288.631542 340.202336 
L 289.054367 340.19414 
L 289.47778 339.711382 
L 289.901751 338.958194 
L 291.603512 337.564771 
L 292.030413 337.672293 
L 292.885982 338.788593 
L 293.31465 339.50691 
L 293.743907 339.706629 
L 294.173768 339.046656 
L 294.604204 338.037684 
L 295.035243 337.387023 
L 295.89912 337.379263 
L 296.331942 337.047579 
L 296.765384 336.930793 
L 297.199415 337.204667 
L 298.069291 337.394588 
L 298.941584 338.440225 
L 299.378638 338.212571 
L 300.254589 336.433437 
L 300.693471 336.081577 
L 301.573081 336.393765 
L 302.013808 336.712936 
L 302.455155 336.855474 
L 302.897122 336.866969 
L 304.226728 337.696543 
L 304.671159 337.539212 
L 305.116242 336.964063 
L 305.561929 336.137302 
L 306.008251 335.643583 
L 306.902787 335.105294 
L 307.350985 334.977305 
L 307.799834 334.673799 
L 308.249303 334.111018 
L 308.699423 334.094431 
L 309.601554 335.505846 
L 310.053581 335.464865 
L 310.95954 334.622584 
L 311.868072 334.310057 
L 312.779209 333.610072 
L 313.23573 333.319952 
L 314.150757 333.147393 
L 314.609232 332.793302 
L 315.068373 332.110486 
L 315.528165 331.842966 
L 315.988624 331.72458 
L 316.449733 331.295413 
L 316.911509 331.353806 
L 317.373936 331.619289 
L 317.837029 331.171256 
L 318.30079 330.370684 
L 318.7652 329.959316 
L 319.230294 329.980753 
L 319.696053 330.352885 
L 320.162479 331.055828 
L 320.629571 331.428688 
L 321.097346 330.968288 
L 322.03491 329.792237 
L 322.975187 329.472145 
L 323.44634 328.904222 
L 323.918175 328.515843 
L 324.390693 328.365884 
L 324.390693 328.365884 
" style="fill:none;stroke:#ff7f0e;stroke-linecap:square;stroke-width:1.5;"/>
   </g>
   <g id="line2d_21">
    <path clip-path="url(#pcc9cd332d3)" d="M 45 372.721298 
L 49.390933 372.111763 
L 50.185882 371.786093 
L 51.144262 371.080288 
L 52.107478 372.167392 
L 52.913897 372.385685 
L 57.162897 372.38263 
L 58.822389 372.233787 
L 62.015032 371.623525 
L 63.375064 371.595347 
L 72.272653 372.048424 
L 76.783184 372.07214 
L 82.894617 372.402126 
L 84.593433 372.398634 
L 87.64839 372.344849 
L 92.513111 372.138438 
L 94.292325 372.044786 
L 98.908163 371.500774 
L 102.797826 370.730175 
L 105.291078 369.409501 
L 105.709423 369.003322 
L 106.33846 368.2383 
L 106.75882 368.073064 
L 107.180002 367.979025 
L 107.390895 367.658059 
L 109.298138 362.721645 
L 109.937591 360.08859 
L 110.578919 356.67931 
L 111.007525 352.137047 
L 111.651968 340.587951 
L 112.082667 333.572049 
L 112.514187 319.516238 
L 112.946575 305.963943 
L 113.596723 290.508889 
L 113.813862 287.701772 
L 114.031218 280.693678 
L 114.466567 242.894833 
L 115.12121 167.308735 
L 115.339837 161.691736 
L 115.558697 173.032772 
L 116.436276 268.187601 
L 116.656221 274.534897 
L 116.876368 276.574956 
L 117.096747 281.432026 
L 118.201881 326.023386 
L 119.089938 339.572578 
L 119.535284 345.113967 
L 119.758298 346.679755 
L 119.981514 347.039132 
L 120.204977 346.480909 
L 120.428642 346.66957 
L 121.101001 350.090199 
L 121.325565 351.005907 
L 122.000621 355.265567 
L 122.226084 355.307955 
L 122.45178 354.490021 
L 122.903837 351.87588 
L 123.130199 352.279294 
L 123.583621 354.647545 
L 123.810664 355.380461 
L 124.037941 355.385747 
L 124.26545 355.148442 
L 124.72115 355.507528 
L 125.177764 354.923213 
L 125.40642 355.082047 
L 125.864414 355.623101 
L 126.093753 356.467564 
L 127.013445 361.625764 
L 127.243961 361.897212 
L 127.705659 361.647831 
L 127.936873 361.767914 
L 128.399982 362.587206 
L 128.631878 362.771357 
L 129.329021 362.079956 
L 129.561862 362.254746 
L 130.495644 364.459361 
L 130.729679 364.802491 
L 130.963961 364.946242 
L 131.198461 364.786778 
L 131.668219 364.168416 
L 131.903447 364.14664 
L 132.374632 364.669992 
L 132.846777 364.667179 
L 133.319899 365.394615 
L 134.269057 366.814226 
L 135.222105 367.332534 
L 135.700095 367.664461 
L 136.179076 367.587736 
L 136.659048 367.723387 
L 137.621971 367.801907 
L 137.863321 367.744193 
L 138.104919 367.836438 
L 138.588876 368.164679 
L 139.073825 367.819366 
L 139.316678 367.927956 
L 139.803146 368.355134 
L 140.290621 368.30649 
L 141.023755 368.593555 
L 142.25072 368.449464 
L 142.743294 368.297129 
L 143.236908 368.496023 
L 143.731559 368.663248 
L 144.723962 368.93974 
L 145.471016 369.094209 
L 146.721323 369.27705 
L 147.978249 369.186115 
L 148.735594 369.438794 
L 149.241825 369.194214 
L 150.257524 369.306634 
L 150.766978 369.188442 
L 152.301896 369.329623 
L 153.330632 369.620519 
L 153.846657 369.700446 
L 154.363784 369.627067 
L 156.70461 370.00012 
L 157.227874 369.831926 
L 158.014886 369.50126 
L 159.596584 368.970052 
L 160.126095 368.398492 
L 160.656768 367.819269 
L 163.059067 367.552186 
L 163.865082 367.339761 
L 164.403894 367.452618 
L 166.02741 367.421918 
L 166.570948 367.27128 
L 167.388511 367.750595 
L 167.935057 367.543311 
L 169.031759 366.971799 
L 169.306683 366.950848 
L 170.133313 367.657235 
L 170.685904 367.62862 
L 171.517107 367.388454 
L 173.747231 367.801519 
L 174.027394 367.980625 
L 174.307866 368.007591 
L 175.432887 367.646516 
L 176.279978 367.833771 
L 177.413834 367.611888 
L 177.982684 367.322204 
L 178.552805 367.312553 
L 179.124212 367.624013 
L 179.98375 367.673288 
L 180.558381 367.561692 
L 182.000656 367.644334 
L 182.579844 367.578909 
L 183.160366 367.649184 
L 183.74219 367.512659 
L 184.617413 367.781149 
L 185.202569 367.519643 
L 187.556538 367.111525 
L 188.14839 367.446992 
L 189.038741 367.48162 
L 189.336202 367.486179 
L 190.529469 367.114677 
L 192.028799 367.558539 
L 192.630959 367.613101 
L 193.234513 367.652288 
L 194.142457 367.215943 
L 195.662744 367.650008 
L 197.19188 367.944057 
L 197.806037 367.828436 
L 198.11365 367.767715 
L 199.038644 368.21764 
L 199.657125 368.281319 
L 200.277047 368.489185 
L 200.898427 368.432975 
L 201.521263 368.758209 
L 202.145556 369.062394 
L 203.398592 369.449124 
L 205.922441 369.100562 
L 207.512044 368.811024 
L 210.397229 368.324919 
L 211.365871 367.945221 
L 212.01357 368.37725 
L 212.338 368.390538 
L 213.313616 367.876935 
L 213.639612 367.893618 
L 214.292767 368.119672 
L 214.947502 367.92005 
L 215.603804 367.689244 
L 216.261701 367.772226 
L 216.92118 367.873976 
L 217.58227 367.732117 
L 218.576905 367.901669 
L 219.575151 367.646468 
L 220.242675 367.881833 
L 220.911825 367.898323 
L 221.247013 368.018697 
L 222.929104 367.677507 
L 223.266755 367.723969 
L 223.604826 367.905501 
L 223.943299 367.946288 
L 224.282191 367.858505 
L 225.301363 367.969762 
L 225.641929 367.860057 
L 229.761519 368.160653 
L 230.454074 368.334425 
L 231.496124 368.506839 
L 232.542064 368.592391 
L 233.241533 368.519739 
L 235.703444 368.702677 
L 236.410802 368.356977 
L 237.119943 368.025002 
L 238.900598 368.275935 
L 240.333201 367.565766 
L 241.412404 367.540983 
L 242.495699 367.09455 
L 243.220184 366.500972 
L 243.583117 366.391219 
L 243.946515 366.409357 
L 244.310377 366.312651 
L 245.039466 365.839786 
L 246.136602 366.243734 
L 246.870357 365.729742 
L 247.9745 365.774846 
L 248.343492 365.632356 
L 248.712951 365.313621 
L 249.453293 364.472602 
L 249.824176 364.438507 
L 250.939681 364.727851 
L 251.312471 364.609951 
L 252.059494 364.769706 
L 252.808438 364.385255 
L 253.183631 364.492777 
L 253.55932 364.894397 
L 253.935489 365.119674 
L 254.31214 364.915542 
L 255.066896 364.034559 
L 255.445019 363.96603 
L 256.5823 364.282146 
L 256.962392 364.11628 
L 257.724031 363.428129 
L 258.105594 363.336902 
L 260.020882 363.879557 
L 260.790504 364.40383 
L 261.176066 364.554468 
L 261.562125 364.353973 
L 262.335777 363.36057 
L 262.723369 363.03262 
L 263.111459 362.920733 
L 263.500059 362.949639 
L 264.27881 362.572123 
L 265.45075 361.899006 
L 266.234631 361.861371 
L 266.627339 361.927912 
L 267.414321 362.300772 
L 267.808594 362.316049 
L 268.203395 362.505582 
L 268.994546 363.19417 
L 269.390912 363.252708 
L 269.787804 362.876211 
L 270.185225 362.26333 
L 270.583156 361.883875 
L 270.98163 361.778729 
L 271.380631 361.810884 
L 271.780174 361.633329 
L 272.580827 360.955557 
L 273.383634 360.490937 
L 274.591859 360.242671 
L 275.400029 360.173463 
L 276.210384 360.558254 
L 277.429971 361.55287 
L 278.245767 361.254116 
L 278.654502 361.212165 
L 279.473599 360.89503 
L 280.294898 360.982134 
L 281.118428 360.320415 
L 282.77217 358.527944 
L 283.187012 358.451606 
L 284.018386 357.93 
L 284.434917 357.925539 
L 284.852007 358.159497 
L 285.687906 359.081074 
L 286.1067 359.823398 
L 286.526084 360.178847 
L 286.946026 359.848133 
L 287.366541 359.715246 
L 288.209307 360.141551 
L 288.631542 360.138593 
L 289.054367 359.951484 
L 289.901751 359.048871 
L 290.326312 358.875438 
L 290.751462 358.42144 
L 291.1772 357.721358 
L 291.603512 357.340933 
L 292.457903 357.420422 
L 293.31465 357.196115 
L 293.743907 357.143154 
L 294.173768 356.909001 
L 294.604204 357.017978 
L 295.035243 357.579499 
L 295.89912 359.065263 
L 296.331942 359.457425 
L 297.634051 359.318622 
L 298.505135 359.485021 
L 298.941584 359.097321 
L 299.816311 357.307177 
L 300.254589 356.829851 
L 301.573081 355.957355 
L 302.013808 355.273957 
L 302.455155 355.140246 
L 302.897122 355.242821 
L 303.782901 355.246749 
L 305.116242 356.02797 
L 305.561929 355.874471 
L 306.008251 355.511505 
L 306.455209 355.32653 
L 307.350985 355.521108 
L 307.799834 355.819279 
L 308.249303 356.356114 
L 308.699423 356.377647 
L 309.150163 355.582992 
L 309.601554 354.301408 
L 310.053581 353.775632 
L 310.506242 353.999406 
L 311.413489 353.027633 
L 313.692919 352.869041 
L 314.150757 353.033065 
L 314.609232 352.878062 
L 315.988624 351.748425 
L 316.449733 351.481681 
L 317.373936 351.265328 
L 317.837029 351.530374 
L 318.30079 352.418486 
L 318.7652 352.727909 
L 319.696053 351.178951 
L 320.162479 350.883156 
L 320.629571 350.390989 
L 321.097346 349.71506 
L 321.565787 349.306262 
L 322.03491 349.505205 
L 322.504715 350.08467 
L 322.975187 350.365576 
L 323.44634 350.379204 
L 323.918175 350.122548 
L 324.390693 349.225948 
L 324.390693 349.225948 
" style="fill:none;stroke:#2ca02c;stroke-linecap:square;stroke-width:1.5;"/>
   </g>
   <g id="line2d_22">
    <path clip-path="url(#pcc9cd332d3)" d="M 45 392.120865 
L 49.867496 391.399541 
L 52.590924 390.398475 
L 53.886119 389.429224 
L 54.048637 389.503766 
L 55.190134 391.319469 
L 55.681438 391.549596 
L 56.503062 391.553282 
L 57.99086 391.592906 
L 58.655794 391.56725 
L 59.992545 391.583982 
L 63.71656 391.253413 
L 64.744597 390.87066 
L 65.778029 390.533544 
L 66.12371 390.602024 
L 68.385501 390.395322 
L 70.673301 390.371364 
L 71.73812 390.40119 
L 79.168959 390.5705 
L 79.723503 390.500274 
L 80.465255 390.630202 
L 81.396217 390.505027 
L 82.33144 390.579424 
L 82.894617 390.491204 
L 83.836676 390.50944 
L 84.214705 390.356765 
L 85.352964 390.462299 
L 85.733783 390.304581 
L 86.880426 390.407786 
L 87.264051 390.305745 
L 88.22623 390.49232 
L 88.805666 390.39377 
L 89.774974 390.467634 
L 90.163962 390.492999 
L 90.748792 390.670941 
L 91.531108 390.674967 
L 93.69759 391.171741 
L 95.287285 391.363748 
L 98.502792 391.396825 
L 99.721215 391.304871 
L 100.537352 391.303125 
L 102.591351 391.058787 
L 104.456806 390.63287 
L 105.500158 390.306715 
L 106.128574 390.149481 
L 107.601989 389.144292 
L 109.298138 386.98643 
L 109.511077 386.778952 
L 109.937591 386.83264 
L 110.364942 386.961308 
L 110.578919 386.821582 
L 111.222123 385.791659 
L 111.651968 384.830653 
L 112.298319 382.606347 
L 112.730272 380.18111 
L 113.379784 373.876251 
L 113.813862 367.833528 
L 114.248792 356.170363 
L 114.902783 326.634618 
L 115.12121 326.615073 
L 115.777774 339.473786 
L 115.997052 340.211066 
L 116.216564 338.638925 
L 116.436276 336.162231 
L 116.656221 332.124841 
L 117.096747 316.703349 
L 117.53814 293.440843 
L 117.980417 260.842634 
L 118.201881 258.396009 
L 118.867591 297.45699 
L 119.312503 315.274814 
L 119.758298 330.757463 
L 119.981514 333.911784 
L 120.876654 354.012306 
L 121.101001 354.577561 
L 121.325565 354.75303 
L 121.550361 355.286567 
L 121.775375 356.75041 
L 122.45178 363.110073 
L 122.677692 363.661312 
L 123.356794 361.714226 
L 123.810664 359.501317 
L 124.037941 359.97132 
L 124.493192 363.012881 
L 124.72115 362.988098 
L 124.949341 361.818595 
L 125.177764 361.274243 
L 125.864414 365.82383 
L 126.093753 365.960354 
L 126.553141 365.508151 
L 126.783177 365.923447 
L 127.243961 368.044159 
L 127.474694 368.782507 
L 127.936873 370.952639 
L 128.168303 371.569448 
L 128.631878 373.056959 
L 129.096412 373.489569 
L 129.329021 373.481373 
L 129.561862 373.982997 
L 130.028288 375.235045 
L 130.261842 375.683175 
L 130.963961 378.773769 
L 131.433223 378.722408 
L 131.903447 379.360751 
L 132.138923 379.489322 
L 132.610588 379.413275 
L 133.083229 379.341934 
L 133.319899 379.475451 
L 134.031395 380.827407 
L 134.269057 380.634381 
L 134.506951 380.611878 
L 134.983468 381.287613 
L 135.222105 381.785358 
L 135.460976 381.960972 
L 135.700095 381.681715 
L 135.939461 381.637339 
L 136.179076 382.218889 
L 136.659048 383.863245 
L 136.899407 384.06728 
L 137.380868 383.871733 
L 137.621971 384.069123 
L 138.346766 385.21006 
L 138.588876 385.160397 
L 138.831218 384.738796 
L 139.073825 384.559932 
L 139.559796 384.913101 
L 139.803146 384.942007 
L 140.290621 384.71702 
L 140.534746 384.772794 
L 141.268624 385.310356 
L 141.759168 385.367342 
L 142.496875 385.204919 
L 142.743294 385.258026 
L 143.236908 385.961939 
L 143.484102 386.03687 
L 143.979264 385.978089 
L 144.475482 386.285572 
L 145.221729 386.063399 
L 145.72055 386.584471 
L 146.22041 386.547709 
L 146.972175 386.632146 
L 147.223306 386.717164 
L 147.726327 387.089005 
L 147.978249 387.05913 
L 148.482883 386.728125 
L 148.98857 386.911208 
L 149.241825 387.078384 
L 150.003185 387.061797 
L 150.512112 387.406285 
L 151.022124 387.388244 
L 151.53322 387.612648 
L 152.045387 387.38965 
L 152.55867 387.20516 
L 153.073037 387.34183 
L 153.588505 387.668761 
L 154.105074 387.589805 
L 154.622758 387.42811 
L 155.661444 387.461235 
L 156.182461 388.003404 
L 158.804457 388.334118 
L 159.332247 388.475395 
L 161.188574 388.134303 
L 163.059067 386.756885 
L 164.943867 385.938756 
L 165.214311 385.944867 
L 166.02741 386.24333 
L 166.843175 386.35221 
L 167.388511 386.156129 
L 167.935057 385.658287 
L 168.208772 385.593444 
L 168.757131 385.852428 
L 169.306683 386.150454 
L 169.85746 386.263505 
L 170.409461 386.327039 
L 170.962672 386.367002 
L 172.072782 386.04075 
L 173.187837 386.198226 
L 174.869757 386.504011 
L 175.714941 386.355168 
L 176.279978 386.432524 
L 177.129889 386.118251 
L 177.413834 386.262487 
L 177.982684 386.725894 
L 178.267589 386.812367 
L 179.124212 386.773617 
L 179.696907 386.893458 
L 180.270903 386.718716 
L 180.558381 386.60712 
L 180.846185 386.642282 
L 181.42277 387.060148 
L 182.000656 387.107144 
L 183.160366 387.08886 
L 184.033605 387.412202 
L 185.495643 387.013686 
L 186.376864 387.12019 
L 186.966019 386.910044 
L 187.261108 386.993268 
L 187.556538 387.197352 
L 187.852294 387.242456 
L 188.741621 386.610709 
L 189.336202 386.737388 
L 190.230645 386.552316 
L 190.82865 386.408371 
L 191.128172 386.349445 
L 191.728239 386.589369 
L 192.630959 386.544993 
L 193.53681 386.260789 
L 195.357982 386.569097 
L 196.273335 386.70179 
L 196.885337 386.577439 
L 197.806037 386.62036 
L 198.11365 386.582192 
L 199.038644 386.869596 
L 200.587543 386.97188 
L 202.145556 387.66236 
L 202.771338 387.980512 
L 204.342232 387.646112 
L 205.605653 387.703875 
L 206.239602 388.156806 
L 206.557151 388.174363 
L 207.193364 387.858683 
L 209.111102 388.196818 
L 210.397229 388.059275 
L 211.042603 388.050496 
L 212.01357 387.749367 
L 212.988023 387.544895 
L 213.639612 387.535098 
L 215.275451 387.307347 
L 216.261701 387.353421 
L 216.92118 386.968679 
L 217.251531 386.917853 
L 218.909241 387.131248 
L 220.242675 386.785063 
L 221.582618 387.111024 
L 222.929104 386.853883 
L 224.961231 387.04007 
L 225.641929 386.710617 
L 226.324301 386.849421 
L 227.351021 387.138717 
L 227.694113 387.138329 
L 229.070684 386.767748 
L 229.415884 386.802086 
L 230.454074 387.250846 
L 230.800995 387.176158 
L 231.496124 386.707852 
L 231.844347 386.673612 
L 233.942737 387.367729 
L 234.645709 387.458567 
L 236.765148 387.229216 
L 238.186993 387.318308 
L 239.258074 387.392609 
L 240.692476 387.447024 
L 241.412404 387.178049 
L 242.134146 386.864552 
L 242.857717 387.040458 
L 243.583117 387.211853 
L 245.039466 386.867947 
L 245.770431 386.361134 
L 246.870357 386.577342 
L 247.237924 386.216267 
L 247.605972 385.67143 
L 247.9745 385.370689 
L 248.712951 385.375636 
L 249.453293 385.53025 
L 250.567371 385.326991 
L 250.939681 385.147545 
L 251.312471 385.124023 
L 251.685742 384.87503 
L 252.433726 383.977557 
L 252.808438 383.876194 
L 253.55932 384.121259 
L 254.31214 384.591311 
L 254.68927 384.506535 
L 255.445019 383.781137 
L 256.202721 383.695972 
L 256.5823 383.867901 
L 256.962392 383.884148 
L 257.724031 383.336886 
L 258.105594 383.303083 
L 260.020882 384.051082 
L 260.405438 383.72643 
L 260.790504 383.151815 
L 261.176066 382.797482 
L 262.335777 382.453479 
L 263.111459 382.799615 
L 263.500059 382.783077 
L 264.27881 382.492084 
L 265.842434 382.799955 
L 266.234631 383.058939 
L 266.627339 382.922463 
L 267.808594 381.43408 
L 268.598706 380.9617 
L 268.994546 380.85607 
L 270.185225 380.946229 
L 270.98163 381.273742 
L 272.180229 381.23019 
L 272.580827 381.275585 
L 272.981967 381.467981 
L 273.383634 381.809656 
L 273.785828 381.838076 
L 274.591859 380.793749 
L 274.99568 380.285577 
L 275.804935 379.759364 
L 276.61636 379.209047 
L 277.429971 379.061125 
L 278.245767 379.281649 
L 279.063764 379.747288 
L 279.883962 379.512213 
L 280.294898 379.806359 
L 281.118428 380.807231 
L 281.531023 380.89482 
L 281.944176 380.433838 
L 282.357902 379.627544 
L 282.77217 379.078099 
L 284.434917 377.814169 
L 284.852007 377.790065 
L 285.26967 377.988571 
L 286.1067 377.817758 
L 286.526084 377.967765 
L 287.787629 379.231162 
L 288.631542 379.066993 
L 289.054367 379.456488 
L 289.47778 380.037796 
L 289.901751 380.262589 
L 290.326312 379.870669 
L 290.751462 379.3107 
L 291.603512 379.031977 
L 292.457903 378.865771 
L 292.885982 378.811064 
L 293.31465 378.465364 
L 294.604204 377.118598 
L 295.466887 377.549608 
L 296.765384 377.125775 
L 298.505135 378.793847 
L 298.941584 378.903164 
L 299.378638 378.695346 
L 301.132974 377.25939 
L 302.455155 375.044299 
L 303.782901 374.6194 
L 305.116242 375.62842 
L 306.455209 375.833425 
L 306.902787 376.240137 
L 307.350985 376.380008 
L 307.799834 376.352266 
L 308.249303 376.154682 
L 310.053581 373.801708 
L 310.506242 373.646851 
L 311.413489 373.838179 
L 312.323323 373.661449 
L 312.779209 373.654708 
L 313.692919 372.705827 
L 314.150757 372.552521 
L 314.609232 372.525702 
L 315.068373 372.789633 
L 315.988624 373.658539 
L 316.449733 373.982609 
L 316.911509 374.082808 
L 317.373936 373.807722 
L 317.837029 373.246589 
L 318.7652 371.614698 
L 320.162479 370.833768 
L 320.629571 370.772272 
L 321.097346 370.456447 
L 321.565787 369.940564 
L 322.03491 369.700543 
L 322.504715 369.651801 
L 322.975187 369.351981 
L 323.44634 369.290145 
L 323.918175 369.55781 
L 324.390693 370.368567 
L 324.390693 370.368567 
" style="fill:none;stroke:#d62728;stroke-linecap:square;stroke-width:1.5;"/>
   </g>
   <g id="line2d_23">
    <path clip-path="url(#pcc9cd332d3)" d="M 45 411.520433 
L 51.144262 410.342636 
L 55.353768 408.812641 
L 56.009665 408.212515 
L 56.667811 408.258589 
L 57.162897 408.456368 
L 58.15688 410.374791 
L 58.48934 410.478967 
L 59.155995 410.53217 
L 60.328167 410.889219 
L 60.832692 410.844891 
L 61.507438 410.731986 
L 63.204549 410.771755 
L 64.058645 410.685621 
L 65.088481 410.690083 
L 67.338383 410.383084 
L 69.438153 409.792271 
L 69.966563 409.52766 
L 71.027615 409.325032 
L 71.38255 409.339679 
L 71.916138 409.506175 
L 75.328834 409.141027 
L 76.054699 409.163094 
L 76.600826 409.082683 
L 77.148411 409.004745 
L 77.697483 408.960805 
L 78.615904 409.166829 
L 79.353642 409.028025 
L 79.723503 408.944655 
L 81.58293 409.141755 
L 82.33144 408.849355 
L 82.894617 408.927195 
L 83.459328 408.972833 
L 84.025605 408.99941 
L 84.403976 409.022544 
L 85.352964 408.758371 
L 87.456128 408.920842 
L 88.612335 408.621507 
L 88.999168 408.726895 
L 89.386715 408.8592 
L 90.163962 408.731405 
L 90.748792 408.555306 
L 91.727137 408.565005 
L 92.316354 408.60104 
L 92.71007 408.466456 
L 93.30203 408.116584 
L 94.093894 408.413398 
L 94.689761 408.295254 
L 95.087924 408.158148 
L 95.486832 407.98588 
L 96.08662 408.266592 
L 96.48742 408.103344 
L 98.098195 407.98942 
L 98.502792 407.872295 
L 99.31431 408.124635 
L 99.517654 408.26504 
L 99.721215 408.269405 
L 100.333016 407.735043 
L 100.741875 407.853138 
L 101.356605 408.263779 
L 101.767402 407.909591 
L 101.973086 407.754589 
L 102.385061 407.920261 
L 102.797826 408.240063 
L 103.004503 408.230605 
L 103.418462 407.994464 
L 105.082216 408.407869 
L 105.709423 408.736692 
L 106.33846 408.792853 
L 108.872865 409.770737 
L 109.298138 409.758321 
L 110.364942 409.535469 
L 111.222123 409.407723 
L 111.651968 409.1742 
L 112.946575 408.25825 
L 113.379784 407.993106 
L 114.684574 406.370526 
L 114.902783 406.045196 
L 115.339837 404.75396 
L 115.777774 403.196224 
L 116.216564 402.116153 
L 116.656221 399.860274 
L 118.64546 383.113549 
L 119.312503 376.252989 
L 119.535284 374.840021 
L 119.758298 371.405231 
L 120.65254 347.003728 
L 120.876654 342.701243 
L 121.101001 340.868566 
L 121.325565 342.352002 
L 121.775375 350.120171 
L 122.45178 364.676491 
L 122.677692 367.188056 
L 122.903837 367.275403 
L 123.810664 361.176033 
L 124.037941 361.28244 
L 124.26545 362.648218 
L 124.493192 365.412511 
L 124.949341 373.264486 
L 125.40642 377.799522 
L 126.323339 384.73317 
L 126.553141 385.065145 
L 127.013445 384.175336 
L 127.243961 384.45081 
L 127.474694 384.317244 
L 127.705659 383.413854 
L 127.936873 382.958643 
L 128.864021 385.398527 
L 129.096412 385.4624 
L 129.561862 384.202447 
L 130.028288 386.035754 
L 130.261842 385.90796 
L 130.495644 385.493585 
L 130.729679 385.359631 
L 131.198461 386.193279 
L 131.668219 385.914022 
L 132.138923 387.484126 
L 132.846777 391.200744 
L 133.083229 391.657846 
L 133.556816 393.380916 
L 133.793982 393.617202 
L 134.031395 393.231539 
L 134.506951 391.434605 
L 134.745093 391.768181 
L 135.222105 395.457397 
L 135.460976 396.287892 
L 135.700095 396.124936 
L 136.179076 395.004756 
L 136.418938 395.441974 
L 136.899407 396.542948 
L 137.140014 396.855475 
L 137.380868 396.961882 
L 137.621971 396.899318 
L 137.863321 397.328873 
L 138.346766 398.453417 
L 138.588876 398.654833 
L 138.831218 398.454145 
L 139.316678 397.513411 
L 139.559796 397.890975 
L 139.803146 398.658568 
L 140.04676 398.990446 
L 140.290621 398.736021 
L 140.534746 398.153015 
L 140.779119 397.86144 
L 141.759168 399.458655 
L 142.496875 401.32659 
L 142.743294 401.441436 
L 142.989977 401.37538 
L 143.484102 401.053978 
L 143.731559 401.129248 
L 144.475482 402.161451 
L 144.972722 402.669622 
L 145.471016 402.64935 
L 145.72055 402.792422 
L 146.470734 402.838544 
L 146.721323 403.128616 
L 146.972175 403.119935 
L 147.223306 402.858671 
L 147.474685 402.783352 
L 148.482883 402.872251 
L 148.98857 402.58892 
L 149.74914 402.36049 
L 150.003185 402.735193 
L 150.512112 403.851347 
L 150.766978 404.051163 
L 151.022124 403.937481 
L 151.277533 403.701922 
L 151.53322 403.626215 
L 152.045387 404.045003 
L 152.55867 404.451376 
L 152.815721 404.404817 
L 153.588505 404.663267 
L 154.363784 404.399821 
L 154.622758 404.421743 
L 155.661444 405.056157 
L 156.182461 404.687662 
L 158.014886 405.128081 
L 158.540987 405.661133 
L 159.068204 405.810994 
L 159.596584 406.324792 
L 160.126095 406.357674 
L 160.922531 406.096847 
L 161.454926 406.295208 
L 161.988467 406.769284 
L 163.32745 406.87962 
L 163.865082 406.685672 
L 164.403894 406.572379 
L 166.02741 405.279398 
L 166.570948 404.867593 
L 167.661637 404.701242 
L 167.935057 404.583778 
L 168.482796 404.727286 
L 169.306683 404.555648 
L 170.133313 404.942185 
L 170.409461 404.859931 
L 170.962672 404.30423 
L 171.239734 404.268583 
L 171.794789 404.730099 
L 172.629697 404.815603 
L 173.187837 405.012751 
L 173.747231 404.784806 
L 174.307866 404.534163 
L 174.869757 404.687711 
L 175.432887 404.423828 
L 175.714941 404.525579 
L 176.279978 404.891697 
L 177.129889 404.738053 
L 178.267589 405.079146 
L 178.552805 404.931466 
L 178.838346 404.958965 
L 179.410404 405.235118 
L 180.558381 405.48256 
L 181.134315 405.250541 
L 181.71155 405.212033 
L 182.290087 405.422179 
L 182.869943 405.389102 
L 183.451115 405.526597 
L 184.033605 405.45283 
L 184.617413 405.754251 
L 185.495643 405.732717 
L 187.556538 406.251947 
L 188.444843 405.864489 
L 189.038741 406.002177 
L 189.634003 406.256263 
L 189.932145 406.145879 
L 190.230645 405.909253 
L 190.529469 405.828793 
L 191.128172 405.931029 
L 191.728239 405.851927 
L 192.932558 405.875352 
L 193.53681 405.823216 
L 194.142457 405.937237 
L 194.445808 405.946743 
L 195.053562 406.196464 
L 195.967861 405.910757 
L 196.273335 405.994029 
L 197.806037 405.722532 
L 198.421619 405.816814 
L 199.038644 405.609869 
L 199.657125 405.606765 
L 200.587543 405.207474 
L 200.898427 405.212469 
L 202.458269 406.061443 
L 203.398592 405.876613 
L 204.027319 405.690572 
L 205.605653 406.100533 
L 206.239602 406.334298 
L 207.831096 406.446815 
L 208.470332 406.709631 
L 208.79053 406.735578 
L 209.43206 406.453848 
L 209.753406 406.434981 
L 211.365871 407.130504 
L 212.662818 407.083606 
L 213.313616 406.901638 
L 214.619941 407.235553 
L 214.947502 407.208491 
L 216.591247 406.434884 
L 217.251531 406.523589 
L 217.913412 406.376007 
L 218.909241 406.460395 
L 219.908712 406.078223 
L 220.577056 406.386434 
L 221.918627 406.163582 
L 222.59187 406.052519 
L 223.266755 406.09287 
L 224.282191 406.37654 
L 224.961231 406.258688 
L 226.666123 405.688632 
L 228.037609 405.939129 
L 228.381538 406.052228 
L 229.070684 405.951835 
L 230.454074 405.699786 
L 231.844347 405.664819 
L 232.891589 406.025602 
L 234.997838 405.741689 
L 235.703444 405.64314 
L 236.056906 405.559721 
L 236.410802 405.615156 
L 237.119943 405.985008 
L 237.830866 406.136083 
L 238.900598 405.94844 
L 239.974376 406.123812 
L 241.052215 406.00145 
L 242.134146 405.68092 
L 243.220184 405.965609 
L 243.946515 406.102376 
L 245.770431 405.800955 
L 246.136602 405.902754 
L 250.195526 405.799258 
L 251.685742 405.762059 
L 252.059494 405.675973 
L 253.183631 405.165668 
L 255.066896 404.491533 
L 255.823622 404.520972 
L 256.5823 404.03283 
L 257.724031 403.220619 
L 258.105594 403.117461 
L 259.636823 403.573982 
L 260.405438 403.175563 
L 261.176066 403.097189 
L 262.335777 402.373779 
L 262.723369 402.353652 
L 264.27881 402.714581 
L 265.45075 402.241619 
L 266.234631 402.265287 
L 266.627339 402.090157 
L 267.414321 401.290556 
L 268.598706 401.224791 
L 268.994546 401.253017 
L 269.787804 401.773653 
L 270.185225 401.729568 
L 270.98163 400.911973 
L 271.380631 400.809883 
L 272.580827 400.945049 
L 273.785828 400.122993 
L 274.18858 399.594209 
L 274.591859 399.435909 
L 274.99568 399.619477 
L 275.804935 399.77254 
L 276.210384 399.980745 
L 277.429971 399.928124 
L 278.245767 399.262379 
L 279.063764 399.082109 
L 280.294898 398.675348 
L 280.706392 398.801009 
L 282.357902 398.798924 
L 282.77217 399.124012 
L 283.187012 399.298123 
L 284.018386 398.828266 
L 284.434917 398.908143 
L 284.852007 399.180756 
L 285.26967 399.272758 
L 285.687906 399.095495 
L 286.526084 398.16965 
L 286.946026 398.150154 
L 287.366541 398.353898 
L 288.209307 398.163636 
L 288.631542 398.326981 
L 289.054367 398.333625 
L 289.47778 398.180029 
L 289.901751 398.256366 
L 290.751462 398.685582 
L 291.1772 398.599933 
L 292.030413 398.249334 
L 293.743907 398.065038 
L 294.173768 397.751347 
L 294.604204 397.587372 
L 295.466887 397.633592 
L 296.331942 397.861682 
L 296.765384 397.758379 
L 297.634051 397.778458 
L 298.069291 397.787333 
L 298.505135 397.983802 
L 298.941584 398.04399 
L 299.378638 397.780786 
L 300.254589 396.805327 
L 301.132974 396.651101 
L 302.897122 396.351086 
L 303.339694 396.311317 
L 303.782901 396.118534 
L 304.226728 395.723462 
L 304.671159 395.511473 
L 305.116242 395.53999 
L 305.561929 395.729282 
L 306.008251 396.113781 
L 306.455209 396.298853 
L 306.902787 396.176539 
L 307.799834 395.463362 
L 308.249303 395.336343 
L 308.699423 395.33775 
L 309.150163 395.587859 
L 309.601554 395.643099 
L 312.323323 393.7869 
L 312.779209 393.874586 
L 313.692919 393.844808 
L 314.609232 394.133134 
L 315.528165 394.169314 
L 315.988624 393.924394 
L 316.449733 393.246089 
L 316.911509 393.041423 
L 317.837029 393.751884 
L 318.30079 393.603477 
L 319.230294 392.281979 
L 321.565787 390.72914 
L 322.03491 391.00151 
L 322.504715 391.105007 
L 322.975187 390.918528 
L 323.44634 390.563274 
L 323.918175 390.646643 
L 324.390693 391.00282 
L 324.390693 391.00282 
" style="fill:none;stroke:#9467bd;stroke-linecap:square;stroke-width:1.5;"/>
   </g>
   <g id="line2d_24">
    <path clip-path="url(#pcc9cd332d3)" d="M 45 430.92 
L 50.185882 429.931932 
L 51.144262 429.61892 
L 52.268493 429.339517 
L 55.353768 428.608978 
L 56.009665 428.235342 
L 56.667811 427.838912 
L 57.493651 427.702436 
L 57.99086 427.659272 
L 58.48934 428.088585 
L 59.323023 427.635702 
L 59.824944 426.889497 
L 59.992545 427.025294 
L 60.496202 427.725764 
L 60.832692 428.05706 
L 61.507438 428.905597 
L 62.354157 429.613585 
L 63.034172 429.899971 
L 63.71656 429.881784 
L 64.401319 429.854867 
L 65.260639 430.049444 
L 66.12371 429.889931 
L 66.990578 429.66834 
L 69.614124 429.669504 
L 70.319622 429.442238 
L 72.629804 429.015253 
L 76.965727 428.147123 
L 77.697483 428.383119 
L 78.064352 428.385204 
L 78.431888 428.523474 
L 78.984448 428.336172 
L 80.465255 427.741623 
L 80.837131 427.716064 
L 81.58293 427.853607 
L 82.894617 428.055751 
L 83.270926 428.077236 
L 84.403976 427.46324 
L 84.78306 427.088488 
L 85.162825 427.260417 
L 86.1153 427.720429 
L 86.688877 427.813887 
L 87.072146 427.715094 
L 87.840822 427.388066 
L 88.999168 427.062057 
L 89.580744 427.425944 
L 91.335251 427.317015 
L 92.71007 426.857294 
L 93.69759 427.452327 
L 94.093894 427.294221 
L 94.490958 426.92529 
L 96.286927 426.748657 
L 96.888978 427.025876 
L 98.502792 426.607719 
L 99.31431 425.905163 
L 99.924948 426.506065 
L 100.333016 426.554127 
L 100.946584 426.400483 
L 101.767402 425.694969 
L 101.973086 425.4565 
L 102.178973 425.416391 
L 103.004503 426.132235 
L 104.040864 425.894591 
L 104.456806 425.6439 
L 104.873539 425.15731 
L 105.082216 425.11143 
L 105.709423 425.702777 
L 106.75882 425.795895 
L 107.180002 425.181462 
L 107.390895 424.824074 
L 107.601989 424.704282 
L 108.448413 425.434093 
L 109.085401 425.248536 
L 109.511077 425.040961 
L 109.937591 424.713011 
L 110.151165 424.846917 
L 110.578919 425.313768 
L 110.793113 425.315659 
L 111.222123 424.945758 
L 111.867217 425.106532 
L 112.298319 424.745845 
L 112.730272 424.890372 
L 113.163079 424.442775 
L 113.379784 424.517803 
L 113.813862 425.075347 
L 114.248792 424.965497 
L 114.684574 424.837557 
L 115.12121 424.444376 
L 116.436276 424.9153 
L 117.096747 424.962781 
L 117.980417 425.357174 
L 118.423562 425.558978 
L 119.312503 425.547823 
L 119.981514 425.345486 
L 120.428642 425.362897 
L 121.101001 425.093776 
L 121.775375 424.288112 
L 122.677692 423.152559 
L 122.903837 422.931258 
L 123.130199 422.51504 
L 124.493192 418.310572 
L 124.72115 416.77951 
L 125.635293 408.147575 
L 125.864414 407.260433 
L 126.553141 401.266743 
L 128.168303 386.103604 
L 128.399982 387.101033 
L 128.631878 388.899373 
L 128.864021 389.171937 
L 129.096412 388.880264 
L 129.329021 389.990405 
L 129.794951 393.53068 
L 130.261842 395.55391 
L 130.495644 395.721813 
L 130.729679 395.333094 
L 130.963961 396.25952 
L 132.138923 407.911822 
L 132.374632 408.699056 
L 132.610588 408.361843 
L 132.846777 407.626939 
L 133.083229 407.912065 
L 133.793982 412.313147 
L 134.031395 413.242969 
L 134.269057 413.689547 
L 134.506951 413.326193 
L 135.222105 410.701625 
L 135.939461 409.830585 
L 136.179076 409.993929 
L 136.418938 410.619953 
L 136.659048 410.45011 
L 136.899407 410.053971 
L 137.140014 410.457967 
L 137.621971 412.018565 
L 137.863321 412.245297 
L 138.104919 412.265085 
L 138.346766 412.769231 
L 138.588876 413.685473 
L 138.831218 414.122303 
L 139.559796 412.993442 
L 139.803146 413.021086 
L 140.290621 411.780484 
L 140.534746 411.884223 
L 141.268624 414.088014 
L 141.513773 414.540121 
L 141.759168 414.555786 
L 142.25072 414.208825 
L 142.496875 414.456363 
L 143.236908 415.83703 
L 143.731559 416.597784 
L 144.227249 416.666362 
L 144.723962 416.947559 
L 144.972722 416.835041 
L 145.471016 416.047904 
L 145.72055 416.109788 
L 146.22041 417.227058 
L 147.726327 417.934221 
L 147.978249 417.635176 
L 148.230434 417.667476 
L 148.735594 418.603409 
L 148.98857 418.370032 
L 149.495342 417.607192 
L 149.74914 417.750895 
L 150.257524 418.472898 
L 150.766978 419.320514 
L 151.277533 419.20659 
L 151.53322 419.447193 
L 152.045387 420.192524 
L 152.55867 420.501268 
L 154.363784 419.258484 
L 155.141543 418.445642 
L 155.401354 418.633817 
L 155.921813 419.611895 
L 156.443403 420.874661 
L 156.70461 420.935479 
L 156.966094 420.697737 
L 157.227874 420.777227 
L 157.75227 421.548554 
L 158.277798 421.636725 
L 159.068204 422.071227 
L 159.596584 422.407227 
L 160.126095 422.689006 
L 160.391284 422.604957 
L 160.656768 422.345585 
L 160.922531 422.291848 
L 161.454926 422.436181 
L 161.988467 422.444765 
L 162.523186 422.211098 
L 162.790979 422.367895 
L 163.596111 423.835181 
L 163.865082 424.063853 
L 164.134333 424.121616 
L 164.673733 423.972724 
L 165.756082 424.500344 
L 166.299032 424.410815 
L 166.843175 424.692593 
L 167.661637 424.66267 
L 168.208772 424.738231 
L 168.482796 424.886541 
L 169.031759 424.773587 
L 169.581916 424.547873 
L 170.133313 423.952597 
L 171.239734 422.807974 
L 172.072782 423.067007 
L 173.187837 422.679549 
L 174.027394 422.959872 
L 174.588649 422.909967 
L 174.869757 422.996247 
L 175.432887 422.931404 
L 175.714941 423.055949 
L 176.846271 423.013658 
L 177.698104 423.149164 
L 177.982684 423.067686 
L 179.410404 423.323905 
L 179.696907 423.430651 
L 180.846185 423.002212 
L 181.71155 423.442 
L 183.74219 423.933634 
L 184.325346 423.919327 
L 184.617413 423.855163 
L 184.90982 423.968117 
L 185.789042 424.607041 
L 186.082782 424.522653 
L 186.671271 424.030147 
L 186.966019 423.994839 
L 187.556538 424.714224 
L 187.852294 424.740365 
L 188.14839 424.528037 
L 188.444843 424.479538 
L 189.336202 424.752781 
L 189.634003 424.871845 
L 191.128172 424.649963 
L 192.028799 425.046199 
L 192.329701 425.192181 
L 192.630959 425.204451 
L 193.53681 424.588369 
L 194.142457 424.642979 
L 195.662744 424.725088 
L 196.273335 424.727755 
L 196.885337 424.625616 
L 197.49878 424.303875 
L 198.11365 424.17608 
L 198.729945 424.103962 
L 199.347698 424.23811 
L 199.966907 424.169775 
L 200.277047 424.232387 
L 200.587543 424.144022 
L 201.209651 423.726349 
L 201.521263 423.85298 
L 202.458269 424.551946 
L 202.771338 424.606993 
L 203.712761 424.508297 
L 204.027319 424.643512 
L 204.657533 425.107017 
L 206.239602 424.842892 
L 206.875071 425.146543 
L 207.193364 425.076414 
L 207.831096 424.737358 
L 209.111102 424.976749 
L 209.753406 425.245578 
L 211.689526 425.513438 
L 212.338 425.285299 
L 212.662818 425.352761 
L 213.639612 425.844103 
L 214.947502 426.207166 
L 216.261701 425.749967 
L 216.92118 426.217545 
L 217.251531 426.25261 
L 217.913412 426.11075 
L 218.576905 426.219097 
L 220.242675 425.494814 
L 221.247013 425.672902 
L 222.59187 425.478276 
L 223.604826 425.17443 
L 224.282191 425.226712 
L 225.301363 425.001483 
L 225.982913 425.127386 
L 227.351021 424.899441 
L 228.037609 425.032425 
L 228.725902 425.056141 
L 230.800995 424.67848 
L 231.496124 424.868887 
L 232.192988 425.012686 
L 232.891589 424.92985 
L 233.591926 425.14179 
L 234.293998 424.987612 
L 235.350416 424.764275 
L 237.119943 424.434967 
L 237.475187 424.49011 
L 238.186993 424.80157 
L 238.900598 424.727464 
L 239.616 424.603355 
L 240.333201 424.56184 
L 241.052215 424.651127 
L 241.773043 424.439477 
L 242.495699 424.711362 
L 242.857717 424.716358 
L 243.946515 425.029806 
L 244.674689 424.780958 
L 246.136602 424.834889 
L 247.237924 424.307124 
L 247.605972 424.261292 
L 248.712951 424.619699 
L 249.824176 424.535845 
L 250.195526 424.459314 
L 250.939681 424.486133 
L 252.059494 424.019768 
L 253.183631 424.263426 
L 253.55932 424.182918 
L 254.31214 424.384625 
L 255.445019 424.768737 
L 255.823622 424.684106 
L 256.202721 424.467073 
L 256.962392 424.471584 
L 259.253276 424.734399 
L 259.636823 424.592831 
L 261.176066 423.595354 
L 262.335777 423.502139 
L 264.27881 422.427791 
L 265.45075 422.757777 
L 265.842434 422.64429 
L 267.020574 421.442535 
L 268.203395 421.554907 
L 268.598706 421.486766 
L 269.390912 421.781397 
L 270.185225 421.440838 
L 270.583156 421.465475 
L 271.380631 421.096593 
L 272.981967 420.402719 
L 274.18858 420.424737 
L 275.400029 419.55777 
L 275.804935 419.701812 
L 276.210384 420.027288 
L 276.61636 420.06182 
L 277.429971 419.573629 
L 277.837605 419.659327 
L 278.245767 419.577461 
L 278.654502 419.369546 
L 279.473599 419.688329 
L 280.294898 418.936499 
L 280.706392 418.855312 
L 281.944176 418.988393 
L 282.357902 418.898573 
L 282.77217 418.994407 
L 284.018386 418.60336 
L 284.852007 418.05571 
L 285.687906 418.39336 
L 286.1067 418.319447 
L 286.946026 417.72907 
L 287.787629 417.990964 
L 288.631542 417.812682 
L 289.901751 418.324491 
L 291.1772 417.537596 
L 291.603512 417.503308 
L 292.457903 417.639202 
L 294.173768 417.317363 
L 295.035243 417.405097 
L 297.199415 417.789985 
L 297.634051 417.640463 
L 298.069291 417.368917 
L 298.505135 417.339284 
L 299.378638 417.699728 
L 300.693471 417.389335 
L 302.013808 416.483521 
L 302.455155 416.618784 
L 302.897122 416.561895 
L 303.339694 416.167987 
L 303.782901 415.928936 
L 304.226728 416.039416 
L 305.561929 416.869378 
L 306.902787 416.908323 
L 307.799834 416.244761 
L 310.053581 414.818941 
L 311.413489 414.9592 
L 311.868072 415.219494 
L 312.323323 415.651813 
L 312.779209 415.661561 
L 313.23573 415.42833 
L 313.692919 415.069535 
L 314.150757 414.52756 
L 314.609232 414.205527 
L 315.528165 414.367319 
L 315.988624 414.204945 
L 317.373936 413.072398 
L 317.837029 412.987816 
L 318.7652 413.364119 
L 319.230294 413.387592 
L 319.696053 413.266442 
L 320.629571 412.14796 
L 321.565787 412.137484 
L 322.975187 410.889995 
L 323.918175 411.445744 
L 324.390693 411.241127 
L 324.390693 411.241127 
" style="fill:none;stroke:#8c564b;stroke-linecap:square;stroke-width:1.5;"/>
   </g>
   <g id="patch_3">
    <path d="M 45 448.56 
L 45 60.48 
" style="fill:none;stroke:#000000;stroke-linecap:square;stroke-linejoin:miter;stroke-width:0.8;"/>
   </g>
   <g id="patch_4">
    <path d="M 324 448.56 
L 324 60.48 
" style="fill:none;stroke:#000000;stroke-linecap:square;stroke-linejoin:miter;stroke-width:0.8;"/>
   </g>
   <g id="patch_5">
    <path d="M 45 448.56 
L 324 448.56 
" style="fill:none;stroke:#000000;stroke-linecap:square;stroke-linejoin:miter;stroke-width:0.8;"/>
   </g>
   <g id="patch_6">
    <path d="M 45 60.48 
L 324 60.48 
" style="fill:none;stroke:#000000;stroke-linecap:square;stroke-linejoin:miter;stroke-width:0.8;"/>
   </g>
   <g id="text_21">
    <!-- EELS spectra of bulk C$_2$Li: -M -->
    <g transform="translate(94.44 54.48)scale(0.12 -0.12)">
     <defs>
      <path d="M 53.515625 70.515625 
L 53.515625 60.890625 
Q 47.90625 63.578125 42.921875 64.890625 
Q 37.9375 66.21875 33.296875 66.21875 
Q 25.25 66.21875 20.875 63.09375 
Q 16.5 59.96875 16.5 54.203125 
Q 16.5 49.359375 19.40625 46.890625 
Q 22.3125 44.4375 30.421875 42.921875 
L 36.375 41.703125 
Q 47.40625 39.59375 52.65625 34.296875 
Q 57.90625 29 57.90625 20.125 
Q 57.90625 9.515625 50.796875 4.046875 
Q 43.703125 -1.421875 29.984375 -1.421875 
Q 24.8125 -1.421875 18.96875 -0.25 
Q 13.140625 0.921875 6.890625 3.21875 
L 6.890625 13.375 
Q 12.890625 10.015625 18.65625 8.296875 
Q 24.421875 6.59375 29.984375 6.59375 
Q 38.421875 6.59375 43.015625 9.90625 
Q 47.609375 13.234375 47.609375 19.390625 
Q 47.609375 24.75 44.3125 27.78125 
Q 41.015625 30.8125 33.5 32.328125 
L 27.484375 33.5 
Q 16.453125 35.6875 11.515625 40.375 
Q 6.59375 45.0625 6.59375 53.421875 
Q 6.59375 63.09375 13.40625 68.65625 
Q 20.21875 74.21875 32.171875 74.21875 
Q 37.3125 74.21875 42.625 73.28125 
Q 47.953125 72.359375 53.515625 70.515625 
z
" id="DejaVuSans-83"/>
      <path d="M 18.109375 8.203125 
L 18.109375 -20.796875 
L 9.078125 -20.796875 
L 9.078125 54.6875 
L 18.109375 54.6875 
L 18.109375 46.390625 
Q 20.953125 51.265625 25.265625 53.625 
Q 29.59375 56 35.59375 56 
Q 45.5625 56 51.78125 48.09375 
Q 58.015625 40.1875 58.015625 27.296875 
Q 58.015625 14.40625 51.78125 6.484375 
Q 45.5625 -1.421875 35.59375 -1.421875 
Q 29.59375 -1.421875 25.265625 0.953125 
Q 20.953125 3.328125 18.109375 8.203125 
z
M 48.6875 27.296875 
Q 48.6875 37.203125 44.609375 42.84375 
Q 40.53125 48.484375 33.40625 48.484375 
Q 26.265625 48.484375 22.1875 42.84375 
Q 18.109375 37.203125 18.109375 27.296875 
Q 18.109375 17.390625 22.1875 11.75 
Q 26.265625 6.109375 33.40625 6.109375 
Q 40.53125 6.109375 44.609375 11.75 
Q 48.6875 17.390625 48.6875 27.296875 
z
" id="DejaVuSans-112"/>
      <path d="M 34.28125 27.484375 
Q 23.390625 27.484375 19.1875 25 
Q 14.984375 22.515625 14.984375 16.5 
Q 14.984375 11.71875 18.140625 8.90625 
Q 21.296875 6.109375 26.703125 6.109375 
Q 34.1875 6.109375 38.703125 11.40625 
Q 43.21875 16.703125 43.21875 25.484375 
L 43.21875 27.484375 
z
M 52.203125 31.203125 
L 52.203125 0 
L 43.21875 0 
L 43.21875 8.296875 
Q 40.140625 3.328125 35.546875 0.953125 
Q 30.953125 -1.421875 24.3125 -1.421875 
Q 15.921875 -1.421875 10.953125 3.296875 
Q 6 8.015625 6 15.921875 
Q 6 25.140625 12.171875 29.828125 
Q 18.359375 34.515625 30.609375 34.515625 
L 43.21875 34.515625 
L 43.21875 35.40625 
Q 43.21875 41.609375 39.140625 45 
Q 35.0625 48.390625 27.6875 48.390625 
Q 23 48.390625 18.546875 47.265625 
Q 14.109375 46.140625 10.015625 43.890625 
L 10.015625 52.203125 
Q 14.9375 54.109375 19.578125 55.046875 
Q 24.21875 56 28.609375 56 
Q 40.484375 56 46.34375 49.84375 
Q 52.203125 43.703125 52.203125 31.203125 
z
" id="DejaVuSans-97"/>
      <path d="M 37.109375 75.984375 
L 37.109375 68.5 
L 28.515625 68.5 
Q 23.6875 68.5 21.796875 66.546875 
Q 19.921875 64.59375 19.921875 59.515625 
L 19.921875 54.6875 
L 34.71875 54.6875 
L 34.71875 47.703125 
L 19.921875 47.703125 
L 19.921875 0 
L 10.890625 0 
L 10.890625 47.703125 
L 2.296875 47.703125 
L 2.296875 54.6875 
L 10.890625 54.6875 
L 10.890625 58.5 
Q 10.890625 67.625 15.140625 71.796875 
Q 19.390625 75.984375 28.609375 75.984375 
z
" id="DejaVuSans-102"/>
      <path d="M 48.6875 27.296875 
Q 48.6875 37.203125 44.609375 42.84375 
Q 40.53125 48.484375 33.40625 48.484375 
Q 26.265625 48.484375 22.1875 42.84375 
Q 18.109375 37.203125 18.109375 27.296875 
Q 18.109375 17.390625 22.1875 11.75 
Q 26.265625 6.109375 33.40625 6.109375 
Q 40.53125 6.109375 44.609375 11.75 
Q 48.6875 17.390625 48.6875 27.296875 
z
M 18.109375 46.390625 
Q 20.953125 51.265625 25.265625 53.625 
Q 29.59375 56 35.59375 56 
Q 45.5625 56 51.78125 48.09375 
Q 58.015625 40.1875 58.015625 27.296875 
Q 58.015625 14.40625 51.78125 6.484375 
Q 45.5625 -1.421875 35.59375 -1.421875 
Q 29.59375 -1.421875 25.265625 0.953125 
Q 20.953125 3.328125 18.109375 8.203125 
L 18.109375 0 
L 9.078125 0 
L 9.078125 75.984375 
L 18.109375 75.984375 
z
" id="DejaVuSans-98"/>
      <path d="M 9.421875 75.984375 
L 18.40625 75.984375 
L 18.40625 0 
L 9.421875 0 
z
" id="DejaVuSans-108"/>
      <path d="M 9.078125 75.984375 
L 18.109375 75.984375 
L 18.109375 31.109375 
L 44.921875 54.6875 
L 56.390625 54.6875 
L 27.390625 29.109375 
L 57.625 0 
L 45.90625 0 
L 18.109375 26.703125 
L 18.109375 0 
L 9.078125 0 
z
" id="DejaVuSans-107"/>
      <path d="M 64.40625 67.28125 
L 64.40625 56.890625 
Q 59.421875 61.53125 53.78125 63.8125 
Q 48.140625 66.109375 41.796875 66.109375 
Q 29.296875 66.109375 22.65625 58.46875 
Q 16.015625 50.828125 16.015625 36.375 
Q 16.015625 21.96875 22.65625 14.328125 
Q 29.296875 6.6875 41.796875 6.6875 
Q 48.140625 6.6875 53.78125 8.984375 
Q 59.421875 11.28125 64.40625 15.921875 
L 64.40625 5.609375 
Q 59.234375 2.09375 53.4375 0.328125 
Q 47.65625 -1.421875 41.21875 -1.421875 
Q 24.65625 -1.421875 15.125 8.703125 
Q 5.609375 18.84375 5.609375 36.375 
Q 5.609375 53.953125 15.125 64.078125 
Q 24.65625 74.21875 41.21875 74.21875 
Q 47.75 74.21875 53.53125 72.484375 
Q 59.328125 70.75 64.40625 67.28125 
z
" id="DejaVuSans-67"/>
      <path d="M 11.71875 12.40625 
L 22.015625 12.40625 
L 22.015625 0 
L 11.71875 0 
z
M 11.71875 51.703125 
L 22.015625 51.703125 
L 22.015625 39.3125 
L 11.71875 39.3125 
z
" id="DejaVuSans-58"/>
      <path d="M 9.8125 0 
L 9.8125 72.90625 
L 55.171875 72.90625 
L 55.171875 64.59375 
L 19.671875 64.59375 
L 19.671875 0 
z
" id="DejaVuSans-915"/>
      <path d="M 4.890625 31.390625 
L 31.203125 31.390625 
L 31.203125 23.390625 
L 4.890625 23.390625 
z
" id="DejaVuSans-45"/>
      <path d="M 9.8125 72.90625 
L 24.515625 72.90625 
L 43.109375 23.296875 
L 61.8125 72.90625 
L 76.515625 72.90625 
L 76.515625 0 
L 66.890625 0 
L 66.890625 64.015625 
L 48.09375 14.015625 
L 38.1875 14.015625 
L 19.390625 64.015625 
L 19.390625 0 
L 9.8125 0 
z
" id="DejaVuSans-77"/>
     </defs>
     <use transform="translate(0 0.015625)" xlink:href="#DejaVuSans-69"/>
     <use transform="translate(63.183594 0.015625)" xlink:href="#DejaVuSans-69"/>
     <use transform="translate(126.367188 0.015625)" xlink:href="#DejaVuSans-76"/>
     <use transform="translate(182.080078 0.015625)" xlink:href="#DejaVuSans-83"/>
     <use transform="translate(245.556641 0.015625)" xlink:href="#DejaVuSans-32"/>
     <use transform="translate(277.34375 0.015625)" xlink:href="#DejaVuSans-115"/>
     <use transform="translate(329.443359 0.015625)" xlink:href="#DejaVuSans-112"/>
     <use transform="translate(392.919922 0.015625)" xlink:href="#DejaVuSans-101"/>
     <use transform="translate(454.443359 0.015625)" xlink:href="#DejaVuSans-99"/>
     <use transform="translate(509.423828 0.015625)" xlink:href="#DejaVuSans-116"/>
     <use transform="translate(548.632812 0.015625)" xlink:href="#DejaVuSans-114"/>
     <use transform="translate(589.746094 0.015625)" xlink:href="#DejaVuSans-97"/>
     <use transform="translate(651.025391 0.015625)" xlink:href="#DejaVuSans-32"/>
     <use transform="translate(682.8125 0.015625)" xlink:href="#DejaVuSans-111"/>
     <use transform="translate(743.994141 0.015625)" xlink:href="#DejaVuSans-102"/>
     <use transform="translate(779.199219 0.015625)" xlink:href="#DejaVuSans-32"/>
     <use transform="translate(810.986328 0.015625)" xlink:href="#DejaVuSans-98"/>
     <use transform="translate(874.462891 0.015625)" xlink:href="#DejaVuSans-117"/>
     <use transform="translate(937.841797 0.015625)" xlink:href="#DejaVuSans-108"/>
     <use transform="translate(965.625 0.015625)" xlink:href="#DejaVuSans-107"/>
     <use transform="translate(1023.535156 0.015625)" xlink:href="#DejaVuSans-32"/>
     <use transform="translate(1055.322266 0.015625)" xlink:href="#DejaVuSans-67"/>
     <use transform="translate(1126.103516 -16.390625)scale(0.7)" xlink:href="#DejaVuSans-50"/>
     <use transform="translate(1173.374023 0.015625)" xlink:href="#DejaVuSans-76"/>
     <use transform="translate(1229.086914 0.015625)" xlink:href="#DejaVuSans-105"/>
     <use transform="translate(1256.870117 0.015625)" xlink:href="#DejaVuSans-58"/>
     <use transform="translate(1290.561523 0.015625)" xlink:href="#DejaVuSans-32"/>
     <use transform="translate(1322.348633 0.015625)" xlink:href="#DejaVuSans-915"/>
     <use transform="translate(1378.061523 0.015625)" xlink:href="#DejaVuSans-45"/>
     <use transform="translate(1414.145508 0.015625)" xlink:href="#DejaVuSans-77"/>
    </g>
   </g>
   <g id="legend_1">
    <g id="patch_7">
     <path d="M 229.3 165.08 
L 317 165.08 
Q 319 165.08 319 163.08 
L 319 67.48 
Q 319 65.48 317 65.48 
L 229.3 65.48 
Q 227.3 65.48 227.3 67.48 
L 227.3 163.08 
Q 227.3 165.08 229.3 165.08 
z
" style="fill:#ffffff;opacity:0.8;stroke:#cccccc;stroke-linejoin:miter;"/>
    </g>
    <g id="line2d_25">
     <path d="M 231.3 74.98 
L 251.3 74.98 
" style="fill:none;stroke:#1f77b4;stroke-linecap:square;stroke-width:1.5;"/>
    </g>
    <g id="line2d_26"/>
    <g id="text_22">
     <!-- 0.05 Ang$^{-1}$ -->
     <g transform="translate(259.3 78.48)scale(0.1 -0.1)">
      <defs>
       <path d="M 10.6875 12.40625 
L 21 12.40625 
L 21 0 
L 10.6875 0 
z
" id="DejaVuSans-46"/>
       <path d="M 34.1875 63.1875 
L 20.796875 26.90625 
L 47.609375 26.90625 
z
M 28.609375 72.90625 
L 39.796875 72.90625 
L 67.578125 0 
L 57.328125 0 
L 50.6875 18.703125 
L 17.828125 18.703125 
L 11.1875 0 
L 0.78125 0 
z
" id="DejaVuSans-65"/>
       <path d="M 10.59375 35.5 
L 73.1875 35.5 
L 73.1875 27.203125 
L 10.59375 27.203125 
z
" id="DejaVuSans-8722"/>
      </defs>
      <use transform="translate(0 0.684375)" xlink:href="#DejaVuSans-48"/>
      <use transform="translate(63.623047 0.684375)" xlink:href="#DejaVuSans-46"/>
      <use transform="translate(95.410156 0.684375)" xlink:href="#DejaVuSans-48"/>
      <use transform="translate(159.033203 0.684375)" xlink:href="#DejaVuSans-53"/>
      <use transform="translate(222.65625 0.684375)" xlink:href="#DejaVuSans-32"/>
      <use transform="translate(254.443359 0.684375)" xlink:href="#DejaVuSans-65"/>
      <use transform="translate(322.851562 0.684375)" xlink:href="#DejaVuSans-110"/>
      <use transform="translate(386.230469 0.684375)" xlink:href="#DejaVuSans-103"/>
      <use transform="translate(450.664062 38.965625)scale(0.7)" xlink:href="#DejaVuSans-8722"/>
      <use transform="translate(509.316406 38.965625)scale(0.7)" xlink:href="#DejaVuSans-49"/>
     </g>
    </g>
    <g id="line2d_27">
     <path d="M 231.3 91.08 
L 251.3 91.08 
" style="fill:none;stroke:#ff7f0e;stroke-linecap:square;stroke-width:1.5;"/>
    </g>
    <g id="line2d_28"/>
    <g id="text_23">
     <!-- 0.14 Ang$^{-1}$ -->
     <g transform="translate(259.3 94.58)scale(0.1 -0.1)">
      <use transform="translate(0 0.684375)" xlink:href="#DejaVuSans-48"/>
      <use transform="translate(63.623047 0.684375)" xlink:href="#DejaVuSans-46"/>
      <use transform="translate(95.410156 0.684375)" xlink:href="#DejaVuSans-49"/>
      <use transform="translate(159.033203 0.684375)" xlink:href="#DejaVuSans-52"/>
      <use transform="translate(222.65625 0.684375)" xlink:href="#DejaVuSans-32"/>
      <use transform="translate(254.443359 0.684375)" xlink:href="#DejaVuSans-65"/>
      <use transform="translate(322.851562 0.684375)" xlink:href="#DejaVuSans-110"/>
      <use transform="translate(386.230469 0.684375)" xlink:href="#DejaVuSans-103"/>
      <use transform="translate(450.664062 38.965625)scale(0.7)" xlink:href="#DejaVuSans-8722"/>
      <use transform="translate(509.316406 38.965625)scale(0.7)" xlink:href="#DejaVuSans-49"/>
     </g>
    </g>
    <g id="line2d_29">
     <path d="M 231.3 107.18 
L 251.3 107.18 
" style="fill:none;stroke:#2ca02c;stroke-linecap:square;stroke-width:1.5;"/>
    </g>
    <g id="line2d_30"/>
    <g id="text_24">
     <!-- 0.24 Ang$^{-1}$ -->
     <g transform="translate(259.3 110.68)scale(0.1 -0.1)">
      <use transform="translate(0 0.684375)" xlink:href="#DejaVuSans-48"/>
      <use transform="translate(63.623047 0.684375)" xlink:href="#DejaVuSans-46"/>
      <use transform="translate(89.910156 0.684375)" xlink:href="#DejaVuSans-50"/>
      <use transform="translate(153.533203 0.684375)" xlink:href="#DejaVuSans-52"/>
      <use transform="translate(217.15625 0.684375)" xlink:href="#DejaVuSans-32"/>
      <use transform="translate(248.943359 0.684375)" xlink:href="#DejaVuSans-65"/>
      <use transform="translate(317.351562 0.684375)" xlink:href="#DejaVuSans-110"/>
      <use transform="translate(380.730469 0.684375)" xlink:href="#DejaVuSans-103"/>
      <use transform="translate(445.164062 38.965625)scale(0.7)" xlink:href="#DejaVuSans-8722"/>
      <use transform="translate(503.816406 38.965625)scale(0.7)" xlink:href="#DejaVuSans-49"/>
     </g>
    </g>
    <g id="line2d_31">
     <path d="M 231.3 123.28 
L 251.3 123.28 
" style="fill:none;stroke:#d62728;stroke-linecap:square;stroke-width:1.5;"/>
    </g>
    <g id="line2d_32"/>
    <g id="text_25">
     <!-- 0.33 Ang$^{-1}$ -->
     <g transform="translate(259.3 126.78)scale(0.1 -0.1)">
      <use transform="translate(0 0.684375)" xlink:href="#DejaVuSans-48"/>
      <use transform="translate(63.623047 0.684375)" xlink:href="#DejaVuSans-46"/>
      <use transform="translate(95.410156 0.684375)" xlink:href="#DejaVuSans-51"/>
      <use transform="translate(159.033203 0.684375)" xlink:href="#DejaVuSans-51"/>
      <use transform="translate(222.65625 0.684375)" xlink:href="#DejaVuSans-32"/>
      <use transform="translate(254.443359 0.684375)" xlink:href="#DejaVuSans-65"/>
      <use transform="translate(322.851562 0.684375)" xlink:href="#DejaVuSans-110"/>
      <use transform="translate(386.230469 0.684375)" xlink:href="#DejaVuSans-103"/>
      <use transform="translate(450.664062 38.965625)scale(0.7)" xlink:href="#DejaVuSans-8722"/>
      <use transform="translate(509.316406 38.965625)scale(0.7)" xlink:href="#DejaVuSans-49"/>
     </g>
    </g>
    <g id="line2d_33">
     <path d="M 231.3 139.38 
L 251.3 139.38 
" style="fill:none;stroke:#9467bd;stroke-linecap:square;stroke-width:1.5;"/>
    </g>
    <g id="line2d_34"/>
    <g id="text_26">
     <!-- 0.43 Ang$^{-1}$ -->
     <g transform="translate(259.3 142.88)scale(0.1 -0.1)">
      <use transform="translate(0 0.684375)" xlink:href="#DejaVuSans-48"/>
      <use transform="translate(63.623047 0.684375)" xlink:href="#DejaVuSans-46"/>
      <use transform="translate(95.410156 0.684375)" xlink:href="#DejaVuSans-52"/>
      <use transform="translate(159.033203 0.684375)" xlink:href="#DejaVuSans-51"/>
      <use transform="translate(222.65625 0.684375)" xlink:href="#DejaVuSans-32"/>
      <use transform="translate(254.443359 0.684375)" xlink:href="#DejaVuSans-65"/>
      <use transform="translate(322.851562 0.684375)" xlink:href="#DejaVuSans-110"/>
      <use transform="translate(386.230469 0.684375)" xlink:href="#DejaVuSans-103"/>
      <use transform="translate(450.664062 38.965625)scale(0.7)" xlink:href="#DejaVuSans-8722"/>
      <use transform="translate(509.316406 38.965625)scale(0.7)" xlink:href="#DejaVuSans-49"/>
     </g>
    </g>
    <g id="line2d_35">
     <path d="M 231.3 155.48 
L 251.3 155.48 
" style="fill:none;stroke:#8c564b;stroke-linecap:square;stroke-width:1.5;"/>
    </g>
    <g id="line2d_36"/>
    <g id="text_27">
     <!-- 0.52 Ang$^{-1}$ -->
     <g transform="translate(259.3 158.98)scale(0.1 -0.1)">
      <use transform="translate(0 0.684375)" xlink:href="#DejaVuSans-48"/>
      <use transform="translate(63.623047 0.684375)" xlink:href="#DejaVuSans-46"/>
      <use transform="translate(95.410156 0.684375)" xlink:href="#DejaVuSans-53"/>
      <use transform="translate(159.033203 0.684375)" xlink:href="#DejaVuSans-50"/>
      <use transform="translate(222.65625 0.684375)" xlink:href="#DejaVuSans-32"/>
      <use transform="translate(254.443359 0.684375)" xlink:href="#DejaVuSans-65"/>
      <use transform="translate(322.851562 0.684375)" xlink:href="#DejaVuSans-110"/>
      <use transform="translate(386.230469 0.684375)" xlink:href="#DejaVuSans-103"/>
      <use transform="translate(450.664062 38.965625)scale(0.7)" xlink:href="#DejaVuSans-8722"/>
      <use transform="translate(509.316406 38.965625)scale(0.7)" xlink:href="#DejaVuSans-49"/>
     </g>
    </g>
   </g>
  </g>
 </g>
 <defs>
  <clipPath id="pcc9cd332d3">
   <rect height="388.08" width="279" x="45" y="60.48"/>
  </clipPath>
 </defs>
</svg>
