<?xml version="1.0" encoding="utf-8" standalone="no"?>
<!DOCTYPE svg PUBLIC "-//W3C//DTD SVG 1.1//EN"
  "http://www.w3.org/Graphics/SVG/1.1/DTD/svg11.dtd">
<!-- Created with matplotlib (https://matplotlib.org/) -->
<svg height="504pt" version="1.1" viewBox="0 0 360 504" width="360pt" xmlns="http://www.w3.org/2000/svg" xmlns:xlink="http://www.w3.org/1999/xlink">
 <metadata>
  <rdf:RDF xmlns:cc="http://creativecommons.org/ns#" xmlns:dc="http://purl.org/dc/elements/1.1/" xmlns:rdf="http://www.w3.org/1999/02/22-rdf-syntax-ns#">
   <cc:Work>
    <dc:type rdf:resource="http://purl.org/dc/dcmitype/StillImage"/>
    <dc:date>2021-03-09T16:31:17.702291</dc:date>
    <dc:format>image/svg+xml</dc:format>
    <dc:creator>
     <cc:Agent>
      <dc:title>Matplotlib v3.3.4, https://matplotlib.org/</dc:title>
     </cc:Agent>
    </dc:creator>
   </cc:Work>
  </rdf:RDF>
 </metadata>
 <defs>
  <style type="text/css">*{stroke-linecap:butt;stroke-linejoin:round;}</style>
 </defs>
 <g id="figure_1">
  <g id="patch_1">
   <path d="M 0 504 
L 360 504 
L 360 0 
L 0 0 
z
" style="fill:#ffffff;"/>
  </g>
  <g id="axes_1">
   <g id="patch_2">
    <path d="M 45 448.56 
L 324 448.56 
L 324 60.48 
L 45 60.48 
z
" style="fill:#ffffff;"/>
   </g>
   <g id="matplotlib.axis_1">
    <g id="xtick_1">
     <g id="line2d_1">
      <defs>
       <path d="M 0 0 
L 0 3.5 
" id="mdcd417c7c7" style="stroke:#000000;stroke-width:0.8;"/>
      </defs>
      <g>
       <use style="stroke:#000000;stroke-width:0.8;" x="45" xlink:href="#mdcd417c7c7" y="448.56"/>
      </g>
     </g>
     <g id="text_1">
      <!-- 0 -->
      <g transform="translate(41.81875 463.158437)scale(0.1 -0.1)">
       <defs>
        <path d="M 31.78125 66.40625 
Q 24.171875 66.40625 20.328125 58.90625 
Q 16.5 51.421875 16.5 36.375 
Q 16.5 21.390625 20.328125 13.890625 
Q 24.171875 6.390625 31.78125 6.390625 
Q 39.453125 6.390625 43.28125 13.890625 
Q 47.125 21.390625 47.125 36.375 
Q 47.125 51.421875 43.28125 58.90625 
Q 39.453125 66.40625 31.78125 66.40625 
z
M 31.78125 74.21875 
Q 44.046875 74.21875 50.515625 64.515625 
Q 56.984375 54.828125 56.984375 36.375 
Q 56.984375 17.96875 50.515625 8.265625 
Q 44.046875 -1.421875 31.78125 -1.421875 
Q 19.53125 -1.421875 13.0625 8.265625 
Q 6.59375 17.96875 6.59375 36.375 
Q 6.59375 54.828125 13.0625 64.515625 
Q 19.53125 74.21875 31.78125 74.21875 
z
" id="DejaVuSans-48"/>
       </defs>
       <use xlink:href="#DejaVuSans-48"/>
      </g>
     </g>
    </g>
    <g id="xtick_2">
     <g id="line2d_2">
      <g>
       <use style="stroke:#000000;stroke-width:0.8;" x="82.2" xlink:href="#mdcd417c7c7" y="448.56"/>
      </g>
     </g>
     <g id="text_2">
      <!-- 2 -->
      <g transform="translate(79.01875 463.158437)scale(0.1 -0.1)">
       <defs>
        <path d="M 19.1875 8.296875 
L 53.609375 8.296875 
L 53.609375 0 
L 7.328125 0 
L 7.328125 8.296875 
Q 12.9375 14.109375 22.625 23.890625 
Q 32.328125 33.6875 34.8125 36.53125 
Q 39.546875 41.84375 41.421875 45.53125 
Q 43.3125 49.21875 43.3125 52.78125 
Q 43.3125 58.59375 39.234375 62.25 
Q 35.15625 65.921875 28.609375 65.921875 
Q 23.96875 65.921875 18.8125 64.3125 
Q 13.671875 62.703125 7.8125 59.421875 
L 7.8125 69.390625 
Q 13.765625 71.78125 18.9375 73 
Q 24.125 74.21875 28.421875 74.21875 
Q 39.75 74.21875 46.484375 68.546875 
Q 53.21875 62.890625 53.21875 53.421875 
Q 53.21875 48.921875 51.53125 44.890625 
Q 49.859375 40.875 45.40625 35.40625 
Q 44.1875 33.984375 37.640625 27.21875 
Q 31.109375 20.453125 19.1875 8.296875 
z
" id="DejaVuSans-50"/>
       </defs>
       <use xlink:href="#DejaVuSans-50"/>
      </g>
     </g>
    </g>
    <g id="xtick_3">
     <g id="line2d_3">
      <g>
       <use style="stroke:#000000;stroke-width:0.8;" x="119.4" xlink:href="#mdcd417c7c7" y="448.56"/>
      </g>
     </g>
     <g id="text_3">
      <!-- 4 -->
      <g transform="translate(116.21875 463.158437)scale(0.1 -0.1)">
       <defs>
        <path d="M 37.796875 64.3125 
L 12.890625 25.390625 
L 37.796875 25.390625 
z
M 35.203125 72.90625 
L 47.609375 72.90625 
L 47.609375 25.390625 
L 58.015625 25.390625 
L 58.015625 17.1875 
L 47.609375 17.1875 
L 47.609375 0 
L 37.796875 0 
L 37.796875 17.1875 
L 4.890625 17.1875 
L 4.890625 26.703125 
z
" id="DejaVuSans-52"/>
       </defs>
       <use xlink:href="#DejaVuSans-52"/>
      </g>
     </g>
    </g>
    <g id="xtick_4">
     <g id="line2d_4">
      <g>
       <use style="stroke:#000000;stroke-width:0.8;" x="156.6" xlink:href="#mdcd417c7c7" y="448.56"/>
      </g>
     </g>
     <g id="text_4">
      <!-- 6 -->
      <g transform="translate(153.41875 463.158437)scale(0.1 -0.1)">
       <defs>
        <path d="M 33.015625 40.375 
Q 26.375 40.375 22.484375 35.828125 
Q 18.609375 31.296875 18.609375 23.390625 
Q 18.609375 15.53125 22.484375 10.953125 
Q 26.375 6.390625 33.015625 6.390625 
Q 39.65625 6.390625 43.53125 10.953125 
Q 47.40625 15.53125 47.40625 23.390625 
Q 47.40625 31.296875 43.53125 35.828125 
Q 39.65625 40.375 33.015625 40.375 
z
M 52.59375 71.296875 
L 52.59375 62.3125 
Q 48.875 64.0625 45.09375 64.984375 
Q 41.3125 65.921875 37.59375 65.921875 
Q 27.828125 65.921875 22.671875 59.328125 
Q 17.53125 52.734375 16.796875 39.40625 
Q 19.671875 43.65625 24.015625 45.921875 
Q 28.375 48.1875 33.59375 48.1875 
Q 44.578125 48.1875 50.953125 41.515625 
Q 57.328125 34.859375 57.328125 23.390625 
Q 57.328125 12.15625 50.6875 5.359375 
Q 44.046875 -1.421875 33.015625 -1.421875 
Q 20.359375 -1.421875 13.671875 8.265625 
Q 6.984375 17.96875 6.984375 36.375 
Q 6.984375 53.65625 15.1875 63.9375 
Q 23.390625 74.21875 37.203125 74.21875 
Q 40.921875 74.21875 44.703125 73.484375 
Q 48.484375 72.75 52.59375 71.296875 
z
" id="DejaVuSans-54"/>
       </defs>
       <use xlink:href="#DejaVuSans-54"/>
      </g>
     </g>
    </g>
    <g id="xtick_5">
     <g id="line2d_5">
      <g>
       <use style="stroke:#000000;stroke-width:0.8;" x="193.8" xlink:href="#mdcd417c7c7" y="448.56"/>
      </g>
     </g>
     <g id="text_5">
      <!-- 8 -->
      <g transform="translate(190.61875 463.158437)scale(0.1 -0.1)">
       <defs>
        <path d="M 31.78125 34.625 
Q 24.75 34.625 20.71875 30.859375 
Q 16.703125 27.09375 16.703125 20.515625 
Q 16.703125 13.921875 20.71875 10.15625 
Q 24.75 6.390625 31.78125 6.390625 
Q 38.8125 6.390625 42.859375 10.171875 
Q 46.921875 13.96875 46.921875 20.515625 
Q 46.921875 27.09375 42.890625 30.859375 
Q 38.875 34.625 31.78125 34.625 
z
M 21.921875 38.8125 
Q 15.578125 40.375 12.03125 44.71875 
Q 8.5 49.078125 8.5 55.328125 
Q 8.5 64.0625 14.71875 69.140625 
Q 20.953125 74.21875 31.78125 74.21875 
Q 42.671875 74.21875 48.875 69.140625 
Q 55.078125 64.0625 55.078125 55.328125 
Q 55.078125 49.078125 51.53125 44.71875 
Q 48 40.375 41.703125 38.8125 
Q 48.828125 37.15625 52.796875 32.3125 
Q 56.78125 27.484375 56.78125 20.515625 
Q 56.78125 9.90625 50.3125 4.234375 
Q 43.84375 -1.421875 31.78125 -1.421875 
Q 19.734375 -1.421875 13.25 4.234375 
Q 6.78125 9.90625 6.78125 20.515625 
Q 6.78125 27.484375 10.78125 32.3125 
Q 14.796875 37.15625 21.921875 38.8125 
z
M 18.3125 54.390625 
Q 18.3125 48.734375 21.84375 45.5625 
Q 25.390625 42.390625 31.78125 42.390625 
Q 38.140625 42.390625 41.71875 45.5625 
Q 45.3125 48.734375 45.3125 54.390625 
Q 45.3125 60.0625 41.71875 63.234375 
Q 38.140625 66.40625 31.78125 66.40625 
Q 25.390625 66.40625 21.84375 63.234375 
Q 18.3125 60.0625 18.3125 54.390625 
z
" id="DejaVuSans-56"/>
       </defs>
       <use xlink:href="#DejaVuSans-56"/>
      </g>
     </g>
    </g>
    <g id="xtick_6">
     <g id="line2d_6">
      <g>
       <use style="stroke:#000000;stroke-width:0.8;" x="231" xlink:href="#mdcd417c7c7" y="448.56"/>
      </g>
     </g>
     <g id="text_6">
      <!-- 10 -->
      <g transform="translate(224.6375 463.158437)scale(0.1 -0.1)">
       <defs>
        <path d="M 12.40625 8.296875 
L 28.515625 8.296875 
L 28.515625 63.921875 
L 10.984375 60.40625 
L 10.984375 69.390625 
L 28.421875 72.90625 
L 38.28125 72.90625 
L 38.28125 8.296875 
L 54.390625 8.296875 
L 54.390625 0 
L 12.40625 0 
z
" id="DejaVuSans-49"/>
       </defs>
       <use xlink:href="#DejaVuSans-49"/>
       <use x="63.623047" xlink:href="#DejaVuSans-48"/>
      </g>
     </g>
    </g>
    <g id="xtick_7">
     <g id="line2d_7">
      <g>
       <use style="stroke:#000000;stroke-width:0.8;" x="268.2" xlink:href="#mdcd417c7c7" y="448.56"/>
      </g>
     </g>
     <g id="text_7">
      <!-- 12 -->
      <g transform="translate(261.8375 463.158437)scale(0.1 -0.1)">
       <use xlink:href="#DejaVuSans-49"/>
       <use x="63.623047" xlink:href="#DejaVuSans-50"/>
      </g>
     </g>
    </g>
    <g id="xtick_8">
     <g id="line2d_8">
      <g>
       <use style="stroke:#000000;stroke-width:0.8;" x="305.4" xlink:href="#mdcd417c7c7" y="448.56"/>
      </g>
     </g>
     <g id="text_8">
      <!-- 14 -->
      <g transform="translate(299.0375 463.158437)scale(0.1 -0.1)">
       <use xlink:href="#DejaVuSans-49"/>
       <use x="63.623047" xlink:href="#DejaVuSans-52"/>
      </g>
     </g>
    </g>
    <g id="text_9">
     <!-- Energy [eV] -->
     <g transform="translate(155.00625 476.836563)scale(0.1 -0.1)">
      <defs>
       <path d="M 9.8125 72.90625 
L 55.90625 72.90625 
L 55.90625 64.59375 
L 19.671875 64.59375 
L 19.671875 43.015625 
L 54.390625 43.015625 
L 54.390625 34.71875 
L 19.671875 34.71875 
L 19.671875 8.296875 
L 56.78125 8.296875 
L 56.78125 0 
L 9.8125 0 
z
" id="DejaVuSans-69"/>
       <path d="M 54.890625 33.015625 
L 54.890625 0 
L 45.90625 0 
L 45.90625 32.71875 
Q 45.90625 40.484375 42.875 44.328125 
Q 39.84375 48.1875 33.796875 48.1875 
Q 26.515625 48.1875 22.3125 43.546875 
Q 18.109375 38.921875 18.109375 30.90625 
L 18.109375 0 
L 9.078125 0 
L 9.078125 54.6875 
L 18.109375 54.6875 
L 18.109375 46.1875 
Q 21.34375 51.125 25.703125 53.5625 
Q 30.078125 56 35.796875 56 
Q 45.21875 56 50.046875 50.171875 
Q 54.890625 44.34375 54.890625 33.015625 
z
" id="DejaVuSans-110"/>
       <path d="M 56.203125 29.59375 
L 56.203125 25.203125 
L 14.890625 25.203125 
Q 15.484375 15.921875 20.484375 11.0625 
Q 25.484375 6.203125 34.421875 6.203125 
Q 39.59375 6.203125 44.453125 7.46875 
Q 49.3125 8.734375 54.109375 11.28125 
L 54.109375 2.78125 
Q 49.265625 0.734375 44.1875 -0.34375 
Q 39.109375 -1.421875 33.890625 -1.421875 
Q 20.796875 -1.421875 13.15625 6.1875 
Q 5.515625 13.8125 5.515625 26.8125 
Q 5.515625 40.234375 12.765625 48.109375 
Q 20.015625 56 32.328125 56 
Q 43.359375 56 49.78125 48.890625 
Q 56.203125 41.796875 56.203125 29.59375 
z
M 47.21875 32.234375 
Q 47.125 39.59375 43.09375 43.984375 
Q 39.0625 48.390625 32.421875 48.390625 
Q 24.90625 48.390625 20.390625 44.140625 
Q 15.875 39.890625 15.1875 32.171875 
z
" id="DejaVuSans-101"/>
       <path d="M 41.109375 46.296875 
Q 39.59375 47.171875 37.8125 47.578125 
Q 36.03125 48 33.890625 48 
Q 26.265625 48 22.1875 43.046875 
Q 18.109375 38.09375 18.109375 28.8125 
L 18.109375 0 
L 9.078125 0 
L 9.078125 54.6875 
L 18.109375 54.6875 
L 18.109375 46.1875 
Q 20.953125 51.171875 25.484375 53.578125 
Q 30.03125 56 36.53125 56 
Q 37.453125 56 38.578125 55.875 
Q 39.703125 55.765625 41.0625 55.515625 
z
" id="DejaVuSans-114"/>
       <path d="M 45.40625 27.984375 
Q 45.40625 37.75 41.375 43.109375 
Q 37.359375 48.484375 30.078125 48.484375 
Q 22.859375 48.484375 18.828125 43.109375 
Q 14.796875 37.75 14.796875 27.984375 
Q 14.796875 18.265625 18.828125 12.890625 
Q 22.859375 7.515625 30.078125 7.515625 
Q 37.359375 7.515625 41.375 12.890625 
Q 45.40625 18.265625 45.40625 27.984375 
z
M 54.390625 6.78125 
Q 54.390625 -7.171875 48.1875 -13.984375 
Q 42 -20.796875 29.203125 -20.796875 
Q 24.46875 -20.796875 20.265625 -20.09375 
Q 16.0625 -19.390625 12.109375 -17.921875 
L 12.109375 -9.1875 
Q 16.0625 -11.328125 19.921875 -12.34375 
Q 23.78125 -13.375 27.78125 -13.375 
Q 36.625 -13.375 41.015625 -8.765625 
Q 45.40625 -4.15625 45.40625 5.171875 
L 45.40625 9.625 
Q 42.625 4.78125 38.28125 2.390625 
Q 33.9375 0 27.875 0 
Q 17.828125 0 11.671875 7.65625 
Q 5.515625 15.328125 5.515625 27.984375 
Q 5.515625 40.671875 11.671875 48.328125 
Q 17.828125 56 27.875 56 
Q 33.9375 56 38.28125 53.609375 
Q 42.625 51.21875 45.40625 46.390625 
L 45.40625 54.6875 
L 54.390625 54.6875 
z
" id="DejaVuSans-103"/>
       <path d="M 32.171875 -5.078125 
Q 28.375 -14.84375 24.75 -17.8125 
Q 21.140625 -20.796875 15.09375 -20.796875 
L 7.90625 -20.796875 
L 7.90625 -13.28125 
L 13.1875 -13.28125 
Q 16.890625 -13.28125 18.9375 -11.515625 
Q 21 -9.765625 23.484375 -3.21875 
L 25.09375 0.875 
L 2.984375 54.6875 
L 12.5 54.6875 
L 29.59375 11.921875 
L 46.6875 54.6875 
L 56.203125 54.6875 
z
" id="DejaVuSans-121"/>
       <path id="DejaVuSans-32"/>
       <path d="M 8.59375 75.984375 
L 29.296875 75.984375 
L 29.296875 69 
L 17.578125 69 
L 17.578125 -6.203125 
L 29.296875 -6.203125 
L 29.296875 -13.1875 
L 8.59375 -13.1875 
z
" id="DejaVuSans-91"/>
       <path d="M 28.609375 0 
L 0.78125 72.90625 
L 11.078125 72.90625 
L 34.1875 11.53125 
L 57.328125 72.90625 
L 67.578125 72.90625 
L 39.796875 0 
z
" id="DejaVuSans-86"/>
       <path d="M 30.421875 75.984375 
L 30.421875 -13.1875 
L 9.71875 -13.1875 
L 9.71875 -6.203125 
L 21.390625 -6.203125 
L 21.390625 69 
L 9.71875 69 
L 9.71875 75.984375 
z
" id="DejaVuSans-93"/>
      </defs>
      <use xlink:href="#DejaVuSans-69"/>
      <use x="63.183594" xlink:href="#DejaVuSans-110"/>
      <use x="126.5625" xlink:href="#DejaVuSans-101"/>
      <use x="188.085938" xlink:href="#DejaVuSans-114"/>
      <use x="227.449219" xlink:href="#DejaVuSans-103"/>
      <use x="290.925781" xlink:href="#DejaVuSans-121"/>
      <use x="350.105469" xlink:href="#DejaVuSans-32"/>
      <use x="381.892578" xlink:href="#DejaVuSans-91"/>
      <use x="420.90625" xlink:href="#DejaVuSans-101"/>
      <use x="482.429688" xlink:href="#DejaVuSans-86"/>
      <use x="550.837891" xlink:href="#DejaVuSans-93"/>
     </g>
    </g>
   </g>
   <g id="matplotlib.axis_2">
    <g id="ytick_1">
     <g id="line2d_9">
      <defs>
       <path d="M 0 0 
L -3.5 0 
" id="m5e316bab2f" style="stroke:#000000;stroke-width:0.8;"/>
      </defs>
      <g>
       <use style="stroke:#000000;stroke-width:0.8;" x="45" xlink:href="#m5e316bab2f" y="411.525592"/>
      </g>
     </g>
     <g id="text_10">
      <!-- 0 -->
      <g transform="translate(31.6375 415.32481)scale(0.1 -0.1)">
       <use xlink:href="#DejaVuSans-48"/>
      </g>
     </g>
    </g>
    <g id="ytick_2">
     <g id="line2d_10">
      <g>
       <use style="stroke:#000000;stroke-width:0.8;" x="45" xlink:href="#m5e316bab2f" y="363.03957"/>
      </g>
     </g>
     <g id="text_11">
      <!-- 1 -->
      <g transform="translate(31.6375 366.838789)scale(0.1 -0.1)">
       <use xlink:href="#DejaVuSans-49"/>
      </g>
     </g>
    </g>
    <g id="ytick_3">
     <g id="line2d_11">
      <g>
       <use style="stroke:#000000;stroke-width:0.8;" x="45" xlink:href="#m5e316bab2f" y="314.553549"/>
      </g>
     </g>
     <g id="text_12">
      <!-- 2 -->
      <g transform="translate(31.6375 318.352768)scale(0.1 -0.1)">
       <use xlink:href="#DejaVuSans-50"/>
      </g>
     </g>
    </g>
    <g id="ytick_4">
     <g id="line2d_12">
      <g>
       <use style="stroke:#000000;stroke-width:0.8;" x="45" xlink:href="#m5e316bab2f" y="266.067528"/>
      </g>
     </g>
     <g id="text_13">
      <!-- 3 -->
      <g transform="translate(31.6375 269.866747)scale(0.1 -0.1)">
       <defs>
        <path d="M 40.578125 39.3125 
Q 47.65625 37.796875 51.625 33 
Q 55.609375 28.21875 55.609375 21.1875 
Q 55.609375 10.40625 48.1875 4.484375 
Q 40.765625 -1.421875 27.09375 -1.421875 
Q 22.515625 -1.421875 17.65625 -0.515625 
Q 12.796875 0.390625 7.625 2.203125 
L 7.625 11.71875 
Q 11.71875 9.328125 16.59375 8.109375 
Q 21.484375 6.890625 26.8125 6.890625 
Q 36.078125 6.890625 40.9375 10.546875 
Q 45.796875 14.203125 45.796875 21.1875 
Q 45.796875 27.640625 41.28125 31.265625 
Q 36.765625 34.90625 28.71875 34.90625 
L 20.21875 34.90625 
L 20.21875 43.015625 
L 29.109375 43.015625 
Q 36.375 43.015625 40.234375 45.921875 
Q 44.09375 48.828125 44.09375 54.296875 
Q 44.09375 59.90625 40.109375 62.90625 
Q 36.140625 65.921875 28.71875 65.921875 
Q 24.65625 65.921875 20.015625 65.03125 
Q 15.375 64.15625 9.8125 62.3125 
L 9.8125 71.09375 
Q 15.4375 72.65625 20.34375 73.4375 
Q 25.25 74.21875 29.59375 74.21875 
Q 40.828125 74.21875 47.359375 69.109375 
Q 53.90625 64.015625 53.90625 55.328125 
Q 53.90625 49.265625 50.4375 45.09375 
Q 46.96875 40.921875 40.578125 39.3125 
z
" id="DejaVuSans-51"/>
       </defs>
       <use xlink:href="#DejaVuSans-51"/>
      </g>
     </g>
    </g>
    <g id="ytick_5">
     <g id="line2d_13">
      <g>
       <use style="stroke:#000000;stroke-width:0.8;" x="45" xlink:href="#m5e316bab2f" y="217.581507"/>
      </g>
     </g>
     <g id="text_14">
      <!-- 4 -->
      <g transform="translate(31.6375 221.380725)scale(0.1 -0.1)">
       <use xlink:href="#DejaVuSans-52"/>
      </g>
     </g>
    </g>
    <g id="ytick_6">
     <g id="line2d_14">
      <g>
       <use style="stroke:#000000;stroke-width:0.8;" x="45" xlink:href="#m5e316bab2f" y="169.095485"/>
      </g>
     </g>
     <g id="text_15">
      <!-- 5 -->
      <g transform="translate(31.6375 172.894704)scale(0.1 -0.1)">
       <defs>
        <path d="M 10.796875 72.90625 
L 49.515625 72.90625 
L 49.515625 64.59375 
L 19.828125 64.59375 
L 19.828125 46.734375 
Q 21.96875 47.46875 24.109375 47.828125 
Q 26.265625 48.1875 28.421875 48.1875 
Q 40.625 48.1875 47.75 41.5 
Q 54.890625 34.8125 54.890625 23.390625 
Q 54.890625 11.625 47.5625 5.09375 
Q 40.234375 -1.421875 26.90625 -1.421875 
Q 22.3125 -1.421875 17.546875 -0.640625 
Q 12.796875 0.140625 7.71875 1.703125 
L 7.71875 11.625 
Q 12.109375 9.234375 16.796875 8.0625 
Q 21.484375 6.890625 26.703125 6.890625 
Q 35.15625 6.890625 40.078125 11.328125 
Q 45.015625 15.765625 45.015625 23.390625 
Q 45.015625 31 40.078125 35.4375 
Q 35.15625 39.890625 26.703125 39.890625 
Q 22.75 39.890625 18.8125 39.015625 
Q 14.890625 38.140625 10.796875 36.28125 
z
" id="DejaVuSans-53"/>
       </defs>
       <use xlink:href="#DejaVuSans-53"/>
      </g>
     </g>
    </g>
    <g id="ytick_7">
     <g id="line2d_15">
      <g>
       <use style="stroke:#000000;stroke-width:0.8;" x="45" xlink:href="#m5e316bab2f" y="120.609464"/>
      </g>
     </g>
     <g id="text_16">
      <!-- 6 -->
      <g transform="translate(31.6375 124.408683)scale(0.1 -0.1)">
       <use xlink:href="#DejaVuSans-54"/>
      </g>
     </g>
    </g>
    <g id="ytick_8">
     <g id="line2d_16">
      <g>
       <use style="stroke:#000000;stroke-width:0.8;" x="45" xlink:href="#m5e316bab2f" y="72.123443"/>
      </g>
     </g>
     <g id="text_17">
      <!-- 7 -->
      <g transform="translate(31.6375 75.922662)scale(0.1 -0.1)">
       <defs>
        <path d="M 8.203125 72.90625 
L 55.078125 72.90625 
L 55.078125 68.703125 
L 28.609375 0 
L 18.3125 0 
L 43.21875 64.59375 
L 8.203125 64.59375 
z
" id="DejaVuSans-55"/>
       </defs>
       <use xlink:href="#DejaVuSans-55"/>
      </g>
     </g>
    </g>
    <g id="text_18">
     <!-- Loss Function -->
     <g transform="translate(25.557812 288.341094)rotate(-90)scale(0.1 -0.1)">
      <defs>
       <path d="M 9.8125 72.90625 
L 19.671875 72.90625 
L 19.671875 8.296875 
L 55.171875 8.296875 
L 55.171875 0 
L 9.8125 0 
z
" id="DejaVuSans-76"/>
       <path d="M 30.609375 48.390625 
Q 23.390625 48.390625 19.1875 42.75 
Q 14.984375 37.109375 14.984375 27.296875 
Q 14.984375 17.484375 19.15625 11.84375 
Q 23.34375 6.203125 30.609375 6.203125 
Q 37.796875 6.203125 41.984375 11.859375 
Q 46.1875 17.53125 46.1875 27.296875 
Q 46.1875 37.015625 41.984375 42.703125 
Q 37.796875 48.390625 30.609375 48.390625 
z
M 30.609375 56 
Q 42.328125 56 49.015625 48.375 
Q 55.71875 40.765625 55.71875 27.296875 
Q 55.71875 13.875 49.015625 6.21875 
Q 42.328125 -1.421875 30.609375 -1.421875 
Q 18.84375 -1.421875 12.171875 6.21875 
Q 5.515625 13.875 5.515625 27.296875 
Q 5.515625 40.765625 12.171875 48.375 
Q 18.84375 56 30.609375 56 
z
" id="DejaVuSans-111"/>
       <path d="M 44.28125 53.078125 
L 44.28125 44.578125 
Q 40.484375 46.53125 36.375 47.5 
Q 32.28125 48.484375 27.875 48.484375 
Q 21.1875 48.484375 17.84375 46.4375 
Q 14.5 44.390625 14.5 40.28125 
Q 14.5 37.15625 16.890625 35.375 
Q 19.28125 33.59375 26.515625 31.984375 
L 29.59375 31.296875 
Q 39.15625 29.25 43.1875 25.515625 
Q 47.21875 21.78125 47.21875 15.09375 
Q 47.21875 7.46875 41.1875 3.015625 
Q 35.15625 -1.421875 24.609375 -1.421875 
Q 20.21875 -1.421875 15.453125 -0.5625 
Q 10.6875 0.296875 5.421875 2 
L 5.421875 11.28125 
Q 10.40625 8.6875 15.234375 7.390625 
Q 20.0625 6.109375 24.8125 6.109375 
Q 31.15625 6.109375 34.5625 8.28125 
Q 37.984375 10.453125 37.984375 14.40625 
Q 37.984375 18.0625 35.515625 20.015625 
Q 33.0625 21.96875 24.703125 23.78125 
L 21.578125 24.515625 
Q 13.234375 26.265625 9.515625 29.90625 
Q 5.8125 33.546875 5.8125 39.890625 
Q 5.8125 47.609375 11.28125 51.796875 
Q 16.75 56 26.8125 56 
Q 31.78125 56 36.171875 55.265625 
Q 40.578125 54.546875 44.28125 53.078125 
z
" id="DejaVuSans-115"/>
       <path d="M 9.8125 72.90625 
L 51.703125 72.90625 
L 51.703125 64.59375 
L 19.671875 64.59375 
L 19.671875 43.109375 
L 48.578125 43.109375 
L 48.578125 34.8125 
L 19.671875 34.8125 
L 19.671875 0 
L 9.8125 0 
z
" id="DejaVuSans-70"/>
       <path d="M 8.5 21.578125 
L 8.5 54.6875 
L 17.484375 54.6875 
L 17.484375 21.921875 
Q 17.484375 14.15625 20.5 10.265625 
Q 23.53125 6.390625 29.59375 6.390625 
Q 36.859375 6.390625 41.078125 11.03125 
Q 45.3125 15.671875 45.3125 23.6875 
L 45.3125 54.6875 
L 54.296875 54.6875 
L 54.296875 0 
L 45.3125 0 
L 45.3125 8.40625 
Q 42.046875 3.421875 37.71875 1 
Q 33.40625 -1.421875 27.6875 -1.421875 
Q 18.265625 -1.421875 13.375 4.4375 
Q 8.5 10.296875 8.5 21.578125 
z
M 31.109375 56 
z
" id="DejaVuSans-117"/>
       <path d="M 48.78125 52.59375 
L 48.78125 44.1875 
Q 44.96875 46.296875 41.140625 47.34375 
Q 37.3125 48.390625 33.40625 48.390625 
Q 24.65625 48.390625 19.8125 42.84375 
Q 14.984375 37.3125 14.984375 27.296875 
Q 14.984375 17.28125 19.8125 11.734375 
Q 24.65625 6.203125 33.40625 6.203125 
Q 37.3125 6.203125 41.140625 7.25 
Q 44.96875 8.296875 48.78125 10.40625 
L 48.78125 2.09375 
Q 45.015625 0.34375 40.984375 -0.53125 
Q 36.96875 -1.421875 32.421875 -1.421875 
Q 20.0625 -1.421875 12.78125 6.34375 
Q 5.515625 14.109375 5.515625 27.296875 
Q 5.515625 40.671875 12.859375 48.328125 
Q 20.21875 56 33.015625 56 
Q 37.15625 56 41.109375 55.140625 
Q 45.0625 54.296875 48.78125 52.59375 
z
" id="DejaVuSans-99"/>
       <path d="M 18.3125 70.21875 
L 18.3125 54.6875 
L 36.8125 54.6875 
L 36.8125 47.703125 
L 18.3125 47.703125 
L 18.3125 18.015625 
Q 18.3125 11.328125 20.140625 9.421875 
Q 21.96875 7.515625 27.59375 7.515625 
L 36.8125 7.515625 
L 36.8125 0 
L 27.59375 0 
Q 17.1875 0 13.234375 3.875 
Q 9.28125 7.765625 9.28125 18.015625 
L 9.28125 47.703125 
L 2.6875 47.703125 
L 2.6875 54.6875 
L 9.28125 54.6875 
L 9.28125 70.21875 
z
" id="DejaVuSans-116"/>
       <path d="M 9.421875 54.6875 
L 18.40625 54.6875 
L 18.40625 0 
L 9.421875 0 
z
M 9.421875 75.984375 
L 18.40625 75.984375 
L 18.40625 64.59375 
L 9.421875 64.59375 
z
" id="DejaVuSans-105"/>
      </defs>
      <use xlink:href="#DejaVuSans-76"/>
      <use x="53.962891" xlink:href="#DejaVuSans-111"/>
      <use x="115.144531" xlink:href="#DejaVuSans-115"/>
      <use x="167.244141" xlink:href="#DejaVuSans-115"/>
      <use x="219.34375" xlink:href="#DejaVuSans-32"/>
      <use x="251.130859" xlink:href="#DejaVuSans-70"/>
      <use x="303.150391" xlink:href="#DejaVuSans-117"/>
      <use x="366.529297" xlink:href="#DejaVuSans-110"/>
      <use x="429.908203" xlink:href="#DejaVuSans-99"/>
      <use x="484.888672" xlink:href="#DejaVuSans-116"/>
      <use x="524.097656" xlink:href="#DejaVuSans-105"/>
      <use x="551.880859" xlink:href="#DejaVuSans-111"/>
      <use x="613.0625" xlink:href="#DejaVuSans-110"/>
     </g>
    </g>
   </g>
   <g id="line2d_17">
    <path clip-path="url(#pef22f79047)" d="M 45 333.947958 
L 50.26912 333.884053 
L 76.872309 333.828391 
L 98.96325 333.305275 
L 100.83733 333.102604 
L 103.19966 332.886792 
L 106.303945 332.442806 
L 107.025718 332.368622 
L 107.991281 332.293324 
L 110.177171 331.555948 
L 110.909937 331.107016 
L 111.399619 330.983619 
L 112.381792 330.528287 
L 112.874283 330.448188 
L 115.102154 328.871956 
L 115.599834 328.330803 
L 116.098481 328.005268 
L 116.598096 327.179648 
L 117.349294 325.30096 
L 117.60019 324.840392 
L 118.102687 323.125053 
L 119.110584 319.361908 
L 119.616002 317.844053 
L 120.122387 315.259942 
L 120.629758 311.576216 
L 121.392655 305.379267 
L 122.157766 292.652171 
L 122.925109 279.359049 
L 123.43793 264.27049 
L 123.951736 235.753728 
L 124.724343 177.546356 
L 125.4992 87.171177 
L 125.757982 78.12 
L 126.017024 82.271034 
L 126.276327 94.139636 
L 126.795695 138.215126 
L 127.316067 185.345042 
L 128.35988 248.153058 
L 129.145451 274.654208 
L 129.933329 289.729336 
L 130.723531 302.131479 
L 131.516096 309.775543 
L 132.045768 314.120617 
L 133.108274 318.262827 
L 133.907926 320.515342 
L 134.442341 322.225007 
L 136.051985 324.664388 
L 136.321201 324.587925 
L 137.13045 323.863495 
L 137.671301 324.050991 
L 138.21323 324.707443 
L 138.756239 325.365301 
L 139.028152 325.418394 
L 139.572797 325.254365 
L 140.66538 325.37558 
L 142.037297 325.651611 
L 142.312503 325.942721 
L 142.86377 327.039572 
L 143.416134 328.002602 
L 144.246791 328.462637 
L 145.358253 329.528796 
L 145.915695 329.86558 
L 146.474234 329.736898 
L 147.594773 329.46271 
L 149.284136 330.894502 
L 149.849558 330.994577 
L 150.699875 330.815615 
L 151.26818 330.554421 
L 151.837675 330.662254 
L 152.980161 331.026287 
L 153.553171 331.037099 
L 154.127353 330.85644 
L 154.702726 330.848052 
L 155.279288 330.65726 
L 156.435985 330.809021 
L 157.597462 331.38809 
L 158.471755 331.412623 
L 159.056111 331.343919 
L 161.996251 331.626447 
L 162.587972 331.728607 
L 164.072699 331.747953 
L 165.266075 332.015693 
L 169.179459 331.831106 
L 169.786284 331.898114 
L 170.394411 332.061803 
L 171.614534 331.927884 
L 172.839865 331.845798 
L 173.762276 331.938018 
L 174.996758 331.569524 
L 175.615989 331.628726 
L 176.54731 331.400987 
L 177.169852 331.425036 
L 178.418953 331.183866 
L 179.987919 331.136205 
L 181.249185 330.876756 
L 182.515901 330.756802 
L 183.469541 330.510977 
L 184.107038 330.28993 
L 184.745911 329.907957 
L 185.38616 329.892829 
L 186.027823 329.976225 
L 187.315333 329.331749 
L 188.60848 329.434297 
L 189.257173 329.138775 
L 189.907299 329.130386 
L 190.558838 328.915399 
L 191.21181 329.064882 
L 191.866214 328.947837 
L 193.179355 329.023475 
L 194.4983 328.747541 
L 196.487681 328.987207 
L 198.825404 328.724171 
L 200.16944 329.016541 
L 201.857929 328.823518 
L 202.196747 328.660072 
L 202.535974 328.636265 
L 203.555867 329.130144 
L 204.237725 329.091792 
L 205.606015 328.842186 
L 206.980499 328.737989 
L 208.361177 328.944637 
L 210.095813 328.864489 
L 210.792439 329.021438 
L 213.243082 329.012468 
L 216.778068 329.026238 
L 219.635363 329.188861 
L 221.073887 329.072591 
L 222.51907 329.472455 
L 223.244172 329.541015 
L 224.334969 329.416309 
L 228.367244 330.068979 
L 229.475935 330.332161 
L 230.217238 330.276111 
L 231.705052 330.721892 
L 232.451581 330.941485 
L 233.949923 331.076712 
L 236.967847 330.613137 
L 238.10693 330.249007 
L 239.250086 329.987813 
L 240.014453 329.9242 
L 240.397315 329.79096 
L 241.548637 329.733359 
L 242.318472 329.428818 
L 244.251124 329.756583 
L 245.416283 329.178339 
L 245.8056 329.212522 
L 246.585628 329.716243 
L 246.97634 329.711297 
L 247.759195 329.173539 
L 248.15132 329.211601 
L 248.937003 329.519002 
L 250.514041 329.379168 
L 252.098724 329.542469 
L 254.490182 329.363507 
L 255.692467 329.474249 
L 256.09419 329.42169 
L 258.110244 329.725261 
L 258.514924 329.710182 
L 259.325791 329.475946 
L 260.545802 329.80056 
L 261.361636 329.897629 
L 262.179496 330.027717 
L 262.999347 330.051863 
L 263.821225 330.118386 
L 264.645131 330.24702 
L 267.544889 330.779541 
L 268.378021 330.675103 
L 270.469907 330.121247 
L 271.731284 329.893023 
L 272.57485 329.775251 
L 272.997405 329.576118 
L 274.268287 328.52722 
L 275.118177 328.576628 
L 275.970224 328.920975 
L 276.397039 329.092567 
L 276.824392 329.103816 
L 277.680718 328.705213 
L 278.539201 328.051476 
L 279.399841 327.149878 
L 279.830971 326.979207 
L 280.262658 327.001462 
L 281.127651 327.368453 
L 281.994839 327.719249 
L 283.29974 327.923133 
L 284.172452 327.488844 
L 284.609627 327.142993 
L 285.48565 326.165951 
L 286.363923 325.699758 
L 286.803887 325.532724 
L 287.244428 325.537815 
L 288.127166 325.928321 
L 289.455541 326.420357 
L 291.680845 326.331579 
L 292.127617 326.194315 
L 293.920471 325.07967 
L 294.820357 325.089707 
L 295.271184 325.303045 
L 295.722587 325.381932 
L 296.627124 325.181491 
L 297.534023 325.534566 
L 297.988346 325.758232 
L 298.443265 325.851422 
L 299.811556 325.556676 
L 301.185184 326.223165 
L 301.644251 325.899714 
L 302.564188 324.633453 
L 303.025059 324.380938 
L 305.338434 324.27999 
L 306.268043 323.970456 
L 307.667005 324.209686 
L 308.602734 324.7889 
L 309.07151 324.743905 
L 309.540899 324.560337 
L 310.481557 324.641405 
L 311.424689 324.779202 
L 311.897185 324.590592 
L 312.370313 324.094337 
L 313.318448 322.610714 
L 313.793455 322.342343 
L 314.269094 322.543609 
L 314.745365 322.623465 
L 315.222269 322.48402 
L 316.177956 322.760826 
L 318.096992 322.39306 
L 318.57836 322.603392 
L 319.542994 323.561379 
L 320.026296 323.472456 
L 321.480035 322.338319 
L 321.965923 322.357374 
L 322.939633 322.964322 
L 323.427473 322.765772 
L 324.405127 321.43134 
L 324.405127 321.43134 
" style="fill:none;stroke:#1f77b4;stroke-linecap:square;stroke-width:1.5;"/>
   </g>
   <g id="line2d_18">
    <path clip-path="url(#pef22f79047)" d="M 45 353.342366 
L 47.431094 353.102845 
L 49.129628 352.756122 
L 51.031961 352.306365 
L 51.989117 352.017049 
L 53.528974 351.87227 
L 54.109108 352.261807 
L 54.690712 352.583851 
L 55.468489 352.757576 
L 58.014569 352.93969 
L 61.987194 352.918404 
L 66.845458 352.943762 
L 68.281583 352.956175 
L 72.433512 352.882476 
L 77.085744 352.608482 
L 82.047592 352.689065 
L 83.578093 352.703078 
L 86.446175 352.870015 
L 89.348203 353.092518 
L 94.109338 353.040492 
L 96.640129 352.968781 
L 98.496892 352.946138 
L 103.19966 352.761891 
L 109.933363 352.175259 
L 111.644823 351.989121 
L 112.627926 351.820729 
L 113.862073 351.47323 
L 117.349294 350.24474 
L 118.858238 349.175962 
L 119.616002 348.158532 
L 121.138096 346.959181 
L 121.647438 345.733309 
L 122.157766 343.848706 
L 122.66908 343.044081 
L 123.181399 342.245079 
L 123.43793 341.413738 
L 123.951736 337.915908 
L 124.982362 330.24988 
L 125.4992 321.604483 
L 126.276327 304.728099 
L 126.795695 299.122145 
L 127.055741 293.612436 
L 127.316067 282.505889 
L 128.09855 230.607616 
L 128.621489 211.888472 
L 129.670436 153.282691 
L 129.933329 162.263466 
L 131.251641 256.814795 
L 131.516096 269.210101 
L 132.045768 281.150365 
L 132.5765 290.435826 
L 133.641109 320.328574 
L 133.907926 323.349689 
L 134.175003 323.881726 
L 134.442341 323.600265 
L 134.709958 324.604604 
L 135.245972 328.232037 
L 135.51437 328.520044 
L 135.783047 328.425982 
L 136.051985 328.633599 
L 136.321201 329.129805 
L 136.590678 329.1796 
L 136.860434 328.843592 
L 137.13045 328.994577 
L 137.400745 330.163527 
L 138.21323 335.320985 
L 138.484604 336.276838 
L 138.756239 336.696533 
L 139.300345 336.914284 
L 139.572797 336.820221 
L 140.11854 336.298463 
L 140.66538 336.291141 
L 140.939209 336.581524 
L 141.487705 337.877943 
L 141.762352 337.507559 
L 142.312503 336.38375 
L 142.86377 335.899423 
L 143.139812 336.451097 
L 144.524248 342.040856 
L 144.801964 342.613428 
L 146.194825 343.675659 
L 146.474234 343.663877 
L 147.033946 343.078603 
L 147.594773 342.223018 
L 147.875614 342.162265 
L 148.156753 342.569208 
L 149.001863 344.858088 
L 149.566708 345.487631 
L 150.132706 346.25788 
L 150.416132 346.493425 
L 151.26818 346.522274 
L 151.837675 347.205296 
L 152.122868 347.286462 
L 153.266527 347.128252 
L 154.414891 348.05545 
L 154.990858 348.32416 
L 155.568016 348.280571 
L 157.016119 348.620603 
L 157.597462 348.319408 
L 158.180014 348.381082 
L 158.763775 348.410562 
L 159.056111 348.379385 
L 159.348745 348.511607 
L 160.522349 349.478079 
L 161.405775 349.795517 
L 161.996251 350.041195 
L 162.884289 350.036007 
L 163.180922 349.958139 
L 163.775117 350.130991 
L 164.370578 350.322511 
L 164.967266 350.314317 
L 165.565219 350.129488 
L 166.164418 350.127694 
L 167.36661 349.865046 
L 167.969622 349.956102 
L 168.271593 350.004443 
L 169.179459 349.743927 
L 169.786284 349.899616 
L 170.090189 349.845215 
L 170.698967 349.574129 
L 171.920374 349.712266 
L 172.226548 349.828342 
L 172.533039 349.822523 
L 173.454464 349.418198 
L 174.070403 349.507413 
L 174.687644 349.616894 
L 175.926088 349.330827 
L 178.106176 348.937169 
L 178.418953 348.954866 
L 179.045531 348.643246 
L 179.359313 348.428599 
L 179.673449 348.418417 
L 180.302724 348.581572 
L 180.933357 348.677914 
L 181.565348 348.793117 
L 181.881845 348.660119 
L 182.515901 348.202848 
L 182.83344 348.137828 
L 184.745911 348.680435 
L 185.38616 348.674277 
L 186.027823 348.492891 
L 188.93264 349.165295 
L 189.907299 348.838257 
L 190.558838 349.092421 
L 191.538835 349.510273 
L 192.193964 349.377519 
L 193.179355 349.087184 
L 194.16802 348.848827 
L 194.828952 348.592918 
L 196.155206 348.463412 
L 196.820528 348.50894 
L 197.487338 348.306705 
L 198.155636 348.464478 
L 198.490325 348.543365 
L 199.160855 348.359118 
L 199.496678 348.231842 
L 200.16944 348.241152 
L 201.181391 347.869458 
L 202.535974 347.829214 
L 203.215525 347.893555 
L 204.237725 347.920805 
L 205.606015 347.729479 
L 207.325083 348.013413 
L 207.670057 348.166968 
L 209.400787 347.977242 
L 210.443931 347.724873 
L 210.792439 347.91101 
L 211.490627 347.885749 
L 212.190415 347.888561 
L 213.243082 348.25177 
L 215.71333 347.693696 
L 217.846489 348.216084 
L 218.560804 348.146119 
L 219.99438 348.320814 
L 220.353806 348.436017 
L 221.073887 348.357664 
L 222.157151 348.189563 
L 222.51907 348.231067 
L 223.244172 348.556408 
L 223.970948 348.50637 
L 224.699417 348.377737 
L 225.795292 348.721406 
L 226.89498 348.533765 
L 227.630257 348.81285 
L 231.332456 349.298244 
L 233.199878 349.811517 
L 235.832782 350.082796 
L 237.347083 349.616797 
L 238.10693 349.250728 
L 238.868581 349.06682 
L 240.397315 348.947545 
L 241.164398 348.825699 
L 241.933322 348.847615 
L 245.416283 348.521158 
L 246.195382 348.486927 
L 246.97634 348.409495 
L 248.15132 348.509182 
L 249.724564 348.402901 
L 250.514041 348.50317 
L 251.305415 348.210896 
L 252.098724 348.562469 
L 252.893948 348.431847 
L 253.292286 348.315578 
L 254.890454 348.383652 
L 255.692467 348.50477 
L 257.706047 348.52814 
L 258.514924 348.222194 
L 259.325791 348.2508 
L 260.13863 348.454975 
L 260.545802 348.601645 
L 261.361636 348.52945 
L 262.999347 348.488236 
L 264.232936 348.614446 
L 265.471082 348.561741 
L 267.129105 348.622543 
L 267.961195 348.844512 
L 268.378021 348.851542 
L 269.213216 348.705696 
L 272.152798 348.997679 
L 272.997405 348.878743 
L 275.118177 349.573063 
L 276.397039 349.500043 
L 277.252285 349.298923 
L 278.109689 348.833166 
L 278.969251 348.40261 
L 279.830971 348.331481 
L 280.694885 348.303505 
L 281.560975 348.097827 
L 281.994839 347.797941 
L 282.864221 346.937993 
L 283.29974 346.763346 
L 284.172452 346.985606 
L 285.047359 347.28685 
L 285.924517 347.27851 
L 286.803887 346.767516 
L 288.569399 345.542614 
L 289.899448 345.050675 
L 290.343951 345.300329 
L 291.234631 346.178314 
L 291.680845 346.479558 
L 292.127617 346.560384 
L 292.574965 346.394562 
L 293.02289 346.101464 
L 293.471392 345.650786 
L 294.370126 344.505401 
L 294.820357 344.17269 
L 295.271184 344.049293 
L 296.627124 344.296911 
L 298.443265 345.321178 
L 299.35487 346.066748 
L 299.811556 346.095742 
L 300.726713 345.741455 
L 301.185184 345.350415 
L 301.644251 344.772801 
L 302.103931 344.401156 
L 304.87455 343.044323 
L 305.338434 343.050869 
L 307.667005 344.3357 
L 308.134572 344.746813 
L 308.602734 344.908707 
L 309.07151 344.809263 
L 310.010921 344.258655 
L 311.424689 342.706957 
L 313.793455 341.377616 
L 314.269094 341.354828 
L 315.699787 342.00294 
L 316.177956 341.960612 
L 316.656757 342.034068 
L 317.136209 342.338706 
L 318.096992 343.314972 
L 318.57836 343.539462 
L 319.060361 343.537426 
L 319.542994 343.370634 
L 320.026296 342.94929 
L 320.994817 341.69966 
L 321.965923 340.994479 
L 322.939633 340.3549 
L 323.915965 340.355676 
L 324.405127 340.032177 
L 324.405127 340.032177 
" style="fill:none;stroke:#ff7f0e;stroke-linecap:square;stroke-width:1.5;"/>
   </g>
   <g id="line2d_19">
    <path clip-path="url(#pef22f79047)" d="M 45 372.736775 
L 47.807447 372.350195 
L 50.840995 371.667173 
L 52.95031 370.924997 
L 53.528974 370.753842 
L 54.690712 370.422973 
L 55.273803 370.42467 
L 56.444431 370.060976 
L 56.835961 369.973556 
L 58.014569 370.119402 
L 58.408796 370.205998 
L 59.992381 370.1499 
L 60.589032 370.384524 
L 60.987649 370.462295 
L 62.38821 371.476138 
L 62.789933 371.681961 
L 68.693517 371.891954 
L 69.312767 371.909991 
L 70.14095 371.990769 
L 73.693346 371.888172 
L 74.325783 371.886669 
L 75.807961 371.621838 
L 76.233139 371.527485 
L 76.872309 371.714253 
L 77.513191 371.831298 
L 78.155765 371.733502 
L 79.015234 371.467071 
L 80.74336 371.550952 
L 81.82973 371.44758 
L 86.446175 370.994284 
L 87.112855 370.872196 
L 89.123757 370.943713 
L 90.022788 370.549909 
L 91.604011 370.875299 
L 92.739671 370.532309 
L 93.423556 370.543024 
L 94.33836 370.822498 
L 94.797017 370.658615 
L 95.256512 370.42467 
L 95.716862 370.487556 
L 96.408986 370.639463 
L 97.103027 370.571874 
L 97.566799 370.457107 
L 98.96325 370.561643 
L 99.898551 370.500211 
L 101.072564 370.566589 
L 102.252083 370.572359 
L 102.962436 370.678252 
L 104.15079 370.640287 
L 105.344743 370.806837 
L 107.266774 370.731926 
L 107.991281 370.6415 
L 108.47542 370.611632 
L 109.44647 370.658276 
L 110.665459 370.540649 
L 111.399619 370.63699 
L 112.381792 370.629039 
L 113.120882 370.753308 
L 113.862073 370.72218 
L 114.357391 370.809746 
L 114.853658 370.803976 
L 117.60019 371.669403 
L 119.110584 371.746981 
L 121.138096 371.478853 
L 122.925109 370.891494 
L 123.181399 370.712677 
L 123.694703 369.943204 
L 124.20903 369.044031 
L 124.466547 368.907397 
L 125.24066 368.995496 
L 127.055741 368.286194 
L 127.576634 367.630081 
L 128.09855 366.540116 
L 128.621489 365.060274 
L 128.88334 363.974769 
L 130.459876 354.610275 
L 131.251641 350.013898 
L 132.045768 343.310657 
L 132.5765 341.050093 
L 133.108274 337.194242 
L 133.641109 331.736462 
L 134.709958 312.276597 
L 134.977816 306.118533 
L 135.245972 303.151237 
L 135.51437 304.768343 
L 136.051985 312.090411 
L 136.590678 319.33684 
L 136.860434 319.84541 
L 137.13045 321.143963 
L 137.942135 332.035717 
L 139.028152 336.440333 
L 139.300345 336.794426 
L 139.572797 336.122556 
L 140.11854 333.967643 
L 140.39183 333.098676 
L 140.66538 331.22251 
L 140.939209 328.415993 
L 141.213317 327.645454 
L 142.037297 335.013244 
L 142.312503 336.011717 
L 142.588006 335.971231 
L 143.416134 333.440115 
L 143.692753 333.957315 
L 144.246791 340.540408 
L 144.524248 341.94626 
L 145.079978 342.663902 
L 145.358253 343.002189 
L 145.636825 343.56933 
L 145.915695 343.623682 
L 146.194825 343.286462 
L 147.033946 343.994019 
L 147.31421 345.01208 
L 147.875614 347.991885 
L 148.156753 348.187769 
L 148.719868 347.769383 
L 149.001863 348.123864 
L 149.566708 349.31502 
L 150.132706 350.020346 
L 150.416132 350.19669 
L 150.983879 351.039377 
L 151.26818 351.129125 
L 151.552778 351.543147 
L 152.980161 356.049777 
L 153.553171 356.531873 
L 153.840113 357.270558 
L 154.414891 359.216254 
L 154.990858 359.632603 
L 155.279288 359.974575 
L 155.568016 360.125512 
L 156.146365 360.228933 
L 157.016119 361.086796 
L 157.306651 361.224496 
L 157.597462 361.495 
L 158.180014 362.238387 
L 158.471755 362.34205 
L 159.056111 362.346947 
L 161.405775 363.090675 
L 161.996251 363.808171 
L 162.884289 365.092711 
L 163.775117 365.492575 
L 164.370578 366.039546 
L 166.164418 365.791491 
L 166.464491 365.84759 
L 167.065588 365.714738 
L 167.667967 365.95038 
L 167.969622 366.06214 
L 168.271593 365.951932 
L 168.876521 365.327723 
L 169.179459 365.358123 
L 170.090189 366.32411 
L 170.394411 366.231551 
L 171.003821 365.847541 
L 172.226548 365.398124 
L 173.762276 365.80497 
L 174.378866 365.36433 
L 174.687644 365.116227 
L 174.996758 365.070989 
L 175.926088 365.426634 
L 176.236541 365.427507 
L 176.858413 365.081462 
L 177.169852 364.907543 
L 178.106176 364.879857 
L 179.359313 365.159622 
L 179.987919 364.952053 
L 180.617864 364.805237 
L 181.565348 364.859978 
L 181.881845 364.99986 
L 182.198696 365.264448 
L 182.515901 365.335335 
L 183.151314 365.119815 
L 183.788122 365.20835 
L 184.107038 365.037582 
L 184.745911 364.283916 
L 185.065868 364.391942 
L 185.706824 365.672798 
L 186.67088 366.177246 
L 189.257173 366.069316 
L 189.907299 366.024564 
L 190.558838 366.366487 
L 191.538835 366.341953 
L 193.179355 366.808389 
L 193.838111 366.738569 
L 194.4983 367.021145 
L 194.828952 366.897215 
L 195.491354 366.484163 
L 196.155206 366.528333 
L 198.825404 367.400161 
L 199.496678 367.204713 
L 200.16944 367.177076 
L 200.843708 366.945119 
L 201.519465 367.011497 
L 203.555867 367.257272 
L 204.237725 367.137754 
L 205.263366 367.235696 
L 205.949055 367.278412 
L 206.636288 367.305613 
L 207.325083 367.405882 
L 209.400787 367.021727 
L 210.443931 367.139403 
L 211.141338 367.115014 
L 211.840326 366.870305 
L 212.540895 366.642373 
L 215.71333 366.548213 
L 216.422752 366.267382 
L 216.778068 366.281491 
L 218.203442 366.932513 
L 218.560804 366.989145 
L 219.635363 366.792728 
L 220.713642 367.191525 
L 221.795641 367.341347 
L 223.970948 367.695198 
L 224.699417 367.763127 
L 225.429579 367.887688 
L 226.161433 367.951059 
L 227.630257 368.379675 
L 228.367244 368.296764 
L 229.105943 368.192665 
L 229.846372 368.351408 
L 230.588549 368.506709 
L 231.332456 368.654058 
L 233.199878 368.650276 
L 236.967847 369.377711 
L 237.726783 369.394439 
L 238.10693 369.269491 
L 238.868581 368.623802 
L 239.632037 367.970938 
L 241.164398 367.320498 
L 243.476675 366.962429 
L 244.251124 366.783612 
L 245.027432 366.746908 
L 245.8056 366.375457 
L 246.585628 365.965653 
L 247.367535 366.32862 
L 248.15132 366.577547 
L 248.543929 366.617499 
L 248.937003 366.481157 
L 249.724564 365.928464 
L 250.11907 366.061655 
L 251.305415 366.888924 
L 252.893948 366.870451 
L 253.691089 366.534782 
L 254.890454 366.553546 
L 255.291209 366.462199 
L 256.496415 366.735126 
L 257.302353 366.670882 
L 258.110244 366.835492 
L 259.731959 366.526927 
L 260.545802 366.663415 
L 261.770315 366.579244 
L 262.179496 366.628603 
L 263.410035 366.390488 
L 265.057846 366.809213 
L 269.213216 366.527461 
L 270.050477 366.782449 
L 272.57485 366.766982 
L 274.268287 366.716702 
L 275.118177 366.660409 
L 276.397039 366.834717 
L 277.252285 367.018624 
L 278.109689 367.036758 
L 278.969251 367.179549 
L 279.830971 367.02963 
L 280.694885 367.11002 
L 282.864221 366.748266 
L 284.172452 366.959956 
L 285.924517 366.922913 
L 287.685509 367.6343 
L 289.455541 367.811322 
L 292.574965 366.616142 
L 293.471392 366.243333 
L 294.820357 366.076638 
L 295.271184 366.06791 
L 296.627124 365.399967 
L 297.080276 365.260666 
L 297.988346 365.146967 
L 298.443265 364.991666 
L 299.811556 365.234145 
L 302.103931 364.207986 
L 302.564188 364.109026 
L 303.486525 363.736896 
L 303.948605 363.719732 
L 304.87455 364.320765 
L 305.802932 364.173658 
L 306.73375 363.992321 
L 307.200071 363.708871 
L 307.667005 363.562153 
L 308.134572 363.639245 
L 308.602734 363.549255 
L 309.540899 363.167525 
L 310.952807 362.989533 
L 311.897185 363.404912 
L 313.793455 363.089996 
L 314.745365 362.255503 
L 315.222269 362.078335 
L 315.699787 362.046092 
L 317.136209 361.576892 
L 318.57836 361.560407 
L 319.542994 362.013412 
L 320.026296 362.287746 
L 320.510231 362.211526 
L 321.480035 361.848123 
L 322.452461 361.627463 
L 322.939633 361.152009 
L 323.427473 360.86599 
L 323.915965 360.790255 
L 324.405127 360.571001 
L 324.405127 360.571001 
" style="fill:none;stroke:#2ca02c;stroke-linecap:square;stroke-width:1.5;"/>
   </g>
   <g id="line2d_20">
    <path clip-path="url(#pef22f79047)" d="M 45 392.131183 
L 47.619196 391.670905 
L 48.751081 391.415093 
L 50.26912 391.149729 
L 52.565345 390.450948 
L 53.143043 390.355867 
L 53.528974 390.105728 
L 54.109108 390.075327 
L 54.690712 389.642783 
L 55.273803 389.567242 
L 56.444431 389.14328 
L 56.835961 389.087473 
L 57.228161 388.899299 
L 57.62103 389.016344 
L 58.014569 389.098722 
L 58.606142 388.889165 
L 59.397274 389.079812 
L 59.992381 388.861965 
L 60.788257 389.035981 
L 61.586866 388.729064 
L 62.38821 388.780363 
L 62.789933 388.695464 
L 63.797253 389.008829 
L 64.606241 389.10551 
L 65.214815 389.378535 
L 66.028714 389.27075 
L 66.436723 389.390026 
L 66.845458 389.337806 
L 67.459872 389.002671 
L 69.106177 389.283017 
L 69.726505 389.8216 
L 70.764013 390.120613 
L 71.180281 390.398584 
L 71.597293 390.404984 
L 72.433512 390.346752 
L 73.482905 390.312181 
L 74.959876 390.569885 
L 76.872309 390.66962 
L 77.941381 390.419723 
L 78.800069 390.542975 
L 80.52667 390.398196 
L 81.177316 390.406244 
L 85.118266 390.123474 
L 85.560109 390.021265 
L 86.22437 390.031447 
L 86.668204 389.978452 
L 88.004558 390.042017 
L 88.67546 389.835564 
L 89.797728 389.246944 
L 91.3775 389.796145 
L 92.284771 389.647681 
L 92.739671 389.338049 
L 93.19539 389.11191 
L 94.33836 389.404232 
L 94.797017 389.417711 
L 95.716862 389.135183 
L 96.178067 389.20544 
L 97.103027 389.09397 
L 97.799002 389.406026 
L 98.264057 389.409663 
L 100.602301 388.837867 
L 101.779625 389.005386 
L 102.488638 389.319818 
L 102.962436 389.331406 
L 103.437108 389.151765 
L 104.15079 388.587534 
L 104.627713 388.3068 
L 105.105509 388.650711 
L 105.823897 389.157341 
L 106.303945 389.29703 
L 106.784903 389.134407 
L 107.749555 388.606686 
L 108.23323 388.666372 
L 109.20335 388.984828 
L 110.909937 388.692263 
L 111.644823 388.813915 
L 113.120882 388.685475 
L 114.357391 388.495265 
L 114.853658 388.772847 
L 116.348168 388.717282 
L 117.60019 388.14122 
L 117.851308 388.250119 
L 118.354289 388.647559 
L 118.858238 388.678784 
L 120.883796 388.207597 
L 121.138096 388.229077 
L 121.647438 388.49221 
L 122.157766 388.429857 
L 122.925109 388.170796 
L 124.466547 388.345491 
L 124.982362 388.245125 
L 125.757982 387.98621 
L 126.795695 388.258023 
L 129.145451 388.007786 
L 130.196463 388.120031 
L 130.723531 387.865916 
L 131.516096 387.408402 
L 132.045768 387.347116 
L 133.374552 386.771975 
L 133.907926 386.518926 
L 134.442341 386.285708 
L 135.51437 386.223452 
L 136.321201 386.091473 
L 136.860434 385.624892 
L 137.13045 385.618686 
L 137.671301 385.715707 
L 138.756239 385.212082 
L 139.028152 385.048878 
L 139.572797 385.098916 
L 140.11854 385.156857 
L 140.39183 385.078067 
L 141.213317 384.472574 
L 141.762352 384.686494 
L 142.037297 384.590831 
L 142.588006 384.110141 
L 143.416134 384.275914 
L 143.692753 384.10568 
L 143.969633 384.240859 
L 144.524248 384.861819 
L 144.801964 384.644408 
L 145.079978 383.908827 
L 145.358253 382.68087 
L 145.915695 378.358147 
L 146.474234 373.70121 
L 147.31421 369.962889 
L 147.594773 369.105365 
L 147.875614 368.985605 
L 148.156753 369.729332 
L 148.438153 369.997654 
L 149.001863 367.913676 
L 149.284136 368.028636 
L 149.566708 368.646203 
L 149.849558 368.755102 
L 150.132706 368.40964 
L 150.416132 368.552722 
L 150.983879 369.925458 
L 151.26818 370.007496 
L 152.122868 367.5094 
L 152.408341 367.778594 
L 152.694112 368.210798 
L 152.980161 368.401106 
L 153.266527 368.164155 
L 154.990858 365.055813 
L 155.279288 365.002721 
L 155.568016 365.513182 
L 155.857042 366.729502 
L 156.146365 367.372524 
L 156.725903 366.184083 
L 157.306651 366.703319 
L 157.597462 367.206556 
L 158.763775 370.508066 
L 159.056111 371.02163 
L 159.641695 371.400306 
L 159.934943 371.272788 
L 160.522349 370.006915 
L 160.816527 369.895009 
L 161.405775 370.811346 
L 161.700864 370.816922 
L 161.996251 370.589038 
L 162.291953 370.70138 
L 162.884289 371.913579 
L 163.180922 372.069801 
L 163.477871 371.961532 
L 163.775117 372.270533 
L 164.668754 375.948586 
L 164.967266 376.170312 
L 165.565219 375.928609 
L 165.86466 376.300206 
L 166.164418 377.037679 
L 166.464491 377.318946 
L 166.764881 377.408451 
L 167.36661 378.21201 
L 167.667967 378.254241 
L 168.876521 377.283018 
L 169.179459 376.856098 
L 169.482713 376.11145 
L 169.786284 375.8088 
L 170.090189 376.364838 
L 170.394411 377.170094 
L 170.698967 377.466101 
L 171.003821 377.231283 
L 171.309029 377.173391 
L 172.226548 378.856147 
L 172.533039 379.204907 
L 172.839865 379.777381 
L 173.147006 380.013072 
L 173.454464 379.77966 
L 174.070403 378.735417 
L 174.378866 378.578516 
L 174.687644 378.662106 
L 175.306206 378.993168 
L 176.236541 379.08631 
L 177.169852 378.047351 
L 177.793733 377.948343 
L 178.418953 377.39376 
L 179.045531 377.283648 
L 179.359313 377.11162 
L 180.302724 377.986308 
L 180.617864 378.017193 
L 180.933357 378.202701 
L 181.249185 378.079692 
L 181.565348 378.119935 
L 182.198696 379.281466 
L 182.515901 379.291309 
L 182.83344 379.155402 
L 183.151314 379.20127 
L 183.788122 379.60608 
L 184.107038 379.645063 
L 184.745911 379.373929 
L 185.38616 379.504308 
L 186.027823 379.989556 
L 186.349175 380.254629 
L 186.992939 380.355189 
L 187.315333 380.280472 
L 187.9612 379.844486 
L 188.284672 379.829989 
L 188.60848 379.977241 
L 189.582059 381.102407 
L 189.907299 381.163984 
L 190.558838 381.649087 
L 191.21181 381.524623 
L 191.866214 381.932488 
L 192.193964 381.973798 
L 192.850526 382.266508 
L 193.838111 381.817431 
L 194.16802 381.883953 
L 195.159976 382.373953 
L 195.823085 382.416524 
L 196.155206 382.408087 
L 196.820528 382.661572 
L 197.153747 382.604601 
L 197.821301 382.226071 
L 198.825404 382.65202 
L 199.160855 382.623802 
L 200.506379 383.166748 
L 200.843708 383.425954 
L 201.181391 383.437252 
L 202.535974 383.114335 
L 203.555867 383.261781 
L 203.896601 383.175815 
L 204.237725 383.20481 
L 204.921107 383.716386 
L 205.263366 383.666639 
L 206.292485 383.21184 
L 208.707323 384.278387 
L 209.400787 383.999932 
L 210.095813 384.286533 
L 210.792439 384.133026 
L 211.490627 384.081631 
L 214.652237 384.742592 
L 216.067846 385.333006 
L 216.422752 385.304691 
L 219.276773 386.137971 
L 219.99438 386.532357 
L 221.434559 386.566103 
L 222.51907 387.093146 
L 223.607356 387.292084 
L 223.970948 387.364134 
L 224.699417 387.226725 
L 225.795292 387.605886 
L 226.528002 387.63328 
L 228.73638 388.076976 
L 229.475935 388.043811 
L 229.846372 388.097728 
L 230.960289 387.836485 
L 231.705052 387.997216 
L 234.701735 387.960755 
L 236.58904 388.122844 
L 237.347083 388.282944 
L 239.632037 388.09477 
L 241.548637 387.426778 
L 243.090149 386.551606 
L 243.863667 385.825237 
L 245.027432 385.589401 
L 245.8056 385.325346 
L 246.195382 385.210434 
L 246.585628 385.338146 
L 246.97634 385.586831 
L 247.367535 385.651802 
L 248.543929 384.926694 
L 249.724564 385.081025 
L 250.514041 385.07637 
L 251.701837 384.742253 
L 252.893948 384.818376 
L 253.292286 384.759805 
L 254.090393 385.068661 
L 254.890454 384.823952 
L 255.692467 384.531387 
L 256.09419 384.562854 
L 256.899142 384.948173 
L 257.706047 384.942791 
L 258.920107 384.952488 
L 259.325791 384.74492 
L 260.13863 383.987325 
L 260.545802 383.897578 
L 261.361636 384.243865 
L 262.589161 383.939615 
L 262.999347 383.982428 
L 263.821225 384.332643 
L 265.057846 384.359068 
L 265.471082 384.467822 
L 265.884821 384.454634 
L 266.713823 384.16619 
L 269.213216 384.363819 
L 270.050477 384.504186 
L 270.889839 384.432136 
L 271.310311 384.255889 
L 271.731284 384.225586 
L 272.57485 384.413663 
L 273.844133 384.146166 
L 274.692962 384.382147 
L 275.970224 384.12202 
L 276.824392 384.294096 
L 277.680718 384.486974 
L 278.969251 384.583752 
L 279.830971 384.339285 
L 280.694885 384.284981 
L 285.047359 384.731198 
L 286.363923 384.620941 
L 286.803887 384.817988 
L 287.244428 384.876995 
L 288.127166 384.633644 
L 289.012191 384.798981 
L 289.899448 385.040393 
L 293.471392 384.858668 
L 296.174567 384.002114 
L 298.443265 383.806763 
L 299.35487 384.207355 
L 300.268837 384.018938 
L 304.41128 384.645814 
L 305.802932 385.336982 
L 307.667005 385.785817 
L 308.134572 385.735974 
L 309.07151 385.298 
L 310.010921 384.837285 
L 311.424689 384.509132 
L 312.370313 384.023544 
L 313.318448 383.866256 
L 315.699787 383.14202 
L 316.656757 383.139935 
L 318.096992 383.427215 
L 318.57836 383.045194 
L 319.060361 382.487847 
L 319.542994 382.327697 
L 320.994817 382.484113 
L 321.965923 382.233683 
L 322.939633 382.353443 
L 323.915965 381.976465 
L 324.405127 381.772581 
L 324.405127 381.772581 
" style="fill:none;stroke:#d62728;stroke-linecap:square;stroke-width:1.5;"/>
   </g>
   <g id="line2d_21">
    <path clip-path="url(#pef22f79047)" d="M 45 411.525592 
L 46.680268 411.179401 
L 48.184432 410.748167 
L 48.94028 410.649546 
L 49.508826 410.559895 
L 50.078804 410.408328 
L 51.605771 410.009531 
L 51.989117 410.003373 
L 52.565345 409.675559 
L 53.143043 409.710323 
L 53.722191 409.223524 
L 54.496676 409.308035 
L 55.079266 408.871709 
L 55.663343 409.099884 
L 56.444431 408.474706 
L 56.835961 408.739197 
L 57.031987 408.693523 
L 57.62103 408.223839 
L 58.211599 408.215887 
L 59.001373 408.193972 
L 59.595476 408.002888 
L 60.389975 408.220978 
L 61.187208 408.006428 
L 62.187628 407.985627 
L 62.789933 407.735051 
L 63.99923 408.005264 
L 64.606241 407.910086 
L 65.011777 408.201293 
L 65.418038 408.172347 
L 66.028714 407.861891 
L 67.254881 408.133412 
L 68.899754 407.727972 
L 69.312767 407.896607 
L 69.726505 407.802156 
L 70.14095 407.584987 
L 70.55614 407.696117 
L 70.972054 407.967687 
L 71.388694 407.946984 
L 72.015031 407.733112 
L 72.643022 407.872703 
L 73.062601 407.923856 
L 73.693346 407.788144 
L 74.325783 407.886231 
L 75.595661 408.331672 
L 77.513191 408.353684 
L 77.941381 408.199547 
L 78.585109 408.289586 
L 79.446103 408.453614 
L 80.093866 408.296422 
L 81.177316 408.609933 
L 81.612073 408.831902 
L 82.920992 408.938571 
L 83.578093 408.858279 
L 84.017164 408.892946 
L 84.456998 408.851781 
L 85.339085 409.069823 
L 86.22437 408.885188 
L 87.112855 409.026331 
L 88.228 409.044804 
L 89.348203 408.71442 
L 90.925111 408.865794 
L 91.604011 408.83903 
L 92.512119 409.038113 
L 93.19539 408.767755 
L 94.567568 408.16551 
L 95.947353 408.720287 
L 96.408986 408.592769 
L 97.799002 408.6382 
L 98.496892 408.519992 
L 100.367494 408.812702 
L 100.83733 408.501858 
L 101.30804 408.184856 
L 102.725435 408.426074 
L 103.19966 408.710299 
L 104.15079 408.759609 
L 105.105509 408.498706 
L 105.823897 408.587096 
L 107.266774 408.426123 
L 107.749555 408.545932 
L 109.933363 408.510925 
L 111.154676 408.705887 
L 112.1359 408.392667 
L 112.627926 408.390194 
L 113.614768 408.892946 
L 114.109621 408.854012 
L 115.599834 408.186941 
L 116.098481 407.866206 
L 116.348168 407.86543 
L 117.349294 408.839223 
L 118.354289 409.013385 
L 118.858238 408.789816 
L 119.869073 408.24047 
L 120.629758 408.461566 
L 121.392655 408.565762 
L 122.925109 408.612648 
L 124.466547 408.43548 
L 125.4992 408.655316 
L 126.276327 408.270434 
L 127.576634 408.2603 
L 128.621489 408.144419 
L 129.145451 408.344763 
L 129.670436 408.57992 
L 130.196463 408.417444 
L 130.723531 408.230045 
L 132.045768 408.154165 
L 132.842257 407.824363 
L 133.374552 407.938014 
L 134.442341 408.288713 
L 135.51437 408.025434 
L 136.590678 407.75047 
L 137.400745 407.923032 
L 139.028152 407.784798 
L 140.11854 407.356957 
L 140.939209 407.693693 
L 141.487705 407.761476 
L 142.312503 407.578587 
L 143.416134 407.199038 
L 143.969633 407.11763 
L 145.079978 407.329514 
L 146.194825 407.237003 
L 146.753941 407.199378 
L 147.875614 406.749476 
L 149.001863 406.784919 
L 149.849558 406.577254 
L 150.699875 406.751221 
L 151.552778 406.56712 
L 152.122868 406.502876 
L 152.980161 406.226021 
L 153.553171 406.160856 
L 154.990858 405.485251 
L 155.568016 405.480354 
L 156.435985 404.918498 
L 158.471755 404.540598 
L 159.056111 404.699826 
L 159.348745 404.544332 
L 159.934943 403.916292 
L 160.228507 403.83886 
L 161.996251 404.160177 
L 162.587972 403.81195 
L 162.884289 403.680505 
L 163.477871 403.810253 
L 164.072699 403.994112 
L 164.668754 403.856412 
L 165.86466 403.359964 
L 166.464491 402.912292 
L 167.065588 402.72053 
L 167.969622 402.301805 
L 170.090189 399.64448 
L 171.003821 397.215961 
L 171.614534 395.372571 
L 171.920374 394.964415 
L 172.226548 395.072878 
L 172.839865 395.720264 
L 173.147006 395.763513 
L 174.070403 394.954233 
L 174.687644 395.191815 
L 174.996758 395.602443 
L 175.306206 395.667559 
L 175.615989 395.38731 
L 175.926088 395.472937 
L 176.236541 395.754398 
L 176.54731 395.687051 
L 176.858413 395.126698 
L 177.481625 393.66596 
L 177.793733 393.613934 
L 178.418953 394.527992 
L 178.732084 394.61774 
L 179.359313 394.239258 
L 179.673449 394.29269 
L 179.987919 394.551072 
L 180.617864 395.618055 
L 180.933357 395.576697 
L 182.198696 394.205221 
L 182.515901 393.269926 
L 183.151314 390.289635 
L 183.469541 390.336764 
L 184.107038 392.612698 
L 184.426288 392.860898 
L 185.065868 392.390147 
L 185.706824 392.92873 
L 186.027823 392.823709 
L 186.349175 392.906378 
L 186.67088 393.370583 
L 186.992939 393.524817 
L 187.315333 393.390316 
L 187.638099 393.078842 
L 188.60848 391.017023 
L 188.93264 390.906184 
L 189.257173 390.9473 
L 189.582059 391.295429 
L 189.907299 391.227985 
L 190.232892 390.932851 
L 190.558838 391.244907 
L 191.538835 393.712603 
L 191.866214 393.964488 
L 192.850526 393.604625 
L 193.508557 393.193415 
L 193.838111 393.079182 
L 194.4983 393.175863 
L 194.828952 392.996416 
L 195.159976 393.118407 
L 195.491354 393.505713 
L 196.487681 393.976755 
L 196.820528 394.326679 
L 197.153747 394.321491 
L 197.487338 394.107861 
L 197.821301 394.224712 
L 198.155636 394.481397 
L 198.825404 394.18796 
L 199.160855 394.61294 
L 199.832873 396.118722 
L 200.16944 396.221512 
L 200.506379 395.695681 
L 200.843708 394.949675 
L 201.181391 394.545399 
L 202.196747 394.80606 
L 202.535974 395.078794 
L 203.555867 396.703803 
L 204.237725 396.920632 
L 205.263366 396.185148 
L 205.606015 396.286096 
L 206.292485 397.169414 
L 206.980499 396.88868 
L 207.325083 397.298581 
L 207.670057 397.91862 
L 208.015422 398.152517 
L 209.05386 397.103279 
L 209.400787 397.075254 
L 210.095813 396.439311 
L 210.443931 396.539774 
L 211.141338 397.576842 
L 211.840326 398.242701 
L 213.243082 399.243694 
L 213.594771 399.375237 
L 214.652237 400.226167 
L 215.005525 400.704045 
L 215.359223 400.905795 
L 216.778068 401.074721 
L 217.133812 401.275404 
L 217.846489 401.492185 
L 218.918575 402.663656 
L 219.635363 402.485373 
L 221.434559 403.389977 
L 222.51907 404.15945 
L 224.334969 404.513204 
L 224.699417 404.503894 
L 225.064275 404.670298 
L 225.795292 405.225027 
L 227.262404 405.491797 
L 228.367244 405.740288 
L 229.475935 406.000464 
L 230.217238 406.400813 
L 233.199878 406.882376 
L 234.701735 407.236033 
L 235.455314 407.266773 
L 236.210678 407.385855 
L 239.632037 407.589739 
L 240.397315 407.59003 
L 241.164398 407.407189 
L 242.318472 407.096006 
L 244.251124 406.689887 
L 246.585628 405.907468 
L 248.15132 405.075642 
L 248.937003 404.79578 
L 250.11907 404.140977 
L 251.701837 403.420523 
L 252.496094 403.480161 
L 253.292286 403.090091 
L 254.490182 403.003931 
L 255.291209 403.440354 
L 255.692467 403.384595 
L 256.899142 402.460596 
L 257.706047 402.696045 
L 258.514924 403.025168 
L 259.325791 403.00844 
L 261.361636 402.2155 
L 261.770315 402.237173 
L 262.589161 402.561205 
L 263.410035 402.715827 
L 264.645131 402.530271 
L 265.884821 402.946136 
L 266.713823 403.414559 
L 267.129105 403.494028 
L 268.378021 403.214021 
L 269.631586 403.660674 
L 270.469907 403.860582 
L 272.152798 403.709257 
L 272.57485 403.784604 
L 273.420499 403.690202 
L 274.268287 403.83949 
L 275.118177 403.634104 
L 276.397039 402.881455 
L 277.680718 402.568042 
L 279.830971 401.910474 
L 280.262658 401.98587 
L 281.560975 401.860291 
L 282.42926 402.173656 
L 282.864221 402.127934 
L 283.735817 401.819951 
L 285.047359 402.015737 
L 285.924517 402.06912 
L 287.244428 402.208954 
L 287.685509 402.041192 
L 288.127166 402.014137 
L 289.012191 402.41948 
L 290.343951 402.327696 
L 290.789012 402.538998 
L 291.680845 402.583218 
L 292.127617 402.53672 
L 292.574965 402.335987 
L 293.02289 402.318532 
L 293.920471 402.4781 
L 294.820357 402.646831 
L 295.722587 402.968391 
L 297.988346 402.910498 
L 298.443265 403.04432 
L 299.35487 402.997822 
L 300.268837 403.14711 
L 301.185184 403.101097 
L 302.103931 402.90245 
L 303.486525 402.657256 
L 304.87455 402.420741 
L 306.268043 401.311284 
L 308.602734 401.911007 
L 309.540899 401.506779 
L 310.952807 401.490731 
L 311.424689 401.186287 
L 311.897185 401.108515 
L 313.793455 401.530732 
L 314.269094 401.502561 
L 317.136209 400.745597 
L 319.542994 401.338921 
L 320.026296 401.288544 
L 321.480035 401.573933 
L 322.452461 402.400037 
L 322.939633 402.53798 
L 323.915965 402.622831 
L 324.405127 402.715197 
L 324.405127 402.715197 
" style="fill:none;stroke:#9467bd;stroke-linecap:square;stroke-width:1.5;"/>
   </g>
   <g id="line2d_22">
    <path clip-path="url(#pef22f79047)" d="M 45 430.92 
L 45.931934 430.683679 
L 46.492948 430.519796 
L 47.055356 430.523578 
L 47.807447 430.226456 
L 48.184432 430.310143 
L 48.56203 430.158091 
L 48.94028 429.905769 
L 49.888657 429.787657 
L 50.26912 429.442776 
L 50.459584 429.435455 
L 50.840995 429.653109 
L 51.031961 429.64763 
L 51.797351 429.09935 
L 52.373114 429.414558 
L 52.565345 429.291452 
L 53.143043 428.611823 
L 53.335925 428.694686 
L 53.722191 429.084125 
L 53.915575 429.088828 
L 54.690712 428.39349 
L 55.273803 428.803731 
L 55.468489 428.721886 
L 56.053552 428.076828 
L 56.248908 428.109556 
L 56.640103 428.442073 
L 56.835961 428.469759 
L 57.228161 428.103302 
L 57.62103 427.813743 
L 58.014569 428.029554 
L 58.408796 428.191013 
L 59.397274 427.779706 
L 60.389975 428.002354 
L 61.586866 427.650685 
L 61.987194 427.876823 
L 62.38821 427.737572 
L 62.789933 427.489953 
L 63.3938 427.518221 
L 63.99923 427.587265 
L 64.606241 427.359623 
L 65.011777 427.218771 
L 66.232644 427.410194 
L 67.050077 427.102502 
L 67.66503 427.234093 
L 68.487466 427.316131 
L 69.933635 426.974014 
L 70.764013 427.023033 
L 71.180281 426.844604 
L 72.015031 426.877769 
L 72.643022 427.055955 
L 74.114785 426.57604 
L 74.536949 426.770518 
L 75.171618 427.154721 
L 75.595661 427.034815 
L 76.020466 426.872338 
L 76.233139 426.894497 
L 77.299365 427.486559 
L 77.727184 427.208734 
L 78.370353 426.784142 
L 78.800069 426.784821 
L 79.446103 427.089604 
L 79.877753 427.174746 
L 80.74336 426.955492 
L 81.612073 427.239717 
L 82.483892 427.287379 
L 83.358873 427.069386 
L 84.236979 427.327331 
L 84.897651 427.398218 
L 86.002751 427.604817 
L 86.668204 427.576646 
L 87.558307 427.465032 
L 88.899515 427.666491 
L 89.348203 427.6502 
L 89.797728 427.434728 
L 90.248053 427.506051 
L 91.151194 427.943443 
L 92.739671 428.122211 
L 93.651946 427.751487 
L 94.33836 428.043664 
L 96.178067 427.852289 
L 98.496892 428.224468 
L 99.196754 428.437322 
L 99.898551 428.282167 
L 100.602301 428.48382 
L 101.543721 428.656236 
L 102.488638 428.452304 
L 103.19966 428.333319 
L 103.674779 428.392715 
L 104.866499 428.163376 
L 105.584199 428.505251 
L 106.063819 428.444304 
L 106.784903 428.408327 
L 107.266774 428.497832 
L 108.23323 428.744432 
L 108.96049 428.679946 
L 109.689796 428.86075 
L 111.644823 428.462728 
L 112.381792 428.215401 
L 112.627926 428.204589 
L 113.862073 428.713692 
L 114.605404 428.568961 
L 115.350873 428.432813 
L 116.098481 428.647509 
L 117.098659 429.046791 
L 117.851308 428.901624 
L 119.110584 428.612647 
L 119.616002 428.59078 
L 120.629758 428.428885 
L 121.138096 428.499917 
L 121.902481 428.720092 
L 123.694703 428.787051 
L 124.982362 428.626708 
L 126.795695 428.913261 
L 127.316067 428.968244 
L 129.145451 428.448425 
L 129.670436 428.339138 
L 130.459876 428.463019 
L 131.251641 428.637811 
L 132.311004 428.626272 
L 133.641109 428.796749 
L 134.175003 428.586077 
L 134.709958 428.251766 
L 135.245972 428.263596 
L 136.051985 428.51839 
L 136.860434 428.272227 
L 137.400745 428.151351 
L 138.21323 428.474947 
L 138.756239 428.332301 
L 139.572797 428.09021 
L 140.11854 428.078331 
L 140.939209 428.639896 
L 141.213317 428.614247 
L 142.037297 428.145581 
L 142.86377 428.326628 
L 143.416134 428.399891 
L 143.969633 428.181267 
L 144.801964 427.783973 
L 145.079978 427.77733 
L 145.636825 428.121581 
L 146.194825 428.355235 
L 147.31421 428.188055 
L 149.849558 427.626296 
L 150.699875 428.061119 
L 151.837675 427.943443 
L 152.408341 428.095835 
L 152.980161 427.938401 
L 154.127353 427.359381 
L 154.702726 427.336641 
L 155.279288 427.495626 
L 156.146365 427.841138 
L 158.471755 427.452668 
L 159.056111 427.221098 
L 160.228507 427.108805 
L 162.291953 427.429443 
L 163.775117 426.871563 
L 164.967266 426.957092 
L 166.164418 426.758105 
L 166.764881 426.623848 
L 167.36661 426.686637 
L 167.969622 426.455262 
L 170.090189 426.557179 
L 171.003821 426.307961 
L 173.147006 426.051519 
L 173.762276 426.086235 
L 174.687644 425.774324 
L 175.615989 425.082186 
L 176.236541 425.069386 
L 176.858413 424.931152 
L 177.481625 424.86395 
L 178.106176 424.56484 
L 178.418953 424.558246 
L 179.045531 424.803294 
L 179.359313 424.741378 
L 179.987919 424.180928 
L 180.933357 423.934037 
L 181.565348 423.5269 
L 183.469541 423.245778 
L 184.745911 422.476062 
L 186.027823 422.358484 
L 188.284672 421.336495 
L 188.93264 421.268857 
L 189.907299 420.574926 
L 190.232892 420.348059 
L 190.885138 420.280615 
L 191.538835 419.769621 
L 192.193964 419.363066 
L 193.508557 418.305295 
L 193.838111 417.808653 
L 194.828952 415.443262 
L 196.155206 413.500621 
L 196.487681 412.783367 
L 196.820528 412.340011 
L 197.487338 412.68431 
L 197.821301 412.518052 
L 198.825404 410.772167 
L 199.160855 410.575411 
L 199.496678 410.509955 
L 199.832873 410.56775 
L 200.16944 410.795198 
L 200.506379 410.79675 
L 201.181391 410.068732 
L 201.519465 410.100975 
L 201.857929 410.004682 
L 202.875554 408.728918 
L 203.215525 408.628018 
L 203.555867 408.348981 
L 203.896601 408.333757 
L 204.579221 408.617303 
L 205.263366 407.948778 
L 205.606015 408.128855 
L 206.292485 409.225512 
L 206.636288 409.379843 
L 207.325083 408.387479 
L 207.670057 407.903589 
L 208.015422 407.762785 
L 208.707323 408.004488 
L 209.05386 408.123085 
L 209.748105 408.034937 
L 210.095813 407.494658 
L 210.792439 405.479239 
L 211.141338 405.160153 
L 211.490627 405.568502 
L 212.540895 409.15157 
L 212.891784 409.451602 
L 213.243082 409.374897 
L 213.594771 409.054404 
L 213.94685 408.939347 
L 214.652237 409.95222 
L 215.71333 411.57495 
L 216.067846 411.187256 
L 216.422752 410.396837 
L 216.778068 410.053992 
L 217.133812 410.643922 
L 217.846489 412.604842 
L 218.560804 413.635121 
L 219.276773 414.387867 
L 219.635363 415.015227 
L 219.99438 415.314095 
L 220.713642 415.350266 
L 222.157151 416.995978 
L 222.51907 417.25887 
L 223.607356 417.651946 
L 223.970948 417.876 
L 224.699417 418.641497 
L 225.064275 418.824435 
L 225.429579 418.88286 
L 225.795292 419.193753 
L 226.89498 420.50816 
L 228.367244 421.382072 
L 229.105943 421.416788 
L 230.217238 422.035615 
L 231.332456 422.307477 
L 232.451581 423.57078 
L 232.825516 423.722541 
L 233.949923 423.815974 
L 236.210678 424.662443 
L 236.58904 424.643388 
L 237.347083 425.069337 
L 238.868581 425.12403 
L 239.632037 425.162624 
L 240.014453 425.094308 
L 240.397315 425.1762 
L 241.164398 425.55507 
L 241.933322 425.682055 
L 244.639045 425.252808 
L 245.416283 425.460426 
L 246.97634 425.128005 
L 249.724564 423.910376 
L 251.305415 423.935589 
L 252.496094 423.423528 
L 253.292286 423.356811 
L 254.090393 423.572719 
L 254.890454 423.102502 
L 255.692467 422.668746 
L 256.09419 422.620308 
L 256.899142 422.805186 
L 257.706047 422.463117 
L 258.920107 421.946353 
L 259.325791 421.9064 
L 260.13863 422.15717 
L 260.953477 421.977675 
L 261.361636 421.590465 
L 261.770315 421.022403 
L 262.179496 420.68368 
L 262.589161 420.889309 
L 262.999347 421.4084 
L 263.410035 421.554925 
L 264.232936 421.29887 
L 265.057846 421.185752 
L 265.884821 420.882181 
L 266.713823 420.414243 
L 267.129105 420.527506 
L 267.544889 420.838059 
L 267.961195 420.987202 
L 268.795349 420.571435 
L 269.631586 420.71345 
L 270.889839 420.298749 
L 271.310311 419.972972 
L 271.731284 419.917164 
L 272.57485 420.452547 
L 273.420499 420.314071 
L 273.844133 420.483675 
L 274.268287 420.47485 
L 274.692962 420.14083 
L 275.118177 420.245705 
L 275.970224 421.068707 
L 276.824392 421.582901 
L 277.252285 421.570053 
L 278.109689 421.327041 
L 278.969251 421.240687 
L 279.399841 421.406849 
L 280.262658 422.269803 
L 280.694885 422.406582 
L 282.42926 422.207692 
L 284.172452 422.648818 
L 284.609627 422.840192 
L 285.047359 422.903273 
L 285.48565 422.823125 
L 285.924517 422.9072 
L 286.803887 423.503918 
L 288.127166 423.661061 
L 288.569399 423.636818 
L 289.455541 423.266239 
L 290.789012 423.196759 
L 292.127617 422.990111 
L 292.574965 422.740942 
L 293.471392 422.67534 
L 294.370126 422.087156 
L 295.271184 422.002402 
L 296.627124 421.461444 
L 298.443265 421.728796 
L 298.898761 421.632745 
L 299.811556 421.165194 
L 300.726713 421.184977 
L 301.644251 421.508233 
L 302.564188 421.43114 
L 303.948605 421.033603 
L 305.338434 421.159958 
L 306.268043 420.864823 
L 307.667005 421.474584 
L 309.07151 421.139885 
L 310.010921 421.436959 
L 310.481557 421.409661 
L 311.424689 420.994766 
L 312.370313 420.456862 
L 313.793455 420.404546 
L 316.177956 419.424837 
L 318.096992 419.32098 
L 319.060361 419.055955 
L 320.510231 419.105314 
L 321.480035 419.256106 
L 322.452461 419.367478 
L 322.939633 419.215862 
L 324.405127 419.13523 
L 324.405127 419.13523 
" style="fill:none;stroke:#8c564b;stroke-linecap:square;stroke-width:1.5;"/>
   </g>
   <g id="patch_3">
    <path d="M 45 448.56 
L 45 60.48 
" style="fill:none;stroke:#000000;stroke-linecap:square;stroke-linejoin:miter;stroke-width:0.8;"/>
   </g>
   <g id="patch_4">
    <path d="M 324 448.56 
L 324 60.48 
" style="fill:none;stroke:#000000;stroke-linecap:square;stroke-linejoin:miter;stroke-width:0.8;"/>
   </g>
   <g id="patch_5">
    <path d="M 45 448.56 
L 324 448.56 
" style="fill:none;stroke:#000000;stroke-linecap:square;stroke-linejoin:miter;stroke-width:0.8;"/>
   </g>
   <g id="patch_6">
    <path d="M 45 60.48 
L 324 60.48 
" style="fill:none;stroke:#000000;stroke-linecap:square;stroke-linejoin:miter;stroke-width:0.8;"/>
   </g>
   <g id="text_19">
    <!-- EELS spectra of bulk C$_2$Li: -K -->
    <g transform="translate(95.7 54.48)scale(0.12 -0.12)">
     <defs>
      <path d="M 53.515625 70.515625 
L 53.515625 60.890625 
Q 47.90625 63.578125 42.921875 64.890625 
Q 37.9375 66.21875 33.296875 66.21875 
Q 25.25 66.21875 20.875 63.09375 
Q 16.5 59.96875 16.5 54.203125 
Q 16.5 49.359375 19.40625 46.890625 
Q 22.3125 44.4375 30.421875 42.921875 
L 36.375 41.703125 
Q 47.40625 39.59375 52.65625 34.296875 
Q 57.90625 29 57.90625 20.125 
Q 57.90625 9.515625 50.796875 4.046875 
Q 43.703125 -1.421875 29.984375 -1.421875 
Q 24.8125 -1.421875 18.96875 -0.25 
Q 13.140625 0.921875 6.890625 3.21875 
L 6.890625 13.375 
Q 12.890625 10.015625 18.65625 8.296875 
Q 24.421875 6.59375 29.984375 6.59375 
Q 38.421875 6.59375 43.015625 9.90625 
Q 47.609375 13.234375 47.609375 19.390625 
Q 47.609375 24.75 44.3125 27.78125 
Q 41.015625 30.8125 33.5 32.328125 
L 27.484375 33.5 
Q 16.453125 35.6875 11.515625 40.375 
Q 6.59375 45.0625 6.59375 53.421875 
Q 6.59375 63.09375 13.40625 68.65625 
Q 20.21875 74.21875 32.171875 74.21875 
Q 37.3125 74.21875 42.625 73.28125 
Q 47.953125 72.359375 53.515625 70.515625 
z
" id="DejaVuSans-83"/>
      <path d="M 18.109375 8.203125 
L 18.109375 -20.796875 
L 9.078125 -20.796875 
L 9.078125 54.6875 
L 18.109375 54.6875 
L 18.109375 46.390625 
Q 20.953125 51.265625 25.265625 53.625 
Q 29.59375 56 35.59375 56 
Q 45.5625 56 51.78125 48.09375 
Q 58.015625 40.1875 58.015625 27.296875 
Q 58.015625 14.40625 51.78125 6.484375 
Q 45.5625 -1.421875 35.59375 -1.421875 
Q 29.59375 -1.421875 25.265625 0.953125 
Q 20.953125 3.328125 18.109375 8.203125 
z
M 48.6875 27.296875 
Q 48.6875 37.203125 44.609375 42.84375 
Q 40.53125 48.484375 33.40625 48.484375 
Q 26.265625 48.484375 22.1875 42.84375 
Q 18.109375 37.203125 18.109375 27.296875 
Q 18.109375 17.390625 22.1875 11.75 
Q 26.265625 6.109375 33.40625 6.109375 
Q 40.53125 6.109375 44.609375 11.75 
Q 48.6875 17.390625 48.6875 27.296875 
z
" id="DejaVuSans-112"/>
      <path d="M 34.28125 27.484375 
Q 23.390625 27.484375 19.1875 25 
Q 14.984375 22.515625 14.984375 16.5 
Q 14.984375 11.71875 18.140625 8.90625 
Q 21.296875 6.109375 26.703125 6.109375 
Q 34.1875 6.109375 38.703125 11.40625 
Q 43.21875 16.703125 43.21875 25.484375 
L 43.21875 27.484375 
z
M 52.203125 31.203125 
L 52.203125 0 
L 43.21875 0 
L 43.21875 8.296875 
Q 40.140625 3.328125 35.546875 0.953125 
Q 30.953125 -1.421875 24.3125 -1.421875 
Q 15.921875 -1.421875 10.953125 3.296875 
Q 6 8.015625 6 15.921875 
Q 6 25.140625 12.171875 29.828125 
Q 18.359375 34.515625 30.609375 34.515625 
L 43.21875 34.515625 
L 43.21875 35.40625 
Q 43.21875 41.609375 39.140625 45 
Q 35.0625 48.390625 27.6875 48.390625 
Q 23 48.390625 18.546875 47.265625 
Q 14.109375 46.140625 10.015625 43.890625 
L 10.015625 52.203125 
Q 14.9375 54.109375 19.578125 55.046875 
Q 24.21875 56 28.609375 56 
Q 40.484375 56 46.34375 49.84375 
Q 52.203125 43.703125 52.203125 31.203125 
z
" id="DejaVuSans-97"/>
      <path d="M 37.109375 75.984375 
L 37.109375 68.5 
L 28.515625 68.5 
Q 23.6875 68.5 21.796875 66.546875 
Q 19.921875 64.59375 19.921875 59.515625 
L 19.921875 54.6875 
L 34.71875 54.6875 
L 34.71875 47.703125 
L 19.921875 47.703125 
L 19.921875 0 
L 10.890625 0 
L 10.890625 47.703125 
L 2.296875 47.703125 
L 2.296875 54.6875 
L 10.890625 54.6875 
L 10.890625 58.5 
Q 10.890625 67.625 15.140625 71.796875 
Q 19.390625 75.984375 28.609375 75.984375 
z
" id="DejaVuSans-102"/>
      <path d="M 48.6875 27.296875 
Q 48.6875 37.203125 44.609375 42.84375 
Q 40.53125 48.484375 33.40625 48.484375 
Q 26.265625 48.484375 22.1875 42.84375 
Q 18.109375 37.203125 18.109375 27.296875 
Q 18.109375 17.390625 22.1875 11.75 
Q 26.265625 6.109375 33.40625 6.109375 
Q 40.53125 6.109375 44.609375 11.75 
Q 48.6875 17.390625 48.6875 27.296875 
z
M 18.109375 46.390625 
Q 20.953125 51.265625 25.265625 53.625 
Q 29.59375 56 35.59375 56 
Q 45.5625 56 51.78125 48.09375 
Q 58.015625 40.1875 58.015625 27.296875 
Q 58.015625 14.40625 51.78125 6.484375 
Q 45.5625 -1.421875 35.59375 -1.421875 
Q 29.59375 -1.421875 25.265625 0.953125 
Q 20.953125 3.328125 18.109375 8.203125 
L 18.109375 0 
L 9.078125 0 
L 9.078125 75.984375 
L 18.109375 75.984375 
z
" id="DejaVuSans-98"/>
      <path d="M 9.421875 75.984375 
L 18.40625 75.984375 
L 18.40625 0 
L 9.421875 0 
z
" id="DejaVuSans-108"/>
      <path d="M 9.078125 75.984375 
L 18.109375 75.984375 
L 18.109375 31.109375 
L 44.921875 54.6875 
L 56.390625 54.6875 
L 27.390625 29.109375 
L 57.625 0 
L 45.90625 0 
L 18.109375 26.703125 
L 18.109375 0 
L 9.078125 0 
z
" id="DejaVuSans-107"/>
      <path d="M 64.40625 67.28125 
L 64.40625 56.890625 
Q 59.421875 61.53125 53.78125 63.8125 
Q 48.140625 66.109375 41.796875 66.109375 
Q 29.296875 66.109375 22.65625 58.46875 
Q 16.015625 50.828125 16.015625 36.375 
Q 16.015625 21.96875 22.65625 14.328125 
Q 29.296875 6.6875 41.796875 6.6875 
Q 48.140625 6.6875 53.78125 8.984375 
Q 59.421875 11.28125 64.40625 15.921875 
L 64.40625 5.609375 
Q 59.234375 2.09375 53.4375 0.328125 
Q 47.65625 -1.421875 41.21875 -1.421875 
Q 24.65625 -1.421875 15.125 8.703125 
Q 5.609375 18.84375 5.609375 36.375 
Q 5.609375 53.953125 15.125 64.078125 
Q 24.65625 74.21875 41.21875 74.21875 
Q 47.75 74.21875 53.53125 72.484375 
Q 59.328125 70.75 64.40625 67.28125 
z
" id="DejaVuSans-67"/>
      <path d="M 11.71875 12.40625 
L 22.015625 12.40625 
L 22.015625 0 
L 11.71875 0 
z
M 11.71875 51.703125 
L 22.015625 51.703125 
L 22.015625 39.3125 
L 11.71875 39.3125 
z
" id="DejaVuSans-58"/>
      <path d="M 9.8125 0 
L 9.8125 72.90625 
L 55.171875 72.90625 
L 55.171875 64.59375 
L 19.671875 64.59375 
L 19.671875 0 
z
" id="DejaVuSans-915"/>
      <path d="M 4.890625 31.390625 
L 31.203125 31.390625 
L 31.203125 23.390625 
L 4.890625 23.390625 
z
" id="DejaVuSans-45"/>
      <path d="M 9.8125 72.90625 
L 19.671875 72.90625 
L 19.671875 42.09375 
L 52.390625 72.90625 
L 65.09375 72.90625 
L 28.90625 38.921875 
L 67.671875 0 
L 54.6875 0 
L 19.671875 35.109375 
L 19.671875 0 
L 9.8125 0 
z
" id="DejaVuSans-75"/>
     </defs>
     <use transform="translate(0 0.015625)" xlink:href="#DejaVuSans-69"/>
     <use transform="translate(63.183594 0.015625)" xlink:href="#DejaVuSans-69"/>
     <use transform="translate(126.367188 0.015625)" xlink:href="#DejaVuSans-76"/>
     <use transform="translate(182.080078 0.015625)" xlink:href="#DejaVuSans-83"/>
     <use transform="translate(245.556641 0.015625)" xlink:href="#DejaVuSans-32"/>
     <use transform="translate(277.34375 0.015625)" xlink:href="#DejaVuSans-115"/>
     <use transform="translate(329.443359 0.015625)" xlink:href="#DejaVuSans-112"/>
     <use transform="translate(392.919922 0.015625)" xlink:href="#DejaVuSans-101"/>
     <use transform="translate(454.443359 0.015625)" xlink:href="#DejaVuSans-99"/>
     <use transform="translate(509.423828 0.015625)" xlink:href="#DejaVuSans-116"/>
     <use transform="translate(548.632812 0.015625)" xlink:href="#DejaVuSans-114"/>
     <use transform="translate(589.746094 0.015625)" xlink:href="#DejaVuSans-97"/>
     <use transform="translate(651.025391 0.015625)" xlink:href="#DejaVuSans-32"/>
     <use transform="translate(682.8125 0.015625)" xlink:href="#DejaVuSans-111"/>
     <use transform="translate(743.994141 0.015625)" xlink:href="#DejaVuSans-102"/>
     <use transform="translate(779.199219 0.015625)" xlink:href="#DejaVuSans-32"/>
     <use transform="translate(810.986328 0.015625)" xlink:href="#DejaVuSans-98"/>
     <use transform="translate(874.462891 0.015625)" xlink:href="#DejaVuSans-117"/>
     <use transform="translate(937.841797 0.015625)" xlink:href="#DejaVuSans-108"/>
     <use transform="translate(965.625 0.015625)" xlink:href="#DejaVuSans-107"/>
     <use transform="translate(1023.535156 0.015625)" xlink:href="#DejaVuSans-32"/>
     <use transform="translate(1055.322266 0.015625)" xlink:href="#DejaVuSans-67"/>
     <use transform="translate(1126.103516 -16.390625)scale(0.7)" xlink:href="#DejaVuSans-50"/>
     <use transform="translate(1173.374023 0.015625)" xlink:href="#DejaVuSans-76"/>
     <use transform="translate(1229.086914 0.015625)" xlink:href="#DejaVuSans-105"/>
     <use transform="translate(1256.870117 0.015625)" xlink:href="#DejaVuSans-58"/>
     <use transform="translate(1290.561523 0.015625)" xlink:href="#DejaVuSans-32"/>
     <use transform="translate(1322.348633 0.015625)" xlink:href="#DejaVuSans-915"/>
     <use transform="translate(1378.061523 0.015625)" xlink:href="#DejaVuSans-45"/>
     <use transform="translate(1414.145508 0.015625)" xlink:href="#DejaVuSans-75"/>
    </g>
   </g>
   <g id="legend_1">
    <g id="patch_7">
     <path d="M 229.3 165.08 
L 317 165.08 
Q 319 165.08 319 163.08 
L 319 67.48 
Q 319 65.48 317 65.48 
L 229.3 65.48 
Q 227.3 65.48 227.3 67.48 
L 227.3 163.08 
Q 227.3 165.08 229.3 165.08 
z
" style="fill:#ffffff;opacity:0.8;stroke:#cccccc;stroke-linejoin:miter;"/>
    </g>
    <g id="line2d_23">
     <path d="M 231.3 74.98 
L 251.3 74.98 
" style="fill:none;stroke:#1f77b4;stroke-linecap:square;stroke-width:1.5;"/>
    </g>
    <g id="line2d_24"/>
    <g id="text_20">
     <!-- 0.08 Ang$^{-1}$ -->
     <g transform="translate(259.3 78.48)scale(0.1 -0.1)">
      <defs>
       <path d="M 10.6875 12.40625 
L 21 12.40625 
L 21 0 
L 10.6875 0 
z
" id="DejaVuSans-46"/>
       <path d="M 34.1875 63.1875 
L 20.796875 26.90625 
L 47.609375 26.90625 
z
M 28.609375 72.90625 
L 39.796875 72.90625 
L 67.578125 0 
L 57.328125 0 
L 50.6875 18.703125 
L 17.828125 18.703125 
L 11.1875 0 
L 0.78125 0 
z
" id="DejaVuSans-65"/>
       <path d="M 10.59375 35.5 
L 73.1875 35.5 
L 73.1875 27.203125 
L 10.59375 27.203125 
z
" id="DejaVuSans-8722"/>
      </defs>
      <use transform="translate(0 0.684375)" xlink:href="#DejaVuSans-48"/>
      <use transform="translate(63.623047 0.684375)" xlink:href="#DejaVuSans-46"/>
      <use transform="translate(95.410156 0.684375)" xlink:href="#DejaVuSans-48"/>
      <use transform="translate(159.033203 0.684375)" xlink:href="#DejaVuSans-56"/>
      <use transform="translate(222.65625 0.684375)" xlink:href="#DejaVuSans-32"/>
      <use transform="translate(254.443359 0.684375)" xlink:href="#DejaVuSans-65"/>
      <use transform="translate(322.851562 0.684375)" xlink:href="#DejaVuSans-110"/>
      <use transform="translate(386.230469 0.684375)" xlink:href="#DejaVuSans-103"/>
      <use transform="translate(450.664062 38.965625)scale(0.7)" xlink:href="#DejaVuSans-8722"/>
      <use transform="translate(509.316406 38.965625)scale(0.7)" xlink:href="#DejaVuSans-49"/>
     </g>
    </g>
    <g id="line2d_25">
     <path d="M 231.3 91.08 
L 251.3 91.08 
" style="fill:none;stroke:#ff7f0e;stroke-linecap:square;stroke-width:1.5;"/>
    </g>
    <g id="line2d_26"/>
    <g id="text_21">
     <!-- 0.25 Ang$^{-1}$ -->
     <g transform="translate(259.3 94.58)scale(0.1 -0.1)">
      <use transform="translate(0 0.684375)" xlink:href="#DejaVuSans-48"/>
      <use transform="translate(63.623047 0.684375)" xlink:href="#DejaVuSans-46"/>
      <use transform="translate(89.910156 0.684375)" xlink:href="#DejaVuSans-50"/>
      <use transform="translate(153.533203 0.684375)" xlink:href="#DejaVuSans-53"/>
      <use transform="translate(217.15625 0.684375)" xlink:href="#DejaVuSans-32"/>
      <use transform="translate(248.943359 0.684375)" xlink:href="#DejaVuSans-65"/>
      <use transform="translate(317.351562 0.684375)" xlink:href="#DejaVuSans-110"/>
      <use transform="translate(380.730469 0.684375)" xlink:href="#DejaVuSans-103"/>
      <use transform="translate(445.164062 38.965625)scale(0.7)" xlink:href="#DejaVuSans-8722"/>
      <use transform="translate(503.816406 38.965625)scale(0.7)" xlink:href="#DejaVuSans-49"/>
     </g>
    </g>
    <g id="line2d_27">
     <path d="M 231.3 107.18 
L 251.3 107.18 
" style="fill:none;stroke:#2ca02c;stroke-linecap:square;stroke-width:1.5;"/>
    </g>
    <g id="line2d_28"/>
    <g id="text_22">
     <!-- 0.41 Ang$^{-1}$ -->
     <g transform="translate(259.3 110.68)scale(0.1 -0.1)">
      <use transform="translate(0 0.684375)" xlink:href="#DejaVuSans-48"/>
      <use transform="translate(63.623047 0.684375)" xlink:href="#DejaVuSans-46"/>
      <use transform="translate(95.410156 0.684375)" xlink:href="#DejaVuSans-52"/>
      <use transform="translate(159.033203 0.684375)" xlink:href="#DejaVuSans-49"/>
      <use transform="translate(222.65625 0.684375)" xlink:href="#DejaVuSans-32"/>
      <use transform="translate(254.443359 0.684375)" xlink:href="#DejaVuSans-65"/>
      <use transform="translate(322.851562 0.684375)" xlink:href="#DejaVuSans-110"/>
      <use transform="translate(386.230469 0.684375)" xlink:href="#DejaVuSans-103"/>
      <use transform="translate(450.664062 38.965625)scale(0.7)" xlink:href="#DejaVuSans-8722"/>
      <use transform="translate(509.316406 38.965625)scale(0.7)" xlink:href="#DejaVuSans-49"/>
     </g>
    </g>
    <g id="line2d_29">
     <path d="M 231.3 123.28 
L 251.3 123.28 
" style="fill:none;stroke:#d62728;stroke-linecap:square;stroke-width:1.5;"/>
    </g>
    <g id="line2d_30"/>
    <g id="text_23">
     <!-- 0.57 Ang$^{-1}$ -->
     <g transform="translate(259.3 126.78)scale(0.1 -0.1)">
      <use transform="translate(0 0.684375)" xlink:href="#DejaVuSans-48"/>
      <use transform="translate(63.623047 0.684375)" xlink:href="#DejaVuSans-46"/>
      <use transform="translate(95.410156 0.684375)" xlink:href="#DejaVuSans-53"/>
      <use transform="translate(151.783203 0.684375)" xlink:href="#DejaVuSans-55"/>
      <use transform="translate(215.40625 0.684375)" xlink:href="#DejaVuSans-32"/>
      <use transform="translate(247.193359 0.684375)" xlink:href="#DejaVuSans-65"/>
      <use transform="translate(315.601562 0.684375)" xlink:href="#DejaVuSans-110"/>
      <use transform="translate(378.980469 0.684375)" xlink:href="#DejaVuSans-103"/>
      <use transform="translate(443.414062 38.965625)scale(0.7)" xlink:href="#DejaVuSans-8722"/>
      <use transform="translate(502.066406 38.965625)scale(0.7)" xlink:href="#DejaVuSans-49"/>
     </g>
    </g>
    <g id="line2d_31">
     <path d="M 231.3 139.38 
L 251.3 139.38 
" style="fill:none;stroke:#9467bd;stroke-linecap:square;stroke-width:1.5;"/>
    </g>
    <g id="line2d_32"/>
    <g id="text_24">
     <!-- 0.74 Ang$^{-1}$ -->
     <g transform="translate(259.3 142.88)scale(0.1 -0.1)">
      <use transform="translate(0 0.684375)" xlink:href="#DejaVuSans-48"/>
      <use transform="translate(63.623047 0.684375)" xlink:href="#DejaVuSans-46"/>
      <use transform="translate(87.660156 0.684375)" xlink:href="#DejaVuSans-55"/>
      <use transform="translate(151.283203 0.684375)" xlink:href="#DejaVuSans-52"/>
      <use transform="translate(214.90625 0.684375)" xlink:href="#DejaVuSans-32"/>
      <use transform="translate(246.693359 0.684375)" xlink:href="#DejaVuSans-65"/>
      <use transform="translate(315.101562 0.684375)" xlink:href="#DejaVuSans-110"/>
      <use transform="translate(378.480469 0.684375)" xlink:href="#DejaVuSans-103"/>
      <use transform="translate(442.914062 38.965625)scale(0.7)" xlink:href="#DejaVuSans-8722"/>
      <use transform="translate(501.566406 38.965625)scale(0.7)" xlink:href="#DejaVuSans-49"/>
     </g>
    </g>
    <g id="line2d_33">
     <path d="M 231.3 155.48 
L 251.3 155.48 
" style="fill:none;stroke:#8c564b;stroke-linecap:square;stroke-width:1.5;"/>
    </g>
    <g id="line2d_34"/>
    <g id="text_25">
     <!-- 0.90 Ang$^{-1}$ -->
     <g transform="translate(259.3 158.98)scale(0.1 -0.1)">
      <defs>
       <path d="M 10.984375 1.515625 
L 10.984375 10.5 
Q 14.703125 8.734375 18.5 7.8125 
Q 22.3125 6.890625 25.984375 6.890625 
Q 35.75 6.890625 40.890625 13.453125 
Q 46.046875 20.015625 46.78125 33.40625 
Q 43.953125 29.203125 39.59375 26.953125 
Q 35.25 24.703125 29.984375 24.703125 
Q 19.046875 24.703125 12.671875 31.3125 
Q 6.296875 37.9375 6.296875 49.421875 
Q 6.296875 60.640625 12.9375 67.421875 
Q 19.578125 74.21875 30.609375 74.21875 
Q 43.265625 74.21875 49.921875 64.515625 
Q 56.59375 54.828125 56.59375 36.375 
Q 56.59375 19.140625 48.40625 8.859375 
Q 40.234375 -1.421875 26.421875 -1.421875 
Q 22.703125 -1.421875 18.890625 -0.6875 
Q 15.09375 0.046875 10.984375 1.515625 
z
M 30.609375 32.421875 
Q 37.25 32.421875 41.125 36.953125 
Q 45.015625 41.5 45.015625 49.421875 
Q 45.015625 57.28125 41.125 61.84375 
Q 37.25 66.40625 30.609375 66.40625 
Q 23.96875 66.40625 20.09375 61.84375 
Q 16.21875 57.28125 16.21875 49.421875 
Q 16.21875 41.5 20.09375 36.953125 
Q 23.96875 32.421875 30.609375 32.421875 
z
" id="DejaVuSans-57"/>
      </defs>
      <use transform="translate(0 0.684375)" xlink:href="#DejaVuSans-48"/>
      <use transform="translate(63.623047 0.684375)" xlink:href="#DejaVuSans-46"/>
      <use transform="translate(95.410156 0.684375)" xlink:href="#DejaVuSans-57"/>
      <use transform="translate(159.033203 0.684375)" xlink:href="#DejaVuSans-48"/>
      <use transform="translate(222.65625 0.684375)" xlink:href="#DejaVuSans-32"/>
      <use transform="translate(254.443359 0.684375)" xlink:href="#DejaVuSans-65"/>
      <use transform="translate(322.851562 0.684375)" xlink:href="#DejaVuSans-110"/>
      <use transform="translate(386.230469 0.684375)" xlink:href="#DejaVuSans-103"/>
      <use transform="translate(450.664062 38.965625)scale(0.7)" xlink:href="#DejaVuSans-8722"/>
      <use transform="translate(509.316406 38.965625)scale(0.7)" xlink:href="#DejaVuSans-49"/>
     </g>
    </g>
   </g>
  </g>
 </g>
 <defs>
  <clipPath id="pef22f79047">
   <rect height="388.08" width="279" x="45" y="60.48"/>
  </clipPath>
 </defs>
</svg>
