<?xml version="1.0" encoding="utf-8" standalone="no"?>
<!DOCTYPE svg PUBLIC "-//W3C//DTD SVG 1.1//EN"
  "http://www.w3.org/Graphics/SVG/1.1/DTD/svg11.dtd">
<!-- Created with matplotlib (https://matplotlib.org/) -->
<svg height="504pt" version="1.1" viewBox="0 0 360 504" width="360pt" xmlns="http://www.w3.org/2000/svg" xmlns:xlink="http://www.w3.org/1999/xlink">
 <metadata>
  <rdf:RDF xmlns:cc="http://creativecommons.org/ns#" xmlns:dc="http://purl.org/dc/elements/1.1/" xmlns:rdf="http://www.w3.org/1999/02/22-rdf-syntax-ns#">
   <cc:Work>
    <dc:type rdf:resource="http://purl.org/dc/dcmitype/StillImage"/>
    <dc:date>2021-03-09T18:58:24.685911</dc:date>
    <dc:format>image/svg+xml</dc:format>
    <dc:creator>
     <cc:Agent>
      <dc:title>Matplotlib v3.3.4, https://matplotlib.org/</dc:title>
     </cc:Agent>
    </dc:creator>
   </cc:Work>
  </rdf:RDF>
 </metadata>
 <defs>
  <style type="text/css">*{stroke-linecap:butt;stroke-linejoin:round;}</style>
 </defs>
 <g id="figure_1">
  <g id="patch_1">
   <path d="M 0 504 
L 360 504 
L 360 0 
L 0 0 
z
" style="fill:#ffffff;"/>
  </g>
  <g id="axes_1">
   <g id="patch_2">
    <path d="M 45 448.56 
L 324 448.56 
L 324 60.48 
L 45 60.48 
z
" style="fill:#ffffff;"/>
   </g>
   <g id="matplotlib.axis_1">
    <g id="xtick_1">
     <g id="line2d_1">
      <defs>
       <path d="M 0 0 
L 0 3.5 
" id="mf353047996" style="stroke:#000000;stroke-width:0.8;"/>
      </defs>
      <g>
       <use style="stroke:#000000;stroke-width:0.8;" x="45" xlink:href="#mf353047996" y="448.56"/>
      </g>
     </g>
     <g id="text_1">
      <!-- 0 -->
      <g transform="translate(41.81875 463.158437)scale(0.1 -0.1)">
       <defs>
        <path d="M 31.78125 66.40625 
Q 24.171875 66.40625 20.328125 58.90625 
Q 16.5 51.421875 16.5 36.375 
Q 16.5 21.390625 20.328125 13.890625 
Q 24.171875 6.390625 31.78125 6.390625 
Q 39.453125 6.390625 43.28125 13.890625 
Q 47.125 21.390625 47.125 36.375 
Q 47.125 51.421875 43.28125 58.90625 
Q 39.453125 66.40625 31.78125 66.40625 
z
M 31.78125 74.21875 
Q 44.046875 74.21875 50.515625 64.515625 
Q 56.984375 54.828125 56.984375 36.375 
Q 56.984375 17.96875 50.515625 8.265625 
Q 44.046875 -1.421875 31.78125 -1.421875 
Q 19.53125 -1.421875 13.0625 8.265625 
Q 6.59375 17.96875 6.59375 36.375 
Q 6.59375 54.828125 13.0625 64.515625 
Q 19.53125 74.21875 31.78125 74.21875 
z
" id="DejaVuSans-48"/>
       </defs>
       <use xlink:href="#DejaVuSans-48"/>
      </g>
     </g>
    </g>
    <g id="xtick_2">
     <g id="line2d_2">
      <g>
       <use style="stroke:#000000;stroke-width:0.8;" x="76" xlink:href="#mf353047996" y="448.56"/>
      </g>
     </g>
     <g id="text_2">
      <!-- 2 -->
      <g transform="translate(72.81875 463.158437)scale(0.1 -0.1)">
       <defs>
        <path d="M 19.1875 8.296875 
L 53.609375 8.296875 
L 53.609375 0 
L 7.328125 0 
L 7.328125 8.296875 
Q 12.9375 14.109375 22.625 23.890625 
Q 32.328125 33.6875 34.8125 36.53125 
Q 39.546875 41.84375 41.421875 45.53125 
Q 43.3125 49.21875 43.3125 52.78125 
Q 43.3125 58.59375 39.234375 62.25 
Q 35.15625 65.921875 28.609375 65.921875 
Q 23.96875 65.921875 18.8125 64.3125 
Q 13.671875 62.703125 7.8125 59.421875 
L 7.8125 69.390625 
Q 13.765625 71.78125 18.9375 73 
Q 24.125 74.21875 28.421875 74.21875 
Q 39.75 74.21875 46.484375 68.546875 
Q 53.21875 62.890625 53.21875 53.421875 
Q 53.21875 48.921875 51.53125 44.890625 
Q 49.859375 40.875 45.40625 35.40625 
Q 44.1875 33.984375 37.640625 27.21875 
Q 31.109375 20.453125 19.1875 8.296875 
z
" id="DejaVuSans-50"/>
       </defs>
       <use xlink:href="#DejaVuSans-50"/>
      </g>
     </g>
    </g>
    <g id="xtick_3">
     <g id="line2d_3">
      <g>
       <use style="stroke:#000000;stroke-width:0.8;" x="107" xlink:href="#mf353047996" y="448.56"/>
      </g>
     </g>
     <g id="text_3">
      <!-- 4 -->
      <g transform="translate(103.81875 463.158437)scale(0.1 -0.1)">
       <defs>
        <path d="M 37.796875 64.3125 
L 12.890625 25.390625 
L 37.796875 25.390625 
z
M 35.203125 72.90625 
L 47.609375 72.90625 
L 47.609375 25.390625 
L 58.015625 25.390625 
L 58.015625 17.1875 
L 47.609375 17.1875 
L 47.609375 0 
L 37.796875 0 
L 37.796875 17.1875 
L 4.890625 17.1875 
L 4.890625 26.703125 
z
" id="DejaVuSans-52"/>
       </defs>
       <use xlink:href="#DejaVuSans-52"/>
      </g>
     </g>
    </g>
    <g id="xtick_4">
     <g id="line2d_4">
      <g>
       <use style="stroke:#000000;stroke-width:0.8;" x="138" xlink:href="#mf353047996" y="448.56"/>
      </g>
     </g>
     <g id="text_4">
      <!-- 6 -->
      <g transform="translate(134.81875 463.158437)scale(0.1 -0.1)">
       <defs>
        <path d="M 33.015625 40.375 
Q 26.375 40.375 22.484375 35.828125 
Q 18.609375 31.296875 18.609375 23.390625 
Q 18.609375 15.53125 22.484375 10.953125 
Q 26.375 6.390625 33.015625 6.390625 
Q 39.65625 6.390625 43.53125 10.953125 
Q 47.40625 15.53125 47.40625 23.390625 
Q 47.40625 31.296875 43.53125 35.828125 
Q 39.65625 40.375 33.015625 40.375 
z
M 52.59375 71.296875 
L 52.59375 62.3125 
Q 48.875 64.0625 45.09375 64.984375 
Q 41.3125 65.921875 37.59375 65.921875 
Q 27.828125 65.921875 22.671875 59.328125 
Q 17.53125 52.734375 16.796875 39.40625 
Q 19.671875 43.65625 24.015625 45.921875 
Q 28.375 48.1875 33.59375 48.1875 
Q 44.578125 48.1875 50.953125 41.515625 
Q 57.328125 34.859375 57.328125 23.390625 
Q 57.328125 12.15625 50.6875 5.359375 
Q 44.046875 -1.421875 33.015625 -1.421875 
Q 20.359375 -1.421875 13.671875 8.265625 
Q 6.984375 17.96875 6.984375 36.375 
Q 6.984375 53.65625 15.1875 63.9375 
Q 23.390625 74.21875 37.203125 74.21875 
Q 40.921875 74.21875 44.703125 73.484375 
Q 48.484375 72.75 52.59375 71.296875 
z
" id="DejaVuSans-54"/>
       </defs>
       <use xlink:href="#DejaVuSans-54"/>
      </g>
     </g>
    </g>
    <g id="xtick_5">
     <g id="line2d_5">
      <g>
       <use style="stroke:#000000;stroke-width:0.8;" x="169" xlink:href="#mf353047996" y="448.56"/>
      </g>
     </g>
     <g id="text_5">
      <!-- 8 -->
      <g transform="translate(165.81875 463.158437)scale(0.1 -0.1)">
       <defs>
        <path d="M 31.78125 34.625 
Q 24.75 34.625 20.71875 30.859375 
Q 16.703125 27.09375 16.703125 20.515625 
Q 16.703125 13.921875 20.71875 10.15625 
Q 24.75 6.390625 31.78125 6.390625 
Q 38.8125 6.390625 42.859375 10.171875 
Q 46.921875 13.96875 46.921875 20.515625 
Q 46.921875 27.09375 42.890625 30.859375 
Q 38.875 34.625 31.78125 34.625 
z
M 21.921875 38.8125 
Q 15.578125 40.375 12.03125 44.71875 
Q 8.5 49.078125 8.5 55.328125 
Q 8.5 64.0625 14.71875 69.140625 
Q 20.953125 74.21875 31.78125 74.21875 
Q 42.671875 74.21875 48.875 69.140625 
Q 55.078125 64.0625 55.078125 55.328125 
Q 55.078125 49.078125 51.53125 44.71875 
Q 48 40.375 41.703125 38.8125 
Q 48.828125 37.15625 52.796875 32.3125 
Q 56.78125 27.484375 56.78125 20.515625 
Q 56.78125 9.90625 50.3125 4.234375 
Q 43.84375 -1.421875 31.78125 -1.421875 
Q 19.734375 -1.421875 13.25 4.234375 
Q 6.78125 9.90625 6.78125 20.515625 
Q 6.78125 27.484375 10.78125 32.3125 
Q 14.796875 37.15625 21.921875 38.8125 
z
M 18.3125 54.390625 
Q 18.3125 48.734375 21.84375 45.5625 
Q 25.390625 42.390625 31.78125 42.390625 
Q 38.140625 42.390625 41.71875 45.5625 
Q 45.3125 48.734375 45.3125 54.390625 
Q 45.3125 60.0625 41.71875 63.234375 
Q 38.140625 66.40625 31.78125 66.40625 
Q 25.390625 66.40625 21.84375 63.234375 
Q 18.3125 60.0625 18.3125 54.390625 
z
" id="DejaVuSans-56"/>
       </defs>
       <use xlink:href="#DejaVuSans-56"/>
      </g>
     </g>
    </g>
    <g id="xtick_6">
     <g id="line2d_6">
      <g>
       <use style="stroke:#000000;stroke-width:0.8;" x="200" xlink:href="#mf353047996" y="448.56"/>
      </g>
     </g>
     <g id="text_6">
      <!-- 10 -->
      <g transform="translate(193.6375 463.158437)scale(0.1 -0.1)">
       <defs>
        <path d="M 12.40625 8.296875 
L 28.515625 8.296875 
L 28.515625 63.921875 
L 10.984375 60.40625 
L 10.984375 69.390625 
L 28.421875 72.90625 
L 38.28125 72.90625 
L 38.28125 8.296875 
L 54.390625 8.296875 
L 54.390625 0 
L 12.40625 0 
z
" id="DejaVuSans-49"/>
       </defs>
       <use xlink:href="#DejaVuSans-49"/>
       <use x="63.623047" xlink:href="#DejaVuSans-48"/>
      </g>
     </g>
    </g>
    <g id="xtick_7">
     <g id="line2d_7">
      <g>
       <use style="stroke:#000000;stroke-width:0.8;" x="231" xlink:href="#mf353047996" y="448.56"/>
      </g>
     </g>
     <g id="text_7">
      <!-- 12 -->
      <g transform="translate(224.6375 463.158437)scale(0.1 -0.1)">
       <use xlink:href="#DejaVuSans-49"/>
       <use x="63.623047" xlink:href="#DejaVuSans-50"/>
      </g>
     </g>
    </g>
    <g id="xtick_8">
     <g id="line2d_8">
      <g>
       <use style="stroke:#000000;stroke-width:0.8;" x="262" xlink:href="#mf353047996" y="448.56"/>
      </g>
     </g>
     <g id="text_8">
      <!-- 14 -->
      <g transform="translate(255.6375 463.158437)scale(0.1 -0.1)">
       <use xlink:href="#DejaVuSans-49"/>
       <use x="63.623047" xlink:href="#DejaVuSans-52"/>
      </g>
     </g>
    </g>
    <g id="xtick_9">
     <g id="line2d_9">
      <g>
       <use style="stroke:#000000;stroke-width:0.8;" x="293" xlink:href="#mf353047996" y="448.56"/>
      </g>
     </g>
     <g id="text_9">
      <!-- 16 -->
      <g transform="translate(286.6375 463.158437)scale(0.1 -0.1)">
       <use xlink:href="#DejaVuSans-49"/>
       <use x="63.623047" xlink:href="#DejaVuSans-54"/>
      </g>
     </g>
    </g>
    <g id="xtick_10">
     <g id="line2d_10">
      <g>
       <use style="stroke:#000000;stroke-width:0.8;" x="324" xlink:href="#mf353047996" y="448.56"/>
      </g>
     </g>
     <g id="text_10">
      <!-- 18 -->
      <g transform="translate(317.6375 463.158437)scale(0.1 -0.1)">
       <use xlink:href="#DejaVuSans-49"/>
       <use x="63.623047" xlink:href="#DejaVuSans-56"/>
      </g>
     </g>
    </g>
    <g id="text_11">
     <!-- Energy [eV] -->
     <g transform="translate(155.00625 476.836563)scale(0.1 -0.1)">
      <defs>
       <path d="M 9.8125 72.90625 
L 55.90625 72.90625 
L 55.90625 64.59375 
L 19.671875 64.59375 
L 19.671875 43.015625 
L 54.390625 43.015625 
L 54.390625 34.71875 
L 19.671875 34.71875 
L 19.671875 8.296875 
L 56.78125 8.296875 
L 56.78125 0 
L 9.8125 0 
z
" id="DejaVuSans-69"/>
       <path d="M 54.890625 33.015625 
L 54.890625 0 
L 45.90625 0 
L 45.90625 32.71875 
Q 45.90625 40.484375 42.875 44.328125 
Q 39.84375 48.1875 33.796875 48.1875 
Q 26.515625 48.1875 22.3125 43.546875 
Q 18.109375 38.921875 18.109375 30.90625 
L 18.109375 0 
L 9.078125 0 
L 9.078125 54.6875 
L 18.109375 54.6875 
L 18.109375 46.1875 
Q 21.34375 51.125 25.703125 53.5625 
Q 30.078125 56 35.796875 56 
Q 45.21875 56 50.046875 50.171875 
Q 54.890625 44.34375 54.890625 33.015625 
z
" id="DejaVuSans-110"/>
       <path d="M 56.203125 29.59375 
L 56.203125 25.203125 
L 14.890625 25.203125 
Q 15.484375 15.921875 20.484375 11.0625 
Q 25.484375 6.203125 34.421875 6.203125 
Q 39.59375 6.203125 44.453125 7.46875 
Q 49.3125 8.734375 54.109375 11.28125 
L 54.109375 2.78125 
Q 49.265625 0.734375 44.1875 -0.34375 
Q 39.109375 -1.421875 33.890625 -1.421875 
Q 20.796875 -1.421875 13.15625 6.1875 
Q 5.515625 13.8125 5.515625 26.8125 
Q 5.515625 40.234375 12.765625 48.109375 
Q 20.015625 56 32.328125 56 
Q 43.359375 56 49.78125 48.890625 
Q 56.203125 41.796875 56.203125 29.59375 
z
M 47.21875 32.234375 
Q 47.125 39.59375 43.09375 43.984375 
Q 39.0625 48.390625 32.421875 48.390625 
Q 24.90625 48.390625 20.390625 44.140625 
Q 15.875 39.890625 15.1875 32.171875 
z
" id="DejaVuSans-101"/>
       <path d="M 41.109375 46.296875 
Q 39.59375 47.171875 37.8125 47.578125 
Q 36.03125 48 33.890625 48 
Q 26.265625 48 22.1875 43.046875 
Q 18.109375 38.09375 18.109375 28.8125 
L 18.109375 0 
L 9.078125 0 
L 9.078125 54.6875 
L 18.109375 54.6875 
L 18.109375 46.1875 
Q 20.953125 51.171875 25.484375 53.578125 
Q 30.03125 56 36.53125 56 
Q 37.453125 56 38.578125 55.875 
Q 39.703125 55.765625 41.0625 55.515625 
z
" id="DejaVuSans-114"/>
       <path d="M 45.40625 27.984375 
Q 45.40625 37.75 41.375 43.109375 
Q 37.359375 48.484375 30.078125 48.484375 
Q 22.859375 48.484375 18.828125 43.109375 
Q 14.796875 37.75 14.796875 27.984375 
Q 14.796875 18.265625 18.828125 12.890625 
Q 22.859375 7.515625 30.078125 7.515625 
Q 37.359375 7.515625 41.375 12.890625 
Q 45.40625 18.265625 45.40625 27.984375 
z
M 54.390625 6.78125 
Q 54.390625 -7.171875 48.1875 -13.984375 
Q 42 -20.796875 29.203125 -20.796875 
Q 24.46875 -20.796875 20.265625 -20.09375 
Q 16.0625 -19.390625 12.109375 -17.921875 
L 12.109375 -9.1875 
Q 16.0625 -11.328125 19.921875 -12.34375 
Q 23.78125 -13.375 27.78125 -13.375 
Q 36.625 -13.375 41.015625 -8.765625 
Q 45.40625 -4.15625 45.40625 5.171875 
L 45.40625 9.625 
Q 42.625 4.78125 38.28125 2.390625 
Q 33.9375 0 27.875 0 
Q 17.828125 0 11.671875 7.65625 
Q 5.515625 15.328125 5.515625 27.984375 
Q 5.515625 40.671875 11.671875 48.328125 
Q 17.828125 56 27.875 56 
Q 33.9375 56 38.28125 53.609375 
Q 42.625 51.21875 45.40625 46.390625 
L 45.40625 54.6875 
L 54.390625 54.6875 
z
" id="DejaVuSans-103"/>
       <path d="M 32.171875 -5.078125 
Q 28.375 -14.84375 24.75 -17.8125 
Q 21.140625 -20.796875 15.09375 -20.796875 
L 7.90625 -20.796875 
L 7.90625 -13.28125 
L 13.1875 -13.28125 
Q 16.890625 -13.28125 18.9375 -11.515625 
Q 21 -9.765625 23.484375 -3.21875 
L 25.09375 0.875 
L 2.984375 54.6875 
L 12.5 54.6875 
L 29.59375 11.921875 
L 46.6875 54.6875 
L 56.203125 54.6875 
z
" id="DejaVuSans-121"/>
       <path id="DejaVuSans-32"/>
       <path d="M 8.59375 75.984375 
L 29.296875 75.984375 
L 29.296875 69 
L 17.578125 69 
L 17.578125 -6.203125 
L 29.296875 -6.203125 
L 29.296875 -13.1875 
L 8.59375 -13.1875 
z
" id="DejaVuSans-91"/>
       <path d="M 28.609375 0 
L 0.78125 72.90625 
L 11.078125 72.90625 
L 34.1875 11.53125 
L 57.328125 72.90625 
L 67.578125 72.90625 
L 39.796875 0 
z
" id="DejaVuSans-86"/>
       <path d="M 30.421875 75.984375 
L 30.421875 -13.1875 
L 9.71875 -13.1875 
L 9.71875 -6.203125 
L 21.390625 -6.203125 
L 21.390625 69 
L 9.71875 69 
L 9.71875 75.984375 
z
" id="DejaVuSans-93"/>
      </defs>
      <use xlink:href="#DejaVuSans-69"/>
      <use x="63.183594" xlink:href="#DejaVuSans-110"/>
      <use x="126.5625" xlink:href="#DejaVuSans-101"/>
      <use x="188.085938" xlink:href="#DejaVuSans-114"/>
      <use x="227.449219" xlink:href="#DejaVuSans-103"/>
      <use x="290.925781" xlink:href="#DejaVuSans-121"/>
      <use x="350.105469" xlink:href="#DejaVuSans-32"/>
      <use x="381.892578" xlink:href="#DejaVuSans-91"/>
      <use x="420.90625" xlink:href="#DejaVuSans-101"/>
      <use x="482.429688" xlink:href="#DejaVuSans-86"/>
      <use x="550.837891" xlink:href="#DejaVuSans-93"/>
     </g>
    </g>
   </g>
   <g id="matplotlib.axis_2">
    <g id="ytick_1">
     <g id="line2d_11">
      <defs>
       <path d="M 0 0 
L -3.5 0 
" id="m69994393f4" style="stroke:#000000;stroke-width:0.8;"/>
      </defs>
      <g>
       <use style="stroke:#000000;stroke-width:0.8;" x="45" xlink:href="#m69994393f4" y="411.646401"/>
      </g>
     </g>
     <g id="text_12">
      <!-- 0 -->
      <g transform="translate(31.6375 415.44562)scale(0.1 -0.1)">
       <use xlink:href="#DejaVuSans-48"/>
      </g>
     </g>
    </g>
    <g id="ytick_2">
     <g id="line2d_12">
      <g>
       <use style="stroke:#000000;stroke-width:0.8;" x="45" xlink:href="#m69994393f4" y="363.462404"/>
      </g>
     </g>
     <g id="text_13">
      <!-- 1 -->
      <g transform="translate(31.6375 367.261623)scale(0.1 -0.1)">
       <use xlink:href="#DejaVuSans-49"/>
      </g>
     </g>
    </g>
    <g id="ytick_3">
     <g id="line2d_13">
      <g>
       <use style="stroke:#000000;stroke-width:0.8;" x="45" xlink:href="#m69994393f4" y="315.278406"/>
      </g>
     </g>
     <g id="text_14">
      <!-- 2 -->
      <g transform="translate(31.6375 319.077625)scale(0.1 -0.1)">
       <use xlink:href="#DejaVuSans-50"/>
      </g>
     </g>
    </g>
    <g id="ytick_4">
     <g id="line2d_14">
      <g>
       <use style="stroke:#000000;stroke-width:0.8;" x="45" xlink:href="#m69994393f4" y="267.094409"/>
      </g>
     </g>
     <g id="text_15">
      <!-- 3 -->
      <g transform="translate(31.6375 270.893628)scale(0.1 -0.1)">
       <defs>
        <path d="M 40.578125 39.3125 
Q 47.65625 37.796875 51.625 33 
Q 55.609375 28.21875 55.609375 21.1875 
Q 55.609375 10.40625 48.1875 4.484375 
Q 40.765625 -1.421875 27.09375 -1.421875 
Q 22.515625 -1.421875 17.65625 -0.515625 
Q 12.796875 0.390625 7.625 2.203125 
L 7.625 11.71875 
Q 11.71875 9.328125 16.59375 8.109375 
Q 21.484375 6.890625 26.8125 6.890625 
Q 36.078125 6.890625 40.9375 10.546875 
Q 45.796875 14.203125 45.796875 21.1875 
Q 45.796875 27.640625 41.28125 31.265625 
Q 36.765625 34.90625 28.71875 34.90625 
L 20.21875 34.90625 
L 20.21875 43.015625 
L 29.109375 43.015625 
Q 36.375 43.015625 40.234375 45.921875 
Q 44.09375 48.828125 44.09375 54.296875 
Q 44.09375 59.90625 40.109375 62.90625 
Q 36.140625 65.921875 28.71875 65.921875 
Q 24.65625 65.921875 20.015625 65.03125 
Q 15.375 64.15625 9.8125 62.3125 
L 9.8125 71.09375 
Q 15.4375 72.65625 20.34375 73.4375 
Q 25.25 74.21875 29.59375 74.21875 
Q 40.828125 74.21875 47.359375 69.109375 
Q 53.90625 64.015625 53.90625 55.328125 
Q 53.90625 49.265625 50.4375 45.09375 
Q 46.96875 40.921875 40.578125 39.3125 
z
" id="DejaVuSans-51"/>
       </defs>
       <use xlink:href="#DejaVuSans-51"/>
      </g>
     </g>
    </g>
    <g id="ytick_5">
     <g id="line2d_15">
      <g>
       <use style="stroke:#000000;stroke-width:0.8;" x="45" xlink:href="#m69994393f4" y="218.910412"/>
      </g>
     </g>
     <g id="text_16">
      <!-- 4 -->
      <g transform="translate(31.6375 222.709631)scale(0.1 -0.1)">
       <use xlink:href="#DejaVuSans-52"/>
      </g>
     </g>
    </g>
    <g id="ytick_6">
     <g id="line2d_16">
      <g>
       <use style="stroke:#000000;stroke-width:0.8;" x="45" xlink:href="#m69994393f4" y="170.726415"/>
      </g>
     </g>
     <g id="text_17">
      <!-- 5 -->
      <g transform="translate(31.6375 174.525633)scale(0.1 -0.1)">
       <defs>
        <path d="M 10.796875 72.90625 
L 49.515625 72.90625 
L 49.515625 64.59375 
L 19.828125 64.59375 
L 19.828125 46.734375 
Q 21.96875 47.46875 24.109375 47.828125 
Q 26.265625 48.1875 28.421875 48.1875 
Q 40.625 48.1875 47.75 41.5 
Q 54.890625 34.8125 54.890625 23.390625 
Q 54.890625 11.625 47.5625 5.09375 
Q 40.234375 -1.421875 26.90625 -1.421875 
Q 22.3125 -1.421875 17.546875 -0.640625 
Q 12.796875 0.140625 7.71875 1.703125 
L 7.71875 11.625 
Q 12.109375 9.234375 16.796875 8.0625 
Q 21.484375 6.890625 26.703125 6.890625 
Q 35.15625 6.890625 40.078125 11.328125 
Q 45.015625 15.765625 45.015625 23.390625 
Q 45.015625 31 40.078125 35.4375 
Q 35.15625 39.890625 26.703125 39.890625 
Q 22.75 39.890625 18.8125 39.015625 
Q 14.890625 38.140625 10.796875 36.28125 
z
" id="DejaVuSans-53"/>
       </defs>
       <use xlink:href="#DejaVuSans-53"/>
      </g>
     </g>
    </g>
    <g id="ytick_7">
     <g id="line2d_17">
      <g>
       <use style="stroke:#000000;stroke-width:0.8;" x="45" xlink:href="#m69994393f4" y="122.542417"/>
      </g>
     </g>
     <g id="text_18">
      <!-- 6 -->
      <g transform="translate(31.6375 126.341636)scale(0.1 -0.1)">
       <use xlink:href="#DejaVuSans-54"/>
      </g>
     </g>
    </g>
    <g id="ytick_8">
     <g id="line2d_18">
      <g>
       <use style="stroke:#000000;stroke-width:0.8;" x="45" xlink:href="#m69994393f4" y="74.35842"/>
      </g>
     </g>
     <g id="text_19">
      <!-- 7 -->
      <g transform="translate(31.6375 78.157639)scale(0.1 -0.1)">
       <defs>
        <path d="M 8.203125 72.90625 
L 55.078125 72.90625 
L 55.078125 68.703125 
L 28.609375 0 
L 18.3125 0 
L 43.21875 64.59375 
L 8.203125 64.59375 
z
" id="DejaVuSans-55"/>
       </defs>
       <use xlink:href="#DejaVuSans-55"/>
      </g>
     </g>
    </g>
    <g id="text_20">
     <!-- Loss Function -->
     <g transform="translate(25.557812 288.341094)rotate(-90)scale(0.1 -0.1)">
      <defs>
       <path d="M 9.8125 72.90625 
L 19.671875 72.90625 
L 19.671875 8.296875 
L 55.171875 8.296875 
L 55.171875 0 
L 9.8125 0 
z
" id="DejaVuSans-76"/>
       <path d="M 30.609375 48.390625 
Q 23.390625 48.390625 19.1875 42.75 
Q 14.984375 37.109375 14.984375 27.296875 
Q 14.984375 17.484375 19.15625 11.84375 
Q 23.34375 6.203125 30.609375 6.203125 
Q 37.796875 6.203125 41.984375 11.859375 
Q 46.1875 17.53125 46.1875 27.296875 
Q 46.1875 37.015625 41.984375 42.703125 
Q 37.796875 48.390625 30.609375 48.390625 
z
M 30.609375 56 
Q 42.328125 56 49.015625 48.375 
Q 55.71875 40.765625 55.71875 27.296875 
Q 55.71875 13.875 49.015625 6.21875 
Q 42.328125 -1.421875 30.609375 -1.421875 
Q 18.84375 -1.421875 12.171875 6.21875 
Q 5.515625 13.875 5.515625 27.296875 
Q 5.515625 40.765625 12.171875 48.375 
Q 18.84375 56 30.609375 56 
z
" id="DejaVuSans-111"/>
       <path d="M 44.28125 53.078125 
L 44.28125 44.578125 
Q 40.484375 46.53125 36.375 47.5 
Q 32.28125 48.484375 27.875 48.484375 
Q 21.1875 48.484375 17.84375 46.4375 
Q 14.5 44.390625 14.5 40.28125 
Q 14.5 37.15625 16.890625 35.375 
Q 19.28125 33.59375 26.515625 31.984375 
L 29.59375 31.296875 
Q 39.15625 29.25 43.1875 25.515625 
Q 47.21875 21.78125 47.21875 15.09375 
Q 47.21875 7.46875 41.1875 3.015625 
Q 35.15625 -1.421875 24.609375 -1.421875 
Q 20.21875 -1.421875 15.453125 -0.5625 
Q 10.6875 0.296875 5.421875 2 
L 5.421875 11.28125 
Q 10.40625 8.6875 15.234375 7.390625 
Q 20.0625 6.109375 24.8125 6.109375 
Q 31.15625 6.109375 34.5625 8.28125 
Q 37.984375 10.453125 37.984375 14.40625 
Q 37.984375 18.0625 35.515625 20.015625 
Q 33.0625 21.96875 24.703125 23.78125 
L 21.578125 24.515625 
Q 13.234375 26.265625 9.515625 29.90625 
Q 5.8125 33.546875 5.8125 39.890625 
Q 5.8125 47.609375 11.28125 51.796875 
Q 16.75 56 26.8125 56 
Q 31.78125 56 36.171875 55.265625 
Q 40.578125 54.546875 44.28125 53.078125 
z
" id="DejaVuSans-115"/>
       <path d="M 9.8125 72.90625 
L 51.703125 72.90625 
L 51.703125 64.59375 
L 19.671875 64.59375 
L 19.671875 43.109375 
L 48.578125 43.109375 
L 48.578125 34.8125 
L 19.671875 34.8125 
L 19.671875 0 
L 9.8125 0 
z
" id="DejaVuSans-70"/>
       <path d="M 8.5 21.578125 
L 8.5 54.6875 
L 17.484375 54.6875 
L 17.484375 21.921875 
Q 17.484375 14.15625 20.5 10.265625 
Q 23.53125 6.390625 29.59375 6.390625 
Q 36.859375 6.390625 41.078125 11.03125 
Q 45.3125 15.671875 45.3125 23.6875 
L 45.3125 54.6875 
L 54.296875 54.6875 
L 54.296875 0 
L 45.3125 0 
L 45.3125 8.40625 
Q 42.046875 3.421875 37.71875 1 
Q 33.40625 -1.421875 27.6875 -1.421875 
Q 18.265625 -1.421875 13.375 4.4375 
Q 8.5 10.296875 8.5 21.578125 
z
M 31.109375 56 
z
" id="DejaVuSans-117"/>
       <path d="M 48.78125 52.59375 
L 48.78125 44.1875 
Q 44.96875 46.296875 41.140625 47.34375 
Q 37.3125 48.390625 33.40625 48.390625 
Q 24.65625 48.390625 19.8125 42.84375 
Q 14.984375 37.3125 14.984375 27.296875 
Q 14.984375 17.28125 19.8125 11.734375 
Q 24.65625 6.203125 33.40625 6.203125 
Q 37.3125 6.203125 41.140625 7.25 
Q 44.96875 8.296875 48.78125 10.40625 
L 48.78125 2.09375 
Q 45.015625 0.34375 40.984375 -0.53125 
Q 36.96875 -1.421875 32.421875 -1.421875 
Q 20.0625 -1.421875 12.78125 6.34375 
Q 5.515625 14.109375 5.515625 27.296875 
Q 5.515625 40.671875 12.859375 48.328125 
Q 20.21875 56 33.015625 56 
Q 37.15625 56 41.109375 55.140625 
Q 45.0625 54.296875 48.78125 52.59375 
z
" id="DejaVuSans-99"/>
       <path d="M 18.3125 70.21875 
L 18.3125 54.6875 
L 36.8125 54.6875 
L 36.8125 47.703125 
L 18.3125 47.703125 
L 18.3125 18.015625 
Q 18.3125 11.328125 20.140625 9.421875 
Q 21.96875 7.515625 27.59375 7.515625 
L 36.8125 7.515625 
L 36.8125 0 
L 27.59375 0 
Q 17.1875 0 13.234375 3.875 
Q 9.28125 7.765625 9.28125 18.015625 
L 9.28125 47.703125 
L 2.6875 47.703125 
L 2.6875 54.6875 
L 9.28125 54.6875 
L 9.28125 70.21875 
z
" id="DejaVuSans-116"/>
       <path d="M 9.421875 54.6875 
L 18.40625 54.6875 
L 18.40625 0 
L 9.421875 0 
z
M 9.421875 75.984375 
L 18.40625 75.984375 
L 18.40625 64.59375 
L 9.421875 64.59375 
z
" id="DejaVuSans-105"/>
      </defs>
      <use xlink:href="#DejaVuSans-76"/>
      <use x="53.962891" xlink:href="#DejaVuSans-111"/>
      <use x="115.144531" xlink:href="#DejaVuSans-115"/>
      <use x="167.244141" xlink:href="#DejaVuSans-115"/>
      <use x="219.34375" xlink:href="#DejaVuSans-32"/>
      <use x="251.130859" xlink:href="#DejaVuSans-70"/>
      <use x="303.150391" xlink:href="#DejaVuSans-117"/>
      <use x="366.529297" xlink:href="#DejaVuSans-110"/>
      <use x="429.908203" xlink:href="#DejaVuSans-99"/>
      <use x="484.888672" xlink:href="#DejaVuSans-116"/>
      <use x="524.097656" xlink:href="#DejaVuSans-105"/>
      <use x="551.880859" xlink:href="#DejaVuSans-111"/>
      <use x="613.0625" xlink:href="#DejaVuSans-110"/>
     </g>
    </g>
   </g>
   <g id="line2d_19">
    <path clip-path="url(#p8477852c1e)" d="M 45 334.552005 
L 50.824264 334.523673 
L 62.015032 334.50705 
L 79.353642 334.319566 
L 86.880426 334.032486 
L 88.612335 333.820572 
L 94.093894 333.392217 
L 95.087924 333.014743 
L 96.286927 332.645654 
L 97.694358 332.400638 
L 98.705392 331.969488 
L 99.31431 331.846618 
L 101.767402 330.158733 
L 102.178973 329.465269 
L 102.797826 328.345425 
L 103.211382 327.701397 
L 103.625728 326.863285 
L 104.248735 326.16187 
L 104.66508 324.998131 
L 105.291078 322.504705 
L 106.548531 314.368933 
L 107.390895 305.92623 
L 107.813285 299.808645 
L 108.660546 278.848076 
L 109.298138 249.300541 
L 110.151165 192.16545 
L 110.793113 122.667358 
L 111.222123 82.775104 
L 111.436952 78.12 
L 111.651968 98.079594 
L 112.298319 177.53703 
L 113.163079 254.384049 
L 113.813862 279.120508 
L 114.248792 292.074439 
L 115.558697 309.736572 
L 116.656221 316.294607 
L 116.876368 316.987396 
L 117.75917 321.444994 
L 118.423562 323.39158 
L 119.089938 325.402828 
L 119.535284 326.120095 
L 120.204977 326.872777 
L 120.65254 327.361267 
L 121.101001 327.394128 
L 121.325565 327.253383 
L 122.000621 326.405681 
L 122.226084 326.584492 
L 122.677692 327.505578 
L 123.130199 327.764181 
L 123.356794 327.7398 
L 124.037941 327.123816 
L 124.949341 327.013089 
L 125.40642 327.034097 
L 125.864414 327.344354 
L 126.323339 328.12055 
L 127.013445 329.585006 
L 127.705659 330.439212 
L 128.864021 331.278336 
L 129.096412 331.455798 
L 129.561862 331.41542 
L 130.028288 331.426695 
L 130.729679 331.52393 
L 131.433223 331.500898 
L 133.556816 332.127194 
L 134.031395 331.869795 
L 134.506951 331.613745 
L 134.745093 331.641355 
L 135.700095 332.458844 
L 136.179076 332.406661 
L 136.659048 332.233584 
L 137.140014 332.313907 
L 137.621971 332.39023 
L 138.588876 331.921304 
L 140.779119 332.527892 
L 141.513773 332.392061 
L 142.496875 332.616984 
L 144.227249 332.429597 
L 145.471016 332.582725 
L 146.22041 332.635246 
L 146.721323 332.556658 
L 148.735594 332.75985 
L 149.241825 332.816129 
L 149.74914 332.852989 
L 150.257524 332.830632 
L 151.022124 332.884213 
L 152.55867 332.708678 
L 153.846657 332.681551 
L 156.70461 332.07689 
L 157.227874 331.832211 
L 159.8612 331.300212 
L 160.391284 330.955118 
L 161.188574 330.888672 
L 161.721556 330.749469 
L 162.255686 330.651944 
L 163.32745 330.222962 
L 163.865082 330.341929 
L 166.570948 329.827516 
L 167.115696 329.945471 
L 167.661637 329.787186 
L 168.208772 329.632805 
L 168.757131 329.651115 
L 169.85746 329.444213 
L 170.409461 329.658631 
L 171.794789 329.532727 
L 172.072782 329.445417 
L 172.629697 329.801593 
L 174.027394 329.675448 
L 174.588649 329.818843 
L 175.15116 329.712501 
L 176.562962 329.79345 
L 177.129889 329.5772 
L 179.696907 329.640851 
L 181.134315 329.76083 
L 182.000656 329.847224 
L 183.451115 329.6263 
L 184.033605 329.710188 
L 184.617413 329.585584 
L 184.90982 329.710526 
L 185.495643 330.158685 
L 185.789042 330.061642 
L 186.376864 329.634154 
L 186.966019 329.526848 
L 187.556538 329.706574 
L 188.14839 329.899262 
L 188.741621 329.870737 
L 189.336202 329.679736 
L 191.428035 330.067232 
L 192.630959 330.022951 
L 193.234513 330.22089 
L 193.839463 330.512211 
L 194.445808 330.488697 
L 195.662744 330.412855 
L 198.11365 331.104778 
L 199.038644 331.329267 
L 199.966907 331.497718 
L 200.587543 331.700235 
L 201.209651 331.810288 
L 202.145556 332.116834 
L 204.973206 331.432525 
L 205.605653 331.179607 
L 206.239602 331.017709 
L 206.875071 330.771874 
L 208.79053 330.668809 
L 209.753406 330.458823 
L 210.397229 330.53717 
L 211.042603 330.461666 
L 213.639612 330.428949 
L 214.619941 330.715596 
L 215.603804 330.508597 
L 216.261701 330.385535 
L 216.92118 330.383656 
L 217.58227 330.552589 
L 220.242675 330.437622 
L 220.911825 330.384331 
L 221.582618 330.535628 
L 222.25504 330.818565 
L 223.943299 330.854558 
L 225.982913 330.992461 
L 227.008363 331.311246 
L 228.037609 331.401206 
L 230.107587 331.715028 
L 231.14835 331.54807 
L 231.844347 331.380342 
L 233.591926 330.435839 
L 234.293998 330.420806 
L 234.997838 330.598027 
L 235.350416 330.563623 
L 236.056906 330.076676 
L 236.765148 329.341725 
L 237.475187 328.516478 
L 237.830866 328.452297 
L 238.186993 328.6313 
L 239.258074 329.715922 
L 239.616 329.894058 
L 240.333201 329.886542 
L 240.692476 329.696745 
L 241.052215 329.32303 
L 241.773043 328.130187 
L 242.495699 326.717577 
L 242.857717 326.34921 
L 243.220184 326.437772 
L 244.674689 328.41293 
L 245.770431 329.010267 
L 246.136602 329.108515 
L 246.50324 329.030553 
L 246.870357 328.735281 
L 247.237924 328.246888 
L 247.605972 327.458935 
L 248.343492 325.605634 
L 248.712951 325.16769 
L 249.082874 324.950621 
L 249.453293 324.983531 
L 249.824176 325.221319 
L 252.433726 328.3673 
L 253.183631 328.657127 
L 253.55932 328.571167 
L 254.31214 327.973685 
L 255.066896 326.983215 
L 256.5823 324.467239 
L 256.962392 324.464107 
L 257.724031 324.785446 
L 258.105594 325.123939 
L 258.870209 326.136526 
L 261.176066 327.944389 
L 261.562125 328.095061 
L 261.948695 327.985683 
L 262.335777 327.640059 
L 262.723369 327.10088 
L 264.668945 323.53194 
L 265.45075 323.480624 
L 265.842434 323.542396 
L 267.414321 324.273877 
L 268.203395 324.97534 
L 268.598706 325.23004 
L 269.390912 326.009946 
L 270.583156 326.631424 
L 270.98163 326.609596 
L 271.380631 326.229858 
L 272.580827 324.118194 
L 272.981967 323.853038 
L 274.99568 321.609254 
L 275.400029 321.623613 
L 276.61636 322.188088 
L 278.245767 323.589616 
L 279.063764 324.875213 
L 279.473599 325.067275 
L 279.883962 324.894342 
L 280.294898 324.916362 
L 280.706392 325.052097 
L 281.118428 324.627403 
L 281.944176 322.67677 
L 282.357902 322.111765 
L 283.187012 321.57803 
L 283.602412 321.168129 
L 284.434917 320.713128 
L 284.852007 320.421566 
L 285.687906 320.387693 
L 286.946026 320.84308 
L 288.209307 320.997221 
L 288.631542 321.271966 
L 289.054367 322.028599 
L 289.47778 322.547396 
L 290.326312 322.298429 
L 291.1772 322.929592 
L 291.603512 322.656099 
L 293.743907 319.181503 
L 294.173768 318.800127 
L 294.604204 318.885412 
L 295.035243 319.203475 
L 295.466887 319.013534 
L 296.765384 317.837844 
L 297.199415 317.588492 
L 297.634051 317.777759 
L 298.069291 318.142415 
L 298.941584 318.484425 
L 299.378638 318.950509 
L 299.816311 319.825434 
L 300.254589 320.367938 
L 301.132974 319.780864 
L 302.013808 320.408123 
L 302.455155 320.319705 
L 303.782901 318.416389 
L 304.671159 318.166507 
L 305.561929 316.54526 
L 306.455209 316.179833 
L 306.902787 316.036582 
L 307.799834 316.199058 
L 308.699423 315.630824 
L 309.150163 315.79412 
L 310.95954 317.753474 
L 311.413489 317.92578 
L 312.323323 317.12607 
L 312.779209 317.356486 
L 313.23573 317.733044 
L 313.692919 317.618559 
L 314.150757 316.824101 
L 315.068373 314.592459 
L 316.911509 312.399027 
L 317.837029 312.146302 
L 318.30079 311.918922 
L 318.7652 311.498275 
L 319.230294 311.24396 
L 320.162479 311.60693 
L 320.629571 311.822747 
L 321.565787 312.821504 
L 322.504715 313.070664 
L 322.975187 312.977331 
L 323.918175 311.411111 
L 324.390693 310.851213 
L 324.390693 310.851213 
" style="fill:none;stroke:#1f77b4;stroke-linecap:square;stroke-width:1.5;"/>
   </g>
   <g id="line2d_20">
    <path clip-path="url(#p8477852c1e)" d="M 45 353.825604 
L 47.810956 353.528502 
L 48.599286 353.318901 
L 49.232337 353.616582 
L 50.50481 353.696327 
L 53.886119 353.575529 
L 55.517525 353.383372 
L 57.493651 353.396381 
L 67.338383 353.73179 
L 71.560258 353.689292 
L 74.786133 353.664477 
L 78.800091 353.622027 
L 80.6511 353.587864 
L 93.499717 352.924853 
L 98.300408 351.994805 
L 99.111136 351.745405 
L 100.537352 351.280526 
L 102.385061 349.862422 
L 103.004503 349.336735 
L 103.418462 349.021563 
L 104.248735 347.884132 
L 105.082216 346.265391 
L 105.500158 345.694314 
L 105.918906 344.521612 
L 106.548531 342.087693 
L 106.96931 339.845403 
L 108.236497 330.419505 
L 108.660546 325.973664 
L 109.085401 318.332164 
L 109.937591 297.501836 
L 110.364942 278.855882 
L 111.007525 230.543378 
L 111.436952 188.157361 
L 111.867217 133.292026 
L 112.082667 119.528315 
L 112.298319 113.85065 
L 112.514187 118.860871 
L 112.730272 135.770418 
L 113.379784 211.562545 
L 114.466567 286.294865 
L 114.902783 301.973937 
L 115.558697 315.401131 
L 116.436276 327.393502 
L 116.876368 331.706933 
L 117.53814 335.73155 
L 119.089938 342.734275 
L 119.312503 342.867503 
L 119.758298 342.889764 
L 119.981514 343.279091 
L 120.428642 344.65484 
L 120.65254 344.857984 
L 120.876654 344.655563 
L 121.325565 344.055769 
L 122.000621 344.444421 
L 122.226084 344.517372 
L 122.677692 344.8788 
L 123.130199 344.732513 
L 124.037941 345.659091 
L 124.26545 345.731705 
L 124.72115 345.586141 
L 125.40642 345.65196 
L 125.635293 345.578961 
L 126.093753 345.800511 
L 126.323339 345.996283 
L 127.474694 348.291817 
L 127.936873 348.624431 
L 128.399982 349.032838 
L 129.329021 349.165537 
L 130.028288 349.023491 
L 130.729679 348.904765 
L 130.963961 348.830321 
L 131.198461 349.007879 
L 131.903447 350.043835 
L 132.138923 350.114906 
L 132.846777 349.692477 
L 133.083229 349.827585 
L 133.556816 350.348358 
L 133.793982 350.470842 
L 134.745093 350.482695 
L 134.983468 350.593422 
L 135.222105 350.565957 
L 135.939461 350.223754 
L 136.418938 350.313762 
L 136.899407 350.662325 
L 137.380868 351.044713 
L 138.104919 351.081718 
L 138.831218 351.053097 
L 139.316678 351.065288 
L 140.290621 350.931384 
L 141.268624 351.16021 
L 145.471016 351.647013 
L 146.721323 351.351886 
L 147.223306 351.285055 
L 148.482883 351.610538 
L 150.003185 351.47755 
L 150.512112 351.583555 
L 152.301896 351.569581 
L 153.588505 351.702955 
L 155.661444 351.387109 
L 156.443403 351.208539 
L 156.966094 351.160837 
L 157.489933 350.91187 
L 158.540987 350.670998 
L 159.332247 350.344455 
L 159.8612 350.409455 
L 160.922531 349.798627 
L 162.255686 349.305704 
L 162.523186 349.25116 
L 163.32745 349.430597 
L 163.865082 349.450883 
L 164.403894 349.477962 
L 165.214311 349.285564 
L 166.299032 349.441969 
L 168.208772 349.171801 
L 168.757131 349.092008 
L 169.306683 349.265664 
L 169.581916 349.165344 
L 170.133313 348.768308 
L 170.409461 348.737615 
L 171.794789 349.151901 
L 172.908604 349.13788 
L 174.027394 348.847475 
L 175.15116 348.808012 
L 175.432887 348.692322 
L 175.714941 348.759828 
L 176.279978 349.098561 
L 176.562962 349.055919 
L 177.413834 348.617011 
L 179.124212 348.869157 
L 179.696907 348.784498 
L 180.270903 348.901152 
L 180.846185 349.014673 
L 181.42277 348.84574 
L 182.000656 348.714294 
L 182.869943 348.871133 
L 183.451115 348.827912 
L 184.033605 348.778668 
L 184.617413 349.014721 
L 189.932145 348.804254 
L 190.529469 349.143951 
L 190.82865 349.32281 
L 191.428035 349.313366 
L 192.630959 348.963116 
L 193.839463 349.497573 
L 195.357982 349.369982 
L 196.273335 349.450208 
L 197.19188 349.904246 
L 198.729945 349.944046 
L 202.771338 351.098535 
L 203.398592 351.109954 
L 204.342232 350.942226 
L 205.289235 350.662566 
L 206.557151 350.142516 
L 208.15052 349.9466 
L 209.111102 349.735168 
L 210.075124 349.985099 
L 211.042603 349.543107 
L 211.365871 349.573848 
L 211.689526 349.758345 
L 212.01357 349.812937 
L 212.662818 349.460038 
L 212.988023 349.45069 
L 213.965996 349.733096 
L 214.619941 349.565368 
L 215.275451 349.380438 
L 215.932558 349.55655 
L 217.251531 349.322954 
L 217.913412 349.574186 
L 218.909241 349.399278 
L 219.575151 349.482781 
L 220.242675 349.522966 
L 221.918627 349.790146 
L 222.59187 349.711173 
L 224.621502 349.779594 
L 224.961231 349.681636 
L 225.982913 349.826911 
L 227.008363 349.984183 
L 231.14835 350.658711 
L 231.844347 350.58099 
L 233.591926 350.057038 
L 234.293998 350.078913 
L 236.410802 349.468085 
L 237.119943 349.048113 
L 238.900598 348.565598 
L 239.974376 348.719402 
L 240.692476 348.191449 
L 241.052215 347.897864 
L 241.412404 347.8213 
L 242.134146 348.038947 
L 242.495699 347.913669 
L 243.220184 347.268389 
L 243.946515 347.275857 
L 244.310377 347.319656 
L 245.039466 347.051223 
L 245.770431 347.186524 
L 246.870357 346.488772 
L 247.605972 346.648791 
L 247.9745 346.831167 
L 248.343492 346.795366 
L 249.082874 345.779407 
L 249.453293 345.664295 
L 249.824176 346.069282 
L 250.195526 346.254067 
L 250.939681 345.771264 
L 251.312471 345.73103 
L 251.685742 345.905842 
L 252.059494 346.213255 
L 252.433726 346.313623 
L 253.183631 345.676245 
L 254.31214 346.090531 
L 255.066896 345.956868 
L 255.823622 345.868306 
L 256.202721 345.737824 
L 256.5823 345.747846 
L 256.962392 345.885363 
L 257.342963 345.815111 
L 258.105594 345.010294 
L 258.487653 344.888726 
L 258.870209 344.916528 
L 259.253276 345.095917 
L 260.020882 345.78225 
L 260.405438 345.736668 
L 261.176066 345.331922 
L 261.562125 345.332693 
L 261.948695 345.160146 
L 262.723369 344.475789 
L 263.111459 344.322805 
L 265.059592 345.193538 
L 265.45075 344.935898 
L 266.234631 344.041603 
L 267.020574 343.634111 
L 267.414321 343.562124 
L 268.203395 343.902688 
L 268.598706 344.1969 
L 268.994546 344.306085 
L 269.787804 343.985035 
L 270.583156 343.493847 
L 271.380631 342.972593 
L 272.180229 342.836135 
L 272.580827 343.070647 
L 273.383634 344.206007 
L 273.785828 344.382553 
L 274.18858 344.039338 
L 274.99568 342.60784 
L 275.400029 342.281393 
L 275.804935 342.181556 
L 276.61636 341.574534 
L 277.022895 341.7877 
L 278.245767 343.418969 
L 279.063764 343.300003 
L 279.473599 343.146103 
L 279.883962 342.581724 
L 280.706392 341.114377 
L 281.118428 340.82826 
L 281.531023 340.954502 
L 282.357902 341.565957 
L 283.187012 342.698667 
L 283.602412 342.770075 
L 284.434917 341.548033 
L 284.852007 341.296753 
L 285.687906 341.098958 
L 286.526084 340.62555 
L 287.366541 340.275879 
L 287.787629 340.416817 
L 288.209307 341.105655 
L 288.631542 341.508425 
L 289.054367 341.439474 
L 289.47778 340.940673 
L 289.901751 340.205289 
L 290.326312 339.867809 
L 290.751462 339.673723 
L 291.603512 338.947831 
L 292.030413 339.07735 
L 292.885982 340.140578 
L 293.31465 340.798049 
L 293.743907 340.954165 
L 294.173768 340.317028 
L 294.604204 339.381102 
L 295.035243 338.79292 
L 295.89912 338.795377 
L 296.331942 338.482422 
L 296.765384 338.3822 
L 297.634051 338.76666 
L 298.069291 338.827901 
L 298.941584 339.72687 
L 299.378638 339.460172 
L 300.254589 337.790066 
L 300.693471 337.481062 
L 301.573081 337.785874 
L 302.013808 338.087795 
L 302.455155 338.208014 
L 302.897122 338.209219 
L 304.226728 338.993414 
L 304.671159 338.85686 
L 305.116242 338.306358 
L 305.561929 337.511707 
L 306.455209 336.760374 
L 307.799834 336.153979 
L 308.249303 335.614463 
L 308.699423 335.595333 
L 309.601554 336.848214 
L 310.053581 336.761049 
L 310.95954 335.946691 
L 311.868072 335.652094 
L 312.779209 334.991781 
L 313.23573 334.716698 
L 314.150757 334.540393 
L 314.609232 334.197371 
L 315.068373 333.549296 
L 316.449733 332.77551 
L 316.911509 332.840413 
L 317.373936 333.088416 
L 317.837029 332.632307 
L 318.30079 331.832741 
L 318.7652 331.433296 
L 319.230294 331.475168 
L 319.696053 331.835777 
L 320.162479 332.4693 
L 320.629571 332.773004 
L 321.565787 331.709583 
L 322.03491 331.211553 
L 322.975187 330.918691 
L 323.44634 330.385391 
L 323.918175 330.029311 
L 324.390693 329.894829 
L 324.390693 329.894829 
" style="fill:none;stroke:#ff7f0e;stroke-linecap:square;stroke-width:1.5;"/>
   </g>
   <g id="line2d_21">
    <path clip-path="url(#p8477852c1e)" d="M 45 373.099203 
L 49.232337 372.443082 
L 50.026635 372.135186 
L 50.984194 371.537512 
L 51.144262 371.633253 
L 51.785869 372.449731 
L 52.429646 372.69094 
L 53.075593 372.778635 
L 56.667811 372.767746 
L 58.48934 372.654754 
L 59.323023 372.469968 
L 60.664378 372.107143 
L 64.401319 371.990345 
L 65.088481 372.061079 
L 66.12371 372.143859 
L 69.086643 372.374082 
L 73.166724 372.413979 
L 73.884855 372.424242 
L 77.880832 372.549761 
L 81.209689 372.77531 
L 88.03344 372.685736 
L 89.774974 372.646225 
L 91.139578 372.555399 
L 97.492734 372.059633 
L 99.31431 371.701145 
L 100.741875 371.469235 
L 101.561903 371.193526 
L 101.973086 371.025509 
L 102.591351 370.929526 
L 104.248735 370.030075 
L 105.291078 369.144598 
L 105.709423 368.609563 
L 106.33846 367.604252 
L 106.75882 367.340878 
L 106.96931 367.306764 
L 107.180002 367.125785 
L 107.390895 366.658015 
L 109.085401 360.284091 
L 109.724233 356.407351 
L 110.364942 350.843497 
L 110.793113 344.351378 
L 111.222123 332.830054 
L 112.298319 290.408622 
L 112.730272 264.035352 
L 113.813862 237.109363 
L 114.031218 220.982806 
L 114.466567 178.268029 
L 114.684574 175.985505 
L 115.12121 217.288924 
L 115.777774 285.061306 
L 116.216564 310.197163 
L 116.436276 315.444256 
L 116.876368 317.666502 
L 117.096747 321.474869 
L 117.75917 338.731293 
L 118.201881 344.643565 
L 119.535284 354.238445 
L 119.758298 354.921405 
L 119.981514 354.813135 
L 120.204977 354.183804 
L 120.428642 354.234686 
L 120.876654 355.928354 
L 121.325565 356.867942 
L 121.775375 359.016804 
L 122.000621 359.54278 
L 122.226084 359.3751 
L 122.45178 358.566187 
L 122.903837 356.453993 
L 123.130199 356.845633 
L 123.583621 358.638463 
L 123.810664 359.115003 
L 124.037941 359.011407 
L 124.26545 358.768945 
L 124.72115 358.993001 
L 125.177764 358.510872 
L 125.635293 358.916147 
L 125.864414 359.135577 
L 126.093753 359.86118 
L 127.013445 363.95229 
L 127.243961 364.118236 
L 127.705659 363.857464 
L 127.936873 363.958265 
L 128.399982 364.607015 
L 128.631878 364.730173 
L 129.329021 364.118525 
L 129.561862 364.280857 
L 130.261842 365.789161 
L 130.729679 366.366309 
L 130.963961 366.461858 
L 131.198461 366.303862 
L 131.668219 365.768972 
L 131.903447 365.764491 
L 132.374632 366.20947 
L 132.846777 366.197761 
L 133.319899 366.816492 
L 134.269057 367.994061 
L 135.222105 368.411382 
L 135.700095 368.687476 
L 136.179076 368.607298 
L 136.659048 368.71552 
L 137.621971 368.763848 
L 137.863321 368.710894 
L 138.588876 369.060902 
L 139.073825 368.744767 
L 139.316678 368.842918 
L 139.803146 369.211188 
L 140.290621 369.154861 
L 141.268624 369.3767 
L 142.743294 369.108364 
L 143.236908 369.28597 
L 143.731559 369.431196 
L 144.972722 369.735527 
L 145.970348 369.888607 
L 147.223306 369.850349 
L 147.726327 369.792866 
L 148.230434 369.937418 
L 148.735594 370.070405 
L 149.241825 369.844711 
L 150.257524 369.926817 
L 150.766978 369.81874 
L 152.55867 370.037833 
L 153.073037 370.166484 
L 153.846657 370.2669 
L 154.363784 370.195106 
L 156.70461 370.526081 
L 157.227874 370.355173 
L 158.014886 370.035376 
L 159.596584 369.504773 
L 160.126095 368.945213 
L 160.656768 368.389892 
L 163.059067 368.13071 
L 163.865082 367.926169 
L 164.403894 368.034776 
L 166.02741 368.000469 
L 166.570948 367.858037 
L 167.388511 368.309425 
L 167.935057 368.099728 
L 169.031759 367.549419 
L 169.306683 367.543155 
L 170.133313 368.218261 
L 170.685904 368.17663 
L 171.517107 367.951177 
L 173.747231 368.351393 
L 174.027394 368.517146 
L 174.307866 368.53189 
L 175.432887 368.179569 
L 176.279978 368.366619 
L 177.413834 368.13124 
L 177.982684 367.860832 
L 178.552805 367.865554 
L 179.124212 368.170703 
L 179.98375 368.203035 
L 180.558381 368.093175 
L 182.000656 368.167137 
L 182.579844 368.107245 
L 183.160366 368.167475 
L 183.74219 368.03203 
L 184.617413 368.277286 
L 185.202569 368.011937 
L 187.261108 367.548503 
L 187.852294 367.834427 
L 188.444843 368.002589 
L 189.634003 367.861506 
L 190.230645 367.645305 
L 190.529469 367.642125 
L 191.728239 368.046918 
L 193.234513 368.149598 
L 193.839463 367.774582 
L 194.142457 367.764271 
L 195.357982 368.164343 
L 197.49878 368.491223 
L 198.11365 368.364451 
L 199.038644 368.818441 
L 199.657125 368.904353 
L 200.277047 369.101088 
L 200.898427 369.072948 
L 201.521263 369.411248 
L 202.145556 369.693751 
L 203.398592 370.057299 
L 206.239602 369.625185 
L 208.79053 369.151874 
L 209.43206 369.225933 
L 210.719722 368.783748 
L 211.042603 368.613899 
L 211.365871 368.596987 
L 212.01357 368.996095 
L 212.338 368.993878 
L 213.313616 368.504088 
L 213.965996 368.674708 
L 214.292767 368.755175 
L 215.275451 368.440678 
L 215.932558 368.33742 
L 216.92118 368.521868 
L 217.58227 368.392012 
L 218.576905 368.543021 
L 219.575151 368.323543 
L 220.242675 368.543744 
L 220.911825 368.565089 
L 221.247013 368.670082 
L 222.59187 368.410418 
L 223.266755 368.408202 
L 223.604826 368.584845 
L 223.943299 368.617031 
L 224.282191 368.53589 
L 225.301363 368.641653 
L 225.641929 368.533673 
L 226.666123 368.584893 
L 227.008363 368.523024 
L 227.694113 368.715712 
L 229.070684 368.723759 
L 229.761519 368.816417 
L 230.454074 368.968582 
L 231.496124 369.131974 
L 232.542064 369.189795 
L 233.241533 369.114724 
L 235.703444 369.223042 
L 237.119943 368.571546 
L 238.543571 368.837666 
L 238.900598 368.778785 
L 239.974376 368.217682 
L 240.692476 368.120351 
L 241.412404 368.062 
L 242.495699 367.634174 
L 243.220184 367.066856 
L 243.583117 366.971789 
L 243.946515 366.992556 
L 244.310377 366.898116 
L 245.039466 366.455015 
L 246.136602 366.808879 
L 246.870357 366.325738 
L 247.9745 366.356672 
L 248.343492 366.214144 
L 248.712951 365.903405 
L 249.082874 365.424071 
L 249.453293 365.132076 
L 249.824176 365.114344 
L 250.567371 365.411832 
L 251.685742 365.317054 
L 252.059494 365.414 
L 252.808438 365.057969 
L 253.183631 365.159444 
L 253.55932 365.529835 
L 253.935489 365.713849 
L 254.31214 365.491673 
L 255.066896 364.69071 
L 255.445019 364.638912 
L 256.5823 364.957842 
L 256.962392 364.790307 
L 257.724031 364.108358 
L 258.105594 364.02659 
L 260.020882 364.597474 
L 260.790504 365.129907 
L 261.176066 365.272147 
L 261.562125 365.056619 
L 262.335777 364.139726 
L 262.723369 363.85414 
L 264.27881 363.436192 
L 265.45075 362.776601 
L 266.234631 362.760315 
L 266.627339 362.831916 
L 267.414321 363.225676 
L 267.808594 363.274486 
L 268.203395 363.482786 
L 268.994546 364.180972 
L 269.390912 364.263415 
L 269.787804 363.888639 
L 270.185225 363.307059 
L 270.583156 362.956954 
L 271.780174 362.727116 
L 272.580827 362.081595 
L 273.383634 361.658539 
L 274.591859 361.4168 
L 275.400029 361.428027 
L 276.210384 361.870935 
L 277.429971 362.908914 
L 279.473599 362.209861 
L 280.294898 362.240361 
L 281.944176 360.81291 
L 282.77217 359.924542 
L 283.187012 359.863445 
L 284.434917 359.365222 
L 284.852007 359.560753 
L 285.687906 360.443339 
L 286.1067 361.152222 
L 286.526084 361.501941 
L 286.946026 361.212163 
L 287.366541 361.088812 
L 288.209307 361.41974 
L 288.631542 361.378301 
L 289.054367 361.142922 
L 289.901751 360.20743 
L 290.326312 360.023319 
L 290.751462 359.559885 
L 291.1772 358.871047 
L 291.603512 358.519834 
L 292.457903 358.596832 
L 293.31465 358.354274 
L 293.743907 358.305801 
L 294.173768 358.091864 
L 294.604204 358.221286 
L 295.035243 358.764271 
L 295.89912 360.169558 
L 296.331942 360.549199 
L 297.634051 360.4006 
L 298.505135 360.460493 
L 298.941584 360.041966 
L 299.816311 358.34083 
L 300.254589 357.892382 
L 301.573081 357.085637 
L 302.013808 356.42966 
L 302.455155 356.29489 
L 302.897122 356.391354 
L 303.782901 356.422577 
L 305.116242 357.169911 
L 305.561929 357.00464 
L 306.008251 356.653523 
L 306.455209 356.482374 
L 307.350985 356.691251 
L 307.799834 356.973128 
L 308.249303 357.441717 
L 308.699423 357.408277 
L 309.150163 356.614109 
L 309.601554 355.373515 
L 310.053581 354.889507 
L 310.506242 355.102047 
L 311.413489 354.159375 
L 313.692919 354.021424 
L 314.150757 354.169253 
L 314.609232 354.004078 
L 315.988624 352.932562 
L 316.449733 352.674151 
L 317.373936 352.46166 
L 317.837029 352.708796 
L 318.30079 353.534284 
L 318.7652 353.757858 
L 319.696053 352.220162 
L 320.162479 351.957896 
L 320.629571 351.49162 
L 321.097346 350.839546 
L 321.565787 350.445449 
L 322.03491 350.661313 
L 322.504715 351.246893 
L 322.975187 351.521205 
L 323.44634 351.521446 
L 323.918175 351.264336 
L 324.390693 350.398132 
L 324.390693 350.398132 
" style="fill:none;stroke:#2ca02c;stroke-linecap:square;stroke-width:1.5;"/>
   </g>
   <g id="line2d_22">
    <path clip-path="url(#p8477852c1e)" d="M 45 392.372802 
L 49.708512 391.588849 
L 52.429646 390.548556 
L 53.561503 389.867138 
L 53.886119 389.947653 
L 54.211293 390.425446 
L 54.700086 391.206219 
L 55.190134 391.64108 
L 55.681438 391.833286 
L 57.493651 391.914283 
L 62.863936 391.649657 
L 63.887525 391.446754 
L 64.916461 391.032372 
L 65.605421 390.729583 
L 66.296783 390.821374 
L 68.385501 390.649694 
L 70.673301 390.639624 
L 71.73812 390.673497 
L 79.168959 390.822097 
L 79.723503 390.750832 
L 80.465255 390.87905 
L 81.396217 390.749194 
L 82.33144 390.819206 
L 82.894617 390.730065 
L 83.836676 390.7424 
L 84.214705 390.588741 
L 85.352964 390.690362 
L 85.733783 390.530102 
L 86.880426 390.630613 
L 87.264051 390.526584 
L 88.22623 390.71349 
L 88.805666 390.611195 
L 89.774974 390.683568 
L 90.163962 390.709683 
L 90.748792 390.889313 
L 91.531108 390.891722 
L 93.69759 391.395823 
L 95.287285 391.589571 
L 98.502792 391.61188 
L 99.721215 391.510116 
L 100.537352 391.502262 
L 102.591351 391.223036 
L 104.248735 390.830721 
L 105.500158 390.343244 
L 106.128574 390.145834 
L 107.601989 388.919551 
L 109.298138 386.246592 
L 109.511077 385.981773 
L 109.724233 385.935276 
L 110.364942 386.09462 
L 110.578919 385.87466 
L 111.222123 384.379944 
L 111.651968 382.954324 
L 112.298319 379.598984 
L 112.730272 375.744264 
L 113.379784 365.551228 
L 113.813862 354.968143 
L 114.248792 334.692028 
L 114.684574 306.264289 
L 114.902783 303.663702 
L 115.558697 326.312927 
L 115.777774 329.595703 
L 115.997052 328.856223 
L 116.436276 321.292348 
L 116.876368 304.762731 
L 117.75917 266.723826 
L 117.980417 270.359453 
L 118.64546 318.587009 
L 119.535284 345.446022 
L 120.204977 354.067102 
L 120.65254 361.936609 
L 120.876654 363.112492 
L 121.325565 362.888388 
L 121.550361 363.182117 
L 121.775375 364.28052 
L 122.45178 368.58947 
L 122.677692 368.664782 
L 123.810664 364.655102 
L 124.037941 365.279567 
L 124.493192 367.702692 
L 124.72115 367.494296 
L 124.949341 366.476457 
L 125.177764 366.216023 
L 125.864414 370.029015 
L 126.093753 370.05436 
L 126.323339 369.785686 
L 126.553141 369.704978 
L 126.783177 370.152752 
L 127.243961 372.002102 
L 127.474694 372.660873 
L 127.936873 374.429322 
L 128.168303 374.924413 
L 128.631878 376.103572 
L 129.096412 376.397542 
L 129.329021 376.39441 
L 130.261842 378.26525 
L 130.963961 380.833458 
L 131.433223 380.712757 
L 131.903447 381.217099 
L 132.374632 381.261187 
L 133.083229 381.122658 
L 133.319899 381.255357 
L 134.031395 382.405075 
L 134.269057 382.216338 
L 134.506951 382.201449 
L 134.983468 382.803798 
L 135.222105 383.231961 
L 135.460976 383.3596 
L 135.700095 383.102153 
L 135.939461 383.084036 
L 136.179076 383.616758 
L 136.659048 385.031826 
L 136.899407 385.184087 
L 137.380868 384.980461 
L 137.621971 385.155225 
L 138.346766 386.148201 
L 138.588876 386.082429 
L 138.831218 385.683514 
L 139.073825 385.513906 
L 139.559796 385.810768 
L 139.803146 385.827681 
L 140.290621 385.616828 
L 140.534746 385.671805 
L 141.268624 386.134565 
L 141.759168 386.16627 
L 142.496875 386.004805 
L 142.743294 386.055157 
L 143.236908 386.687669 
L 143.484102 386.746646 
L 143.979264 386.686801 
L 144.475482 386.962751 
L 145.221729 386.739996 
L 145.72055 387.218512 
L 146.22041 387.17346 
L 146.972175 387.243278 
L 147.474685 387.514506 
L 147.726327 387.659733 
L 147.978249 387.62345 
L 148.482883 387.307219 
L 148.98857 387.473791 
L 149.241825 387.625859 
L 150.003185 387.588083 
L 150.512112 387.895256 
L 151.022124 387.876705 
L 151.53322 388.088329 
L 152.045387 387.854637 
L 152.55867 387.684885 
L 153.073037 387.831894 
L 153.588505 388.131743 
L 154.105074 388.033881 
L 154.622758 387.882969 
L 155.661444 387.933851 
L 156.182461 388.425376 
L 157.227874 388.551956 
L 158.277798 388.644758 
L 159.8612 388.712312 
L 161.188574 388.457949 
L 163.059067 387.062058 
L 164.943867 386.258446 
L 165.214311 386.265191 
L 166.02741 386.55656 
L 166.843175 386.654759 
L 167.388511 386.448917 
L 167.935057 385.94578 
L 168.208772 385.889838 
L 168.757131 386.159138 
L 169.306683 386.450748 
L 169.85746 386.556512 
L 170.409461 386.608021 
L 170.962672 386.642617 
L 172.072782 386.313905 
L 173.187837 386.477394 
L 174.588649 386.78818 
L 175.15116 386.697546 
L 175.714941 386.614718 
L 176.279978 386.684248 
L 177.129889 386.378135 
L 177.698104 386.80119 
L 178.267589 387.058541 
L 178.838346 386.972725 
L 179.98375 387.084464 
L 180.558381 386.85294 
L 180.846185 386.897269 
L 181.42277 387.313772 
L 182.000656 387.348271 
L 183.160366 387.343116 
L 183.74219 387.639784 
L 184.033605 387.653854 
L 185.495643 387.232292 
L 186.376864 387.33107 
L 186.966019 387.127299 
L 187.852294 387.447338 
L 188.741621 386.798106 
L 189.336202 386.934226 
L 190.230645 386.741297 
L 190.82865 386.587639 
L 191.128172 386.535455 
L 191.728239 386.782639 
L 192.630959 386.719518 
L 193.53681 386.443761 
L 195.662744 386.820512 
L 196.273335 386.888066 
L 196.885337 386.770545 
L 197.806037 386.823499 
L 198.11365 386.79854 
L 198.729945 387.056951 
L 199.657125 387.093426 
L 200.277047 387.084368 
L 202.771338 388.266996 
L 204.027319 387.898051 
L 204.657533 387.926046 
L 205.289235 387.86808 
L 205.922441 388.236254 
L 206.239602 388.453034 
L 206.557151 388.457852 
L 207.193364 388.15863 
L 208.79053 388.540199 
L 212.01357 388.020775 
L 212.988023 387.819752 
L 213.639612 387.807176 
L 215.275451 387.571315 
L 216.261701 387.607694 
L 216.92118 387.222415 
L 217.58227 387.243134 
L 218.576905 387.451481 
L 220.242675 387.031702 
L 221.582618 387.354824 
L 222.929104 387.103015 
L 224.961231 387.284861 
L 225.641929 386.954608 
L 226.324301 387.097184 
L 227.008363 387.311748 
L 227.694113 387.356173 
L 228.725902 387.08933 
L 229.070684 387.000238 
L 229.415884 387.038352 
L 230.454074 387.494124 
L 230.800995 387.415199 
L 231.496124 386.950705 
L 231.844347 386.922758 
L 233.942737 387.598153 
L 234.645709 387.66961 
L 236.410802 387.441074 
L 241.052215 387.569966 
L 242.134146 387.077863 
L 242.857717 387.249012 
L 243.583117 387.4112 
L 245.039466 387.098919 
L 245.770431 386.600648 
L 246.870357 386.799745 
L 247.237924 386.441978 
L 247.605972 385.911906 
L 247.9745 385.625693 
L 248.712951 385.631235 
L 249.453293 385.756947 
L 250.567371 385.57934 
L 250.939681 385.393157 
L 251.312471 385.354514 
L 251.685742 385.095621 
L 252.433726 384.192075 
L 252.808438 384.105488 
L 253.55932 384.384715 
L 254.31214 384.861399 
L 254.68927 384.765031 
L 255.445019 384.029743 
L 256.202721 383.923256 
L 256.5823 384.085444 
L 256.962392 384.090262 
L 257.724031 383.560913 
L 258.105594 383.550794 
L 260.020882 384.272831 
L 260.405438 383.959683 
L 260.790504 383.425468 
L 261.176066 383.110681 
L 262.335777 382.824469 
L 263.111459 383.154577 
L 263.500059 383.132268 
L 264.27881 382.858486 
L 265.842434 383.209796 
L 266.234631 383.484734 
L 266.627339 383.350879 
L 267.808594 381.966215 
L 268.598706 381.538823 
L 268.994546 381.486447 
L 272.981967 382.254259 
L 273.383634 382.58032 
L 273.785828 382.604605 
L 275.400029 380.960663 
L 276.210384 380.56117 
L 277.022895 380.200416 
L 277.429971 380.165965 
L 278.245767 380.42929 
L 279.063764 380.8456 
L 279.883962 380.555918 
L 280.294898 380.840251 
L 281.118428 381.851489 
L 281.531023 381.932775 
L 281.944176 381.496855 
L 282.357902 380.750388 
L 283.187012 379.916757 
L 284.018386 379.233845 
L 284.434917 379.067273 
L 284.852007 379.065683 
L 285.26967 379.210476 
L 286.1067 378.946524 
L 286.526084 379.063515 
L 287.787629 380.225906 
L 288.631542 379.973036 
L 289.054367 380.336054 
L 289.47778 380.916864 
L 289.901751 381.174889 
L 290.326312 380.834132 
L 290.751462 380.262188 
L 291.1772 380.025267 
L 292.885982 379.594021 
L 293.743907 378.682572 
L 294.173768 378.089283 
L 294.604204 377.812321 
L 295.466887 378.232582 
L 296.765384 377.775171 
L 298.505135 379.317926 
L 298.941584 379.399646 
L 299.378638 379.214475 
L 301.132974 377.872358 
L 302.455155 375.682974 
L 303.782901 375.268302 
L 305.116242 376.256363 
L 305.561929 376.353888 
L 306.008251 376.333554 
L 306.455209 376.448569 
L 306.902787 376.843678 
L 307.350985 376.960765 
L 307.799834 376.908485 
L 308.249303 376.675275 
L 310.053581 374.345579 
L 310.506242 374.20546 
L 311.413489 374.417662 
L 312.323323 374.268099 
L 312.779209 374.228732 
L 313.692919 373.241972 
L 314.150757 373.099059 
L 314.609232 373.119007 
L 315.068373 373.4031 
L 315.988624 374.258221 
L 316.449733 374.575513 
L 316.911509 374.630972 
L 317.373936 374.280675 
L 317.837029 373.706081 
L 318.7652 372.078811 
L 320.162479 371.362845 
L 320.629571 371.313022 
L 321.097346 370.971591 
L 321.565787 370.431303 
L 322.03491 370.225558 
L 322.504715 370.219631 
L 322.975187 369.928455 
L 323.44634 369.84235 
L 323.918175 370.103652 
L 324.390693 370.921913 
L 324.390693 370.921913 
" style="fill:none;stroke:#d62728;stroke-linecap:square;stroke-width:1.5;"/>
   </g>
   <g id="line2d_23">
    <path clip-path="url(#p8477852c1e)" d="M 45 411.646401 
L 51.144262 410.262942 
L 53.886119 409.313958 
L 54.863301 409.006593 
L 55.845474 408.288892 
L 56.997729 408.852018 
L 57.162897 409.013338 
L 57.99086 410.482468 
L 58.32304 410.6594 
L 59.490175 410.806265 
L 60.496202 411.029598 
L 62.354157 410.949516 
L 63.034172 410.924557 
L 64.058645 410.801495 
L 65.088481 410.803518 
L 67.338383 410.484444 
L 69.438153 409.881903 
L 69.966563 409.616265 
L 71.027615 409.414615 
L 71.38255 409.439719 
L 71.916138 409.607543 
L 75.328834 409.250982 
L 75.872993 409.326197 
L 76.600826 409.193739 
L 77.148411 409.11332 
L 77.697483 409.073279 
L 78.431888 409.278688 
L 79.168959 409.195522 
L 79.723503 409.056415 
L 81.58293 409.244911 
L 82.14406 408.963179 
L 82.70671 408.976429 
L 83.459328 409.068172 
L 84.025605 409.097709 
L 84.403976 409.114814 
L 85.352964 408.836744 
L 87.264051 409.03478 
L 88.805666 408.70419 
L 89.386715 408.923282 
L 89.969375 408.857319 
L 90.944093 408.577755 
L 91.923367 408.639045 
L 92.513111 408.584404 
L 93.499717 408.219073 
L 93.895649 408.445297 
L 94.689761 408.307154 
L 95.087924 408.157783 
L 95.486832 407.980948 
L 95.886516 408.27169 
L 96.286927 408.160193 
L 96.888978 408.076979 
L 97.492734 407.992657 
L 97.896184 408.091868 
L 98.300408 407.846177 
L 98.908163 407.931752 
L 99.31431 408.10507 
L 99.517654 408.247454 
L 99.721215 408.244707 
L 100.333016 407.677774 
L 100.741875 407.806474 
L 101.356605 408.226927 
L 101.767402 407.84531 
L 101.973086 407.68611 
L 102.385061 407.866318 
L 102.797826 408.195222 
L 103.004503 408.177876 
L 103.418462 407.923754 
L 105.082216 408.349556 
L 105.709423 408.688096 
L 106.33846 408.737051 
L 108.872865 409.736387 
L 109.298138 409.706899 
L 110.364942 409.419674 
L 111.222123 409.238358 
L 111.651968 408.948049 
L 112.946575 407.781514 
L 113.379784 407.427507 
L 114.248792 405.94556 
L 114.902783 404.777194 
L 115.339837 402.975643 
L 115.777774 400.819939 
L 116.216564 399.195897 
L 116.656221 395.810297 
L 117.53814 385.543781 
L 117.980417 381.325753 
L 119.089938 365.514801 
L 119.535284 361.576097 
L 119.758298 356.098492 
L 120.204977 340.180089 
L 120.428642 337.749785 
L 120.65254 337.155387 
L 120.876654 337.606389 
L 121.325565 347.020964 
L 122.226084 367.483455 
L 122.45178 370.532056 
L 122.677692 371.847238 
L 122.903837 371.178541 
L 123.356794 368.217827 
L 123.583621 367.484129 
L 123.810664 367.312642 
L 124.037941 368.532517 
L 124.493192 373.616218 
L 124.949341 380.100675 
L 125.635293 384.9728 
L 126.093753 387.616463 
L 126.323339 388.468983 
L 126.553141 388.452938 
L 126.783177 387.780819 
L 127.013445 387.451963 
L 127.243961 387.634243 
L 127.474694 387.387589 
L 127.705659 386.561427 
L 127.936873 386.310773 
L 128.631878 388.059226 
L 128.864021 388.504446 
L 129.096412 388.472067 
L 129.329021 387.818981 
L 129.561862 387.503424 
L 130.028288 389.179167 
L 130.729679 388.622304 
L 131.198461 389.438011 
L 131.433223 389.262911 
L 131.668219 389.334608 
L 132.138923 390.920392 
L 132.610588 393.397435 
L 133.556816 395.807695 
L 133.793982 395.913218 
L 134.031395 395.493776 
L 134.506951 393.960658 
L 134.745093 394.431801 
L 135.222105 397.626882 
L 135.460976 398.235108 
L 135.700095 397.995345 
L 135.939461 397.342933 
L 136.179076 397.020438 
L 137.140014 398.630554 
L 137.621971 398.6479 
L 138.588876 400.107297 
L 138.831218 399.878664 
L 139.316678 399.039492 
L 139.559796 399.409015 
L 139.803146 400.080314 
L 140.04676 400.333039 
L 140.290621 400.064173 
L 140.534746 399.537136 
L 140.779119 399.315008 
L 141.759168 400.813771 
L 142.496875 402.431886 
L 142.743294 402.512353 
L 143.236908 402.262953 
L 143.484102 402.12852 
L 143.731559 402.182052 
L 144.475482 403.068493 
L 144.972722 403.493091 
L 145.471016 403.461578 
L 145.72055 403.582713 
L 146.22041 403.48143 
L 146.972175 403.856253 
L 147.223306 403.607479 
L 147.726327 403.580689 
L 148.482883 403.572594 
L 148.98857 403.302041 
L 149.74914 403.123182 
L 150.257524 404.029186 
L 150.512112 404.501052 
L 150.766978 404.653265 
L 151.53322 404.225873 
L 152.045387 404.621463 
L 152.55867 404.987806 
L 152.815721 404.948006 
L 153.588505 405.16016 
L 154.363784 404.886668 
L 154.622758 404.920397 
L 155.661444 405.479717 
L 156.182461 405.116747 
L 157.227874 405.263081 
L 157.75227 405.324372 
L 158.540987 406.030315 
L 159.068204 406.140705 
L 159.596584 406.622448 
L 160.126095 406.642686 
L 160.922531 406.368663 
L 161.454926 406.55687 
L 161.988467 407.018135 
L 163.32745 407.062898 
L 163.865082 406.859755 
L 164.403894 406.743101 
L 166.02741 405.419728 
L 166.570948 405.008525 
L 167.388511 404.983614 
L 167.935057 404.70911 
L 168.482796 404.844025 
L 169.031759 404.657312 
L 169.581916 404.788469 
L 170.133313 405.051361 
L 170.409461 404.952102 
L 170.962672 404.38753 
L 171.239734 404.375147 
L 171.794789 404.841568 
L 172.351085 404.865033 
L 173.467379 405.04023 
L 174.307866 404.61438 
L 174.869757 404.770737 
L 175.432887 404.510737 
L 175.714941 404.622861 
L 176.279978 404.984241 
L 177.129889 404.819162 
L 177.982684 405.236677 
L 178.838346 405.039604 
L 179.410404 405.309772 
L 180.846185 405.389468 
L 181.71155 405.287896 
L 182.000656 405.454902 
L 183.451115 405.600273 
L 184.033605 405.52501 
L 184.617413 405.826642 
L 185.495643 405.803128 
L 187.556538 406.298026 
L 188.444843 405.902579 
L 189.038741 406.05672 
L 189.634003 406.290268 
L 190.529469 405.845819 
L 191.128172 405.950908 
L 191.728239 405.871019 
L 192.932558 405.879692 
L 193.53681 405.843458 
L 194.142457 405.957268 
L 194.445808 405.973988 
L 195.053562 406.219293 
L 195.967861 405.934766 
L 196.273335 406.019956 
L 197.49878 405.778361 
L 198.11365 405.812138 
L 198.421619 405.84047 
L 199.038644 405.625281 
L 199.657125 405.628653 
L 200.587543 405.276428 
L 200.898427 405.316903 
L 202.145556 406.133766 
L 202.771338 406.120468 
L 204.027319 405.797587 
L 206.557151 406.473126 
L 207.512044 406.444649 
L 208.470332 406.829495 
L 208.79053 406.845637 
L 209.43206 406.585925 
L 209.753406 406.590792 
L 211.042603 407.187358 
L 211.689526 407.263103 
L 213.639612 407.176083 
L 214.292767 407.345497 
L 214.947502 407.325742 
L 216.591247 406.519238 
L 217.251531 406.609391 
L 217.913412 406.446721 
L 218.909241 406.519142 
L 219.908712 406.137717 
L 220.577056 406.445806 
L 221.918627 406.221461 
L 222.59187 406.105338 
L 223.266755 406.13579 
L 224.282191 406.410632 
L 224.961231 406.278848 
L 226.666123 405.701941 
L 228.725902 406.025738 
L 230.454074 405.709651 
L 231.844347 405.672405 
L 232.891589 406.010656 
L 234.997838 405.706808 
L 235.703444 405.616077 
L 236.056906 405.538983 
L 236.410802 405.599309 
L 237.119943 405.952016 
L 237.830866 406.083944 
L 238.900598 405.937176 
L 239.616 406.082161 
L 241.052215 405.96758 
L 242.134146 405.632508 
L 242.857717 405.796864 
L 243.583117 406.046794 
L 244.310377 406.01321 
L 245.404708 405.726178 
L 247.237924 405.834014 
L 247.9745 405.799273 
L 249.082874 405.71047 
L 250.195526 405.755522 
L 251.685742 405.721311 
L 252.059494 405.665032 
L 253.55932 405.001683 
L 255.066896 404.506737 
L 255.823622 404.548946 
L 256.962392 403.763403 
L 258.105594 403.16915 
L 259.253276 403.58199 
L 259.636823 403.559633 
L 260.405438 403.179798 
L 261.176066 403.094416 
L 262.335777 402.407457 
L 262.723369 402.401819 
L 263.889171 402.800927 
L 264.27881 402.749322 
L 265.059592 402.428417 
L 265.842434 402.347709 
L 266.234631 402.36679 
L 266.627339 402.175885 
L 267.414321 401.391256 
L 268.994546 401.479674 
L 269.787804 402.004735 
L 270.185225 401.95684 
L 270.98163 401.23408 
L 271.380631 401.156118 
L 271.780174 401.217987 
L 272.180229 401.410819 
L 272.580827 401.392316 
L 273.785828 400.560709 
L 274.18858 400.103539 
L 274.591859 399.979176 
L 275.400029 400.222505 
L 276.210384 400.516042 
L 277.022895 400.443043 
L 277.429971 400.502165 
L 278.245767 399.992138 
L 279.063764 399.992475 
L 279.473599 399.941978 
L 280.294898 399.621314 
L 280.706392 399.687422 
L 281.944176 399.559108 
L 282.357902 399.683278 
L 282.77217 399.999847 
L 283.187012 400.134762 
L 284.018386 399.663812 
L 284.434917 399.775647 
L 284.852007 400.075207 
L 285.26967 400.235852 
L 285.687906 400.092409 
L 286.526084 399.178503 
L 286.946026 399.119188 
L 287.366541 399.295927 
L 288.209307 399.138124 
L 288.631542 399.264945 
L 289.054367 399.220182 
L 289.47778 399.057705 
L 289.901751 399.126801 
L 290.751462 399.458982 
L 293.31465 398.737282 
L 293.743907 398.685484 
L 294.604204 398.173192 
L 295.466887 398.11354 
L 296.331942 398.313359 
L 296.765384 398.196368 
L 298.941584 398.378407 
L 299.378638 398.090942 
L 300.254589 397.126732 
L 302.455155 396.589046 
L 302.897122 396.693943 
L 303.339694 396.680259 
L 303.782901 396.488583 
L 304.226728 396.077573 
L 304.671159 395.860071 
L 305.116242 395.879537 
L 305.561929 396.054252 
L 306.008251 396.418186 
L 306.455209 396.567315 
L 306.902787 396.39578 
L 307.799834 395.665889 
L 308.699423 395.566389 
L 309.150163 395.810104 
L 309.601554 395.869708 
L 310.95954 395.015405 
L 311.413489 394.70645 
L 311.868072 394.218876 
L 312.323323 394.032211 
L 312.779209 394.087382 
L 313.23573 394.026236 
L 314.150757 394.252894 
L 314.609232 394.367909 
L 315.528165 394.304547 
L 315.988624 394.024742 
L 316.449733 393.357587 
L 316.911509 393.17468 
L 317.837029 393.919219 
L 318.30079 393.793555 
L 319.230294 392.442332 
L 321.565787 390.922994 
L 322.03491 391.202509 
L 322.504715 391.281194 
L 322.975187 391.071352 
L 323.44634 390.677737 
L 323.918175 390.725921 
L 324.390693 391.058825 
L 324.390693 391.058825 
" style="fill:none;stroke:#9467bd;stroke-linecap:square;stroke-width:1.5;"/>
   </g>
   <g id="line2d_24">
    <path clip-path="url(#p8477852c1e)" d="M 45 430.92 
L 49.867496 429.813695 
L 50.984194 429.429428 
L 52.107478 429.080961 
L 54.700086 428.477312 
L 55.681438 428.08654 
L 56.667811 427.527798 
L 57.328204 427.434273 
L 57.659253 427.551987 
L 57.99086 427.587884 
L 58.32304 427.971718 
L 58.48934 428.01012 
L 59.490175 427.34812 
L 59.657497 427.132063 
L 59.824944 427.126618 
L 60.496202 428.102296 
L 61.001161 428.604277 
L 61.845679 429.297115 
L 62.69387 429.822995 
L 63.204549 429.925482 
L 64.744597 429.969378 
L 65.260639 430.037414 
L 66.12371 429.865156 
L 66.816901 429.65994 
L 67.338383 429.679985 
L 67.86126 429.762379 
L 69.614124 429.631078 
L 70.319622 429.398205 
L 71.38255 429.147166 
L 74.244889 428.581872 
L 76.236576 428.202904 
L 76.783184 428.035706 
L 77.148411 428.157901 
L 77.514304 428.320907 
L 78.248042 428.41689 
L 78.615904 428.443969 
L 80.837131 427.621854 
L 81.58293 427.781005 
L 82.894617 427.998797 
L 83.270926 428.005109 
L 84.403976 427.35106 
L 84.78306 426.965539 
L 85.162825 427.158661 
L 86.1153 427.649945 
L 86.688877 427.733544 
L 87.072146 427.624407 
L 87.840822 427.271749 
L 88.999168 426.943037 
L 89.580744 427.321715 
L 91.335251 427.188631 
L 92.513111 426.658222 
L 92.907198 426.853993 
L 93.69759 427.328558 
L 94.093894 427.145796 
L 94.490958 426.760035 
L 95.686581 426.55718 
L 96.08662 426.471991 
L 96.888978 426.866859 
L 98.502792 426.378851 
L 99.31431 425.667125 
L 99.924948 426.299685 
L 100.333016 426.340352 
L 100.946584 426.155759 
L 101.767402 425.388959 
L 101.973086 425.149147 
L 102.178973 425.126983 
L 103.004503 425.883809 
L 104.248735 425.50383 
L 105.082216 424.784009 
L 105.709423 425.409052 
L 106.75882 425.462777 
L 107.601989 424.319901 
L 108.236497 425.088869 
L 108.660546 424.973709 
L 109.511077 424.63512 
L 109.937591 424.305783 
L 110.364942 424.749365 
L 110.578919 424.942775 
L 110.793113 424.928079 
L 111.222123 424.524683 
L 111.867217 424.675643 
L 112.298319 424.292436 
L 112.730272 424.435639 
L 113.163079 423.950715 
L 113.379784 424.051227 
L 113.813862 424.638927 
L 114.031218 424.622833 
L 115.12121 423.914625 
L 116.216564 424.394827 
L 117.096747 424.420364 
L 117.980417 424.809065 
L 118.423562 424.990381 
L 119.312503 424.889243 
L 119.981514 424.596332 
L 120.428642 424.552533 
L 121.101001 424.111794 
L 121.775375 423.022836 
L 122.677692 421.466541 
L 122.903837 421.095861 
L 123.130199 420.450485 
L 124.493192 414.374964 
L 124.949341 408.778779 
L 125.40642 402.523098 
L 125.864414 400.635731 
L 127.474694 385.671661 
L 127.705659 384.443547 
L 127.936873 384.299525 
L 128.168303 385.095139 
L 128.631878 390.245623 
L 129.096412 391.540568 
L 129.794951 397.326021 
L 130.261842 399.404775 
L 130.729679 399.774346 
L 130.963961 401.255378 
L 131.903447 409.968345 
L 132.138923 411.006614 
L 132.374632 411.410878 
L 132.846777 410.29166 
L 133.083229 410.716835 
L 133.556816 413.53054 
L 134.031395 415.07821 
L 134.269057 415.269452 
L 134.506951 414.735429 
L 135.222105 412.244654 
L 135.939461 411.612817 
L 136.179076 411.877058 
L 136.418938 412.443364 
L 136.899407 411.990049 
L 137.140014 412.472901 
L 137.621971 413.827305 
L 138.104919 413.966461 
L 138.346766 414.456155 
L 138.588876 415.25519 
L 138.831218 415.543523 
L 139.316678 414.473886 
L 139.803146 414.444494 
L 140.290621 413.364064 
L 140.534746 413.60537 
L 141.023755 415.075608 
L 141.513773 416.050611 
L 141.759168 416.025074 
L 142.25072 415.730814 
L 142.496875 415.992549 
L 143.236908 417.187175 
L 143.731559 417.80475 
L 144.227249 417.831251 
L 144.723962 418.060944 
L 144.972722 417.921018 
L 145.471016 417.201052 
L 145.72055 417.322283 
L 146.22041 418.333232 
L 147.726327 418.890046 
L 147.978249 418.598725 
L 148.230434 418.660305 
L 148.482883 419.204447 
L 148.735594 419.473169 
L 148.98857 419.229791 
L 149.241825 418.782547 
L 149.495342 418.581476 
L 149.74914 418.764478 
L 150.766978 420.128567 
L 151.277533 419.98363 
L 151.53322 420.219972 
L 152.045387 420.875419 
L 152.55867 421.11605 
L 154.622758 419.632706 
L 154.882011 419.325533 
L 155.141543 419.236007 
L 155.401354 419.460641 
L 155.921813 420.383557 
L 156.443403 421.46471 
L 156.70461 421.491934 
L 156.966094 421.282189 
L 157.227874 421.375955 
L 157.75227 422.054241 
L 158.277798 422.131673 
L 158.804457 422.435906 
L 159.332247 422.600792 
L 159.8612 422.95533 
L 160.126095 423.045627 
L 160.391284 422.957835 
L 160.656768 422.72554 
L 160.922531 422.693594 
L 161.454926 422.792082 
L 161.988467 422.78977 
L 162.523186 422.578338 
L 162.790979 422.73219 
L 163.596111 424.094159 
L 163.865082 424.300049 
L 164.134333 424.33903 
L 164.673733 424.160267 
L 165.756082 424.626736 
L 166.299032 424.52343 
L 166.843175 424.782997 
L 167.388511 424.788875 
L 167.935057 424.694628 
L 168.757131 424.877919 
L 169.581916 424.526562 
L 170.133313 423.904747 
L 171.239734 422.748187 
L 172.072782 423.010211 
L 173.187837 422.577326 
L 173.747231 422.862672 
L 175.432887 422.823257 
L 175.714941 422.950463 
L 176.846271 422.902327 
L 177.698104 423.023655 
L 177.982684 422.947524 
L 179.98375 423.177843 
L 180.558381 422.825522 
L 181.134315 423.081813 
L 182.000656 423.40373 
L 182.579844 423.494701 
L 183.160366 423.758894 
L 184.033605 423.843216 
L 184.617413 423.732634 
L 184.90982 423.868031 
L 185.495643 424.361242 
L 185.789042 424.513793 
L 186.082782 424.403885 
L 186.671271 423.890244 
L 186.966019 423.883354 
L 187.556538 424.622592 
L 187.852294 424.61975 
L 188.14839 424.392899 
L 188.444843 424.350208 
L 189.932145 424.704698 
L 190.529469 424.545546 
L 191.128172 424.492399 
L 191.728239 424.813546 
L 192.630959 425.027338 
L 193.234513 424.459345 
L 193.53681 424.388081 
L 194.142457 424.444986 
L 195.662744 424.529646 
L 196.273335 424.51678 
L 196.885337 424.395646 
L 197.19188 424.163062 
L 198.421619 423.883546 
L 200.587543 423.961556 
L 201.209651 423.599791 
L 201.833232 424.061249 
L 202.458269 424.506806 
L 203.084779 424.487774 
L 203.712761 424.46903 
L 204.027319 424.626254 
L 204.657533 425.065933 
L 205.922441 424.788731 
L 206.239602 424.810703 
L 206.875071 425.10318 
L 207.512044 424.823231 
L 207.831096 424.682148 
L 211.365871 425.515924 
L 212.01357 425.388477 
L 212.338 425.280882 
L 212.988023 425.549893 
L 213.639612 425.842081 
L 214.947502 426.166311 
L 215.932558 425.736125 
L 216.261701 425.759012 
L 216.92118 426.205099 
L 217.58227 426.120247 
L 217.913412 426.05862 
L 218.576905 426.147327 
L 220.242675 425.39503 
L 221.247013 425.545991 
L 222.59187 425.32738 
L 223.266755 425.064199 
L 225.641929 424.947304 
L 226.666123 424.863994 
L 227.694113 424.709757 
L 228.381538 424.884762 
L 229.761519 424.630976 
L 230.454074 424.475776 
L 231.14835 424.506035 
L 231.844347 424.764735 
L 232.542064 424.711155 
L 232.891589 424.687207 
L 233.591926 424.896037 
L 234.293998 424.714672 
L 235.350416 424.50936 
L 237.119943 424.144607 
L 237.475187 424.212065 
L 238.186993 424.517503 
L 238.900598 424.439686 
L 239.616 424.316335 
L 240.333201 424.283714 
L 241.052215 424.380372 
L 241.773043 424.160845 
L 242.495699 424.433567 
L 242.857717 424.432217 
L 243.946515 424.744787 
L 244.674689 424.519141 
L 246.136602 424.561399 
L 246.870357 424.134055 
L 247.605972 423.974229 
L 248.712951 424.315805 
L 249.824176 424.214329 
L 250.195526 424.137042 
L 250.939681 424.16841 
L 252.059494 423.734031 
L 253.183631 424.053443 
L 253.55932 423.992539 
L 254.68927 424.306457 
L 255.445019 424.578119 
L 255.823622 424.485991 
L 256.202721 424.270657 
L 256.962392 424.288003 
L 259.253276 424.555279 
L 259.636823 424.40297 
L 260.790504 423.603597 
L 261.176066 423.427051 
L 262.335777 423.334297 
L 264.27881 422.256951 
L 265.45075 422.56369 
L 265.842434 422.441014 
L 266.627339 421.438931 
L 267.020574 421.237715 
L 267.808594 421.435366 
L 268.598706 421.338709 
L 269.390912 421.664866 
L 270.185225 421.265613 
L 270.583156 421.289127 
L 271.380631 420.996988 
L 272.981967 420.348238 
L 274.18858 420.431789 
L 275.400029 419.615456 
L 276.61636 420.152033 
L 277.022895 419.876276 
L 277.429971 419.753407 
L 277.837605 419.881769 
L 278.654502 419.715149 
L 279.063764 419.922051 
L 279.473599 419.984305 
L 280.294898 419.239862 
L 280.706392 419.165755 
L 281.944176 419.385281 
L 282.357902 419.280288 
L 282.77217 419.357768 
L 284.018386 419.057244 
L 284.434917 418.817866 
L 284.852007 418.755661 
L 285.26967 418.939483 
L 285.687906 418.996099 
L 286.1067 418.866002 
L 286.946026 418.301671 
L 287.787629 418.518017 
L 288.631542 418.334244 
L 289.901751 419.015083 
L 291.603512 418.115295 
L 292.457903 418.131148 
L 293.743907 417.816362 
L 294.604204 417.761432 
L 295.89912 417.849657 
L 296.765384 417.95783 
L 297.199415 418.039309 
L 298.505135 417.519645 
L 299.378638 417.810483 
L 300.254589 417.584019 
L 300.693471 417.479893 
L 302.013808 416.559675 
L 302.455155 416.68876 
L 302.897122 416.626699 
L 303.339694 416.222676 
L 303.782901 415.970722 
L 304.226728 416.066994 
L 305.561929 416.842322 
L 306.902787 416.892337 
L 307.350985 416.62906 
L 308.249303 415.93521 
L 309.150163 415.269452 
L 309.601554 414.921323 
L 310.053581 414.745885 
L 311.413489 414.862635 
L 311.868072 415.118781 
L 312.323323 415.539331 
L 312.779209 415.552003 
L 313.23573 415.307855 
L 314.609232 414.075838 
L 315.528165 414.230702 
L 315.988624 414.062925 
L 317.373936 412.856398 
L 317.837029 412.776701 
L 318.7652 413.188578 
L 319.230294 413.20366 
L 319.696053 413.05241 
L 320.629571 411.860338 
L 321.565787 411.909582 
L 322.975187 410.626346 
L 323.918175 411.238186 
L 324.390693 410.985172 
L 324.390693 410.985172 
" style="fill:none;stroke:#8c564b;stroke-linecap:square;stroke-width:1.5;"/>
   </g>
   <g id="patch_3">
    <path d="M 45 448.56 
L 45 60.48 
" style="fill:none;stroke:#000000;stroke-linecap:square;stroke-linejoin:miter;stroke-width:0.8;"/>
   </g>
   <g id="patch_4">
    <path d="M 324 448.56 
L 324 60.48 
" style="fill:none;stroke:#000000;stroke-linecap:square;stroke-linejoin:miter;stroke-width:0.8;"/>
   </g>
   <g id="patch_5">
    <path d="M 45 448.56 
L 324 448.56 
" style="fill:none;stroke:#000000;stroke-linecap:square;stroke-linejoin:miter;stroke-width:0.8;"/>
   </g>
   <g id="patch_6">
    <path d="M 45 60.48 
L 324 60.48 
" style="fill:none;stroke:#000000;stroke-linecap:square;stroke-linejoin:miter;stroke-width:0.8;"/>
   </g>
   <g id="text_21">
    <!-- EELS spectra of bulk C$_2$Li: -M -->
    <g transform="translate(94.44 54.48)scale(0.12 -0.12)">
     <defs>
      <path d="M 53.515625 70.515625 
L 53.515625 60.890625 
Q 47.90625 63.578125 42.921875 64.890625 
Q 37.9375 66.21875 33.296875 66.21875 
Q 25.25 66.21875 20.875 63.09375 
Q 16.5 59.96875 16.5 54.203125 
Q 16.5 49.359375 19.40625 46.890625 
Q 22.3125 44.4375 30.421875 42.921875 
L 36.375 41.703125 
Q 47.40625 39.59375 52.65625 34.296875 
Q 57.90625 29 57.90625 20.125 
Q 57.90625 9.515625 50.796875 4.046875 
Q 43.703125 -1.421875 29.984375 -1.421875 
Q 24.8125 -1.421875 18.96875 -0.25 
Q 13.140625 0.921875 6.890625 3.21875 
L 6.890625 13.375 
Q 12.890625 10.015625 18.65625 8.296875 
Q 24.421875 6.59375 29.984375 6.59375 
Q 38.421875 6.59375 43.015625 9.90625 
Q 47.609375 13.234375 47.609375 19.390625 
Q 47.609375 24.75 44.3125 27.78125 
Q 41.015625 30.8125 33.5 32.328125 
L 27.484375 33.5 
Q 16.453125 35.6875 11.515625 40.375 
Q 6.59375 45.0625 6.59375 53.421875 
Q 6.59375 63.09375 13.40625 68.65625 
Q 20.21875 74.21875 32.171875 74.21875 
Q 37.3125 74.21875 42.625 73.28125 
Q 47.953125 72.359375 53.515625 70.515625 
z
" id="DejaVuSans-83"/>
      <path d="M 18.109375 8.203125 
L 18.109375 -20.796875 
L 9.078125 -20.796875 
L 9.078125 54.6875 
L 18.109375 54.6875 
L 18.109375 46.390625 
Q 20.953125 51.265625 25.265625 53.625 
Q 29.59375 56 35.59375 56 
Q 45.5625 56 51.78125 48.09375 
Q 58.015625 40.1875 58.015625 27.296875 
Q 58.015625 14.40625 51.78125 6.484375 
Q 45.5625 -1.421875 35.59375 -1.421875 
Q 29.59375 -1.421875 25.265625 0.953125 
Q 20.953125 3.328125 18.109375 8.203125 
z
M 48.6875 27.296875 
Q 48.6875 37.203125 44.609375 42.84375 
Q 40.53125 48.484375 33.40625 48.484375 
Q 26.265625 48.484375 22.1875 42.84375 
Q 18.109375 37.203125 18.109375 27.296875 
Q 18.109375 17.390625 22.1875 11.75 
Q 26.265625 6.109375 33.40625 6.109375 
Q 40.53125 6.109375 44.609375 11.75 
Q 48.6875 17.390625 48.6875 27.296875 
z
" id="DejaVuSans-112"/>
      <path d="M 34.28125 27.484375 
Q 23.390625 27.484375 19.1875 25 
Q 14.984375 22.515625 14.984375 16.5 
Q 14.984375 11.71875 18.140625 8.90625 
Q 21.296875 6.109375 26.703125 6.109375 
Q 34.1875 6.109375 38.703125 11.40625 
Q 43.21875 16.703125 43.21875 25.484375 
L 43.21875 27.484375 
z
M 52.203125 31.203125 
L 52.203125 0 
L 43.21875 0 
L 43.21875 8.296875 
Q 40.140625 3.328125 35.546875 0.953125 
Q 30.953125 -1.421875 24.3125 -1.421875 
Q 15.921875 -1.421875 10.953125 3.296875 
Q 6 8.015625 6 15.921875 
Q 6 25.140625 12.171875 29.828125 
Q 18.359375 34.515625 30.609375 34.515625 
L 43.21875 34.515625 
L 43.21875 35.40625 
Q 43.21875 41.609375 39.140625 45 
Q 35.0625 48.390625 27.6875 48.390625 
Q 23 48.390625 18.546875 47.265625 
Q 14.109375 46.140625 10.015625 43.890625 
L 10.015625 52.203125 
Q 14.9375 54.109375 19.578125 55.046875 
Q 24.21875 56 28.609375 56 
Q 40.484375 56 46.34375 49.84375 
Q 52.203125 43.703125 52.203125 31.203125 
z
" id="DejaVuSans-97"/>
      <path d="M 37.109375 75.984375 
L 37.109375 68.5 
L 28.515625 68.5 
Q 23.6875 68.5 21.796875 66.546875 
Q 19.921875 64.59375 19.921875 59.515625 
L 19.921875 54.6875 
L 34.71875 54.6875 
L 34.71875 47.703125 
L 19.921875 47.703125 
L 19.921875 0 
L 10.890625 0 
L 10.890625 47.703125 
L 2.296875 47.703125 
L 2.296875 54.6875 
L 10.890625 54.6875 
L 10.890625 58.5 
Q 10.890625 67.625 15.140625 71.796875 
Q 19.390625 75.984375 28.609375 75.984375 
z
" id="DejaVuSans-102"/>
      <path d="M 48.6875 27.296875 
Q 48.6875 37.203125 44.609375 42.84375 
Q 40.53125 48.484375 33.40625 48.484375 
Q 26.265625 48.484375 22.1875 42.84375 
Q 18.109375 37.203125 18.109375 27.296875 
Q 18.109375 17.390625 22.1875 11.75 
Q 26.265625 6.109375 33.40625 6.109375 
Q 40.53125 6.109375 44.609375 11.75 
Q 48.6875 17.390625 48.6875 27.296875 
z
M 18.109375 46.390625 
Q 20.953125 51.265625 25.265625 53.625 
Q 29.59375 56 35.59375 56 
Q 45.5625 56 51.78125 48.09375 
Q 58.015625 40.1875 58.015625 27.296875 
Q 58.015625 14.40625 51.78125 6.484375 
Q 45.5625 -1.421875 35.59375 -1.421875 
Q 29.59375 -1.421875 25.265625 0.953125 
Q 20.953125 3.328125 18.109375 8.203125 
L 18.109375 0 
L 9.078125 0 
L 9.078125 75.984375 
L 18.109375 75.984375 
z
" id="DejaVuSans-98"/>
      <path d="M 9.421875 75.984375 
L 18.40625 75.984375 
L 18.40625 0 
L 9.421875 0 
z
" id="DejaVuSans-108"/>
      <path d="M 9.078125 75.984375 
L 18.109375 75.984375 
L 18.109375 31.109375 
L 44.921875 54.6875 
L 56.390625 54.6875 
L 27.390625 29.109375 
L 57.625 0 
L 45.90625 0 
L 18.109375 26.703125 
L 18.109375 0 
L 9.078125 0 
z
" id="DejaVuSans-107"/>
      <path d="M 64.40625 67.28125 
L 64.40625 56.890625 
Q 59.421875 61.53125 53.78125 63.8125 
Q 48.140625 66.109375 41.796875 66.109375 
Q 29.296875 66.109375 22.65625 58.46875 
Q 16.015625 50.828125 16.015625 36.375 
Q 16.015625 21.96875 22.65625 14.328125 
Q 29.296875 6.6875 41.796875 6.6875 
Q 48.140625 6.6875 53.78125 8.984375 
Q 59.421875 11.28125 64.40625 15.921875 
L 64.40625 5.609375 
Q 59.234375 2.09375 53.4375 0.328125 
Q 47.65625 -1.421875 41.21875 -1.421875 
Q 24.65625 -1.421875 15.125 8.703125 
Q 5.609375 18.84375 5.609375 36.375 
Q 5.609375 53.953125 15.125 64.078125 
Q 24.65625 74.21875 41.21875 74.21875 
Q 47.75 74.21875 53.53125 72.484375 
Q 59.328125 70.75 64.40625 67.28125 
z
" id="DejaVuSans-67"/>
      <path d="M 11.71875 12.40625 
L 22.015625 12.40625 
L 22.015625 0 
L 11.71875 0 
z
M 11.71875 51.703125 
L 22.015625 51.703125 
L 22.015625 39.3125 
L 11.71875 39.3125 
z
" id="DejaVuSans-58"/>
      <path d="M 9.8125 0 
L 9.8125 72.90625 
L 55.171875 72.90625 
L 55.171875 64.59375 
L 19.671875 64.59375 
L 19.671875 0 
z
" id="DejaVuSans-915"/>
      <path d="M 4.890625 31.390625 
L 31.203125 31.390625 
L 31.203125 23.390625 
L 4.890625 23.390625 
z
" id="DejaVuSans-45"/>
      <path d="M 9.8125 72.90625 
L 24.515625 72.90625 
L 43.109375 23.296875 
L 61.8125 72.90625 
L 76.515625 72.90625 
L 76.515625 0 
L 66.890625 0 
L 66.890625 64.015625 
L 48.09375 14.015625 
L 38.1875 14.015625 
L 19.390625 64.015625 
L 19.390625 0 
L 9.8125 0 
z
" id="DejaVuSans-77"/>
     </defs>
     <use transform="translate(0 0.015625)" xlink:href="#DejaVuSans-69"/>
     <use transform="translate(63.183594 0.015625)" xlink:href="#DejaVuSans-69"/>
     <use transform="translate(126.367188 0.015625)" xlink:href="#DejaVuSans-76"/>
     <use transform="translate(182.080078 0.015625)" xlink:href="#DejaVuSans-83"/>
     <use transform="translate(245.556641 0.015625)" xlink:href="#DejaVuSans-32"/>
     <use transform="translate(277.34375 0.015625)" xlink:href="#DejaVuSans-115"/>
     <use transform="translate(329.443359 0.015625)" xlink:href="#DejaVuSans-112"/>
     <use transform="translate(392.919922 0.015625)" xlink:href="#DejaVuSans-101"/>
     <use transform="translate(454.443359 0.015625)" xlink:href="#DejaVuSans-99"/>
     <use transform="translate(509.423828 0.015625)" xlink:href="#DejaVuSans-116"/>
     <use transform="translate(548.632812 0.015625)" xlink:href="#DejaVuSans-114"/>
     <use transform="translate(589.746094 0.015625)" xlink:href="#DejaVuSans-97"/>
     <use transform="translate(651.025391 0.015625)" xlink:href="#DejaVuSans-32"/>
     <use transform="translate(682.8125 0.015625)" xlink:href="#DejaVuSans-111"/>
     <use transform="translate(743.994141 0.015625)" xlink:href="#DejaVuSans-102"/>
     <use transform="translate(779.199219 0.015625)" xlink:href="#DejaVuSans-32"/>
     <use transform="translate(810.986328 0.015625)" xlink:href="#DejaVuSans-98"/>
     <use transform="translate(874.462891 0.015625)" xlink:href="#DejaVuSans-117"/>
     <use transform="translate(937.841797 0.015625)" xlink:href="#DejaVuSans-108"/>
     <use transform="translate(965.625 0.015625)" xlink:href="#DejaVuSans-107"/>
     <use transform="translate(1023.535156 0.015625)" xlink:href="#DejaVuSans-32"/>
     <use transform="translate(1055.322266 0.015625)" xlink:href="#DejaVuSans-67"/>
     <use transform="translate(1126.103516 -16.390625)scale(0.7)" xlink:href="#DejaVuSans-50"/>
     <use transform="translate(1173.374023 0.015625)" xlink:href="#DejaVuSans-76"/>
     <use transform="translate(1229.086914 0.015625)" xlink:href="#DejaVuSans-105"/>
     <use transform="translate(1256.870117 0.015625)" xlink:href="#DejaVuSans-58"/>
     <use transform="translate(1290.561523 0.015625)" xlink:href="#DejaVuSans-32"/>
     <use transform="translate(1322.348633 0.015625)" xlink:href="#DejaVuSans-915"/>
     <use transform="translate(1378.061523 0.015625)" xlink:href="#DejaVuSans-45"/>
     <use transform="translate(1414.145508 0.015625)" xlink:href="#DejaVuSans-77"/>
    </g>
   </g>
   <g id="legend_1">
    <g id="patch_7">
     <path d="M 229.3 165.08 
L 317 165.08 
Q 319 165.08 319 163.08 
L 319 67.48 
Q 319 65.48 317 65.48 
L 229.3 65.48 
Q 227.3 65.48 227.3 67.48 
L 227.3 163.08 
Q 227.3 165.08 229.3 165.08 
z
" style="fill:#ffffff;opacity:0.8;stroke:#cccccc;stroke-linejoin:miter;"/>
    </g>
    <g id="line2d_25">
     <path d="M 231.3 74.98 
L 251.3 74.98 
" style="fill:none;stroke:#1f77b4;stroke-linecap:square;stroke-width:1.5;"/>
    </g>
    <g id="line2d_26"/>
    <g id="text_22">
     <!-- 0.05 Ang$^{-1}$ -->
     <g transform="translate(259.3 78.48)scale(0.1 -0.1)">
      <defs>
       <path d="M 10.6875 12.40625 
L 21 12.40625 
L 21 0 
L 10.6875 0 
z
" id="DejaVuSans-46"/>
       <path d="M 34.1875 63.1875 
L 20.796875 26.90625 
L 47.609375 26.90625 
z
M 28.609375 72.90625 
L 39.796875 72.90625 
L 67.578125 0 
L 57.328125 0 
L 50.6875 18.703125 
L 17.828125 18.703125 
L 11.1875 0 
L 0.78125 0 
z
" id="DejaVuSans-65"/>
       <path d="M 10.59375 35.5 
L 73.1875 35.5 
L 73.1875 27.203125 
L 10.59375 27.203125 
z
" id="DejaVuSans-8722"/>
      </defs>
      <use transform="translate(0 0.684375)" xlink:href="#DejaVuSans-48"/>
      <use transform="translate(63.623047 0.684375)" xlink:href="#DejaVuSans-46"/>
      <use transform="translate(95.410156 0.684375)" xlink:href="#DejaVuSans-48"/>
      <use transform="translate(159.033203 0.684375)" xlink:href="#DejaVuSans-53"/>
      <use transform="translate(222.65625 0.684375)" xlink:href="#DejaVuSans-32"/>
      <use transform="translate(254.443359 0.684375)" xlink:href="#DejaVuSans-65"/>
      <use transform="translate(322.851562 0.684375)" xlink:href="#DejaVuSans-110"/>
      <use transform="translate(386.230469 0.684375)" xlink:href="#DejaVuSans-103"/>
      <use transform="translate(450.664062 38.965625)scale(0.7)" xlink:href="#DejaVuSans-8722"/>
      <use transform="translate(509.316406 38.965625)scale(0.7)" xlink:href="#DejaVuSans-49"/>
     </g>
    </g>
    <g id="line2d_27">
     <path d="M 231.3 91.08 
L 251.3 91.08 
" style="fill:none;stroke:#ff7f0e;stroke-linecap:square;stroke-width:1.5;"/>
    </g>
    <g id="line2d_28"/>
    <g id="text_23">
     <!-- 0.14 Ang$^{-1}$ -->
     <g transform="translate(259.3 94.58)scale(0.1 -0.1)">
      <use transform="translate(0 0.684375)" xlink:href="#DejaVuSans-48"/>
      <use transform="translate(63.623047 0.684375)" xlink:href="#DejaVuSans-46"/>
      <use transform="translate(95.410156 0.684375)" xlink:href="#DejaVuSans-49"/>
      <use transform="translate(159.033203 0.684375)" xlink:href="#DejaVuSans-52"/>
      <use transform="translate(222.65625 0.684375)" xlink:href="#DejaVuSans-32"/>
      <use transform="translate(254.443359 0.684375)" xlink:href="#DejaVuSans-65"/>
      <use transform="translate(322.851562 0.684375)" xlink:href="#DejaVuSans-110"/>
      <use transform="translate(386.230469 0.684375)" xlink:href="#DejaVuSans-103"/>
      <use transform="translate(450.664062 38.965625)scale(0.7)" xlink:href="#DejaVuSans-8722"/>
      <use transform="translate(509.316406 38.965625)scale(0.7)" xlink:href="#DejaVuSans-49"/>
     </g>
    </g>
    <g id="line2d_29">
     <path d="M 231.3 107.18 
L 251.3 107.18 
" style="fill:none;stroke:#2ca02c;stroke-linecap:square;stroke-width:1.5;"/>
    </g>
    <g id="line2d_30"/>
    <g id="text_24">
     <!-- 0.24 Ang$^{-1}$ -->
     <g transform="translate(259.3 110.68)scale(0.1 -0.1)">
      <use transform="translate(0 0.684375)" xlink:href="#DejaVuSans-48"/>
      <use transform="translate(63.623047 0.684375)" xlink:href="#DejaVuSans-46"/>
      <use transform="translate(89.910156 0.684375)" xlink:href="#DejaVuSans-50"/>
      <use transform="translate(153.533203 0.684375)" xlink:href="#DejaVuSans-52"/>
      <use transform="translate(217.15625 0.684375)" xlink:href="#DejaVuSans-32"/>
      <use transform="translate(248.943359 0.684375)" xlink:href="#DejaVuSans-65"/>
      <use transform="translate(317.351562 0.684375)" xlink:href="#DejaVuSans-110"/>
      <use transform="translate(380.730469 0.684375)" xlink:href="#DejaVuSans-103"/>
      <use transform="translate(445.164062 38.965625)scale(0.7)" xlink:href="#DejaVuSans-8722"/>
      <use transform="translate(503.816406 38.965625)scale(0.7)" xlink:href="#DejaVuSans-49"/>
     </g>
    </g>
    <g id="line2d_31">
     <path d="M 231.3 123.28 
L 251.3 123.28 
" style="fill:none;stroke:#d62728;stroke-linecap:square;stroke-width:1.5;"/>
    </g>
    <g id="line2d_32"/>
    <g id="text_25">
     <!-- 0.33 Ang$^{-1}$ -->
     <g transform="translate(259.3 126.78)scale(0.1 -0.1)">
      <use transform="translate(0 0.684375)" xlink:href="#DejaVuSans-48"/>
      <use transform="translate(63.623047 0.684375)" xlink:href="#DejaVuSans-46"/>
      <use transform="translate(95.410156 0.684375)" xlink:href="#DejaVuSans-51"/>
      <use transform="translate(159.033203 0.684375)" xlink:href="#DejaVuSans-51"/>
      <use transform="translate(222.65625 0.684375)" xlink:href="#DejaVuSans-32"/>
      <use transform="translate(254.443359 0.684375)" xlink:href="#DejaVuSans-65"/>
      <use transform="translate(322.851562 0.684375)" xlink:href="#DejaVuSans-110"/>
      <use transform="translate(386.230469 0.684375)" xlink:href="#DejaVuSans-103"/>
      <use transform="translate(450.664062 38.965625)scale(0.7)" xlink:href="#DejaVuSans-8722"/>
      <use transform="translate(509.316406 38.965625)scale(0.7)" xlink:href="#DejaVuSans-49"/>
     </g>
    </g>
    <g id="line2d_33">
     <path d="M 231.3 139.38 
L 251.3 139.38 
" style="fill:none;stroke:#9467bd;stroke-linecap:square;stroke-width:1.5;"/>
    </g>
    <g id="line2d_34"/>
    <g id="text_26">
     <!-- 0.43 Ang$^{-1}$ -->
     <g transform="translate(259.3 142.88)scale(0.1 -0.1)">
      <use transform="translate(0 0.684375)" xlink:href="#DejaVuSans-48"/>
      <use transform="translate(63.623047 0.684375)" xlink:href="#DejaVuSans-46"/>
      <use transform="translate(95.410156 0.684375)" xlink:href="#DejaVuSans-52"/>
      <use transform="translate(159.033203 0.684375)" xlink:href="#DejaVuSans-51"/>
      <use transform="translate(222.65625 0.684375)" xlink:href="#DejaVuSans-32"/>
      <use transform="translate(254.443359 0.684375)" xlink:href="#DejaVuSans-65"/>
      <use transform="translate(322.851562 0.684375)" xlink:href="#DejaVuSans-110"/>
      <use transform="translate(386.230469 0.684375)" xlink:href="#DejaVuSans-103"/>
      <use transform="translate(450.664062 38.965625)scale(0.7)" xlink:href="#DejaVuSans-8722"/>
      <use transform="translate(509.316406 38.965625)scale(0.7)" xlink:href="#DejaVuSans-49"/>
     </g>
    </g>
    <g id="line2d_35">
     <path d="M 231.3 155.48 
L 251.3 155.48 
" style="fill:none;stroke:#8c564b;stroke-linecap:square;stroke-width:1.5;"/>
    </g>
    <g id="line2d_36"/>
    <g id="text_27">
     <!-- 0.52 Ang$^{-1}$ -->
     <g transform="translate(259.3 158.98)scale(0.1 -0.1)">
      <use transform="translate(0 0.684375)" xlink:href="#DejaVuSans-48"/>
      <use transform="translate(63.623047 0.684375)" xlink:href="#DejaVuSans-46"/>
      <use transform="translate(95.410156 0.684375)" xlink:href="#DejaVuSans-53"/>
      <use transform="translate(159.033203 0.684375)" xlink:href="#DejaVuSans-50"/>
      <use transform="translate(222.65625 0.684375)" xlink:href="#DejaVuSans-32"/>
      <use transform="translate(254.443359 0.684375)" xlink:href="#DejaVuSans-65"/>
      <use transform="translate(322.851562 0.684375)" xlink:href="#DejaVuSans-110"/>
      <use transform="translate(386.230469 0.684375)" xlink:href="#DejaVuSans-103"/>
      <use transform="translate(450.664062 38.965625)scale(0.7)" xlink:href="#DejaVuSans-8722"/>
      <use transform="translate(509.316406 38.965625)scale(0.7)" xlink:href="#DejaVuSans-49"/>
     </g>
    </g>
   </g>
  </g>
 </g>
 <defs>
  <clipPath id="p8477852c1e">
   <rect height="388.08" width="279" x="45" y="60.48"/>
  </clipPath>
 </defs>
</svg>
