<?xml version="1.0" encoding="utf-8" standalone="no"?>
<!DOCTYPE svg PUBLIC "-//W3C//DTD SVG 1.1//EN"
  "http://www.w3.org/Graphics/SVG/1.1/DTD/svg11.dtd">
<!-- Created with matplotlib (https://matplotlib.org/) -->
<svg height="504pt" version="1.1" viewBox="0 0 360 504" width="360pt" xmlns="http://www.w3.org/2000/svg" xmlns:xlink="http://www.w3.org/1999/xlink">
 <metadata>
  <rdf:RDF xmlns:cc="http://creativecommons.org/ns#" xmlns:dc="http://purl.org/dc/elements/1.1/" xmlns:rdf="http://www.w3.org/1999/02/22-rdf-syntax-ns#">
   <cc:Work>
    <dc:type rdf:resource="http://purl.org/dc/dcmitype/StillImage"/>
    <dc:date>2021-03-09T18:57:34.885126</dc:date>
    <dc:format>image/svg+xml</dc:format>
    <dc:creator>
     <cc:Agent>
      <dc:title>Matplotlib v3.3.4, https://matplotlib.org/</dc:title>
     </cc:Agent>
    </dc:creator>
   </cc:Work>
  </rdf:RDF>
 </metadata>
 <defs>
  <style type="text/css">*{stroke-linecap:butt;stroke-linejoin:round;}</style>
 </defs>
 <g id="figure_1">
  <g id="patch_1">
   <path d="M 0 504 
L 360 504 
L 360 0 
L 0 0 
z
" style="fill:#ffffff;"/>
  </g>
  <g id="axes_1">
   <g id="patch_2">
    <path d="M 45 448.56 
L 324 448.56 
L 324 60.48 
L 45 60.48 
z
" style="fill:#ffffff;"/>
   </g>
   <g id="matplotlib.axis_1">
    <g id="xtick_1">
     <g id="line2d_1">
      <defs>
       <path d="M 0 0 
L 0 3.5 
" id="m94e21a90ae" style="stroke:#000000;stroke-width:0.8;"/>
      </defs>
      <g>
       <use style="stroke:#000000;stroke-width:0.8;" x="45" xlink:href="#m94e21a90ae" y="448.56"/>
      </g>
     </g>
     <g id="text_1">
      <!-- 0 -->
      <g transform="translate(41.81875 463.158437)scale(0.1 -0.1)">
       <defs>
        <path d="M 31.78125 66.40625 
Q 24.171875 66.40625 20.328125 58.90625 
Q 16.5 51.421875 16.5 36.375 
Q 16.5 21.390625 20.328125 13.890625 
Q 24.171875 6.390625 31.78125 6.390625 
Q 39.453125 6.390625 43.28125 13.890625 
Q 47.125 21.390625 47.125 36.375 
Q 47.125 51.421875 43.28125 58.90625 
Q 39.453125 66.40625 31.78125 66.40625 
z
M 31.78125 74.21875 
Q 44.046875 74.21875 50.515625 64.515625 
Q 56.984375 54.828125 56.984375 36.375 
Q 56.984375 17.96875 50.515625 8.265625 
Q 44.046875 -1.421875 31.78125 -1.421875 
Q 19.53125 -1.421875 13.0625 8.265625 
Q 6.59375 17.96875 6.59375 36.375 
Q 6.59375 54.828125 13.0625 64.515625 
Q 19.53125 74.21875 31.78125 74.21875 
z
" id="DejaVuSans-48"/>
       </defs>
       <use xlink:href="#DejaVuSans-48"/>
      </g>
     </g>
    </g>
    <g id="xtick_2">
     <g id="line2d_2">
      <g>
       <use style="stroke:#000000;stroke-width:0.8;" x="82.2" xlink:href="#m94e21a90ae" y="448.56"/>
      </g>
     </g>
     <g id="text_2">
      <!-- 2 -->
      <g transform="translate(79.01875 463.158437)scale(0.1 -0.1)">
       <defs>
        <path d="M 19.1875 8.296875 
L 53.609375 8.296875 
L 53.609375 0 
L 7.328125 0 
L 7.328125 8.296875 
Q 12.9375 14.109375 22.625 23.890625 
Q 32.328125 33.6875 34.8125 36.53125 
Q 39.546875 41.84375 41.421875 45.53125 
Q 43.3125 49.21875 43.3125 52.78125 
Q 43.3125 58.59375 39.234375 62.25 
Q 35.15625 65.921875 28.609375 65.921875 
Q 23.96875 65.921875 18.8125 64.3125 
Q 13.671875 62.703125 7.8125 59.421875 
L 7.8125 69.390625 
Q 13.765625 71.78125 18.9375 73 
Q 24.125 74.21875 28.421875 74.21875 
Q 39.75 74.21875 46.484375 68.546875 
Q 53.21875 62.890625 53.21875 53.421875 
Q 53.21875 48.921875 51.53125 44.890625 
Q 49.859375 40.875 45.40625 35.40625 
Q 44.1875 33.984375 37.640625 27.21875 
Q 31.109375 20.453125 19.1875 8.296875 
z
" id="DejaVuSans-50"/>
       </defs>
       <use xlink:href="#DejaVuSans-50"/>
      </g>
     </g>
    </g>
    <g id="xtick_3">
     <g id="line2d_3">
      <g>
       <use style="stroke:#000000;stroke-width:0.8;" x="119.4" xlink:href="#m94e21a90ae" y="448.56"/>
      </g>
     </g>
     <g id="text_3">
      <!-- 4 -->
      <g transform="translate(116.21875 463.158437)scale(0.1 -0.1)">
       <defs>
        <path d="M 37.796875 64.3125 
L 12.890625 25.390625 
L 37.796875 25.390625 
z
M 35.203125 72.90625 
L 47.609375 72.90625 
L 47.609375 25.390625 
L 58.015625 25.390625 
L 58.015625 17.1875 
L 47.609375 17.1875 
L 47.609375 0 
L 37.796875 0 
L 37.796875 17.1875 
L 4.890625 17.1875 
L 4.890625 26.703125 
z
" id="DejaVuSans-52"/>
       </defs>
       <use xlink:href="#DejaVuSans-52"/>
      </g>
     </g>
    </g>
    <g id="xtick_4">
     <g id="line2d_4">
      <g>
       <use style="stroke:#000000;stroke-width:0.8;" x="156.6" xlink:href="#m94e21a90ae" y="448.56"/>
      </g>
     </g>
     <g id="text_4">
      <!-- 6 -->
      <g transform="translate(153.41875 463.158437)scale(0.1 -0.1)">
       <defs>
        <path d="M 33.015625 40.375 
Q 26.375 40.375 22.484375 35.828125 
Q 18.609375 31.296875 18.609375 23.390625 
Q 18.609375 15.53125 22.484375 10.953125 
Q 26.375 6.390625 33.015625 6.390625 
Q 39.65625 6.390625 43.53125 10.953125 
Q 47.40625 15.53125 47.40625 23.390625 
Q 47.40625 31.296875 43.53125 35.828125 
Q 39.65625 40.375 33.015625 40.375 
z
M 52.59375 71.296875 
L 52.59375 62.3125 
Q 48.875 64.0625 45.09375 64.984375 
Q 41.3125 65.921875 37.59375 65.921875 
Q 27.828125 65.921875 22.671875 59.328125 
Q 17.53125 52.734375 16.796875 39.40625 
Q 19.671875 43.65625 24.015625 45.921875 
Q 28.375 48.1875 33.59375 48.1875 
Q 44.578125 48.1875 50.953125 41.515625 
Q 57.328125 34.859375 57.328125 23.390625 
Q 57.328125 12.15625 50.6875 5.359375 
Q 44.046875 -1.421875 33.015625 -1.421875 
Q 20.359375 -1.421875 13.671875 8.265625 
Q 6.984375 17.96875 6.984375 36.375 
Q 6.984375 53.65625 15.1875 63.9375 
Q 23.390625 74.21875 37.203125 74.21875 
Q 40.921875 74.21875 44.703125 73.484375 
Q 48.484375 72.75 52.59375 71.296875 
z
" id="DejaVuSans-54"/>
       </defs>
       <use xlink:href="#DejaVuSans-54"/>
      </g>
     </g>
    </g>
    <g id="xtick_5">
     <g id="line2d_5">
      <g>
       <use style="stroke:#000000;stroke-width:0.8;" x="193.8" xlink:href="#m94e21a90ae" y="448.56"/>
      </g>
     </g>
     <g id="text_5">
      <!-- 8 -->
      <g transform="translate(190.61875 463.158437)scale(0.1 -0.1)">
       <defs>
        <path d="M 31.78125 34.625 
Q 24.75 34.625 20.71875 30.859375 
Q 16.703125 27.09375 16.703125 20.515625 
Q 16.703125 13.921875 20.71875 10.15625 
Q 24.75 6.390625 31.78125 6.390625 
Q 38.8125 6.390625 42.859375 10.171875 
Q 46.921875 13.96875 46.921875 20.515625 
Q 46.921875 27.09375 42.890625 30.859375 
Q 38.875 34.625 31.78125 34.625 
z
M 21.921875 38.8125 
Q 15.578125 40.375 12.03125 44.71875 
Q 8.5 49.078125 8.5 55.328125 
Q 8.5 64.0625 14.71875 69.140625 
Q 20.953125 74.21875 31.78125 74.21875 
Q 42.671875 74.21875 48.875 69.140625 
Q 55.078125 64.0625 55.078125 55.328125 
Q 55.078125 49.078125 51.53125 44.71875 
Q 48 40.375 41.703125 38.8125 
Q 48.828125 37.15625 52.796875 32.3125 
Q 56.78125 27.484375 56.78125 20.515625 
Q 56.78125 9.90625 50.3125 4.234375 
Q 43.84375 -1.421875 31.78125 -1.421875 
Q 19.734375 -1.421875 13.25 4.234375 
Q 6.78125 9.90625 6.78125 20.515625 
Q 6.78125 27.484375 10.78125 32.3125 
Q 14.796875 37.15625 21.921875 38.8125 
z
M 18.3125 54.390625 
Q 18.3125 48.734375 21.84375 45.5625 
Q 25.390625 42.390625 31.78125 42.390625 
Q 38.140625 42.390625 41.71875 45.5625 
Q 45.3125 48.734375 45.3125 54.390625 
Q 45.3125 60.0625 41.71875 63.234375 
Q 38.140625 66.40625 31.78125 66.40625 
Q 25.390625 66.40625 21.84375 63.234375 
Q 18.3125 60.0625 18.3125 54.390625 
z
" id="DejaVuSans-56"/>
       </defs>
       <use xlink:href="#DejaVuSans-56"/>
      </g>
     </g>
    </g>
    <g id="xtick_6">
     <g id="line2d_6">
      <g>
       <use style="stroke:#000000;stroke-width:0.8;" x="231" xlink:href="#m94e21a90ae" y="448.56"/>
      </g>
     </g>
     <g id="text_6">
      <!-- 10 -->
      <g transform="translate(224.6375 463.158437)scale(0.1 -0.1)">
       <defs>
        <path d="M 12.40625 8.296875 
L 28.515625 8.296875 
L 28.515625 63.921875 
L 10.984375 60.40625 
L 10.984375 69.390625 
L 28.421875 72.90625 
L 38.28125 72.90625 
L 38.28125 8.296875 
L 54.390625 8.296875 
L 54.390625 0 
L 12.40625 0 
z
" id="DejaVuSans-49"/>
       </defs>
       <use xlink:href="#DejaVuSans-49"/>
       <use x="63.623047" xlink:href="#DejaVuSans-48"/>
      </g>
     </g>
    </g>
    <g id="xtick_7">
     <g id="line2d_7">
      <g>
       <use style="stroke:#000000;stroke-width:0.8;" x="268.2" xlink:href="#m94e21a90ae" y="448.56"/>
      </g>
     </g>
     <g id="text_7">
      <!-- 12 -->
      <g transform="translate(261.8375 463.158437)scale(0.1 -0.1)">
       <use xlink:href="#DejaVuSans-49"/>
       <use x="63.623047" xlink:href="#DejaVuSans-50"/>
      </g>
     </g>
    </g>
    <g id="xtick_8">
     <g id="line2d_8">
      <g>
       <use style="stroke:#000000;stroke-width:0.8;" x="305.4" xlink:href="#m94e21a90ae" y="448.56"/>
      </g>
     </g>
     <g id="text_8">
      <!-- 14 -->
      <g transform="translate(299.0375 463.158437)scale(0.1 -0.1)">
       <use xlink:href="#DejaVuSans-49"/>
       <use x="63.623047" xlink:href="#DejaVuSans-52"/>
      </g>
     </g>
    </g>
    <g id="text_9">
     <!-- Energy [eV] -->
     <g transform="translate(155.00625 476.836563)scale(0.1 -0.1)">
      <defs>
       <path d="M 9.8125 72.90625 
L 55.90625 72.90625 
L 55.90625 64.59375 
L 19.671875 64.59375 
L 19.671875 43.015625 
L 54.390625 43.015625 
L 54.390625 34.71875 
L 19.671875 34.71875 
L 19.671875 8.296875 
L 56.78125 8.296875 
L 56.78125 0 
L 9.8125 0 
z
" id="DejaVuSans-69"/>
       <path d="M 54.890625 33.015625 
L 54.890625 0 
L 45.90625 0 
L 45.90625 32.71875 
Q 45.90625 40.484375 42.875 44.328125 
Q 39.84375 48.1875 33.796875 48.1875 
Q 26.515625 48.1875 22.3125 43.546875 
Q 18.109375 38.921875 18.109375 30.90625 
L 18.109375 0 
L 9.078125 0 
L 9.078125 54.6875 
L 18.109375 54.6875 
L 18.109375 46.1875 
Q 21.34375 51.125 25.703125 53.5625 
Q 30.078125 56 35.796875 56 
Q 45.21875 56 50.046875 50.171875 
Q 54.890625 44.34375 54.890625 33.015625 
z
" id="DejaVuSans-110"/>
       <path d="M 56.203125 29.59375 
L 56.203125 25.203125 
L 14.890625 25.203125 
Q 15.484375 15.921875 20.484375 11.0625 
Q 25.484375 6.203125 34.421875 6.203125 
Q 39.59375 6.203125 44.453125 7.46875 
Q 49.3125 8.734375 54.109375 11.28125 
L 54.109375 2.78125 
Q 49.265625 0.734375 44.1875 -0.34375 
Q 39.109375 -1.421875 33.890625 -1.421875 
Q 20.796875 -1.421875 13.15625 6.1875 
Q 5.515625 13.8125 5.515625 26.8125 
Q 5.515625 40.234375 12.765625 48.109375 
Q 20.015625 56 32.328125 56 
Q 43.359375 56 49.78125 48.890625 
Q 56.203125 41.796875 56.203125 29.59375 
z
M 47.21875 32.234375 
Q 47.125 39.59375 43.09375 43.984375 
Q 39.0625 48.390625 32.421875 48.390625 
Q 24.90625 48.390625 20.390625 44.140625 
Q 15.875 39.890625 15.1875 32.171875 
z
" id="DejaVuSans-101"/>
       <path d="M 41.109375 46.296875 
Q 39.59375 47.171875 37.8125 47.578125 
Q 36.03125 48 33.890625 48 
Q 26.265625 48 22.1875 43.046875 
Q 18.109375 38.09375 18.109375 28.8125 
L 18.109375 0 
L 9.078125 0 
L 9.078125 54.6875 
L 18.109375 54.6875 
L 18.109375 46.1875 
Q 20.953125 51.171875 25.484375 53.578125 
Q 30.03125 56 36.53125 56 
Q 37.453125 56 38.578125 55.875 
Q 39.703125 55.765625 41.0625 55.515625 
z
" id="DejaVuSans-114"/>
       <path d="M 45.40625 27.984375 
Q 45.40625 37.75 41.375 43.109375 
Q 37.359375 48.484375 30.078125 48.484375 
Q 22.859375 48.484375 18.828125 43.109375 
Q 14.796875 37.75 14.796875 27.984375 
Q 14.796875 18.265625 18.828125 12.890625 
Q 22.859375 7.515625 30.078125 7.515625 
Q 37.359375 7.515625 41.375 12.890625 
Q 45.40625 18.265625 45.40625 27.984375 
z
M 54.390625 6.78125 
Q 54.390625 -7.171875 48.1875 -13.984375 
Q 42 -20.796875 29.203125 -20.796875 
Q 24.46875 -20.796875 20.265625 -20.09375 
Q 16.0625 -19.390625 12.109375 -17.921875 
L 12.109375 -9.1875 
Q 16.0625 -11.328125 19.921875 -12.34375 
Q 23.78125 -13.375 27.78125 -13.375 
Q 36.625 -13.375 41.015625 -8.765625 
Q 45.40625 -4.15625 45.40625 5.171875 
L 45.40625 9.625 
Q 42.625 4.78125 38.28125 2.390625 
Q 33.9375 0 27.875 0 
Q 17.828125 0 11.671875 7.65625 
Q 5.515625 15.328125 5.515625 27.984375 
Q 5.515625 40.671875 11.671875 48.328125 
Q 17.828125 56 27.875 56 
Q 33.9375 56 38.28125 53.609375 
Q 42.625 51.21875 45.40625 46.390625 
L 45.40625 54.6875 
L 54.390625 54.6875 
z
" id="DejaVuSans-103"/>
       <path d="M 32.171875 -5.078125 
Q 28.375 -14.84375 24.75 -17.8125 
Q 21.140625 -20.796875 15.09375 -20.796875 
L 7.90625 -20.796875 
L 7.90625 -13.28125 
L 13.1875 -13.28125 
Q 16.890625 -13.28125 18.9375 -11.515625 
Q 21 -9.765625 23.484375 -3.21875 
L 25.09375 0.875 
L 2.984375 54.6875 
L 12.5 54.6875 
L 29.59375 11.921875 
L 46.6875 54.6875 
L 56.203125 54.6875 
z
" id="DejaVuSans-121"/>
       <path id="DejaVuSans-32"/>
       <path d="M 8.59375 75.984375 
L 29.296875 75.984375 
L 29.296875 69 
L 17.578125 69 
L 17.578125 -6.203125 
L 29.296875 -6.203125 
L 29.296875 -13.1875 
L 8.59375 -13.1875 
z
" id="DejaVuSans-91"/>
       <path d="M 28.609375 0 
L 0.78125 72.90625 
L 11.078125 72.90625 
L 34.1875 11.53125 
L 57.328125 72.90625 
L 67.578125 72.90625 
L 39.796875 0 
z
" id="DejaVuSans-86"/>
       <path d="M 30.421875 75.984375 
L 30.421875 -13.1875 
L 9.71875 -13.1875 
L 9.71875 -6.203125 
L 21.390625 -6.203125 
L 21.390625 69 
L 9.71875 69 
L 9.71875 75.984375 
z
" id="DejaVuSans-93"/>
      </defs>
      <use xlink:href="#DejaVuSans-69"/>
      <use x="63.183594" xlink:href="#DejaVuSans-110"/>
      <use x="126.5625" xlink:href="#DejaVuSans-101"/>
      <use x="188.085938" xlink:href="#DejaVuSans-114"/>
      <use x="227.449219" xlink:href="#DejaVuSans-103"/>
      <use x="290.925781" xlink:href="#DejaVuSans-121"/>
      <use x="350.105469" xlink:href="#DejaVuSans-32"/>
      <use x="381.892578" xlink:href="#DejaVuSans-91"/>
      <use x="420.90625" xlink:href="#DejaVuSans-101"/>
      <use x="482.429688" xlink:href="#DejaVuSans-86"/>
      <use x="550.837891" xlink:href="#DejaVuSans-93"/>
     </g>
    </g>
   </g>
   <g id="matplotlib.axis_2">
    <g id="ytick_1">
     <g id="line2d_9">
      <defs>
       <path d="M 0 0 
L -3.5 0 
" id="md665fcafea" style="stroke:#000000;stroke-width:0.8;"/>
      </defs>
      <g>
       <use style="stroke:#000000;stroke-width:0.8;" x="45" xlink:href="#md665fcafea" y="376.183468"/>
      </g>
     </g>
     <g id="text_10">
      <!-- 0 -->
      <g transform="translate(31.6375 379.982687)scale(0.1 -0.1)">
       <use xlink:href="#DejaVuSans-48"/>
      </g>
     </g>
    </g>
    <g id="ytick_2">
     <g id="line2d_10">
      <g>
       <use style="stroke:#000000;stroke-width:0.8;" x="45" xlink:href="#md665fcafea" y="297.257601"/>
      </g>
     </g>
     <g id="text_11">
      <!-- 1 -->
      <g transform="translate(31.6375 301.05682)scale(0.1 -0.1)">
       <use xlink:href="#DejaVuSans-49"/>
      </g>
     </g>
    </g>
    <g id="ytick_3">
     <g id="line2d_11">
      <g>
       <use style="stroke:#000000;stroke-width:0.8;" x="45" xlink:href="#md665fcafea" y="218.331734"/>
      </g>
     </g>
     <g id="text_12">
      <!-- 2 -->
      <g transform="translate(31.6375 222.130953)scale(0.1 -0.1)">
       <use xlink:href="#DejaVuSans-50"/>
      </g>
     </g>
    </g>
    <g id="ytick_4">
     <g id="line2d_12">
      <g>
       <use style="stroke:#000000;stroke-width:0.8;" x="45" xlink:href="#md665fcafea" y="139.405867"/>
      </g>
     </g>
     <g id="text_13">
      <!-- 3 -->
      <g transform="translate(31.6375 143.205086)scale(0.1 -0.1)">
       <defs>
        <path d="M 40.578125 39.3125 
Q 47.65625 37.796875 51.625 33 
Q 55.609375 28.21875 55.609375 21.1875 
Q 55.609375 10.40625 48.1875 4.484375 
Q 40.765625 -1.421875 27.09375 -1.421875 
Q 22.515625 -1.421875 17.65625 -0.515625 
Q 12.796875 0.390625 7.625 2.203125 
L 7.625 11.71875 
Q 11.71875 9.328125 16.59375 8.109375 
Q 21.484375 6.890625 26.8125 6.890625 
Q 36.078125 6.890625 40.9375 10.546875 
Q 45.796875 14.203125 45.796875 21.1875 
Q 45.796875 27.640625 41.28125 31.265625 
Q 36.765625 34.90625 28.71875 34.90625 
L 20.21875 34.90625 
L 20.21875 43.015625 
L 29.109375 43.015625 
Q 36.375 43.015625 40.234375 45.921875 
Q 44.09375 48.828125 44.09375 54.296875 
Q 44.09375 59.90625 40.109375 62.90625 
Q 36.140625 65.921875 28.71875 65.921875 
Q 24.65625 65.921875 20.015625 65.03125 
Q 15.375 64.15625 9.8125 62.3125 
L 9.8125 71.09375 
Q 15.4375 72.65625 20.34375 73.4375 
Q 25.25 74.21875 29.59375 74.21875 
Q 40.828125 74.21875 47.359375 69.109375 
Q 53.90625 64.015625 53.90625 55.328125 
Q 53.90625 49.265625 50.4375 45.09375 
Q 46.96875 40.921875 40.578125 39.3125 
z
" id="DejaVuSans-51"/>
       </defs>
       <use xlink:href="#DejaVuSans-51"/>
      </g>
     </g>
    </g>
    <g id="ytick_5">
     <g id="line2d_13">
      <g>
       <use style="stroke:#000000;stroke-width:0.8;" x="45" xlink:href="#md665fcafea" y="60.48"/>
      </g>
     </g>
     <g id="text_14">
      <!-- 4 -->
      <g transform="translate(31.6375 64.279219)scale(0.1 -0.1)">
       <use xlink:href="#DejaVuSans-52"/>
      </g>
     </g>
    </g>
    <g id="text_15">
     <!-- Loss Function -->
     <g transform="translate(25.557812 288.341094)rotate(-90)scale(0.1 -0.1)">
      <defs>
       <path d="M 9.8125 72.90625 
L 19.671875 72.90625 
L 19.671875 8.296875 
L 55.171875 8.296875 
L 55.171875 0 
L 9.8125 0 
z
" id="DejaVuSans-76"/>
       <path d="M 30.609375 48.390625 
Q 23.390625 48.390625 19.1875 42.75 
Q 14.984375 37.109375 14.984375 27.296875 
Q 14.984375 17.484375 19.15625 11.84375 
Q 23.34375 6.203125 30.609375 6.203125 
Q 37.796875 6.203125 41.984375 11.859375 
Q 46.1875 17.53125 46.1875 27.296875 
Q 46.1875 37.015625 41.984375 42.703125 
Q 37.796875 48.390625 30.609375 48.390625 
z
M 30.609375 56 
Q 42.328125 56 49.015625 48.375 
Q 55.71875 40.765625 55.71875 27.296875 
Q 55.71875 13.875 49.015625 6.21875 
Q 42.328125 -1.421875 30.609375 -1.421875 
Q 18.84375 -1.421875 12.171875 6.21875 
Q 5.515625 13.875 5.515625 27.296875 
Q 5.515625 40.765625 12.171875 48.375 
Q 18.84375 56 30.609375 56 
z
" id="DejaVuSans-111"/>
       <path d="M 44.28125 53.078125 
L 44.28125 44.578125 
Q 40.484375 46.53125 36.375 47.5 
Q 32.28125 48.484375 27.875 48.484375 
Q 21.1875 48.484375 17.84375 46.4375 
Q 14.5 44.390625 14.5 40.28125 
Q 14.5 37.15625 16.890625 35.375 
Q 19.28125 33.59375 26.515625 31.984375 
L 29.59375 31.296875 
Q 39.15625 29.25 43.1875 25.515625 
Q 47.21875 21.78125 47.21875 15.09375 
Q 47.21875 7.46875 41.1875 3.015625 
Q 35.15625 -1.421875 24.609375 -1.421875 
Q 20.21875 -1.421875 15.453125 -0.5625 
Q 10.6875 0.296875 5.421875 2 
L 5.421875 11.28125 
Q 10.40625 8.6875 15.234375 7.390625 
Q 20.0625 6.109375 24.8125 6.109375 
Q 31.15625 6.109375 34.5625 8.28125 
Q 37.984375 10.453125 37.984375 14.40625 
Q 37.984375 18.0625 35.515625 20.015625 
Q 33.0625 21.96875 24.703125 23.78125 
L 21.578125 24.515625 
Q 13.234375 26.265625 9.515625 29.90625 
Q 5.8125 33.546875 5.8125 39.890625 
Q 5.8125 47.609375 11.28125 51.796875 
Q 16.75 56 26.8125 56 
Q 31.78125 56 36.171875 55.265625 
Q 40.578125 54.546875 44.28125 53.078125 
z
" id="DejaVuSans-115"/>
       <path d="M 9.8125 72.90625 
L 51.703125 72.90625 
L 51.703125 64.59375 
L 19.671875 64.59375 
L 19.671875 43.109375 
L 48.578125 43.109375 
L 48.578125 34.8125 
L 19.671875 34.8125 
L 19.671875 0 
L 9.8125 0 
z
" id="DejaVuSans-70"/>
       <path d="M 8.5 21.578125 
L 8.5 54.6875 
L 17.484375 54.6875 
L 17.484375 21.921875 
Q 17.484375 14.15625 20.5 10.265625 
Q 23.53125 6.390625 29.59375 6.390625 
Q 36.859375 6.390625 41.078125 11.03125 
Q 45.3125 15.671875 45.3125 23.6875 
L 45.3125 54.6875 
L 54.296875 54.6875 
L 54.296875 0 
L 45.3125 0 
L 45.3125 8.40625 
Q 42.046875 3.421875 37.71875 1 
Q 33.40625 -1.421875 27.6875 -1.421875 
Q 18.265625 -1.421875 13.375 4.4375 
Q 8.5 10.296875 8.5 21.578125 
z
M 31.109375 56 
z
" id="DejaVuSans-117"/>
       <path d="M 48.78125 52.59375 
L 48.78125 44.1875 
Q 44.96875 46.296875 41.140625 47.34375 
Q 37.3125 48.390625 33.40625 48.390625 
Q 24.65625 48.390625 19.8125 42.84375 
Q 14.984375 37.3125 14.984375 27.296875 
Q 14.984375 17.28125 19.8125 11.734375 
Q 24.65625 6.203125 33.40625 6.203125 
Q 37.3125 6.203125 41.140625 7.25 
Q 44.96875 8.296875 48.78125 10.40625 
L 48.78125 2.09375 
Q 45.015625 0.34375 40.984375 -0.53125 
Q 36.96875 -1.421875 32.421875 -1.421875 
Q 20.0625 -1.421875 12.78125 6.34375 
Q 5.515625 14.109375 5.515625 27.296875 
Q 5.515625 40.671875 12.859375 48.328125 
Q 20.21875 56 33.015625 56 
Q 37.15625 56 41.109375 55.140625 
Q 45.0625 54.296875 48.78125 52.59375 
z
" id="DejaVuSans-99"/>
       <path d="M 18.3125 70.21875 
L 18.3125 54.6875 
L 36.8125 54.6875 
L 36.8125 47.703125 
L 18.3125 47.703125 
L 18.3125 18.015625 
Q 18.3125 11.328125 20.140625 9.421875 
Q 21.96875 7.515625 27.59375 7.515625 
L 36.8125 7.515625 
L 36.8125 0 
L 27.59375 0 
Q 17.1875 0 13.234375 3.875 
Q 9.28125 7.765625 9.28125 18.015625 
L 9.28125 47.703125 
L 2.6875 47.703125 
L 2.6875 54.6875 
L 9.28125 54.6875 
L 9.28125 70.21875 
z
" id="DejaVuSans-116"/>
       <path d="M 9.421875 54.6875 
L 18.40625 54.6875 
L 18.40625 0 
L 9.421875 0 
z
M 9.421875 75.984375 
L 18.40625 75.984375 
L 18.40625 64.59375 
L 9.421875 64.59375 
z
" id="DejaVuSans-105"/>
      </defs>
      <use xlink:href="#DejaVuSans-76"/>
      <use x="53.962891" xlink:href="#DejaVuSans-111"/>
      <use x="115.144531" xlink:href="#DejaVuSans-115"/>
      <use x="167.244141" xlink:href="#DejaVuSans-115"/>
      <use x="219.34375" xlink:href="#DejaVuSans-32"/>
      <use x="251.130859" xlink:href="#DejaVuSans-70"/>
      <use x="303.150391" xlink:href="#DejaVuSans-117"/>
      <use x="366.529297" xlink:href="#DejaVuSans-110"/>
      <use x="429.908203" xlink:href="#DejaVuSans-99"/>
      <use x="484.888672" xlink:href="#DejaVuSans-116"/>
      <use x="524.097656" xlink:href="#DejaVuSans-105"/>
      <use x="551.880859" xlink:href="#DejaVuSans-111"/>
      <use x="613.0625" xlink:href="#DejaVuSans-110"/>
     </g>
    </g>
   </g>
   <g id="line2d_14">
    <path clip-path="url(#p968bed7fbd)" d="M 45 249.902081 
L 51.223058 249.830259 
L 59.595476 249.633575 
L 61.786946 249.504847 
L 62.789933 249.448178 
L 64.201394 249.266649 
L 66.845458 248.898775 
L 67.66503 248.82419 
L 69.519543 248.123487 
L 71.180281 247.849377 
L 72.224169 246.796664 
L 74.325783 245.458792 
L 75.171618 243.900006 
L 75.807961 243.454311 
L 76.233139 242.084079 
L 77.085744 239.328146 
L 77.513191 238.16249 
L 77.941381 237.57394 
L 78.155765 237.340477 
L 78.585109 236.085319 
L 79.015234 233.28787 
L 79.446103 228.11428 
L 79.877753 222.338169 
L 80.74336 214.22167 
L 81.177316 208.683284 
L 81.612073 199.818488 
L 82.047592 178.240788 
L 82.483892 159.070642 
L 83.139821 130.719128 
L 83.578093 105.842405 
L 84.017164 97.41407 
L 84.456998 90.566541 
L 84.677222 93.00243 
L 85.781337 122.177692 
L 86.668204 174.599148 
L 87.335479 190.782502 
L 87.781321 198.99687 
L 88.67546 212.077491 
L 89.123757 221.343387 
L 89.348203 223.819371 
L 89.572873 224.737437 
L 89.797728 225.059691 
L 90.022788 225.839163 
L 90.47354 229.136054 
L 90.925111 232.581957 
L 91.604011 235.484535 
L 92.057647 236.685234 
L 92.512119 237.658153 
L 92.967428 239.050169 
L 95.486575 244.19432 
L 96.408986 244.752563 
L 97.103027 245.75358 
L 98.264057 246.722158 
L 98.96325 246.815369 
L 99.664396 246.689009 
L 101.072564 247.671399 
L 102.725435 248.207306 
L 103.437108 248.535164 
L 103.912673 248.735162 
L 104.627713 248.639346 
L 105.344743 248.610459 
L 107.025718 248.840607 
L 107.991281 249.113375 
L 109.933363 249.205797 
L 111.399619 249.279435 
L 112.874283 249.119058 
L 113.614768 249.171622 
L 115.849037 248.851736 
L 116.848247 249.073833 
L 119.110584 249.023557 
L 119.616002 248.85655 
L 120.122387 248.641477 
L 121.138096 248.621272 
L 123.951736 249.108955 
L 124.724343 249.010219 
L 125.4992 248.782991 
L 126.53589 248.741555 
L 127.576634 248.79412 
L 128.621489 248.951656 
L 129.670436 248.790647 
L 130.459876 248.688517 
L 133.374552 248.764365 
L 134.977816 248.702724 
L 136.590678 248.798303 
L 137.400745 248.701461 
L 138.21323 248.86902 
L 141.762352 248.979596 
L 145.358253 249.192774 
L 147.31421 249.125766 
L 149.566708 249.154969 
L 150.416132 249.149523 
L 151.837675 249.206428 
L 152.694112 249.205481 
L 154.414891 248.839344 
L 155.279288 248.5751 
L 155.857042 248.028065 
L 156.725903 246.771408 
L 157.016119 246.595403 
L 158.180014 246.426028 
L 158.763775 245.947343 
L 159.934943 244.705207 
L 160.522349 244.485399 
L 161.111002 244.543646 
L 161.700864 244.567955 
L 161.996251 244.553906 
L 162.587972 244.769453 
L 162.884289 244.665271 
L 163.477871 244.212552 
L 164.072699 244.163066 
L 164.370578 243.923683 
L 165.266075 242.608778 
L 165.565219 242.470974 
L 166.164418 242.37721 
L 166.764881 241.613444 
L 167.065588 241.618653 
L 167.667967 242.457872 
L 167.969622 242.382498 
L 168.271593 242.133803 
L 168.573899 242.124095 
L 169.179459 242.563949 
L 169.786284 242.239721 
L 170.394411 241.905075 
L 171.309029 241.833884 
L 171.614534 241.65709 
L 172.226548 241.038627 
L 173.147006 240.519532 
L 174.070403 239.681892 
L 174.378866 239.618356 
L 174.996758 240.27131 
L 175.306206 240.324743 
L 176.236541 239.796413 
L 177.169852 240.797746 
L 177.481625 240.835235 
L 178.106176 240.528056 
L 178.732084 239.849214 
L 179.045531 239.874786 
L 179.359313 240.068628 
L 179.987919 239.793493 
L 180.302724 239.894439 
L 180.617864 239.846768 
L 181.249185 239.049695 
L 181.881845 238.755697 
L 182.198696 238.533836 
L 182.515901 238.450175 
L 183.151314 239.074241 
L 183.469541 239.093973 
L 184.107038 238.516867 
L 184.426288 238.400688 
L 184.745911 238.450569 
L 185.065868 238.654277 
L 185.38616 238.992474 
L 185.706824 239.10297 
L 186.027823 238.944803 
L 186.349175 238.924124 
L 186.67088 239.292787 
L 186.992939 239.469581 
L 188.284672 238.51 
L 188.60848 238.464065 
L 189.582059 239.011101 
L 189.907299 239.421199 
L 190.232892 239.638482 
L 190.558838 239.390497 
L 191.21181 238.578666 
L 191.538835 238.426418 
L 192.193964 238.752145 
L 192.850526 238.574404 
L 193.508557 237.723031 
L 193.838111 237.847497 
L 194.16802 238.283878 
L 194.4983 238.448044 
L 195.159976 238.484349 
L 196.155206 237.945207 
L 197.153747 238.524838 
L 197.487338 238.68711 
L 197.821301 238.662722 
L 198.155636 238.400609 
L 198.490325 238.429812 
L 199.160855 239.186237 
L 199.496678 239.18308 
L 199.832873 238.852539 
L 200.16944 238.698396 
L 201.181391 238.843304 
L 201.519465 238.734387 
L 202.196747 238.906997 
L 203.215525 238.430917 
L 203.555867 238.366276 
L 204.579221 237.573545 
L 205.263366 237.64 
L 205.606015 237.425717 
L 205.949055 237.394857 
L 206.636288 237.7209 
L 207.325083 237.5842 
L 208.015422 237.682384 
L 208.707323 237.493988 
L 209.05386 237.527294 
L 209.400787 237.288386 
L 209.748105 236.893756 
L 210.792439 237.266918 
L 211.840326 236.620673 
L 212.190415 236.961633 
L 212.540895 237.041663 
L 212.891784 236.831484 
L 213.594771 236.001578 
L 213.94685 236.044435 
L 214.652237 237.052713 
L 215.005525 237.106935 
L 215.71333 236.225175 
L 216.067846 236.086818 
L 216.778068 236.144987 
L 217.489946 236.035043 
L 218.560804 235.02124 
L 219.276773 234.76923 
L 220.353806 235.366304 
L 220.713642 235.65904 
L 221.073887 235.587849 
L 222.157151 233.791181 
L 222.51907 233.369795 
L 222.881416 233.183925 
L 223.607356 233.982023 
L 223.970948 233.761662 
L 224.334969 233.110682 
L 224.699417 233.116759 
L 225.064275 233.473188 
L 225.429579 233.119206 
L 225.795292 232.123872 
L 226.161433 231.902248 
L 226.89498 233.007841 
L 227.262404 232.863723 
L 227.630257 232.52963 
L 228.367244 232.742098 
L 228.73638 232.316214 
L 229.105943 231.621508 
L 229.475935 231.446056 
L 230.588549 232.343996 
L 230.960289 232.007614 
L 231.332456 231.825295 
L 232.451581 232.474145 
L 232.825516 232.386695 
L 233.574668 230.986313 
L 233.949923 231.180076 
L 234.701735 231.288126 
L 235.455314 232.842097 
L 235.832782 232.448967 
L 236.58904 230.532174 
L 236.967847 230.482056 
L 237.726783 231.411092 
L 238.10693 231.42593 
L 238.487523 230.799811 
L 238.868581 230.526807 
L 239.250086 230.631857 
L 239.632037 230.151277 
L 240.014453 229.176859 
L 240.397315 228.855551 
L 240.780624 229.071729 
L 241.164398 228.936687 
L 241.933322 228.184918 
L 242.318472 228.104335 
L 243.863667 228.689413 
L 244.251124 228.814036 
L 244.639045 228.76455 
L 245.416283 226.687379 
L 245.8056 226.470491 
L 246.195382 226.425661 
L 246.585628 226.642233 
L 247.367535 227.931251 
L 247.759195 227.699682 
L 248.15132 226.817922 
L 248.937003 224.703577 
L 249.330542 224.638227 
L 249.724564 224.323234 
L 250.11907 223.674384 
L 250.514041 223.451734 
L 250.909496 223.614479 
L 251.305415 223.639025 
L 251.701837 223.418743 
L 252.098724 222.970681 
L 252.496094 222.811172 
L 253.292286 223.675805 
L 253.691089 222.40865 
L 254.090393 220.372363 
L 254.490182 219.953029 
L 254.890454 220.441659 
L 255.692467 220.147503 
L 256.09419 220.405748 
L 256.496415 219.986257 
L 258.110244 215.411004 
L 258.514924 215.180461 
L 258.920107 215.631759 
L 259.325791 215.718262 
L 260.545802 213.753718 
L 260.953477 212.978114 
L 261.361636 212.879535 
L 261.770315 212.359019 
L 262.179496 211.648371 
L 262.589161 211.48018 
L 262.999347 211.528482 
L 263.410035 211.073317 
L 263.821225 210.256434 
L 265.057846 206.928998 
L 265.471082 206.833577 
L 265.884821 207.052754 
L 266.299061 206.594984 
L 267.129105 204.147967 
L 267.961195 203.13006 
L 268.378021 202.755556 
L 269.213216 203.077416 
L 269.631586 202.401337 
L 270.889839 199.544537 
L 271.731284 199.499864 
L 272.152798 199.200657 
L 273.420499 198.684955 
L 273.844133 199.090081 
L 275.118177 202.739771 
L 275.970224 204.519786 
L 276.824392 206.573043 
L 277.252285 207.234442 
L 277.680718 208.243588 
L 278.109689 208.737032 
L 278.539201 208.372789 
L 279.399841 208.069477 
L 279.830971 206.763096 
L 281.127651 201.115398 
L 281.560975 199.184161 
L 281.994839 199.785655 
L 282.42926 200.823609 
L 282.864221 200.641448 
L 283.29974 200.278389 
L 283.735817 200.767335 
L 284.172452 200.900799 
L 284.609627 200.91169 
L 285.047359 200.522349 
L 285.48565 198.845648 
L 285.924517 198.271304 
L 286.363923 198.381801 
L 286.803887 197.705958 
L 287.244428 195.87914 
L 287.685509 194.833925 
L 288.127166 194.724534 
L 289.012191 194.062267 
L 289.455541 193.242701 
L 290.343951 190.766954 
L 290.789012 190.346437 
L 291.234631 189.650706 
L 291.680845 189.535553 
L 292.127617 190.047229 
L 293.02289 187.659485 
L 293.920471 189.597194 
L 294.370126 191.232932 
L 295.722587 198.688822 
L 296.627124 206.340369 
L 297.534023 216.875157 
L 297.988346 223.088517 
L 298.443265 227.660377 
L 298.898761 229.409611 
L 299.811556 229.920577 
L 300.268837 230.140938 
L 301.185184 230.002897 
L 301.644251 230.510311 
L 302.103931 230.602339 
L 302.564188 229.536761 
L 303.025059 228.049403 
L 303.486525 227.328178 
L 303.948605 227.064802 
L 304.87455 225.597728 
L 305.338434 225.556924 
L 305.802932 226.176886 
L 306.268043 226.214297 
L 306.73375 225.309175 
L 308.602734 223.434528 
L 309.07151 223.910688 
L 309.540899 224.001058 
L 310.010921 224.512419 
L 310.481557 225.231749 
L 310.952807 224.833095 
L 311.424689 224.199241 
L 311.897185 223.854019 
L 312.370313 223.052527 
L 312.844073 222.503913 
L 313.318448 221.235259 
L 314.269094 216.965527 
L 317.136209 198.011086 
L 318.096992 194.82256 
L 319.060361 193.049727 
L 320.510231 187.131313 
L 321.480035 184.386271 
L 321.965923 180.678571 
L 322.939633 168.389734 
L 324.405127 135.533764 
L 324.405127 135.533764 
" style="fill:none;stroke:#1f77b4;stroke-linecap:square;stroke-width:1.5;"/>
   </g>
   <g id="line2d_15">
    <path clip-path="url(#p968bed7fbd)" d="M 45 281.472428 
L 49.888657 281.241885 
L 50.840995 281.133599 
L 51.797351 281.256329 
L 52.373114 281.121681 
L 52.757744 281.001951 
L 53.915575 281.302737 
L 55.858364 281.326099 
L 60.589032 281.168169 
L 66.641007 280.54868 
L 67.254881 280.362099 
L 68.281583 280.408428 
L 68.693517 280.24221 
L 69.519543 279.685152 
L 70.348452 279.744109 
L 71.180281 279.243561 
L 71.80606 279.060848 
L 72.015031 279.047431 
L 72.224169 278.897629 
L 72.852719 278.100952 
L 73.27267 277.966462 
L 73.693346 278.062909 
L 74.114785 277.709164 
L 74.536949 277.179492 
L 74.959876 276.120544 
L 75.383546 274.812269 
L 75.595661 274.668466 
L 76.020466 275.031683 
L 76.233139 274.971778 
L 76.446016 274.714322 
L 76.65906 274.258525 
L 76.872309 273.521357 
L 77.513191 269.928967 
L 77.727184 269.526603 
L 77.941381 269.403637 
L 78.155765 269.101982 
L 78.585109 267.291423 
L 79.015234 265.045508 
L 80.093866 255.79737 
L 80.74336 246.282304 
L 81.177316 240.86649 
L 81.612073 235.973797 
L 81.82973 233.388501 
L 82.047592 226.771988 
L 83.139821 169.504641 
L 83.358873 167.160227 
L 83.578093 163.260342 
L 83.797535 154.67676 
L 84.456998 112.34495 
L 84.677222 107.148628 
L 84.897651 113.657881 
L 85.339085 140.753368 
L 85.560109 146.452211 
L 85.781337 149.074602 
L 86.002751 158.318715 
L 86.668204 198.289615 
L 87.112855 212.954278 
L 87.335479 215.801213 
L 87.558307 216.375636 
L 87.781321 218.541282 
L 88.67546 249.864354 
L 88.899515 251.063238 
L 89.348203 249.406979 
L 89.572873 250.308865 
L 90.47354 260.86007 
L 90.925111 264.030048 
L 91.3775 265.695147 
L 91.830727 267.013051 
L 92.512119 269.202692 
L 93.423556 271.11617 
L 93.88054 271.858468 
L 94.33836 273.21031 
L 95.256512 274.656232 
L 95.486575 274.697116 
L 95.947353 275.147625 
L 96.408986 275.987238 
L 96.871475 276.931507 
L 97.566799 277.579252 
L 98.729969 278.386584 
L 99.430463 278.402843 
L 100.132911 278.456986 
L 100.602301 278.973082 
L 101.072564 279.296047 
L 102.252083 279.324382 
L 102.725435 279.64561 
L 103.437108 280.207641 
L 103.912673 280.288145 
L 105.344743 280.242684 
L 107.749555 280.49572 
L 109.44647 280.768172 
L 111.154676 280.781353 
L 116.848247 280.548048 
L 117.60019 280.686563 
L 118.858238 280.604638 
L 119.363172 280.575909 
L 120.629758 280.154287 
L 122.157766 280.39651 
L 122.925109 280.584591 
L 124.982362 280.523502 
L 126.017024 280.242763 
L 127.316067 280.340236 
L 129.145451 280.503692 
L 130.459876 280.236212 
L 131.516096 280.347261 
L 132.842257 280.399431 
L 133.641109 280.313402 
L 137.942135 280.347892 
L 138.756239 280.377805 
L 139.572797 280.428791 
L 140.939209 280.54426 
L 142.86377 280.569358 
L 145.636825 280.699902 
L 147.875614 280.720264 
L 150.132706 280.694929 
L 150.983879 280.721054 
L 151.837675 280.759254 
L 153.266527 280.770619 
L 154.414891 280.617976 
L 156.146365 280.022165 
L 156.725903 279.535429 
L 157.888589 278.32005 
L 159.641695 277.216745 
L 160.228507 277.047844 
L 160.816527 276.643191 
L 161.405775 276.14801 
L 162.291953 276.4941 
L 162.587972 276.336169 
L 163.180922 275.822204 
L 163.775117 275.483454 
L 164.370578 275.076907 
L 164.668754 275.189297 
L 164.967266 275.440834 
L 165.266075 275.455041 
L 166.164418 274.44037 
L 166.764881 274.2736 
L 167.36661 273.799413 
L 167.667967 273.710069 
L 168.271593 273.990335 
L 168.573899 274.163893 
L 168.876521 274.20375 
L 171.003821 272.828625 
L 171.614534 272.94141 
L 171.920374 272.868167 
L 172.533039 273.189711 
L 172.839865 272.946777 
L 173.147006 272.454674 
L 173.454464 272.259017 
L 174.070403 272.351755 
L 174.996758 271.553498 
L 175.615989 271.989248 
L 175.926088 272.185142 
L 176.236541 272.141733 
L 176.54731 271.8943 
L 176.858413 271.861783 
L 177.481625 272.357832 
L 177.793733 272.391612 
L 178.106176 272.281826 
L 178.418953 271.920741 
L 179.045531 270.78405 
L 179.359313 270.747192 
L 179.673449 270.892731 
L 179.987919 270.892731 
L 180.617864 271.566048 
L 180.933357 271.629346 
L 181.249185 271.322561 
L 181.565348 270.848059 
L 181.881845 270.577738 
L 183.151314 270.632039 
L 183.788122 270.574976 
L 184.745911 269.879481 
L 185.065868 270.015865 
L 185.706824 270.949479 
L 186.027823 271.145136 
L 186.992939 270.85311 
L 187.315333 271.03243 
L 187.9612 270.621305 
L 188.60848 270.210654 
L 189.257173 270.080189 
L 189.907299 270.313652 
L 190.885138 271.121064 
L 191.21181 270.897309 
L 191.866214 269.861012 
L 192.193964 269.716183 
L 192.522068 269.74728 
L 192.850526 269.9045 
L 193.179355 269.922101 
L 193.508557 269.804659 
L 194.16802 269.810421 
L 194.4983 269.77372 
L 194.828952 270.045778 
L 195.159976 270.163535 
L 195.491354 269.943174 
L 195.823085 269.898186 
L 197.153747 270.206313 
L 197.821301 270.556112 
L 198.490325 270.675211 
L 199.496678 270.225018 
L 201.181391 270.311284 
L 201.857929 270.030861 
L 202.875554 270.746245 
L 203.215525 270.467873 
L 203.896601 269.173884 
L 204.237725 269.102456 
L 205.263366 269.277276 
L 205.606015 269.262281 
L 206.636288 269.554701 
L 207.325083 268.884384 
L 207.670057 268.695119 
L 208.015422 268.64879 
L 208.361177 268.784779 
L 209.05386 269.321475 
L 209.748105 269.424552 
L 210.095813 269.374276 
L 211.141338 268.318406 
L 211.490627 268.29244 
L 212.540895 268.981699 
L 213.594771 268.679255 
L 213.94685 268.451633 
L 215.005525 267.303735 
L 216.067846 267.6649 
L 216.422752 268.000729 
L 216.778068 267.996783 
L 217.133812 267.633487 
L 217.489946 267.684631 
L 217.846489 267.851875 
L 218.203442 267.716675 
L 219.276773 266.531446 
L 219.635363 266.561753 
L 221.073887 265.69641 
L 221.434559 265.570444 
L 223.244172 266.42971 
L 223.607356 266.329474 
L 223.970948 265.970993 
L 224.334969 265.785123 
L 225.064275 266.036501 
L 225.429579 265.747317 
L 226.161433 264.188137 
L 226.528002 264.25696 
L 226.89498 264.464693 
L 227.262404 263.994374 
L 227.630257 263.148051 
L 227.998537 263.006774 
L 228.367244 263.384434 
L 228.73638 263.110798 
L 229.105943 262.503306 
L 229.475935 262.58381 
L 230.588549 263.782458 
L 230.960289 263.898873 
L 231.332456 263.827919 
L 232.078112 264.010553 
L 232.451581 264.053173 
L 232.825516 264.245516 
L 233.199878 264.296581 
L 233.574668 264.177718 
L 234.701735 263.229898 
L 235.07831 263.169204 
L 235.455314 263.292012 
L 235.832782 262.926112 
L 236.210678 263.013009 
L 236.58904 263.768409 
L 236.967847 263.933206 
L 237.726783 262.007573 
L 238.487523 261.869058 
L 238.868581 261.183271 
L 239.250086 260.800796 
L 239.632037 261.066066 
L 240.014453 261.192663 
L 240.397315 261.062278 
L 241.164398 260.521241 
L 241.933322 260.565281 
L 242.318472 260.733315 
L 242.704087 261.123682 
L 243.090149 261.167565 
L 243.863667 259.19576 
L 244.251124 259.313438 
L 244.639045 259.203337 
L 245.027432 258.810759 
L 245.8056 259.383445 
L 246.195382 259.087473 
L 246.585628 258.53073 
L 246.97634 258.346517 
L 247.367535 258.523627 
L 247.759195 258.390163 
L 248.15132 257.903901 
L 248.543929 257.724187 
L 248.937003 258.062384 
L 249.330542 257.830816 
L 250.11907 255.758854 
L 250.514041 255.407555 
L 251.305415 256.125701 
L 251.701837 256.134146 
L 252.098724 255.547885 
L 252.893948 253.612623 
L 253.292286 252.699451 
L 253.691089 251.470496 
L 254.090393 250.800731 
L 254.490182 251.224484 
L 254.890454 252.051864 
L 255.291209 252.616105 
L 256.496415 251.875938 
L 257.302353 250.448801 
L 258.110244 249.760409 
L 258.514924 248.779203 
L 258.920107 247.331229 
L 259.325791 246.853806 
L 259.731959 247.302973 
L 260.545802 245.251374 
L 260.953477 245.612066 
L 261.361636 245.630534 
L 261.770315 244.665665 
L 262.999347 239.261375 
L 263.410035 239.227279 
L 264.232936 240.544157 
L 264.645131 241.897814 
L 265.057846 242.496783 
L 265.471082 242.02378 
L 266.299061 239.956711 
L 266.713823 238.510237 
L 267.129105 236.476239 
L 267.544889 236.039857 
L 267.961195 236.04846 
L 268.378021 234.948313 
L 268.795349 233.514624 
L 269.213216 233.223861 
L 269.631586 232.707765 
L 270.050477 231.607144 
L 270.469907 231.214488 
L 270.889839 230.985524 
L 271.310311 229.729419 
L 271.731284 228.94529 
L 272.152798 230.175587 
L 272.57485 230.558377 
L 273.420499 232.20335 
L 274.268287 234.197412 
L 274.692962 235.019662 
L 275.118177 235.494716 
L 275.543931 235.511922 
L 275.970224 235.76117 
L 276.397039 236.518859 
L 277.680718 239.75032 
L 278.109689 240.108881 
L 278.969251 239.474711 
L 279.399841 238.2617 
L 279.830971 236.521305 
L 280.262658 235.414765 
L 280.694885 234.713035 
L 281.560975 230.936669 
L 281.994839 231.435796 
L 282.42926 232.562621 
L 282.864221 233.324413 
L 283.29974 233.646904 
L 283.735817 233.401681 
L 284.609627 233.640748 
L 285.047359 233.039096 
L 285.48565 231.103123 
L 285.924517 229.942913 
L 286.363923 229.72784 
L 287.244428 226.843889 
L 288.127166 226.63071 
L 288.569399 225.027016 
L 289.899448 222.279369 
L 290.789012 221.841725 
L 291.234631 221.274564 
L 292.127617 222.363031 
L 293.02289 221.027368 
L 293.471392 221.281825 
L 293.920471 222.151115 
L 294.370126 223.296566 
L 295.271184 226.600166 
L 295.722587 229.720737 
L 297.080276 243.066391 
L 297.988346 254.429506 
L 298.443265 258.473115 
L 298.898761 260.430239 
L 299.35487 260.949177 
L 300.268837 260.716267 
L 300.726713 260.465598 
L 301.644251 260.721712 
L 302.564188 259.576814 
L 303.025059 258.569009 
L 303.486525 257.96278 
L 303.948605 258.469563 
L 304.41128 259.557082 
L 304.87455 259.857474 
L 305.338434 259.362688 
L 305.802932 259.182342 
L 306.268043 258.759142 
L 307.200071 256.382447 
L 308.134572 255.6849 
L 308.602734 255.331549 
L 309.07151 255.355937 
L 310.010921 255.831229 
L 310.481557 255.357358 
L 310.952807 254.627136 
L 311.897185 252.642624 
L 312.370313 252.106796 
L 312.844073 252.031975 
L 313.318448 251.370497 
L 313.793455 249.271858 
L 314.269094 245.559422 
L 314.745365 242.929217 
L 315.222269 241.286533 
L 316.177956 235.892582 
L 317.136209 232.258598 
L 317.616275 229.807476 
L 318.096992 228.51175 
L 318.57836 228.113175 
L 319.060361 226.924314 
L 320.994817 213.739275 
L 322.452461 199.012024 
L 322.939633 194.75129 
L 323.427473 187.8362 
L 324.405127 166.78967 
L 324.405127 166.78967 
" style="fill:none;stroke:#ff7f0e;stroke-linecap:square;stroke-width:1.5;"/>
   </g>
   <g id="line2d_16">
    <path clip-path="url(#p968bed7fbd)" d="M 45 313.042775 
L 50.26912 312.687608 
L 51.031961 312.525652 
L 52.181032 312.575849 
L 53.528974 312.68674 
L 54.109108 312.517918 
L 54.496676 312.108371 
L 54.884914 311.324164 
L 55.079266 311.298592 
L 55.663343 312.239467 
L 56.248908 312.514682 
L 56.835961 312.551856 
L 57.228161 312.394951 
L 57.62103 311.905058 
L 58.014569 311.356997 
L 59.001373 312.485558 
L 59.595476 312.679795 
L 60.788257 312.747592 
L 64.201394 312.60663 
L 67.66503 312.139152 
L 68.693517 312.018475 
L 69.519543 311.797009 
L 70.348452 311.466941 
L 71.597293 310.808936 
L 72.015031 310.7484 
L 72.433512 310.75282 
L 73.903972 309.843751 
L 74.748319 308.539738 
L 75.171618 308.037849 
L 75.595661 307.898624 
L 75.807961 307.666976 
L 76.446016 306.366672 
L 76.872309 306.33597 
L 77.085744 306.045681 
L 77.513191 304.66803 
L 78.155765 302.114857 
L 78.585109 301.133256 
L 79.015234 298.751194 
L 79.661825 294.567019 
L 80.093866 292.582112 
L 80.52667 289.383957 
L 81.82973 271.659417 
L 82.265639 258.778084 
L 84.236979 179.571004 
L 84.897651 140.78194 
L 85.118266 134.211282 
L 85.339085 139.592606 
L 86.22437 199.858109 
L 86.446175 206.111011 
L 86.890418 212.027294 
L 87.335479 234.434347 
L 87.781321 251.650052 
L 89.572873 282.935792 
L 90.248053 286.888794 
L 90.925111 293.41036 
L 91.151194 294.238924 
L 91.3775 294.612796 
L 91.604011 295.392031 
L 92.512119 299.857262 
L 93.19539 302.173262 
L 93.423556 302.909956 
L 93.651946 303.268595 
L 94.109338 303.616895 
L 94.797017 304.786182 
L 96.408986 307.210548 
L 96.871475 307.826564 
L 97.566799 308.472178 
L 98.96325 309.766325 
L 99.898551 310.348325 
L 100.602301 310.321332 
L 101.072564 310.356375 
L 102.252083 310.814619 
L 102.725435 310.904989 
L 103.912673 311.456602 
L 107.508053 312.00119 
L 109.689796 312.230312 
L 110.421185 312.293137 
L 111.399619 312.319103 
L 114.357391 312.192191 
L 114.853658 312.076722 
L 115.849037 311.997796 
L 116.848247 311.989667 
L 117.60019 312.193375 
L 118.606152 312.112239 
L 119.363172 312.218789 
L 119.869073 312.037417 
L 120.375942 311.757625 
L 120.883796 311.724081 
L 122.66908 312.01295 
L 123.181399 312.092507 
L 124.20903 312.177037 
L 124.982362 312.155411 
L 126.276327 311.779566 
L 128.35988 311.925342 
L 129.145451 312.108135 
L 129.933329 311.950204 
L 130.723531 311.762913 
L 132.5765 311.950835 
L 136.321201 311.790616 
L 137.13045 311.8873 
L 138.756239 311.918555 
L 139.845529 311.975697 
L 143.139812 312.112476 
L 143.692753 312.209475 
L 146.194825 312.226366 
L 147.033946 312.210975 
L 150.132706 312.248386 
L 155.568016 312.154464 
L 157.888589 311.287937 
L 159.348745 309.849908 
L 159.934943 309.09143 
L 160.522349 308.760336 
L 160.816527 308.671466 
L 161.700864 308.897115 
L 163.180922 308.002095 
L 163.775117 307.280003 
L 165.266075 306.474564 
L 165.86466 306.766511 
L 166.764881 306.500531 
L 167.36661 307.056958 
L 167.667967 306.961142 
L 168.271593 306.283485 
L 169.179459 305.902115 
L 169.786284 304.706309 
L 170.090189 304.596997 
L 170.698967 304.636144 
L 171.614534 304.010814 
L 172.533039 304.297078 
L 172.839865 304.308049 
L 173.454464 304.10592 
L 174.070403 304.830933 
L 175.615989 305.017119 
L 175.926088 304.846008 
L 176.858413 303.605688 
L 177.169852 303.451703 
L 177.793733 302.908693 
L 178.418953 302.523851 
L 179.045531 302.357159 
L 179.359313 302.292361 
L 180.302724 302.635926 
L 180.617864 302.833398 
L 180.933357 302.778703 
L 181.565348 302.400569 
L 182.198696 302.649817 
L 182.515901 302.975701 
L 182.83344 303.13229 
L 183.469541 302.54816 
L 184.426288 303.542784 
L 184.745911 303.507978 
L 185.065868 303.189196 
L 185.706824 302.133562 
L 186.349175 301.763321 
L 187.315333 302.250767 
L 188.60848 301.568611 
L 188.93264 301.587238 
L 189.582059 301.905782 
L 189.907299 301.933564 
L 190.232892 301.763716 
L 190.558838 301.338937 
L 190.885138 301.170667 
L 192.193964 301.458588 
L 193.179355 302.1132 
L 193.508557 302.156135 
L 194.4983 302.931977 
L 195.159976 302.838213 
L 196.155206 302.08013 
L 196.820528 301.901205 
L 197.487338 301.381241 
L 197.821301 301.311313 
L 198.155636 301.361194 
L 199.160855 301.942799 
L 199.496678 301.846825 
L 200.843708 300.589851 
L 201.181391 300.540523 
L 202.196747 301.607285 
L 202.875554 301.54154 
L 203.896601 302.079735 
L 204.237725 302.068212 
L 204.921107 301.778554 
L 205.606015 302.120619 
L 205.949055 302.004045 
L 206.292485 301.693393 
L 206.636288 301.552826 
L 207.325083 301.448328 
L 208.015422 301.199317 
L 209.05386 300.440129 
L 209.400787 300.479197 
L 209.748105 300.400035 
L 210.443931 299.882518 
L 211.141338 300.086304 
L 211.490627 299.888595 
L 211.840326 299.541953 
L 212.190415 299.535875 
L 212.540895 299.641715 
L 214.299339 299.472735 
L 215.005525 300.125373 
L 215.359223 299.940055 
L 215.71333 299.610697 
L 216.067846 299.723719 
L 216.422752 300.154181 
L 216.778068 300.361203 
L 217.133812 300.290959 
L 218.560804 299.512198 
L 219.276773 299.597122 
L 221.434559 297.146395 
L 221.795641 296.96597 
L 222.157151 297.197381 
L 222.51907 297.288619 
L 223.244172 296.725483 
L 224.334969 296.684678 
L 224.699417 296.188787 
L 225.064275 296.147825 
L 226.161433 297.545839 
L 226.528002 297.196434 
L 227.262404 295.532676 
L 227.998537 295.474824 
L 228.367244 295.310737 
L 228.73638 295.589503 
L 229.105943 296.099838 
L 229.475935 296.176238 
L 229.846372 295.883344 
L 230.217238 295.927385 
L 230.588549 296.267476 
L 230.960289 296.366844 
L 232.078112 295.595107 
L 232.451581 295.419102 
L 233.199878 295.471272 
L 233.949923 295.248228 
L 234.701735 294.178466 
L 235.455314 294.364179 
L 235.832782 293.842716 
L 236.210678 293.568764 
L 236.58904 293.828036 
L 236.967847 293.878627 
L 237.347083 293.524566 
L 237.726783 293.52867 
L 238.10693 293.927877 
L 238.487523 293.868998 
L 239.250086 292.935621 
L 239.632037 292.754328 
L 240.397315 294.124876 
L 240.780624 294.116273 
L 241.933322 293.661344 
L 243.863667 291.424033 
L 244.639045 291.27289 
L 245.027432 290.694758 
L 245.416283 290.434065 
L 245.8056 290.005656 
L 246.195382 289.000772 
L 246.585628 288.92082 
L 246.97634 289.275039 
L 247.367535 289.177013 
L 247.759195 288.819637 
L 248.15132 289.003376 
L 248.543929 289.48514 
L 248.937003 289.440389 
L 249.330542 289.057677 
L 249.724564 289.420736 
L 250.11907 290.160193 
L 250.514041 290.004393 
L 251.305415 287.657927 
L 252.098724 286.480353 
L 252.496094 285.843816 
L 252.893948 285.770415 
L 253.292286 286.51658 
L 253.691089 286.793294 
L 254.490182 284.199474 
L 254.890454 283.942097 
L 256.09419 281.733515 
L 256.496415 281.762244 
L 256.899142 281.577005 
L 257.302353 280.761069 
L 257.706047 280.941257 
L 258.110244 281.855692 
L 258.514924 282.192863 
L 259.325791 281.824674 
L 259.731959 280.971801 
L 260.545802 276.517225 
L 260.953477 275.600501 
L 261.361636 274.983143 
L 261.770315 273.889941 
L 262.179496 274.25079 
L 262.589161 275.519681 
L 262.999347 275.824414 
L 263.410035 275.172802 
L 264.232936 273.287973 
L 265.057846 271.115855 
L 265.471082 270.799678 
L 265.884821 270.735353 
L 266.713823 272.348598 
L 267.129105 271.456183 
L 267.544889 269.506951 
L 268.378021 267.081875 
L 269.631586 262.845134 
L 270.050477 262.615775 
L 270.469907 262.620037 
L 270.889839 262.060374 
L 271.310311 262.146403 
L 271.731284 262.893594 
L 272.57485 263.802505 
L 272.997405 263.869434 
L 274.268287 265.322854 
L 275.970224 268.024328 
L 277.252285 269.41295 
L 278.539201 272.216634 
L 278.969251 271.047426 
L 279.399841 269.197403 
L 280.262658 267.624411 
L 281.127651 263.541497 
L 281.560975 263.506691 
L 281.994839 264.329177 
L 283.735817 265.888515 
L 284.172452 266.086383 
L 284.609627 265.64424 
L 285.48565 263.027216 
L 286.363923 262.043642 
L 287.685509 256.366189 
L 288.127166 255.780795 
L 289.012191 256.144959 
L 289.455541 255.217975 
L 289.899448 254.867544 
L 290.343951 254.773622 
L 290.789012 254.302356 
L 291.234631 254.1595 
L 291.680845 253.843086 
L 292.127617 254.141505 
L 292.574965 253.728802 
L 293.02289 253.07206 
L 293.471392 253.157063 
L 293.920471 253.871736 
L 295.271184 258.813522 
L 295.722587 261.729754 
L 296.627124 270.032992 
L 298.443265 288.924371 
L 298.898761 290.225228 
L 299.811556 290.37274 
L 300.726713 291.020879 
L 301.185184 291.095859 
L 301.644251 290.845427 
L 302.564188 290.632643 
L 303.025059 290.372661 
L 303.948605 291.67849 
L 304.41128 291.939103 
L 304.87455 291.758126 
L 305.338434 290.952766 
L 305.802932 289.895475 
L 306.268043 289.774877 
L 307.200071 289.025791 
L 308.134572 289.146706 
L 308.602734 288.224062 
L 309.07151 286.770169 
L 309.540899 285.937738 
L 310.010921 286.096694 
L 310.481557 284.643196 
L 310.952807 282.767522 
L 311.424689 282.096021 
L 311.897185 281.211736 
L 312.370313 280.002039 
L 312.844073 279.594229 
L 313.318448 279.758789 
L 313.793455 279.097785 
L 314.745365 273.750479 
L 315.222269 272.352465 
L 315.699787 270.353273 
L 316.177956 267.69355 
L 316.656757 266.247707 
L 317.136209 266.129003 
L 318.096992 261.678373 
L 318.57836 260.620845 
L 319.060361 258.44549 
L 321.480035 233.790786 
L 322.452461 227.826042 
L 323.427473 210.123207 
L 323.915965 199.538933 
L 324.405127 186.296593 
L 324.405127 186.296593 
" style="fill:none;stroke:#2ca02c;stroke-linecap:square;stroke-width:1.5;"/>
   </g>
   <g id="line2d_17">
    <path clip-path="url(#p968bed7fbd)" d="M 45 344.613122 
L 48.751081 344.39576 
L 49.319143 344.216282 
L 49.888657 343.924572 
L 51.797351 344.127964 
L 52.757744 344.061824 
L 53.915575 344.038857 
L 54.496676 343.780612 
L 55.079266 343.575641 
L 55.858364 343.405082 
L 56.053552 343.224973 
L 56.640103 341.958371 
L 56.835961 342.197122 
L 57.228161 343.144469 
L 57.62103 343.529312 
L 58.211599 343.749436 
L 58.606142 343.722996 
L 59.001373 343.449596 
L 59.397274 342.672019 
L 59.793845 340.630917 
L 59.992381 339.320905 
L 60.191104 339.212225 
L 60.788257 342.449842 
L 61.187208 343.142891 
L 61.786946 343.537678 
L 62.38821 343.692451 
L 62.789933 343.551805 
L 63.192344 343.063333 
L 63.3938 342.551499 
L 63.99923 339.951602 
L 64.201394 340.521999 
L 64.606241 342.299568 
L 65.011777 343.124501 
L 65.621411 343.732625 
L 66.232644 343.926703 
L 67.459872 343.933886 
L 69.519543 343.718181 
L 71.388694 343.214318 
L 73.062601 342.672571 
L 73.693346 342.566732 
L 74.536949 342.09365 
L 74.959876 341.517412 
L 75.595661 340.380406 
L 76.65906 339.777728 
L 76.872309 339.75847 
L 77.085744 339.602671 
L 77.941381 338.206946 
L 78.370353 336.664813 
L 78.800069 335.15362 
L 79.230566 333.768944 
L 80.74336 326.634125 
L 81.612073 320.632602 
L 81.82973 319.147059 
L 82.047592 316.27842 
L 82.483892 305.032431 
L 83.578093 274.466494 
L 83.797535 270.749954 
L 84.017164 264.317338 
L 84.677222 225.856211 
L 85.339085 174.83048 
L 85.560109 172.594747 
L 86.446175 188.72893 
L 86.668204 198.904369 
L 87.335479 239.728774 
L 88.004558 265.689228 
L 88.451627 281.707075 
L 88.899515 291.772096 
L 89.348203 298.130364 
L 90.248053 314.23937 
L 90.699214 318.273508 
L 91.3775 322.406855 
L 91.604011 323.484983 
L 92.739671 331.019088 
L 92.967428 331.742365 
L 93.651946 332.39816 
L 94.109338 333.917562 
L 94.567568 335.430571 
L 95.716862 337.019664 
L 95.947353 337.100326 
L 96.178067 337.315636 
L 97.103027 338.81941 
L 97.799002 339.158239 
L 99.430463 341.065798 
L 100.132911 341.668397 
L 100.83733 341.855452 
L 102.725435 342.211881 
L 103.19966 342.535161 
L 104.627713 342.946128 
L 105.344743 343.068463 
L 106.303945 343.322052 
L 107.025718 343.444387 
L 108.717834 343.654883 
L 111.154676 343.766168 
L 111.89025 343.892923 
L 114.357391 343.788031 
L 117.098659 343.52797 
L 117.60019 343.681323 
L 118.858238 343.683927 
L 119.616002 343.684796 
L 120.629758 343.375959 
L 121.138096 343.272092 
L 125.24066 343.69987 
L 126.017024 343.424972 
L 126.795695 343.319921 
L 127.316067 343.35307 
L 129.145451 343.593478 
L 129.933329 343.553463 
L 131.251641 343.311871 
L 134.175003 343.378169 
L 137.13045 343.379352 
L 137.671301 343.410607 
L 138.484604 343.267988 
L 139.300345 343.504134 
L 140.11854 343.459462 
L 141.487705 343.596556 
L 143.139812 343.553542 
L 145.358253 343.766089 
L 148.719868 343.809972 
L 149.566708 343.82481 
L 152.408341 343.861905 
L 153.840113 343.868772 
L 155.279288 343.862931 
L 156.725903 343.779743 
L 158.180014 343.444624 
L 158.763775 343.314475 
L 159.641695 342.887723 
L 160.228507 342.385281 
L 161.111002 341.326175 
L 162.291953 340.968483 
L 162.884289 340.334314 
L 163.477871 339.720902 
L 164.072699 339.313881 
L 164.370578 339.089732 
L 164.668754 339.0715 
L 165.266075 339.477021 
L 166.164418 339.369997 
L 166.464491 339.445687 
L 166.764881 339.338585 
L 168.271593 337.637338 
L 168.876521 336.904274 
L 169.179459 336.888331 
L 169.482713 337.055102 
L 169.786284 337.010666 
L 170.394411 336.592359 
L 171.920374 337.292037 
L 172.226548 337.279567 
L 172.839865 336.975781 
L 173.454464 337.052971 
L 173.762276 336.906958 
L 174.070403 336.605224 
L 174.687644 335.764506 
L 175.306206 335.275876 
L 175.615989 335.005949 
L 176.236541 335.131284 
L 176.858413 334.587169 
L 178.106176 335.182112 
L 178.732084 335.255908 
L 179.045531 335.23073 
L 179.673449 335.474611 
L 180.302724 335.23365 
L 180.617864 335.090242 
L 181.249185 335.192609 
L 182.515901 334.692535 
L 183.151314 334.120717 
L 183.788122 333.483469 
L 184.107038 333.616617 
L 184.426288 333.941871 
L 184.745911 334.053314 
L 186.027823 333.665551 
L 186.67088 333.887807 
L 187.315333 333.810538 
L 188.284672 333.899645 
L 188.93264 333.324907 
L 189.257173 333.42688 
L 189.907299 333.933347 
L 190.558838 334.248024 
L 191.21181 334.31227 
L 191.538835 334.407533 
L 192.522068 334.021428 
L 192.850526 333.904539 
L 193.508557 333.257741 
L 194.16802 333.122857 
L 194.4983 332.938486 
L 194.828952 332.953403 
L 195.823085 333.35632 
L 196.155206 333.193101 
L 196.487681 332.861691 
L 196.820528 332.897129 
L 197.487338 333.361371 
L 198.155636 333.353242 
L 199.496678 333.375578 
L 199.832873 333.536429 
L 200.843708 333.514566 
L 201.181391 333.610145 
L 201.519465 333.9103 
L 202.196747 334.028847 
L 203.215525 333.391758 
L 203.896601 333.354583 
L 204.237725 333.43643 
L 204.579221 333.322066 
L 205.263366 332.872267 
L 205.606015 332.853483 
L 206.636288 332.338965 
L 207.325083 333.0609 
L 208.015422 332.760903 
L 208.707323 332.480795 
L 209.400787 332.465168 
L 210.095813 331.653336 
L 210.443931 331.704322 
L 211.141338 332.114184 
L 211.490627 332.089639 
L 212.540895 331.684275 
L 212.891784 331.789799 
L 213.243082 332.023972 
L 213.594771 332.085377 
L 214.652237 331.807321 
L 215.005525 331.852861 
L 215.359223 332.07851 
L 215.71333 332.062725 
L 216.422752 331.172046 
L 216.778068 331.109379 
L 217.846489 331.378832 
L 218.203442 331.270862 
L 218.560804 330.846635 
L 218.918575 330.683101 
L 219.276773 330.678997 
L 219.635363 330.526591 
L 219.99438 330.150982 
L 220.713642 329.904971 
L 221.073887 329.795579 
L 221.795641 330.002918 
L 222.157151 329.832832 
L 223.244172 328.29512 
L 223.970948 328.789196 
L 224.699417 328.592276 
L 225.429579 329.039548 
L 226.528002 328.140109 
L 226.89498 328.074285 
L 227.630257 328.287937 
L 227.998537 328.385648 
L 228.367244 328.739709 
L 228.73638 328.87775 
L 229.105943 328.343343 
L 229.475935 328.019747 
L 229.846372 328.000253 
L 230.217238 327.681708 
L 230.588549 327.005155 
L 230.960289 326.823152 
L 231.705052 327.609964 
L 232.078112 327.494338 
L 232.825516 326.113372 
L 233.199878 326.202953 
L 233.574668 326.59774 
L 233.949923 326.805157 
L 234.325606 326.61755 
L 234.701735 326.205557 
L 235.07831 325.992694 
L 235.832782 326.255675 
L 236.210678 326.214555 
L 236.58904 325.819373 
L 236.967847 324.998307 
L 237.347083 324.750164 
L 238.487523 326.149757 
L 238.868581 326.317001 
L 239.632037 326.085116 
L 240.397315 326.461356 
L 240.780624 325.770834 
L 241.548637 324.000053 
L 241.933322 323.878507 
L 242.704087 324.498707 
L 243.090149 324.407705 
L 243.863667 323.807947 
L 244.251124 323.088143 
L 244.639045 321.961319 
L 245.027432 321.601259 
L 245.416283 321.671108 
L 245.8056 321.507574 
L 246.195382 321.615466 
L 246.585628 321.888076 
L 246.97634 321.739221 
L 247.367535 321.130387 
L 247.759195 320.82305 
L 248.15132 321.461481 
L 248.543929 322.490675 
L 248.937003 322.93045 
L 249.330542 322.144348 
L 249.724564 320.928968 
L 250.11907 320.726208 
L 250.514041 320.351626 
L 250.909496 319.648554 
L 251.305415 319.999774 
L 251.701837 320.645861 
L 252.098724 320.258572 
L 252.496094 319.212962 
L 253.292286 317.984008 
L 254.090393 316.300045 
L 254.490182 315.581188 
L 255.291209 315.090664 
L 256.09419 314.932181 
L 257.302353 313.28705 
L 258.110244 312.400555 
L 258.514924 312.573087 
L 258.920107 313.486417 
L 259.325791 313.668815 
L 259.731959 312.970715 
L 261.361636 309.005085 
L 261.770315 308.792538 
L 262.179496 308.417877 
L 262.589161 307.232489 
L 262.999347 305.506775 
L 263.410035 305.002518 
L 263.821225 305.248766 
L 264.232936 304.821225 
L 264.645131 304.196053 
L 265.057846 303.952488 
L 265.884821 303.801266 
L 266.299061 303.09188 
L 266.713823 301.825436 
L 267.129105 301.527885 
L 267.544889 302.569233 
L 267.961195 302.80167 
L 269.213216 296.400309 
L 269.631586 295.767797 
L 270.050477 295.987211 
L 270.469907 295.467247 
L 270.889839 295.163067 
L 271.310311 295.467168 
L 272.152798 295.666377 
L 272.57485 294.937102 
L 272.997405 294.635368 
L 274.268287 296.557055 
L 274.692962 297.073625 
L 275.543931 299.248348 
L 275.970224 299.506199 
L 276.397039 300.043369 
L 277.252285 302.564024 
L 277.680718 302.783043 
L 278.109689 302.769705 
L 278.539201 302.986356 
L 278.969251 302.580283 
L 279.399841 301.209735 
L 279.830971 300.2586 
L 280.262658 299.587177 
L 281.127651 296.976704 
L 281.560975 296.915852 
L 281.994839 297.067311 
L 282.42926 296.621538 
L 282.864221 296.477024 
L 283.29974 296.627299 
L 284.172452 297.255786 
L 284.609627 297.183885 
L 285.047359 296.50236 
L 286.363923 291.946048 
L 286.803887 289.694135 
L 287.244428 289.216318 
L 287.685509 289.153099 
L 288.127166 289.28009 
L 288.569399 289.121213 
L 289.012191 288.407328 
L 289.455541 287.185319 
L 289.899448 286.91113 
L 290.343951 287.455956 
L 290.789012 287.363849 
L 291.680845 286.445231 
L 292.574965 284.497262 
L 293.02289 284.266009 
L 293.471392 284.571215 
L 293.920471 285.780044 
L 294.820357 290.826169 
L 295.722587 293.852266 
L 296.627124 301.344541 
L 298.443265 318.807204 
L 298.898761 320.299061 
L 299.35487 320.266228 
L 299.811556 320.023057 
L 301.185184 322.901957 
L 301.644251 322.971412 
L 302.103931 322.501724 
L 302.564188 322.197149 
L 303.025059 321.690524 
L 303.486525 321.493604 
L 303.948605 322.007648 
L 304.41128 322.809614 
L 304.87455 323.161781 
L 306.268043 322.806615 
L 306.73375 322.045138 
L 307.200071 320.760383 
L 307.667005 319.849815 
L 308.134572 319.56434 
L 308.602734 318.741064 
L 309.07151 316.866023 
L 310.481557 313.601333 
L 310.952807 313.100391 
L 311.424689 312.16946 
L 311.897185 310.169636 
L 312.370313 308.787092 
L 312.844073 308.41985 
L 313.318448 308.588909 
L 313.793455 307.82317 
L 314.269094 305.83116 
L 315.222269 303.429131 
L 315.699787 302.531112 
L 316.656757 299.948105 
L 318.096992 293.905541 
L 319.060361 284.583843 
L 320.994817 263.191224 
L 321.480035 260.487303 
L 321.965923 258.782662 
L 322.452461 252.477037 
L 323.427473 229.624921 
L 324.405127 205.954343 
L 324.405127 205.954343 
" style="fill:none;stroke:#d62728;stroke-linecap:square;stroke-width:1.5;"/>
   </g>
   <g id="line2d_18">
    <path clip-path="url(#p968bed7fbd)" d="M 45 376.183468 
L 47.055356 375.955767 
L 47.619196 375.672818 
L 47.995846 375.427043 
L 48.373147 375.600206 
L 48.751081 375.755769 
L 51.031961 375.782051 
L 53.143043 375.46106 
L 54.496676 374.609134 
L 55.273803 374.520185 
L 55.858364 374.367305 
L 56.248908 374.470935 
L 56.835961 374.71671 
L 57.62103 374.911026 
L 58.606142 375.198789 
L 59.19924 375.214732 
L 59.595476 375.010946 
L 59.992381 374.524841 
L 60.389975 373.442294 
L 60.589032 372.395737 
L 60.987649 368.172019 
L 61.187208 365.427688 
L 61.386953 364.964314 
L 61.987194 371.997004 
L 62.38821 373.639688 
L 62.789933 374.113953 
L 63.797253 374.538417 
L 64.201394 374.493745 
L 64.606241 374.031949 
L 65.011777 372.802363 
L 65.214815 371.615397 
L 65.621411 366.935567 
L 65.824988 364.021624 
L 66.028714 363.653987 
L 66.641007 371.374436 
L 67.050077 373.181207 
L 67.459872 373.743554 
L 68.487466 374.473382 
L 68.899754 374.483642 
L 69.312767 374.141183 
L 69.726505 373.21996 
L 69.933635 372.275849 
L 70.348452 368.276438 
L 70.55614 365.646155 
L 70.764013 365.33787 
L 71.388694 371.589509 
L 71.80606 373.09281 
L 72.433512 374.268964 
L 72.852719 374.658621 
L 73.27267 374.793189 
L 74.325783 374.728865 
L 74.959876 374.62413 
L 75.807961 374.224213 
L 77.085744 373.22438 
L 77.513191 372.879632 
L 78.585109 372.576477 
L 79.015234 371.815711 
L 80.310166 368.406192 
L 80.52667 368.054736 
L 81.177316 365.880407 
L 81.82973 363.304109 
L 82.483892 359.441714 
L 82.920992 356.351371 
L 83.358873 351.151656 
L 83.797535 343.09293 
L 84.677222 323.247732 
L 85.118266 309.42947 
L 85.781337 281.599104 
L 86.22437 251.20349 
L 86.890418 193.520125 
L 87.112855 195.200536 
L 87.558307 214.553316 
L 88.451627 255.160201 
L 88.67546 262.382786 
L 89.572873 307.803991 
L 90.022788 317.538076 
L 90.699214 337.022347 
L 91.151194 343.155834 
L 92.739671 356.554526 
L 93.19539 360.455832 
L 93.423556 360.946277 
L 93.88054 360.879664 
L 94.109338 361.372161 
L 94.797017 364.678839 
L 95.256512 366.111739 
L 95.716862 367.631298 
L 96.640129 368.598693 
L 97.799002 370.041615 
L 98.264057 370.338455 
L 99.196754 371.508768 
L 99.664396 371.73205 
L 100.132911 372.195344 
L 100.83733 372.713414 
L 101.543721 373.213014 
L 102.252083 373.575758 
L 102.725435 373.773704 
L 103.437108 373.909535 
L 104.15079 373.874255 
L 104.866499 374.121767 
L 105.584199 374.566198 
L 106.544312 374.495402 
L 107.266774 374.828785 
L 107.749555 374.995634 
L 109.933363 375.191449 
L 111.644823 375.254511 
L 112.874283 375.364376 
L 114.357391 375.234622 
L 115.102154 375.190976 
L 116.348168 374.989478 
L 117.349294 375.054907 
L 118.102687 375.127835 
L 118.606152 375.140463 
L 119.110584 375.21126 
L 120.883796 374.964932 
L 121.392655 374.785376 
L 122.66908 374.849858 
L 124.466547 375.158379 
L 125.757982 375.201315 
L 126.795695 374.900528 
L 127.316067 374.796425 
L 130.459876 375.112208 
L 131.780811 374.801792 
L 132.842257 374.912209 
L 133.907926 375.002185 
L 137.400745 374.775747 
L 137.942135 374.877087 
L 139.028152 374.879692 
L 141.762352 375.095002 
L 157.888589 375.360982 
L 159.641695 375.02089 
L 161.405775 374.60795 
L 162.291953 374.128712 
L 164.072699 372.514836 
L 164.668754 372.055882 
L 167.065588 370.935845 
L 167.36661 371.090461 
L 167.667967 371.000959 
L 168.271593 370.237273 
L 169.482713 369.715257 
L 169.786284 369.549591 
L 170.394411 369.452197 
L 171.003821 368.960962 
L 171.614534 368.839416 
L 172.533039 368.935943 
L 173.762276 368.654099 
L 174.070403 368.347077 
L 174.687644 367.476209 
L 174.996758 367.679759 
L 175.306206 368.105011 
L 175.615989 368.21977 
L 175.926088 367.887807 
L 176.236541 367.371711 
L 176.54731 367.123174 
L 177.481625 367.321277 
L 178.418953 366.726097 
L 178.732084 366.802813 
L 179.359313 367.283393 
L 179.987919 367.109361 
L 180.302724 367.336905 
L 180.617864 367.40194 
L 180.933357 367.10802 
L 181.565348 366.222866 
L 181.881845 366.176063 
L 182.515901 366.480322 
L 182.83344 366.630439 
L 183.151314 366.454277 
L 183.469541 366.094375 
L 184.426288 365.801086 
L 185.065868 365.869041 
L 185.38616 365.696667 
L 185.706824 365.383095 
L 186.027823 365.285621 
L 186.992939 365.438185 
L 187.315333 365.628554 
L 187.638099 366.137153 
L 187.9612 366.336125 
L 188.60848 365.507798 
L 188.93264 365.609454 
L 189.582059 366.257751 
L 189.907299 366.209291 
L 190.558838 365.215062 
L 190.885138 365.278676 
L 191.21181 365.658862 
L 191.538835 365.779855 
L 191.866214 365.733999 
L 192.522068 365.911583 
L 192.850526 365.623661 
L 193.508557 364.717987 
L 193.838111 364.699202 
L 194.16802 364.910408 
L 194.4983 364.955475 
L 195.159976 364.316728 
L 195.491354 364.264636 
L 196.155206 364.998726 
L 196.487681 365.176467 
L 198.490325 365.125244 
L 198.825404 365.417112 
L 199.496678 365.606139 
L 201.181391 365.676699 
L 201.857929 364.994938 
L 202.196747 364.535194 
L 202.535974 364.266846 
L 203.215525 364.87868 
L 203.896601 364.907488 
L 204.237725 365.09541 
L 204.579221 365.090675 
L 205.263366 364.355322 
L 205.606015 364.229041 
L 205.949055 364.262663 
L 206.636288 364.562108 
L 206.980499 364.474579 
L 207.325083 364.173951 
L 207.670057 364.101497 
L 208.015422 364.328566 
L 208.361177 364.393838 
L 209.748105 364.104338 
L 210.443931 364.769367 
L 210.792439 364.873944 
L 211.141338 364.771577 
L 211.490627 364.515147 
L 212.190415 363.665589 
L 212.540895 363.548937 
L 212.891784 363.690688 
L 213.594771 363.471747 
L 215.359223 363.094324 
L 216.422752 363.00277 
L 217.133812 363.550042 
L 217.489946 363.553909 
L 217.846489 363.32092 
L 218.560804 362.10191 
L 218.918575 361.780997 
L 219.635363 361.571686 
L 219.99438 361.796546 
L 221.073887 362.089124 
L 221.795641 362.478386 
L 222.51907 362.403801 
L 222.881416 362.23561 
L 224.334969 360.910366 
L 224.699417 360.8623 
L 225.429579 360.294823 
L 226.161433 359.189388 
L 226.528002 359.591909 
L 226.89498 360.471301 
L 227.262404 360.912576 
L 227.630257 360.704922 
L 228.367244 359.28473 
L 228.73638 359.033114 
L 229.475935 359.539108 
L 230.217238 359.004227 
L 231.332456 359.513694 
L 231.705052 359.498303 
L 232.451581 359.022065 
L 233.199878 359.257264 
L 233.574668 358.858846 
L 233.949923 358.270927 
L 234.325606 358.140936 
L 235.455314 358.7579 
L 235.832782 358.901782 
L 236.210678 358.871395 
L 236.58904 358.632171 
L 237.347083 357.793347 
L 237.726783 357.591375 
L 238.487523 356.613405 
L 239.632037 356.731873 
L 240.397315 356.255634 
L 240.780624 356.43006 
L 241.164398 356.740712 
L 241.933322 357.136762 
L 242.318472 356.712062 
L 243.090149 354.25289 
L 243.476675 354.673881 
L 243.863667 355.387923 
L 244.251124 355.491868 
L 244.639045 355.360378 
L 245.416283 355.444039 
L 245.8056 354.936151 
L 246.195382 354.759121 
L 246.585628 354.900319 
L 247.367535 354.817289 
L 247.759195 354.677275 
L 248.15132 354.766619 
L 248.543929 354.209323 
L 249.330542 351.364835 
L 249.724564 350.962155 
L 250.11907 351.966487 
L 250.514041 352.562377 
L 250.909496 352.194898 
L 252.098724 350.368238 
L 252.496094 350.41662 
L 252.893948 350.046694 
L 253.292286 349.059805 
L 253.691089 348.732342 
L 254.090393 348.914029 
L 254.490182 349.245044 
L 254.890454 349.363117 
L 256.09419 348.13803 
L 256.899142 348.37678 
L 257.302353 347.501808 
L 258.110244 343.808393 
L 258.514924 343.637993 
L 258.920107 343.833334 
L 259.325791 343.704211 
L 259.731959 343.891108 
L 260.13863 343.950776 
L 260.953477 342.523086 
L 261.361636 342.157422 
L 261.770315 340.93928 
L 262.179496 339.220354 
L 262.589161 338.570952 
L 262.999347 339.00023 
L 263.410035 339.062739 
L 263.821225 338.006553 
L 264.232936 337.317609 
L 264.645131 337.690297 
L 265.057846 337.428737 
L 265.471082 336.907195 
L 265.884821 336.950998 
L 266.299061 336.275077 
L 266.713823 335.290398 
L 267.129105 334.859384 
L 267.544889 333.578259 
L 267.961195 331.404167 
L 268.378021 330.47742 
L 268.795349 331.327451 
L 269.213216 331.653021 
L 270.050477 329.025973 
L 270.889839 328.952177 
L 271.310311 328.330636 
L 272.152798 326.394506 
L 272.57485 326.048416 
L 272.997405 326.742253 
L 273.420499 328.011302 
L 273.844133 328.412482 
L 274.268287 328.137268 
L 274.692962 328.630633 
L 275.543931 330.521697 
L 276.397039 332.057753 
L 276.824392 332.878266 
L 277.252285 333.969574 
L 278.109689 334.745573 
L 278.539201 335.478952 
L 278.969251 335.357801 
L 280.262658 332.860902 
L 281.560975 328.37515 
L 281.994839 327.439169 
L 282.42926 327.845242 
L 282.864221 328.923685 
L 283.29974 329.326917 
L 283.735817 329.100163 
L 284.172452 328.469388 
L 285.047359 325.917004 
L 285.924517 325.33461 
L 286.363923 324.133753 
L 287.685509 321.863609 
L 288.127166 322.060923 
L 288.569399 321.74964 
L 289.012191 321.640406 
L 289.455541 321.216495 
L 290.789012 318.586212 
L 291.680845 317.06973 
L 292.127617 316.752606 
L 293.02289 318.370508 
L 293.920471 319.034511 
L 294.820357 321.096528 
L 295.271184 322.779938 
L 295.722587 325.493251 
L 297.080276 337.343102 
L 298.443265 348.565571 
L 298.898761 350.252533 
L 300.726713 352.717624 
L 301.185184 353.011544 
L 301.644251 352.868294 
L 302.564188 353.479101 
L 303.486525 352.466403 
L 304.41128 354.367254 
L 304.87455 354.624236 
L 305.338434 354.265834 
L 306.268043 353.216041 
L 306.73375 352.431518 
L 307.667005 349.646382 
L 309.07151 347.27466 
L 310.010921 344.81896 
L 310.481557 344.240355 
L 310.952807 342.951022 
L 311.424689 340.174015 
L 311.897185 338.216417 
L 312.370313 337.656517 
L 313.318448 339.042297 
L 313.793455 338.534962 
L 314.269094 338.21768 
L 314.745365 337.333 
L 315.699787 335.182901 
L 316.177956 333.468079 
L 316.656757 329.708051 
L 317.136209 324.464689 
L 318.096992 318.156618 
L 320.026296 299.040221 
L 320.510231 293.43972 
L 320.994817 290.04212 
L 321.480035 287.794863 
L 321.965923 281.219392 
L 322.452461 269.654226 
L 323.427473 250.666241 
L 324.405127 225.247455 
L 324.405127 225.247455 
" style="fill:none;stroke:#9467bd;stroke-linecap:square;stroke-width:1.5;"/>
   </g>
   <g id="line2d_19">
    <path clip-path="url(#p968bed7fbd)" d="M 45 407.753815 
L 47.619196 407.522957 
L 49.129628 407.334482 
L 50.650215 407.24277 
L 51.031961 407.035906 
L 51.41434 406.611048 
L 51.989117 405.581302 
L 52.181032 405.635445 
L 52.757744 406.332045 
L 53.143043 406.520283 
L 54.496676 406.681765 
L 55.273803 406.46101 
L 56.053552 406.202843 
L 57.62103 406.393607 
L 58.014569 406.263063 
L 58.408796 405.890218 
L 59.001373 405.257311 
L 59.595476 405.113035 
L 60.987649 404.909564 
L 61.187208 404.629772 
L 61.386953 404.007441 
L 61.586866 402.836497 
L 62.187628 396.876805 
L 62.38821 398.301259 
L 62.789933 402.633736 
L 63.192344 404.323381 
L 63.595443 404.821877 
L 64.403725 405.332212 
L 64.606241 405.35368 
L 64.808926 405.259521 
L 65.011777 405.01856 
L 65.418038 403.930094 
L 65.621411 402.883379 
L 65.824988 401.221121 
L 66.028714 398.527145 
L 66.641007 383.830043 
L 66.845458 384.693729 
L 67.459872 398.559583 
L 67.870374 402.66949 
L 68.281583 404.287786 
L 68.693517 404.749818 
L 70.55614 404.807039 
L 70.764013 404.492756 
L 71.180281 403.105476 
L 71.388694 401.75174 
L 71.597293 399.518217 
L 72.015031 390.476233 
L 72.224169 384.984413 
L 72.433512 383.775663 
L 73.27267 400.413394 
L 73.693346 403.056227 
L 74.114785 403.82015 
L 75.807961 404.854316 
L 76.020466 404.697095 
L 76.233139 404.358503 
L 76.65906 402.911398 
L 77.085744 399.589092 
L 77.513191 392.034624 
L 77.727184 386.621809 
L 77.941381 384.513857 
L 78.800069 400.225471 
L 79.230566 402.232872 
L 80.093866 404.363949 
L 80.52667 404.808144 
L 80.960236 404.775784 
L 81.82973 404.265844 
L 82.702349 403.373745 
L 83.139821 402.589301 
L 84.017164 400.155701 
L 84.897651 396.902929 
L 85.339085 393.322536 
L 86.002751 386.584319 
L 86.446175 383.055544 
L 86.890418 375.882287 
L 87.335479 365.727922 
L 87.781321 347.902594 
L 88.899515 274.419376 
L 89.348203 251.946024 
L 89.797728 222.482367 
L 90.022788 220.672991 
L 90.248053 235.370566 
L 91.151194 314.218139 
L 91.604011 337.959592 
L 92.967428 370.188102 
L 94.109338 385.498378 
L 94.567568 387.506726 
L 95.256512 390.454923 
L 96.408986 397.203716 
L 96.640129 397.665432 
L 97.103027 397.39148 
L 97.334801 397.807341 
L 98.031409 400.463591 
L 98.729969 401.257901 
L 99.196754 401.803357 
L 101.543721 403.533255 
L 102.015733 403.933724 
L 102.962436 404.958103 
L 104.15079 405.129846 
L 105.105509 405.626132 
L 105.584199 405.812397 
L 107.025718 405.921314 
L 107.749555 406.02747 
L 108.47542 406.17806 
L 109.44647 406.627464 
L 110.665459 406.619887 
L 111.399619 406.626754 
L 113.120882 406.792261 
L 113.862073 406.72549 
L 116.598096 406.514758 
L 117.349294 406.487923 
L 118.102687 406.524861 
L 118.858238 406.667953 
L 119.363172 406.684449 
L 120.122387 406.593447 
L 120.629758 406.660297 
L 121.138096 406.514916 
L 121.647438 406.265194 
L 122.66908 406.316733 
L 123.694703 406.44846 
L 124.466547 406.626044 
L 125.24066 406.687843 
L 126.017024 406.688395 
L 127.837462 406.305447 
L 128.35988 406.427308 
L 128.88334 406.445935 
L 129.933329 406.56535 
L 130.723531 406.623834 
L 132.5765 406.322574 
L 133.374552 406.439226 
L 134.175003 406.527149 
L 137.671301 406.243095 
L 138.484604 406.382478 
L 141.762352 406.521704 
L 143.139812 406.522177 
L 143.692753 406.504971 
L 145.915695 406.798339 
L 146.753941 406.73796 
L 147.594773 406.773556 
L 148.719868 406.753667 
L 149.284136 406.798339 
L 149.849558 406.785553 
L 151.26818 406.95035 
L 152.980161 406.839854 
L 155.857042 406.94301 
L 156.725903 406.896523 
L 157.597462 406.93859 
L 161.405775 406.584292 
L 164.668754 405.841836 
L 165.266075 405.465202 
L 166.464491 404.331984 
L 167.065588 403.654485 
L 167.969622 403.320391 
L 168.876521 403.15662 
L 169.482713 402.699008 
L 170.394411 401.58568 
L 171.003821 401.414411 
L 172.533039 401.290576 
L 173.454464 401.355216 
L 173.762276 401.242037 
L 174.378866 400.471799 
L 174.996758 399.739604 
L 175.615989 399.510166 
L 175.926088 399.417586 
L 176.54731 399.030613 
L 177.169852 399.525083 
L 178.106176 399.367626 
L 179.359313 399.853336 
L 179.673449 399.892641 
L 179.987919 399.692959 
L 180.933357 398.634247 
L 181.881845 397.910655 
L 182.515901 397.92131 
L 183.151314 397.985634 
L 184.107038 397.762037 
L 184.426288 397.690609 
L 184.745911 397.862036 
L 185.065868 397.887766 
L 185.38616 397.619813 
L 185.706824 397.549174 
L 186.349175 397.970954 
L 186.992939 398.273398 
L 187.638099 398.66566 
L 187.9612 398.59731 
L 188.93264 397.560224 
L 189.257173 397.558172 
L 189.907299 397.136471 
L 190.558838 397.272855 
L 190.885138 397.157544 
L 191.538835 396.484859 
L 191.866214 396.386675 
L 192.193964 396.410826 
L 192.850526 396.263945 
L 193.179355 396.436241 
L 193.838111 397.077671 
L 195.823085 397.498267 
L 196.820528 397.519182 
L 197.487338 397.389823 
L 198.155636 397.440967 
L 198.825404 396.83158 
L 199.496678 396.092203 
L 200.16944 396.167577 
L 200.506379 396.243188 
L 200.843708 396.519192 
L 201.181391 396.488568 
L 201.519465 396.26726 
L 201.857929 396.231586 
L 202.196747 396.363155 
L 202.875554 396.142478 
L 203.555867 396.335058 
L 203.896601 395.990467 
L 204.237725 395.839561 
L 204.579221 396.116354 
L 205.263366 396.992037 
L 205.949055 397.187141 
L 206.292485 397.203479 
L 206.636288 397.040339 
L 207.670057 396.869938 
L 208.361177 396.155501 
L 209.05386 396.428506 
L 210.095813 396.097885 
L 210.443931 395.82125 
L 210.792439 395.265849 
L 211.141338 395.007525 
L 211.840326 395.431041 
L 212.190415 395.069245 
L 212.540895 394.916523 
L 212.891784 395.086214 
L 214.299339 395.016049 
L 215.359223 395.349905 
L 216.422752 394.718103 
L 217.133812 394.811078 
L 217.489946 394.733336 
L 217.846489 394.944226 
L 218.918575 395.917066 
L 219.276773 395.792205 
L 219.635363 395.421254 
L 220.353806 394.131842 
L 220.713642 393.820637 
L 221.073887 393.71756 
L 221.795641 393.049374 
L 222.51907 392.791918 
L 223.607356 393.280942 
L 224.699417 393.077156 
L 225.795292 392.42286 
L 227.262404 391.033607 
L 227.630257 391.000774 
L 227.998537 391.237946 
L 228.73638 392.088688 
L 229.846372 392.431305 
L 230.588549 391.993819 
L 230.960289 392.065957 
L 231.332456 391.939597 
L 231.705052 391.539838 
L 232.451581 391.289011 
L 232.825516 390.737635 
L 233.199878 390.636215 
L 233.574668 390.842449 
L 233.949923 390.845764 
L 235.07831 390.187364 
L 238.10693 389.051147 
L 238.487523 388.803004 
L 238.868581 388.696296 
L 239.250086 388.411611 
L 239.632037 388.391643 
L 240.397315 389.018156 
L 240.780624 388.806793 
L 241.164398 388.292433 
L 241.548637 388.362914 
L 241.933322 388.707662 
L 242.318472 388.704505 
L 243.090149 388.119269 
L 243.476675 388.195038 
L 243.863667 388.098433 
L 244.639045 387.131275 
L 245.027432 387.156847 
L 245.416283 387.3705 
L 246.195382 386.834198 
L 246.585628 386.722045 
L 247.367535 385.218981 
L 247.759195 385.429239 
L 248.15132 385.854413 
L 248.543929 385.741075 
L 249.330542 384.49673 
L 249.724564 383.758536 
L 250.514041 384.172029 
L 250.909496 383.541806 
L 251.305415 382.609928 
L 251.701837 382.369046 
L 252.496094 383.941644 
L 252.893948 383.230364 
L 253.292286 382.045135 
L 253.691089 381.763369 
L 254.090393 382.24316 
L 254.490182 382.975039 
L 254.890454 383.046704 
L 255.291209 382.371967 
L 256.09419 380.648936 
L 256.496415 380.411054 
L 256.899142 379.293148 
L 257.302353 377.246126 
L 257.706047 375.884734 
L 258.110244 375.740615 
L 258.514924 376.556709 
L 258.920107 376.886382 
L 259.731959 375.2965 
L 260.13863 374.795952 
L 260.953477 374.546151 
L 262.179496 373.889804 
L 262.999347 373.799039 
L 263.410035 373.183338 
L 263.821225 372.314601 
L 264.645131 371.025111 
L 265.471082 368.759149 
L 265.884821 367.598781 
L 266.299061 365.417822 
L 266.713823 364.881995 
L 267.129105 366.041731 
L 267.544889 365.813872 
L 267.961195 364.966998 
L 268.378021 364.830693 
L 268.795349 365.166207 
L 269.213216 365.228795 
L 270.050477 363.277353 
L 270.889839 360.805631 
L 271.310311 360.704843 
L 271.731284 360.811156 
L 272.57485 358.675343 
L 272.997405 358.1965 
L 273.420499 358.540459 
L 274.268287 360.678561 
L 274.692962 360.934754 
L 275.118177 360.787321 
L 275.543931 361.829616 
L 275.970224 363.22321 
L 276.397039 363.946013 
L 276.824392 364.956185 
L 277.252285 366.295636 
L 277.680718 366.884028 
L 278.109689 367.197995 
L 278.539201 368.041792 
L 278.969251 368.575252 
L 279.399841 367.700832 
L 280.694885 362.773016 
L 281.127651 361.893703 
L 281.560975 361.464268 
L 281.994839 360.545729 
L 282.42926 359.351738 
L 282.864221 359.33619 
L 283.29974 360.450149 
L 283.735817 360.346125 
L 284.172452 358.524437 
L 284.609627 357.734547 
L 285.047359 358.20976 
L 285.48565 358.239436 
L 286.363923 356.75121 
L 286.803887 356.093678 
L 287.244428 355.766136 
L 287.685509 355.889734 
L 288.127166 355.336148 
L 289.012191 352.864347 
L 289.899448 351.697034 
L 290.343951 350.48789 
L 290.789012 350.604621 
L 291.234631 351.405955 
L 291.680845 351.419057 
L 292.574965 350.055849 
L 293.02289 348.905663 
L 293.471392 349.382612 
L 293.920471 350.876678 
L 294.820357 354.269544 
L 295.271184 355.253197 
L 295.722587 357.307953 
L 296.174567 360.572169 
L 297.080276 368.93247 
L 297.534023 372.231256 
L 297.988346 376.454973 
L 298.443265 379.365838 
L 298.898761 380.306398 
L 299.35487 380.94917 
L 300.726713 384.03525 
L 301.185184 384.032883 
L 301.644251 383.884423 
L 302.564188 383.863429 
L 303.025059 383.930516 
L 303.486525 383.689397 
L 303.948605 383.731228 
L 304.41128 383.888369 
L 305.338434 384.533983 
L 305.802932 383.812443 
L 306.268043 382.846232 
L 306.73375 382.247264 
L 307.667005 378.647771 
L 308.134572 378.582262 
L 308.602734 378.702545 
L 309.07151 377.476432 
L 309.540899 375.108182 
L 310.481557 372.132756 
L 310.952807 370.823613 
L 311.424689 370.014623 
L 311.897185 369.911388 
L 312.370313 370.722746 
L 312.844073 371.289196 
L 313.318448 371.381145 
L 313.793455 371.7577 
L 314.269094 370.376656 
L 315.222269 364.820511 
L 317.136209 349.238651 
L 317.616275 343.824889 
L 318.096992 341.339119 
L 318.57836 338.214917 
L 321.480035 310.099945 
L 321.965923 302.117541 
L 322.939633 279.400229 
L 323.915965 267.559139 
L 324.405127 253.515307 
L 324.405127 253.515307 
" style="fill:none;stroke:#8c564b;stroke-linecap:square;stroke-width:1.5;"/>
   </g>
   <g id="patch_3">
    <path d="M 45 448.56 
L 45 60.48 
" style="fill:none;stroke:#000000;stroke-linecap:square;stroke-linejoin:miter;stroke-width:0.8;"/>
   </g>
   <g id="patch_4">
    <path d="M 324 448.56 
L 324 60.48 
" style="fill:none;stroke:#000000;stroke-linecap:square;stroke-linejoin:miter;stroke-width:0.8;"/>
   </g>
   <g id="patch_5">
    <path d="M 45 448.56 
L 324 448.56 
" style="fill:none;stroke:#000000;stroke-linecap:square;stroke-linejoin:miter;stroke-width:0.8;"/>
   </g>
   <g id="patch_6">
    <path d="M 45 60.48 
L 324 60.48 
" style="fill:none;stroke:#000000;stroke-linecap:square;stroke-linejoin:miter;stroke-width:0.8;"/>
   </g>
   <g id="text_16">
    <!-- EELS spectra of bulk C$_2$Li: -A -->
    <g transform="translate(95.52 54.48)scale(0.12 -0.12)">
     <defs>
      <path d="M 53.515625 70.515625 
L 53.515625 60.890625 
Q 47.90625 63.578125 42.921875 64.890625 
Q 37.9375 66.21875 33.296875 66.21875 
Q 25.25 66.21875 20.875 63.09375 
Q 16.5 59.96875 16.5 54.203125 
Q 16.5 49.359375 19.40625 46.890625 
Q 22.3125 44.4375 30.421875 42.921875 
L 36.375 41.703125 
Q 47.40625 39.59375 52.65625 34.296875 
Q 57.90625 29 57.90625 20.125 
Q 57.90625 9.515625 50.796875 4.046875 
Q 43.703125 -1.421875 29.984375 -1.421875 
Q 24.8125 -1.421875 18.96875 -0.25 
Q 13.140625 0.921875 6.890625 3.21875 
L 6.890625 13.375 
Q 12.890625 10.015625 18.65625 8.296875 
Q 24.421875 6.59375 29.984375 6.59375 
Q 38.421875 6.59375 43.015625 9.90625 
Q 47.609375 13.234375 47.609375 19.390625 
Q 47.609375 24.75 44.3125 27.78125 
Q 41.015625 30.8125 33.5 32.328125 
L 27.484375 33.5 
Q 16.453125 35.6875 11.515625 40.375 
Q 6.59375 45.0625 6.59375 53.421875 
Q 6.59375 63.09375 13.40625 68.65625 
Q 20.21875 74.21875 32.171875 74.21875 
Q 37.3125 74.21875 42.625 73.28125 
Q 47.953125 72.359375 53.515625 70.515625 
z
" id="DejaVuSans-83"/>
      <path d="M 18.109375 8.203125 
L 18.109375 -20.796875 
L 9.078125 -20.796875 
L 9.078125 54.6875 
L 18.109375 54.6875 
L 18.109375 46.390625 
Q 20.953125 51.265625 25.265625 53.625 
Q 29.59375 56 35.59375 56 
Q 45.5625 56 51.78125 48.09375 
Q 58.015625 40.1875 58.015625 27.296875 
Q 58.015625 14.40625 51.78125 6.484375 
Q 45.5625 -1.421875 35.59375 -1.421875 
Q 29.59375 -1.421875 25.265625 0.953125 
Q 20.953125 3.328125 18.109375 8.203125 
z
M 48.6875 27.296875 
Q 48.6875 37.203125 44.609375 42.84375 
Q 40.53125 48.484375 33.40625 48.484375 
Q 26.265625 48.484375 22.1875 42.84375 
Q 18.109375 37.203125 18.109375 27.296875 
Q 18.109375 17.390625 22.1875 11.75 
Q 26.265625 6.109375 33.40625 6.109375 
Q 40.53125 6.109375 44.609375 11.75 
Q 48.6875 17.390625 48.6875 27.296875 
z
" id="DejaVuSans-112"/>
      <path d="M 34.28125 27.484375 
Q 23.390625 27.484375 19.1875 25 
Q 14.984375 22.515625 14.984375 16.5 
Q 14.984375 11.71875 18.140625 8.90625 
Q 21.296875 6.109375 26.703125 6.109375 
Q 34.1875 6.109375 38.703125 11.40625 
Q 43.21875 16.703125 43.21875 25.484375 
L 43.21875 27.484375 
z
M 52.203125 31.203125 
L 52.203125 0 
L 43.21875 0 
L 43.21875 8.296875 
Q 40.140625 3.328125 35.546875 0.953125 
Q 30.953125 -1.421875 24.3125 -1.421875 
Q 15.921875 -1.421875 10.953125 3.296875 
Q 6 8.015625 6 15.921875 
Q 6 25.140625 12.171875 29.828125 
Q 18.359375 34.515625 30.609375 34.515625 
L 43.21875 34.515625 
L 43.21875 35.40625 
Q 43.21875 41.609375 39.140625 45 
Q 35.0625 48.390625 27.6875 48.390625 
Q 23 48.390625 18.546875 47.265625 
Q 14.109375 46.140625 10.015625 43.890625 
L 10.015625 52.203125 
Q 14.9375 54.109375 19.578125 55.046875 
Q 24.21875 56 28.609375 56 
Q 40.484375 56 46.34375 49.84375 
Q 52.203125 43.703125 52.203125 31.203125 
z
" id="DejaVuSans-97"/>
      <path d="M 37.109375 75.984375 
L 37.109375 68.5 
L 28.515625 68.5 
Q 23.6875 68.5 21.796875 66.546875 
Q 19.921875 64.59375 19.921875 59.515625 
L 19.921875 54.6875 
L 34.71875 54.6875 
L 34.71875 47.703125 
L 19.921875 47.703125 
L 19.921875 0 
L 10.890625 0 
L 10.890625 47.703125 
L 2.296875 47.703125 
L 2.296875 54.6875 
L 10.890625 54.6875 
L 10.890625 58.5 
Q 10.890625 67.625 15.140625 71.796875 
Q 19.390625 75.984375 28.609375 75.984375 
z
" id="DejaVuSans-102"/>
      <path d="M 48.6875 27.296875 
Q 48.6875 37.203125 44.609375 42.84375 
Q 40.53125 48.484375 33.40625 48.484375 
Q 26.265625 48.484375 22.1875 42.84375 
Q 18.109375 37.203125 18.109375 27.296875 
Q 18.109375 17.390625 22.1875 11.75 
Q 26.265625 6.109375 33.40625 6.109375 
Q 40.53125 6.109375 44.609375 11.75 
Q 48.6875 17.390625 48.6875 27.296875 
z
M 18.109375 46.390625 
Q 20.953125 51.265625 25.265625 53.625 
Q 29.59375 56 35.59375 56 
Q 45.5625 56 51.78125 48.09375 
Q 58.015625 40.1875 58.015625 27.296875 
Q 58.015625 14.40625 51.78125 6.484375 
Q 45.5625 -1.421875 35.59375 -1.421875 
Q 29.59375 -1.421875 25.265625 0.953125 
Q 20.953125 3.328125 18.109375 8.203125 
L 18.109375 0 
L 9.078125 0 
L 9.078125 75.984375 
L 18.109375 75.984375 
z
" id="DejaVuSans-98"/>
      <path d="M 9.421875 75.984375 
L 18.40625 75.984375 
L 18.40625 0 
L 9.421875 0 
z
" id="DejaVuSans-108"/>
      <path d="M 9.078125 75.984375 
L 18.109375 75.984375 
L 18.109375 31.109375 
L 44.921875 54.6875 
L 56.390625 54.6875 
L 27.390625 29.109375 
L 57.625 0 
L 45.90625 0 
L 18.109375 26.703125 
L 18.109375 0 
L 9.078125 0 
z
" id="DejaVuSans-107"/>
      <path d="M 64.40625 67.28125 
L 64.40625 56.890625 
Q 59.421875 61.53125 53.78125 63.8125 
Q 48.140625 66.109375 41.796875 66.109375 
Q 29.296875 66.109375 22.65625 58.46875 
Q 16.015625 50.828125 16.015625 36.375 
Q 16.015625 21.96875 22.65625 14.328125 
Q 29.296875 6.6875 41.796875 6.6875 
Q 48.140625 6.6875 53.78125 8.984375 
Q 59.421875 11.28125 64.40625 15.921875 
L 64.40625 5.609375 
Q 59.234375 2.09375 53.4375 0.328125 
Q 47.65625 -1.421875 41.21875 -1.421875 
Q 24.65625 -1.421875 15.125 8.703125 
Q 5.609375 18.84375 5.609375 36.375 
Q 5.609375 53.953125 15.125 64.078125 
Q 24.65625 74.21875 41.21875 74.21875 
Q 47.75 74.21875 53.53125 72.484375 
Q 59.328125 70.75 64.40625 67.28125 
z
" id="DejaVuSans-67"/>
      <path d="M 11.71875 12.40625 
L 22.015625 12.40625 
L 22.015625 0 
L 11.71875 0 
z
M 11.71875 51.703125 
L 22.015625 51.703125 
L 22.015625 39.3125 
L 11.71875 39.3125 
z
" id="DejaVuSans-58"/>
      <path d="M 9.8125 0 
L 9.8125 72.90625 
L 55.171875 72.90625 
L 55.171875 64.59375 
L 19.671875 64.59375 
L 19.671875 0 
z
" id="DejaVuSans-915"/>
      <path d="M 4.890625 31.390625 
L 31.203125 31.390625 
L 31.203125 23.390625 
L 4.890625 23.390625 
z
" id="DejaVuSans-45"/>
      <path d="M 34.1875 63.1875 
L 20.796875 26.90625 
L 47.609375 26.90625 
z
M 28.609375 72.90625 
L 39.796875 72.90625 
L 67.578125 0 
L 57.328125 0 
L 50.6875 18.703125 
L 17.828125 18.703125 
L 11.1875 0 
L 0.78125 0 
z
" id="DejaVuSans-65"/>
     </defs>
     <use transform="translate(0 0.015625)" xlink:href="#DejaVuSans-69"/>
     <use transform="translate(63.183594 0.015625)" xlink:href="#DejaVuSans-69"/>
     <use transform="translate(126.367188 0.015625)" xlink:href="#DejaVuSans-76"/>
     <use transform="translate(182.080078 0.015625)" xlink:href="#DejaVuSans-83"/>
     <use transform="translate(245.556641 0.015625)" xlink:href="#DejaVuSans-32"/>
     <use transform="translate(277.34375 0.015625)" xlink:href="#DejaVuSans-115"/>
     <use transform="translate(329.443359 0.015625)" xlink:href="#DejaVuSans-112"/>
     <use transform="translate(392.919922 0.015625)" xlink:href="#DejaVuSans-101"/>
     <use transform="translate(454.443359 0.015625)" xlink:href="#DejaVuSans-99"/>
     <use transform="translate(509.423828 0.015625)" xlink:href="#DejaVuSans-116"/>
     <use transform="translate(548.632812 0.015625)" xlink:href="#DejaVuSans-114"/>
     <use transform="translate(589.746094 0.015625)" xlink:href="#DejaVuSans-97"/>
     <use transform="translate(651.025391 0.015625)" xlink:href="#DejaVuSans-32"/>
     <use transform="translate(682.8125 0.015625)" xlink:href="#DejaVuSans-111"/>
     <use transform="translate(743.994141 0.015625)" xlink:href="#DejaVuSans-102"/>
     <use transform="translate(779.199219 0.015625)" xlink:href="#DejaVuSans-32"/>
     <use transform="translate(810.986328 0.015625)" xlink:href="#DejaVuSans-98"/>
     <use transform="translate(874.462891 0.015625)" xlink:href="#DejaVuSans-117"/>
     <use transform="translate(937.841797 0.015625)" xlink:href="#DejaVuSans-108"/>
     <use transform="translate(965.625 0.015625)" xlink:href="#DejaVuSans-107"/>
     <use transform="translate(1023.535156 0.015625)" xlink:href="#DejaVuSans-32"/>
     <use transform="translate(1055.322266 0.015625)" xlink:href="#DejaVuSans-67"/>
     <use transform="translate(1126.103516 -16.390625)scale(0.7)" xlink:href="#DejaVuSans-50"/>
     <use transform="translate(1173.374023 0.015625)" xlink:href="#DejaVuSans-76"/>
     <use transform="translate(1229.086914 0.015625)" xlink:href="#DejaVuSans-105"/>
     <use transform="translate(1256.870117 0.015625)" xlink:href="#DejaVuSans-58"/>
     <use transform="translate(1290.561523 0.015625)" xlink:href="#DejaVuSans-32"/>
     <use transform="translate(1322.348633 0.015625)" xlink:href="#DejaVuSans-915"/>
     <use transform="translate(1378.061523 0.015625)" xlink:href="#DejaVuSans-45"/>
     <use transform="translate(1414.145508 0.015625)" xlink:href="#DejaVuSans-65"/>
    </g>
   </g>
   <g id="legend_1">
    <g id="patch_7">
     <path d="M 229.3 165.08 
L 317 165.08 
Q 319 165.08 319 163.08 
L 319 67.48 
Q 319 65.48 317 65.48 
L 229.3 65.48 
Q 227.3 65.48 227.3 67.48 
L 227.3 163.08 
Q 227.3 165.08 229.3 165.08 
z
" style="fill:#ffffff;opacity:0.8;stroke:#cccccc;stroke-linejoin:miter;"/>
    </g>
    <g id="line2d_20">
     <path d="M 231.3 74.98 
L 251.3 74.98 
" style="fill:none;stroke:#1f77b4;stroke-linecap:square;stroke-width:1.5;"/>
    </g>
    <g id="line2d_21"/>
    <g id="text_17">
     <!-- 0.05 Ang$^{-1}$ -->
     <g transform="translate(259.3 78.48)scale(0.1 -0.1)">
      <defs>
       <path d="M 10.6875 12.40625 
L 21 12.40625 
L 21 0 
L 10.6875 0 
z
" id="DejaVuSans-46"/>
       <path d="M 10.796875 72.90625 
L 49.515625 72.90625 
L 49.515625 64.59375 
L 19.828125 64.59375 
L 19.828125 46.734375 
Q 21.96875 47.46875 24.109375 47.828125 
Q 26.265625 48.1875 28.421875 48.1875 
Q 40.625 48.1875 47.75 41.5 
Q 54.890625 34.8125 54.890625 23.390625 
Q 54.890625 11.625 47.5625 5.09375 
Q 40.234375 -1.421875 26.90625 -1.421875 
Q 22.3125 -1.421875 17.546875 -0.640625 
Q 12.796875 0.140625 7.71875 1.703125 
L 7.71875 11.625 
Q 12.109375 9.234375 16.796875 8.0625 
Q 21.484375 6.890625 26.703125 6.890625 
Q 35.15625 6.890625 40.078125 11.328125 
Q 45.015625 15.765625 45.015625 23.390625 
Q 45.015625 31 40.078125 35.4375 
Q 35.15625 39.890625 26.703125 39.890625 
Q 22.75 39.890625 18.8125 39.015625 
Q 14.890625 38.140625 10.796875 36.28125 
z
" id="DejaVuSans-53"/>
       <path d="M 10.59375 35.5 
L 73.1875 35.5 
L 73.1875 27.203125 
L 10.59375 27.203125 
z
" id="DejaVuSans-8722"/>
      </defs>
      <use transform="translate(0 0.684375)" xlink:href="#DejaVuSans-48"/>
      <use transform="translate(63.623047 0.684375)" xlink:href="#DejaVuSans-46"/>
      <use transform="translate(95.410156 0.684375)" xlink:href="#DejaVuSans-48"/>
      <use transform="translate(159.033203 0.684375)" xlink:href="#DejaVuSans-53"/>
      <use transform="translate(222.65625 0.684375)" xlink:href="#DejaVuSans-32"/>
      <use transform="translate(254.443359 0.684375)" xlink:href="#DejaVuSans-65"/>
      <use transform="translate(322.851562 0.684375)" xlink:href="#DejaVuSans-110"/>
      <use transform="translate(386.230469 0.684375)" xlink:href="#DejaVuSans-103"/>
      <use transform="translate(450.664062 38.965625)scale(0.7)" xlink:href="#DejaVuSans-8722"/>
      <use transform="translate(509.316406 38.965625)scale(0.7)" xlink:href="#DejaVuSans-49"/>
     </g>
    </g>
    <g id="line2d_22">
     <path d="M 231.3 91.08 
L 251.3 91.08 
" style="fill:none;stroke:#ff7f0e;stroke-linecap:square;stroke-width:1.5;"/>
    </g>
    <g id="line2d_23"/>
    <g id="text_18">
     <!-- 0.10 Ang$^{-1}$ -->
     <g transform="translate(259.3 94.58)scale(0.1 -0.1)">
      <use transform="translate(0 0.684375)" xlink:href="#DejaVuSans-48"/>
      <use transform="translate(63.623047 0.684375)" xlink:href="#DejaVuSans-46"/>
      <use transform="translate(95.410156 0.684375)" xlink:href="#DejaVuSans-49"/>
      <use transform="translate(159.033203 0.684375)" xlink:href="#DejaVuSans-48"/>
      <use transform="translate(222.65625 0.684375)" xlink:href="#DejaVuSans-32"/>
      <use transform="translate(254.443359 0.684375)" xlink:href="#DejaVuSans-65"/>
      <use transform="translate(322.851562 0.684375)" xlink:href="#DejaVuSans-110"/>
      <use transform="translate(386.230469 0.684375)" xlink:href="#DejaVuSans-103"/>
      <use transform="translate(450.664062 38.965625)scale(0.7)" xlink:href="#DejaVuSans-8722"/>
      <use transform="translate(509.316406 38.965625)scale(0.7)" xlink:href="#DejaVuSans-49"/>
     </g>
    </g>
    <g id="line2d_24">
     <path d="M 231.3 107.18 
L 251.3 107.18 
" style="fill:none;stroke:#2ca02c;stroke-linecap:square;stroke-width:1.5;"/>
    </g>
    <g id="line2d_25"/>
    <g id="text_19">
     <!-- 0.15 Ang$^{-1}$ -->
     <g transform="translate(259.3 110.68)scale(0.1 -0.1)">
      <use transform="translate(0 0.684375)" xlink:href="#DejaVuSans-48"/>
      <use transform="translate(63.623047 0.684375)" xlink:href="#DejaVuSans-46"/>
      <use transform="translate(95.410156 0.684375)" xlink:href="#DejaVuSans-49"/>
      <use transform="translate(159.033203 0.684375)" xlink:href="#DejaVuSans-53"/>
      <use transform="translate(222.65625 0.684375)" xlink:href="#DejaVuSans-32"/>
      <use transform="translate(254.443359 0.684375)" xlink:href="#DejaVuSans-65"/>
      <use transform="translate(322.851562 0.684375)" xlink:href="#DejaVuSans-110"/>
      <use transform="translate(386.230469 0.684375)" xlink:href="#DejaVuSans-103"/>
      <use transform="translate(450.664062 38.965625)scale(0.7)" xlink:href="#DejaVuSans-8722"/>
      <use transform="translate(509.316406 38.965625)scale(0.7)" xlink:href="#DejaVuSans-49"/>
     </g>
    </g>
    <g id="line2d_26">
     <path d="M 231.3 123.28 
L 251.3 123.28 
" style="fill:none;stroke:#d62728;stroke-linecap:square;stroke-width:1.5;"/>
    </g>
    <g id="line2d_27"/>
    <g id="text_20">
     <!-- 0.20 Ang$^{-1}$ -->
     <g transform="translate(259.3 126.78)scale(0.1 -0.1)">
      <use transform="translate(0 0.684375)" xlink:href="#DejaVuSans-48"/>
      <use transform="translate(63.623047 0.684375)" xlink:href="#DejaVuSans-46"/>
      <use transform="translate(89.910156 0.684375)" xlink:href="#DejaVuSans-50"/>
      <use transform="translate(153.533203 0.684375)" xlink:href="#DejaVuSans-48"/>
      <use transform="translate(217.15625 0.684375)" xlink:href="#DejaVuSans-32"/>
      <use transform="translate(248.943359 0.684375)" xlink:href="#DejaVuSans-65"/>
      <use transform="translate(317.351562 0.684375)" xlink:href="#DejaVuSans-110"/>
      <use transform="translate(380.730469 0.684375)" xlink:href="#DejaVuSans-103"/>
      <use transform="translate(445.164062 38.965625)scale(0.7)" xlink:href="#DejaVuSans-8722"/>
      <use transform="translate(503.816406 38.965625)scale(0.7)" xlink:href="#DejaVuSans-49"/>
     </g>
    </g>
    <g id="line2d_28">
     <path d="M 231.3 139.38 
L 251.3 139.38 
" style="fill:none;stroke:#9467bd;stroke-linecap:square;stroke-width:1.5;"/>
    </g>
    <g id="line2d_29"/>
    <g id="text_21">
     <!-- 0.25 Ang$^{-1}$ -->
     <g transform="translate(259.3 142.88)scale(0.1 -0.1)">
      <use transform="translate(0 0.684375)" xlink:href="#DejaVuSans-48"/>
      <use transform="translate(63.623047 0.684375)" xlink:href="#DejaVuSans-46"/>
      <use transform="translate(89.910156 0.684375)" xlink:href="#DejaVuSans-50"/>
      <use transform="translate(153.533203 0.684375)" xlink:href="#DejaVuSans-53"/>
      <use transform="translate(217.15625 0.684375)" xlink:href="#DejaVuSans-32"/>
      <use transform="translate(248.943359 0.684375)" xlink:href="#DejaVuSans-65"/>
      <use transform="translate(317.351562 0.684375)" xlink:href="#DejaVuSans-110"/>
      <use transform="translate(380.730469 0.684375)" xlink:href="#DejaVuSans-103"/>
      <use transform="translate(445.164062 38.965625)scale(0.7)" xlink:href="#DejaVuSans-8722"/>
      <use transform="translate(503.816406 38.965625)scale(0.7)" xlink:href="#DejaVuSans-49"/>
     </g>
    </g>
    <g id="line2d_30">
     <path d="M 231.3 155.48 
L 251.3 155.48 
" style="fill:none;stroke:#8c564b;stroke-linecap:square;stroke-width:1.5;"/>
    </g>
    <g id="line2d_31"/>
    <g id="text_22">
     <!-- 0.30 Ang$^{-1}$ -->
     <g transform="translate(259.3 158.98)scale(0.1 -0.1)">
      <use transform="translate(0 0.684375)" xlink:href="#DejaVuSans-48"/>
      <use transform="translate(63.623047 0.684375)" xlink:href="#DejaVuSans-46"/>
      <use transform="translate(95.410156 0.684375)" xlink:href="#DejaVuSans-51"/>
      <use transform="translate(159.033203 0.684375)" xlink:href="#DejaVuSans-48"/>
      <use transform="translate(222.65625 0.684375)" xlink:href="#DejaVuSans-32"/>
      <use transform="translate(254.443359 0.684375)" xlink:href="#DejaVuSans-65"/>
      <use transform="translate(322.851562 0.684375)" xlink:href="#DejaVuSans-110"/>
      <use transform="translate(386.230469 0.684375)" xlink:href="#DejaVuSans-103"/>
      <use transform="translate(450.664062 38.965625)scale(0.7)" xlink:href="#DejaVuSans-8722"/>
      <use transform="translate(509.316406 38.965625)scale(0.7)" xlink:href="#DejaVuSans-49"/>
     </g>
    </g>
   </g>
  </g>
 </g>
 <defs>
  <clipPath id="p968bed7fbd">
   <rect height="388.08" width="279" x="45" y="60.48"/>
  </clipPath>
 </defs>
</svg>
