<?xml version="1.0" encoding="utf-8" standalone="no"?>
<!DOCTYPE svg PUBLIC "-//W3C//DTD SVG 1.1//EN"
  "http://www.w3.org/Graphics/SVG/1.1/DTD/svg11.dtd">
<!-- Created with matplotlib (https://matplotlib.org/) -->
<svg height="504pt" version="1.1" viewBox="0 0 360 504" width="360pt" xmlns="http://www.w3.org/2000/svg" xmlns:xlink="http://www.w3.org/1999/xlink">
 <metadata>
  <rdf:RDF xmlns:cc="http://creativecommons.org/ns#" xmlns:dc="http://purl.org/dc/elements/1.1/" xmlns:rdf="http://www.w3.org/1999/02/22-rdf-syntax-ns#">
   <cc:Work>
    <dc:type rdf:resource="http://purl.org/dc/dcmitype/StillImage"/>
    <dc:date>2021-03-09T18:58:42.303722</dc:date>
    <dc:format>image/svg+xml</dc:format>
    <dc:creator>
     <cc:Agent>
      <dc:title>Matplotlib v3.3.4, https://matplotlib.org/</dc:title>
     </cc:Agent>
    </dc:creator>
   </cc:Work>
  </rdf:RDF>
 </metadata>
 <defs>
  <style type="text/css">*{stroke-linecap:butt;stroke-linejoin:round;}</style>
 </defs>
 <g id="figure_1">
  <g id="patch_1">
   <path d="M 0 504 
L 360 504 
L 360 0 
L 0 0 
z
" style="fill:#ffffff;"/>
  </g>
  <g id="axes_1">
   <g id="patch_2">
    <path d="M 45 448.56 
L 324 448.56 
L 324 60.48 
L 45 60.48 
z
" style="fill:#ffffff;"/>
   </g>
   <g id="matplotlib.axis_1">
    <g id="xtick_1">
     <g id="line2d_1">
      <defs>
       <path d="M 0 0 
L 0 3.5 
" id="m1d5572d7ee" style="stroke:#000000;stroke-width:0.8;"/>
      </defs>
      <g>
       <use style="stroke:#000000;stroke-width:0.8;" x="45" xlink:href="#m1d5572d7ee" y="448.56"/>
      </g>
     </g>
     <g id="text_1">
      <!-- 0 -->
      <g transform="translate(41.81875 463.158437)scale(0.1 -0.1)">
       <defs>
        <path d="M 31.78125 66.40625 
Q 24.171875 66.40625 20.328125 58.90625 
Q 16.5 51.421875 16.5 36.375 
Q 16.5 21.390625 20.328125 13.890625 
Q 24.171875 6.390625 31.78125 6.390625 
Q 39.453125 6.390625 43.28125 13.890625 
Q 47.125 21.390625 47.125 36.375 
Q 47.125 51.421875 43.28125 58.90625 
Q 39.453125 66.40625 31.78125 66.40625 
z
M 31.78125 74.21875 
Q 44.046875 74.21875 50.515625 64.515625 
Q 56.984375 54.828125 56.984375 36.375 
Q 56.984375 17.96875 50.515625 8.265625 
Q 44.046875 -1.421875 31.78125 -1.421875 
Q 19.53125 -1.421875 13.0625 8.265625 
Q 6.59375 17.96875 6.59375 36.375 
Q 6.59375 54.828125 13.0625 64.515625 
Q 19.53125 74.21875 31.78125 74.21875 
z
" id="DejaVuSans-48"/>
       </defs>
       <use xlink:href="#DejaVuSans-48"/>
      </g>
     </g>
    </g>
    <g id="xtick_2">
     <g id="line2d_2">
      <g>
       <use style="stroke:#000000;stroke-width:0.8;" x="82.2" xlink:href="#m1d5572d7ee" y="448.56"/>
      </g>
     </g>
     <g id="text_2">
      <!-- 2 -->
      <g transform="translate(79.01875 463.158437)scale(0.1 -0.1)">
       <defs>
        <path d="M 19.1875 8.296875 
L 53.609375 8.296875 
L 53.609375 0 
L 7.328125 0 
L 7.328125 8.296875 
Q 12.9375 14.109375 22.625 23.890625 
Q 32.328125 33.6875 34.8125 36.53125 
Q 39.546875 41.84375 41.421875 45.53125 
Q 43.3125 49.21875 43.3125 52.78125 
Q 43.3125 58.59375 39.234375 62.25 
Q 35.15625 65.921875 28.609375 65.921875 
Q 23.96875 65.921875 18.8125 64.3125 
Q 13.671875 62.703125 7.8125 59.421875 
L 7.8125 69.390625 
Q 13.765625 71.78125 18.9375 73 
Q 24.125 74.21875 28.421875 74.21875 
Q 39.75 74.21875 46.484375 68.546875 
Q 53.21875 62.890625 53.21875 53.421875 
Q 53.21875 48.921875 51.53125 44.890625 
Q 49.859375 40.875 45.40625 35.40625 
Q 44.1875 33.984375 37.640625 27.21875 
Q 31.109375 20.453125 19.1875 8.296875 
z
" id="DejaVuSans-50"/>
       </defs>
       <use xlink:href="#DejaVuSans-50"/>
      </g>
     </g>
    </g>
    <g id="xtick_3">
     <g id="line2d_3">
      <g>
       <use style="stroke:#000000;stroke-width:0.8;" x="119.4" xlink:href="#m1d5572d7ee" y="448.56"/>
      </g>
     </g>
     <g id="text_3">
      <!-- 4 -->
      <g transform="translate(116.21875 463.158437)scale(0.1 -0.1)">
       <defs>
        <path d="M 37.796875 64.3125 
L 12.890625 25.390625 
L 37.796875 25.390625 
z
M 35.203125 72.90625 
L 47.609375 72.90625 
L 47.609375 25.390625 
L 58.015625 25.390625 
L 58.015625 17.1875 
L 47.609375 17.1875 
L 47.609375 0 
L 37.796875 0 
L 37.796875 17.1875 
L 4.890625 17.1875 
L 4.890625 26.703125 
z
" id="DejaVuSans-52"/>
       </defs>
       <use xlink:href="#DejaVuSans-52"/>
      </g>
     </g>
    </g>
    <g id="xtick_4">
     <g id="line2d_4">
      <g>
       <use style="stroke:#000000;stroke-width:0.8;" x="156.6" xlink:href="#m1d5572d7ee" y="448.56"/>
      </g>
     </g>
     <g id="text_4">
      <!-- 6 -->
      <g transform="translate(153.41875 463.158437)scale(0.1 -0.1)">
       <defs>
        <path d="M 33.015625 40.375 
Q 26.375 40.375 22.484375 35.828125 
Q 18.609375 31.296875 18.609375 23.390625 
Q 18.609375 15.53125 22.484375 10.953125 
Q 26.375 6.390625 33.015625 6.390625 
Q 39.65625 6.390625 43.53125 10.953125 
Q 47.40625 15.53125 47.40625 23.390625 
Q 47.40625 31.296875 43.53125 35.828125 
Q 39.65625 40.375 33.015625 40.375 
z
M 52.59375 71.296875 
L 52.59375 62.3125 
Q 48.875 64.0625 45.09375 64.984375 
Q 41.3125 65.921875 37.59375 65.921875 
Q 27.828125 65.921875 22.671875 59.328125 
Q 17.53125 52.734375 16.796875 39.40625 
Q 19.671875 43.65625 24.015625 45.921875 
Q 28.375 48.1875 33.59375 48.1875 
Q 44.578125 48.1875 50.953125 41.515625 
Q 57.328125 34.859375 57.328125 23.390625 
Q 57.328125 12.15625 50.6875 5.359375 
Q 44.046875 -1.421875 33.015625 -1.421875 
Q 20.359375 -1.421875 13.671875 8.265625 
Q 6.984375 17.96875 6.984375 36.375 
Q 6.984375 53.65625 15.1875 63.9375 
Q 23.390625 74.21875 37.203125 74.21875 
Q 40.921875 74.21875 44.703125 73.484375 
Q 48.484375 72.75 52.59375 71.296875 
z
" id="DejaVuSans-54"/>
       </defs>
       <use xlink:href="#DejaVuSans-54"/>
      </g>
     </g>
    </g>
    <g id="xtick_5">
     <g id="line2d_5">
      <g>
       <use style="stroke:#000000;stroke-width:0.8;" x="193.8" xlink:href="#m1d5572d7ee" y="448.56"/>
      </g>
     </g>
     <g id="text_5">
      <!-- 8 -->
      <g transform="translate(190.61875 463.158437)scale(0.1 -0.1)">
       <defs>
        <path d="M 31.78125 34.625 
Q 24.75 34.625 20.71875 30.859375 
Q 16.703125 27.09375 16.703125 20.515625 
Q 16.703125 13.921875 20.71875 10.15625 
Q 24.75 6.390625 31.78125 6.390625 
Q 38.8125 6.390625 42.859375 10.171875 
Q 46.921875 13.96875 46.921875 20.515625 
Q 46.921875 27.09375 42.890625 30.859375 
Q 38.875 34.625 31.78125 34.625 
z
M 21.921875 38.8125 
Q 15.578125 40.375 12.03125 44.71875 
Q 8.5 49.078125 8.5 55.328125 
Q 8.5 64.0625 14.71875 69.140625 
Q 20.953125 74.21875 31.78125 74.21875 
Q 42.671875 74.21875 48.875 69.140625 
Q 55.078125 64.0625 55.078125 55.328125 
Q 55.078125 49.078125 51.53125 44.71875 
Q 48 40.375 41.703125 38.8125 
Q 48.828125 37.15625 52.796875 32.3125 
Q 56.78125 27.484375 56.78125 20.515625 
Q 56.78125 9.90625 50.3125 4.234375 
Q 43.84375 -1.421875 31.78125 -1.421875 
Q 19.734375 -1.421875 13.25 4.234375 
Q 6.78125 9.90625 6.78125 20.515625 
Q 6.78125 27.484375 10.78125 32.3125 
Q 14.796875 37.15625 21.921875 38.8125 
z
M 18.3125 54.390625 
Q 18.3125 48.734375 21.84375 45.5625 
Q 25.390625 42.390625 31.78125 42.390625 
Q 38.140625 42.390625 41.71875 45.5625 
Q 45.3125 48.734375 45.3125 54.390625 
Q 45.3125 60.0625 41.71875 63.234375 
Q 38.140625 66.40625 31.78125 66.40625 
Q 25.390625 66.40625 21.84375 63.234375 
Q 18.3125 60.0625 18.3125 54.390625 
z
" id="DejaVuSans-56"/>
       </defs>
       <use xlink:href="#DejaVuSans-56"/>
      </g>
     </g>
    </g>
    <g id="xtick_6">
     <g id="line2d_6">
      <g>
       <use style="stroke:#000000;stroke-width:0.8;" x="231" xlink:href="#m1d5572d7ee" y="448.56"/>
      </g>
     </g>
     <g id="text_6">
      <!-- 10 -->
      <g transform="translate(224.6375 463.158437)scale(0.1 -0.1)">
       <defs>
        <path d="M 12.40625 8.296875 
L 28.515625 8.296875 
L 28.515625 63.921875 
L 10.984375 60.40625 
L 10.984375 69.390625 
L 28.421875 72.90625 
L 38.28125 72.90625 
L 38.28125 8.296875 
L 54.390625 8.296875 
L 54.390625 0 
L 12.40625 0 
z
" id="DejaVuSans-49"/>
       </defs>
       <use xlink:href="#DejaVuSans-49"/>
       <use x="63.623047" xlink:href="#DejaVuSans-48"/>
      </g>
     </g>
    </g>
    <g id="xtick_7">
     <g id="line2d_7">
      <g>
       <use style="stroke:#000000;stroke-width:0.8;" x="268.2" xlink:href="#m1d5572d7ee" y="448.56"/>
      </g>
     </g>
     <g id="text_7">
      <!-- 12 -->
      <g transform="translate(261.8375 463.158437)scale(0.1 -0.1)">
       <use xlink:href="#DejaVuSans-49"/>
       <use x="63.623047" xlink:href="#DejaVuSans-50"/>
      </g>
     </g>
    </g>
    <g id="xtick_8">
     <g id="line2d_8">
      <g>
       <use style="stroke:#000000;stroke-width:0.8;" x="305.4" xlink:href="#m1d5572d7ee" y="448.56"/>
      </g>
     </g>
     <g id="text_8">
      <!-- 14 -->
      <g transform="translate(299.0375 463.158437)scale(0.1 -0.1)">
       <use xlink:href="#DejaVuSans-49"/>
       <use x="63.623047" xlink:href="#DejaVuSans-52"/>
      </g>
     </g>
    </g>
    <g id="text_9">
     <!-- Energy [eV] -->
     <g transform="translate(155.00625 476.836563)scale(0.1 -0.1)">
      <defs>
       <path d="M 9.8125 72.90625 
L 55.90625 72.90625 
L 55.90625 64.59375 
L 19.671875 64.59375 
L 19.671875 43.015625 
L 54.390625 43.015625 
L 54.390625 34.71875 
L 19.671875 34.71875 
L 19.671875 8.296875 
L 56.78125 8.296875 
L 56.78125 0 
L 9.8125 0 
z
" id="DejaVuSans-69"/>
       <path d="M 54.890625 33.015625 
L 54.890625 0 
L 45.90625 0 
L 45.90625 32.71875 
Q 45.90625 40.484375 42.875 44.328125 
Q 39.84375 48.1875 33.796875 48.1875 
Q 26.515625 48.1875 22.3125 43.546875 
Q 18.109375 38.921875 18.109375 30.90625 
L 18.109375 0 
L 9.078125 0 
L 9.078125 54.6875 
L 18.109375 54.6875 
L 18.109375 46.1875 
Q 21.34375 51.125 25.703125 53.5625 
Q 30.078125 56 35.796875 56 
Q 45.21875 56 50.046875 50.171875 
Q 54.890625 44.34375 54.890625 33.015625 
z
" id="DejaVuSans-110"/>
       <path d="M 56.203125 29.59375 
L 56.203125 25.203125 
L 14.890625 25.203125 
Q 15.484375 15.921875 20.484375 11.0625 
Q 25.484375 6.203125 34.421875 6.203125 
Q 39.59375 6.203125 44.453125 7.46875 
Q 49.3125 8.734375 54.109375 11.28125 
L 54.109375 2.78125 
Q 49.265625 0.734375 44.1875 -0.34375 
Q 39.109375 -1.421875 33.890625 -1.421875 
Q 20.796875 -1.421875 13.15625 6.1875 
Q 5.515625 13.8125 5.515625 26.8125 
Q 5.515625 40.234375 12.765625 48.109375 
Q 20.015625 56 32.328125 56 
Q 43.359375 56 49.78125 48.890625 
Q 56.203125 41.796875 56.203125 29.59375 
z
M 47.21875 32.234375 
Q 47.125 39.59375 43.09375 43.984375 
Q 39.0625 48.390625 32.421875 48.390625 
Q 24.90625 48.390625 20.390625 44.140625 
Q 15.875 39.890625 15.1875 32.171875 
z
" id="DejaVuSans-101"/>
       <path d="M 41.109375 46.296875 
Q 39.59375 47.171875 37.8125 47.578125 
Q 36.03125 48 33.890625 48 
Q 26.265625 48 22.1875 43.046875 
Q 18.109375 38.09375 18.109375 28.8125 
L 18.109375 0 
L 9.078125 0 
L 9.078125 54.6875 
L 18.109375 54.6875 
L 18.109375 46.1875 
Q 20.953125 51.171875 25.484375 53.578125 
Q 30.03125 56 36.53125 56 
Q 37.453125 56 38.578125 55.875 
Q 39.703125 55.765625 41.0625 55.515625 
z
" id="DejaVuSans-114"/>
       <path d="M 45.40625 27.984375 
Q 45.40625 37.75 41.375 43.109375 
Q 37.359375 48.484375 30.078125 48.484375 
Q 22.859375 48.484375 18.828125 43.109375 
Q 14.796875 37.75 14.796875 27.984375 
Q 14.796875 18.265625 18.828125 12.890625 
Q 22.859375 7.515625 30.078125 7.515625 
Q 37.359375 7.515625 41.375 12.890625 
Q 45.40625 18.265625 45.40625 27.984375 
z
M 54.390625 6.78125 
Q 54.390625 -7.171875 48.1875 -13.984375 
Q 42 -20.796875 29.203125 -20.796875 
Q 24.46875 -20.796875 20.265625 -20.09375 
Q 16.0625 -19.390625 12.109375 -17.921875 
L 12.109375 -9.1875 
Q 16.0625 -11.328125 19.921875 -12.34375 
Q 23.78125 -13.375 27.78125 -13.375 
Q 36.625 -13.375 41.015625 -8.765625 
Q 45.40625 -4.15625 45.40625 5.171875 
L 45.40625 9.625 
Q 42.625 4.78125 38.28125 2.390625 
Q 33.9375 0 27.875 0 
Q 17.828125 0 11.671875 7.65625 
Q 5.515625 15.328125 5.515625 27.984375 
Q 5.515625 40.671875 11.671875 48.328125 
Q 17.828125 56 27.875 56 
Q 33.9375 56 38.28125 53.609375 
Q 42.625 51.21875 45.40625 46.390625 
L 45.40625 54.6875 
L 54.390625 54.6875 
z
" id="DejaVuSans-103"/>
       <path d="M 32.171875 -5.078125 
Q 28.375 -14.84375 24.75 -17.8125 
Q 21.140625 -20.796875 15.09375 -20.796875 
L 7.90625 -20.796875 
L 7.90625 -13.28125 
L 13.1875 -13.28125 
Q 16.890625 -13.28125 18.9375 -11.515625 
Q 21 -9.765625 23.484375 -3.21875 
L 25.09375 0.875 
L 2.984375 54.6875 
L 12.5 54.6875 
L 29.59375 11.921875 
L 46.6875 54.6875 
L 56.203125 54.6875 
z
" id="DejaVuSans-121"/>
       <path id="DejaVuSans-32"/>
       <path d="M 8.59375 75.984375 
L 29.296875 75.984375 
L 29.296875 69 
L 17.578125 69 
L 17.578125 -6.203125 
L 29.296875 -6.203125 
L 29.296875 -13.1875 
L 8.59375 -13.1875 
z
" id="DejaVuSans-91"/>
       <path d="M 28.609375 0 
L 0.78125 72.90625 
L 11.078125 72.90625 
L 34.1875 11.53125 
L 57.328125 72.90625 
L 67.578125 72.90625 
L 39.796875 0 
z
" id="DejaVuSans-86"/>
       <path d="M 30.421875 75.984375 
L 30.421875 -13.1875 
L 9.71875 -13.1875 
L 9.71875 -6.203125 
L 21.390625 -6.203125 
L 21.390625 69 
L 9.71875 69 
L 9.71875 75.984375 
z
" id="DejaVuSans-93"/>
      </defs>
      <use xlink:href="#DejaVuSans-69"/>
      <use x="63.183594" xlink:href="#DejaVuSans-110"/>
      <use x="126.5625" xlink:href="#DejaVuSans-101"/>
      <use x="188.085938" xlink:href="#DejaVuSans-114"/>
      <use x="227.449219" xlink:href="#DejaVuSans-103"/>
      <use x="290.925781" xlink:href="#DejaVuSans-121"/>
      <use x="350.105469" xlink:href="#DejaVuSans-32"/>
      <use x="381.892578" xlink:href="#DejaVuSans-91"/>
      <use x="420.90625" xlink:href="#DejaVuSans-101"/>
      <use x="482.429688" xlink:href="#DejaVuSans-86"/>
      <use x="550.837891" xlink:href="#DejaVuSans-93"/>
     </g>
    </g>
   </g>
   <g id="matplotlib.axis_2">
    <g id="ytick_1">
     <g id="line2d_9">
      <defs>
       <path d="M 0 0 
L -3.5 0 
" id="m058e332dd6" style="stroke:#000000;stroke-width:0.8;"/>
      </defs>
      <g>
       <use style="stroke:#000000;stroke-width:0.8;" x="45" xlink:href="#m058e332dd6" y="411.568362"/>
      </g>
     </g>
     <g id="text_10">
      <!-- 0 -->
      <g transform="translate(31.6375 415.367581)scale(0.1 -0.1)">
       <use xlink:href="#DejaVuSans-48"/>
      </g>
     </g>
    </g>
    <g id="ytick_2">
     <g id="line2d_10">
      <g>
       <use style="stroke:#000000;stroke-width:0.8;" x="45" xlink:href="#m058e332dd6" y="363.189268"/>
      </g>
     </g>
     <g id="text_11">
      <!-- 1 -->
      <g transform="translate(31.6375 366.988486)scale(0.1 -0.1)">
       <use xlink:href="#DejaVuSans-49"/>
      </g>
     </g>
    </g>
    <g id="ytick_3">
     <g id="line2d_11">
      <g>
       <use style="stroke:#000000;stroke-width:0.8;" x="45" xlink:href="#m058e332dd6" y="314.810173"/>
      </g>
     </g>
     <g id="text_12">
      <!-- 2 -->
      <g transform="translate(31.6375 318.609392)scale(0.1 -0.1)">
       <use xlink:href="#DejaVuSans-50"/>
      </g>
     </g>
    </g>
    <g id="ytick_4">
     <g id="line2d_12">
      <g>
       <use style="stroke:#000000;stroke-width:0.8;" x="45" xlink:href="#m058e332dd6" y="266.431078"/>
      </g>
     </g>
     <g id="text_13">
      <!-- 3 -->
      <g transform="translate(31.6375 270.230297)scale(0.1 -0.1)">
       <defs>
        <path d="M 40.578125 39.3125 
Q 47.65625 37.796875 51.625 33 
Q 55.609375 28.21875 55.609375 21.1875 
Q 55.609375 10.40625 48.1875 4.484375 
Q 40.765625 -1.421875 27.09375 -1.421875 
Q 22.515625 -1.421875 17.65625 -0.515625 
Q 12.796875 0.390625 7.625 2.203125 
L 7.625 11.71875 
Q 11.71875 9.328125 16.59375 8.109375 
Q 21.484375 6.890625 26.8125 6.890625 
Q 36.078125 6.890625 40.9375 10.546875 
Q 45.796875 14.203125 45.796875 21.1875 
Q 45.796875 27.640625 41.28125 31.265625 
Q 36.765625 34.90625 28.71875 34.90625 
L 20.21875 34.90625 
L 20.21875 43.015625 
L 29.109375 43.015625 
Q 36.375 43.015625 40.234375 45.921875 
Q 44.09375 48.828125 44.09375 54.296875 
Q 44.09375 59.90625 40.109375 62.90625 
Q 36.140625 65.921875 28.71875 65.921875 
Q 24.65625 65.921875 20.015625 65.03125 
Q 15.375 64.15625 9.8125 62.3125 
L 9.8125 71.09375 
Q 15.4375 72.65625 20.34375 73.4375 
Q 25.25 74.21875 29.59375 74.21875 
Q 40.828125 74.21875 47.359375 69.109375 
Q 53.90625 64.015625 53.90625 55.328125 
Q 53.90625 49.265625 50.4375 45.09375 
Q 46.96875 40.921875 40.578125 39.3125 
z
" id="DejaVuSans-51"/>
       </defs>
       <use xlink:href="#DejaVuSans-51"/>
      </g>
     </g>
    </g>
    <g id="ytick_5">
     <g id="line2d_13">
      <g>
       <use style="stroke:#000000;stroke-width:0.8;" x="45" xlink:href="#m058e332dd6" y="218.051984"/>
      </g>
     </g>
     <g id="text_14">
      <!-- 4 -->
      <g transform="translate(31.6375 221.851202)scale(0.1 -0.1)">
       <use xlink:href="#DejaVuSans-52"/>
      </g>
     </g>
    </g>
    <g id="ytick_6">
     <g id="line2d_14">
      <g>
       <use style="stroke:#000000;stroke-width:0.8;" x="45" xlink:href="#m058e332dd6" y="169.672889"/>
      </g>
     </g>
     <g id="text_15">
      <!-- 5 -->
      <g transform="translate(31.6375 173.472108)scale(0.1 -0.1)">
       <defs>
        <path d="M 10.796875 72.90625 
L 49.515625 72.90625 
L 49.515625 64.59375 
L 19.828125 64.59375 
L 19.828125 46.734375 
Q 21.96875 47.46875 24.109375 47.828125 
Q 26.265625 48.1875 28.421875 48.1875 
Q 40.625 48.1875 47.75 41.5 
Q 54.890625 34.8125 54.890625 23.390625 
Q 54.890625 11.625 47.5625 5.09375 
Q 40.234375 -1.421875 26.90625 -1.421875 
Q 22.3125 -1.421875 17.546875 -0.640625 
Q 12.796875 0.140625 7.71875 1.703125 
L 7.71875 11.625 
Q 12.109375 9.234375 16.796875 8.0625 
Q 21.484375 6.890625 26.703125 6.890625 
Q 35.15625 6.890625 40.078125 11.328125 
Q 45.015625 15.765625 45.015625 23.390625 
Q 45.015625 31 40.078125 35.4375 
Q 35.15625 39.890625 26.703125 39.890625 
Q 22.75 39.890625 18.8125 39.015625 
Q 14.890625 38.140625 10.796875 36.28125 
z
" id="DejaVuSans-53"/>
       </defs>
       <use xlink:href="#DejaVuSans-53"/>
      </g>
     </g>
    </g>
    <g id="ytick_7">
     <g id="line2d_15">
      <g>
       <use style="stroke:#000000;stroke-width:0.8;" x="45" xlink:href="#m058e332dd6" y="121.293794"/>
      </g>
     </g>
     <g id="text_16">
      <!-- 6 -->
      <g transform="translate(31.6375 125.093013)scale(0.1 -0.1)">
       <use xlink:href="#DejaVuSans-54"/>
      </g>
     </g>
    </g>
    <g id="ytick_8">
     <g id="line2d_16">
      <g>
       <use style="stroke:#000000;stroke-width:0.8;" x="45" xlink:href="#m058e332dd6" y="72.9147"/>
      </g>
     </g>
     <g id="text_17">
      <!-- 7 -->
      <g transform="translate(31.6375 76.713918)scale(0.1 -0.1)">
       <defs>
        <path d="M 8.203125 72.90625 
L 55.078125 72.90625 
L 55.078125 68.703125 
L 28.609375 0 
L 18.3125 0 
L 43.21875 64.59375 
L 8.203125 64.59375 
z
" id="DejaVuSans-55"/>
       </defs>
       <use xlink:href="#DejaVuSans-55"/>
      </g>
     </g>
    </g>
    <g id="text_18">
     <!-- Loss Function -->
     <g transform="translate(25.557812 288.341094)rotate(-90)scale(0.1 -0.1)">
      <defs>
       <path d="M 9.8125 72.90625 
L 19.671875 72.90625 
L 19.671875 8.296875 
L 55.171875 8.296875 
L 55.171875 0 
L 9.8125 0 
z
" id="DejaVuSans-76"/>
       <path d="M 30.609375 48.390625 
Q 23.390625 48.390625 19.1875 42.75 
Q 14.984375 37.109375 14.984375 27.296875 
Q 14.984375 17.484375 19.15625 11.84375 
Q 23.34375 6.203125 30.609375 6.203125 
Q 37.796875 6.203125 41.984375 11.859375 
Q 46.1875 17.53125 46.1875 27.296875 
Q 46.1875 37.015625 41.984375 42.703125 
Q 37.796875 48.390625 30.609375 48.390625 
z
M 30.609375 56 
Q 42.328125 56 49.015625 48.375 
Q 55.71875 40.765625 55.71875 27.296875 
Q 55.71875 13.875 49.015625 6.21875 
Q 42.328125 -1.421875 30.609375 -1.421875 
Q 18.84375 -1.421875 12.171875 6.21875 
Q 5.515625 13.875 5.515625 27.296875 
Q 5.515625 40.765625 12.171875 48.375 
Q 18.84375 56 30.609375 56 
z
" id="DejaVuSans-111"/>
       <path d="M 44.28125 53.078125 
L 44.28125 44.578125 
Q 40.484375 46.53125 36.375 47.5 
Q 32.28125 48.484375 27.875 48.484375 
Q 21.1875 48.484375 17.84375 46.4375 
Q 14.5 44.390625 14.5 40.28125 
Q 14.5 37.15625 16.890625 35.375 
Q 19.28125 33.59375 26.515625 31.984375 
L 29.59375 31.296875 
Q 39.15625 29.25 43.1875 25.515625 
Q 47.21875 21.78125 47.21875 15.09375 
Q 47.21875 7.46875 41.1875 3.015625 
Q 35.15625 -1.421875 24.609375 -1.421875 
Q 20.21875 -1.421875 15.453125 -0.5625 
Q 10.6875 0.296875 5.421875 2 
L 5.421875 11.28125 
Q 10.40625 8.6875 15.234375 7.390625 
Q 20.0625 6.109375 24.8125 6.109375 
Q 31.15625 6.109375 34.5625 8.28125 
Q 37.984375 10.453125 37.984375 14.40625 
Q 37.984375 18.0625 35.515625 20.015625 
Q 33.0625 21.96875 24.703125 23.78125 
L 21.578125 24.515625 
Q 13.234375 26.265625 9.515625 29.90625 
Q 5.8125 33.546875 5.8125 39.890625 
Q 5.8125 47.609375 11.28125 51.796875 
Q 16.75 56 26.8125 56 
Q 31.78125 56 36.171875 55.265625 
Q 40.578125 54.546875 44.28125 53.078125 
z
" id="DejaVuSans-115"/>
       <path d="M 9.8125 72.90625 
L 51.703125 72.90625 
L 51.703125 64.59375 
L 19.671875 64.59375 
L 19.671875 43.109375 
L 48.578125 43.109375 
L 48.578125 34.8125 
L 19.671875 34.8125 
L 19.671875 0 
L 9.8125 0 
z
" id="DejaVuSans-70"/>
       <path d="M 8.5 21.578125 
L 8.5 54.6875 
L 17.484375 54.6875 
L 17.484375 21.921875 
Q 17.484375 14.15625 20.5 10.265625 
Q 23.53125 6.390625 29.59375 6.390625 
Q 36.859375 6.390625 41.078125 11.03125 
Q 45.3125 15.671875 45.3125 23.6875 
L 45.3125 54.6875 
L 54.296875 54.6875 
L 54.296875 0 
L 45.3125 0 
L 45.3125 8.40625 
Q 42.046875 3.421875 37.71875 1 
Q 33.40625 -1.421875 27.6875 -1.421875 
Q 18.265625 -1.421875 13.375 4.4375 
Q 8.5 10.296875 8.5 21.578125 
z
M 31.109375 56 
z
" id="DejaVuSans-117"/>
       <path d="M 48.78125 52.59375 
L 48.78125 44.1875 
Q 44.96875 46.296875 41.140625 47.34375 
Q 37.3125 48.390625 33.40625 48.390625 
Q 24.65625 48.390625 19.8125 42.84375 
Q 14.984375 37.3125 14.984375 27.296875 
Q 14.984375 17.28125 19.8125 11.734375 
Q 24.65625 6.203125 33.40625 6.203125 
Q 37.3125 6.203125 41.140625 7.25 
Q 44.96875 8.296875 48.78125 10.40625 
L 48.78125 2.09375 
Q 45.015625 0.34375 40.984375 -0.53125 
Q 36.96875 -1.421875 32.421875 -1.421875 
Q 20.0625 -1.421875 12.78125 6.34375 
Q 5.515625 14.109375 5.515625 27.296875 
Q 5.515625 40.671875 12.859375 48.328125 
Q 20.21875 56 33.015625 56 
Q 37.15625 56 41.109375 55.140625 
Q 45.0625 54.296875 48.78125 52.59375 
z
" id="DejaVuSans-99"/>
       <path d="M 18.3125 70.21875 
L 18.3125 54.6875 
L 36.8125 54.6875 
L 36.8125 47.703125 
L 18.3125 47.703125 
L 18.3125 18.015625 
Q 18.3125 11.328125 20.140625 9.421875 
Q 21.96875 7.515625 27.59375 7.515625 
L 36.8125 7.515625 
L 36.8125 0 
L 27.59375 0 
Q 17.1875 0 13.234375 3.875 
Q 9.28125 7.765625 9.28125 18.015625 
L 9.28125 47.703125 
L 2.6875 47.703125 
L 2.6875 54.6875 
L 9.28125 54.6875 
L 9.28125 70.21875 
z
" id="DejaVuSans-116"/>
       <path d="M 9.421875 54.6875 
L 18.40625 54.6875 
L 18.40625 0 
L 9.421875 0 
z
M 9.421875 75.984375 
L 18.40625 75.984375 
L 18.40625 64.59375 
L 9.421875 64.59375 
z
" id="DejaVuSans-105"/>
      </defs>
      <use xlink:href="#DejaVuSans-76"/>
      <use x="53.962891" xlink:href="#DejaVuSans-111"/>
      <use x="115.144531" xlink:href="#DejaVuSans-115"/>
      <use x="167.244141" xlink:href="#DejaVuSans-115"/>
      <use x="219.34375" xlink:href="#DejaVuSans-32"/>
      <use x="251.130859" xlink:href="#DejaVuSans-70"/>
      <use x="303.150391" xlink:href="#DejaVuSans-117"/>
      <use x="366.529297" xlink:href="#DejaVuSans-110"/>
      <use x="429.908203" xlink:href="#DejaVuSans-99"/>
      <use x="484.888672" xlink:href="#DejaVuSans-116"/>
      <use x="524.097656" xlink:href="#DejaVuSans-105"/>
      <use x="551.880859" xlink:href="#DejaVuSans-111"/>
      <use x="613.0625" xlink:href="#DejaVuSans-110"/>
     </g>
    </g>
   </g>
   <g id="line2d_17">
    <path clip-path="url(#p826e6cf11f)" d="M 45 334.161811 
L 49.888657 334.097079 
L 66.845458 334.108207 
L 92.284771 333.750975 
L 94.109338 333.687163 
L 95.256512 333.658233 
L 96.640129 333.537914 
L 98.96325 333.488664 
L 100.602301 333.295922 
L 105.105509 332.718324 
L 108.47542 332.14479 
L 109.44647 331.719731 
L 110.177171 331.483931 
L 110.909937 330.955535 
L 111.399619 330.795255 
L 112.381792 330.235267 
L 112.874283 330.11698 
L 114.853658 328.445143 
L 115.599834 327.326328 
L 116.098481 326.832717 
L 116.598096 325.666974 
L 117.349294 323.055857 
L 117.60019 322.354554 
L 118.102687 319.8356 
L 119.869073 309.380926 
L 120.375942 304.06029 
L 121.392655 288.271821 
L 122.413293 255.140946 
L 122.925109 233.647614 
L 123.43793 196.469102 
L 124.20903 114.139107 
L 124.724343 81.638418 
L 124.982362 78.12 
L 125.24066 97.004393 
L 126.017024 183.407472 
L 126.795695 238.661913 
L 127.316067 260.446342 
L 128.09855 282.939235 
L 128.621489 292.770012 
L 129.145451 300.19093 
L 130.196463 309.694567 
L 130.987465 315.387819 
L 131.516096 318.034059 
L 132.045768 320.501344 
L 133.374552 323.210283 
L 133.907926 324.184735 
L 134.442341 325.282312 
L 136.051985 326.759664 
L 136.321201 326.618204 
L 137.13045 325.85691 
L 137.671301 325.966924 
L 138.21323 326.475195 
L 138.756239 326.96542 
L 139.028152 326.965227 
L 139.572797 326.750182 
L 142.037297 327.017428 
L 142.312503 327.281529 
L 142.86377 328.242532 
L 143.416134 329.053559 
L 144.246791 329.434496 
L 145.636825 330.504109 
L 145.915695 330.608705 
L 146.753941 330.437443 
L 147.594773 330.238508 
L 149.284136 331.477835 
L 149.849558 331.552146 
L 150.699875 331.381464 
L 151.26818 331.148035 
L 151.837675 331.240391 
L 153.266527 331.595638 
L 154.990858 331.251953 
L 155.568016 331.219491 
L 156.725903 331.487898 
L 157.306651 331.78451 
L 158.180014 331.897379 
L 159.641695 331.819101 
L 160.816527 331.809668 
L 161.700864 331.922875 
L 162.291953 332.108699 
L 163.477871 332.09254 
L 164.370578 332.230082 
L 164.967266 332.381895 
L 166.464491 332.301973 
L 168.876521 332.198297 
L 169.786284 332.262786 
L 170.394411 332.410875 
L 171.920374 332.24745 
L 173.147006 332.232404 
L 173.762276 332.279138 
L 174.996758 331.924374 
L 175.615989 331.977108 
L 176.54731 331.75737 
L 177.169852 331.776189 
L 178.418953 331.542567 
L 179.987919 331.489059 
L 181.249185 331.239181 
L 182.515901 331.115863 
L 183.469541 330.877499 
L 184.107038 330.654617 
L 184.745911 330.285726 
L 185.38616 330.276582 
L 186.027823 330.350361 
L 187.315333 329.728931 
L 188.60848 329.821287 
L 189.257173 329.535415 
L 189.907299 329.523223 
L 190.558838 329.319402 
L 191.21181 329.46691 
L 191.866214 329.354864 
L 193.179355 329.418966 
L 194.4983 329.154042 
L 196.487681 329.380311 
L 198.825404 329.118822 
L 200.16944 329.395889 
L 201.857929 329.198841 
L 202.196747 329.041222 
L 202.535974 329.026708 
L 203.555867 329.501066 
L 204.237725 329.447607 
L 205.606015 329.194487 
L 206.980499 329.102906 
L 208.361177 329.295358 
L 210.095813 329.216306 
L 210.792439 329.356218 
L 212.540895 329.325595 
L 217.846489 329.531835 
L 218.560804 329.585197 
L 221.073887 329.426755 
L 222.51907 329.827866 
L 223.244172 329.881035 
L 224.334969 329.774165 
L 229.846372 330.688385 
L 230.588549 330.806914 
L 233.574668 331.549001 
L 235.07831 331.390076 
L 236.967847 331.055631 
L 238.10693 330.692836 
L 239.250086 330.449102 
L 240.014453 330.384613 
L 240.397315 330.267584 
L 241.548637 330.205562 
L 242.318472 329.936284 
L 243.863667 330.294918 
L 244.251124 330.254376 
L 245.416283 329.714949 
L 245.8056 329.771698 
L 246.585628 330.272228 
L 246.97634 330.24204 
L 247.759195 329.727867 
L 248.15132 329.786986 
L 248.937003 330.093468 
L 250.514041 329.953845 
L 252.098724 330.100386 
L 254.490182 329.945766 
L 255.692467 330.051087 
L 256.09419 330.007449 
L 258.110244 330.290516 
L 258.514924 330.274647 
L 259.325791 330.071697 
L 260.545802 330.374937 
L 261.361636 330.466325 
L 262.179496 330.580064 
L 262.999347 330.603722 
L 265.057846 330.858486 
L 265.884821 330.988384 
L 266.713823 331.202074 
L 267.961195 331.215282 
L 270.050477 330.672952 
L 271.310311 330.36052 
L 272.57485 330.198353 
L 272.997405 330.001838 
L 274.268287 329.024822 
L 275.118177 329.089795 
L 276.824392 329.558879 
L 277.680718 329.156751 
L 278.539201 328.540595 
L 279.399841 327.692945 
L 279.830971 327.54834 
L 280.694885 327.730874 
L 281.560975 328.147757 
L 282.42926 328.316068 
L 283.29974 328.423228 
L 284.172452 327.977898 
L 284.609627 327.652355 
L 285.48565 326.754875 
L 286.363923 326.309351 
L 286.803887 326.156812 
L 287.244428 326.181873 
L 288.127166 326.596094 
L 289.455541 327.054196 
L 292.127617 326.779209 
L 293.920471 325.811531 
L 294.820357 325.833833 
L 295.271184 326.042057 
L 295.722587 326.127591 
L 296.627124 325.969779 
L 297.534023 326.300934 
L 297.988346 326.482452 
L 298.443265 326.532282 
L 299.35487 326.206207 
L 299.811556 326.243556 
L 301.185184 326.85023 
L 301.644251 326.528751 
L 302.564188 325.358122 
L 303.025059 325.144238 
L 305.338434 325.084731 
L 306.268043 324.805391 
L 307.667005 325.068766 
L 308.602734 325.55217 
L 310.481557 325.376603 
L 311.424689 325.488649 
L 311.897185 325.312549 
L 312.370313 324.85764 
L 313.318448 323.512556 
L 313.793455 323.287255 
L 314.269094 323.478739 
L 314.745365 323.546325 
L 315.222269 323.407428 
L 316.177956 323.662096 
L 318.096992 323.352421 
L 318.57836 323.544825 
L 319.542994 324.359916 
L 320.026296 324.247241 
L 321.480035 323.240037 
L 321.965923 323.273128 
L 322.939633 323.829875 
L 323.427473 323.621844 
L 324.405127 322.365875 
L 324.405127 322.365875 
" style="fill:none;stroke:#1f77b4;stroke-linecap:square;stroke-width:1.5;"/>
   </g>
   <g id="line2d_18">
    <path clip-path="url(#p826e6cf11f)" d="M 45 353.513449 
L 47.243141 353.270344 
L 48.751081 352.938753 
L 52.565345 352.064785 
L 53.335925 352.070977 
L 54.109108 352.526902 
L 54.884914 352.852929 
L 56.248908 353.013838 
L 73.27267 353.004839 
L 74.748319 352.890277 
L 76.233139 352.811613 
L 78.585109 352.789697 
L 81.177316 352.862169 
L 87.112855 353.119111 
L 89.123757 353.264587 
L 104.15079 352.836528 
L 107.266774 352.59502 
L 108.717834 352.471024 
L 112.1359 351.968269 
L 115.102154 351.072094 
L 116.098481 350.604946 
L 117.098659 350.097788 
L 118.606152 348.904953 
L 120.375942 346.403076 
L 120.883796 345.878453 
L 121.138096 345.435881 
L 121.647438 343.681365 
L 122.157766 341.03977 
L 123.181399 338.271615 
L 123.43793 336.818984 
L 123.951736 331.102655 
L 124.724343 321.879229 
L 124.982362 317.084474 
L 125.4992 300.655272 
L 126.017024 279.579936 
L 126.795695 260.542326 
L 127.055741 246.348432 
L 127.837462 173.767744 
L 128.09855 174.308816 
L 128.35988 178.345809 
L 128.621489 177.123221 
L 128.88334 176.549735 
L 129.145451 181.60806 
L 129.407804 193.159198 
L 130.459876 267.282937 
L 131.251641 297.833126 
L 131.516096 303.152746 
L 132.842257 318.728299 
L 133.374552 328.234549 
L 133.641109 331.20459 
L 133.907926 332.6071 
L 134.175003 332.454077 
L 134.442341 331.961578 
L 134.709958 332.542079 
L 134.977816 333.923689 
L 135.245972 334.659293 
L 135.51437 334.619719 
L 135.783047 334.376566 
L 136.051985 334.410044 
L 136.321201 334.646134 
L 136.590678 334.542554 
L 136.860434 334.213673 
L 137.13045 334.333411 
L 137.400745 335.233021 
L 138.21323 338.953615 
L 138.484604 339.605523 
L 138.756239 339.839436 
L 139.300345 339.834743 
L 139.845529 339.392849 
L 140.11854 339.140648 
L 140.66538 339.100107 
L 140.939209 339.342438 
L 141.487705 340.341466 
L 141.762352 339.966238 
L 142.312503 339.009928 
L 142.588006 338.766243 
L 142.86377 338.689417 
L 143.139812 339.222699 
L 144.246791 343.140051 
L 144.801964 344.328823 
L 146.194825 345.127513 
L 146.474234 345.089003 
L 147.033946 344.539514 
L 147.594773 343.796604 
L 147.875614 343.777059 
L 148.156753 344.15906 
L 149.001863 346.1233 
L 149.566708 346.653583 
L 150.132706 347.301524 
L 150.416132 347.490251 
L 151.26818 347.490832 
L 151.837675 348.07738 
L 152.408341 348.097409 
L 153.266527 347.982267 
L 154.414891 348.782602 
L 154.990858 349.004662 
L 155.568016 348.955509 
L 157.016119 349.237898 
L 157.597462 348.960686 
L 159.056111 349.004565 
L 159.641695 349.365135 
L 160.522349 349.999965 
L 161.405775 350.275436 
L 161.996251 350.488642 
L 162.884289 350.474758 
L 163.477871 350.438618 
L 164.370578 350.728651 
L 164.967266 350.713654 
L 165.565219 350.536199 
L 166.164418 350.529136 
L 167.36661 350.264889 
L 168.876521 350.180419 
L 169.179459 350.130831 
L 169.786284 350.274855 
L 170.394411 350.044813 
L 170.698967 349.946893 
L 171.920374 350.075824 
L 172.226548 350.18337 
L 172.533039 350.170114 
L 173.454464 349.768713 
L 174.070403 349.85565 
L 174.687644 349.950425 
L 175.926088 349.662231 
L 178.106176 349.259572 
L 178.418953 349.27036 
L 179.045531 348.948881 
L 179.359313 348.734271 
L 179.673449 348.727014 
L 180.302724 348.889423 
L 180.933357 348.992471 
L 181.565348 349.096195 
L 182.198696 348.706163 
L 182.515901 348.516856 
L 182.83344 348.462478 
L 184.426288 348.931126 
L 185.065868 349.011048 
L 186.349175 348.867314 
L 187.315333 349.189083 
L 188.284672 349.360635 
L 188.93264 349.427012 
L 189.907299 349.099001 
L 190.558838 349.362619 
L 191.538835 349.766681 
L 192.193964 349.621931 
L 193.179355 349.336204 
L 194.16802 349.107323 
L 194.828952 348.86325 
L 196.155206 348.720822 
L 196.820528 348.757203 
L 197.487338 348.553575 
L 198.155636 348.708389 
L 198.490325 348.779893 
L 199.160855 348.588602 
L 199.496678 348.4663 
L 200.16944 348.463542 
L 201.181391 348.091313 
L 202.535974 348.063495 
L 203.215525 348.131565 
L 204.237725 348.148546 
L 205.606015 347.955948 
L 207.325083 348.247723 
L 207.670057 348.392908 
L 209.400787 348.183717 
L 210.443931 347.944483 
L 210.792439 348.134709 
L 211.840326 348.097457 
L 212.540895 348.221356 
L 213.243082 348.471476 
L 215.71333 347.915891 
L 217.489946 348.430934 
L 219.635363 348.423194 
L 220.353806 348.650188 
L 221.073887 348.565186 
L 222.157151 348.397988 
L 222.51907 348.449318 
L 223.244172 348.773845 
L 223.970948 348.715307 
L 224.699417 348.608679 
L 225.795292 348.958557 
L 226.89498 348.780667 
L 227.630257 349.057637 
L 230.217238 349.442299 
L 235.07831 350.36634 
L 235.832782 350.357293 
L 237.347083 349.839589 
L 238.10693 349.454636 
L 238.868581 349.263297 
L 240.397315 349.15367 
L 241.164398 349.042108 
L 241.933322 349.073651 
L 244.251124 348.86175 
L 244.639045 348.903018 
L 245.416283 348.764315 
L 246.195382 348.734078 
L 246.97634 348.663831 
L 248.15132 348.759138 
L 249.724564 348.660493 
L 250.514041 348.758751 
L 251.305415 348.481878 
L 252.098724 348.814968 
L 252.893948 348.689666 
L 253.292286 348.580619 
L 255.291209 348.75609 
L 257.706047 348.784295 
L 258.514924 348.502148 
L 259.325791 348.54419 
L 260.13863 348.731078 
L 260.545802 348.874522 
L 261.361636 348.804663 
L 262.589161 348.714581 
L 264.645131 348.888068 
L 266.713823 348.758848 
L 267.961195 349.097115 
L 268.795349 348.988068 
L 269.631586 349.011967 
L 270.889839 349.231802 
L 272.152798 349.22498 
L 272.997405 349.110951 
L 275.118177 349.798805 
L 276.397039 349.712593 
L 277.252285 349.511385 
L 278.109689 349.059911 
L 278.969251 348.62687 
L 279.830971 348.559042 
L 280.694885 348.551205 
L 281.560975 348.334805 
L 282.42926 347.593734 
L 282.864221 347.188898 
L 283.29974 347.019136 
L 283.735817 347.067515 
L 285.047359 347.54342 
L 285.924517 347.546178 
L 286.803887 347.038245 
L 288.569399 345.779857 
L 289.899448 345.306419 
L 290.343951 345.588082 
L 291.234631 346.478257 
L 291.680845 346.777047 
L 292.127617 346.857162 
L 292.574965 346.689819 
L 293.02289 346.391175 
L 293.920471 345.323545 
L 294.370126 344.816242 
L 294.820357 344.499117 
L 295.271184 344.390651 
L 296.627124 344.60589 
L 297.988346 345.319094 
L 299.35487 346.424218 
L 299.811556 346.45489 
L 300.726713 346.061665 
L 301.185184 345.645943 
L 301.644251 345.07715 
L 302.564188 344.473186 
L 303.948605 343.858384 
L 304.87455 343.37948 
L 305.338434 343.407927 
L 307.667005 344.785037 
L 308.134572 345.210919 
L 308.602734 345.38997 
L 309.07151 345.287116 
L 310.010921 344.70647 
L 311.424689 343.232794 
L 313.793455 342.079582 
L 314.269094 342.062794 
L 315.699787 342.777499 
L 316.656757 342.828829 
L 317.136209 343.122925 
L 318.096992 344.087846 
L 318.57836 344.336708 
L 319.060361 344.331048 
L 319.542994 344.135016 
L 320.026296 343.707248 
L 320.994817 342.517896 
L 321.965923 341.900289 
L 322.939633 341.334931 
L 323.915965 341.333963 
L 324.405127 341.035077 
L 324.405127 341.035077 
" style="fill:none;stroke:#ff7f0e;stroke-linecap:square;stroke-width:1.5;"/>
   </g>
   <g id="line2d_19">
    <path clip-path="url(#p826e6cf11f)" d="M 45 372.865086 
L 47.619196 372.45609 
L 50.26912 371.83824 
L 51.223058 371.44874 
L 52.757744 370.804185 
L 54.109108 370.510815 
L 54.690712 370.316524 
L 55.273803 370.349761 
L 56.053552 370.155325 
L 57.031987 370.02533 
L 57.817725 370.156921 
L 58.408796 370.364806 
L 59.992381 370.409557 
L 60.589032 370.639068 
L 60.987649 370.721506 
L 62.38821 371.65977 
L 62.789933 371.841143 
L 66.232644 371.99702 
L 67.050077 372.034659 
L 69.312767 372.034369 
L 70.14095 372.113856 
L 73.693346 372.008051 
L 74.325783 372.004229 
L 76.020466 371.666978 
L 76.446016 371.671381 
L 77.513191 371.945206 
L 78.155765 371.843949 
L 79.015234 371.575009 
L 80.74336 371.65619 
L 81.82973 371.551642 
L 86.446175 371.081107 
L 87.112855 370.958853 
L 89.123757 371.027503 
L 90.022788 370.627602 
L 91.604011 370.956144 
L 92.739671 370.607815 
L 93.423556 370.618942 
L 94.33836 370.902588 
L 94.797017 370.731907 
L 95.256512 370.493108 
L 95.716862 370.559968 
L 96.408986 370.713668 
L 97.103027 370.642696 
L 97.566799 370.526344 
L 98.96325 370.629053 
L 99.898551 370.566741 
L 100.83733 370.661951 
L 102.015733 370.601187 
L 103.19966 370.711685 
L 103.674779 370.625908 
L 106.303945 370.826004 
L 108.717834 370.690301 
L 109.44647 370.702057 
L 110.665459 370.575739 
L 111.399619 370.671094 
L 112.381792 370.658855 
L 113.120882 370.783624 
L 113.862073 370.746469 
L 114.357391 370.834519 
L 114.853658 370.825521 
L 117.60019 371.718018 
L 119.110584 371.78749 
L 120.883796 371.517148 
L 121.647438 371.287831 
L 122.925109 370.761225 
L 123.181399 370.544341 
L 123.694703 369.629251 
L 124.20903 368.569507 
L 124.466547 368.408066 
L 125.24066 368.477054 
L 127.055741 367.444983 
L 127.576634 366.538601 
L 128.09855 365.032511 
L 128.621489 362.958112 
L 128.88334 361.419222 
L 130.196463 350.406204 
L 130.987465 344.896406 
L 132.311004 332.946189 
L 132.5765 331.38098 
L 133.108274 326.229478 
L 133.641109 318.999706 
L 134.442341 304.495847 
L 134.977816 298.535929 
L 135.245972 301.212599 
L 136.321201 322.063554 
L 136.590678 324.397652 
L 136.860434 325.124451 
L 137.13045 327.182062 
L 137.671301 334.499787 
L 137.942135 336.561027 
L 138.484604 337.926382 
L 139.028152 339.52502 
L 139.300345 339.501218 
L 140.39183 335.771577 
L 140.939209 332.006377 
L 141.213317 332.369123 
L 141.762352 337.854006 
L 142.037297 339.462321 
L 142.312503 340.130823 
L 142.588006 339.923954 
L 143.139812 338.454101 
L 143.416134 338.260149 
L 143.692753 339.301751 
L 144.246791 345.169845 
L 144.524248 346.132395 
L 145.915695 347.270368 
L 146.194825 347.019813 
L 147.033946 347.865576 
L 147.31421 348.885988 
L 147.594773 350.450423 
L 147.875614 351.299863 
L 148.156753 351.35666 
L 148.719868 350.999961 
L 149.001863 351.379592 
L 149.566708 352.430047 
L 150.132706 353.026078 
L 150.416132 353.191969 
L 150.983879 353.949925 
L 151.26818 354.058826 
L 151.552778 354.497915 
L 152.694112 357.896304 
L 152.980161 358.342892 
L 153.553171 358.736311 
L 153.840113 359.410715 
L 154.127353 360.423918 
L 154.414891 361.029625 
L 154.990858 361.324302 
L 155.279288 361.600208 
L 155.568016 361.70253 
L 156.146365 361.764406 
L 157.016119 362.494689 
L 157.306651 362.605138 
L 157.888589 363.204168 
L 158.180014 363.462755 
L 158.471755 363.537403 
L 159.056111 363.526276 
L 161.405775 364.181716 
L 161.996251 364.832367 
L 162.884289 365.952827 
L 163.775117 366.281127 
L 164.370578 366.744309 
L 166.164418 366.424184 
L 166.464491 366.468741 
L 167.065588 366.328539 
L 167.667967 366.548131 
L 167.969622 366.638939 
L 168.271593 366.507154 
L 168.876521 365.888095 
L 169.179459 365.920461 
L 170.090189 366.807056 
L 170.394411 366.70667 
L 171.003821 366.313348 
L 172.226548 365.87334 
L 173.762276 366.204688 
L 174.378866 365.742523 
L 174.687644 365.498644 
L 174.996758 365.454764 
L 175.615989 365.715285 
L 176.236541 365.760326 
L 176.858413 365.377164 
L 177.169852 365.196177 
L 178.106176 365.155491 
L 179.045531 365.448571 
L 179.673449 365.367875 
L 180.302724 365.086067 
L 181.249185 365.091969 
L 181.565348 365.110837 
L 182.515901 365.563036 
L 183.151314 365.338847 
L 183.788122 365.430381 
L 184.107038 365.248427 
L 184.745911 364.509049 
L 185.065868 364.648284 
L 185.706824 365.908802 
L 186.67088 366.348229 
L 189.907299 366.17358 
L 190.558838 366.500913 
L 191.538835 366.465693 
L 193.179355 366.918473 
L 193.838111 366.830665 
L 194.4983 367.106329 
L 194.828952 366.970916 
L 195.491354 366.547648 
L 196.155206 366.602993 
L 198.825404 367.439661 
L 199.496678 367.226309 
L 200.16944 367.185236 
L 200.843708 366.949049 
L 201.519465 367.035744 
L 203.215525 367.294911 
L 205.263366 367.265738 
L 205.949055 367.312521 
L 206.636288 367.344306 
L 207.325083 367.441258 
L 209.400787 367.046484 
L 210.443931 367.159595 
L 211.141338 367.13734 
L 211.840326 366.877786 
L 212.540895 366.645567 
L 215.71333 366.584754 
L 216.422752 366.318669 
L 216.778068 366.357227 
L 218.203442 367.020795 
L 218.560804 367.071593 
L 219.635363 366.876674 
L 220.713642 367.282187 
L 221.795641 367.430227 
L 223.970948 367.797957 
L 224.699417 367.875363 
L 225.429579 367.98649 
L 226.161433 368.053931 
L 227.630257 368.471636 
L 228.367244 368.370475 
L 229.105943 368.264428 
L 229.846372 368.415855 
L 230.588549 368.571539 
L 231.332456 368.711741 
L 232.825516 368.642124 
L 234.701735 369.060941 
L 235.455314 369.247104 
L 237.726783 369.467471 
L 238.10693 369.333025 
L 238.868581 368.653638 
L 239.632037 367.983442 
L 241.164398 367.335695 
L 243.476675 366.967239 
L 244.251124 366.788479 
L 245.027432 366.738697 
L 245.8056 366.358679 
L 246.585628 365.957906 
L 248.543929 366.633278 
L 248.937003 366.496221 
L 249.724564 365.948714 
L 250.11907 366.091723 
L 251.305415 366.923456 
L 252.893948 366.9117 
L 253.691089 366.584125 
L 254.890454 366.601155 
L 255.291209 366.512766 
L 256.496415 366.799944 
L 257.302353 366.725634 
L 258.110244 366.870094 
L 259.731959 366.569563 
L 260.545802 366.704976 
L 261.770315 366.620652 
L 262.179496 366.663661 
L 263.410035 366.433715 
L 265.057846 366.853936 
L 268.795349 366.481755 
L 270.469907 366.784125 
L 271.731284 366.76724 
L 273.844133 366.801638 
L 275.118177 366.695688 
L 276.397039 366.861241 
L 277.252285 367.024956 
L 278.109689 367.046823 
L 278.969251 367.168738 
L 279.830971 367.028245 
L 280.694885 367.122004 
L 282.864221 366.724909 
L 284.609627 366.934293 
L 285.48565 366.896654 
L 285.924517 366.972561 
L 287.244428 367.612133 
L 289.012191 367.961043 
L 289.899448 367.725678 
L 293.471392 366.253503 
L 294.370126 366.070968 
L 295.271184 366.098061 
L 296.627124 365.415528 
L 297.080276 365.264731 
L 297.988346 365.149298 
L 298.443265 365.008467 
L 299.811556 365.325059 
L 300.268837 365.088244 
L 300.726713 364.72511 
L 302.103931 364.228983 
L 303.025059 363.888878 
L 303.486525 363.74824 
L 303.948605 363.760721 
L 304.87455 364.420225 
L 305.338434 364.417226 
L 306.73375 364.004068 
L 307.200071 363.73687 
L 307.667005 363.629808 
L 308.134572 363.707795 
L 308.602734 363.610649 
L 309.540899 363.270496 
L 310.952807 363.192412 
L 311.897185 363.694974 
L 313.793455 363.364158 
L 314.745365 362.463581 
L 315.222269 362.303059 
L 315.699787 362.26634 
L 316.656757 361.891789 
L 318.57836 362.031217 
L 319.542994 362.571321 
L 320.026296 362.89817 
L 320.510231 362.850372 
L 321.480035 362.515443 
L 322.452461 362.194255 
L 322.939633 361.715011 
L 323.427473 361.446701 
L 323.915965 361.375777 
L 324.405127 361.167989 
L 324.405127 361.167989 
" style="fill:none;stroke:#2ca02c;stroke-linecap:square;stroke-width:1.5;"/>
   </g>
   <g id="line2d_20">
    <path clip-path="url(#p826e6cf11f)" d="M 45 392.216724 
L 47.431094 391.722 
L 49.888657 391.131581 
L 50.840995 390.843339 
L 53.143043 390.053453 
L 53.528974 389.769516 
L 54.109108 389.753164 
L 54.690712 389.265745 
L 55.273803 389.197385 
L 56.248908 388.771214 
L 56.835961 388.73938 
L 57.228161 388.589792 
L 58.014569 388.870633 
L 58.606142 388.70387 
L 59.19924 388.97668 
L 60.191104 388.861731 
L 60.589032 389.005562 
L 61.786946 388.723173 
L 62.187628 388.785002 
L 62.789933 388.706579 
L 63.595443 389.021866 
L 64.808926 389.344361 
L 65.214815 389.476 
L 66.028714 389.390611 
L 66.436723 389.498545 
L 66.845458 389.441699 
L 67.459872 389.137105 
L 69.106177 389.459358 
L 69.726505 389.970193 
L 70.764013 390.238164 
L 71.180281 390.497331 
L 71.597293 390.496025 
L 72.643022 390.39409 
L 73.482905 390.36066 
L 74.959876 390.60899 
L 76.872309 390.704442 
L 77.727184 390.442421 
L 78.370353 390.554612 
L 79.015234 390.535744 
L 79.877753 390.380109 
L 84.897651 390.213394 
L 85.560109 390.01354 
L 86.002751 390.070724 
L 86.890418 389.995205 
L 88.228 389.977546 
L 88.899515 389.683063 
L 89.572873 389.216446 
L 89.797728 389.200626 
L 91.151194 389.77358 
L 92.057647 389.662405 
L 92.512119 389.484031 
L 92.967428 389.099321 
L 93.19539 389.057182 
L 94.33836 389.363277 
L 94.797017 389.372808 
L 95.716862 389.078663 
L 96.178067 389.153457 
L 97.103027 389.046829 
L 97.799002 389.36705 
L 98.264057 389.362938 
L 100.602301 388.773439 
L 101.779625 388.952877 
L 102.488638 389.27663 
L 102.962436 389.281661 
L 103.437108 389.086694 
L 104.15079 388.490373 
L 104.627713 388.214419 
L 105.105509 388.589598 
L 105.584199 388.986742 
L 106.303945 389.249054 
L 106.784903 389.068648 
L 107.749555 388.518675 
L 108.23323 388.591437 
L 109.20335 388.916157 
L 110.909937 388.611127 
L 111.644823 388.735994 
L 113.120882 388.588582 
L 114.109621 388.287955 
L 115.102154 388.676052 
L 115.599834 388.567634 
L 116.098481 388.67015 
L 116.848247 388.387229 
L 117.60019 388.012726 
L 117.851308 388.135028 
L 118.354289 388.545815 
L 118.858238 388.567247 
L 120.883796 388.06396 
L 121.138096 388.089988 
L 121.647438 388.364974 
L 122.157766 388.288003 
L 122.925109 388.015145 
L 124.20903 388.213596 
L 124.982362 388.071023 
L 125.4992 387.810211 
L 125.757982 387.796617 
L 126.795695 388.075377 
L 128.88334 387.800535 
L 129.407804 387.833095 
L 129.933329 387.923757 
L 130.459876 387.75443 
L 131.516096 387.07393 
L 132.045768 386.998071 
L 133.374552 386.345244 
L 133.907926 386.056663 
L 134.442341 385.807994 
L 135.245972 385.789755 
L 136.321201 385.550279 
L 136.860434 385.033832 
L 137.942135 384.980615 
L 138.756239 384.506451 
L 139.028152 384.330496 
L 139.572797 384.386374 
L 140.11854 384.412596 
L 140.39183 384.299969 
L 141.213317 383.599488 
L 141.762352 383.791747 
L 142.037297 383.642691 
L 142.588006 383.063061 
L 143.416134 383.138339 
L 143.692753 382.89983 
L 143.969633 383.029196 
L 144.246791 383.415648 
L 144.524248 383.546465 
L 144.801964 383.111827 
L 145.079978 382.025039 
L 145.358253 380.301195 
L 145.915695 374.513314 
L 146.474234 369.376325 
L 147.033946 367.164868 
L 147.31421 366.284417 
L 147.594773 365.877887 
L 147.875614 366.319975 
L 148.156753 367.434533 
L 148.438153 367.678896 
L 149.001863 365.861293 
L 149.849558 367.451079 
L 150.132706 367.25166 
L 150.416132 367.649627 
L 150.983879 369.138396 
L 151.26818 369.042122 
L 151.837675 366.907781 
L 152.122868 366.862499 
L 152.694112 367.878411 
L 152.980161 368.054705 
L 153.266527 367.78741 
L 153.840113 366.900428 
L 154.414891 366.136619 
L 154.702726 365.699852 
L 154.990858 365.511319 
L 155.279288 365.793611 
L 155.568016 366.604106 
L 155.857042 367.868107 
L 156.146365 368.352043 
L 156.725903 367.398104 
L 157.597462 368.918078 
L 158.180014 370.564225 
L 159.056111 372.492277 
L 159.641695 372.763732 
L 159.934943 372.585117 
L 160.522349 371.468817 
L 160.816527 371.541144 
L 161.405775 372.489229 
L 161.700864 372.511145 
L 161.996251 372.397309 
L 162.291953 372.66591 
L 162.884289 373.848779 
L 163.180922 373.999625 
L 163.477871 373.974903 
L 163.775117 374.42299 
L 164.370578 376.985582 
L 164.668754 377.625589 
L 164.967266 377.728201 
L 165.565219 377.451376 
L 165.86466 377.825347 
L 166.164418 378.463322 
L 166.464491 378.646775 
L 166.764881 378.694719 
L 167.36661 379.378557 
L 167.667967 379.370478 
L 169.179459 377.955825 
L 169.482713 377.310061 
L 169.786284 377.139331 
L 170.394411 378.449002 
L 170.698967 378.653065 
L 171.003821 378.38785 
L 171.309029 378.336181 
L 172.226548 379.837675 
L 172.533039 380.146237 
L 172.839865 380.637188 
L 173.147006 380.783438 
L 173.454464 380.495292 
L 174.070403 379.450933 
L 174.378866 379.301393 
L 174.687644 379.392152 
L 175.306206 379.678459 
L 176.236541 379.627855 
L 177.169852 378.581802 
L 177.793733 378.510878 
L 178.418953 377.983643 
L 179.045531 377.871936 
L 179.359313 377.701061 
L 179.987919 378.50517 
L 180.617864 378.537584 
L 180.933357 378.704443 
L 181.249185 378.573965 
L 181.565348 378.636712 
L 182.198696 379.700375 
L 183.151314 379.567816 
L 183.788122 379.973524 
L 184.107038 379.986054 
L 184.745911 379.6847 
L 185.065868 379.685668 
L 185.706824 380.000858 
L 186.349175 380.518272 
L 186.992939 380.598194 
L 187.315333 380.496647 
L 187.9612 380.043673 
L 188.284672 380.052043 
L 188.60848 380.213919 
L 189.582059 381.294031 
L 189.907299 381.341201 
L 190.558838 381.777919 
L 191.21181 381.601819 
L 191.866214 381.981546 
L 192.193964 382.024797 
L 192.850526 382.291753 
L 193.838111 381.806172 
L 194.16802 381.882079 
L 195.159976 382.364951 
L 195.823085 382.381738 
L 196.155206 382.371385 
L 196.820528 382.599299 
L 197.153747 382.510765 
L 197.487338 382.24318 
L 197.821301 382.131715 
L 198.490325 382.555806 
L 199.496678 382.65121 
L 200.16944 382.795476 
L 200.843708 383.336548 
L 201.181391 383.32605 
L 202.196747 382.931954 
L 203.555867 383.113278 
L 203.896601 383.018068 
L 204.237725 383.059723 
L 204.921107 383.583233 
L 205.606015 383.324502 
L 206.292485 383.073753 
L 207.325083 383.587974 
L 208.015422 383.936158 
L 208.707323 384.148301 
L 209.400787 383.876265 
L 210.095813 384.180231 
L 211.840326 384.06238 
L 212.891784 384.268668 
L 213.94685 384.463926 
L 215.005525 384.899193 
L 215.71333 385.29624 
L 217.489946 385.566873 
L 218.203442 385.755938 
L 218.918575 386.092802 
L 219.276773 386.16629 
L 219.99438 386.562611 
L 221.434559 386.586414 
L 222.51907 387.10557 
L 223.607356 387.290378 
L 223.970948 387.357093 
L 224.699417 387.223566 
L 225.795292 387.611954 
L 226.528002 387.646061 
L 228.367244 388.111129 
L 229.475935 388.030965 
L 229.846372 388.082198 
L 230.960289 387.806534 
L 231.705052 387.962412 
L 232.825516 387.981957 
L 233.574668 387.924918 
L 234.325606 387.841996 
L 237.726783 388.201308 
L 240.397315 387.798165 
L 241.164398 387.540691 
L 243.090149 386.39609 
L 243.863667 385.662857 
L 245.027432 385.437313 
L 246.195382 385.083517 
L 247.367535 385.515639 
L 248.543929 384.78318 
L 249.330542 384.938525 
L 250.514041 384.935187 
L 251.701837 384.592324 
L 252.496094 384.745589 
L 253.292286 384.60258 
L 254.090393 384.914626 
L 254.890454 384.649411 
L 255.692467 384.340511 
L 256.09419 384.384729 
L 256.899142 384.777084 
L 257.706047 384.761216 
L 258.920107 384.738574 
L 259.325791 384.513805 
L 260.13863 383.737804 
L 260.545802 383.657301 
L 260.953477 383.906212 
L 261.361636 384.01221 
L 262.589161 383.689667 
L 262.999347 383.736788 
L 263.821225 384.101615 
L 265.057846 384.114774 
L 265.471082 384.220869 
L 265.884821 384.195761 
L 266.713823 383.910469 
L 270.469907 384.301614 
L 271.731284 383.982554 
L 272.57485 384.152655 
L 273.844133 383.872492 
L 274.692962 384.113661 
L 275.970224 383.849415 
L 276.824392 384.028466 
L 277.680718 384.224691 
L 278.969251 384.296099 
L 279.830971 384.005921 
L 280.694885 383.98386 
L 281.994839 384.211048 
L 282.864221 384.129288 
L 284.172452 384.4856 
L 285.48565 384.370312 
L 285.924517 384.280811 
L 286.363923 384.337028 
L 286.803887 384.5453 
L 287.244428 384.616175 
L 288.127166 384.396292 
L 289.012191 384.565619 
L 289.899448 384.758506 
L 291.234631 384.737123 
L 292.127617 384.684583 
L 293.920471 384.371183 
L 294.820357 383.99639 
L 297.988346 383.641772 
L 298.443265 383.72629 
L 298.898761 383.978635 
L 299.35487 384.09939 
L 300.268837 383.915259 
L 304.41128 384.71124 
L 305.338434 385.247958 
L 307.200071 385.76992 
L 307.667005 385.852261 
L 308.134572 385.766194 
L 310.481557 384.719658 
L 310.952807 384.652459 
L 311.424689 384.446945 
L 312.370313 383.916855 
L 313.793455 383.635579 
L 314.745365 383.367898 
L 315.222269 383.150675 
L 316.177956 383.087783 
L 317.136209 383.26306 
L 317.616275 383.403553 
L 318.096992 383.397602 
L 319.060361 382.4963 
L 319.542994 382.37869 
L 320.994817 382.458709 
L 321.965923 382.251356 
L 322.939633 382.360645 
L 323.915965 382.066935 
L 324.405127 381.893787 
L 324.405127 381.893787 
" style="fill:none;stroke:#d62728;stroke-linecap:square;stroke-width:1.5;"/>
   </g>
   <g id="line2d_21">
    <path clip-path="url(#p826e6cf11f)" d="M 45 411.568362 
L 46.492948 411.198552 
L 49.129628 410.410892 
L 50.078804 410.17069 
L 50.459584 410.106298 
L 50.840995 410.03489 
L 51.41434 409.652356 
L 51.989117 409.665661 
L 52.565345 409.268226 
L 53.143043 409.314429 
L 53.722191 408.740556 
L 54.496676 408.851731 
L 54.884914 408.407562 
L 55.079266 408.375971 
L 55.468489 408.670261 
L 55.663343 408.650232 
L 56.248908 407.902339 
L 56.444431 407.937414 
L 56.835961 408.257249 
L 57.031987 408.176746 
L 57.62103 407.657832 
L 58.408796 407.764507 
L 58.803674 407.810322 
L 59.595476 407.583521 
L 60.389975 407.834125 
L 60.987649 407.630739 
L 61.987194 407.702679 
L 62.789933 407.419613 
L 63.797253 407.771813 
L 64.606241 407.696196 
L 65.011777 408.010999 
L 65.418038 407.951009 
L 66.028714 407.649462 
L 66.845458 407.946945 
L 67.459872 407.880762 
L 68.075885 407.672732 
L 68.899754 407.556671 
L 69.312767 407.743801 
L 69.726505 407.652752 
L 70.14095 407.475975 
L 70.55614 407.628901 
L 70.972054 407.893051 
L 71.388694 407.854009 
L 72.015031 407.677425 
L 73.27267 407.807855 
L 73.903972 407.764701 
L 74.536949 407.958121 
L 75.383546 408.331462 
L 77.513191 408.304854 
L 77.941381 408.157442 
L 78.585109 408.255023 
L 79.446103 408.399048 
L 80.093866 408.254781 
L 81.177316 408.552022 
L 81.612073 408.776308 
L 82.920992 408.854924 
L 83.578093 408.771373 
L 84.017164 408.807899 
L 84.456998 408.760439 
L 85.118266 409.002722 
L 86.446175 408.833976 
L 87.112855 408.917285 
L 88.228 408.92817 
L 89.348203 408.579598 
L 90.699214 408.786419 
L 91.604011 408.716027 
L 92.284771 408.942345 
L 92.739671 408.849989 
L 94.109338 408.158265 
L 94.567568 408.000936 
L 95.716862 408.612206 
L 98.496892 408.38197 
L 100.367494 408.678872 
L 100.83733 408.340364 
L 101.30804 408.015111 
L 102.962436 408.475003 
L 103.437108 408.613464 
L 104.389149 408.545781 
L 104.866499 408.335816 
L 106.544312 408.407272 
L 107.266774 408.285792 
L 107.749555 408.411384 
L 109.689796 408.361167 
L 110.421185 408.479938 
L 110.909937 408.610271 
L 111.399619 408.461021 
L 111.89025 408.277665 
L 112.627926 408.255459 
L 113.614768 408.781001 
L 114.109621 408.728122 
L 115.599834 408.015111 
L 116.098481 407.690536 
L 116.348168 407.709404 
L 117.349294 408.738911 
L 118.354289 408.90069 
L 118.858238 408.652361 
L 119.869073 408.078923 
L 120.629758 408.323818 
L 121.392655 408.430784 
L 122.925109 408.471568 
L 124.20903 408.206499 
L 125.4992 408.509449 
L 126.276327 408.096727 
L 127.576634 408.089712 
L 128.621489 407.974666 
L 129.145451 408.194549 
L 129.670436 408.429962 
L 130.459876 408.11811 
L 130.987465 408.034463 
L 131.780811 408.101274 
L 132.842257 407.614097 
L 133.374552 407.747623 
L 134.442341 408.106499 
L 135.245972 407.837947 
L 135.783047 407.73398 
L 136.321201 407.509598 
L 137.13045 407.682892 
L 137.671301 407.684198 
L 138.484604 407.604228 
L 139.028152 407.541625 
L 139.845529 407.032 
L 140.39183 407.263252 
L 141.213317 407.52774 
L 142.037297 407.407857 
L 143.692753 406.820873 
L 144.246791 406.894506 
L 144.801964 407.056528 
L 147.033946 406.720341 
L 147.875614 406.368384 
L 149.001863 406.400991 
L 149.849558 406.174238 
L 150.416132 406.369641 
L 150.983879 406.240759 
L 153.840113 405.465533 
L 154.990858 404.873711 
L 155.568016 404.857214 
L 156.435985 404.241445 
L 158.471755 403.844301 
L 159.056111 403.999937 
L 159.348745 403.802889 
L 159.934943 403.123791 
L 160.228507 403.072122 
L 161.405775 403.325967 
L 161.996251 403.434917 
L 163.180922 402.934532 
L 164.072699 403.235837 
L 164.668754 403.041885 
L 165.86466 402.407152 
L 166.164418 402.067289 
L 167.969622 401.121477 
L 169.179459 399.40131 
L 169.786284 398.615537 
L 170.394411 397.275291 
L 171.614534 394.084012 
L 171.920374 393.968725 
L 172.839865 395.15498 
L 173.147006 395.187007 
L 174.070403 394.535147 
L 174.687644 394.964221 
L 174.996758 395.390393 
L 175.306206 395.390635 
L 175.615989 395.101908 
L 175.926088 395.216664 
L 176.236541 395.463978 
L 176.54731 395.313664 
L 177.481625 393.370614 
L 177.793733 393.45102 
L 178.418953 394.410668 
L 178.732084 394.47985 
L 179.359313 394.081158 
L 179.673449 394.175739 
L 179.987919 394.475012 
L 180.617864 395.457495 
L 180.933357 395.312938 
L 182.198696 393.729684 
L 182.515901 392.715174 
L 183.151314 389.996172 
L 183.469541 390.461918 
L 184.107038 392.808449 
L 184.426288 392.974196 
L 185.065868 392.422481 
L 185.706824 392.970954 
L 186.027823 392.874196 
L 186.349175 393.016624 
L 186.67088 393.460212 
L 186.992939 393.543327 
L 187.315333 393.354649 
L 187.638099 392.994031 
L 188.284672 391.366752 
L 188.60848 391.140531 
L 188.93264 391.105989 
L 189.257173 391.237628 
L 189.582059 391.599939 
L 189.907299 391.506035 
L 190.232892 391.259786 
L 190.558838 391.635546 
L 191.538835 394.012072 
L 191.866214 394.18227 
L 193.838111 393.226106 
L 194.4983 393.304286 
L 194.828952 393.136653 
L 195.159976 393.295094 
L 195.491354 393.663549 
L 196.155206 393.80172 
L 196.820528 394.4112 
L 197.153747 394.357838 
L 197.487338 394.130408 
L 198.155636 394.483188 
L 198.825404 394.1993 
L 199.160855 394.691944 
L 199.832873 396.13069 
L 200.16944 396.139882 
L 201.181391 394.397605 
L 202.196747 394.767802 
L 202.535974 395.076558 
L 203.555867 396.664989 
L 203.896601 396.800595 
L 204.237725 396.771955 
L 204.921107 396.083375 
L 205.263366 395.976602 
L 205.606015 396.154879 
L 205.949055 396.710562 
L 206.292485 397.028944 
L 206.636288 396.79358 
L 206.980499 396.742153 
L 208.015422 397.999236 
L 209.05386 396.913705 
L 209.400787 396.891258 
L 210.095813 396.2856 
L 210.443931 396.500693 
L 211.141338 397.672241 
L 211.840326 398.375867 
L 212.891784 399.225452 
L 213.594771 399.45743 
L 214.652237 400.370101 
L 215.005525 400.828639 
L 215.359223 401.014753 
L 216.778068 401.2178 
L 217.489946 401.503575 
L 217.846489 401.680933 
L 218.560804 402.628534 
L 218.918575 402.796603 
L 219.635363 402.617746 
L 221.434559 403.497181 
L 222.51907 404.241106 
L 225.064275 404.750829 
L 225.795292 405.302302 
L 227.262404 405.542359 
L 228.367244 405.788367 
L 229.475935 406.058612 
L 230.217238 406.412312 
L 232.451581 406.665818 
L 234.701735 407.187345 
L 235.455314 407.205245 
L 236.210678 407.329531 
L 240.397315 407.47341 
L 241.164398 407.262284 
L 242.318472 406.916083 
L 244.639045 406.343323 
L 245.8056 405.836165 
L 246.585628 405.634908 
L 248.15132 404.777582 
L 248.937003 404.477632 
L 249.724564 403.942559 
L 250.514041 403.567718 
L 251.305415 403.060269 
L 252.496094 403.111067 
L 253.292286 402.713343 
L 254.490182 402.647499 
L 255.291209 403.07875 
L 255.692467 403.001827 
L 256.496415 402.182334 
L 256.899142 402.063757 
L 257.706047 402.338598 
L 258.514924 402.658239 
L 259.325791 402.609812 
L 261.361636 401.790367 
L 261.770315 401.82878 
L 262.589161 402.162353 
L 263.410035 402.306959 
L 264.645131 402.139664 
L 265.884821 402.589541 
L 266.713823 403.066462 
L 267.129105 403.140192 
L 268.378021 402.882525 
L 270.469907 403.513436 
L 272.152798 403.341013 
L 272.57485 403.416194 
L 273.420499 403.318178 
L 274.268287 403.460026 
L 275.118177 403.180008 
L 276.397039 402.330616 
L 277.680718 401.975126 
L 279.830971 401.303431 
L 280.262658 401.385385 
L 281.560975 401.279919 
L 282.42926 401.597721 
L 282.864221 401.537537 
L 283.735817 401.220993 
L 285.047359 401.461921 
L 286.363923 401.602946 
L 286.803887 401.723507 
L 288.127166 401.504543 
L 289.012191 401.941067 
L 289.899448 401.728538 
L 290.343951 401.830618 
L 290.789012 402.046873 
L 291.680845 402.082383 
L 292.127617 402.02873 
L 292.574965 401.812379 
L 293.02289 401.804493 
L 293.920471 401.96637 
L 295.271184 402.350161 
L 295.722587 402.489444 
L 297.988346 402.42781 
L 298.443265 402.560852 
L 299.35487 402.485187 
L 300.268837 402.620842 
L 301.185184 402.573818 
L 302.103931 402.339324 
L 304.87455 401.867144 
L 305.802932 400.960375 
L 306.268043 400.818866 
L 308.134572 401.515428 
L 308.602734 401.504253 
L 309.540899 401.167099 
L 310.481557 401.231927 
L 311.897185 400.727429 
L 312.844073 400.996079 
L 313.793455 401.145038 
L 314.269094 401.114849 
L 316.656757 400.4567 
L 317.136209 400.446927 
L 318.096992 400.897337 
L 319.060361 401.309865 
L 320.026296 401.20527 
L 321.480035 401.676192 
L 321.965923 402.171449 
L 322.452461 402.466561 
L 324.405127 402.702071 
L 324.405127 402.702071 
" style="fill:none;stroke:#9467bd;stroke-linecap:square;stroke-width:1.5;"/>
   </g>
   <g id="line2d_22">
    <path clip-path="url(#p826e6cf11f)" d="M 45 430.92 
L 45.745228 430.707084 
L 46.492948 430.390152 
L 46.867738 430.443272 
L 47.243141 430.281154 
L 47.619196 430.008344 
L 48.56203 429.915408 
L 48.94028 429.587591 
L 49.319143 429.671916 
L 49.698658 429.639357 
L 50.459584 428.996834 
L 50.840995 429.28527 
L 51.031961 429.265338 
L 51.797351 428.568244 
L 52.373114 428.979176 
L 52.565345 428.800996 
L 53.143043 427.975793 
L 53.528974 428.409657 
L 53.722191 428.606899 
L 53.915575 428.582661 
L 54.690712 427.763699 
L 55.273803 428.293692 
L 55.468489 428.156634 
L 56.053552 427.370958 
L 56.248908 427.464136 
L 56.640103 427.888905 
L 56.835961 427.892823 
L 57.62103 427.112856 
L 58.014569 427.441301 
L 58.211599 427.604 
L 58.408796 427.616724 
L 59.397274 427.184989 
L 60.191104 427.463459 
L 60.589032 427.375457 
L 61.187208 427.073136 
L 61.586866 427.098293 
L 61.987194 427.345656 
L 62.187628 427.302356 
L 62.789933 426.880442 
L 63.3938 426.977007 
L 63.797253 427.09094 
L 64.403725 426.901294 
L 65.011777 426.657028 
L 66.028714 426.953446 
L 66.436723 426.762252 
L 66.845458 426.536564 
L 68.075885 426.871057 
L 68.693517 426.777637 
L 69.519543 426.488572 
L 70.764013 426.580831 
L 71.180281 426.423405 
L 72.224169 426.617115 
L 72.643022 426.70889 
L 73.903972 426.283783 
L 74.114785 426.238887 
L 74.536949 426.475219 
L 74.959876 426.823113 
L 75.383546 426.835885 
L 76.020466 426.602843 
L 76.233139 426.649142 
L 77.085744 427.229885 
L 77.299365 427.257557 
L 77.727184 426.929789 
L 78.155765 426.590845 
L 78.585109 426.503569 
L 79.015234 426.612906 
L 79.661825 426.936223 
L 80.093866 426.84082 
L 80.52667 426.71813 
L 80.960236 426.846867 
L 81.394601 427.007583 
L 82.483892 427.069798 
L 83.139821 426.857849 
L 83.578093 426.958623 
L 84.017164 427.121177 
L 84.897651 427.211839 
L 85.781337 427.399937 
L 86.668204 427.379715 
L 87.558307 427.270136 
L 89.348203 427.432545 
L 89.797728 427.213145 
L 90.248053 427.307001 
L 91.151194 427.76549 
L 92.739671 427.927559 
L 93.651946 427.525529 
L 94.33836 427.833994 
L 95.947353 427.591131 
L 99.430463 428.196209 
L 99.898551 428.090065 
L 100.602301 428.305884 
L 101.543721 428.473856 
L 102.725435 428.175212 
L 103.19966 428.124704 
L 103.674779 428.187113 
L 104.866499 427.959248 
L 105.584199 428.325284 
L 106.063819 428.252183 
L 106.784903 428.217544 
L 107.266774 428.321075 
L 107.991281 428.57642 
L 110.909937 428.558181 
L 112.627926 427.997371 
L 113.862073 428.545361 
L 114.357391 428.458955 
L 115.350873 428.243814 
L 116.098481 428.483822 
L 117.098659 428.900463 
L 117.60019 428.812945 
L 119.110584 428.425477 
L 119.616002 428.397611 
L 120.375942 428.227655 
L 121.138096 428.317447 
L 121.902481 428.552424 
L 123.694703 428.614059 
L 124.724343 428.433411 
L 126.276327 428.533411 
L 127.055741 428.808785 
L 127.576634 428.737329 
L 129.933329 428.145072 
L 130.723531 428.367616 
L 131.251641 428.454069 
L 132.311004 428.440958 
L 133.641109 428.611882 
L 134.175003 428.371921 
L 134.709958 428.013723 
L 135.245972 428.041154 
L 136.051985 428.311254 
L 136.860434 428.033993 
L 137.400745 427.913384 
L 138.21323 428.260311 
L 138.756239 428.095822 
L 139.572797 427.840332 
L 140.11854 427.840284 
L 140.939209 428.439507 
L 141.213317 428.400852 
L 142.037297 427.887356 
L 142.86377 428.088759 
L 143.416134 428.159005 
L 143.969633 427.908643 
L 144.801964 427.48402 
L 145.079978 427.489777 
L 145.636825 427.879954 
L 146.194825 428.122818 
L 147.31421 427.923254 
L 149.849558 427.310726 
L 150.699875 427.786631 
L 151.837675 427.650105 
L 152.408341 427.808305 
L 152.980161 427.61774 
L 154.127353 426.99215 
L 154.702726 426.983054 
L 155.279288 427.167427 
L 156.146365 427.530561 
L 158.471755 427.065686 
L 159.056111 426.818275 
L 160.228507 426.721952 
L 162.291953 427.046479 
L 163.775117 426.432258 
L 164.967266 426.53279 
L 166.164418 426.297378 
L 166.464491 426.159255 
L 167.667967 426.071834 
L 167.969622 425.956111 
L 170.090189 426.050644 
L 171.003821 425.766949 
L 173.147006 425.451953 
L 173.454464 425.521087 
L 174.070403 425.344842 
L 174.687644 425.089061 
L 175.615989 424.300434 
L 176.236541 424.298063 
L 176.858413 424.145088 
L 177.481625 424.052007 
L 178.106176 423.705613 
L 178.418953 423.713692 
L 179.045531 423.984373 
L 179.359313 423.887518 
L 179.987919 423.228208 
L 180.933357 422.926612 
L 181.565348 422.47301 
L 183.469541 422.119262 
L 184.426288 421.328748 
L 185.38616 421.209638 
L 186.027823 421.092222 
L 187.9612 419.944912 
L 188.93264 419.789518 
L 190.558838 418.733113 
L 190.885138 418.608391 
L 191.538835 417.99746 
L 192.193964 417.500752 
L 193.508557 416.200612 
L 193.838111 415.573184 
L 194.828952 413.06405 
L 195.491354 412.158877 
L 196.155206 411.175088 
L 196.487681 410.50528 
L 196.820528 410.208716 
L 197.487338 410.667398 
L 197.821301 410.450999 
L 198.825404 408.744861 
L 199.160855 408.641427 
L 199.496678 408.681823 
L 200.16944 409.181047 
L 200.506379 409.139683 
L 200.843708 408.6676 
L 201.181391 408.437557 
L 201.519465 408.508191 
L 201.857929 408.378438 
L 202.535974 407.209115 
L 203.555867 406.946852 
L 204.579221 407.335385 
L 205.263366 406.809069 
L 205.606015 407.168429 
L 206.292485 408.249701 
L 206.636288 408.282019 
L 207.670057 406.685315 
L 208.015422 406.677574 
L 209.05386 407.267461 
L 209.400787 407.263735 
L 209.748105 407.109019 
L 210.095813 406.426632 
L 210.443931 405.294948 
L 210.792439 404.623785 
L 211.141338 404.641298 
L 211.490627 405.423975 
L 212.190415 408.339251 
L 212.540895 409.172823 
L 212.891784 409.387674 
L 213.243082 409.266388 
L 213.594771 408.957246 
L 213.94685 408.957729 
L 214.652237 410.217811 
L 215.359223 411.501454 
L 215.71333 411.762314 
L 216.067846 411.32637 
L 216.422752 410.618245 
L 216.778068 410.471608 
L 217.133812 411.199665 
L 217.846489 413.163711 
L 218.560804 414.123988 
L 219.276773 414.854851 
L 219.635363 415.426643 
L 219.99438 415.661137 
L 220.353806 415.635738 
L 220.713642 415.73864 
L 221.795641 417.007043 
L 222.51907 417.608444 
L 223.607356 417.993638 
L 223.970948 418.213182 
L 224.699417 418.952947 
L 225.795292 419.508242 
L 226.89498 420.7601 
L 228.367244 421.528699 
L 229.105943 421.555017 
L 229.846372 422.029809 
L 230.588549 422.245677 
L 230.960289 422.289024 
L 231.332456 422.459609 
L 232.078112 423.382876 
L 232.451581 423.650799 
L 233.199878 423.776004 
L 233.949923 423.848234 
L 235.832782 424.616059 
L 236.58904 424.575614 
L 237.347083 424.992255 
L 238.487523 424.966565 
L 239.250086 425.054954 
L 240.397315 425.0297 
L 241.164398 425.405122 
L 241.933322 425.521183 
L 244.639045 425.009526 
L 245.416283 425.203575 
L 246.97634 424.782289 
L 247.759195 424.451038 
L 248.543929 424.15878 
L 249.724564 423.469716 
L 250.909496 423.583842 
L 251.701837 423.246302 
L 252.496094 422.933579 
L 253.292286 422.863333 
L 253.691089 423.025257 
L 254.090393 423.057043 
L 254.890454 422.534984 
L 255.692467 422.107313 
L 256.09419 422.066239 
L 256.899142 422.251531 
L 257.706047 421.87606 
L 258.920107 421.363581 
L 259.325791 421.33315 
L 260.13863 421.591301 
L 260.953477 421.354921 
L 262.179496 420.038429 
L 262.589161 420.293387 
L 262.999347 420.81859 
L 263.410035 420.934942 
L 264.232936 420.652747 
L 265.057846 420.533541 
L 265.884821 420.207514 
L 266.713823 419.743558 
L 267.129105 419.854588 
L 267.544889 420.16136 
L 267.961195 420.293822 
L 268.795349 419.850863 
L 269.631586 420.015642 
L 270.889839 419.555267 
L 271.310311 419.211824 
L 271.731284 419.180764 
L 272.57485 419.751154 
L 273.420499 419.599002 
L 273.844133 419.782939 
L 274.268287 419.762378 
L 274.692962 419.441334 
L 275.118177 419.607952 
L 275.543931 420.142492 
L 276.397039 420.744183 
L 276.824392 421.005092 
L 277.252285 420.967404 
L 278.109689 420.720284 
L 278.969251 420.674469 
L 279.399841 420.882692 
L 280.262658 421.772868 
L 280.694885 421.888881 
L 281.994839 421.595655 
L 283.735817 421.914038 
L 285.047359 422.397926 
L 285.48565 422.33929 
L 285.924517 422.45511 
L 286.803887 423.085102 
L 288.127166 423.203099 
L 288.569399 423.159509 
L 289.455541 422.721146 
L 290.789012 422.621098 
L 292.127617 422.325841 
L 292.574965 422.048435 
L 293.471392 421.961353 
L 294.370126 421.329619 
L 295.271184 421.203494 
L 296.627124 420.629138 
L 298.443265 420.87263 
L 298.898761 420.768082 
L 299.811556 420.267117 
L 300.726713 420.325801 
L 301.644251 420.662326 
L 302.564188 420.546748 
L 303.486525 420.175777 
L 303.948605 420.125705 
L 305.338434 420.236348 
L 305.802932 420.041138 
L 306.268043 419.987341 
L 307.200071 420.591789 
L 307.667005 420.59416 
L 309.07151 420.219512 
L 310.010921 420.488838 
L 310.481557 420.419027 
L 312.370313 419.44743 
L 313.318448 419.457493 
L 314.269094 419.116759 
L 315.699787 418.430356 
L 316.656757 418.470656 
L 317.136209 418.400022 
L 317.616275 418.470075 
L 319.060361 418.190493 
L 321.965923 418.574816 
L 322.452461 418.582992 
L 322.939633 418.462625 
L 324.405127 418.629049 
L 324.405127 418.629049 
" style="fill:none;stroke:#8c564b;stroke-linecap:square;stroke-width:1.5;"/>
   </g>
   <g id="patch_3">
    <path d="M 45 448.56 
L 45 60.48 
" style="fill:none;stroke:#000000;stroke-linecap:square;stroke-linejoin:miter;stroke-width:0.8;"/>
   </g>
   <g id="patch_4">
    <path d="M 324 448.56 
L 324 60.48 
" style="fill:none;stroke:#000000;stroke-linecap:square;stroke-linejoin:miter;stroke-width:0.8;"/>
   </g>
   <g id="patch_5">
    <path d="M 45 448.56 
L 324 448.56 
" style="fill:none;stroke:#000000;stroke-linecap:square;stroke-linejoin:miter;stroke-width:0.8;"/>
   </g>
   <g id="patch_6">
    <path d="M 45 60.48 
L 324 60.48 
" style="fill:none;stroke:#000000;stroke-linecap:square;stroke-linejoin:miter;stroke-width:0.8;"/>
   </g>
   <g id="text_19">
    <!-- EELS spectra of bulk C$_2$Li: -K -->
    <g transform="translate(95.7 54.48)scale(0.12 -0.12)">
     <defs>
      <path d="M 53.515625 70.515625 
L 53.515625 60.890625 
Q 47.90625 63.578125 42.921875 64.890625 
Q 37.9375 66.21875 33.296875 66.21875 
Q 25.25 66.21875 20.875 63.09375 
Q 16.5 59.96875 16.5 54.203125 
Q 16.5 49.359375 19.40625 46.890625 
Q 22.3125 44.4375 30.421875 42.921875 
L 36.375 41.703125 
Q 47.40625 39.59375 52.65625 34.296875 
Q 57.90625 29 57.90625 20.125 
Q 57.90625 9.515625 50.796875 4.046875 
Q 43.703125 -1.421875 29.984375 -1.421875 
Q 24.8125 -1.421875 18.96875 -0.25 
Q 13.140625 0.921875 6.890625 3.21875 
L 6.890625 13.375 
Q 12.890625 10.015625 18.65625 8.296875 
Q 24.421875 6.59375 29.984375 6.59375 
Q 38.421875 6.59375 43.015625 9.90625 
Q 47.609375 13.234375 47.609375 19.390625 
Q 47.609375 24.75 44.3125 27.78125 
Q 41.015625 30.8125 33.5 32.328125 
L 27.484375 33.5 
Q 16.453125 35.6875 11.515625 40.375 
Q 6.59375 45.0625 6.59375 53.421875 
Q 6.59375 63.09375 13.40625 68.65625 
Q 20.21875 74.21875 32.171875 74.21875 
Q 37.3125 74.21875 42.625 73.28125 
Q 47.953125 72.359375 53.515625 70.515625 
z
" id="DejaVuSans-83"/>
      <path d="M 18.109375 8.203125 
L 18.109375 -20.796875 
L 9.078125 -20.796875 
L 9.078125 54.6875 
L 18.109375 54.6875 
L 18.109375 46.390625 
Q 20.953125 51.265625 25.265625 53.625 
Q 29.59375 56 35.59375 56 
Q 45.5625 56 51.78125 48.09375 
Q 58.015625 40.1875 58.015625 27.296875 
Q 58.015625 14.40625 51.78125 6.484375 
Q 45.5625 -1.421875 35.59375 -1.421875 
Q 29.59375 -1.421875 25.265625 0.953125 
Q 20.953125 3.328125 18.109375 8.203125 
z
M 48.6875 27.296875 
Q 48.6875 37.203125 44.609375 42.84375 
Q 40.53125 48.484375 33.40625 48.484375 
Q 26.265625 48.484375 22.1875 42.84375 
Q 18.109375 37.203125 18.109375 27.296875 
Q 18.109375 17.390625 22.1875 11.75 
Q 26.265625 6.109375 33.40625 6.109375 
Q 40.53125 6.109375 44.609375 11.75 
Q 48.6875 17.390625 48.6875 27.296875 
z
" id="DejaVuSans-112"/>
      <path d="M 34.28125 27.484375 
Q 23.390625 27.484375 19.1875 25 
Q 14.984375 22.515625 14.984375 16.5 
Q 14.984375 11.71875 18.140625 8.90625 
Q 21.296875 6.109375 26.703125 6.109375 
Q 34.1875 6.109375 38.703125 11.40625 
Q 43.21875 16.703125 43.21875 25.484375 
L 43.21875 27.484375 
z
M 52.203125 31.203125 
L 52.203125 0 
L 43.21875 0 
L 43.21875 8.296875 
Q 40.140625 3.328125 35.546875 0.953125 
Q 30.953125 -1.421875 24.3125 -1.421875 
Q 15.921875 -1.421875 10.953125 3.296875 
Q 6 8.015625 6 15.921875 
Q 6 25.140625 12.171875 29.828125 
Q 18.359375 34.515625 30.609375 34.515625 
L 43.21875 34.515625 
L 43.21875 35.40625 
Q 43.21875 41.609375 39.140625 45 
Q 35.0625 48.390625 27.6875 48.390625 
Q 23 48.390625 18.546875 47.265625 
Q 14.109375 46.140625 10.015625 43.890625 
L 10.015625 52.203125 
Q 14.9375 54.109375 19.578125 55.046875 
Q 24.21875 56 28.609375 56 
Q 40.484375 56 46.34375 49.84375 
Q 52.203125 43.703125 52.203125 31.203125 
z
" id="DejaVuSans-97"/>
      <path d="M 37.109375 75.984375 
L 37.109375 68.5 
L 28.515625 68.5 
Q 23.6875 68.5 21.796875 66.546875 
Q 19.921875 64.59375 19.921875 59.515625 
L 19.921875 54.6875 
L 34.71875 54.6875 
L 34.71875 47.703125 
L 19.921875 47.703125 
L 19.921875 0 
L 10.890625 0 
L 10.890625 47.703125 
L 2.296875 47.703125 
L 2.296875 54.6875 
L 10.890625 54.6875 
L 10.890625 58.5 
Q 10.890625 67.625 15.140625 71.796875 
Q 19.390625 75.984375 28.609375 75.984375 
z
" id="DejaVuSans-102"/>
      <path d="M 48.6875 27.296875 
Q 48.6875 37.203125 44.609375 42.84375 
Q 40.53125 48.484375 33.40625 48.484375 
Q 26.265625 48.484375 22.1875 42.84375 
Q 18.109375 37.203125 18.109375 27.296875 
Q 18.109375 17.390625 22.1875 11.75 
Q 26.265625 6.109375 33.40625 6.109375 
Q 40.53125 6.109375 44.609375 11.75 
Q 48.6875 17.390625 48.6875 27.296875 
z
M 18.109375 46.390625 
Q 20.953125 51.265625 25.265625 53.625 
Q 29.59375 56 35.59375 56 
Q 45.5625 56 51.78125 48.09375 
Q 58.015625 40.1875 58.015625 27.296875 
Q 58.015625 14.40625 51.78125 6.484375 
Q 45.5625 -1.421875 35.59375 -1.421875 
Q 29.59375 -1.421875 25.265625 0.953125 
Q 20.953125 3.328125 18.109375 8.203125 
L 18.109375 0 
L 9.078125 0 
L 9.078125 75.984375 
L 18.109375 75.984375 
z
" id="DejaVuSans-98"/>
      <path d="M 9.421875 75.984375 
L 18.40625 75.984375 
L 18.40625 0 
L 9.421875 0 
z
" id="DejaVuSans-108"/>
      <path d="M 9.078125 75.984375 
L 18.109375 75.984375 
L 18.109375 31.109375 
L 44.921875 54.6875 
L 56.390625 54.6875 
L 27.390625 29.109375 
L 57.625 0 
L 45.90625 0 
L 18.109375 26.703125 
L 18.109375 0 
L 9.078125 0 
z
" id="DejaVuSans-107"/>
      <path d="M 64.40625 67.28125 
L 64.40625 56.890625 
Q 59.421875 61.53125 53.78125 63.8125 
Q 48.140625 66.109375 41.796875 66.109375 
Q 29.296875 66.109375 22.65625 58.46875 
Q 16.015625 50.828125 16.015625 36.375 
Q 16.015625 21.96875 22.65625 14.328125 
Q 29.296875 6.6875 41.796875 6.6875 
Q 48.140625 6.6875 53.78125 8.984375 
Q 59.421875 11.28125 64.40625 15.921875 
L 64.40625 5.609375 
Q 59.234375 2.09375 53.4375 0.328125 
Q 47.65625 -1.421875 41.21875 -1.421875 
Q 24.65625 -1.421875 15.125 8.703125 
Q 5.609375 18.84375 5.609375 36.375 
Q 5.609375 53.953125 15.125 64.078125 
Q 24.65625 74.21875 41.21875 74.21875 
Q 47.75 74.21875 53.53125 72.484375 
Q 59.328125 70.75 64.40625 67.28125 
z
" id="DejaVuSans-67"/>
      <path d="M 11.71875 12.40625 
L 22.015625 12.40625 
L 22.015625 0 
L 11.71875 0 
z
M 11.71875 51.703125 
L 22.015625 51.703125 
L 22.015625 39.3125 
L 11.71875 39.3125 
z
" id="DejaVuSans-58"/>
      <path d="M 9.8125 0 
L 9.8125 72.90625 
L 55.171875 72.90625 
L 55.171875 64.59375 
L 19.671875 64.59375 
L 19.671875 0 
z
" id="DejaVuSans-915"/>
      <path d="M 4.890625 31.390625 
L 31.203125 31.390625 
L 31.203125 23.390625 
L 4.890625 23.390625 
z
" id="DejaVuSans-45"/>
      <path d="M 9.8125 72.90625 
L 19.671875 72.90625 
L 19.671875 42.09375 
L 52.390625 72.90625 
L 65.09375 72.90625 
L 28.90625 38.921875 
L 67.671875 0 
L 54.6875 0 
L 19.671875 35.109375 
L 19.671875 0 
L 9.8125 0 
z
" id="DejaVuSans-75"/>
     </defs>
     <use transform="translate(0 0.015625)" xlink:href="#DejaVuSans-69"/>
     <use transform="translate(63.183594 0.015625)" xlink:href="#DejaVuSans-69"/>
     <use transform="translate(126.367188 0.015625)" xlink:href="#DejaVuSans-76"/>
     <use transform="translate(182.080078 0.015625)" xlink:href="#DejaVuSans-83"/>
     <use transform="translate(245.556641 0.015625)" xlink:href="#DejaVuSans-32"/>
     <use transform="translate(277.34375 0.015625)" xlink:href="#DejaVuSans-115"/>
     <use transform="translate(329.443359 0.015625)" xlink:href="#DejaVuSans-112"/>
     <use transform="translate(392.919922 0.015625)" xlink:href="#DejaVuSans-101"/>
     <use transform="translate(454.443359 0.015625)" xlink:href="#DejaVuSans-99"/>
     <use transform="translate(509.423828 0.015625)" xlink:href="#DejaVuSans-116"/>
     <use transform="translate(548.632812 0.015625)" xlink:href="#DejaVuSans-114"/>
     <use transform="translate(589.746094 0.015625)" xlink:href="#DejaVuSans-97"/>
     <use transform="translate(651.025391 0.015625)" xlink:href="#DejaVuSans-32"/>
     <use transform="translate(682.8125 0.015625)" xlink:href="#DejaVuSans-111"/>
     <use transform="translate(743.994141 0.015625)" xlink:href="#DejaVuSans-102"/>
     <use transform="translate(779.199219 0.015625)" xlink:href="#DejaVuSans-32"/>
     <use transform="translate(810.986328 0.015625)" xlink:href="#DejaVuSans-98"/>
     <use transform="translate(874.462891 0.015625)" xlink:href="#DejaVuSans-117"/>
     <use transform="translate(937.841797 0.015625)" xlink:href="#DejaVuSans-108"/>
     <use transform="translate(965.625 0.015625)" xlink:href="#DejaVuSans-107"/>
     <use transform="translate(1023.535156 0.015625)" xlink:href="#DejaVuSans-32"/>
     <use transform="translate(1055.322266 0.015625)" xlink:href="#DejaVuSans-67"/>
     <use transform="translate(1126.103516 -16.390625)scale(0.7)" xlink:href="#DejaVuSans-50"/>
     <use transform="translate(1173.374023 0.015625)" xlink:href="#DejaVuSans-76"/>
     <use transform="translate(1229.086914 0.015625)" xlink:href="#DejaVuSans-105"/>
     <use transform="translate(1256.870117 0.015625)" xlink:href="#DejaVuSans-58"/>
     <use transform="translate(1290.561523 0.015625)" xlink:href="#DejaVuSans-32"/>
     <use transform="translate(1322.348633 0.015625)" xlink:href="#DejaVuSans-915"/>
     <use transform="translate(1378.061523 0.015625)" xlink:href="#DejaVuSans-45"/>
     <use transform="translate(1414.145508 0.015625)" xlink:href="#DejaVuSans-75"/>
    </g>
   </g>
   <g id="legend_1">
    <g id="patch_7">
     <path d="M 229.3 165.08 
L 317 165.08 
Q 319 165.08 319 163.08 
L 319 67.48 
Q 319 65.48 317 65.48 
L 229.3 65.48 
Q 227.3 65.48 227.3 67.48 
L 227.3 163.08 
Q 227.3 165.08 229.3 165.08 
z
" style="fill:#ffffff;opacity:0.8;stroke:#cccccc;stroke-linejoin:miter;"/>
    </g>
    <g id="line2d_23">
     <path d="M 231.3 74.98 
L 251.3 74.98 
" style="fill:none;stroke:#1f77b4;stroke-linecap:square;stroke-width:1.5;"/>
    </g>
    <g id="line2d_24"/>
    <g id="text_20">
     <!-- 0.08 Ang$^{-1}$ -->
     <g transform="translate(259.3 78.48)scale(0.1 -0.1)">
      <defs>
       <path d="M 10.6875 12.40625 
L 21 12.40625 
L 21 0 
L 10.6875 0 
z
" id="DejaVuSans-46"/>
       <path d="M 34.1875 63.1875 
L 20.796875 26.90625 
L 47.609375 26.90625 
z
M 28.609375 72.90625 
L 39.796875 72.90625 
L 67.578125 0 
L 57.328125 0 
L 50.6875 18.703125 
L 17.828125 18.703125 
L 11.1875 0 
L 0.78125 0 
z
" id="DejaVuSans-65"/>
       <path d="M 10.59375 35.5 
L 73.1875 35.5 
L 73.1875 27.203125 
L 10.59375 27.203125 
z
" id="DejaVuSans-8722"/>
      </defs>
      <use transform="translate(0 0.684375)" xlink:href="#DejaVuSans-48"/>
      <use transform="translate(63.623047 0.684375)" xlink:href="#DejaVuSans-46"/>
      <use transform="translate(95.410156 0.684375)" xlink:href="#DejaVuSans-48"/>
      <use transform="translate(159.033203 0.684375)" xlink:href="#DejaVuSans-56"/>
      <use transform="translate(222.65625 0.684375)" xlink:href="#DejaVuSans-32"/>
      <use transform="translate(254.443359 0.684375)" xlink:href="#DejaVuSans-65"/>
      <use transform="translate(322.851562 0.684375)" xlink:href="#DejaVuSans-110"/>
      <use transform="translate(386.230469 0.684375)" xlink:href="#DejaVuSans-103"/>
      <use transform="translate(450.664062 38.965625)scale(0.7)" xlink:href="#DejaVuSans-8722"/>
      <use transform="translate(509.316406 38.965625)scale(0.7)" xlink:href="#DejaVuSans-49"/>
     </g>
    </g>
    <g id="line2d_25">
     <path d="M 231.3 91.08 
L 251.3 91.08 
" style="fill:none;stroke:#ff7f0e;stroke-linecap:square;stroke-width:1.5;"/>
    </g>
    <g id="line2d_26"/>
    <g id="text_21">
     <!-- 0.25 Ang$^{-1}$ -->
     <g transform="translate(259.3 94.58)scale(0.1 -0.1)">
      <use transform="translate(0 0.684375)" xlink:href="#DejaVuSans-48"/>
      <use transform="translate(63.623047 0.684375)" xlink:href="#DejaVuSans-46"/>
      <use transform="translate(89.910156 0.684375)" xlink:href="#DejaVuSans-50"/>
      <use transform="translate(153.533203 0.684375)" xlink:href="#DejaVuSans-53"/>
      <use transform="translate(217.15625 0.684375)" xlink:href="#DejaVuSans-32"/>
      <use transform="translate(248.943359 0.684375)" xlink:href="#DejaVuSans-65"/>
      <use transform="translate(317.351562 0.684375)" xlink:href="#DejaVuSans-110"/>
      <use transform="translate(380.730469 0.684375)" xlink:href="#DejaVuSans-103"/>
      <use transform="translate(445.164062 38.965625)scale(0.7)" xlink:href="#DejaVuSans-8722"/>
      <use transform="translate(503.816406 38.965625)scale(0.7)" xlink:href="#DejaVuSans-49"/>
     </g>
    </g>
    <g id="line2d_27">
     <path d="M 231.3 107.18 
L 251.3 107.18 
" style="fill:none;stroke:#2ca02c;stroke-linecap:square;stroke-width:1.5;"/>
    </g>
    <g id="line2d_28"/>
    <g id="text_22">
     <!-- 0.41 Ang$^{-1}$ -->
     <g transform="translate(259.3 110.68)scale(0.1 -0.1)">
      <use transform="translate(0 0.684375)" xlink:href="#DejaVuSans-48"/>
      <use transform="translate(63.623047 0.684375)" xlink:href="#DejaVuSans-46"/>
      <use transform="translate(95.410156 0.684375)" xlink:href="#DejaVuSans-52"/>
      <use transform="translate(159.033203 0.684375)" xlink:href="#DejaVuSans-49"/>
      <use transform="translate(222.65625 0.684375)" xlink:href="#DejaVuSans-32"/>
      <use transform="translate(254.443359 0.684375)" xlink:href="#DejaVuSans-65"/>
      <use transform="translate(322.851562 0.684375)" xlink:href="#DejaVuSans-110"/>
      <use transform="translate(386.230469 0.684375)" xlink:href="#DejaVuSans-103"/>
      <use transform="translate(450.664062 38.965625)scale(0.7)" xlink:href="#DejaVuSans-8722"/>
      <use transform="translate(509.316406 38.965625)scale(0.7)" xlink:href="#DejaVuSans-49"/>
     </g>
    </g>
    <g id="line2d_29">
     <path d="M 231.3 123.28 
L 251.3 123.28 
" style="fill:none;stroke:#d62728;stroke-linecap:square;stroke-width:1.5;"/>
    </g>
    <g id="line2d_30"/>
    <g id="text_23">
     <!-- 0.57 Ang$^{-1}$ -->
     <g transform="translate(259.3 126.78)scale(0.1 -0.1)">
      <use transform="translate(0 0.684375)" xlink:href="#DejaVuSans-48"/>
      <use transform="translate(63.623047 0.684375)" xlink:href="#DejaVuSans-46"/>
      <use transform="translate(95.410156 0.684375)" xlink:href="#DejaVuSans-53"/>
      <use transform="translate(151.783203 0.684375)" xlink:href="#DejaVuSans-55"/>
      <use transform="translate(215.40625 0.684375)" xlink:href="#DejaVuSans-32"/>
      <use transform="translate(247.193359 0.684375)" xlink:href="#DejaVuSans-65"/>
      <use transform="translate(315.601562 0.684375)" xlink:href="#DejaVuSans-110"/>
      <use transform="translate(378.980469 0.684375)" xlink:href="#DejaVuSans-103"/>
      <use transform="translate(443.414062 38.965625)scale(0.7)" xlink:href="#DejaVuSans-8722"/>
      <use transform="translate(502.066406 38.965625)scale(0.7)" xlink:href="#DejaVuSans-49"/>
     </g>
    </g>
    <g id="line2d_31">
     <path d="M 231.3 139.38 
L 251.3 139.38 
" style="fill:none;stroke:#9467bd;stroke-linecap:square;stroke-width:1.5;"/>
    </g>
    <g id="line2d_32"/>
    <g id="text_24">
     <!-- 0.74 Ang$^{-1}$ -->
     <g transform="translate(259.3 142.88)scale(0.1 -0.1)">
      <use transform="translate(0 0.684375)" xlink:href="#DejaVuSans-48"/>
      <use transform="translate(63.623047 0.684375)" xlink:href="#DejaVuSans-46"/>
      <use transform="translate(87.660156 0.684375)" xlink:href="#DejaVuSans-55"/>
      <use transform="translate(151.283203 0.684375)" xlink:href="#DejaVuSans-52"/>
      <use transform="translate(214.90625 0.684375)" xlink:href="#DejaVuSans-32"/>
      <use transform="translate(246.693359 0.684375)" xlink:href="#DejaVuSans-65"/>
      <use transform="translate(315.101562 0.684375)" xlink:href="#DejaVuSans-110"/>
      <use transform="translate(378.480469 0.684375)" xlink:href="#DejaVuSans-103"/>
      <use transform="translate(442.914062 38.965625)scale(0.7)" xlink:href="#DejaVuSans-8722"/>
      <use transform="translate(501.566406 38.965625)scale(0.7)" xlink:href="#DejaVuSans-49"/>
     </g>
    </g>
    <g id="line2d_33">
     <path d="M 231.3 155.48 
L 251.3 155.48 
" style="fill:none;stroke:#8c564b;stroke-linecap:square;stroke-width:1.5;"/>
    </g>
    <g id="line2d_34"/>
    <g id="text_25">
     <!-- 0.90 Ang$^{-1}$ -->
     <g transform="translate(259.3 158.98)scale(0.1 -0.1)">
      <defs>
       <path d="M 10.984375 1.515625 
L 10.984375 10.5 
Q 14.703125 8.734375 18.5 7.8125 
Q 22.3125 6.890625 25.984375 6.890625 
Q 35.75 6.890625 40.890625 13.453125 
Q 46.046875 20.015625 46.78125 33.40625 
Q 43.953125 29.203125 39.59375 26.953125 
Q 35.25 24.703125 29.984375 24.703125 
Q 19.046875 24.703125 12.671875 31.3125 
Q 6.296875 37.9375 6.296875 49.421875 
Q 6.296875 60.640625 12.9375 67.421875 
Q 19.578125 74.21875 30.609375 74.21875 
Q 43.265625 74.21875 49.921875 64.515625 
Q 56.59375 54.828125 56.59375 36.375 
Q 56.59375 19.140625 48.40625 8.859375 
Q 40.234375 -1.421875 26.421875 -1.421875 
Q 22.703125 -1.421875 18.890625 -0.6875 
Q 15.09375 0.046875 10.984375 1.515625 
z
M 30.609375 32.421875 
Q 37.25 32.421875 41.125 36.953125 
Q 45.015625 41.5 45.015625 49.421875 
Q 45.015625 57.28125 41.125 61.84375 
Q 37.25 66.40625 30.609375 66.40625 
Q 23.96875 66.40625 20.09375 61.84375 
Q 16.21875 57.28125 16.21875 49.421875 
Q 16.21875 41.5 20.09375 36.953125 
Q 23.96875 32.421875 30.609375 32.421875 
z
" id="DejaVuSans-57"/>
      </defs>
      <use transform="translate(0 0.684375)" xlink:href="#DejaVuSans-48"/>
      <use transform="translate(63.623047 0.684375)" xlink:href="#DejaVuSans-46"/>
      <use transform="translate(95.410156 0.684375)" xlink:href="#DejaVuSans-57"/>
      <use transform="translate(159.033203 0.684375)" xlink:href="#DejaVuSans-48"/>
      <use transform="translate(222.65625 0.684375)" xlink:href="#DejaVuSans-32"/>
      <use transform="translate(254.443359 0.684375)" xlink:href="#DejaVuSans-65"/>
      <use transform="translate(322.851562 0.684375)" xlink:href="#DejaVuSans-110"/>
      <use transform="translate(386.230469 0.684375)" xlink:href="#DejaVuSans-103"/>
      <use transform="translate(450.664062 38.965625)scale(0.7)" xlink:href="#DejaVuSans-8722"/>
      <use transform="translate(509.316406 38.965625)scale(0.7)" xlink:href="#DejaVuSans-49"/>
     </g>
    </g>
   </g>
  </g>
 </g>
 <defs>
  <clipPath id="p826e6cf11f">
   <rect height="388.08" width="279" x="45" y="60.48"/>
  </clipPath>
 </defs>
</svg>
