<?xml version="1.0" encoding="utf-8" standalone="no"?>
<!DOCTYPE svg PUBLIC "-//W3C//DTD SVG 1.1//EN"
  "http://www.w3.org/Graphics/SVG/1.1/DTD/svg11.dtd">
<!-- Created with matplotlib (https://matplotlib.org/) -->
<svg height="360pt" version="1.1" viewBox="0 0 576 360" width="576pt" xmlns="http://www.w3.org/2000/svg" xmlns:xlink="http://www.w3.org/1999/xlink">
 <metadata>
  <rdf:RDF xmlns:cc="http://creativecommons.org/ns#" xmlns:dc="http://purl.org/dc/elements/1.1/" xmlns:rdf="http://www.w3.org/1999/02/22-rdf-syntax-ns#">
   <cc:Work>
    <dc:type rdf:resource="http://purl.org/dc/dcmitype/StillImage"/>
    <dc:date>2021-03-20T17:10:06.145212</dc:date>
    <dc:format>image/svg+xml</dc:format>
    <dc:creator>
     <cc:Agent>
      <dc:title>Matplotlib v3.3.4, https://matplotlib.org/</dc:title>
     </cc:Agent>
    </dc:creator>
   </cc:Work>
  </rdf:RDF>
 </metadata>
 <defs>
  <style type="text/css">*{stroke-linecap:butt;stroke-linejoin:round;}</style>
 </defs>
 <g id="figure_1">
  <g id="patch_1">
   <path d="M 0 360 
L 576 360 
L 576 0 
L 0 0 
z
" style="fill:#ffffff;"/>
  </g>
  <g id="axes_1">
   <g id="patch_2">
    <path d="M 60.932 326.72 
L 561.015 326.72 
L 561.015 31.92 
L 60.932 31.92 
z
" style="fill:#ffffff;"/>
   </g>
   <g id="matplotlib.axis_1">
    <g id="xtick_1">
     <g id="line2d_1">
      <defs>
       <path d="M 0 0 
L 0 3.5 
" id="m1bc33f8a92" style="stroke:#000000;stroke-width:0.8;"/>
      </defs>
      <g>
       <use style="stroke:#000000;stroke-width:0.8;" x="60.932" xlink:href="#m1bc33f8a92" y="326.72"/>
      </g>
     </g>
     <g id="text_1">
      <!-- Γ -->
      <g transform="translate(56.753094 345.117656)scale(0.15 -0.15)">
       <defs>
        <path d="M 9.8125 0 
L 9.8125 72.90625 
L 55.171875 72.90625 
L 55.171875 64.59375 
L 19.671875 64.59375 
L 19.671875 0 
z
" id="DejaVuSans-915"/>
       </defs>
       <use xlink:href="#DejaVuSans-915"/>
      </g>
     </g>
    </g>
    <g id="xtick_2">
     <g id="line2d_2">
      <g>
       <use style="stroke:#000000;stroke-width:0.8;" x="128.692145" xlink:href="#m1bc33f8a92" y="326.72"/>
      </g>
     </g>
     <g id="text_2">
      <!-- K -->
      <g transform="translate(123.773785 345.117656)scale(0.15 -0.15)">
       <defs>
        <path d="M 9.8125 72.90625 
L 19.671875 72.90625 
L 19.671875 42.09375 
L 52.390625 72.90625 
L 65.09375 72.90625 
L 28.90625 38.921875 
L 67.671875 0 
L 54.6875 0 
L 19.671875 35.109375 
L 19.671875 0 
L 9.8125 0 
z
" id="DejaVuSans-75"/>
       </defs>
       <use xlink:href="#DejaVuSans-75"/>
      </g>
     </g>
    </g>
    <g id="xtick_3">
     <g id="line2d_3">
      <g>
       <use style="stroke:#000000;stroke-width:0.8;" x="162.572217" xlink:href="#m1bc33f8a92" y="326.72"/>
      </g>
     </g>
     <g id="text_3">
      <!-- M -->
      <g transform="translate(156.101123 345.117656)scale(0.15 -0.15)">
       <defs>
        <path d="M 9.8125 72.90625 
L 24.515625 72.90625 
L 43.109375 23.296875 
L 61.8125 72.90625 
L 76.515625 72.90625 
L 76.515625 0 
L 66.890625 0 
L 66.890625 64.015625 
L 48.09375 14.015625 
L 38.1875 14.015625 
L 19.390625 64.015625 
L 19.390625 0 
L 9.8125 0 
z
" id="DejaVuSans-77"/>
       </defs>
       <use xlink:href="#DejaVuSans-77"/>
      </g>
     </g>
    </g>
    <g id="xtick_4">
     <g id="line2d_4">
      <g>
       <use style="stroke:#000000;stroke-width:0.8;" x="221.254224" xlink:href="#m1bc33f8a92" y="326.72"/>
      </g>
     </g>
     <g id="text_4">
      <!-- Γ -->
      <g transform="translate(217.075318 345.117656)scale(0.15 -0.15)">
       <use xlink:href="#DejaVuSans-915"/>
      </g>
     </g>
    </g>
    <g id="xtick_5">
     <g id="line2d_5">
      <g>
       <use style="stroke:#000000;stroke-width:0.8;" x="281.067075" xlink:href="#m1bc33f8a92" y="326.72"/>
      </g>
     </g>
     <g id="text_5">
      <!-- A -->
      <g transform="translate(275.936606 345.117656)scale(0.15 -0.15)">
       <defs>
        <path d="M 34.1875 63.1875 
L 20.796875 26.90625 
L 47.609375 26.90625 
z
M 28.609375 72.90625 
L 39.796875 72.90625 
L 67.578125 0 
L 57.328125 0 
L 50.6875 18.703125 
L 17.828125 18.703125 
L 11.1875 0 
L 0.78125 0 
z
" id="DejaVuSans-65"/>
       </defs>
       <use xlink:href="#DejaVuSans-65"/>
      </g>
     </g>
    </g>
    <g id="xtick_6">
     <g id="line2d_6">
      <g>
       <use style="stroke:#000000;stroke-width:0.8;" x="348.827219" xlink:href="#m1bc33f8a92" y="326.72"/>
      </g>
     </g>
     <g id="text_6">
      <!-- H -->
      <g transform="translate(343.186985 345.117656)scale(0.15 -0.15)">
       <defs>
        <path d="M 9.8125 72.90625 
L 19.671875 72.90625 
L 19.671875 43.015625 
L 55.515625 43.015625 
L 55.515625 72.90625 
L 65.375 72.90625 
L 65.375 0 
L 55.515625 0 
L 55.515625 34.71875 
L 19.671875 34.71875 
L 19.671875 0 
L 9.8125 0 
z
" id="DejaVuSans-72"/>
       </defs>
       <use xlink:href="#DejaVuSans-72"/>
      </g>
     </g>
    </g>
    <g id="xtick_7">
     <g id="line2d_7">
      <g>
       <use style="stroke:#000000;stroke-width:0.8;" x="382.707292" xlink:href="#m1bc33f8a92" y="326.72"/>
      </g>
     </g>
     <g id="text_7">
      <!-- L -->
      <g transform="translate(378.528385 345.117656)scale(0.15 -0.15)">
       <defs>
        <path d="M 9.8125 72.90625 
L 19.671875 72.90625 
L 19.671875 8.296875 
L 55.171875 8.296875 
L 55.171875 0 
L 9.8125 0 
z
" id="DejaVuSans-76"/>
       </defs>
       <use xlink:href="#DejaVuSans-76"/>
      </g>
     </g>
    </g>
    <g id="xtick_8">
     <g id="line2d_8">
      <g>
       <use style="stroke:#000000;stroke-width:0.8;" x="441.389298" xlink:href="#m1bc33f8a92" y="326.72"/>
      </g>
     </g>
     <g id="text_8">
      <!-- A|K -->
      <g transform="translate(428.813908 345.183281)scale(0.15 -0.15)">
       <defs>
        <path d="M 21 76.421875 
L 21 -23.578125 
L 12.703125 -23.578125 
L 12.703125 76.421875 
z
" id="DejaVuSans-124"/>
       </defs>
       <use xlink:href="#DejaVuSans-65"/>
       <use x="68.408203" xlink:href="#DejaVuSans-124"/>
       <use x="102.099609" xlink:href="#DejaVuSans-75"/>
      </g>
     </g>
    </g>
    <g id="xtick_9">
     <g id="line2d_9">
      <g>
       <use style="stroke:#000000;stroke-width:0.8;" x="441.389298" xlink:href="#m1bc33f8a92" y="326.72"/>
      </g>
     </g>
     <g id="text_9">
      <!-- A|K -->
      <g transform="translate(428.813908 345.183281)scale(0.15 -0.15)">
       <use xlink:href="#DejaVuSans-65"/>
       <use x="68.408203" xlink:href="#DejaVuSans-124"/>
       <use x="102.099609" xlink:href="#DejaVuSans-75"/>
      </g>
     </g>
    </g>
    <g id="xtick_10">
     <g id="line2d_10">
      <g>
       <use style="stroke:#000000;stroke-width:0.8;" x="501.202149" xlink:href="#m1bc33f8a92" y="326.72"/>
      </g>
     </g>
     <g id="text_10">
      <!-- H|M -->
      <g transform="translate(486.564259 345.183281)scale(0.15 -0.15)">
       <use xlink:href="#DejaVuSans-72"/>
       <use x="75.195312" xlink:href="#DejaVuSans-124"/>
       <use x="108.886719" xlink:href="#DejaVuSans-77"/>
      </g>
     </g>
    </g>
    <g id="xtick_11">
     <g id="line2d_11">
      <g>
       <use style="stroke:#000000;stroke-width:0.8;" x="501.202149" xlink:href="#m1bc33f8a92" y="326.72"/>
      </g>
     </g>
     <g id="text_11">
      <!-- H|M -->
      <g transform="translate(486.564259 345.183281)scale(0.15 -0.15)">
       <use xlink:href="#DejaVuSans-72"/>
       <use x="75.195312" xlink:href="#DejaVuSans-124"/>
       <use x="108.886719" xlink:href="#DejaVuSans-77"/>
      </g>
     </g>
    </g>
    <g id="xtick_12">
     <g id="line2d_12">
      <g>
       <use style="stroke:#000000;stroke-width:0.8;" x="561.015" xlink:href="#m1bc33f8a92" y="326.72"/>
      </g>
     </g>
     <g id="text_12">
      <!-- L -->
      <g transform="translate(556.836094 345.117656)scale(0.15 -0.15)">
       <use xlink:href="#DejaVuSans-76"/>
      </g>
     </g>
    </g>
   </g>
   <g id="matplotlib.axis_2">
    <g id="ytick_1">
     <g id="line2d_13">
      <defs>
       <path d="M 0 0 
L -3.5 0 
" id="m6b792e7d11" style="stroke:#000000;stroke-width:0.8;"/>
      </defs>
      <g>
       <use style="stroke:#000000;stroke-width:0.8;" x="60.932" xlink:href="#m6b792e7d11" y="297.24"/>
      </g>
     </g>
     <g id="text_13">
      <!-- −4 -->
      <g transform="translate(31.818719 302.938828)scale(0.15 -0.15)">
       <defs>
        <path d="M 10.59375 35.5 
L 73.1875 35.5 
L 73.1875 27.203125 
L 10.59375 27.203125 
z
" id="DejaVuSans-8722"/>
        <path d="M 37.796875 64.3125 
L 12.890625 25.390625 
L 37.796875 25.390625 
z
M 35.203125 72.90625 
L 47.609375 72.90625 
L 47.609375 25.390625 
L 58.015625 25.390625 
L 58.015625 17.1875 
L 47.609375 17.1875 
L 47.609375 0 
L 37.796875 0 
L 37.796875 17.1875 
L 4.890625 17.1875 
L 4.890625 26.703125 
z
" id="DejaVuSans-52"/>
       </defs>
       <use xlink:href="#DejaVuSans-8722"/>
       <use x="83.789062" xlink:href="#DejaVuSans-52"/>
      </g>
     </g>
    </g>
    <g id="ytick_2">
     <g id="line2d_14">
      <g>
       <use style="stroke:#000000;stroke-width:0.8;" x="60.932" xlink:href="#m6b792e7d11" y="238.28"/>
      </g>
     </g>
     <g id="text_14">
      <!-- −2 -->
      <g transform="translate(31.818719 243.978828)scale(0.15 -0.15)">
       <defs>
        <path d="M 19.1875 8.296875 
L 53.609375 8.296875 
L 53.609375 0 
L 7.328125 0 
L 7.328125 8.296875 
Q 12.9375 14.109375 22.625 23.890625 
Q 32.328125 33.6875 34.8125 36.53125 
Q 39.546875 41.84375 41.421875 45.53125 
Q 43.3125 49.21875 43.3125 52.78125 
Q 43.3125 58.59375 39.234375 62.25 
Q 35.15625 65.921875 28.609375 65.921875 
Q 23.96875 65.921875 18.8125 64.3125 
Q 13.671875 62.703125 7.8125 59.421875 
L 7.8125 69.390625 
Q 13.765625 71.78125 18.9375 73 
Q 24.125 74.21875 28.421875 74.21875 
Q 39.75 74.21875 46.484375 68.546875 
Q 53.21875 62.890625 53.21875 53.421875 
Q 53.21875 48.921875 51.53125 44.890625 
Q 49.859375 40.875 45.40625 35.40625 
Q 44.1875 33.984375 37.640625 27.21875 
Q 31.109375 20.453125 19.1875 8.296875 
z
" id="DejaVuSans-50"/>
       </defs>
       <use xlink:href="#DejaVuSans-8722"/>
       <use x="83.789062" xlink:href="#DejaVuSans-50"/>
      </g>
     </g>
    </g>
    <g id="ytick_3">
     <g id="line2d_15">
      <g>
       <use style="stroke:#000000;stroke-width:0.8;" x="60.932" xlink:href="#m6b792e7d11" y="179.32"/>
      </g>
     </g>
     <g id="text_15">
      <!-- 0 -->
      <g transform="translate(44.38825 185.018828)scale(0.15 -0.15)">
       <defs>
        <path d="M 31.78125 66.40625 
Q 24.171875 66.40625 20.328125 58.90625 
Q 16.5 51.421875 16.5 36.375 
Q 16.5 21.390625 20.328125 13.890625 
Q 24.171875 6.390625 31.78125 6.390625 
Q 39.453125 6.390625 43.28125 13.890625 
Q 47.125 21.390625 47.125 36.375 
Q 47.125 51.421875 43.28125 58.90625 
Q 39.453125 66.40625 31.78125 66.40625 
z
M 31.78125 74.21875 
Q 44.046875 74.21875 50.515625 64.515625 
Q 56.984375 54.828125 56.984375 36.375 
Q 56.984375 17.96875 50.515625 8.265625 
Q 44.046875 -1.421875 31.78125 -1.421875 
Q 19.53125 -1.421875 13.0625 8.265625 
Q 6.59375 17.96875 6.59375 36.375 
Q 6.59375 54.828125 13.0625 64.515625 
Q 19.53125 74.21875 31.78125 74.21875 
z
" id="DejaVuSans-48"/>
       </defs>
       <use xlink:href="#DejaVuSans-48"/>
      </g>
     </g>
    </g>
    <g id="ytick_4">
     <g id="line2d_16">
      <g>
       <use style="stroke:#000000;stroke-width:0.8;" x="60.932" xlink:href="#m6b792e7d11" y="120.36"/>
      </g>
     </g>
     <g id="text_16">
      <!-- 2 -->
      <g transform="translate(44.38825 126.058828)scale(0.15 -0.15)">
       <use xlink:href="#DejaVuSans-50"/>
      </g>
     </g>
    </g>
    <g id="ytick_5">
     <g id="line2d_17">
      <g>
       <use style="stroke:#000000;stroke-width:0.8;" x="60.932" xlink:href="#m6b792e7d11" y="61.4"/>
      </g>
     </g>
     <g id="text_17">
      <!-- 4 -->
      <g transform="translate(44.38825 67.098828)scale(0.15 -0.15)">
       <use xlink:href="#DejaVuSans-52"/>
      </g>
     </g>
    </g>
    <g id="text_18">
     <!-- $\varepsilon_n(k) - \varepsilon_{\mathrm{F}}$ (eV) -->
     <g transform="translate(24.699188 231.595)rotate(-90)scale(0.15 -0.15)">
      <defs>
       <path d="M 19.734375 29.5 
Q 14.453125 30.671875 12.15625 33.84375 
Q 10.453125 36.078125 10.453125 39.109375 
Q 10.453125 47.40625 18.359375 52.25 
Q 24.609375 56.0625 34.1875 56.0625 
Q 37.890625 56.0625 41.9375 55.46875 
Q 46 54.890625 50.53125 53.71875 
L 48.96875 45.5625 
Q 44.484375 46.96875 40.71875 47.609375 
Q 36.859375 48.25 33.40625 48.25 
Q 27.59375 48.25 23.78125 46 
Q 19.1875 43.3125 19.1875 39.40625 
Q 19.1875 36.8125 21.578125 35.015625 
Q 24.421875 32.859375 30.078125 32.859375 
L 37.640625 32.859375 
L 36.234375 25.4375 
L 29 25.4375 
Q 22.265625 25.4375 18.3125 22.953125 
Q 12.9375 19.578125 12.9375 14.3125 
Q 12.9375 10.984375 15.828125 8.796875 
Q 19.4375 6.0625 26.8125 6.0625 
Q 31.34375 6.0625 35.6875 6.9375 
Q 40.046875 7.859375 43.84375 9.671875 
L 42.1875 1.3125 
Q 37.546875 -0.046875 33.296875 -0.734375 
Q 29.046875 -1.421875 25.140625 -1.421875 
Q 13.53125 -1.421875 8.0625 3.03125 
Q 3.90625 6.453125 3.90625 12.203125 
Q 3.90625 19.96875 9.375 24.75 
Q 13.421875 28.328125 19.734375 29.5 
z
" id="DejaVuSans-Oblique-949"/>
       <path d="M 55.71875 33.015625 
L 49.3125 0 
L 40.28125 0 
L 46.6875 32.671875 
Q 47.125 34.96875 47.359375 36.71875 
Q 47.609375 38.484375 47.609375 39.5 
Q 47.609375 43.609375 45.015625 45.890625 
Q 42.4375 48.1875 37.796875 48.1875 
Q 30.5625 48.1875 25.34375 43.375 
Q 20.125 38.578125 18.5 30.328125 
L 12.5 0 
L 3.515625 0 
L 14.109375 54.6875 
L 23.09375 54.6875 
L 21.296875 46.09375 
Q 25.046875 50.828125 30.3125 53.40625 
Q 35.59375 56 41.40625 56 
Q 48.640625 56 52.609375 52.09375 
Q 56.59375 48.1875 56.59375 41.109375 
Q 56.59375 39.359375 56.375 37.359375 
Q 56.15625 35.359375 55.71875 33.015625 
z
" id="DejaVuSans-Oblique-110"/>
       <path d="M 31 75.875 
Q 24.46875 64.65625 21.28125 53.65625 
Q 18.109375 42.671875 18.109375 31.390625 
Q 18.109375 20.125 21.3125 9.0625 
Q 24.515625 -2 31 -13.1875 
L 23.1875 -13.1875 
Q 15.875 -1.703125 12.234375 9.375 
Q 8.59375 20.453125 8.59375 31.390625 
Q 8.59375 42.28125 12.203125 53.3125 
Q 15.828125 64.359375 23.1875 75.875 
z
" id="DejaVuSans-40"/>
       <path d="M 18.3125 75.984375 
L 27.296875 75.984375 
L 18.703125 31.6875 
L 49.515625 54.6875 
L 61.1875 54.6875 
L 26.8125 28.515625 
L 51.90625 0 
L 41.015625 0 
L 17.671875 26.703125 
L 12.5 0 
L 3.515625 0 
z
" id="DejaVuSans-Oblique-107"/>
       <path d="M 8.015625 75.875 
L 15.828125 75.875 
Q 23.140625 64.359375 26.78125 53.3125 
Q 30.421875 42.28125 30.421875 31.390625 
Q 30.421875 20.453125 26.78125 9.375 
Q 23.140625 -1.703125 15.828125 -13.1875 
L 8.015625 -13.1875 
Q 14.5 -2 17.703125 9.0625 
Q 20.90625 20.125 20.90625 31.390625 
Q 20.90625 42.671875 17.703125 53.65625 
Q 14.5 64.65625 8.015625 75.875 
z
" id="DejaVuSans-41"/>
       <path d="M 9.8125 72.90625 
L 51.703125 72.90625 
L 51.703125 64.59375 
L 19.671875 64.59375 
L 19.671875 43.109375 
L 48.578125 43.109375 
L 48.578125 34.8125 
L 19.671875 34.8125 
L 19.671875 0 
L 9.8125 0 
z
" id="DejaVuSans-70"/>
       <path id="DejaVuSans-32"/>
       <path d="M 56.203125 29.59375 
L 56.203125 25.203125 
L 14.890625 25.203125 
Q 15.484375 15.921875 20.484375 11.0625 
Q 25.484375 6.203125 34.421875 6.203125 
Q 39.59375 6.203125 44.453125 7.46875 
Q 49.3125 8.734375 54.109375 11.28125 
L 54.109375 2.78125 
Q 49.265625 0.734375 44.1875 -0.34375 
Q 39.109375 -1.421875 33.890625 -1.421875 
Q 20.796875 -1.421875 13.15625 6.1875 
Q 5.515625 13.8125 5.515625 26.8125 
Q 5.515625 40.234375 12.765625 48.109375 
Q 20.015625 56 32.328125 56 
Q 43.359375 56 49.78125 48.890625 
Q 56.203125 41.796875 56.203125 29.59375 
z
M 47.21875 32.234375 
Q 47.125 39.59375 43.09375 43.984375 
Q 39.0625 48.390625 32.421875 48.390625 
Q 24.90625 48.390625 20.390625 44.140625 
Q 15.875 39.890625 15.1875 32.171875 
z
" id="DejaVuSans-101"/>
       <path d="M 28.609375 0 
L 0.78125 72.90625 
L 11.078125 72.90625 
L 34.1875 11.53125 
L 57.328125 72.90625 
L 67.578125 72.90625 
L 39.796875 0 
z
" id="DejaVuSans-86"/>
      </defs>
      <use transform="translate(0 0.015625)" xlink:href="#DejaVuSans-Oblique-949"/>
      <use transform="translate(54.052734 -16.390625)scale(0.7)" xlink:href="#DejaVuSans-Oblique-110"/>
      <use transform="translate(101.152344 0.015625)" xlink:href="#DejaVuSans-40"/>
      <use transform="translate(140.166016 0.015625)" xlink:href="#DejaVuSans-Oblique-107"/>
      <use transform="translate(198.076172 0.015625)" xlink:href="#DejaVuSans-41"/>
      <use transform="translate(256.572266 0.015625)" xlink:href="#DejaVuSans-8722"/>
      <use transform="translate(359.84375 0.015625)" xlink:href="#DejaVuSans-Oblique-949"/>
      <use transform="translate(413.896484 -16.390625)scale(0.7)" xlink:href="#DejaVuSans-70"/>
      <use transform="translate(456.894531 0.015625)" xlink:href="#DejaVuSans-32"/>
      <use transform="translate(488.681641 0.015625)" xlink:href="#DejaVuSans-40"/>
      <use transform="translate(527.695312 0.015625)" xlink:href="#DejaVuSans-101"/>
      <use transform="translate(589.21875 0.015625)" xlink:href="#DejaVuSans-86"/>
      <use transform="translate(657.626953 0.015625)" xlink:href="#DejaVuSans-41"/>
     </g>
    </g>
   </g>
   <g id="line2d_18">
    <path clip-path="url(#p8d536c5091)" d="M 0 0 
" style="fill:none;stroke:#ff0000;stroke-linecap:square;stroke-width:2;"/>
   </g>
   <g id="line2d_19">
    <path clip-path="url(#p8d536c5091)" d="M 0 0 
" style="fill:none;stroke:#ff0000;stroke-linecap:square;stroke-width:2;"/>
   </g>
   <g id="line2d_20">
    <path clip-path="url(#p8d536c5091)" d="M 0 0 
" style="fill:none;stroke:#ff0000;stroke-linecap:square;stroke-width:2;"/>
   </g>
   <g id="line2d_21">
    <path clip-path="url(#p8d536c5091)" d="M 0 0 
" style="fill:none;stroke:#ff0000;stroke-linecap:square;stroke-width:2;"/>
   </g>
   <g id="line2d_22">
    <path clip-path="url(#p8d536c5091)" d="M 0 0 
" style="fill:none;stroke:#ff0000;stroke-linecap:square;stroke-width:2;"/>
   </g>
   <g id="line2d_23">
    <path clip-path="url(#p8d536c5091)" d="M 0 0 
" style="fill:none;stroke:#ff0000;stroke-linecap:square;stroke-width:2;"/>
   </g>
   <g id="line2d_24">
    <path clip-path="url(#p8d536c5091)" d="M 0 0 
" style="fill:none;stroke:#ff0000;stroke-linecap:square;stroke-width:2;"/>
   </g>
   <g id="line2d_25">
    <path clip-path="url(#p8d536c5091)" d="M 0 0 
" style="fill:none;stroke:#ff0000;stroke-linecap:square;stroke-width:2;"/>
   </g>
   <g id="line2d_26">
    <path clip-path="url(#p8d536c5091)" d="M 60.932 319.535628 
L 62.626004 319.738041 
L 64.320007 320.344148 
L 66.014011 321.349625 
L 67.708014 322.747779 
L 69.402018 324.529142 
L 71.096022 326.682263 
L 72.790025 329.193802 
L 74.484029 332.048573 
L 76.178033 335.230272 
L 78.719038 340.578058 
L 81.260043 346.562185 
L 83.801049 353.120647 
L 86.619817 361 
M 194.818185 361 
L 197.781421 353.281125 
L 201.134679 345.177999 
L 203.649622 339.629446 
L 206.164565 334.613178 
L 208.679508 330.20349 
L 210.356137 327.636246 
L 212.032766 325.391264 
L 213.709394 323.487546 
L 215.386023 321.942081 
L 217.062652 320.769603 
L 218.739281 319.981327 
L 220.415909 319.585225 
L 222.939093 319.534355 
L 239.787783 319.393033 
L 281.067075 318.87633 
L 282.740165 319.070264 
L 284.413255 319.650996 
L 286.086345 320.614756 
L 287.759435 321.955023 
L 289.432525 323.663336 
L 291.105615 325.729087 
L 292.778705 328.139882 
L 294.451795 330.881836 
L 296.124885 333.939823 
L 298.63452 339.084385 
L 301.144155 344.847851 
L 303.65379 351.173109 
L 306.99997 360.381369 
L 307.213237 361 
M 414.459201 361 
L 417.420591 353.321777 
L 420.72662 345.341808 
L 423.206141 339.849072 
L 425.685663 334.852512 
L 428.165184 330.420537 
L 429.818199 327.813463 
L 431.471213 325.507318 
L 433.124227 323.520515 
L 434.777241 321.8696 
L 436.430256 320.569351 
L 438.08327 319.631807 
L 439.736284 319.065652 
L 441.389298 318.87633 
L 441.389298 361 
L 441.389298 361 
" style="fill:none;stroke:#ff0000;stroke-linecap:square;stroke-width:2;"/>
   </g>
   <g id="line2d_27">
    <path clip-path="url(#p8d536c5091)" d="M 60.932 319.535479 
L 62.626004 319.641268 
L 64.320007 319.957517 
L 66.014011 320.48119 
L 67.708014 321.207583 
L 69.402018 322.130188 
L 71.096022 323.240954 
L 73.637027 325.239228 
L 76.178033 327.603474 
L 78.719038 330.293867 
L 81.260043 333.268634 
L 84.648051 337.604092 
L 88.88306 343.478945 
L 93.965071 350.962306 
L 100.5857 361 
M 186.029039 361 
L 188.559963 355.736526 
L 191.91322 349.171736 
L 195.266478 343.128879 
L 197.781421 338.974914 
L 200.296364 335.171315 
L 202.811307 331.740223 
L 205.326251 328.701809 
L 207.841194 326.074217 
L 210.356137 323.87325 
L 212.032766 322.649549 
L 213.709394 321.62481 
L 215.386023 320.801677 
L 217.062652 320.182398 
L 218.739281 319.76862 
L 220.415909 319.561397 
L 224.623962 319.530394 
L 241.472652 319.368293 
L 281.067075 318.876181 
L 282.740165 318.977807 
L 284.413255 319.281551 
L 286.086345 319.785033 
L 287.759435 320.483451 
L 289.432525 321.370826 
L 291.105615 322.439804 
L 293.61525 324.364451 
L 296.124885 326.644351 
L 298.63452 329.242315 
L 301.144155 332.119045 
L 304.490335 336.319203 
L 305.32688 337.789136 
L 310.346149 347.900179 
L 315.365419 357.525529 
L 317.238305 361 
M 410.914487 361 
L 420.72662 335.456685 
L 421.553127 333.300711 
L 422.379634 331.629865 
L 424.859156 328.586419 
L 427.338677 325.933685 
L 429.818199 323.68661 
L 432.29772 321.85797 
L 433.950734 320.876663 
L 435.603748 320.088487 
L 437.256763 319.495617 
L 438.909777 319.09929 
L 440.562791 318.900991 
L 441.389298 318.876181 
L 441.389298 361 
L 441.389298 361 
" style="fill:none;stroke:#ff0000;stroke-linecap:square;stroke-width:2;"/>
   </g>
   <g id="line2d_28">
    <path clip-path="url(#p8d536c5091)" d="M 60.932 239.23557 
L 61.779002 239.678986 
L 62.626004 240.805849 
L 64.320007 243.991783 
L 66.861013 249.536727 
L 71.943024 261.358071 
L 91.424065 307.356522 
L 96.506076 318.658387 
L 101.588087 329.425363 
L 105.823096 337.923213 
L 110.058105 345.942642 
L 114.293114 353.446798 
L 117.681121 359.058153 
L 118.909032 361 
M 174.778004 361 
L 178.50019 351.545271 
L 183.530077 338.189915 
L 189.398277 321.967707 
L 198.619736 295.685959 
L 207.002879 271.931742 
L 212.032766 258.340965 
L 215.386023 249.848666 
L 217.900966 244.033996 
L 219.577595 240.793043 
L 220.415909 239.671707 
L 221.254224 239.23557 
L 222.939093 239.381518 
L 224.623962 239.816362 
L 226.308831 240.531288 
L 227.9937 241.512271 
L 229.678569 242.740801 
L 231.363438 244.194948 
L 233.890742 246.745151 
L 236.418045 249.65986 
L 239.787783 253.960032 
L 244.84239 260.898456 
L 251.581866 270.185608 
L 255.794039 275.585354 
L 259.163777 279.518765 
L 261.691081 282.191032 
L 264.218384 284.594172 
L 266.745688 286.705006 
L 269.272991 288.503699 
L 271.800295 289.974138 
L 274.327598 291.103467 
L 276.012467 291.661939 
L 277.697337 292.06234 
L 279.382206 292.303176 
L 281.90362 292.563109 
L 282.740165 293.085282 
L 283.57671 293.906669 
L 284.413255 294.972174 
L 286.086345 297.628134 
L 288.59598 302.376827 
L 291.94216 309.328315 
L 304.490335 336.062186 
L 305.32688 337.42452 
L 306.163425 338.549082 
L 317.038509 360.60933 
L 317.252475 361 
M 405.61345 361 
L 409.15552 353.690691 
L 412.461549 347.347756 
L 415.767577 341.521981 
L 418.247099 337.523977 
L 420.72662 333.867753 
L 421.553127 332.7283 
L 422.379634 331.149135 
L 428.165184 316.346852 
L 432.29772 306.37133 
L 434.777241 300.908268 
L 436.430256 297.666109 
L 438.08327 294.95371 
L 438.909777 293.885965 
L 439.736284 293.071994 
L 440.562791 292.559081 
L 441.389298 292.38351 
L 441.389298 361 
L 441.389298 361 
" style="fill:none;stroke:#ff0000;stroke-linecap:square;stroke-width:2;"/>
   </g>
   <g id="line2d_29">
    <path clip-path="url(#p8d536c5091)" d="M 60.932 239.235427 
L 61.779002 239.645044 
L 62.626004 240.694018 
L 64.320007 243.684073 
L 66.861013 248.891861 
L 72.790025 261.764256 
L 86.342054 291.315526 
L 92.271067 303.728511 
L 97.353078 313.926907 
L 102.435089 323.616897 
L 106.670098 331.237922 
L 110.905107 338.388315 
L 114.293114 343.726203 
L 117.681121 348.671516 
L 120.222127 352.071038 
L 122.763132 355.122176 
L 124.457136 356.883047 
L 126.151139 358.306635 
L 126.998141 358.832416 
L 127.845143 359.184485 
L 128.692145 359.313623 
L 129.539147 359.168157 
L 130.386148 358.70955 
L 131.23315 357.929826 
L 132.080152 356.856415 
L 133.774156 354.033102 
L 135.468159 350.631428 
L 138.009165 344.97774 
L 143.938177 330.970771 
L 148.173186 321.20928 
L 150.714192 315.784539 
L 153.255197 310.916289 
L 154.949201 308.094993 
L 156.643204 305.702809 
L 158.337208 303.818529 
L 159.18421 303.089952 
L 160.031212 302.514448 
L 160.878213 302.098473 
L 161.725215 301.846895 
L 164.248846 301.707641 
L 166.763789 301.418643 
L 169.278732 300.882079 
L 171.793675 300.09813 
L 174.308618 299.067096 
L 176.823562 297.789374 
L 179.338505 296.265466 
L 181.853448 294.495985 
L 184.368391 292.48167 
L 186.883334 290.22338 
L 189.398277 287.722145 
L 192.751535 284.011335 
L 196.104792 279.874191 
L 199.45805 275.315251 
L 202.811307 270.340474 
L 206.164565 264.958749 
L 209.517822 259.185288 
L 213.709394 251.472232 
L 218.739281 241.997863 
L 219.577595 240.652868 
L 220.415909 239.635713 
L 221.254224 239.235427 
L 222.939093 239.381376 
L 224.623962 239.81622 
L 226.308831 240.531147 
L 227.9937 241.51213 
L 229.678569 242.740661 
L 231.363438 244.194809 
L 233.890742 246.745013 
L 236.418045 249.659724 
L 239.787783 253.959899 
L 244.84239 260.898327 
L 251.581866 270.185483 
L 255.794039 275.585231 
L 259.163777 279.518644 
L 261.691081 282.190912 
L 264.218384 284.594053 
L 266.745688 286.704888 
L 269.272991 288.503581 
L 271.800295 289.974021 
L 274.327598 291.10335 
L 276.012467 291.661822 
L 277.697337 292.062224 
L 279.382206 292.303059 
L 281.90362 292.54177 
L 282.740165 293.004304 
L 283.57671 293.737976 
L 284.413255 294.699374 
L 286.086345 297.133838 
L 287.759435 300.02558 
L 290.26907 304.848757 
L 294.451795 313.501782 
L 306.163425 338.505503 
L 314.528874 350.557872 
L 321.475548 361 
M 371.952449 361 
L 373.390272 358.866926 
L 375.084275 356.657683 
L 376.778279 354.814251 
L 378.472283 353.382976 
L 380.166286 352.403828 
L 381.013288 352.093547 
L 381.86029 351.906374 
L 386.839827 351.496927 
L 389.319349 350.955951 
L 391.79887 350.165656 
L 394.278392 349.126458 
L 396.757913 347.838922 
L 399.237434 346.303823 
L 401.716956 344.522102 
L 404.196477 342.494981 
L 406.675999 340.223981 
L 409.15552 337.711026 
L 412.461549 333.988444 
L 415.767577 329.84828 
L 419.073606 325.302526 
L 422.379634 320.370117 
L 425.685663 315.083257 
L 429.818199 308.074009 
L 435.603748 298.173742 
L 437.256763 295.688896 
L 438.909777 293.693699 
L 439.736284 292.986889 
L 440.562791 292.537795 
L 441.389298 292.383394 
L 441.389298 359.313623 
L 443.050766 359.450341 
L 444.712235 359.85799 
L 446.373703 360.529161 
L 447.271874 361 
M 501.202149 361 
L 501.202149 301.762689 
L 502.863617 301.889599 
L 504.525085 302.268094 
L 506.186553 302.89169 
L 507.848022 303.74982 
L 509.50949 304.828562 
L 511.170958 306.110909 
L 513.66316 308.374029 
L 516.155362 310.981675 
L 519.478298 314.86729 
L 523.631968 320.141584 
L 533.600777 333.023247 
L 536.923713 336.960325 
L 540.246649 340.56005 
L 542.738851 342.994031 
L 545.231053 345.170859 
L 547.723255 347.068232 
L 550.215457 348.667453 
L 552.70766 349.953219 
L 555.199862 350.913411 
L 557.692064 351.539166 
L 559.353532 351.767576 
L 561.015 351.843781 
L 561.015 351.843781 
" style="fill:none;stroke:#ff0000;stroke-linecap:square;stroke-width:2;"/>
   </g>
   <g id="line2d_30">
    <path clip-path="url(#p8d536c5091)" d="M 60.932 231.232867 
L 61.779002 230.827785 
L 62.626004 229.792949 
L 64.320007 226.859284 
L 67.708014 220.066505 
L 77.872036 199.268645 
L 84.648051 186.344011 
L 97.353078 162.79333 
L 99.047081 159.639364 
L 99.894083 158.849899 
L 108.364101 153.905018 
L 113.446112 151.053211 
L 116.834119 149.38979 
L 119.375125 148.349215 
L 121.91613 147.536855 
L 124.457136 146.983671 
L 126.998141 146.696833 
L 129.539147 146.657264 
L 132.080152 146.824434 
L 135.468159 147.279224 
L 141.397172 148.384966 
L 142.244174 150.670565 
L 145.632181 162.044371 
L 148.173186 169.94822 
L 150.714192 177.147393 
L 152.408195 181.461394 
L 154.102199 185.308757 
L 155.796203 188.614201 
L 157.490206 191.2981 
L 158.337208 192.382674 
L 159.18421 193.28369 
L 160.031212 193.993346 
L 160.878213 194.505162 
L 161.725215 194.814277 
L 163.410531 194.918111 
L 173.470304 195.043539 
L 178.50019 195.30698 
L 182.691762 195.75658 
L 186.04502 196.348597 
L 188.559963 196.974938 
L 191.074906 197.795484 
L 193.589849 198.847071 
L 196.104792 200.16849 
L 198.619736 201.798549 
L 201.134679 203.774693 
L 203.649622 206.130698 
L 206.164565 208.894029 
L 208.679508 212.082587 
L 211.194451 215.700441 
L 213.709394 219.728734 
L 217.062652 225.596418 
L 218.739281 228.530091 
L 219.577595 229.838742 
L 220.415909 230.837362 
L 221.254224 231.232867 
L 222.939093 231.326522 
L 224.623962 231.606118 
L 226.308831 232.067576 
L 227.9937 232.704338 
L 230.521004 233.968165 
L 233.048307 235.56787 
L 235.575611 237.457625 
L 238.945349 240.340701 
L 243.157521 244.351894 
L 256.636474 257.658144 
L 260.006212 260.580647 
L 263.37595 263.186642 
L 265.903253 264.898749 
L 268.430557 266.380585 
L 270.95786 267.615412 
L 273.485164 268.589701 
L 276.012467 269.293019 
L 278.539771 269.717968 
L 281.067075 269.860066 
L 281.90362 269.704728 
L 282.740165 269.251768 
L 283.57671 268.533986 
L 284.413255 267.594725 
L 286.086345 265.222588 
L 287.759435 262.415915 
L 290.26907 257.758194 
L 294.451795 249.456691 
L 305.32688 227.136759 
L 322.057779 192.404072 
L 332.096319 171.034422 
L 343.807949 146.088875 
L 346.317584 141.338823 
L 347.154129 140.026047 
L 347.990674 139.034922 
L 348.827219 138.626808 
L 349.674221 139.146121 
L 350.521223 140.693951 
L 351.368225 142.978556 
L 353.062228 148.558385 
L 362.379248 181.232063 
L 365.767256 191.88198 
L 368.308261 199.132616 
L 370.849266 205.602236 
L 372.54327 209.406096 
L 374.237274 212.745514 
L 375.931277 215.569867 
L 377.625281 217.829875 
L 379.319284 219.480974 
L 380.166286 220.066532 
L 381.013288 220.487306 
L 381.86029 220.740794 
L 383.533799 220.832842 
L 386.839827 221.010782 
L 390.145856 221.431549 
L 393.451884 222.108478 
L 396.757913 223.062113 
L 399.237434 223.975078 
L 401.716956 225.072537 
L 404.196477 226.369634 
L 406.675999 227.882572 
L 409.15552 229.627924 
L 411.635041 231.622254 
L 414.114563 233.88073 
L 416.594084 236.416281 
L 419.073606 239.238238 
L 421.553127 242.350247 
L 424.032649 245.748433 
L 427.338677 250.695495 
L 431.471213 257.404178 
L 435.603748 264.193393 
L 437.256763 266.621342 
L 438.909777 268.575633 
L 439.736284 269.268374 
L 440.562791 269.708509 
L 441.389298 269.860066 
L 441.389298 146.645139 
L 442.220032 146.582893 
L 443.050766 146.39633 
L 443.881501 146.085978 
L 445.542969 145.097733 
L 447.204437 143.629258 
L 448.865905 141.69633 
L 450.527373 139.319886 
L 452.188841 136.525045 
L 453.850309 133.341687 
L 456.342511 127.922757 
L 459.665447 119.868797 
L 461.326915 116.032017 
L 462.157649 114.585928 
L 462.988383 113.803864 
L 463.819117 113.711301 
L 464.649852 114.066893 
L 466.31132 115.368995 
L 468.803522 117.806324 
L 477.110862 126.189363 
L 480.433798 129.187331 
L 483.756734 131.851681 
L 486.248937 133.596678 
L 488.741139 135.103185 
L 491.233341 136.355842 
L 493.725543 137.342552 
L 496.217745 138.053858 
L 498.709947 138.48329 
L 501.202149 138.626808 
L 501.202149 194.917654 
L 503.694351 195.083918 
L 506.186553 195.570595 
L 508.678756 196.345515 
L 511.170958 197.366309 
L 514.493894 199.032121 
L 517.81683 200.956433 
L 522.801234 204.141683 
L 534.431511 211.752603 
L 538.585181 214.17863 
L 541.908117 215.910876 
L 545.231053 217.419728 
L 548.553989 218.676593 
L 551.876926 219.659205 
L 555.199862 220.350204 
L 557.692064 220.669831 
L 560.184266 220.81572 
L 561.015 220.825387 
L 561.015 220.825387 
" style="fill:none;stroke:#ff0000;stroke-linecap:square;stroke-width:2;"/>
   </g>
   <g id="line2d_31">
    <path clip-path="url(#p8d536c5091)" d="M 60.932 231.232572 
L 61.779002 230.801499 
L 62.626004 229.711065 
L 64.320007 226.670349 
L 68.555016 218.015383 
L 75.331031 204.261126 
L 80.413042 193.985791 
L 91.424065 171.987932 
L 97.353078 160.260705 
L 99.047081 159.326378 
L 99.894083 158.056877 
L 108.364101 141.960607 
L 115.987118 126.983404 
L 124.457136 110.215003 
L 126.151139 110.066954 
L 127.845143 109.697024 
L 128.692145 109.433535 
L 131.23315 110.223254 
L 132.927154 116.387377 
L 138.856166 138.590818 
L 141.397172 147.707704 
L 142.244174 148.551423 
L 149.020188 149.772159 
L 154.102199 150.439508 
L 158.337208 150.774583 
L 165.925475 151.221894 
L 168.440418 151.878029 
L 170.955361 152.817643 
L 174.308618 154.388107 
L 178.50019 156.638322 
L 188.559963 162.129374 
L 192.751535 164.149122 
L 194.428164 164.889067 
L 195.266478 166.325864 
L 200.296364 181.215742 
L 205.326251 195.354719 
L 209.517822 206.511815 
L 213.709394 217.021857 
L 217.062652 224.793105 
L 218.739281 228.250906 
L 219.577595 229.717853 
L 220.415909 230.808187 
L 221.254224 231.232572 
L 222.939093 231.326227 
L 224.623962 231.605824 
L 226.308831 232.067282 
L 227.9937 232.704045 
L 230.521004 233.967874 
L 233.048307 235.567581 
L 235.575611 237.457339 
L 238.945349 240.340419 
L 243.157521 244.351617 
L 256.636474 257.657881 
L 260.006212 260.580388 
L 263.37595 263.186385 
L 265.903253 264.898494 
L 268.430557 266.380331 
L 270.95786 267.615159 
L 273.485164 268.589449 
L 276.012467 269.292768 
L 278.539771 269.717717 
L 281.067075 269.859815 
L 281.90362 269.675632 
L 282.740165 269.139234 
L 283.57671 268.294141 
L 284.413255 267.195496 
L 286.086345 264.444827 
L 287.759435 261.213977 
L 290.26907 255.869761 
L 294.451795 246.328894 
L 302.817245 226.503398 
L 314.528874 198.856909 
L 322.894324 179.717843 
L 330.423229 163.09001 
L 337.115589 148.871161 
L 342.971404 136.954417 
L 347.990674 127.229017 
L 348.827219 125.660489 
L 349.674221 126.714265 
L 350.521223 126.725388 
L 351.368225 125.985277 
L 352.215227 124.826512 
L 353.90923 121.956096 
L 364.073252 103.384789 
L 366.614257 99.326857 
L 369.155263 95.680198 
L 370.849266 93.514512 
L 371.696268 92.534107 
L 373.390272 91.187207 
L 375.084275 90.047952 
L 376.778279 89.125123 
L 378.472283 88.426133 
L 380.166286 87.956833 
L 381.86029 87.721166 
L 382.707292 87.691657 
L 383.533799 90.205994 
L 397.58442 144.299278 
L 403.36997 165.507044 
L 409.15552 185.834815 
L 414.114563 202.460239 
L 419.073606 218.26435 
L 423.206141 230.7383 
L 427.338677 242.488371 
L 430.644706 251.256181 
L 433.124227 257.342522 
L 435.603748 262.807379 
L 437.256763 265.910418 
L 438.08327 267.220841 
L 438.909777 268.317813 
L 439.736284 269.153479 
L 440.562791 269.679891 
L 441.389298 269.859815 
L 441.389298 109.433535 
L 443.050766 109.288759 
L 444.712235 108.869234 
L 447.204437 107.856098 
L 449.696639 106.831745 
L 451.358107 106.508674 
L 453.019575 106.574263 
L 454.681043 106.939792 
L 457.173245 107.840757 
L 459.665447 108.996284 
L 463.819117 111.230523 
L 478.77233 119.646534 
L 482.926 121.573924 
L 486.248937 122.884924 
L 489.571873 123.962504 
L 492.894809 124.787006 
L 496.217745 125.344361 
L 499.540681 125.625376 
L 501.202149 125.660489 
L 501.202149 150.888229 
L 502.032883 150.827262 
L 502.863617 150.64458 
L 503.694351 150.340843 
L 505.355819 149.375065 
L 507.017287 147.942376 
L 508.678756 146.060366 
L 510.340224 143.749438 
L 512.001692 141.031835 
L 513.66316 137.930449 
L 515.324628 134.467827 
L 517.81683 128.646693 
L 520.309032 122.138782 
L 522.801234 115.017614 
L 526.12417 104.693714 
L 529.447107 93.579381 
L 534.431511 76.415171 
L 537.754447 78.49912 
L 541.077383 80.788363 
L 544.400319 82.810646 
L 547.723255 84.522548 
L 550.215457 85.581713 
L 552.70766 86.43481 
L 555.199862 87.072821 
L 557.692064 87.488927 
L 560.184266 87.678968 
L 561.015 87.691657 
L 561.015 87.691657 
" style="fill:none;stroke:#ff0000;stroke-linecap:square;stroke-width:2;"/>
   </g>
   <g id="line2d_32">
    <path clip-path="url(#p8d536c5091)" d="M 60.932 170.607303 
L 65.167009 170.468792 
L 68.555016 170.157226 
L 71.943024 169.664469 
L 75.331031 168.987892 
L 78.719038 168.12577 
L 82.954047 166.788519 
L 87.189056 165.170346 
L 91.424065 163.287442 
L 95.659074 161.166828 
L 97.353078 160.247637 
L 115.140116 124.782563 
L 121.91613 111.300264 
L 122.763132 110.134645 
L 123.610134 110.203535 
L 124.457136 109.928386 
L 125.304138 108.215004 
L 126.998141 108.817694 
L 128.692145 109.432102 
L 130.386148 108.756285 
L 131.23315 109.956258 
L 132.080152 110.453069 
L 135.468159 111.216333 
L 138.856166 111.760451 
L 143.091175 112.199582 
L 148.173186 112.482296 
L 155.796203 112.637069 
L 163.410531 112.627402 
L 165.08716 112.347794 
L 166.763789 111.796713 
L 168.440418 110.989173 
L 170.117047 109.944927 
L 171.793675 108.686182 
L 174.308618 106.445757 
L 175.985247 104.748298 
L 176.823562 106.403131 
L 183.530077 129.030167 
L 189.398277 148.090688 
L 194.428164 163.775671 
L 195.266478 165.243268 
L 199.45805 166.849451 
L 203.649622 168.170743 
L 207.002879 169.019183 
L 210.356137 169.683403 
L 214.547709 170.259274 
L 218.739281 170.558502 
L 222.096658 170.559414 
L 223.781527 170.176641 
L 225.466396 169.412905 
L 227.151265 168.271784 
L 228.836134 166.758546 
L 230.521004 164.880035 
L 232.205873 162.644539 
L 233.890742 160.061705 
L 235.575611 157.142064 
L 237.26048 153.897257 
L 239.787783 148.448432 
L 242.315087 142.341066 
L 244.84239 135.622787 
L 247.369694 128.344386 
L 250.739432 117.860096 
L 254.10917 106.605997 
L 258.321343 91.689179 
L 270.95786 45.822934 
L 273.485164 37.988664 
L 275.170033 33.510909 
L 276.854902 29.864248 
L 277.697337 28.421364 
L 278.539771 27.26734 
L 279.382206 26.424803 
L 280.22464 25.911596 
L 281.067075 25.733872 
L 283.57671 25.57465 
L 286.086345 25.106923 
L 288.59598 24.346717 
L 291.105615 23.324926 
L 293.61525 22.082691 
L 296.96143 20.165058 
L 301.9807 16.964308 
L 310.346149 11.574152 
L 314.528874 9.15001 
L 315.365419 8.718045 
L 316.201964 8.5983 
L 319.548144 10.754831 
L 321.221234 16.60865 
L 324.567414 29.599857 
L 330.423229 53.389242 
L 344.644494 111.905327 
L 347.154129 121.114971 
L 347.990674 123.685634 
L 348.827219 125.660395 
L 353.062228 117.991087 
L 356.450236 112.23398 
L 359.838243 106.883786 
L 363.22625 102.016917 
L 365.767256 98.735049 
L 368.308261 95.810724 
L 370.849266 93.282388 
L 371.696268 92.519325 
L 373.390272 90.717042 
L 375.084275 89.181462 
L 376.778279 87.929988 
L 378.472283 86.977465 
L 380.166286 86.335696 
L 381.86029 86.01271 
L 382.707292 85.972234 
L 383.533799 83.454167 
L 391.79887 50.885176 
L 399.237434 22.092109 
L 403.36997 6.70497 
L 405.022984 7.493355 
L 409.15552 9.794993 
L 414.114563 12.824835 
L 428.165184 21.713705 
L 431.471213 23.377111 
L 433.950734 24.376563 
L 436.430256 25.120197 
L 438.909777 25.577401 
L 441.389298 25.733872 
L 441.389298 109.432102 
L 443.050766 109.287839 
L 444.712235 108.868343 
L 447.204437 107.855248 
L 449.696639 106.83074 
L 451.358107 106.506383 
L 453.019575 106.5736 
L 454.681043 106.939457 
L 457.173245 107.840593 
L 459.665447 108.996157 
L 463.819117 111.230401 
L 478.77233 119.646417 
L 482.926 121.573808 
L 486.248937 122.884809 
L 489.571873 123.962353 
L 492.894809 124.786878 
L 496.217745 125.344256 
L 499.540681 125.625271 
L 501.202149 125.660395 
L 501.202149 112.662548 
L 502.863617 112.479595 
L 504.525085 111.931517 
L 506.186553 111.020846 
L 507.848022 109.750936 
L 509.50949 108.127332 
L 511.170958 106.156434 
L 512.832426 103.846255 
L 514.493894 101.205339 
L 516.155362 98.243544 
L 518.647564 93.222612 
L 521.139766 87.541479 
L 523.631968 81.240948 
L 526.954904 72.055222 
L 530.277841 73.909314 
L 533.600777 75.911407 
L 534.431511 75.994259 
L 536.923713 77.89087 
L 540.246649 79.793347 
L 543.569585 81.505203 
L 546.892521 82.988085 
L 550.215457 84.201478 
L 552.70766 84.91579 
L 555.199862 85.451495 
L 557.692064 85.801525 
L 560.184266 85.961549 
L 561.015 85.972234 
L 561.015 85.972234 
" style="fill:none;stroke:#ff0000;stroke-linecap:square;stroke-width:2;"/>
   </g>
   <g id="line2d_33">
    <path clip-path="url(#p8d536c5091)" d="M 60.932 51.007087 
L 62.626004 51.192428 
L 64.320007 51.737938 
L 66.014011 52.61406 
L 67.708014 53.779937 
L 69.402018 55.188536 
L 71.943024 57.656089 
L 75.331031 61.39828 
L 80.413042 67.493379 
L 91.424065 81.132308 
L 97.353078 88.819251 
L 101.588087 94.006126 
L 104.976094 97.875625 
L 108.364101 101.411717 
L 110.905107 103.787726 
L 113.446112 105.873446 
L 115.987118 107.613333 
L 117.681121 108.552442 
L 119.375125 109.29507 
L 121.069128 109.826439 
L 121.91613 110.009223 
L 122.763132 109.641353 
L 123.610134 107.995537 
L 124.457136 107.756418 
L 125.304138 108.128646 
L 127.845143 103.08657 
L 128.692145 101.383979 
L 129.539147 103.787787 
L 130.386148 106.795277 
L 131.23315 108.34833 
L 133.774156 106.879845 
L 136.315161 105.106074 
L 139.703168 102.40291 
L 145.632181 97.251304 
L 149.86719 93.692109 
L 152.408195 91.785931 
L 154.949201 90.162293 
L 156.643204 89.282422 
L 158.337208 88.595261 
L 160.031212 88.123167 
L 161.725215 87.882744 
L 165.925475 87.667917 
L 168.440418 87.287957 
L 170.955361 86.702202 
L 171.793675 88.976804 
L 175.985247 103.522059 
L 176.823562 103.845791 
L 179.338505 100.949926 
L 182.691762 96.720571 
L 186.883334 90.987418 
L 191.91322 83.68001 
L 203.649622 66.376443 
L 207.002879 61.852692 
L 209.517822 58.75994 
L 212.032766 56.029612 
L 213.709394 54.466311 
L 215.386023 53.151564 
L 217.062652 52.123097 
L 218.739281 51.414378 
L 220.415909 51.052662 
L 222.096658 50.944099 
L 222.939093 50.755333 
L 223.781527 50.441382 
L 225.466396 49.441979 
L 227.151265 47.958484 
L 228.836134 46.008015 
L 230.521004 43.612244 
L 232.205873 40.796512 
L 233.890742 37.587458 
L 235.575611 34.014189 
L 238.102914 28.035634 
L 240.630218 21.403154 
L 243.157521 14.213419 
L 244.84239 9.156925 
L 245.684825 7.2107 
L 251.581866 5.824082 
L 257.478908 4.674139 
L 263.37595 3.755271 
L 269.272991 3.078321 
L 274.327598 2.704676 
L 279.382206 2.532378 
L 287.759435 2.354583 
L 294.451795 2.179848 
L 297.797975 2.310779 
L 301.144155 2.704454 
L 303.65379 3.208848 
L 306.163425 3.907265 
L 308.673059 4.802653 
L 311.182694 5.890466 
L 314.528874 7.621287 
L 315.365419 8.100893 
L 316.201964 8.326537 
L 317.038509 8.017238 
L 317.875054 7.932268 
L 318.711599 8.611637 
L 319.548144 10.699078 
L 327.077049 16.484159 
L 330.423229 19.433955 
L 333.769409 22.676662 
L 335.442499 24.373227 
L 336.279044 25.401442 
L 337.952134 27.752219 
L 339.625224 29.728302 
L 341.298314 31.315751 
L 342.971404 32.503393 
L 344.644494 33.282038 
L 346.317584 33.643081 
L 347.990674 33.587726 
L 348.827219 33.399988 
L 355.603234 35.404152 
L 366.614257 39.020449 
L 370.849266 40.067116 
L 374.237274 40.691893 
L 377.625281 41.114194 
L 381.013288 41.326288 
L 383.533799 41.284523 
L 384.360306 41.079363 
L 385.186813 40.735166 
L 386.01332 40.2582 
L 387.666335 38.902594 
L 389.319349 37.019765 
L 390.972363 34.625792 
L 392.625377 31.739778 
L 394.278392 28.384818 
L 395.931406 24.582159 
L 398.410927 18.114577 
L 400.890449 10.820027 
L 401.716956 8.230678 
L 402.543463 6.228195 
L 403.36997 6.639534 
L 405.508667 -1 
M 417.687578 -1 
L 420.72662 0.010313 
L 424.032649 0.86766 
L 427.338677 1.507061 
L 431.471213 2.051141 
L 435.603748 2.368826 
L 440.562791 2.517537 
L 441.389298 2.520837 
L 441.389298 101.383979 
L 447.204437 101.32256 
L 448.865905 100.983781 
L 449.696639 100.646788 
L 451.358107 99.671307 
L 453.850309 101.487731 
L 457.173245 104.237826 
L 459.665447 106.265871 
L 460.496181 106.799917 
L 461.326915 107.115519 
L 462.157649 106.99064 
L 462.988383 106.152172 
L 463.819117 104.573744 
L 465.480586 100.15102 
L 467.972788 92.306309 
L 471.295724 80.995451 
L 484.587468 34.435644 
L 485.418202 32.848128 
L 488.741139 32.911034 
L 500.371415 33.397089 
L 501.202149 33.399988 
L 501.202149 87.852471 
L 502.863617 87.635903 
L 504.525085 86.990463 
L 506.186553 85.92927 
L 507.848022 84.476457 
L 509.50949 82.668953 
L 511.170958 80.56238 
L 516.986096 72.635124 
L 517.81683 71.810563 
L 518.647564 71.162885 
L 519.478298 70.702406 
L 520.309032 70.422167 
L 521.139766 70.302202 
L 522.801234 70.441362 
L 524.462702 70.933013 
L 526.954904 71.951571 
L 527.785638 70.592673 
L 533.600777 75.3414 
L 534.431511 75.820542 
L 542.738851 45.535906 
L 543.569585 43.180447 
L 544.400319 41.93413 
L 545.231053 41.523745 
L 546.892521 41.306578 
L 550.215457 41.260661 
L 561.015 41.352944 
L 561.015 41.352944 
" style="fill:none;stroke:#ff0000;stroke-linecap:square;stroke-width:2;"/>
   </g>
   <g id="line2d_34">
    <path clip-path="url(#p8d536c5091)" d="M 60.932 51.007038 
L 62.626004 51.165218 
L 64.320007 51.633557 
L 66.014011 52.394317 
L 67.708014 53.421757 
L 69.402018 54.685232 
L 71.943024 56.954307 
L 74.484029 59.581919 
L 77.872036 63.493745 
L 82.107045 68.810189 
L 90.577063 79.696255 
L 94.812072 84.420019 
L 99.047081 88.838216 
L 103.28209 92.924096 
L 107.5171 96.662862 
L 110.905107 99.394683 
L 114.293114 101.885311 
L 117.681121 104.119761 
L 121.069128 106.081429 
L 123.610134 107.365593 
L 124.457136 106.368717 
L 126.151139 103.231445 
L 126.998141 101.82124 
L 127.845143 100.83844 
L 128.692145 101.383836 
L 135.468159 88.047993 
L 139.703168 80.186618 
L 143.091175 74.340648 
L 145.632181 70.30566 
L 148.173186 66.642885 
L 150.714192 63.421543 
L 152.408195 61.553716 
L 154.102199 60.066882 
L 155.796203 58.91051 
L 157.490206 57.999041 
L 159.18421 57.341359 
L 160.878213 56.94404 
L 162.572217 56.811134 
L 164.248846 62.403694 
L 170.955361 86.043774 
L 171.793675 86.461532 
L 174.308618 85.604566 
L 176.823562 84.547604 
L 179.338505 83.294682 
L 182.691762 81.328567 
L 186.04502 79.038894 
L 189.398277 76.448363 
L 192.751535 73.586329 
L 196.943107 69.689786 
L 202.811307 63.858608 
L 208.679508 58.085778 
L 211.194451 55.845587 
L 213.709394 53.891255 
L 215.386023 52.809391 
L 217.062652 51.951011 
L 218.739281 51.353126 
L 220.415909 51.045857 
L 222.096658 50.94405 
L 222.939093 50.755284 
L 223.781527 50.441332 
L 225.466396 49.441929 
L 227.151265 47.958434 
L 228.836134 46.007964 
L 230.521004 43.612192 
L 232.205873 40.796458 
L 233.890742 37.587403 
L 235.575611 34.014133 
L 238.102914 28.035576 
L 240.630218 21.403094 
L 243.157521 14.213356 
L 244.84239 9.156861 
L 245.684825 7.210354 
L 251.581866 5.823784 
L 257.478908 4.673847 
L 263.37595 3.754982 
L 269.272991 3.078032 
L 274.327598 2.704387 
L 279.382206 2.53209 
L 281.90362 2.470987 
L 283.57671 2.072868 
L 285.2498 1.278572 
L 286.92289 0.093035 
L 288.114462 -1 
M 316.770162 -1 
L 317.875054 2.645444 
L 318.711599 4.642002 
L 319.548144 5.27291 
L 320.384689 5.195539 
L 322.057779 4.583068 
L 325.403959 3.112823 
L 326.240504 4.350953 
L 328.750139 10.620267 
L 331.259774 16.260716 
L 333.769409 21.206585 
L 335.442499 24.090187 
L 336.279044 25.220595 
L 339.625224 28.405764 
L 341.298314 29.766313 
L 342.971404 30.917131 
L 344.644494 31.848514 
L 346.317584 32.577175 
L 348.827219 33.399917 
L 350.521223 32.696019 
L 352.215227 31.566974 
L 353.90923 30.016607 
L 355.603234 28.056081 
L 357.297237 25.697679 
L 358.991241 22.959539 
L 360.685245 19.862839 
L 363.22625 14.602625 
L 365.767256 8.698157 
L 369.155263 0.066984 
L 370.002265 -0.188666 
L 375.084275 0.386167 
L 379.319284 0.668947 
L 386.839827 1.014894 
L 389.319349 1.433485 
L 392.625377 2.261455 
L 395.931406 3.361706 
L 399.237434 4.694982 
L 401.716956 5.827704 
L 402.543463 5.575967 
L 404.554017 -1 
M 434.29127 -1 
L 435.603748 0.172162 
L 437.256763 1.314612 
L 438.909777 2.084321 
L 440.562791 2.472219 
L 441.389298 2.520549 
L 441.389298 101.383836 
L 447.204437 101.321466 
L 448.865905 100.982112 
L 449.696639 100.644446 
L 450.527373 100.155427 
L 451.358107 99.508066 
L 453.019575 97.720957 
L 454.681043 95.377289 
L 456.342511 92.58177 
L 458.003979 89.405193 
L 460.496181 84.023337 
L 462.988383 77.994863 
L 465.480586 71.409155 
L 468.803522 61.928486 
L 475.449394 42.347424 
L 477.110862 38.379165 
L 477.941596 36.818616 
L 478.77233 35.591633 
L 479.603064 34.680925 
L 480.433798 34.032847 
L 481.264532 33.585283 
L 482.926 33.083367 
L 484.587468 32.883686 
L 487.079671 32.851852 
L 487.910405 32.873915 
L 488.741139 32.024962 
L 490.402607 32.669218 
L 492.064075 32.974877 
L 495.387011 33.248835 
L 500.371415 33.396939 
L 501.202149 33.399917 
L 501.202149 56.811134 
L 503.694351 56.900675 
L 507.017287 57.269459 
L 508.678756 57.556201 
L 511.170958 58.643198 
L 513.66316 59.986632 
L 516.155362 61.550717 
L 519.478298 63.911507 
L 523.631968 67.168677 
L 526.954904 69.90307 
L 527.785638 69.481591 
L 531.108575 59.063533 
L 534.431511 47.871714 
L 536.092979 42.025899 
L 536.923713 40.813759 
L 541.077383 40.657615 
L 541.908117 40.555698 
L 542.738851 40.326258 
L 543.569585 39.660722 
L 544.400319 37.920231 
L 546.061787 32.633473 
L 549.384723 21.780124 
L 551.876926 14.487632 
L 553.538394 10.254135 
L 555.199862 6.661812 
L 556.86133 3.830754 
L 557.692064 2.735776 
L 558.522798 1.87076 
L 559.353532 1.245518 
L 560.184266 0.867402 
L 561.015 0.740884 
L 561.015 0.740884 
" style="fill:none;stroke:#ff0000;stroke-linecap:square;stroke-width:2;"/>
   </g>
   <g id="line2d_35">
    <path clip-path="url(#p8d536c5091)" d="M 60.932 13.021152 
L 62.626004 12.926181 
L 64.320007 12.649424 
L 66.861013 11.938733 
L 69.402018 10.971182 
L 77.872036 7.509191 
L 80.413042 6.808136 
L 82.954047 6.382542 
L 85.495052 6.251273 
L 88.036058 6.412608 
L 90.577063 6.846326 
L 93.118069 7.521311 
L 95.659074 8.403498 
L 99.047081 9.84082 
L 102.435089 11.511996 
L 105.823096 13.368357 
L 106.670098 14.230698 
L 111.752109 33.193592 
L 118.528123 59.42031 
L 126.998141 92.300919 
L 127.845143 94.980106 
L 128.692145 96.13375 
L 129.539147 95.431198 
L 131.23315 92.669897 
L 138.856166 79.337429 
L 142.244174 73.951467 
L 144.785179 70.25253 
L 147.326185 66.902883 
L 149.86719 63.954332 
L 152.408195 61.457326 
L 155.796203 58.578104 
L 157.490206 57.505396 
L 159.18421 56.728703 
L 160.878213 56.258382 
L 162.572217 56.100869 
L 164.248846 50.510648 
L 165.925475 44.590304 
L 166.763789 42.538402 
L 168.440418 40.955038 
L 170.117047 38.868797 
L 171.793675 36.305566 
L 173.470304 33.296254 
L 175.146933 29.879773 
L 177.661876 24.073199 
L 180.176819 17.613088 
L 186.04502 1.617076 
L 186.380808 -1 
M 192.983019 -1 
L 197.781421 2.361652 
L 201.972993 5.042307 
L 207.002879 7.987387 
L 211.194451 10.18406 
L 213.709394 11.315296 
L 216.224338 12.220641 
L 217.900966 12.6557 
L 219.577595 12.92812 
L 221.254224 13.021152 
L 223.781527 12.902945 
L 226.308831 12.56334 
L 229.678569 11.829585 
L 233.890742 10.635402 
L 243.999956 7.652318 
L 244.84239 7.428952 
L 245.684825 6.559788 
L 248.066841 -1 
M 324.261507 -1 
L 325.403959 2.13301 
L 326.240504 2.749463 
L 329.586684 1.369367 
L 330.423229 6.769811 
L 332.096319 9.959119 
L 333.769409 12.760854 
L 335.442499 15.176195 
L 337.115589 17.237545 
L 338.788679 18.992169 
L 340.461769 20.486255 
L 342.134859 21.750686 
L 343.807949 22.795087 
L 345.481039 23.6031 
L 347.154129 24.134537 
L 348.827219 24.329194 
L 349.674221 24.275042 
L 350.521223 24.105262 
L 351.368225 23.816176 
L 352.215227 23.402055 
L 353.90923 22.188645 
L 355.603234 20.469379 
L 357.297237 18.26471 
L 358.991241 15.605771 
L 360.685245 12.52457 
L 362.379248 9.053094 
L 363.22625 7.180744 
L 364.067313 -1 
M 364.448841 -1 
L 369.155263 -0.303564 
L 369.469661 -1 
M 441.389298 -1 
L 441.389298 96.13375 
L 443.050766 96.237473 
L 444.712235 96.546779 
L 446.373703 97.055762 
L 448.035171 97.755307 
L 449.696639 98.632529 
L 450.527373 99.13287 
L 451.358107 99.500373 
L 452.188841 98.6866 
L 453.850309 96.607231 
L 455.511777 94.025348 
L 457.173245 91.02844 
L 458.834713 87.67241 
L 461.326915 82.055499 
L 463.819117 75.857012 
L 466.31132 69.105818 
L 469.634256 59.463868 
L 475.449394 42.347386 
L 477.110862 38.379161 
L 477.941596 36.818591 
L 478.77233 35.59159 
L 479.603064 34.680866 
L 480.433798 34.032774 
L 481.264532 33.585195 
L 482.926 33.083215 
L 484.587468 32.883278 
L 485.418202 31.682928 
L 487.910405 23.776569 
L 488.741139 28.77084 
L 489.571873 27.885849 
L 491.233341 26.593235 
L 492.894809 25.739533 
L 494.556277 25.163317 
L 497.048479 24.630514 
L 499.540681 24.375613 
L 501.202149 24.329194 
L 501.202149 56.100869 
L 503.694351 56.26589 
L 506.186553 56.755928 
L 509.50949 57.65984 
L 512.001692 58.00429 
L 513.66316 58.074567 
L 515.324628 57.838892 
L 516.155362 57.531359 
L 516.986096 57.048114 
L 517.81683 56.353611 
L 518.647564 55.422529 
L 519.478298 54.246116 
L 521.139766 51.206922 
L 522.801234 47.421073 
L 524.462702 43.091706 
L 525.293436 41.531766 
L 530.277841 41.100102 
L 536.092979 40.836722 
L 536.923713 39.047739 
L 541.908117 20.569058 
L 547.57296 -1 
L 547.57296 -1 
" style="fill:none;stroke:#ff0000;stroke-linecap:square;stroke-width:2;"/>
   </g>
   <g id="line2d_36">
    <path clip-path="url(#p8d536c5091)" d="M 60.932 13.020697 
L 61.779002 12.962434 
L 62.626004 12.787765 
L 64.320007 12.094958 
L 66.014011 10.958921 
L 67.708014 9.404193 
L 69.402018 7.456815 
L 71.096022 5.142299 
L 72.790025 2.484979 
L 74.751877 -1 
M 102.400679 -1 
L 106.670098 13.859665 
L 110.058105 15.978 
L 111.752109 17.226518 
L 113.446112 18.811502 
L 115.140116 20.813075 
L 117.681121 23.896701 
L 119.375125 25.671712 
L 121.069128 27.128768 
L 121.91613 27.728459 
L 124.457136 28.935737 
L 126.151139 29.385124 
L 127.845143 29.547172 
L 130.386148 29.619821 
L 132.080152 29.986828 
L 133.774156 30.674635 
L 136.315161 32.0089 
L 141.397172 35.024809 
L 149.86719 40.06782 
L 153.255197 41.807938 
L 155.796203 42.880081 
L 158.337208 43.673629 
L 160.031212 44.015258 
L 161.725215 44.190795 
L 163.410531 44.145191 
L 164.248846 43.943658 
L 165.08716 43.607127 
L 165.925475 43.139107 
L 166.763789 41.634166 
L 175.146933 12.503185 
L 179.172809 -1 
M 207.224316 -1 
L 209.517822 2.874376 
L 211.194451 5.392866 
L 212.87108 7.610955 
L 214.547709 9.493347 
L 216.224338 11.005329 
L 217.900966 12.114655 
L 219.577595 12.792686 
L 220.415909 12.963692 
L 222.096658 13.007181 
L 224.623962 12.812873 
L 227.151265 12.40625 
L 230.521004 11.608171 
L 235.575611 10.120304 
L 243.157521 7.880407 
L 244.84239 7.42863 
L 245.684825 6.559723 
L 248.06682 -1 
M 330.384693 -1 
L 330.423229 1.046718 
L 334.605954 -0.40194 
L 336.670142 -1 
M 441.389298 -1 
L 441.389298 29.55862 
L 445.542969 29.461711 
L 450.527373 29.096275 
L 455.511777 28.482053 
L 460.496181 27.648971 
L 462.988383 27.159893 
L 463.819117 26.320761 
L 469.634256 26.639692 
L 472.126458 26.542386 
L 473.787926 26.229289 
L 474.61866 25.932541 
L 475.449394 25.489642 
L 476.280128 24.844111 
L 477.110862 23.929195 
L 477.941596 22.684644 
L 478.77233 21.08282 
L 480.433798 16.923636 
L 482.095266 11.896429 
L 485.418202 0.723498 
L 485.916499 -1 
M 488.166261 -1 
L 488.741139 13.787535 
L 494.556277 2.942065 
L 496.217745 0.576533 
L 497.682607 -1 
M 501.202149 -1 
L 501.202149 44.212445 
L 505.355819 44.073523 
L 509.50949 43.689434 
L 515.324628 42.89162 
L 524.462702 41.623611 
L 525.293436 40.771891 
L 527.785638 33.349534 
L 531.108575 22.693958 
L 536.092979 5.85322 
L 538.096519 -1 
L 538.096519 -1 
" style="fill:none;stroke:#ff0000;stroke-linecap:square;stroke-width:2;"/>
   </g>
   <g id="line2d_37">
    <path clip-path="url(#p8d536c5091)" d="M 104.6678 -1 
L 107.5171 5.385562 
L 110.058105 10.565818 
L 111.752109 13.57299 
L 113.446112 15.983635 
L 115.140116 17.685335 
L 116.834119 18.975925 
L 120.222127 21.173766 
L 121.91613 22.199221 
L 122.763132 24.916067 
L 124.457136 25.630709 
L 126.151139 25.944785 
L 127.845143 25.849577 
L 128.692145 25.64793 
L 129.539147 25.842046 
L 130.386148 25.888036 
L 131.23315 25.749182 
L 132.080152 25.413891 
L 132.927154 24.893893 
L 134.621157 23.392639 
L 136.315161 21.374439 
L 138.009165 18.914188 
L 139.703168 16.053952 
L 141.397172 12.826835 
L 143.938177 7.356388 
L 146.479183 1.225443 
L 147.347217 -1 
M 441.389298 -1 
L 441.389298 25.64793 
L 453.019575 25.75054 
L 459.665447 26.037795 
L 470.46499 26.637976 
L 472.126458 26.542331 
L 473.787926 26.229223 
L 474.61866 25.932467 
L 475.449394 25.489557 
L 476.280128 24.844014 
L 477.110862 23.929085 
L 477.941596 22.684523 
L 478.77233 21.082692 
L 480.433798 16.923505 
L 482.095266 11.896281 
L 485.418202 0.721537 
L 485.915282 -1 
L 485.915282 -1 
" style="fill:none;stroke:#ff0000;stroke-linecap:square;stroke-width:2;"/>
   </g>
   <g id="line2d_38">
    <path clip-path="url(#p8d536c5091)" d="M 128.692145 326.72 
L 128.692145 31.92 
" style="fill:none;stroke:#000000;stroke-dasharray:1.85,0.8;stroke-dashoffset:0;stroke-width:0.5;"/>
   </g>
   <g id="line2d_39">
    <path clip-path="url(#p8d536c5091)" d="M 162.572217 326.72 
L 162.572217 31.92 
" style="fill:none;stroke:#000000;stroke-dasharray:1.85,0.8;stroke-dashoffset:0;stroke-width:0.5;"/>
   </g>
   <g id="line2d_40">
    <path clip-path="url(#p8d536c5091)" d="M 221.254224 326.72 
L 221.254224 31.92 
" style="fill:none;stroke:#000000;stroke-dasharray:1.85,0.8;stroke-dashoffset:0;stroke-width:0.5;"/>
   </g>
   <g id="line2d_41">
    <path clip-path="url(#p8d536c5091)" d="M 281.067075 326.72 
L 281.067075 31.92 
" style="fill:none;stroke:#000000;stroke-dasharray:1.85,0.8;stroke-dashoffset:0;stroke-width:0.5;"/>
   </g>
   <g id="line2d_42">
    <path clip-path="url(#p8d536c5091)" d="M 348.827219 326.72 
L 348.827219 31.92 
" style="fill:none;stroke:#000000;stroke-dasharray:1.85,0.8;stroke-dashoffset:0;stroke-width:0.5;"/>
   </g>
   <g id="line2d_43">
    <path clip-path="url(#p8d536c5091)" d="M 382.707292 326.72 
L 382.707292 31.92 
" style="fill:none;stroke:#000000;stroke-dasharray:1.85,0.8;stroke-dashoffset:0;stroke-width:0.5;"/>
   </g>
   <g id="line2d_44">
    <path clip-path="url(#p8d536c5091)" d="M 441.389298 326.72 
L 441.389298 31.92 
" style="fill:none;stroke:#000000;stroke-dasharray:1.85,0.8;stroke-dashoffset:0;stroke-width:0.5;"/>
   </g>
   <g id="line2d_45">
    <path clip-path="url(#p8d536c5091)" d="M 441.389298 326.72 
L 441.389298 31.92 
" style="fill:none;stroke:#000000;stroke-dasharray:1.85,0.8;stroke-dashoffset:0;stroke-width:0.5;"/>
   </g>
   <g id="line2d_46">
    <path clip-path="url(#p8d536c5091)" d="M 501.202149 326.72 
L 501.202149 31.92 
" style="fill:none;stroke:#000000;stroke-dasharray:1.85,0.8;stroke-dashoffset:0;stroke-width:0.5;"/>
   </g>
   <g id="line2d_47">
    <path clip-path="url(#p8d536c5091)" d="M 501.202149 326.72 
L 501.202149 31.92 
" style="fill:none;stroke:#000000;stroke-dasharray:1.85,0.8;stroke-dashoffset:0;stroke-width:0.5;"/>
   </g>
   <g id="line2d_48">
    <path clip-path="url(#p8d536c5091)" d="M 60.932 179.32 
L 561.015 179.32 
" style="fill:none;stroke:#000000;stroke-dasharray:1.85,0.8;stroke-dashoffset:0;stroke-width:0.5;"/>
   </g>
   <g id="patch_3">
    <path d="M 60.932 326.72 
L 60.932 31.92 
" style="fill:none;stroke:#000000;stroke-linecap:square;stroke-linejoin:miter;stroke-width:0.8;"/>
   </g>
   <g id="patch_4">
    <path d="M 561.015 326.72 
L 561.015 31.92 
" style="fill:none;stroke:#000000;stroke-linecap:square;stroke-linejoin:miter;stroke-width:0.8;"/>
   </g>
   <g id="patch_5">
    <path d="M 60.932 326.72 
L 561.015 326.72 
" style="fill:none;stroke:#000000;stroke-linecap:square;stroke-linejoin:miter;stroke-width:0.8;"/>
   </g>
   <g id="patch_6">
    <path d="M 60.932 31.92 
L 561.015 31.92 
" style="fill:none;stroke:#000000;stroke-linecap:square;stroke-linejoin:miter;stroke-width:0.8;"/>
   </g>
   <g id="text_19">
    <!-- Bandstructure of C$_6$Li$_2$ -->
    <g transform="translate(209.9035 25.92)scale(0.18 -0.18)">
     <defs>
      <path d="M 19.671875 34.8125 
L 19.671875 8.109375 
L 35.5 8.109375 
Q 43.453125 8.109375 47.28125 11.40625 
Q 51.125 14.703125 51.125 21.484375 
Q 51.125 28.328125 47.28125 31.5625 
Q 43.453125 34.8125 35.5 34.8125 
z
M 19.671875 64.796875 
L 19.671875 42.828125 
L 34.28125 42.828125 
Q 41.5 42.828125 45.03125 45.53125 
Q 48.578125 48.25 48.578125 53.8125 
Q 48.578125 59.328125 45.03125 62.0625 
Q 41.5 64.796875 34.28125 64.796875 
z
M 9.8125 72.90625 
L 35.015625 72.90625 
Q 46.296875 72.90625 52.390625 68.21875 
Q 58.5 63.53125 58.5 54.890625 
Q 58.5 48.1875 55.375 44.234375 
Q 52.25 40.28125 46.1875 39.3125 
Q 53.46875 37.75 57.5 32.78125 
Q 61.53125 27.828125 61.53125 20.40625 
Q 61.53125 10.640625 54.890625 5.3125 
Q 48.25 0 35.984375 0 
L 9.8125 0 
z
" id="DejaVuSans-66"/>
      <path d="M 34.28125 27.484375 
Q 23.390625 27.484375 19.1875 25 
Q 14.984375 22.515625 14.984375 16.5 
Q 14.984375 11.71875 18.140625 8.90625 
Q 21.296875 6.109375 26.703125 6.109375 
Q 34.1875 6.109375 38.703125 11.40625 
Q 43.21875 16.703125 43.21875 25.484375 
L 43.21875 27.484375 
z
M 52.203125 31.203125 
L 52.203125 0 
L 43.21875 0 
L 43.21875 8.296875 
Q 40.140625 3.328125 35.546875 0.953125 
Q 30.953125 -1.421875 24.3125 -1.421875 
Q 15.921875 -1.421875 10.953125 3.296875 
Q 6 8.015625 6 15.921875 
Q 6 25.140625 12.171875 29.828125 
Q 18.359375 34.515625 30.609375 34.515625 
L 43.21875 34.515625 
L 43.21875 35.40625 
Q 43.21875 41.609375 39.140625 45 
Q 35.0625 48.390625 27.6875 48.390625 
Q 23 48.390625 18.546875 47.265625 
Q 14.109375 46.140625 10.015625 43.890625 
L 10.015625 52.203125 
Q 14.9375 54.109375 19.578125 55.046875 
Q 24.21875 56 28.609375 56 
Q 40.484375 56 46.34375 49.84375 
Q 52.203125 43.703125 52.203125 31.203125 
z
" id="DejaVuSans-97"/>
      <path d="M 54.890625 33.015625 
L 54.890625 0 
L 45.90625 0 
L 45.90625 32.71875 
Q 45.90625 40.484375 42.875 44.328125 
Q 39.84375 48.1875 33.796875 48.1875 
Q 26.515625 48.1875 22.3125 43.546875 
Q 18.109375 38.921875 18.109375 30.90625 
L 18.109375 0 
L 9.078125 0 
L 9.078125 54.6875 
L 18.109375 54.6875 
L 18.109375 46.1875 
Q 21.34375 51.125 25.703125 53.5625 
Q 30.078125 56 35.796875 56 
Q 45.21875 56 50.046875 50.171875 
Q 54.890625 44.34375 54.890625 33.015625 
z
" id="DejaVuSans-110"/>
      <path d="M 45.40625 46.390625 
L 45.40625 75.984375 
L 54.390625 75.984375 
L 54.390625 0 
L 45.40625 0 
L 45.40625 8.203125 
Q 42.578125 3.328125 38.25 0.953125 
Q 33.9375 -1.421875 27.875 -1.421875 
Q 17.96875 -1.421875 11.734375 6.484375 
Q 5.515625 14.40625 5.515625 27.296875 
Q 5.515625 40.1875 11.734375 48.09375 
Q 17.96875 56 27.875 56 
Q 33.9375 56 38.25 53.625 
Q 42.578125 51.265625 45.40625 46.390625 
z
M 14.796875 27.296875 
Q 14.796875 17.390625 18.875 11.75 
Q 22.953125 6.109375 30.078125 6.109375 
Q 37.203125 6.109375 41.296875 11.75 
Q 45.40625 17.390625 45.40625 27.296875 
Q 45.40625 37.203125 41.296875 42.84375 
Q 37.203125 48.484375 30.078125 48.484375 
Q 22.953125 48.484375 18.875 42.84375 
Q 14.796875 37.203125 14.796875 27.296875 
z
" id="DejaVuSans-100"/>
      <path d="M 44.28125 53.078125 
L 44.28125 44.578125 
Q 40.484375 46.53125 36.375 47.5 
Q 32.28125 48.484375 27.875 48.484375 
Q 21.1875 48.484375 17.84375 46.4375 
Q 14.5 44.390625 14.5 40.28125 
Q 14.5 37.15625 16.890625 35.375 
Q 19.28125 33.59375 26.515625 31.984375 
L 29.59375 31.296875 
Q 39.15625 29.25 43.1875 25.515625 
Q 47.21875 21.78125 47.21875 15.09375 
Q 47.21875 7.46875 41.1875 3.015625 
Q 35.15625 -1.421875 24.609375 -1.421875 
Q 20.21875 -1.421875 15.453125 -0.5625 
Q 10.6875 0.296875 5.421875 2 
L 5.421875 11.28125 
Q 10.40625 8.6875 15.234375 7.390625 
Q 20.0625 6.109375 24.8125 6.109375 
Q 31.15625 6.109375 34.5625 8.28125 
Q 37.984375 10.453125 37.984375 14.40625 
Q 37.984375 18.0625 35.515625 20.015625 
Q 33.0625 21.96875 24.703125 23.78125 
L 21.578125 24.515625 
Q 13.234375 26.265625 9.515625 29.90625 
Q 5.8125 33.546875 5.8125 39.890625 
Q 5.8125 47.609375 11.28125 51.796875 
Q 16.75 56 26.8125 56 
Q 31.78125 56 36.171875 55.265625 
Q 40.578125 54.546875 44.28125 53.078125 
z
" id="DejaVuSans-115"/>
      <path d="M 18.3125 70.21875 
L 18.3125 54.6875 
L 36.8125 54.6875 
L 36.8125 47.703125 
L 18.3125 47.703125 
L 18.3125 18.015625 
Q 18.3125 11.328125 20.140625 9.421875 
Q 21.96875 7.515625 27.59375 7.515625 
L 36.8125 7.515625 
L 36.8125 0 
L 27.59375 0 
Q 17.1875 0 13.234375 3.875 
Q 9.28125 7.765625 9.28125 18.015625 
L 9.28125 47.703125 
L 2.6875 47.703125 
L 2.6875 54.6875 
L 9.28125 54.6875 
L 9.28125 70.21875 
z
" id="DejaVuSans-116"/>
      <path d="M 41.109375 46.296875 
Q 39.59375 47.171875 37.8125 47.578125 
Q 36.03125 48 33.890625 48 
Q 26.265625 48 22.1875 43.046875 
Q 18.109375 38.09375 18.109375 28.8125 
L 18.109375 0 
L 9.078125 0 
L 9.078125 54.6875 
L 18.109375 54.6875 
L 18.109375 46.1875 
Q 20.953125 51.171875 25.484375 53.578125 
Q 30.03125 56 36.53125 56 
Q 37.453125 56 38.578125 55.875 
Q 39.703125 55.765625 41.0625 55.515625 
z
" id="DejaVuSans-114"/>
      <path d="M 8.5 21.578125 
L 8.5 54.6875 
L 17.484375 54.6875 
L 17.484375 21.921875 
Q 17.484375 14.15625 20.5 10.265625 
Q 23.53125 6.390625 29.59375 6.390625 
Q 36.859375 6.390625 41.078125 11.03125 
Q 45.3125 15.671875 45.3125 23.6875 
L 45.3125 54.6875 
L 54.296875 54.6875 
L 54.296875 0 
L 45.3125 0 
L 45.3125 8.40625 
Q 42.046875 3.421875 37.71875 1 
Q 33.40625 -1.421875 27.6875 -1.421875 
Q 18.265625 -1.421875 13.375 4.4375 
Q 8.5 10.296875 8.5 21.578125 
z
M 31.109375 56 
z
" id="DejaVuSans-117"/>
      <path d="M 48.78125 52.59375 
L 48.78125 44.1875 
Q 44.96875 46.296875 41.140625 47.34375 
Q 37.3125 48.390625 33.40625 48.390625 
Q 24.65625 48.390625 19.8125 42.84375 
Q 14.984375 37.3125 14.984375 27.296875 
Q 14.984375 17.28125 19.8125 11.734375 
Q 24.65625 6.203125 33.40625 6.203125 
Q 37.3125 6.203125 41.140625 7.25 
Q 44.96875 8.296875 48.78125 10.40625 
L 48.78125 2.09375 
Q 45.015625 0.34375 40.984375 -0.53125 
Q 36.96875 -1.421875 32.421875 -1.421875 
Q 20.0625 -1.421875 12.78125 6.34375 
Q 5.515625 14.109375 5.515625 27.296875 
Q 5.515625 40.671875 12.859375 48.328125 
Q 20.21875 56 33.015625 56 
Q 37.15625 56 41.109375 55.140625 
Q 45.0625 54.296875 48.78125 52.59375 
z
" id="DejaVuSans-99"/>
      <path d="M 30.609375 48.390625 
Q 23.390625 48.390625 19.1875 42.75 
Q 14.984375 37.109375 14.984375 27.296875 
Q 14.984375 17.484375 19.15625 11.84375 
Q 23.34375 6.203125 30.609375 6.203125 
Q 37.796875 6.203125 41.984375 11.859375 
Q 46.1875 17.53125 46.1875 27.296875 
Q 46.1875 37.015625 41.984375 42.703125 
Q 37.796875 48.390625 30.609375 48.390625 
z
M 30.609375 56 
Q 42.328125 56 49.015625 48.375 
Q 55.71875 40.765625 55.71875 27.296875 
Q 55.71875 13.875 49.015625 6.21875 
Q 42.328125 -1.421875 30.609375 -1.421875 
Q 18.84375 -1.421875 12.171875 6.21875 
Q 5.515625 13.875 5.515625 27.296875 
Q 5.515625 40.765625 12.171875 48.375 
Q 18.84375 56 30.609375 56 
z
" id="DejaVuSans-111"/>
      <path d="M 37.109375 75.984375 
L 37.109375 68.5 
L 28.515625 68.5 
Q 23.6875 68.5 21.796875 66.546875 
Q 19.921875 64.59375 19.921875 59.515625 
L 19.921875 54.6875 
L 34.71875 54.6875 
L 34.71875 47.703125 
L 19.921875 47.703125 
L 19.921875 0 
L 10.890625 0 
L 10.890625 47.703125 
L 2.296875 47.703125 
L 2.296875 54.6875 
L 10.890625 54.6875 
L 10.890625 58.5 
Q 10.890625 67.625 15.140625 71.796875 
Q 19.390625 75.984375 28.609375 75.984375 
z
" id="DejaVuSans-102"/>
      <path d="M 64.40625 67.28125 
L 64.40625 56.890625 
Q 59.421875 61.53125 53.78125 63.8125 
Q 48.140625 66.109375 41.796875 66.109375 
Q 29.296875 66.109375 22.65625 58.46875 
Q 16.015625 50.828125 16.015625 36.375 
Q 16.015625 21.96875 22.65625 14.328125 
Q 29.296875 6.6875 41.796875 6.6875 
Q 48.140625 6.6875 53.78125 8.984375 
Q 59.421875 11.28125 64.40625 15.921875 
L 64.40625 5.609375 
Q 59.234375 2.09375 53.4375 0.328125 
Q 47.65625 -1.421875 41.21875 -1.421875 
Q 24.65625 -1.421875 15.125 8.703125 
Q 5.609375 18.84375 5.609375 36.375 
Q 5.609375 53.953125 15.125 64.078125 
Q 24.65625 74.21875 41.21875 74.21875 
Q 47.75 74.21875 53.53125 72.484375 
Q 59.328125 70.75 64.40625 67.28125 
z
" id="DejaVuSans-67"/>
      <path d="M 33.015625 40.375 
Q 26.375 40.375 22.484375 35.828125 
Q 18.609375 31.296875 18.609375 23.390625 
Q 18.609375 15.53125 22.484375 10.953125 
Q 26.375 6.390625 33.015625 6.390625 
Q 39.65625 6.390625 43.53125 10.953125 
Q 47.40625 15.53125 47.40625 23.390625 
Q 47.40625 31.296875 43.53125 35.828125 
Q 39.65625 40.375 33.015625 40.375 
z
M 52.59375 71.296875 
L 52.59375 62.3125 
Q 48.875 64.0625 45.09375 64.984375 
Q 41.3125 65.921875 37.59375 65.921875 
Q 27.828125 65.921875 22.671875 59.328125 
Q 17.53125 52.734375 16.796875 39.40625 
Q 19.671875 43.65625 24.015625 45.921875 
Q 28.375 48.1875 33.59375 48.1875 
Q 44.578125 48.1875 50.953125 41.515625 
Q 57.328125 34.859375 57.328125 23.390625 
Q 57.328125 12.15625 50.6875 5.359375 
Q 44.046875 -1.421875 33.015625 -1.421875 
Q 20.359375 -1.421875 13.671875 8.265625 
Q 6.984375 17.96875 6.984375 36.375 
Q 6.984375 53.65625 15.1875 63.9375 
Q 23.390625 74.21875 37.203125 74.21875 
Q 40.921875 74.21875 44.703125 73.484375 
Q 48.484375 72.75 52.59375 71.296875 
z
" id="DejaVuSans-54"/>
      <path d="M 9.421875 54.6875 
L 18.40625 54.6875 
L 18.40625 0 
L 9.421875 0 
z
M 9.421875 75.984375 
L 18.40625 75.984375 
L 18.40625 64.59375 
L 9.421875 64.59375 
z
" id="DejaVuSans-105"/>
     </defs>
     <use transform="translate(0 0.015625)" xlink:href="#DejaVuSans-66"/>
     <use transform="translate(68.603516 0.015625)" xlink:href="#DejaVuSans-97"/>
     <use transform="translate(129.882812 0.015625)" xlink:href="#DejaVuSans-110"/>
     <use transform="translate(193.261719 0.015625)" xlink:href="#DejaVuSans-100"/>
     <use transform="translate(256.738281 0.015625)" xlink:href="#DejaVuSans-115"/>
     <use transform="translate(308.837891 0.015625)" xlink:href="#DejaVuSans-116"/>
     <use transform="translate(348.046875 0.015625)" xlink:href="#DejaVuSans-114"/>
     <use transform="translate(389.160156 0.015625)" xlink:href="#DejaVuSans-117"/>
     <use transform="translate(452.539062 0.015625)" xlink:href="#DejaVuSans-99"/>
     <use transform="translate(507.519531 0.015625)" xlink:href="#DejaVuSans-116"/>
     <use transform="translate(546.728516 0.015625)" xlink:href="#DejaVuSans-117"/>
     <use transform="translate(610.107422 0.015625)" xlink:href="#DejaVuSans-114"/>
     <use transform="translate(651.220703 0.015625)" xlink:href="#DejaVuSans-101"/>
     <use transform="translate(712.744141 0.015625)" xlink:href="#DejaVuSans-32"/>
     <use transform="translate(744.53125 0.015625)" xlink:href="#DejaVuSans-111"/>
     <use transform="translate(805.712891 0.015625)" xlink:href="#DejaVuSans-102"/>
     <use transform="translate(840.917969 0.015625)" xlink:href="#DejaVuSans-32"/>
     <use transform="translate(872.705078 0.015625)" xlink:href="#DejaVuSans-67"/>
     <use transform="translate(943.486328 -16.390625)scale(0.7)" xlink:href="#DejaVuSans-54"/>
     <use transform="translate(990.756836 0.015625)" xlink:href="#DejaVuSans-76"/>
     <use transform="translate(1046.469727 0.015625)" xlink:href="#DejaVuSans-105"/>
     <use transform="translate(1075.209961 -16.390625)scale(0.7)" xlink:href="#DejaVuSans-50"/>
    </g>
   </g>
  </g>
 </g>
 <defs>
  <clipPath id="p8d536c5091">
   <rect height="294.8" width="500.083" x="60.932" y="31.92"/>
  </clipPath>
 </defs>
</svg>
