<?xml version="1.0" encoding="utf-8" standalone="no"?>
<!DOCTYPE svg PUBLIC "-//W3C//DTD SVG 1.1//EN"
  "http://www.w3.org/Graphics/SVG/1.1/DTD/svg11.dtd">
<!-- Created with matplotlib (https://matplotlib.org/) -->
<svg height="360pt" version="1.1" viewBox="0 0 360 360" width="360pt" xmlns="http://www.w3.org/2000/svg" xmlns:xlink="http://www.w3.org/1999/xlink">
 <metadata>
  <rdf:RDF xmlns:cc="http://creativecommons.org/ns#" xmlns:dc="http://purl.org/dc/elements/1.1/" xmlns:rdf="http://www.w3.org/1999/02/22-rdf-syntax-ns#">
   <cc:Work>
    <dc:type rdf:resource="http://purl.org/dc/dcmitype/StillImage"/>
    <dc:date>2021-03-20T17:10:06.319525</dc:date>
    <dc:format>image/svg+xml</dc:format>
    <dc:creator>
     <cc:Agent>
      <dc:title>Matplotlib v3.3.4, https://matplotlib.org/</dc:title>
     </cc:Agent>
    </dc:creator>
   </cc:Work>
  </rdf:RDF>
 </metadata>
 <defs>
  <style type="text/css">*{stroke-linecap:butt;stroke-linejoin:round;}</style>
 </defs>
 <g id="figure_1">
  <g id="patch_1">
   <path d="M 0 360 
L 360 360 
L 360 0 
L 0 0 
z
" style="fill:#ffffff;"/>
  </g>
  <g id="axes_1">
   <g id="patch_2">
    <path d="M 52.04 311.128 
L 346.005 311.128 
L 346.005 10.8 
L 52.04 10.8 
z
" style="fill:#ffffff;"/>
   </g>
   <g id="matplotlib.axis_1">
    <g id="xtick_1">
     <g id="line2d_1">
      <defs>
       <path d="M 0 0 
L 0 3.5 
" id="m573de0dcc3" style="stroke:#000000;stroke-width:0.8;"/>
      </defs>
      <g>
       <use style="stroke:#000000;stroke-width:0.8;" x="52.04" xlink:href="#m573de0dcc3" y="311.128"/>
      </g>
     </g>
     <g id="text_1">
      <!-- −8 -->
      <g transform="translate(44.668906 325.726438)scale(0.1 -0.1)">
       <defs>
        <path d="M 10.59375 35.5 
L 73.1875 35.5 
L 73.1875 27.203125 
L 10.59375 27.203125 
z
" id="DejaVuSans-8722"/>
        <path d="M 31.78125 34.625 
Q 24.75 34.625 20.71875 30.859375 
Q 16.703125 27.09375 16.703125 20.515625 
Q 16.703125 13.921875 20.71875 10.15625 
Q 24.75 6.390625 31.78125 6.390625 
Q 38.8125 6.390625 42.859375 10.171875 
Q 46.921875 13.96875 46.921875 20.515625 
Q 46.921875 27.09375 42.890625 30.859375 
Q 38.875 34.625 31.78125 34.625 
z
M 21.921875 38.8125 
Q 15.578125 40.375 12.03125 44.71875 
Q 8.5 49.078125 8.5 55.328125 
Q 8.5 64.0625 14.71875 69.140625 
Q 20.953125 74.21875 31.78125 74.21875 
Q 42.671875 74.21875 48.875 69.140625 
Q 55.078125 64.0625 55.078125 55.328125 
Q 55.078125 49.078125 51.53125 44.71875 
Q 48 40.375 41.703125 38.8125 
Q 48.828125 37.15625 52.796875 32.3125 
Q 56.78125 27.484375 56.78125 20.515625 
Q 56.78125 9.90625 50.3125 4.234375 
Q 43.84375 -1.421875 31.78125 -1.421875 
Q 19.734375 -1.421875 13.25 4.234375 
Q 6.78125 9.90625 6.78125 20.515625 
Q 6.78125 27.484375 10.78125 32.3125 
Q 14.796875 37.15625 21.921875 38.8125 
z
M 18.3125 54.390625 
Q 18.3125 48.734375 21.84375 45.5625 
Q 25.390625 42.390625 31.78125 42.390625 
Q 38.140625 42.390625 41.71875 45.5625 
Q 45.3125 48.734375 45.3125 54.390625 
Q 45.3125 60.0625 41.71875 63.234375 
Q 38.140625 66.40625 31.78125 66.40625 
Q 25.390625 66.40625 21.84375 63.234375 
Q 18.3125 60.0625 18.3125 54.390625 
z
" id="DejaVuSans-56"/>
       </defs>
       <use xlink:href="#DejaVuSans-8722"/>
       <use x="83.789062" xlink:href="#DejaVuSans-56"/>
      </g>
     </g>
    </g>
    <g id="xtick_2">
     <g id="line2d_2">
      <g>
       <use style="stroke:#000000;stroke-width:0.8;" x="88.785625" xlink:href="#m573de0dcc3" y="311.128"/>
      </g>
     </g>
     <g id="text_2">
      <!-- −6 -->
      <g transform="translate(81.414531 325.726438)scale(0.1 -0.1)">
       <defs>
        <path d="M 33.015625 40.375 
Q 26.375 40.375 22.484375 35.828125 
Q 18.609375 31.296875 18.609375 23.390625 
Q 18.609375 15.53125 22.484375 10.953125 
Q 26.375 6.390625 33.015625 6.390625 
Q 39.65625 6.390625 43.53125 10.953125 
Q 47.40625 15.53125 47.40625 23.390625 
Q 47.40625 31.296875 43.53125 35.828125 
Q 39.65625 40.375 33.015625 40.375 
z
M 52.59375 71.296875 
L 52.59375 62.3125 
Q 48.875 64.0625 45.09375 64.984375 
Q 41.3125 65.921875 37.59375 65.921875 
Q 27.828125 65.921875 22.671875 59.328125 
Q 17.53125 52.734375 16.796875 39.40625 
Q 19.671875 43.65625 24.015625 45.921875 
Q 28.375 48.1875 33.59375 48.1875 
Q 44.578125 48.1875 50.953125 41.515625 
Q 57.328125 34.859375 57.328125 23.390625 
Q 57.328125 12.15625 50.6875 5.359375 
Q 44.046875 -1.421875 33.015625 -1.421875 
Q 20.359375 -1.421875 13.671875 8.265625 
Q 6.984375 17.96875 6.984375 36.375 
Q 6.984375 53.65625 15.1875 63.9375 
Q 23.390625 74.21875 37.203125 74.21875 
Q 40.921875 74.21875 44.703125 73.484375 
Q 48.484375 72.75 52.59375 71.296875 
z
" id="DejaVuSans-54"/>
       </defs>
       <use xlink:href="#DejaVuSans-8722"/>
       <use x="83.789062" xlink:href="#DejaVuSans-54"/>
      </g>
     </g>
    </g>
    <g id="xtick_3">
     <g id="line2d_3">
      <g>
       <use style="stroke:#000000;stroke-width:0.8;" x="125.53125" xlink:href="#m573de0dcc3" y="311.128"/>
      </g>
     </g>
     <g id="text_3">
      <!-- −4 -->
      <g transform="translate(118.160156 325.726438)scale(0.1 -0.1)">
       <defs>
        <path d="M 37.796875 64.3125 
L 12.890625 25.390625 
L 37.796875 25.390625 
z
M 35.203125 72.90625 
L 47.609375 72.90625 
L 47.609375 25.390625 
L 58.015625 25.390625 
L 58.015625 17.1875 
L 47.609375 17.1875 
L 47.609375 0 
L 37.796875 0 
L 37.796875 17.1875 
L 4.890625 17.1875 
L 4.890625 26.703125 
z
" id="DejaVuSans-52"/>
       </defs>
       <use xlink:href="#DejaVuSans-8722"/>
       <use x="83.789062" xlink:href="#DejaVuSans-52"/>
      </g>
     </g>
    </g>
    <g id="xtick_4">
     <g id="line2d_4">
      <g>
       <use style="stroke:#000000;stroke-width:0.8;" x="162.276875" xlink:href="#m573de0dcc3" y="311.128"/>
      </g>
     </g>
     <g id="text_4">
      <!-- −2 -->
      <g transform="translate(154.905781 325.726438)scale(0.1 -0.1)">
       <defs>
        <path d="M 19.1875 8.296875 
L 53.609375 8.296875 
L 53.609375 0 
L 7.328125 0 
L 7.328125 8.296875 
Q 12.9375 14.109375 22.625 23.890625 
Q 32.328125 33.6875 34.8125 36.53125 
Q 39.546875 41.84375 41.421875 45.53125 
Q 43.3125 49.21875 43.3125 52.78125 
Q 43.3125 58.59375 39.234375 62.25 
Q 35.15625 65.921875 28.609375 65.921875 
Q 23.96875 65.921875 18.8125 64.3125 
Q 13.671875 62.703125 7.8125 59.421875 
L 7.8125 69.390625 
Q 13.765625 71.78125 18.9375 73 
Q 24.125 74.21875 28.421875 74.21875 
Q 39.75 74.21875 46.484375 68.546875 
Q 53.21875 62.890625 53.21875 53.421875 
Q 53.21875 48.921875 51.53125 44.890625 
Q 49.859375 40.875 45.40625 35.40625 
Q 44.1875 33.984375 37.640625 27.21875 
Q 31.109375 20.453125 19.1875 8.296875 
z
" id="DejaVuSans-50"/>
       </defs>
       <use xlink:href="#DejaVuSans-8722"/>
       <use x="83.789062" xlink:href="#DejaVuSans-50"/>
      </g>
     </g>
    </g>
    <g id="xtick_5">
     <g id="line2d_5">
      <g>
       <use style="stroke:#000000;stroke-width:0.8;" x="199.0225" xlink:href="#m573de0dcc3" y="311.128"/>
      </g>
     </g>
     <g id="text_5">
      <!-- 0 -->
      <g transform="translate(195.84125 325.726438)scale(0.1 -0.1)">
       <defs>
        <path d="M 31.78125 66.40625 
Q 24.171875 66.40625 20.328125 58.90625 
Q 16.5 51.421875 16.5 36.375 
Q 16.5 21.390625 20.328125 13.890625 
Q 24.171875 6.390625 31.78125 6.390625 
Q 39.453125 6.390625 43.28125 13.890625 
Q 47.125 21.390625 47.125 36.375 
Q 47.125 51.421875 43.28125 58.90625 
Q 39.453125 66.40625 31.78125 66.40625 
z
M 31.78125 74.21875 
Q 44.046875 74.21875 50.515625 64.515625 
Q 56.984375 54.828125 56.984375 36.375 
Q 56.984375 17.96875 50.515625 8.265625 
Q 44.046875 -1.421875 31.78125 -1.421875 
Q 19.53125 -1.421875 13.0625 8.265625 
Q 6.59375 17.96875 6.59375 36.375 
Q 6.59375 54.828125 13.0625 64.515625 
Q 19.53125 74.21875 31.78125 74.21875 
z
" id="DejaVuSans-48"/>
       </defs>
       <use xlink:href="#DejaVuSans-48"/>
      </g>
     </g>
    </g>
    <g id="xtick_6">
     <g id="line2d_6">
      <g>
       <use style="stroke:#000000;stroke-width:0.8;" x="235.768125" xlink:href="#m573de0dcc3" y="311.128"/>
      </g>
     </g>
     <g id="text_6">
      <!-- 2 -->
      <g transform="translate(232.586875 325.726438)scale(0.1 -0.1)">
       <use xlink:href="#DejaVuSans-50"/>
      </g>
     </g>
    </g>
    <g id="xtick_7">
     <g id="line2d_7">
      <g>
       <use style="stroke:#000000;stroke-width:0.8;" x="272.51375" xlink:href="#m573de0dcc3" y="311.128"/>
      </g>
     </g>
     <g id="text_7">
      <!-- 4 -->
      <g transform="translate(269.3325 325.726438)scale(0.1 -0.1)">
       <use xlink:href="#DejaVuSans-52"/>
      </g>
     </g>
    </g>
    <g id="xtick_8">
     <g id="line2d_8">
      <g>
       <use style="stroke:#000000;stroke-width:0.8;" x="309.259375" xlink:href="#m573de0dcc3" y="311.128"/>
      </g>
     </g>
     <g id="text_8">
      <!-- 6 -->
      <g transform="translate(306.078125 325.726438)scale(0.1 -0.1)">
       <use xlink:href="#DejaVuSans-54"/>
      </g>
     </g>
    </g>
    <g id="xtick_9">
     <g id="line2d_9">
      <g>
       <use style="stroke:#000000;stroke-width:0.8;" x="346.005" xlink:href="#m573de0dcc3" y="311.128"/>
      </g>
     </g>
     <g id="text_9">
      <!-- 8 -->
      <g transform="translate(342.82375 325.726438)scale(0.1 -0.1)">
       <use xlink:href="#DejaVuSans-56"/>
      </g>
     </g>
    </g>
    <g id="text_10">
     <!-- $\varepsilon_n(k) - \varepsilon_{\mathrm{F}}$ (eV) -->
     <g transform="translate(146.7475 343.203781)scale(0.15 -0.15)">
      <defs>
       <path d="M 19.734375 29.5 
Q 14.453125 30.671875 12.15625 33.84375 
Q 10.453125 36.078125 10.453125 39.109375 
Q 10.453125 47.40625 18.359375 52.25 
Q 24.609375 56.0625 34.1875 56.0625 
Q 37.890625 56.0625 41.9375 55.46875 
Q 46 54.890625 50.53125 53.71875 
L 48.96875 45.5625 
Q 44.484375 46.96875 40.71875 47.609375 
Q 36.859375 48.25 33.40625 48.25 
Q 27.59375 48.25 23.78125 46 
Q 19.1875 43.3125 19.1875 39.40625 
Q 19.1875 36.8125 21.578125 35.015625 
Q 24.421875 32.859375 30.078125 32.859375 
L 37.640625 32.859375 
L 36.234375 25.4375 
L 29 25.4375 
Q 22.265625 25.4375 18.3125 22.953125 
Q 12.9375 19.578125 12.9375 14.3125 
Q 12.9375 10.984375 15.828125 8.796875 
Q 19.4375 6.0625 26.8125 6.0625 
Q 31.34375 6.0625 35.6875 6.9375 
Q 40.046875 7.859375 43.84375 9.671875 
L 42.1875 1.3125 
Q 37.546875 -0.046875 33.296875 -0.734375 
Q 29.046875 -1.421875 25.140625 -1.421875 
Q 13.53125 -1.421875 8.0625 3.03125 
Q 3.90625 6.453125 3.90625 12.203125 
Q 3.90625 19.96875 9.375 24.75 
Q 13.421875 28.328125 19.734375 29.5 
z
" id="DejaVuSans-Oblique-949"/>
       <path d="M 55.71875 33.015625 
L 49.3125 0 
L 40.28125 0 
L 46.6875 32.671875 
Q 47.125 34.96875 47.359375 36.71875 
Q 47.609375 38.484375 47.609375 39.5 
Q 47.609375 43.609375 45.015625 45.890625 
Q 42.4375 48.1875 37.796875 48.1875 
Q 30.5625 48.1875 25.34375 43.375 
Q 20.125 38.578125 18.5 30.328125 
L 12.5 0 
L 3.515625 0 
L 14.109375 54.6875 
L 23.09375 54.6875 
L 21.296875 46.09375 
Q 25.046875 50.828125 30.3125 53.40625 
Q 35.59375 56 41.40625 56 
Q 48.640625 56 52.609375 52.09375 
Q 56.59375 48.1875 56.59375 41.109375 
Q 56.59375 39.359375 56.375 37.359375 
Q 56.15625 35.359375 55.71875 33.015625 
z
" id="DejaVuSans-Oblique-110"/>
       <path d="M 31 75.875 
Q 24.46875 64.65625 21.28125 53.65625 
Q 18.109375 42.671875 18.109375 31.390625 
Q 18.109375 20.125 21.3125 9.0625 
Q 24.515625 -2 31 -13.1875 
L 23.1875 -13.1875 
Q 15.875 -1.703125 12.234375 9.375 
Q 8.59375 20.453125 8.59375 31.390625 
Q 8.59375 42.28125 12.203125 53.3125 
Q 15.828125 64.359375 23.1875 75.875 
z
" id="DejaVuSans-40"/>
       <path d="M 18.3125 75.984375 
L 27.296875 75.984375 
L 18.703125 31.6875 
L 49.515625 54.6875 
L 61.1875 54.6875 
L 26.8125 28.515625 
L 51.90625 0 
L 41.015625 0 
L 17.671875 26.703125 
L 12.5 0 
L 3.515625 0 
z
" id="DejaVuSans-Oblique-107"/>
       <path d="M 8.015625 75.875 
L 15.828125 75.875 
Q 23.140625 64.359375 26.78125 53.3125 
Q 30.421875 42.28125 30.421875 31.390625 
Q 30.421875 20.453125 26.78125 9.375 
Q 23.140625 -1.703125 15.828125 -13.1875 
L 8.015625 -13.1875 
Q 14.5 -2 17.703125 9.0625 
Q 20.90625 20.125 20.90625 31.390625 
Q 20.90625 42.671875 17.703125 53.65625 
Q 14.5 64.65625 8.015625 75.875 
z
" id="DejaVuSans-41"/>
       <path d="M 9.8125 72.90625 
L 51.703125 72.90625 
L 51.703125 64.59375 
L 19.671875 64.59375 
L 19.671875 43.109375 
L 48.578125 43.109375 
L 48.578125 34.8125 
L 19.671875 34.8125 
L 19.671875 0 
L 9.8125 0 
z
" id="DejaVuSans-70"/>
       <path id="DejaVuSans-32"/>
       <path d="M 56.203125 29.59375 
L 56.203125 25.203125 
L 14.890625 25.203125 
Q 15.484375 15.921875 20.484375 11.0625 
Q 25.484375 6.203125 34.421875 6.203125 
Q 39.59375 6.203125 44.453125 7.46875 
Q 49.3125 8.734375 54.109375 11.28125 
L 54.109375 2.78125 
Q 49.265625 0.734375 44.1875 -0.34375 
Q 39.109375 -1.421875 33.890625 -1.421875 
Q 20.796875 -1.421875 13.15625 6.1875 
Q 5.515625 13.8125 5.515625 26.8125 
Q 5.515625 40.234375 12.765625 48.109375 
Q 20.015625 56 32.328125 56 
Q 43.359375 56 49.78125 48.890625 
Q 56.203125 41.796875 56.203125 29.59375 
z
M 47.21875 32.234375 
Q 47.125 39.59375 43.09375 43.984375 
Q 39.0625 48.390625 32.421875 48.390625 
Q 24.90625 48.390625 20.390625 44.140625 
Q 15.875 39.890625 15.1875 32.171875 
z
" id="DejaVuSans-101"/>
       <path d="M 28.609375 0 
L 0.78125 72.90625 
L 11.078125 72.90625 
L 34.1875 11.53125 
L 57.328125 72.90625 
L 67.578125 72.90625 
L 39.796875 0 
z
" id="DejaVuSans-86"/>
      </defs>
      <use transform="translate(0 0.015625)" xlink:href="#DejaVuSans-Oblique-949"/>
      <use transform="translate(54.052734 -16.390625)scale(0.7)" xlink:href="#DejaVuSans-Oblique-110"/>
      <use transform="translate(101.152344 0.015625)" xlink:href="#DejaVuSans-40"/>
      <use transform="translate(140.166016 0.015625)" xlink:href="#DejaVuSans-Oblique-107"/>
      <use transform="translate(198.076172 0.015625)" xlink:href="#DejaVuSans-41"/>
      <use transform="translate(256.572266 0.015625)" xlink:href="#DejaVuSans-8722"/>
      <use transform="translate(359.84375 0.015625)" xlink:href="#DejaVuSans-Oblique-949"/>
      <use transform="translate(413.896484 -16.390625)scale(0.7)" xlink:href="#DejaVuSans-70"/>
      <use transform="translate(456.894531 0.015625)" xlink:href="#DejaVuSans-32"/>
      <use transform="translate(488.681641 0.015625)" xlink:href="#DejaVuSans-40"/>
      <use transform="translate(527.695312 0.015625)" xlink:href="#DejaVuSans-101"/>
      <use transform="translate(589.21875 0.015625)" xlink:href="#DejaVuSans-86"/>
      <use transform="translate(657.626953 0.015625)" xlink:href="#DejaVuSans-41"/>
     </g>
    </g>
   </g>
   <g id="matplotlib.axis_2">
    <g id="ytick_1">
     <g id="line2d_10">
      <defs>
       <path d="M 0 0 
L -3.5 0 
" id="m8814172782" style="stroke:#000000;stroke-width:0.8;"/>
      </defs>
      <g>
       <use style="stroke:#000000;stroke-width:0.8;" x="52.04" xlink:href="#m8814172782" y="311.128"/>
      </g>
     </g>
     <g id="text_11">
      <!-- 0.0 -->
      <g transform="translate(29.136875 314.927219)scale(0.1 -0.1)">
       <defs>
        <path d="M 10.6875 12.40625 
L 21 12.40625 
L 21 0 
L 10.6875 0 
z
" id="DejaVuSans-46"/>
       </defs>
       <use xlink:href="#DejaVuSans-48"/>
       <use x="63.623047" xlink:href="#DejaVuSans-46"/>
       <use x="95.410156" xlink:href="#DejaVuSans-48"/>
      </g>
     </g>
    </g>
    <g id="ytick_2">
     <g id="line2d_11">
      <g>
       <use style="stroke:#000000;stroke-width:0.8;" x="52.04" xlink:href="#m8814172782" y="263.156789"/>
      </g>
     </g>
     <g id="text_12">
      <!-- 0.5 -->
      <g transform="translate(29.136875 266.956008)scale(0.1 -0.1)">
       <defs>
        <path d="M 10.796875 72.90625 
L 49.515625 72.90625 
L 49.515625 64.59375 
L 19.828125 64.59375 
L 19.828125 46.734375 
Q 21.96875 47.46875 24.109375 47.828125 
Q 26.265625 48.1875 28.421875 48.1875 
Q 40.625 48.1875 47.75 41.5 
Q 54.890625 34.8125 54.890625 23.390625 
Q 54.890625 11.625 47.5625 5.09375 
Q 40.234375 -1.421875 26.90625 -1.421875 
Q 22.3125 -1.421875 17.546875 -0.640625 
Q 12.796875 0.140625 7.71875 1.703125 
L 7.71875 11.625 
Q 12.109375 9.234375 16.796875 8.0625 
Q 21.484375 6.890625 26.703125 6.890625 
Q 35.15625 6.890625 40.078125 11.328125 
Q 45.015625 15.765625 45.015625 23.390625 
Q 45.015625 31 40.078125 35.4375 
Q 35.15625 39.890625 26.703125 39.890625 
Q 22.75 39.890625 18.8125 39.015625 
Q 14.890625 38.140625 10.796875 36.28125 
z
" id="DejaVuSans-53"/>
       </defs>
       <use xlink:href="#DejaVuSans-48"/>
       <use x="63.623047" xlink:href="#DejaVuSans-46"/>
       <use x="95.410156" xlink:href="#DejaVuSans-53"/>
      </g>
     </g>
    </g>
    <g id="ytick_3">
     <g id="line2d_12">
      <g>
       <use style="stroke:#000000;stroke-width:0.8;" x="52.04" xlink:href="#m8814172782" y="215.185579"/>
      </g>
     </g>
     <g id="text_13">
      <!-- 1.0 -->
      <g transform="translate(29.136875 218.984798)scale(0.1 -0.1)">
       <defs>
        <path d="M 12.40625 8.296875 
L 28.515625 8.296875 
L 28.515625 63.921875 
L 10.984375 60.40625 
L 10.984375 69.390625 
L 28.421875 72.90625 
L 38.28125 72.90625 
L 38.28125 8.296875 
L 54.390625 8.296875 
L 54.390625 0 
L 12.40625 0 
z
" id="DejaVuSans-49"/>
       </defs>
       <use xlink:href="#DejaVuSans-49"/>
       <use x="63.623047" xlink:href="#DejaVuSans-46"/>
       <use x="95.410156" xlink:href="#DejaVuSans-48"/>
      </g>
     </g>
    </g>
    <g id="ytick_4">
     <g id="line2d_13">
      <g>
       <use style="stroke:#000000;stroke-width:0.8;" x="52.04" xlink:href="#m8814172782" y="167.214368"/>
      </g>
     </g>
     <g id="text_14">
      <!-- 1.5 -->
      <g transform="translate(29.136875 171.013587)scale(0.1 -0.1)">
       <use xlink:href="#DejaVuSans-49"/>
       <use x="63.623047" xlink:href="#DejaVuSans-46"/>
       <use x="95.410156" xlink:href="#DejaVuSans-53"/>
      </g>
     </g>
    </g>
    <g id="ytick_5">
     <g id="line2d_14">
      <g>
       <use style="stroke:#000000;stroke-width:0.8;" x="52.04" xlink:href="#m8814172782" y="119.243158"/>
      </g>
     </g>
     <g id="text_15">
      <!-- 2.0 -->
      <g transform="translate(29.136875 123.042376)scale(0.1 -0.1)">
       <use xlink:href="#DejaVuSans-50"/>
       <use x="63.623047" xlink:href="#DejaVuSans-46"/>
       <use x="95.410156" xlink:href="#DejaVuSans-48"/>
      </g>
     </g>
    </g>
    <g id="ytick_6">
     <g id="line2d_15">
      <g>
       <use style="stroke:#000000;stroke-width:0.8;" x="52.04" xlink:href="#m8814172782" y="71.271947"/>
      </g>
     </g>
     <g id="text_16">
      <!-- 2.5 -->
      <g transform="translate(29.136875 75.071166)scale(0.1 -0.1)">
       <use xlink:href="#DejaVuSans-50"/>
       <use x="63.623047" xlink:href="#DejaVuSans-46"/>
       <use x="95.410156" xlink:href="#DejaVuSans-53"/>
      </g>
     </g>
    </g>
    <g id="ytick_7">
     <g id="line2d_16">
      <g>
       <use style="stroke:#000000;stroke-width:0.8;" x="52.04" xlink:href="#m8814172782" y="23.300736"/>
      </g>
     </g>
     <g id="text_17">
      <!-- 3.0 -->
      <g transform="translate(29.136875 27.099955)scale(0.1 -0.1)">
       <defs>
        <path d="M 40.578125 39.3125 
Q 47.65625 37.796875 51.625 33 
Q 55.609375 28.21875 55.609375 21.1875 
Q 55.609375 10.40625 48.1875 4.484375 
Q 40.765625 -1.421875 27.09375 -1.421875 
Q 22.515625 -1.421875 17.65625 -0.515625 
Q 12.796875 0.390625 7.625 2.203125 
L 7.625 11.71875 
Q 11.71875 9.328125 16.59375 8.109375 
Q 21.484375 6.890625 26.8125 6.890625 
Q 36.078125 6.890625 40.9375 10.546875 
Q 45.796875 14.203125 45.796875 21.1875 
Q 45.796875 27.640625 41.28125 31.265625 
Q 36.765625 34.90625 28.71875 34.90625 
L 20.21875 34.90625 
L 20.21875 43.015625 
L 29.109375 43.015625 
Q 36.375 43.015625 40.234375 45.921875 
Q 44.09375 48.828125 44.09375 54.296875 
Q 44.09375 59.90625 40.109375 62.90625 
Q 36.140625 65.921875 28.71875 65.921875 
Q 24.65625 65.921875 20.015625 65.03125 
Q 15.375 64.15625 9.8125 62.3125 
L 9.8125 71.09375 
Q 15.4375 72.65625 20.34375 73.4375 
Q 25.25 74.21875 29.59375 74.21875 
Q 40.828125 74.21875 47.359375 69.109375 
Q 53.90625 64.015625 53.90625 55.328125 
Q 53.90625 49.265625 50.4375 45.09375 
Q 46.96875 40.921875 40.578125 39.3125 
z
" id="DejaVuSans-51"/>
       </defs>
       <use xlink:href="#DejaVuSans-51"/>
       <use x="63.623047" xlink:href="#DejaVuSans-46"/>
       <use x="95.410156" xlink:href="#DejaVuSans-48"/>
      </g>
     </g>
    </g>
    <g id="text_18">
     <!-- Density of States (1/eV) -->
     <g transform="translate(22.017344 250.512828)rotate(-90)scale(0.15 -0.15)">
      <defs>
       <path d="M 19.671875 64.796875 
L 19.671875 8.109375 
L 31.59375 8.109375 
Q 46.6875 8.109375 53.6875 14.9375 
Q 60.6875 21.78125 60.6875 36.53125 
Q 60.6875 51.171875 53.6875 57.984375 
Q 46.6875 64.796875 31.59375 64.796875 
z
M 9.8125 72.90625 
L 30.078125 72.90625 
Q 51.265625 72.90625 61.171875 64.09375 
Q 71.09375 55.28125 71.09375 36.53125 
Q 71.09375 17.671875 61.125 8.828125 
Q 51.171875 0 30.078125 0 
L 9.8125 0 
z
" id="DejaVuSans-68"/>
       <path d="M 54.890625 33.015625 
L 54.890625 0 
L 45.90625 0 
L 45.90625 32.71875 
Q 45.90625 40.484375 42.875 44.328125 
Q 39.84375 48.1875 33.796875 48.1875 
Q 26.515625 48.1875 22.3125 43.546875 
Q 18.109375 38.921875 18.109375 30.90625 
L 18.109375 0 
L 9.078125 0 
L 9.078125 54.6875 
L 18.109375 54.6875 
L 18.109375 46.1875 
Q 21.34375 51.125 25.703125 53.5625 
Q 30.078125 56 35.796875 56 
Q 45.21875 56 50.046875 50.171875 
Q 54.890625 44.34375 54.890625 33.015625 
z
" id="DejaVuSans-110"/>
       <path d="M 44.28125 53.078125 
L 44.28125 44.578125 
Q 40.484375 46.53125 36.375 47.5 
Q 32.28125 48.484375 27.875 48.484375 
Q 21.1875 48.484375 17.84375 46.4375 
Q 14.5 44.390625 14.5 40.28125 
Q 14.5 37.15625 16.890625 35.375 
Q 19.28125 33.59375 26.515625 31.984375 
L 29.59375 31.296875 
Q 39.15625 29.25 43.1875 25.515625 
Q 47.21875 21.78125 47.21875 15.09375 
Q 47.21875 7.46875 41.1875 3.015625 
Q 35.15625 -1.421875 24.609375 -1.421875 
Q 20.21875 -1.421875 15.453125 -0.5625 
Q 10.6875 0.296875 5.421875 2 
L 5.421875 11.28125 
Q 10.40625 8.6875 15.234375 7.390625 
Q 20.0625 6.109375 24.8125 6.109375 
Q 31.15625 6.109375 34.5625 8.28125 
Q 37.984375 10.453125 37.984375 14.40625 
Q 37.984375 18.0625 35.515625 20.015625 
Q 33.0625 21.96875 24.703125 23.78125 
L 21.578125 24.515625 
Q 13.234375 26.265625 9.515625 29.90625 
Q 5.8125 33.546875 5.8125 39.890625 
Q 5.8125 47.609375 11.28125 51.796875 
Q 16.75 56 26.8125 56 
Q 31.78125 56 36.171875 55.265625 
Q 40.578125 54.546875 44.28125 53.078125 
z
" id="DejaVuSans-115"/>
       <path d="M 9.421875 54.6875 
L 18.40625 54.6875 
L 18.40625 0 
L 9.421875 0 
z
M 9.421875 75.984375 
L 18.40625 75.984375 
L 18.40625 64.59375 
L 9.421875 64.59375 
z
" id="DejaVuSans-105"/>
       <path d="M 18.3125 70.21875 
L 18.3125 54.6875 
L 36.8125 54.6875 
L 36.8125 47.703125 
L 18.3125 47.703125 
L 18.3125 18.015625 
Q 18.3125 11.328125 20.140625 9.421875 
Q 21.96875 7.515625 27.59375 7.515625 
L 36.8125 7.515625 
L 36.8125 0 
L 27.59375 0 
Q 17.1875 0 13.234375 3.875 
Q 9.28125 7.765625 9.28125 18.015625 
L 9.28125 47.703125 
L 2.6875 47.703125 
L 2.6875 54.6875 
L 9.28125 54.6875 
L 9.28125 70.21875 
z
" id="DejaVuSans-116"/>
       <path d="M 32.171875 -5.078125 
Q 28.375 -14.84375 24.75 -17.8125 
Q 21.140625 -20.796875 15.09375 -20.796875 
L 7.90625 -20.796875 
L 7.90625 -13.28125 
L 13.1875 -13.28125 
Q 16.890625 -13.28125 18.9375 -11.515625 
Q 21 -9.765625 23.484375 -3.21875 
L 25.09375 0.875 
L 2.984375 54.6875 
L 12.5 54.6875 
L 29.59375 11.921875 
L 46.6875 54.6875 
L 56.203125 54.6875 
z
" id="DejaVuSans-121"/>
       <path d="M 30.609375 48.390625 
Q 23.390625 48.390625 19.1875 42.75 
Q 14.984375 37.109375 14.984375 27.296875 
Q 14.984375 17.484375 19.15625 11.84375 
Q 23.34375 6.203125 30.609375 6.203125 
Q 37.796875 6.203125 41.984375 11.859375 
Q 46.1875 17.53125 46.1875 27.296875 
Q 46.1875 37.015625 41.984375 42.703125 
Q 37.796875 48.390625 30.609375 48.390625 
z
M 30.609375 56 
Q 42.328125 56 49.015625 48.375 
Q 55.71875 40.765625 55.71875 27.296875 
Q 55.71875 13.875 49.015625 6.21875 
Q 42.328125 -1.421875 30.609375 -1.421875 
Q 18.84375 -1.421875 12.171875 6.21875 
Q 5.515625 13.875 5.515625 27.296875 
Q 5.515625 40.765625 12.171875 48.375 
Q 18.84375 56 30.609375 56 
z
" id="DejaVuSans-111"/>
       <path d="M 37.109375 75.984375 
L 37.109375 68.5 
L 28.515625 68.5 
Q 23.6875 68.5 21.796875 66.546875 
Q 19.921875 64.59375 19.921875 59.515625 
L 19.921875 54.6875 
L 34.71875 54.6875 
L 34.71875 47.703125 
L 19.921875 47.703125 
L 19.921875 0 
L 10.890625 0 
L 10.890625 47.703125 
L 2.296875 47.703125 
L 2.296875 54.6875 
L 10.890625 54.6875 
L 10.890625 58.5 
Q 10.890625 67.625 15.140625 71.796875 
Q 19.390625 75.984375 28.609375 75.984375 
z
" id="DejaVuSans-102"/>
       <path d="M 53.515625 70.515625 
L 53.515625 60.890625 
Q 47.90625 63.578125 42.921875 64.890625 
Q 37.9375 66.21875 33.296875 66.21875 
Q 25.25 66.21875 20.875 63.09375 
Q 16.5 59.96875 16.5 54.203125 
Q 16.5 49.359375 19.40625 46.890625 
Q 22.3125 44.4375 30.421875 42.921875 
L 36.375 41.703125 
Q 47.40625 39.59375 52.65625 34.296875 
Q 57.90625 29 57.90625 20.125 
Q 57.90625 9.515625 50.796875 4.046875 
Q 43.703125 -1.421875 29.984375 -1.421875 
Q 24.8125 -1.421875 18.96875 -0.25 
Q 13.140625 0.921875 6.890625 3.21875 
L 6.890625 13.375 
Q 12.890625 10.015625 18.65625 8.296875 
Q 24.421875 6.59375 29.984375 6.59375 
Q 38.421875 6.59375 43.015625 9.90625 
Q 47.609375 13.234375 47.609375 19.390625 
Q 47.609375 24.75 44.3125 27.78125 
Q 41.015625 30.8125 33.5 32.328125 
L 27.484375 33.5 
Q 16.453125 35.6875 11.515625 40.375 
Q 6.59375 45.0625 6.59375 53.421875 
Q 6.59375 63.09375 13.40625 68.65625 
Q 20.21875 74.21875 32.171875 74.21875 
Q 37.3125 74.21875 42.625 73.28125 
Q 47.953125 72.359375 53.515625 70.515625 
z
" id="DejaVuSans-83"/>
       <path d="M 34.28125 27.484375 
Q 23.390625 27.484375 19.1875 25 
Q 14.984375 22.515625 14.984375 16.5 
Q 14.984375 11.71875 18.140625 8.90625 
Q 21.296875 6.109375 26.703125 6.109375 
Q 34.1875 6.109375 38.703125 11.40625 
Q 43.21875 16.703125 43.21875 25.484375 
L 43.21875 27.484375 
z
M 52.203125 31.203125 
L 52.203125 0 
L 43.21875 0 
L 43.21875 8.296875 
Q 40.140625 3.328125 35.546875 0.953125 
Q 30.953125 -1.421875 24.3125 -1.421875 
Q 15.921875 -1.421875 10.953125 3.296875 
Q 6 8.015625 6 15.921875 
Q 6 25.140625 12.171875 29.828125 
Q 18.359375 34.515625 30.609375 34.515625 
L 43.21875 34.515625 
L 43.21875 35.40625 
Q 43.21875 41.609375 39.140625 45 
Q 35.0625 48.390625 27.6875 48.390625 
Q 23 48.390625 18.546875 47.265625 
Q 14.109375 46.140625 10.015625 43.890625 
L 10.015625 52.203125 
Q 14.9375 54.109375 19.578125 55.046875 
Q 24.21875 56 28.609375 56 
Q 40.484375 56 46.34375 49.84375 
Q 52.203125 43.703125 52.203125 31.203125 
z
" id="DejaVuSans-97"/>
       <path d="M 25.390625 72.90625 
L 33.6875 72.90625 
L 8.296875 -9.28125 
L 0 -9.28125 
z
" id="DejaVuSans-47"/>
      </defs>
      <use xlink:href="#DejaVuSans-68"/>
      <use x="77.001953" xlink:href="#DejaVuSans-101"/>
      <use x="138.525391" xlink:href="#DejaVuSans-110"/>
      <use x="201.904297" xlink:href="#DejaVuSans-115"/>
      <use x="254.003906" xlink:href="#DejaVuSans-105"/>
      <use x="281.787109" xlink:href="#DejaVuSans-116"/>
      <use x="320.996094" xlink:href="#DejaVuSans-121"/>
      <use x="380.175781" xlink:href="#DejaVuSans-32"/>
      <use x="411.962891" xlink:href="#DejaVuSans-111"/>
      <use x="473.144531" xlink:href="#DejaVuSans-102"/>
      <use x="508.349609" xlink:href="#DejaVuSans-32"/>
      <use x="540.136719" xlink:href="#DejaVuSans-83"/>
      <use x="603.613281" xlink:href="#DejaVuSans-116"/>
      <use x="642.822266" xlink:href="#DejaVuSans-97"/>
      <use x="704.101562" xlink:href="#DejaVuSans-116"/>
      <use x="743.310547" xlink:href="#DejaVuSans-101"/>
      <use x="804.833984" xlink:href="#DejaVuSans-115"/>
      <use x="856.933594" xlink:href="#DejaVuSans-32"/>
      <use x="888.720703" xlink:href="#DejaVuSans-40"/>
      <use x="927.734375" xlink:href="#DejaVuSans-49"/>
      <use x="991.357422" xlink:href="#DejaVuSans-47"/>
      <use x="1025.048828" xlink:href="#DejaVuSans-101"/>
      <use x="1086.572266" xlink:href="#DejaVuSans-86"/>
      <use x="1154.980469" xlink:href="#DejaVuSans-41"/>
     </g>
    </g>
   </g>
   <g id="line2d_17">
    <path clip-path="url(#p4e0ca895d5)" d="M 51.946236 134.025593 
L 52.136041 133.657604 
L 52.51565 130.806539 
L 53.274868 123.565785 
L 53.464672 123.093034 
L 53.654477 123.616224 
L 53.844281 125.24709 
L 54.22389 131.83281 
L 54.793304 147.894759 
L 55.552522 170.369569 
L 55.932131 177.88342 
L 56.31174 181.725356 
L 56.501545 182.287335 
L 56.691349 182.036887 
L 56.881154 181.078731 
L 57.260763 177.513809 
L 58.019981 166.634991 
L 58.779199 152.731457 
L 59.538418 134.324695 
L 62.385486 51.750621 
L 63.144704 28.136331 
L 63.334508 25.496718 
L 63.524313 25.101333 
L 63.714117 27.286968 
L 64.093726 39.991718 
L 64.473335 63.061637 
L 66.371381 205.47087 
L 66.940794 224.793227 
L 67.320404 231.755871 
L 67.700013 235.528429 
L 68.079622 237.165325 
L 68.269426 237.412433 
L 68.459231 237.359742 
L 68.649035 237.048938 
L 69.028644 235.776342 
L 69.598058 232.656919 
L 70.736885 225.9727 
L 71.116494 224.970371 
L 71.306299 224.835545 
L 71.496103 224.944184 
L 71.875712 225.806895 
L 72.445126 228.140954 
L 73.204344 231.314567 
L 73.583953 232.29986 
L 73.963562 232.698382 
L 74.153367 232.667391 
L 74.532976 232.168369 
L 75.10239 230.558383 
L 75.861608 228.134372 
L 76.241217 227.669994 
L 76.431021 227.810899 
L 76.620826 228.258496 
L 77.000435 230.17524 
L 77.380044 233.463781 
L 78.139262 243.063514 
L 79.278089 257.775146 
L 79.847503 262.603953 
L 80.416917 265.476775 
L 80.796526 266.535413 
L 81.176135 267.112779 
L 81.555744 267.362771 
L 81.935353 267.399566 
L 82.504767 267.199928 
L 83.07418 266.756735 
L 83.643594 266.010261 
L 84.213007 264.809601 
L 84.782421 263.015979 
L 86.680466 256.031858 
L 87.060075 255.749367 
L 87.24988 255.825555 
L 87.629489 256.323464 
L 88.578512 257.93863 
L 88.768316 257.993127 
L 88.958121 257.867674 
L 89.147925 257.533237 
L 89.527534 256.162327 
L 89.907144 253.834706 
L 90.666362 247.114593 
L 91.42558 240.703628 
L 91.805189 238.893878 
L 91.994993 238.474324 
L 92.184798 238.384808 
L 92.374603 238.607901 
L 92.754212 239.850096 
L 93.323625 242.961387 
L 94.462452 249.281208 
L 95.031866 251.394264 
L 95.60128 252.847509 
L 96.360498 254.102923 
L 97.119716 254.885758 
L 97.878934 255.370092 
L 98.827957 255.674341 
L 99.776979 255.70884 
L 100.726002 255.502779 
L 101.675025 255.059907 
L 102.624048 254.363253 
L 103.57307 253.373102 
L 104.522093 252.018183 
L 105.281311 250.590462 
L 106.040529 248.736651 
L 106.799747 246.203775 
L 107.369161 243.436874 
L 107.74877 240.758293 
L 108.128379 236.866947 
L 108.507988 230.998463 
L 108.887597 222.134747 
L 109.267206 209.193517 
L 109.83662 180.821804 
L 111.165252 101.754275 
L 111.544861 93.449393 
L 111.734665 94.076323 
L 111.92447 98.068167 
L 112.304079 115.485296 
L 112.873493 158.283791 
L 113.822515 232.718284 
L 114.391929 260.989707 
L 114.771538 272.123212 
L 115.151147 278.631484 
L 115.530756 282.053334 
L 115.910365 283.646326 
L 116.289974 284.263192 
L 116.669583 284.4018 
L 117.238997 284.227275 
L 117.998215 283.682102 
L 118.567629 283.061175 
L 119.137042 282.138965 
L 119.706456 280.705681 
L 120.27587 278.506467 
L 121.035088 274.246705 
L 121.98411 268.544694 
L 122.363719 267.173205 
L 122.553524 266.838424 
L 122.743329 266.763398 
L 122.933133 266.950198 
L 123.312742 268.045946 
L 123.882156 270.95291 
L 124.831178 275.977116 
L 125.210788 277.122833 
L 125.400592 277.414455 
L 125.590397 277.501272 
L 125.780201 277.374558 
L 126.15981 276.462544 
L 126.539419 274.688738 
L 127.108833 270.713815 
L 128.057856 263.67474 
L 128.437465 262.206968 
L 128.627269 261.974202 
L 128.817074 262.102624 
L 129.006878 262.58783 
L 129.386487 264.517212 
L 129.955901 269.040223 
L 131.094728 278.388321 
L 131.664142 281.562992 
L 132.233555 283.739986 
L 132.992774 285.64631 
L 133.751992 286.939697 
L 134.701014 288.121932 
L 135.839842 289.182089 
L 137.168473 290.112496 
L 138.307301 290.666302 
L 138.876714 290.706772 
L 139.256323 290.478095 
L 139.635932 289.849293 
L 140.015541 288.568667 
L 140.395151 286.337397 
L 140.77476 282.885972 
L 141.344173 275.228307 
L 142.862609 250.864607 
L 143.242219 247.832628 
L 143.432023 247.092192 
L 143.621828 246.848002 
L 143.811632 247.054536 
L 144.191241 248.55604 
L 144.950459 253.796707 
L 145.899482 259.971207 
L 146.6587 263.212302 
L 147.417918 265.308611 
L 148.177137 266.731357 
L 148.936355 267.748443 
L 149.885377 268.64402 
L 150.8344 269.236914 
L 151.783423 269.590753 
L 152.732445 269.735864 
L 153.681468 269.680112 
L 154.630491 269.410347 
L 155.579514 268.885632 
L 156.338732 268.22263 
L 157.09795 267.237013 
L 157.667363 266.167258 
L 158.236777 264.665679 
L 158.806191 262.602475 
L 160.324627 256.189051 
L 160.514431 255.86101 
L 160.704236 255.789317 
L 160.894041 256.010524 
L 161.27365 257.410569 
L 161.653259 260.045944 
L 162.602281 269.524128 
L 163.171695 274.336681 
L 163.551304 276.21881 
L 163.741109 276.689911 
L 163.930913 276.847254 
L 164.120718 276.705222 
L 164.500327 275.630159 
L 165.06974 272.657788 
L 165.828959 268.491893 
L 166.208568 267.379262 
L 166.398372 267.218696 
L 166.588177 267.345307 
L 166.967786 268.42908 
L 167.537199 271.619515 
L 168.486222 277.576891 
L 168.865831 279.137529 
L 169.24544 279.982793 
L 169.435245 280.129427 
L 169.625049 280.093559 
L 169.814854 279.876568 
L 170.194463 278.898257 
L 170.574072 277.180103 
L 171.143486 273.213076 
L 172.851726 258.370274 
L 173.231336 257.325738 
L 173.42114 257.376939 
L 173.610945 257.802612 
L 173.990554 259.639472 
L 174.559967 264.008608 
L 175.50899 271.587448 
L 176.078404 274.784566 
L 176.647817 276.877839 
L 177.217231 278.1912 
L 177.786644 279.029429 
L 178.545863 279.726219 
L 179.305081 280.13072 
L 180.254103 280.352157 
L 181.203126 280.310646 
L 182.152149 280.009428 
L 182.911367 279.552391 
L 183.670585 278.842722 
L 184.239999 278.07179 
L 184.809412 276.975779 
L 185.378826 275.332427 
L 185.94824 272.754812 
L 186.517653 268.739475 
L 187.087067 263.000663 
L 188.225894 250.057796 
L 188.605503 247.856758 
L 188.795308 247.596495 
L 188.985112 247.974492 
L 189.174917 249.008182 
L 189.554526 252.927819 
L 190.123939 262.16175 
L 191.072962 278.481177 
L 191.642376 285.04182 
L 192.211789 288.773958 
L 192.591398 290.1259 
L 192.971007 290.915833 
L 193.540421 291.527024 
L 194.299639 291.902288 
L 195.628271 292.248632 
L 198.09573 292.636474 
L 199.993775 292.784662 
L 200.563189 292.655142 
L 200.942798 292.358607 
L 201.322407 291.706368 
L 201.702016 290.439422 
L 202.081625 288.222574 
L 202.461234 284.708541 
L 203.030648 276.55526 
L 203.979671 257.487027 
L 204.549084 247.203845 
L 204.928693 242.776645 
L 205.308302 240.832805 
L 205.498107 240.773768 
L 205.687911 241.253404 
L 206.067521 243.497029 
L 206.826739 250.523367 
L 207.775761 258.569572 
L 208.534979 262.803684 
L 209.294198 265.56594 
L 210.053416 267.441599 
L 210.812634 268.752822 
L 211.571852 269.63951 
L 212.141266 270.037052 
L 212.710679 270.140337 
L 213.090288 269.962046 
L 213.469897 269.472179 
L 213.849507 268.519553 
L 214.229116 266.915667 
L 214.608725 264.473685 
L 215.178138 259.023751 
L 216.127161 246.562959 
L 216.886379 237.767718 
L 217.265988 235.146566 
L 217.645597 234.052159 
L 217.835402 234.093407 
L 218.025206 234.520911 
L 218.404815 236.494444 
L 218.784425 239.867024 
L 219.353838 247.149535 
L 221.062079 272.174367 
L 221.631493 276.70568 
L 222.011102 278.188558 
L 222.200906 278.511553 
L 222.390711 278.586778 
L 222.580515 278.442052 
L 222.960124 277.619506 
L 224.478561 272.87358 
L 224.668365 272.724413 
L 224.85817 272.745507 
L 225.237779 273.276514 
L 225.807192 275.008755 
L 227.325629 280.400852 
L 227.895042 281.668836 
L 228.464456 282.445998 
L 228.844065 282.64748 
L 229.223674 282.481584 
L 229.603283 281.767898 
L 229.982892 280.266013 
L 230.362501 277.725071 
L 230.931915 271.635675 
L 231.691133 260.074362 
L 232.450351 248.792705 
L 232.82996 245.064576 
L 233.209569 243.18195 
L 233.399374 242.934566 
L 233.589178 243.104777 
L 233.968788 244.464249 
L 234.538201 248.007903 
L 235.487224 254.086921 
L 236.056637 256.610224 
L 236.626051 258.114044 
L 237.00566 258.49404 
L 237.195465 258.455482 
L 237.385269 258.231655 
L 237.764878 257.09287 
L 238.144487 254.766032 
L 238.524096 250.932754 
L 239.09351 241.971755 
L 239.852728 225.124268 
L 240.801751 203.7757 
L 241.371164 194.77164 
L 241.940578 189.358273 
L 242.320187 187.583626 
L 242.509992 187.233092 
L 242.699796 187.254685 
L 242.889601 187.667614 
L 243.26921 189.749068 
L 243.648819 193.574291 
L 244.218233 202.226927 
L 245.546864 224.338625 
L 245.926473 227.511766 
L 246.306082 228.653836 
L 246.495887 228.584896 
L 246.875496 227.640919 
L 247.44491 225.931456 
L 247.634714 225.6908 
L 247.824519 225.724577 
L 248.014323 226.056275 
L 248.393932 227.567337 
L 248.963346 231.259117 
L 249.912369 237.569718 
L 250.861391 242.171977 
L 252.000219 246.740386 
L 252.379828 247.651727 
L 252.569632 247.8702 
L 252.759437 247.890015 
L 252.949241 247.681137 
L 253.32885 246.461045 
L 253.708459 243.996052 
L 254.088069 240.139507 
L 254.657482 231.816571 
L 256.175918 206.952969 
L 256.555527 204.365765 
L 256.745332 203.994252 
L 256.935137 204.234605 
L 257.124941 205.051284 
L 257.50455 208.163695 
L 258.263768 217.911312 
L 259.212791 230.167287 
L 259.972009 236.971986 
L 260.541423 240.344623 
L 261.110836 242.671706 
L 261.68025 244.295485 
L 262.249664 245.426983 
L 262.819077 246.167343 
L 263.388491 246.538894 
L 263.7681 246.572801 
L 264.147709 246.4366 
L 264.906927 245.815802 
L 265.476341 245.463572 
L 265.85595 245.588437 
L 266.235559 246.191174 
L 266.615168 247.357752 
L 267.184582 250.055093 
L 268.513213 256.980612 
L 269.082627 258.572029 
L 269.462236 259.047524 
L 269.841845 259.132116 
L 270.221454 258.900051 
L 270.601063 258.400817 
L 271.170477 257.146017 
L 271.73989 255.037977 
L 272.309304 251.508359 
L 272.878718 245.947434 
L 273.637936 235.574171 
L 274.397154 225.532019 
L 274.776763 222.737168 
L 274.966568 222.215708 
L 275.156372 222.329549 
L 275.346177 223.069313 
L 275.725786 226.192172 
L 277.244222 243.282692 
L 277.623831 245.175275 
L 278.572854 248.275294 
L 278.952463 250.691858 
L 279.521877 256.383146 
L 280.470899 267.129424 
L 280.850508 269.5371 
L 281.040313 269.960915 
L 281.230117 269.773255 
L 281.419922 268.923718 
L 281.799531 265.11578 
L 282.17914 258.459101 
L 282.748554 243.688942 
L 284.456795 193.023795 
L 284.836404 188.747213 
L 285.026208 188.338339 
L 285.216013 189.092397 
L 285.595622 193.779192 
L 286.165035 206.301114 
L 286.924254 223.795635 
L 287.303863 229.128185 
L 287.493667 230.462255 
L 287.683472 230.82965 
L 287.873276 230.22299 
L 288.252885 226.265554 
L 288.822299 215.19491 
L 289.771322 195.908063 
L 290.150931 192.324401 
L 290.340735 191.748432 
L 290.53054 191.902376 
L 290.910149 193.8006 
L 291.479562 197.495585 
L 291.669367 198.08474 
L 291.859171 198.051854 
L 292.048976 197.275294 
L 292.428585 193.243012 
L 292.808194 185.980073 
L 294.516435 146.396599 
L 294.70624 145.705016 
L 294.896044 146.332528 
L 295.085849 148.265837 
L 295.465458 155.649498 
L 296.224676 179.01165 
L 297.173699 206.97864 
L 297.743112 217.802787 
L 298.312526 224.435459 
L 298.881939 228.122482 
L 299.261548 229.324997 
L 299.451353 229.552315 
L 299.641158 229.50019 
L 299.830962 229.130731 
L 300.210571 227.242618 
L 300.59018 223.456572 
L 300.969789 217.405696 
L 301.539203 203.990561 
L 303.247444 157.243378 
L 303.627053 151.84057 
L 304.006662 148.767452 
L 304.386271 147.342456 
L 304.76588 146.750301 
L 305.145489 146.286516 
L 305.525098 145.454396 
L 305.904707 143.908293 
L 306.284316 141.325513 
L 306.663925 137.329309 
L 307.233339 127.958238 
L 308.182362 105.376751 
L 308.751775 94.477307 
L 308.94158 92.627278 
L 309.131384 91.968554 
L 309.321189 92.597207 
L 309.510993 94.539742 
L 309.890603 102.128726 
L 310.460016 120.519001 
L 313.11728 218.727261 
L 313.876498 239.828674 
L 314.445911 250.936638 
L 315.015325 257.689833 
L 315.394934 260.123184 
L 315.774543 261.337875 
L 316.154152 261.758841 
L 316.533761 261.776912 
L 317.29298 261.68815 
L 317.862393 261.960816 
L 318.811416 262.885811 
L 319.950243 263.911495 
L 322.417702 265.728854 
L 323.556529 267.193597 
L 324.315747 267.992238 
L 324.695356 268.07914 
L 325.074966 267.781922 
L 325.454575 266.958959 
L 325.834184 265.504421 
L 326.403597 262.127145 
L 328.111838 250.405484 
L 328.491447 249.382724 
L 328.681252 249.200483 
L 328.871056 249.222254 
L 329.250665 249.776971 
L 330.389493 252.555035 
L 330.579297 252.635931 
L 330.769102 252.453107 
L 330.958906 251.947392 
L 331.338515 249.74605 
L 331.718124 245.667335 
L 332.287538 235.837644 
L 333.805974 205.252678 
L 333.995779 203.843183 
L 334.185583 203.399319 
L 334.375388 203.935235 
L 334.754997 207.727832 
L 335.324411 218.237036 
L 336.273433 237.030853 
L 336.842847 243.710247 
L 337.222456 245.863059 
L 337.602065 246.633361 
L 337.79187 246.670301 
L 338.171479 246.377549 
L 338.930697 245.638741 
L 339.310306 245.541061 
L 340.069524 245.54958 
L 340.449133 245.200269 
L 340.828742 244.257336 
L 341.208351 242.512014 
L 341.777765 238.302222 
L 342.916592 228.296002 
L 343.296201 226.837559 
L 343.486006 226.826182 
L 343.67581 227.353255 
L 344.055419 230.05167 
L 344.435028 234.735371 
L 345.194247 247.726828 
L 346.143269 263.70456 
L 346.143269 263.70456 
" style="fill:none;stroke:#ff0000;stroke-linecap:square;stroke-width:2;"/>
   </g>
   <g id="patch_3">
    <path d="M 52.04 311.128 
L 52.04 10.8 
" style="fill:none;stroke:#000000;stroke-linecap:square;stroke-linejoin:miter;stroke-width:0.8;"/>
   </g>
   <g id="patch_4">
    <path d="M 346.005 311.128 
L 346.005 10.8 
" style="fill:none;stroke:#000000;stroke-linecap:square;stroke-linejoin:miter;stroke-width:0.8;"/>
   </g>
   <g id="patch_5">
    <path d="M 52.04 311.128 
L 346.005 311.128 
" style="fill:none;stroke:#000000;stroke-linecap:square;stroke-linejoin:miter;stroke-width:0.8;"/>
   </g>
   <g id="patch_6">
    <path d="M 52.04 10.8 
L 346.005 10.8 
" style="fill:none;stroke:#000000;stroke-linecap:square;stroke-linejoin:miter;stroke-width:0.8;"/>
   </g>
  </g>
 </g>
 <defs>
  <clipPath id="p4e0ca895d5">
   <rect height="300.328" width="293.965" x="52.04" y="10.8"/>
  </clipPath>
 </defs>
</svg>
