<?xml version="1.0" encoding="utf-8" standalone="no"?>
<!DOCTYPE svg PUBLIC "-//W3C//DTD SVG 1.1//EN"
  "http://www.w3.org/Graphics/SVG/1.1/DTD/svg11.dtd">
<!-- Created with matplotlib (https://matplotlib.org/) -->
<svg height="360pt" version="1.1" viewBox="0 0 576 360" width="576pt" xmlns="http://www.w3.org/2000/svg" xmlns:xlink="http://www.w3.org/1999/xlink">
 <metadata>
  <rdf:RDF xmlns:cc="http://creativecommons.org/ns#" xmlns:dc="http://purl.org/dc/elements/1.1/" xmlns:rdf="http://www.w3.org/1999/02/22-rdf-syntax-ns#">
   <cc:Work>
    <dc:type rdf:resource="http://purl.org/dc/dcmitype/StillImage"/>
    <dc:date>2021-01-10T07:11:03.961666</dc:date>
    <dc:format>image/svg+xml</dc:format>
    <dc:creator>
     <cc:Agent>
      <dc:title>Matplotlib v3.3.3, https://matplotlib.org/</dc:title>
     </cc:Agent>
    </dc:creator>
   </cc:Work>
  </rdf:RDF>
 </metadata>
 <defs>
  <style type="text/css">*{stroke-linecap:butt;stroke-linejoin:round;}</style>
 </defs>
 <g id="figure_1">
  <g id="patch_1">
   <path d="M 0 360 
L 576 360 
L 576 0 
L 0 0 
z
" style="fill:#ffffff;"/>
  </g>
  <g id="axes_1">
   <g id="patch_2">
    <path d="M 60.932 326.72 
L 561.06 326.72 
L 561.06 31.92 
L 60.932 31.92 
z
" style="fill:#ffffff;"/>
   </g>
   <g id="matplotlib.axis_1">
    <g id="xtick_1">
     <g id="line2d_1">
      <defs>
       <path d="M 0 0 
L 0 3.5 
" id="m14eabf1a5d" style="stroke:#000000;stroke-width:0.8;"/>
      </defs>
      <g>
       <use style="stroke:#000000;stroke-width:0.8;" x="60.932" xlink:href="#m14eabf1a5d" y="326.72"/>
      </g>
     </g>
     <g id="text_1">
      <!-- Γ -->
      <g transform="translate(56.753094 345.117656)scale(0.15 -0.15)">
       <defs>
        <path d="M 9.8125 0 
L 9.8125 72.90625 
L 55.171875 72.90625 
L 55.171875 64.59375 
L 19.671875 64.59375 
L 19.671875 0 
z
" id="DejaVuSans-915"/>
       </defs>
       <use xlink:href="#DejaVuSans-915"/>
      </g>
     </g>
    </g>
    <g id="xtick_2">
     <g id="line2d_2">
      <g>
       <use style="stroke:#000000;stroke-width:0.8;" x="129.118647" xlink:href="#m14eabf1a5d" y="326.72"/>
      </g>
     </g>
     <g id="text_2">
      <!-- K -->
      <g transform="translate(124.200288 345.117656)scale(0.15 -0.15)">
       <defs>
        <path d="M 9.8125 72.90625 
L 19.671875 72.90625 
L 19.671875 42.09375 
L 52.390625 72.90625 
L 65.09375 72.90625 
L 28.90625 38.921875 
L 67.671875 0 
L 54.6875 0 
L 19.671875 35.109375 
L 19.671875 0 
L 9.8125 0 
z
" id="DejaVuSans-75"/>
       </defs>
       <use xlink:href="#DejaVuSans-75"/>
      </g>
     </g>
    </g>
    <g id="xtick_3">
     <g id="line2d_3">
      <g>
       <use style="stroke:#000000;stroke-width:0.8;" x="163.21197" xlink:href="#m14eabf1a5d" y="326.72"/>
      </g>
     </g>
     <g id="text_3">
      <!-- M -->
      <g transform="translate(156.740877 345.117656)scale(0.15 -0.15)">
       <defs>
        <path d="M 9.8125 72.90625 
L 24.515625 72.90625 
L 43.109375 23.296875 
L 61.8125 72.90625 
L 76.515625 72.90625 
L 76.515625 0 
L 66.890625 0 
L 66.890625 64.015625 
L 48.09375 14.015625 
L 38.1875 14.015625 
L 19.390625 64.015625 
L 19.390625 0 
L 9.8125 0 
z
" id="DejaVuSans-77"/>
       </defs>
       <use xlink:href="#DejaVuSans-77"/>
      </g>
     </g>
    </g>
    <g id="xtick_4">
     <g id="line2d_4">
      <g>
       <use style="stroke:#000000;stroke-width:0.8;" x="222.263339" xlink:href="#m14eabf1a5d" y="326.72"/>
      </g>
     </g>
     <g id="text_4">
      <!-- Γ -->
      <g transform="translate(218.084433 345.117656)scale(0.15 -0.15)">
       <use xlink:href="#DejaVuSans-915"/>
      </g>
     </g>
    </g>
    <g id="xtick_5">
     <g id="line2d_5">
      <g>
       <use style="stroke:#000000;stroke-width:0.8;" x="281.418446" xlink:href="#m14eabf1a5d" y="326.72"/>
      </g>
     </g>
     <g id="text_5">
      <!-- A -->
      <g transform="translate(276.287978 345.117656)scale(0.15 -0.15)">
       <defs>
        <path d="M 34.1875 63.1875 
L 20.796875 26.90625 
L 47.609375 26.90625 
z
M 28.609375 72.90625 
L 39.796875 72.90625 
L 67.578125 0 
L 57.328125 0 
L 50.6875 18.703125 
L 17.828125 18.703125 
L 11.1875 0 
L 0.78125 0 
z
" id="DejaVuSans-65"/>
       </defs>
       <use xlink:href="#DejaVuSans-65"/>
      </g>
     </g>
    </g>
    <g id="xtick_6">
     <g id="line2d_6">
      <g>
       <use style="stroke:#000000;stroke-width:0.8;" x="349.605093" xlink:href="#m14eabf1a5d" y="326.72"/>
      </g>
     </g>
     <g id="text_6">
      <!-- H -->
      <g transform="translate(343.964859 345.117656)scale(0.15 -0.15)">
       <defs>
        <path d="M 9.8125 72.90625 
L 19.671875 72.90625 
L 19.671875 43.015625 
L 55.515625 43.015625 
L 55.515625 72.90625 
L 65.375 72.90625 
L 65.375 0 
L 55.515625 0 
L 55.515625 34.71875 
L 19.671875 34.71875 
L 19.671875 0 
L 9.8125 0 
z
" id="DejaVuSans-72"/>
       </defs>
       <use xlink:href="#DejaVuSans-72"/>
      </g>
     </g>
    </g>
    <g id="xtick_7">
     <g id="line2d_7">
      <g>
       <use style="stroke:#000000;stroke-width:0.8;" x="383.698417" xlink:href="#m14eabf1a5d" y="326.72"/>
      </g>
     </g>
     <g id="text_7">
      <!-- L -->
      <g transform="translate(379.519511 345.117656)scale(0.15 -0.15)">
       <defs>
        <path d="M 9.8125 72.90625 
L 19.671875 72.90625 
L 19.671875 8.296875 
L 55.171875 8.296875 
L 55.171875 0 
L 9.8125 0 
z
" id="DejaVuSans-76"/>
       </defs>
       <use xlink:href="#DejaVuSans-76"/>
      </g>
     </g>
    </g>
    <g id="xtick_8">
     <g id="line2d_8">
      <g>
       <use style="stroke:#000000;stroke-width:0.8;" x="442.749785" xlink:href="#m14eabf1a5d" y="326.72"/>
      </g>
     </g>
     <g id="text_8">
      <!-- A|K -->
      <g transform="translate(430.174395 345.183281)scale(0.15 -0.15)">
       <defs>
        <path d="M 21 76.421875 
L 21 -23.578125 
L 12.703125 -23.578125 
L 12.703125 76.421875 
z
" id="DejaVuSans-124"/>
       </defs>
       <use xlink:href="#DejaVuSans-65"/>
       <use x="68.408203" xlink:href="#DejaVuSans-124"/>
       <use x="102.099609" xlink:href="#DejaVuSans-75"/>
      </g>
     </g>
    </g>
    <g id="xtick_9">
     <g id="line2d_9">
      <g>
       <use style="stroke:#000000;stroke-width:0.8;" x="442.749785" xlink:href="#m14eabf1a5d" y="326.72"/>
      </g>
     </g>
     <g id="text_9">
      <!-- A|K -->
      <g transform="translate(430.174395 345.183281)scale(0.15 -0.15)">
       <use xlink:href="#DejaVuSans-65"/>
       <use x="68.408203" xlink:href="#DejaVuSans-124"/>
       <use x="102.099609" xlink:href="#DejaVuSans-75"/>
      </g>
     </g>
    </g>
    <g id="xtick_10">
     <g id="line2d_10">
      <g>
       <use style="stroke:#000000;stroke-width:0.8;" x="501.904893" xlink:href="#m14eabf1a5d" y="326.72"/>
      </g>
     </g>
     <g id="text_10">
      <!-- H|M -->
      <g transform="translate(487.267002 345.183281)scale(0.15 -0.15)">
       <use xlink:href="#DejaVuSans-72"/>
       <use x="75.195312" xlink:href="#DejaVuSans-124"/>
       <use x="108.886719" xlink:href="#DejaVuSans-77"/>
      </g>
     </g>
    </g>
    <g id="xtick_11">
     <g id="line2d_11">
      <g>
       <use style="stroke:#000000;stroke-width:0.8;" x="501.904893" xlink:href="#m14eabf1a5d" y="326.72"/>
      </g>
     </g>
     <g id="text_11">
      <!-- H|M -->
      <g transform="translate(487.267002 345.183281)scale(0.15 -0.15)">
       <use xlink:href="#DejaVuSans-72"/>
       <use x="75.195312" xlink:href="#DejaVuSans-124"/>
       <use x="108.886719" xlink:href="#DejaVuSans-77"/>
      </g>
     </g>
    </g>
    <g id="xtick_12">
     <g id="line2d_12">
      <g>
       <use style="stroke:#000000;stroke-width:0.8;" x="561.06" xlink:href="#m14eabf1a5d" y="326.72"/>
      </g>
     </g>
     <g id="text_12">
      <!-- L -->
      <g transform="translate(556.881094 345.117656)scale(0.15 -0.15)">
       <use xlink:href="#DejaVuSans-76"/>
      </g>
     </g>
    </g>
   </g>
   <g id="matplotlib.axis_2">
    <g id="ytick_1">
     <g id="line2d_13">
      <defs>
       <path d="M 0 0 
L -3.5 0 
" id="m3c6f45487a" style="stroke:#000000;stroke-width:0.8;"/>
      </defs>
      <g>
       <use style="stroke:#000000;stroke-width:0.8;" x="60.932" xlink:href="#m3c6f45487a" y="297.24"/>
      </g>
     </g>
     <g id="text_13">
      <!-- −4 -->
      <g transform="translate(31.818719 302.938828)scale(0.15 -0.15)">
       <defs>
        <path d="M 10.59375 35.5 
L 73.1875 35.5 
L 73.1875 27.203125 
L 10.59375 27.203125 
z
" id="DejaVuSans-8722"/>
        <path d="M 37.796875 64.3125 
L 12.890625 25.390625 
L 37.796875 25.390625 
z
M 35.203125 72.90625 
L 47.609375 72.90625 
L 47.609375 25.390625 
L 58.015625 25.390625 
L 58.015625 17.1875 
L 47.609375 17.1875 
L 47.609375 0 
L 37.796875 0 
L 37.796875 17.1875 
L 4.890625 17.1875 
L 4.890625 26.703125 
z
" id="DejaVuSans-52"/>
       </defs>
       <use xlink:href="#DejaVuSans-8722"/>
       <use x="83.789062" xlink:href="#DejaVuSans-52"/>
      </g>
     </g>
    </g>
    <g id="ytick_2">
     <g id="line2d_14">
      <g>
       <use style="stroke:#000000;stroke-width:0.8;" x="60.932" xlink:href="#m3c6f45487a" y="238.28"/>
      </g>
     </g>
     <g id="text_14">
      <!-- −2 -->
      <g transform="translate(31.818719 243.978828)scale(0.15 -0.15)">
       <defs>
        <path d="M 19.1875 8.296875 
L 53.609375 8.296875 
L 53.609375 0 
L 7.328125 0 
L 7.328125 8.296875 
Q 12.9375 14.109375 22.625 23.890625 
Q 32.328125 33.6875 34.8125 36.53125 
Q 39.546875 41.84375 41.421875 45.53125 
Q 43.3125 49.21875 43.3125 52.78125 
Q 43.3125 58.59375 39.234375 62.25 
Q 35.15625 65.921875 28.609375 65.921875 
Q 23.96875 65.921875 18.8125 64.3125 
Q 13.671875 62.703125 7.8125 59.421875 
L 7.8125 69.390625 
Q 13.765625 71.78125 18.9375 73 
Q 24.125 74.21875 28.421875 74.21875 
Q 39.75 74.21875 46.484375 68.546875 
Q 53.21875 62.890625 53.21875 53.421875 
Q 53.21875 48.921875 51.53125 44.890625 
Q 49.859375 40.875 45.40625 35.40625 
Q 44.1875 33.984375 37.640625 27.21875 
Q 31.109375 20.453125 19.1875 8.296875 
z
" id="DejaVuSans-50"/>
       </defs>
       <use xlink:href="#DejaVuSans-8722"/>
       <use x="83.789062" xlink:href="#DejaVuSans-50"/>
      </g>
     </g>
    </g>
    <g id="ytick_3">
     <g id="line2d_15">
      <g>
       <use style="stroke:#000000;stroke-width:0.8;" x="60.932" xlink:href="#m3c6f45487a" y="179.32"/>
      </g>
     </g>
     <g id="text_15">
      <!-- 0 -->
      <g transform="translate(44.38825 185.018828)scale(0.15 -0.15)">
       <defs>
        <path d="M 31.78125 66.40625 
Q 24.171875 66.40625 20.328125 58.90625 
Q 16.5 51.421875 16.5 36.375 
Q 16.5 21.390625 20.328125 13.890625 
Q 24.171875 6.390625 31.78125 6.390625 
Q 39.453125 6.390625 43.28125 13.890625 
Q 47.125 21.390625 47.125 36.375 
Q 47.125 51.421875 43.28125 58.90625 
Q 39.453125 66.40625 31.78125 66.40625 
z
M 31.78125 74.21875 
Q 44.046875 74.21875 50.515625 64.515625 
Q 56.984375 54.828125 56.984375 36.375 
Q 56.984375 17.96875 50.515625 8.265625 
Q 44.046875 -1.421875 31.78125 -1.421875 
Q 19.53125 -1.421875 13.0625 8.265625 
Q 6.59375 17.96875 6.59375 36.375 
Q 6.59375 54.828125 13.0625 64.515625 
Q 19.53125 74.21875 31.78125 74.21875 
z
" id="DejaVuSans-48"/>
       </defs>
       <use xlink:href="#DejaVuSans-48"/>
      </g>
     </g>
    </g>
    <g id="ytick_4">
     <g id="line2d_16">
      <g>
       <use style="stroke:#000000;stroke-width:0.8;" x="60.932" xlink:href="#m3c6f45487a" y="120.36"/>
      </g>
     </g>
     <g id="text_16">
      <!-- 2 -->
      <g transform="translate(44.38825 126.058828)scale(0.15 -0.15)">
       <use xlink:href="#DejaVuSans-50"/>
      </g>
     </g>
    </g>
    <g id="ytick_5">
     <g id="line2d_17">
      <g>
       <use style="stroke:#000000;stroke-width:0.8;" x="60.932" xlink:href="#m3c6f45487a" y="61.4"/>
      </g>
     </g>
     <g id="text_17">
      <!-- 4 -->
      <g transform="translate(44.38825 67.098828)scale(0.15 -0.15)">
       <use xlink:href="#DejaVuSans-52"/>
      </g>
     </g>
    </g>
    <g id="text_18">
     <!-- $\varepsilon_n(k) - \varepsilon_{\mathrm{F}}$ (eV) -->
     <g transform="translate(24.699188 231.595)rotate(-90)scale(0.15 -0.15)">
      <defs>
       <path d="M 19.734375 29.5 
Q 14.453125 30.671875 12.15625 33.84375 
Q 10.453125 36.078125 10.453125 39.109375 
Q 10.453125 47.40625 18.359375 52.25 
Q 24.609375 56.0625 34.1875 56.0625 
Q 37.890625 56.0625 41.9375 55.46875 
Q 46 54.890625 50.53125 53.71875 
L 48.96875 45.5625 
Q 44.484375 46.96875 40.71875 47.609375 
Q 36.859375 48.25 33.40625 48.25 
Q 27.59375 48.25 23.78125 46 
Q 19.1875 43.3125 19.1875 39.40625 
Q 19.1875 36.8125 21.578125 35.015625 
Q 24.421875 32.859375 30.078125 32.859375 
L 37.640625 32.859375 
L 36.234375 25.4375 
L 29 25.4375 
Q 22.265625 25.4375 18.3125 22.953125 
Q 12.9375 19.578125 12.9375 14.3125 
Q 12.9375 10.984375 15.828125 8.796875 
Q 19.4375 6.0625 26.8125 6.0625 
Q 31.34375 6.0625 35.6875 6.9375 
Q 40.046875 7.859375 43.84375 9.671875 
L 42.1875 1.3125 
Q 37.546875 -0.046875 33.296875 -0.734375 
Q 29.046875 -1.421875 25.140625 -1.421875 
Q 13.53125 -1.421875 8.0625 3.03125 
Q 3.90625 6.453125 3.90625 12.203125 
Q 3.90625 19.96875 9.375 24.75 
Q 13.421875 28.328125 19.734375 29.5 
z
" id="DejaVuSans-Oblique-949"/>
       <path d="M 55.71875 33.015625 
L 49.3125 0 
L 40.28125 0 
L 46.6875 32.671875 
Q 47.125 34.96875 47.359375 36.71875 
Q 47.609375 38.484375 47.609375 39.5 
Q 47.609375 43.609375 45.015625 45.890625 
Q 42.4375 48.1875 37.796875 48.1875 
Q 30.5625 48.1875 25.34375 43.375 
Q 20.125 38.578125 18.5 30.328125 
L 12.5 0 
L 3.515625 0 
L 14.109375 54.6875 
L 23.09375 54.6875 
L 21.296875 46.09375 
Q 25.046875 50.828125 30.3125 53.40625 
Q 35.59375 56 41.40625 56 
Q 48.640625 56 52.609375 52.09375 
Q 56.59375 48.1875 56.59375 41.109375 
Q 56.59375 39.359375 56.375 37.359375 
Q 56.15625 35.359375 55.71875 33.015625 
z
" id="DejaVuSans-Oblique-110"/>
       <path d="M 31 75.875 
Q 24.46875 64.65625 21.28125 53.65625 
Q 18.109375 42.671875 18.109375 31.390625 
Q 18.109375 20.125 21.3125 9.0625 
Q 24.515625 -2 31 -13.1875 
L 23.1875 -13.1875 
Q 15.875 -1.703125 12.234375 9.375 
Q 8.59375 20.453125 8.59375 31.390625 
Q 8.59375 42.28125 12.203125 53.3125 
Q 15.828125 64.359375 23.1875 75.875 
z
" id="DejaVuSans-40"/>
       <path d="M 18.3125 75.984375 
L 27.296875 75.984375 
L 18.703125 31.6875 
L 49.515625 54.6875 
L 61.1875 54.6875 
L 26.8125 28.515625 
L 51.90625 0 
L 41.015625 0 
L 17.671875 26.703125 
L 12.5 0 
L 3.515625 0 
z
" id="DejaVuSans-Oblique-107"/>
       <path d="M 8.015625 75.875 
L 15.828125 75.875 
Q 23.140625 64.359375 26.78125 53.3125 
Q 30.421875 42.28125 30.421875 31.390625 
Q 30.421875 20.453125 26.78125 9.375 
Q 23.140625 -1.703125 15.828125 -13.1875 
L 8.015625 -13.1875 
Q 14.5 -2 17.703125 9.0625 
Q 20.90625 20.125 20.90625 31.390625 
Q 20.90625 42.671875 17.703125 53.65625 
Q 14.5 64.65625 8.015625 75.875 
z
" id="DejaVuSans-41"/>
       <path d="M 9.8125 72.90625 
L 51.703125 72.90625 
L 51.703125 64.59375 
L 19.671875 64.59375 
L 19.671875 43.109375 
L 48.578125 43.109375 
L 48.578125 34.8125 
L 19.671875 34.8125 
L 19.671875 0 
L 9.8125 0 
z
" id="DejaVuSans-70"/>
       <path id="DejaVuSans-32"/>
       <path d="M 56.203125 29.59375 
L 56.203125 25.203125 
L 14.890625 25.203125 
Q 15.484375 15.921875 20.484375 11.0625 
Q 25.484375 6.203125 34.421875 6.203125 
Q 39.59375 6.203125 44.453125 7.46875 
Q 49.3125 8.734375 54.109375 11.28125 
L 54.109375 2.78125 
Q 49.265625 0.734375 44.1875 -0.34375 
Q 39.109375 -1.421875 33.890625 -1.421875 
Q 20.796875 -1.421875 13.15625 6.1875 
Q 5.515625 13.8125 5.515625 26.8125 
Q 5.515625 40.234375 12.765625 48.109375 
Q 20.015625 56 32.328125 56 
Q 43.359375 56 49.78125 48.890625 
Q 56.203125 41.796875 56.203125 29.59375 
z
M 47.21875 32.234375 
Q 47.125 39.59375 43.09375 43.984375 
Q 39.0625 48.390625 32.421875 48.390625 
Q 24.90625 48.390625 20.390625 44.140625 
Q 15.875 39.890625 15.1875 32.171875 
z
" id="DejaVuSans-101"/>
       <path d="M 28.609375 0 
L 0.78125 72.90625 
L 11.078125 72.90625 
L 34.1875 11.53125 
L 57.328125 72.90625 
L 67.578125 72.90625 
L 39.796875 0 
z
" id="DejaVuSans-86"/>
      </defs>
      <use transform="translate(0 0.015625)" xlink:href="#DejaVuSans-Oblique-949"/>
      <use transform="translate(54.052734 -16.390625)scale(0.7)" xlink:href="#DejaVuSans-Oblique-110"/>
      <use transform="translate(101.152344 0.015625)" xlink:href="#DejaVuSans-40"/>
      <use transform="translate(140.166016 0.015625)" xlink:href="#DejaVuSans-Oblique-107"/>
      <use transform="translate(198.076172 0.015625)" xlink:href="#DejaVuSans-41"/>
      <use transform="translate(256.572266 0.015625)" xlink:href="#DejaVuSans-8722"/>
      <use transform="translate(359.84375 0.015625)" xlink:href="#DejaVuSans-Oblique-949"/>
      <use transform="translate(413.896484 -16.390625)scale(0.7)" xlink:href="#DejaVuSans-70"/>
      <use transform="translate(456.894531 0.015625)" xlink:href="#DejaVuSans-32"/>
      <use transform="translate(488.681641 0.015625)" xlink:href="#DejaVuSans-40"/>
      <use transform="translate(527.695312 0.015625)" xlink:href="#DejaVuSans-101"/>
      <use transform="translate(589.21875 0.015625)" xlink:href="#DejaVuSans-86"/>
      <use transform="translate(657.626953 0.015625)" xlink:href="#DejaVuSans-41"/>
     </g>
    </g>
   </g>
   <g id="line2d_18">
    <path clip-path="url(#p29bf5d4770)" d="M 0 0 
" style="fill:none;stroke:#ff0000;stroke-linecap:square;stroke-width:2;"/>
   </g>
   <g id="line2d_19">
    <path clip-path="url(#p29bf5d4770)" d="M 0 0 
" style="fill:none;stroke:#ff0000;stroke-linecap:square;stroke-width:2;"/>
   </g>
   <g id="line2d_20">
    <path clip-path="url(#p29bf5d4770)" d="M 0 0 
" style="fill:none;stroke:#ff0000;stroke-linecap:square;stroke-width:2;"/>
   </g>
   <g id="line2d_21">
    <path clip-path="url(#p29bf5d4770)" d="M 0 0 
" style="fill:none;stroke:#ff0000;stroke-linecap:square;stroke-width:2;"/>
   </g>
   <g id="line2d_22">
    <path clip-path="url(#p29bf5d4770)" d="M 0 0 
" style="fill:none;stroke:#ff0000;stroke-linecap:square;stroke-width:2;"/>
   </g>
   <g id="line2d_23">
    <path clip-path="url(#p29bf5d4770)" d="M 0 0 
" style="fill:none;stroke:#ff0000;stroke-linecap:square;stroke-width:2;"/>
   </g>
   <g id="line2d_24">
    <path clip-path="url(#p29bf5d4770)" d="M 0 0 
" style="fill:none;stroke:#ff0000;stroke-linecap:square;stroke-width:2;"/>
   </g>
   <g id="line2d_25">
    <path clip-path="url(#p29bf5d4770)" d="M 0 0 
" style="fill:none;stroke:#ff0000;stroke-linecap:square;stroke-width:2;"/>
   </g>
   <g id="line2d_26">
    <path clip-path="url(#p29bf5d4770)" d="M 60.932 306.736131 
L 62.615621 306.932781 
L 64.299242 307.52147 
L 65.982863 308.498383 
L 67.666484 309.857362 
L 69.350105 311.589962 
L 71.033725 313.685703 
L 72.717346 316.132317 
L 74.400967 318.916036 
L 76.084588 322.021867 
L 78.61002 327.249556 
L 81.135451 333.110266 
L 83.660882 339.545595 
L 86.186314 346.498208 
L 89.553556 356.47681 
L 91.004114 361 
M 191.02835 361 
L 194.424837 351.51412 
L 197.799201 342.58601 
L 201.173564 334.291016 
L 203.704337 328.578383 
L 206.23511 323.378889 
L 208.765883 318.764866 
L 210.453065 316.04968 
L 212.140247 313.647225 
L 213.827429 311.576981 
L 215.514611 309.856545 
L 217.201793 308.501302 
L 218.888975 307.523852 
L 220.576157 306.933494 
L 222.263339 306.736131 
L 240.854944 306.627522 
L 281.418446 306.250795 
L 283.081535 306.440405 
L 284.744624 307.008046 
L 286.407713 307.95018 
L 288.070802 309.261045 
L 289.733891 310.932707 
L 291.39698 312.955404 
L 293.060069 315.317651 
L 294.723158 318.006552 
L 296.386247 321.007992 
L 298.88088 326.063452 
L 301.375514 331.735637 
L 303.870147 337.970412 
L 306.364781 344.712684 
L 309.690958 354.400221 
L 311.828311 361 
M 411.143026 361 
L 414.471665 351.743493 
L 417.798503 342.953765 
L 421.12534 334.755377 
L 423.620469 329.081191 
L 426.115597 323.886759 
L 428.610725 319.239817 
L 431.105853 315.208547 
L 432.769272 312.895661 
L 434.432691 310.903779 
L 436.09611 309.249367 
L 437.759529 307.946688 
L 439.422948 307.007463 
L 441.086366 306.440365 
L 442.749785 306.250795 
L 442.749785 361 
L 442.749785 361 
" style="fill:none;stroke:#ff0000;stroke-linecap:square;stroke-width:2;"/>
   </g>
   <g id="line2d_27">
    <path clip-path="url(#p29bf5d4770)" d="M 60.932 306.735877 
L 62.615621 306.842182 
L 64.299242 307.160147 
L 65.982863 307.686933 
L 67.666484 308.417802 
L 69.350105 309.346448 
L 71.033725 310.465017 
L 73.559157 312.47857 
L 76.084588 314.86321 
L 78.61002 317.579801 
L 81.135451 320.587072 
L 84.502693 324.976331 
L 88.711745 330.93589 
L 93.762608 338.546215 
L 108.282219 361 
M 181.677264 361 
L 185.145336 353.057363 
L 189.363291 343.967029 
L 192.737655 337.221532 
L 196.112019 331.011884 
L 198.642792 326.741982 
L 201.173564 322.831294 
L 203.704337 319.302416 
L 206.23511 316.176147 
L 208.765883 313.471579 
L 211.296656 311.205249 
L 212.983838 309.944864 
L 214.67102 308.88912 
L 216.358202 308.040941 
L 218.045384 307.402711 
L 219.732566 306.976224 
L 221.419748 306.762647 
L 225.643631 306.731994 
L 245.080309 306.578927 
L 281.418446 306.250542 
L 283.081535 306.353363 
L 284.744624 306.660927 
L 286.407713 307.170564 
L 288.070802 307.877903 
L 289.733891 308.776994 
L 291.39698 309.860438 
L 293.891613 311.812211 
L 296.386247 314.125903 
L 298.88088 316.764536 
L 301.375514 319.689123 
L 304.701692 323.963792 
L 308.859414 329.779463 
L 313.848681 337.224871 
L 329.318686 361 
M 402.39073 361 
L 406.154571 351.055753 
L 410.313118 342.230054 
L 413.639956 335.692488 
L 416.966793 329.682124 
L 419.461922 325.55381 
L 421.95705 321.775597 
L 424.452178 318.368313 
L 426.947306 315.351689 
L 429.442435 312.742959 
L 431.937563 310.55784 
L 433.600982 309.342941 
L 435.264401 308.325419 
L 436.927819 307.508035 
L 438.591238 306.893038 
L 440.254657 306.482093 
L 441.918076 306.276337 
L 442.749785 306.250542 
L 442.749785 361 
L 442.749785 361 
" style="fill:none;stroke:#ff0000;stroke-linecap:square;stroke-width:2;"/>
   </g>
   <g id="line2d_28">
    <path clip-path="url(#p29bf5d4770)" d="M 60.932 220.166952 
L 61.77381 220.553588 
L 62.615621 221.574762 
L 63.457431 222.986409 
L 65.141052 226.374399 
L 68.508294 233.963561 
L 75.242778 249.968505 
L 87.028124 278.037615 
L 92.920797 291.522116 
L 97.97166 302.577302 
L 103.022523 313.050893 
L 107.231575 321.257085 
L 111.440627 328.9137 
L 114.807869 334.575701 
L 117.333301 338.492931 
L 119.858732 342.041739 
L 121.542353 344.123967 
L 123.225974 345.86772 
L 124.067784 346.559299 
L 124.909595 347.087536 
L 125.751405 347.410048 
L 126.593216 347.480729 
L 127.435026 347.260101 
L 128.276837 346.729308 
L 129.118647 345.898789 
L 132.527979 349.643152 
L 135.937312 353.014562 
L 139.346644 356.00556 
L 141.903643 357.995357 
L 144.460643 359.765336 
L 146.47376 361 
M 167.372646 361 
L 168.273516 359.232553 
L 170.804289 353.763425 
L 174.178653 345.812757 
L 178.396608 335.229165 
L 183.458154 321.856829 
L 189.363291 305.574981 
L 197.799201 281.557774 
L 207.922292 252.786145 
L 212.983838 239.084834 
L 216.358202 230.531422 
L 218.888975 224.728987 
L 220.576157 221.591478 
L 221.419748 220.55597 
L 222.263339 220.166952 
L 223.953485 220.267335 
L 225.643631 220.567042 
L 227.333777 221.06123 
L 229.023923 221.742576 
L 230.714069 222.601031 
L 233.249287 224.193433 
L 235.784506 226.107692 
L 238.319725 228.289027 
L 241.700017 231.513021 
L 246.770455 236.748241 
L 254.376112 244.666187 
L 258.601476 248.712209 
L 261.981768 251.623146 
L 264.516987 253.571396 
L 267.052206 255.291628 
L 269.587425 256.763834 
L 272.122644 257.971375 
L 274.657863 258.901238 
L 277.193082 259.543428 
L 279.7283 259.89127 
L 282.249991 260.144113 
L 283.081535 260.685923 
L 283.91308 261.537933 
L 284.744624 262.642954 
L 286.407713 265.398633 
L 288.070802 268.618469 
L 291.39698 275.745117 
L 297.217791 288.975531 
L 306.364781 309.720691 
L 312.185592 322.3677 
L 317.174859 332.701563 
L 322.164126 342.486502 
L 331.968704 361 
M 401.783293 361 
L 406.98628 348.580795 
L 413.639956 330.004216 
L 428.610725 287.830764 
L 432.769272 276.926645 
L 435.264401 270.89742 
L 436.927819 267.241166 
L 438.591238 264.042751 
L 439.422948 262.68914 
L 440.254657 261.554719 
L 441.086366 260.689662 
L 441.918076 260.144309 
L 442.749785 259.957684 
L 442.749785 345.898789 
L 444.416126 346.000561 
L 446.082467 346.304355 
L 447.748808 346.805736 
L 449.415149 347.49743 
L 451.081491 348.369689 
L 453.581002 349.989782 
L 456.080514 351.940946 
L 458.580025 354.169305 
L 461.912707 357.472636 
L 465.217725 361 
L 465.217725 361 
" style="fill:none;stroke:#ff0000;stroke-linecap:square;stroke-width:2;"/>
   </g>
   <g id="line2d_29">
    <path clip-path="url(#p29bf5d4770)" d="M 60.932 220.166417 
L 61.77381 220.521192 
L 62.615621 221.464949 
L 63.457431 222.779277 
L 65.141052 225.951176 
L 68.508294 233.058101 
L 76.926399 251.667348 
L 86.186314 271.948413 
L 92.920797 286.134846 
L 97.97166 296.310697 
L 103.022523 305.998497 
L 107.231575 313.647165 
L 111.440627 320.870623 
L 115.64968 327.636354 
L 119.858732 333.915578 
L 123.225974 338.571622 
L 126.593216 342.888802 
L 129.118647 345.898175 
L 129.97098 344.78855 
L 131.675646 341.95242 
L 133.380312 338.576571 
L 135.937312 332.964368 
L 140.198977 322.968301 
L 147.017642 306.914938 
L 150.426974 299.505711 
L 152.983973 294.528691 
L 154.68864 291.600977 
L 156.393306 289.066 
L 158.097972 286.995518 
L 159.802638 285.457266 
L 160.654971 284.906276 
L 161.507304 284.508521 
L 162.359637 284.268139 
L 168.273516 283.675401 
L 170.804289 283.035183 
L 173.335062 282.139229 
L 175.865835 280.987894 
L 178.396608 279.581647 
L 180.927381 277.92091 
L 183.458154 276.006737 
L 185.988927 273.83979 
L 188.5197 271.421095 
L 191.050473 268.751852 
L 194.424837 264.805629 
L 197.799201 260.42081 
L 201.173564 255.603014 
L 204.547928 250.360308 
L 207.922292 244.705363 
L 211.296656 238.661968 
L 215.514611 230.657133 
L 218.888975 224.215877 
L 220.576157 221.458222 
L 221.419748 220.521833 
L 222.263339 220.166417 
L 223.953485 220.2668 
L 225.643631 220.566508 
L 227.333777 221.060697 
L 229.023923 221.742044 
L 230.714069 222.600502 
L 233.249287 224.192907 
L 235.784506 226.107171 
L 238.319725 228.28851 
L 241.700017 231.512511 
L 246.770455 236.747742 
L 254.376112 244.665701 
L 258.601476 248.711731 
L 261.981768 251.622672 
L 264.516987 253.570925 
L 267.052206 255.291159 
L 269.587425 256.763367 
L 272.122644 257.97091 
L 274.657863 258.900774 
L 277.193082 259.542965 
L 279.7283 259.890807 
L 282.249991 260.117518 
L 283.081535 260.585985 
L 283.91308 261.329792 
L 284.744624 262.305756 
L 286.407713 264.783554 
L 288.070802 267.73815 
L 290.565436 272.692348 
L 293.891613 279.821304 
L 299.712425 292.904923 
L 312.185592 321.099454 
L 318.006403 333.682593 
L 322.99567 343.967136 
L 325.490304 348.674165 
L 329.648026 356.003655 
L 332.650506 361 
M 359.947247 361 
L 365.799422 346.999071 
L 369.208754 339.331959 
L 371.765754 334.052339 
L 374.322753 329.37151 
L 376.027419 326.686381 
L 377.732085 324.427373 
L 379.436751 322.660463 
L 380.289084 321.98042 
L 381.141418 321.444556 
L 381.993751 321.057962 
L 382.846084 320.824439 
L 388.688673 320.236279 
L 391.183802 319.598947 
L 393.67893 318.707166 
L 396.174058 317.561431 
L 398.669186 316.162406 
L 401.164314 314.510946 
L 403.659443 312.608148 
L 406.154571 310.455373 
L 408.649699 308.054337 
L 411.144827 305.407179 
L 414.471665 301.49968 
L 417.798503 297.16876 
L 421.12534 292.427885 
L 424.452178 287.298589 
L 428.610725 280.400392 
L 438.591238 263.371202 
L 440.254657 261.313796 
L 441.086366 260.582736 
L 441.918076 260.117457 
L 442.749785 259.957221 
L 442.749785 345.898175 
L 444.416126 345.999947 
L 446.082467 346.303742 
L 447.748808 346.805125 
L 449.415149 347.49682 
L 451.081491 348.369081 
L 453.581002 349.989179 
L 456.080514 351.940347 
L 458.580025 354.168712 
L 461.912707 357.47205 
L 465.218257 361 
M 501.904893 361 
L 501.904893 284.187743 
L 503.54809 284.271271 
L 505.191287 284.520774 
L 506.834485 284.933017 
L 509.299281 285.844295 
L 511.764077 287.084089 
L 514.228873 288.618622 
L 516.693669 290.408424 
L 519.980064 293.116181 
L 524.088058 296.864042 
L 538.055236 309.99558 
L 541.341631 312.665368 
L 544.628026 315.027824 
L 547.092822 316.566276 
L 549.557618 317.883963 
L 552.022414 318.965619 
L 554.48721 319.798993 
L 556.952006 320.374823 
L 559.416803 320.686764 
L 561.06 320.746334 
L 561.06 320.746334 
" style="fill:none;stroke:#ff0000;stroke-linecap:square;stroke-width:2;"/>
   </g>
   <g id="line2d_30">
    <path clip-path="url(#p29bf5d4770)" d="M 60.932 210.427635 
L 61.77381 210.074761 
L 62.615621 209.139167 
L 63.457431 207.838389 
L 65.141052 204.709402 
L 68.508294 197.747503 
L 84.502693 163.973515 
L 94.604418 143.936022 
L 109.757006 113.856819 
L 114.807869 107.215648 
L 121.542353 97.889354 
L 129.118647 87.431201 
L 132.527979 91.732587 
L 134.232645 93.711925 
L 135.084979 96.154217 
L 140.198977 115.142236 
L 143.608309 127.102933 
L 147.017642 138.241561 
L 149.574641 145.87709 
L 152.13164 152.717005 
L 153.836307 156.73706 
L 155.540973 160.247051 
L 157.245639 163.175273 
L 158.950305 165.450666 
L 159.802638 166.323009 
L 160.654971 167.00912 
L 161.507304 167.503411 
L 162.359637 167.801478 
L 164.055561 167.903856 
L 169.117107 168.035264 
L 174.178653 168.398395 
L 178.396608 168.940702 
L 181.770972 169.58742 
L 185.145336 170.479546 
L 187.676109 171.346755 
L 190.206882 172.415879 
L 192.737655 173.717906 
L 195.268428 175.284906 
L 197.799201 177.148918 
L 200.329974 179.339886 
L 202.860746 181.885565 
L 205.391519 184.807683 
L 207.922292 188.120384 
L 210.453065 191.826894 
L 212.983838 195.913323 
L 216.358202 201.861181 
L 219.732566 207.887314 
L 220.576157 209.149962 
L 221.419748 210.074785 
L 222.263339 210.427635 
L 224.798558 210.566964 
L 227.333777 210.98135 
L 229.868996 211.659664 
L 232.404214 212.584501 
L 234.939433 213.732648 
L 238.319725 215.561801 
L 241.700017 217.662057 
L 246.770455 221.141731 
L 257.756403 228.836074 
L 261.981768 231.441566 
L 265.36206 233.259888 
L 268.742352 234.791067 
L 271.277571 235.728133 
L 273.81279 236.469949 
L 276.348009 237.006711 
L 278.883227 237.331595 
L 281.418446 237.440352 
L 282.249991 237.287464 
L 283.081535 236.843427 
L 283.91308 236.140228 
L 284.744624 235.220887 
L 286.407713 232.903476 
L 288.070802 230.169752 
L 290.565436 225.652345 
L 295.554702 216.026547 
L 313.848681 179.884968 
L 322.164126 163.040102 
L 329.648026 147.347081 
L 337.131926 131.085784 
L 347.11046 108.776428 
L 349.605093 103.179948 
L 350.457426 105.473776 
L 352.162093 111.370265 
L 356.423758 127.812041 
L 361.537757 147.231035 
L 364.947089 159.373441 
L 367.504088 167.863326 
L 370.061087 175.673658 
L 372.618087 182.638869 
L 374.322753 186.716317 
L 376.027419 190.265154 
L 377.732085 193.216858 
L 379.436751 195.50428 
L 380.289084 196.379737 
L 381.141418 197.067674 
L 381.993751 197.562936 
L 382.846084 197.861677 
L 384.530126 197.964661 
L 389.520383 198.118828 
L 393.67893 198.444956 
L 397.837477 198.996717 
L 401.164314 199.645221 
L 404.491152 200.526392 
L 406.98628 201.372159 
L 409.481409 202.404615 
L 411.976537 203.651154 
L 414.471665 205.140036 
L 416.966793 206.899405 
L 419.461922 208.95541 
L 421.95705 211.330303 
L 424.452178 214.03958 
L 426.947306 217.088102 
L 429.442435 220.464038 
L 432.769272 225.399894 
L 438.591238 234.221374 
L 440.254657 236.155192 
L 441.086366 236.846685 
L 441.918076 237.287813 
L 442.749785 237.440352 
L 442.749785 87.431201 
L 444.416126 87.215844 
L 446.082467 86.572236 
L 447.748808 85.50832 
L 449.415149 84.039546 
L 451.081491 82.1944 
L 454.414173 77.879876 
L 455.247343 77.477884 
L 459.413196 78.752111 
L 460.246366 79.042718 
L 463.579048 81.533423 
L 468.578072 85.618221 
L 476.076606 91.766983 
L 480.242459 94.885873 
L 483.575141 97.114643 
L 486.907823 99.049508 
L 489.407335 100.281656 
L 491.906846 101.309457 
L 494.406358 102.120871 
L 496.905869 102.707042 
L 499.405381 103.06135 
L 501.904893 103.179948 
L 501.904893 167.901316 
L 503.54809 167.977891 
L 506.012886 168.375459 
L 508.477682 169.097582 
L 510.942478 170.116759 
L 513.407275 171.396934 
L 515.872071 172.896752 
L 519.158466 175.162633 
L 523.266459 178.279207 
L 535.59044 187.85468 
L 539.698433 190.658805 
L 542.984828 192.641233 
L 546.271223 194.349349 
L 549.557618 195.752196 
L 552.022414 196.588899 
L 554.48721 197.232025 
L 556.952006 197.675637 
L 559.416803 197.915703 
L 561.06 197.961525 
L 561.06 197.961525 
" style="fill:none;stroke:#ff0000;stroke-linecap:square;stroke-width:2;"/>
   </g>
   <g id="line2d_31">
    <path clip-path="url(#p29bf5d4770)" d="M 60.932 210.426811 
L 61.77381 210.049886 
L 62.615621 209.055342 
L 64.299242 206.118936 
L 66.824673 200.928731 
L 80.29364 172.506603 
L 84.502693 163.658717 
L 101.338902 128.400084 
L 106.389765 118.030844 
L 109.757006 113.806433 
L 122.384163 88.0431 
L 124.909595 82.914634 
L 125.751405 82.737092 
L 129.118647 87.430998 
L 131.675646 84.11682 
L 132.527979 86.389503 
L 134.232645 92.908356 
L 135.084979 94.658635 
L 137.641978 97.327409 
L 140.198977 99.739269 
L 142.755976 101.895123 
L 145.312976 103.795871 
L 147.869975 105.442262 
L 150.426974 106.834783 
L 152.983973 107.973891 
L 155.540973 108.859775 
L 158.097972 109.492513 
L 160.654971 109.872137 
L 164.899152 110.188227 
L 166.586334 110.742195 
L 168.273516 111.620748 
L 169.960698 112.769042 
L 172.491471 114.868616 
L 175.865835 118.099102 
L 187.676109 129.875455 
L 191.050473 132.866543 
L 192.737655 134.263164 
L 193.581246 135.942801 
L 198.642792 151.709908 
L 203.704337 166.726431 
L 207.922292 178.614061 
L 212.140247 189.867976 
L 215.514611 198.322089 
L 218.045384 204.181929 
L 219.732566 207.622054 
L 220.576157 209.034755 
L 221.419748 210.046889 
L 222.263339 210.426811 
L 224.798558 210.56614 
L 227.333777 210.980527 
L 229.868996 211.658843 
L 232.404214 212.583684 
L 234.939433 213.731835 
L 238.319725 215.560994 
L 241.700017 217.661257 
L 246.770455 221.140941 
L 257.756403 228.835306 
L 261.981768 231.440804 
L 265.36206 233.259131 
L 268.742352 234.790314 
L 271.277571 235.727382 
L 273.81279 236.4692 
L 276.348009 237.005963 
L 278.883227 237.330848 
L 281.418446 237.439606 
L 282.249991 237.254509 
L 283.081535 236.714449 
L 283.91308 235.865328 
L 284.744624 234.76429 
L 286.407713 232.019688 
L 288.902347 227.104441 
L 292.228524 219.874565 
L 299.712425 202.819574 
L 311.354047 176.385717 
L 321.332581 154.309528 
L 331.311115 132.734038 
L 338.795015 117.020051 
L 342.952737 108.732001 
L 345.447371 104.255587 
L 346.278915 102.996127 
L 347.11046 102.001167 
L 347.942004 101.491836 
L 348.773549 101.810325 
L 349.605093 103.17936 
L 356.423758 88.166528 
L 360.685423 79.254056 
L 364.094756 72.584488 
L 366.651755 67.954168 
L 369.208754 63.72795 
L 371.765754 59.989536 
L 373.47042 57.831045 
L 375.175086 56.503705 
L 376.879752 55.402776 
L 378.584418 54.53698 
L 380.289084 53.913385 
L 381.993751 53.537258 
L 383.698417 53.411472 
L 384.530126 55.825211 
L 401.996024 122.460679 
L 407.81799 143.380518 
L 412.808246 160.577094 
L 417.798503 177.007094 
L 421.95705 190.049404 
L 426.115597 202.430445 
L 430.274144 214.037942 
L 433.600982 222.607941 
L 436.09611 228.426775 
L 437.759529 231.857006 
L 439.422948 234.721359 
L 440.254657 235.849605 
L 441.086366 236.710715 
L 441.918076 237.254027 
L 442.749785 237.439606 
L 442.749785 87.430998 
L 444.416126 87.215679 
L 446.082467 86.572065 
L 447.748808 85.508116 
L 449.415149 84.03929 
L 451.081491 82.194066 
L 454.414173 77.879139 
L 455.247343 77.147069 
L 456.080514 76.930777 
L 456.913684 77.10936 
L 458.580025 77.951899 
L 461.079537 79.635116 
L 464.412219 82.194266 
L 471.077583 87.703771 
L 476.909777 92.41469 
L 481.075629 95.467379 
L 484.408312 97.627119 
L 487.740994 99.48149 
L 490.240505 100.647009 
L 492.740017 101.603766 
L 495.239528 102.34109 
L 497.73904 102.850559 
L 500.238552 103.126632 
L 501.904893 103.17936 
L 501.904893 109.99869 
L 503.54809 109.778375 
L 505.191287 109.119104 
L 506.834485 108.025773 
L 508.477682 106.506766 
L 510.12088 104.572388 
L 511.764077 102.236525 
L 513.407275 99.51483 
L 515.050472 96.424702 
L 517.515268 91.140686 
L 519.980064 85.139965 
L 522.44486 78.494429 
L 524.909657 71.280391 
L 528.196051 60.912699 
L 532.304045 47.023236 
L 533.125644 44.153916 
L 533.947242 44.447478 
L 538.876835 47.154518 
L 542.984828 49.140389 
L 546.271223 50.501037 
L 549.557618 51.625713 
L 552.844013 52.490709 
L 556.130408 53.077595 
L 559.416803 53.374262 
L 561.06 53.411472 
L 561.06 53.411472 
" style="fill:none;stroke:#ff0000;stroke-linecap:square;stroke-width:2;"/>
   </g>
   <g id="line2d_32">
    <path clip-path="url(#p29bf5d4770)" d="M 60.932 146.282699 
L 63.457431 146.195303 
L 65.982863 145.932879 
L 68.508294 145.494957 
L 71.033725 144.880981 
L 73.559157 144.090211 
L 76.084588 143.122106 
L 79.45183 141.554918 
L 82.819072 139.672168 
L 86.186314 137.475421 
L 89.553556 134.968057 
L 92.920797 132.154807 
L 96.288039 129.043578 
L 99.655281 125.643379 
L 103.022523 121.967036 
L 105.547954 119.03819 
L 106.389765 117.85239 
L 121.542353 86.431541 
L 124.067784 81.317003 
L 124.909595 81.495208 
L 125.751405 81.227571 
L 128.276837 76.487208 
L 129.118647 75.650196 
L 129.97098 77.065002 
L 131.675646 83.143214 
L 132.527979 83.054882 
L 135.937312 79.081896 
L 138.494311 76.447172 
L 141.05131 74.153171 
L 143.608309 72.217423 
L 146.165309 70.63373 
L 148.722308 69.376393 
L 151.279307 68.408038 
L 153.836307 67.687732 
L 156.393306 67.17801 
L 159.802638 66.774524 
L 164.899152 66.3716 
L 165.742743 66.032931 
L 167.429925 64.974241 
L 169.117107 63.450661 
L 171.64788 60.820866 
L 180.08379 90.779489 
L 186.832518 113.873585 
L 192.737655 133.24677 
L 193.581246 134.935202 
L 196.95561 137.440801 
L 200.329974 139.643288 
L 203.704337 141.533836 
L 207.078701 143.108171 
L 210.453065 144.365218 
L 212.983838 145.100187 
L 215.514611 145.65782 
L 218.045384 146.038805 
L 220.576157 146.243679 
L 223.108412 146.232479 
L 224.798558 145.831118 
L 226.488704 145.030613 
L 228.17885 143.834916 
L 229.868996 142.250277 
L 231.559142 140.284666 
L 233.249287 137.947724 
L 234.939433 135.250588 
L 236.629579 132.205688 
L 239.164798 127.016222 
L 241.700017 121.124701 
L 244.235236 114.584303 
L 246.770455 107.453007 
L 250.150747 97.128282 
L 253.531039 86.013074 
L 257.756403 71.270213 
L 269.587425 29.010879 
L 272.122644 21.021995 
L 273.81279 16.276003 
L 275.502936 12.16669 
L 277.193082 8.863085 
L 278.038154 7.567547 
L 278.883227 6.536159 
L 279.7283 5.786049 
L 280.573373 5.330393 
L 281.418446 5.177488 
L 283.91308 5.026252 
L 286.407713 4.575864 
L 288.902347 3.836412 
L 291.39698 2.82423 
L 293.891613 1.560879 
L 296.386247 0.072277 
L 298.003547 -1 
M 325.960688 -1 
L 330.47957 17.377808 
L 338.795015 52.369036 
L 344.615826 76.586355 
L 346.278915 82.9706 
L 347.11046 85.825777 
L 347.942004 88.196469 
L 348.773549 89.73963 
L 349.605093 90.231399 
L 350.457426 89.844162 
L 351.309759 88.933592 
L 353.014426 86.443064 
L 357.276091 79.344229 
L 361.537757 72.46696 
L 364.947089 67.466393 
L 367.504088 64.101437 
L 370.061087 61.122827 
L 372.618087 58.576466 
L 373.47042 57.811216 
L 375.175086 55.914036 
L 376.879752 54.322384 
L 378.584418 53.05844 
L 380.289084 52.141063 
L 381.993751 51.584689 
L 383.698417 51.398159 
L 384.530126 48.981804 
L 391.183802 22.95662 
L 397.366728 -1 
M 426.136961 -1 
L 429.442435 1.092971 
L 431.937563 2.430883 
L 434.432691 3.528332 
L 436.927819 4.360656 
L 439.422948 4.908932 
L 441.918076 5.160684 
L 442.749785 5.177488 
L 442.749785 75.650196 
L 446.082467 75.787909 
L 449.415149 76.193748 
L 452.747832 76.84617 
L 454.414173 77.254931 
L 456.080514 76.930568 
L 456.913684 77.109152 
L 458.580025 77.951425 
L 460.246366 79.033967 
L 466.07856 81.172395 
L 478.576118 85.86998 
L 483.575141 87.452885 
L 487.740994 88.539781 
L 491.906846 89.37674 
L 495.239528 89.848595 
L 498.572211 90.135225 
L 501.904893 90.231399 
L 501.904893 66.645379 
L 503.54809 66.458308 
L 505.191287 65.898302 
L 506.834485 64.969167 
L 508.477682 63.677462 
L 510.12088 62.030685 
L 511.764077 60.039195 
L 513.407275 57.714138 
L 515.050472 55.067611 
L 516.693669 52.112524 
L 519.158466 47.130622 
L 521.623262 41.530967 
L 522.44486 39.534997 
L 523.266459 38.043645 
L 533.125644 43.970902 
L 533.947242 43.091376 
L 538.876835 45.577178 
L 542.984828 47.415565 
L 546.271223 48.680685 
L 549.557618 49.729116 
L 552.844013 50.53696 
L 556.130408 51.08573 
L 559.416803 51.363327 
L 561.06 51.398159 
L 561.06 51.398159 
" style="fill:none;stroke:#ff0000;stroke-linecap:square;stroke-width:2;"/>
   </g>
   <g id="line2d_33">
    <path clip-path="url(#p29bf5d4770)" d="M 82.017167 -1 
L 82.819072 0.090852 
L 85.344503 4.320121 
L 87.869935 9.012031 
L 91.237176 15.767906 
L 96.288039 26.48498 
L 106.389765 48.030515 
L 111.440627 58.182362 
L 115.64968 66.117037 
L 119.016921 72.060063 
L 122.384163 77.608534 
L 124.067784 80.226324 
L 124.909595 79.627857 
L 129.118647 71.336052 
L 129.97098 71.568311 
L 130.823313 70.315922 
L 133.380312 65.538848 
L 138.494311 55.937377 
L 141.903643 49.941197 
L 145.312976 44.437751 
L 147.869975 40.720547 
L 149.574641 38.720078 
L 152.13164 36.163969 
L 153.836307 34.722535 
L 155.540973 33.503659 
L 157.245639 32.516665 
L 158.950305 31.769283 
L 160.654971 31.267571 
L 162.359637 31.015665 
L 163.21197 30.984127 
L 164.055561 33.346877 
L 171.64788 60.425123 
L 173.335062 58.001425 
L 175.865835 53.885331 
L 178.396608 49.317772 
L 181.770972 42.714853 
L 185.988927 33.929925 
L 196.112019 12.570427 
L 198.642792 7.723504 
L 201.173564 3.343818 
L 202.860746 0.763775 
L 204.164597 -1 
M 339.028746 -1 
L 340.458104 0.384209 
L 342.121193 1.819221 
L 343.784282 2.971043 
L 345.447371 3.822569 
L 347.11046 4.371704 
L 348.773549 4.632229 
L 350.457426 4.634462 
L 353.014426 4.292487 
L 356.423758 3.72922 
L 358.128424 3.611766 
L 360.685423 3.710355 
L 364.094756 4.187791 
L 375.175086 6.045679 
L 379.436751 6.436363 
L 383.698417 6.570189 
L 384.530126 6.50174 
L 385.361836 6.296543 
L 386.193545 5.959238 
L 387.025254 5.482157 
L 388.688673 4.125573 
L 390.352092 2.242482 
L 392.015511 -0.15123 
L 392.526239 -1 
M 442.749785 -1 
L 442.749785 71.336052 
L 445.249297 71.495228 
L 447.748808 71.963452 
L 450.24832 72.705086 
L 453.581002 73.845778 
L 454.414173 73.945634 
L 455.247343 73.673696 
L 456.080514 72.82201 
L 456.913684 71.513604 
L 458.580025 68.22981 
L 460.246366 64.464143 
L 462.745878 58.196832 
L 465.245389 51.32064 
L 468.578072 41.413219 
L 474.410265 22.969651 
L 477.742947 12.502057 
L 479.409288 7.658391 
L 481.075629 3.383738 
L 481.9088 2.377898 
L 483.575141 2.919081 
L 486.074653 3.376337 
L 491.906846 4.105427 
L 496.905869 4.516397 
L 501.071722 4.658395 
L 501.904893 4.662798 
L 501.904893 30.984127 
L 504.369689 31.082711 
L 506.834485 31.376029 
L 509.299281 31.856874 
L 512.585676 32.76953 
L 515.872071 33.95736 
L 517.515268 34.741298 
L 522.44486 37.555151 
L 523.266459 37.477487 
L 524.909657 38.238075 
L 533.125644 42.656838 
L 533.947242 41.261922 
L 542.984828 9.12995 
L 543.806427 6.774205 
L 553.665612 6.602104 
L 561.06 6.570189 
L 561.06 6.570189 
" style="fill:none;stroke:#ff0000;stroke-linecap:square;stroke-width:2;"/>
   </g>
   <g id="line2d_34">
    <path clip-path="url(#p29bf5d4770)" d="M 82.158844 -1 
L 83.660882 0.472521 
L 87.028124 3.785021 
L 92.078987 9.126811 
L 102.180712 19.915561 
L 107.231575 24.936118 
L 110.598817 28.025226 
L 113.966059 30.833261 
L 116.49149 32.696318 
L 119.016921 34.312286 
L 119.858732 35.839147 
L 128.276837 68.869372 
L 129.118647 71.335329 
L 133.380312 63.287726 
L 137.641978 55.732672 
L 141.05131 50.156641 
L 143.608309 46.310798 
L 146.165309 42.80098 
L 151.279307 36.432327 
L 152.983973 34.617231 
L 154.68864 33.045698 
L 156.393306 31.734345 
L 158.097972 30.697806 
L 159.802638 29.948232 
L 161.507304 29.494721 
L 163.21197 29.342914 
L 164.055561 26.980602 
L 169.117107 9.140415 
L 171.64788 8.639373 
L 175.022244 7.705768 
L 178.396608 6.48049 
L 181.770972 4.983903 
L 185.145336 3.242554 
L 189.363291 0.780152 
L 192.189816 -1 
M 442.749785 -1 
L 442.749785 71.335329 
L 445.249297 71.494507 
L 447.748808 71.96274 
L 450.24832 72.704406 
L 453.581002 73.845507 
L 454.414173 73.945305 
L 455.247343 73.671988 
L 456.080514 72.820621 
L 456.913684 71.512102 
L 458.580025 68.227562 
L 460.246366 64.460226 
L 462.745878 58.189157 
L 465.245389 51.317807 
L 468.578072 41.410901 
L 472.743924 28.16254 
L 480.242459 3.245328 
L 481.075629 1.948269 
L 481.9088 1.554473 
L 483.350057 -1 
M 501.904893 -1 
L 501.904893 29.342914 
L 503.54809 29.427554 
L 505.191287 29.674481 
L 507.656084 30.307853 
L 510.12088 31.187903 
L 513.407275 32.633656 
L 523.266459 37.382613 
L 524.909657 33.184672 
L 528.196051 23.939673 
L 531.482446 13.926624 
L 533.125644 8.761104 
L 533.947242 7.362693 
L 535.59044 7.15015 
L 541.341631 6.856774 
L 542.984828 6.799465 
L 543.806427 6.304534 
L 545.995033 -1 
L 545.995033 -1 
" style="fill:none;stroke:#ff0000;stroke-linecap:square;stroke-width:2;"/>
   </g>
   <g id="line2d_35">
    <path clip-path="url(#p29bf5d4770)" d="M 110.442928 -1 
L 115.64968 19.194049 
L 119.016921 32.49642 
L 119.858732 34.776672 
L 122.384163 36.003497 
L 124.067784 36.630937 
L 125.751405 37.09089 
L 127.435026 37.372893 
L 129.118647 37.46853 
L 130.823313 37.369717 
L 132.527979 37.075239 
L 134.232645 36.571488 
L 135.937312 35.869322 
L 137.641978 34.970349 
L 139.346644 33.871564 
L 141.903643 31.870212 
L 144.460643 29.495908 
L 147.017642 26.82534 
L 151.279307 21.982754 
L 156.393306 16.164811 
L 158.950305 13.505901 
L 161.507304 11.120695 
L 163.21197 9.77507 
L 168.273516 9.268678 
L 169.117107 8.679495 
L 169.960698 5.634539 
L 173.863536 -1 
M 442.749785 -1 
L 442.749785 37.46853 
L 444.416126 37.312487 
L 446.082467 36.837768 
L 447.748808 36.038351 
L 449.415149 34.911178 
L 451.081491 33.461075 
L 452.747832 31.698427 
L 454.414173 29.627996 
L 456.080514 27.252107 
L 457.746855 24.565686 
L 459.413196 21.558452 
L 461.079537 18.201379 
L 462.745878 14.433754 
L 464.412219 10.128587 
L 465.245389 12.095936 
L 467.744901 8.174547 
L 469.411242 6.100868 
L 470.244413 5.264826 
L 470.667689 -1 
M 478.29772 -1 
L 478.576118 -0.546743 
L 479.409288 0.53283 
L 480.242459 1.347043 
L 481.075629 0.451338 
L 481.507319 -1 
M 501.904893 -1 
L 501.904893 9.77507 
L 506.834485 9.651787 
L 512.585676 9.239665 
L 522.44486 8.218845 
L 533.125644 7.138968 
L 533.947242 5.794957 
L 536.011927 -1 
L 536.011927 -1 
" style="fill:none;stroke:#ff0000;stroke-linecap:square;stroke-width:2;"/>
   </g>
   <g id="line2d_36">
    <path clip-path="url(#p29bf5d4770)" d="M 137.966042 -1 
L 147.017642 1.71945 
L 151.279307 3.179331 
L 154.68864 4.563783 
L 157.245639 5.805119 
L 159.802638 7.281915 
L 163.21197 9.625143 
L 164.899152 9.496576 
L 165.742743 9.149534 
L 166.586334 8.664793 
L 168.273516 7.28695 
L 169.960698 5.375653 
L 171.806724 -1 
M 501.904893 -1 
L 501.904893 9.625143 
L 502.726491 9.566646 
L 503.54809 9.391149 
L 505.191287 8.695855 
L 506.834485 7.56088 
L 508.477682 6.012426 
L 510.12088 4.077899 
L 511.764077 1.782167 
L 513.491215 -1 
L 513.491215 -1 
" style="fill:none;stroke:#ff0000;stroke-linecap:square;stroke-width:2;"/>
   </g>
   <g id="line2d_37">
    <path clip-path="url(#p29bf5d4770)" d="M 129.118647 326.72 
L 129.118647 31.92 
" style="fill:none;stroke:#000000;stroke-dasharray:1.85,0.8;stroke-dashoffset:0;stroke-width:0.5;"/>
   </g>
   <g id="line2d_38">
    <path clip-path="url(#p29bf5d4770)" d="M 163.21197 326.72 
L 163.21197 31.92 
" style="fill:none;stroke:#000000;stroke-dasharray:1.85,0.8;stroke-dashoffset:0;stroke-width:0.5;"/>
   </g>
   <g id="line2d_39">
    <path clip-path="url(#p29bf5d4770)" d="M 222.263339 326.72 
L 222.263339 31.92 
" style="fill:none;stroke:#000000;stroke-dasharray:1.85,0.8;stroke-dashoffset:0;stroke-width:0.5;"/>
   </g>
   <g id="line2d_40">
    <path clip-path="url(#p29bf5d4770)" d="M 281.418446 326.72 
L 281.418446 31.92 
" style="fill:none;stroke:#000000;stroke-dasharray:1.85,0.8;stroke-dashoffset:0;stroke-width:0.5;"/>
   </g>
   <g id="line2d_41">
    <path clip-path="url(#p29bf5d4770)" d="M 349.605093 326.72 
L 349.605093 31.92 
" style="fill:none;stroke:#000000;stroke-dasharray:1.85,0.8;stroke-dashoffset:0;stroke-width:0.5;"/>
   </g>
   <g id="line2d_42">
    <path clip-path="url(#p29bf5d4770)" d="M 383.698417 326.72 
L 383.698417 31.92 
" style="fill:none;stroke:#000000;stroke-dasharray:1.85,0.8;stroke-dashoffset:0;stroke-width:0.5;"/>
   </g>
   <g id="line2d_43">
    <path clip-path="url(#p29bf5d4770)" d="M 442.749785 326.72 
L 442.749785 31.92 
" style="fill:none;stroke:#000000;stroke-dasharray:1.85,0.8;stroke-dashoffset:0;stroke-width:0.5;"/>
   </g>
   <g id="line2d_44">
    <path clip-path="url(#p29bf5d4770)" d="M 442.749785 326.72 
L 442.749785 31.92 
" style="fill:none;stroke:#000000;stroke-dasharray:1.85,0.8;stroke-dashoffset:0;stroke-width:0.5;"/>
   </g>
   <g id="line2d_45">
    <path clip-path="url(#p29bf5d4770)" d="M 501.904893 326.72 
L 501.904893 31.92 
" style="fill:none;stroke:#000000;stroke-dasharray:1.85,0.8;stroke-dashoffset:0;stroke-width:0.5;"/>
   </g>
   <g id="line2d_46">
    <path clip-path="url(#p29bf5d4770)" d="M 501.904893 326.72 
L 501.904893 31.92 
" style="fill:none;stroke:#000000;stroke-dasharray:1.85,0.8;stroke-dashoffset:0;stroke-width:0.5;"/>
   </g>
   <g id="line2d_47">
    <path clip-path="url(#p29bf5d4770)" d="M 60.932 179.32 
L 561.06 179.32 
" style="fill:none;stroke:#000000;stroke-dasharray:1.85,0.8;stroke-dashoffset:0;stroke-width:0.5;"/>
   </g>
   <g id="patch_3">
    <path d="M 60.932 326.72 
L 60.932 31.92 
" style="fill:none;stroke:#000000;stroke-linecap:square;stroke-linejoin:miter;stroke-width:0.8;"/>
   </g>
   <g id="patch_4">
    <path d="M 561.06 326.72 
L 561.06 31.92 
" style="fill:none;stroke:#000000;stroke-linecap:square;stroke-linejoin:miter;stroke-width:0.8;"/>
   </g>
   <g id="patch_5">
    <path d="M 60.932 326.72 
L 561.06 326.72 
" style="fill:none;stroke:#000000;stroke-linecap:square;stroke-linejoin:miter;stroke-width:0.8;"/>
   </g>
   <g id="patch_6">
    <path d="M 60.932 31.92 
L 561.06 31.92 
" style="fill:none;stroke:#000000;stroke-linecap:square;stroke-linejoin:miter;stroke-width:0.8;"/>
   </g>
   <g id="text_19">
    <!-- Bandstructure of C$_6$Li -->
    <g transform="translate(214.246 25.92)scale(0.18 -0.18)">
     <defs>
      <path d="M 19.671875 34.8125 
L 19.671875 8.109375 
L 35.5 8.109375 
Q 43.453125 8.109375 47.28125 11.40625 
Q 51.125 14.703125 51.125 21.484375 
Q 51.125 28.328125 47.28125 31.5625 
Q 43.453125 34.8125 35.5 34.8125 
z
M 19.671875 64.796875 
L 19.671875 42.828125 
L 34.28125 42.828125 
Q 41.5 42.828125 45.03125 45.53125 
Q 48.578125 48.25 48.578125 53.8125 
Q 48.578125 59.328125 45.03125 62.0625 
Q 41.5 64.796875 34.28125 64.796875 
z
M 9.8125 72.90625 
L 35.015625 72.90625 
Q 46.296875 72.90625 52.390625 68.21875 
Q 58.5 63.53125 58.5 54.890625 
Q 58.5 48.1875 55.375 44.234375 
Q 52.25 40.28125 46.1875 39.3125 
Q 53.46875 37.75 57.5 32.78125 
Q 61.53125 27.828125 61.53125 20.40625 
Q 61.53125 10.640625 54.890625 5.3125 
Q 48.25 0 35.984375 0 
L 9.8125 0 
z
" id="DejaVuSans-66"/>
      <path d="M 34.28125 27.484375 
Q 23.390625 27.484375 19.1875 25 
Q 14.984375 22.515625 14.984375 16.5 
Q 14.984375 11.71875 18.140625 8.90625 
Q 21.296875 6.109375 26.703125 6.109375 
Q 34.1875 6.109375 38.703125 11.40625 
Q 43.21875 16.703125 43.21875 25.484375 
L 43.21875 27.484375 
z
M 52.203125 31.203125 
L 52.203125 0 
L 43.21875 0 
L 43.21875 8.296875 
Q 40.140625 3.328125 35.546875 0.953125 
Q 30.953125 -1.421875 24.3125 -1.421875 
Q 15.921875 -1.421875 10.953125 3.296875 
Q 6 8.015625 6 15.921875 
Q 6 25.140625 12.171875 29.828125 
Q 18.359375 34.515625 30.609375 34.515625 
L 43.21875 34.515625 
L 43.21875 35.40625 
Q 43.21875 41.609375 39.140625 45 
Q 35.0625 48.390625 27.6875 48.390625 
Q 23 48.390625 18.546875 47.265625 
Q 14.109375 46.140625 10.015625 43.890625 
L 10.015625 52.203125 
Q 14.9375 54.109375 19.578125 55.046875 
Q 24.21875 56 28.609375 56 
Q 40.484375 56 46.34375 49.84375 
Q 52.203125 43.703125 52.203125 31.203125 
z
" id="DejaVuSans-97"/>
      <path d="M 54.890625 33.015625 
L 54.890625 0 
L 45.90625 0 
L 45.90625 32.71875 
Q 45.90625 40.484375 42.875 44.328125 
Q 39.84375 48.1875 33.796875 48.1875 
Q 26.515625 48.1875 22.3125 43.546875 
Q 18.109375 38.921875 18.109375 30.90625 
L 18.109375 0 
L 9.078125 0 
L 9.078125 54.6875 
L 18.109375 54.6875 
L 18.109375 46.1875 
Q 21.34375 51.125 25.703125 53.5625 
Q 30.078125 56 35.796875 56 
Q 45.21875 56 50.046875 50.171875 
Q 54.890625 44.34375 54.890625 33.015625 
z
" id="DejaVuSans-110"/>
      <path d="M 45.40625 46.390625 
L 45.40625 75.984375 
L 54.390625 75.984375 
L 54.390625 0 
L 45.40625 0 
L 45.40625 8.203125 
Q 42.578125 3.328125 38.25 0.953125 
Q 33.9375 -1.421875 27.875 -1.421875 
Q 17.96875 -1.421875 11.734375 6.484375 
Q 5.515625 14.40625 5.515625 27.296875 
Q 5.515625 40.1875 11.734375 48.09375 
Q 17.96875 56 27.875 56 
Q 33.9375 56 38.25 53.625 
Q 42.578125 51.265625 45.40625 46.390625 
z
M 14.796875 27.296875 
Q 14.796875 17.390625 18.875 11.75 
Q 22.953125 6.109375 30.078125 6.109375 
Q 37.203125 6.109375 41.296875 11.75 
Q 45.40625 17.390625 45.40625 27.296875 
Q 45.40625 37.203125 41.296875 42.84375 
Q 37.203125 48.484375 30.078125 48.484375 
Q 22.953125 48.484375 18.875 42.84375 
Q 14.796875 37.203125 14.796875 27.296875 
z
" id="DejaVuSans-100"/>
      <path d="M 44.28125 53.078125 
L 44.28125 44.578125 
Q 40.484375 46.53125 36.375 47.5 
Q 32.28125 48.484375 27.875 48.484375 
Q 21.1875 48.484375 17.84375 46.4375 
Q 14.5 44.390625 14.5 40.28125 
Q 14.5 37.15625 16.890625 35.375 
Q 19.28125 33.59375 26.515625 31.984375 
L 29.59375 31.296875 
Q 39.15625 29.25 43.1875 25.515625 
Q 47.21875 21.78125 47.21875 15.09375 
Q 47.21875 7.46875 41.1875 3.015625 
Q 35.15625 -1.421875 24.609375 -1.421875 
Q 20.21875 -1.421875 15.453125 -0.5625 
Q 10.6875 0.296875 5.421875 2 
L 5.421875 11.28125 
Q 10.40625 8.6875 15.234375 7.390625 
Q 20.0625 6.109375 24.8125 6.109375 
Q 31.15625 6.109375 34.5625 8.28125 
Q 37.984375 10.453125 37.984375 14.40625 
Q 37.984375 18.0625 35.515625 20.015625 
Q 33.0625 21.96875 24.703125 23.78125 
L 21.578125 24.515625 
Q 13.234375 26.265625 9.515625 29.90625 
Q 5.8125 33.546875 5.8125 39.890625 
Q 5.8125 47.609375 11.28125 51.796875 
Q 16.75 56 26.8125 56 
Q 31.78125 56 36.171875 55.265625 
Q 40.578125 54.546875 44.28125 53.078125 
z
" id="DejaVuSans-115"/>
      <path d="M 18.3125 70.21875 
L 18.3125 54.6875 
L 36.8125 54.6875 
L 36.8125 47.703125 
L 18.3125 47.703125 
L 18.3125 18.015625 
Q 18.3125 11.328125 20.140625 9.421875 
Q 21.96875 7.515625 27.59375 7.515625 
L 36.8125 7.515625 
L 36.8125 0 
L 27.59375 0 
Q 17.1875 0 13.234375 3.875 
Q 9.28125 7.765625 9.28125 18.015625 
L 9.28125 47.703125 
L 2.6875 47.703125 
L 2.6875 54.6875 
L 9.28125 54.6875 
L 9.28125 70.21875 
z
" id="DejaVuSans-116"/>
      <path d="M 41.109375 46.296875 
Q 39.59375 47.171875 37.8125 47.578125 
Q 36.03125 48 33.890625 48 
Q 26.265625 48 22.1875 43.046875 
Q 18.109375 38.09375 18.109375 28.8125 
L 18.109375 0 
L 9.078125 0 
L 9.078125 54.6875 
L 18.109375 54.6875 
L 18.109375 46.1875 
Q 20.953125 51.171875 25.484375 53.578125 
Q 30.03125 56 36.53125 56 
Q 37.453125 56 38.578125 55.875 
Q 39.703125 55.765625 41.0625 55.515625 
z
" id="DejaVuSans-114"/>
      <path d="M 8.5 21.578125 
L 8.5 54.6875 
L 17.484375 54.6875 
L 17.484375 21.921875 
Q 17.484375 14.15625 20.5 10.265625 
Q 23.53125 6.390625 29.59375 6.390625 
Q 36.859375 6.390625 41.078125 11.03125 
Q 45.3125 15.671875 45.3125 23.6875 
L 45.3125 54.6875 
L 54.296875 54.6875 
L 54.296875 0 
L 45.3125 0 
L 45.3125 8.40625 
Q 42.046875 3.421875 37.71875 1 
Q 33.40625 -1.421875 27.6875 -1.421875 
Q 18.265625 -1.421875 13.375 4.4375 
Q 8.5 10.296875 8.5 21.578125 
z
M 31.109375 56 
z
" id="DejaVuSans-117"/>
      <path d="M 48.78125 52.59375 
L 48.78125 44.1875 
Q 44.96875 46.296875 41.140625 47.34375 
Q 37.3125 48.390625 33.40625 48.390625 
Q 24.65625 48.390625 19.8125 42.84375 
Q 14.984375 37.3125 14.984375 27.296875 
Q 14.984375 17.28125 19.8125 11.734375 
Q 24.65625 6.203125 33.40625 6.203125 
Q 37.3125 6.203125 41.140625 7.25 
Q 44.96875 8.296875 48.78125 10.40625 
L 48.78125 2.09375 
Q 45.015625 0.34375 40.984375 -0.53125 
Q 36.96875 -1.421875 32.421875 -1.421875 
Q 20.0625 -1.421875 12.78125 6.34375 
Q 5.515625 14.109375 5.515625 27.296875 
Q 5.515625 40.671875 12.859375 48.328125 
Q 20.21875 56 33.015625 56 
Q 37.15625 56 41.109375 55.140625 
Q 45.0625 54.296875 48.78125 52.59375 
z
" id="DejaVuSans-99"/>
      <path d="M 30.609375 48.390625 
Q 23.390625 48.390625 19.1875 42.75 
Q 14.984375 37.109375 14.984375 27.296875 
Q 14.984375 17.484375 19.15625 11.84375 
Q 23.34375 6.203125 30.609375 6.203125 
Q 37.796875 6.203125 41.984375 11.859375 
Q 46.1875 17.53125 46.1875 27.296875 
Q 46.1875 37.015625 41.984375 42.703125 
Q 37.796875 48.390625 30.609375 48.390625 
z
M 30.609375 56 
Q 42.328125 56 49.015625 48.375 
Q 55.71875 40.765625 55.71875 27.296875 
Q 55.71875 13.875 49.015625 6.21875 
Q 42.328125 -1.421875 30.609375 -1.421875 
Q 18.84375 -1.421875 12.171875 6.21875 
Q 5.515625 13.875 5.515625 27.296875 
Q 5.515625 40.765625 12.171875 48.375 
Q 18.84375 56 30.609375 56 
z
" id="DejaVuSans-111"/>
      <path d="M 37.109375 75.984375 
L 37.109375 68.5 
L 28.515625 68.5 
Q 23.6875 68.5 21.796875 66.546875 
Q 19.921875 64.59375 19.921875 59.515625 
L 19.921875 54.6875 
L 34.71875 54.6875 
L 34.71875 47.703125 
L 19.921875 47.703125 
L 19.921875 0 
L 10.890625 0 
L 10.890625 47.703125 
L 2.296875 47.703125 
L 2.296875 54.6875 
L 10.890625 54.6875 
L 10.890625 58.5 
Q 10.890625 67.625 15.140625 71.796875 
Q 19.390625 75.984375 28.609375 75.984375 
z
" id="DejaVuSans-102"/>
      <path d="M 64.40625 67.28125 
L 64.40625 56.890625 
Q 59.421875 61.53125 53.78125 63.8125 
Q 48.140625 66.109375 41.796875 66.109375 
Q 29.296875 66.109375 22.65625 58.46875 
Q 16.015625 50.828125 16.015625 36.375 
Q 16.015625 21.96875 22.65625 14.328125 
Q 29.296875 6.6875 41.796875 6.6875 
Q 48.140625 6.6875 53.78125 8.984375 
Q 59.421875 11.28125 64.40625 15.921875 
L 64.40625 5.609375 
Q 59.234375 2.09375 53.4375 0.328125 
Q 47.65625 -1.421875 41.21875 -1.421875 
Q 24.65625 -1.421875 15.125 8.703125 
Q 5.609375 18.84375 5.609375 36.375 
Q 5.609375 53.953125 15.125 64.078125 
Q 24.65625 74.21875 41.21875 74.21875 
Q 47.75 74.21875 53.53125 72.484375 
Q 59.328125 70.75 64.40625 67.28125 
z
" id="DejaVuSans-67"/>
      <path d="M 33.015625 40.375 
Q 26.375 40.375 22.484375 35.828125 
Q 18.609375 31.296875 18.609375 23.390625 
Q 18.609375 15.53125 22.484375 10.953125 
Q 26.375 6.390625 33.015625 6.390625 
Q 39.65625 6.390625 43.53125 10.953125 
Q 47.40625 15.53125 47.40625 23.390625 
Q 47.40625 31.296875 43.53125 35.828125 
Q 39.65625 40.375 33.015625 40.375 
z
M 52.59375 71.296875 
L 52.59375 62.3125 
Q 48.875 64.0625 45.09375 64.984375 
Q 41.3125 65.921875 37.59375 65.921875 
Q 27.828125 65.921875 22.671875 59.328125 
Q 17.53125 52.734375 16.796875 39.40625 
Q 19.671875 43.65625 24.015625 45.921875 
Q 28.375 48.1875 33.59375 48.1875 
Q 44.578125 48.1875 50.953125 41.515625 
Q 57.328125 34.859375 57.328125 23.390625 
Q 57.328125 12.15625 50.6875 5.359375 
Q 44.046875 -1.421875 33.015625 -1.421875 
Q 20.359375 -1.421875 13.671875 8.265625 
Q 6.984375 17.96875 6.984375 36.375 
Q 6.984375 53.65625 15.1875 63.9375 
Q 23.390625 74.21875 37.203125 74.21875 
Q 40.921875 74.21875 44.703125 73.484375 
Q 48.484375 72.75 52.59375 71.296875 
z
" id="DejaVuSans-54"/>
      <path d="M 9.421875 54.6875 
L 18.40625 54.6875 
L 18.40625 0 
L 9.421875 0 
z
M 9.421875 75.984375 
L 18.40625 75.984375 
L 18.40625 64.59375 
L 9.421875 64.59375 
z
" id="DejaVuSans-105"/>
     </defs>
     <use transform="translate(0 0.015625)" xlink:href="#DejaVuSans-66"/>
     <use transform="translate(68.603516 0.015625)" xlink:href="#DejaVuSans-97"/>
     <use transform="translate(129.882812 0.015625)" xlink:href="#DejaVuSans-110"/>
     <use transform="translate(193.261719 0.015625)" xlink:href="#DejaVuSans-100"/>
     <use transform="translate(256.738281 0.015625)" xlink:href="#DejaVuSans-115"/>
     <use transform="translate(308.837891 0.015625)" xlink:href="#DejaVuSans-116"/>
     <use transform="translate(348.046875 0.015625)" xlink:href="#DejaVuSans-114"/>
     <use transform="translate(389.160156 0.015625)" xlink:href="#DejaVuSans-117"/>
     <use transform="translate(452.539062 0.015625)" xlink:href="#DejaVuSans-99"/>
     <use transform="translate(507.519531 0.015625)" xlink:href="#DejaVuSans-116"/>
     <use transform="translate(546.728516 0.015625)" xlink:href="#DejaVuSans-117"/>
     <use transform="translate(610.107422 0.015625)" xlink:href="#DejaVuSans-114"/>
     <use transform="translate(651.220703 0.015625)" xlink:href="#DejaVuSans-101"/>
     <use transform="translate(712.744141 0.015625)" xlink:href="#DejaVuSans-32"/>
     <use transform="translate(744.53125 0.015625)" xlink:href="#DejaVuSans-111"/>
     <use transform="translate(805.712891 0.015625)" xlink:href="#DejaVuSans-102"/>
     <use transform="translate(840.917969 0.015625)" xlink:href="#DejaVuSans-32"/>
     <use transform="translate(872.705078 0.015625)" xlink:href="#DejaVuSans-67"/>
     <use transform="translate(943.486328 -16.390625)scale(0.7)" xlink:href="#DejaVuSans-54"/>
     <use transform="translate(990.756836 0.015625)" xlink:href="#DejaVuSans-76"/>
     <use transform="translate(1046.469727 0.015625)" xlink:href="#DejaVuSans-105"/>
    </g>
   </g>
  </g>
 </g>
 <defs>
  <clipPath id="p29bf5d4770">
   <rect height="294.8" width="500.128" x="60.932" y="31.92"/>
  </clipPath>
 </defs>
</svg>
