<?xml version="1.0" encoding="utf-8" standalone="no"?>
<!DOCTYPE svg PUBLIC "-//W3C//DTD SVG 1.1//EN"
  "http://www.w3.org/Graphics/SVG/1.1/DTD/svg11.dtd">
<!-- Created with matplotlib (https://matplotlib.org/) -->
<svg height="360pt" version="1.1" viewBox="0 0 360 360" width="360pt" xmlns="http://www.w3.org/2000/svg" xmlns:xlink="http://www.w3.org/1999/xlink">
 <metadata>
  <rdf:RDF xmlns:cc="http://creativecommons.org/ns#" xmlns:dc="http://purl.org/dc/elements/1.1/" xmlns:rdf="http://www.w3.org/1999/02/22-rdf-syntax-ns#">
   <cc:Work>
    <dc:type rdf:resource="http://purl.org/dc/dcmitype/StillImage"/>
    <dc:date>2021-01-10T07:11:04.142748</dc:date>
    <dc:format>image/svg+xml</dc:format>
    <dc:creator>
     <cc:Agent>
      <dc:title>Matplotlib v3.3.3, https://matplotlib.org/</dc:title>
     </cc:Agent>
    </dc:creator>
   </cc:Work>
  </rdf:RDF>
 </metadata>
 <defs>
  <style type="text/css">*{stroke-linecap:butt;stroke-linejoin:round;}</style>
 </defs>
 <g id="figure_1">
  <g id="patch_1">
   <path d="M 0 360 
L 360 360 
L 360 0 
L 0 0 
z
" style="fill:#ffffff;"/>
  </g>
  <g id="axes_1">
   <g id="patch_2">
    <path d="M 52.13 311.128 
L 346.005 311.128 
L 346.005 10.8 
L 52.13 10.8 
z
" style="fill:#ffffff;"/>
   </g>
   <g id="matplotlib.axis_1">
    <g id="xtick_1">
     <g id="line2d_1">
      <defs>
       <path d="M 0 0 
L 0 3.5 
" id="m0d12fc02d7" style="stroke:#000000;stroke-width:0.8;"/>
      </defs>
      <g>
       <use style="stroke:#000000;stroke-width:0.8;" x="52.13" xlink:href="#m0d12fc02d7" y="311.128"/>
      </g>
     </g>
     <g id="text_1">
      <!-- −8 -->
      <g transform="translate(44.758906 325.726437)scale(0.1 -0.1)">
       <defs>
        <path d="M 10.59375 35.5 
L 73.1875 35.5 
L 73.1875 27.203125 
L 10.59375 27.203125 
z
" id="DejaVuSans-8722"/>
        <path d="M 31.78125 34.625 
Q 24.75 34.625 20.71875 30.859375 
Q 16.703125 27.09375 16.703125 20.515625 
Q 16.703125 13.921875 20.71875 10.15625 
Q 24.75 6.390625 31.78125 6.390625 
Q 38.8125 6.390625 42.859375 10.171875 
Q 46.921875 13.96875 46.921875 20.515625 
Q 46.921875 27.09375 42.890625 30.859375 
Q 38.875 34.625 31.78125 34.625 
z
M 21.921875 38.8125 
Q 15.578125 40.375 12.03125 44.71875 
Q 8.5 49.078125 8.5 55.328125 
Q 8.5 64.0625 14.71875 69.140625 
Q 20.953125 74.21875 31.78125 74.21875 
Q 42.671875 74.21875 48.875 69.140625 
Q 55.078125 64.0625 55.078125 55.328125 
Q 55.078125 49.078125 51.53125 44.71875 
Q 48 40.375 41.703125 38.8125 
Q 48.828125 37.15625 52.796875 32.3125 
Q 56.78125 27.484375 56.78125 20.515625 
Q 56.78125 9.90625 50.3125 4.234375 
Q 43.84375 -1.421875 31.78125 -1.421875 
Q 19.734375 -1.421875 13.25 4.234375 
Q 6.78125 9.90625 6.78125 20.515625 
Q 6.78125 27.484375 10.78125 32.3125 
Q 14.796875 37.15625 21.921875 38.8125 
z
M 18.3125 54.390625 
Q 18.3125 48.734375 21.84375 45.5625 
Q 25.390625 42.390625 31.78125 42.390625 
Q 38.140625 42.390625 41.71875 45.5625 
Q 45.3125 48.734375 45.3125 54.390625 
Q 45.3125 60.0625 41.71875 63.234375 
Q 38.140625 66.40625 31.78125 66.40625 
Q 25.390625 66.40625 21.84375 63.234375 
Q 18.3125 60.0625 18.3125 54.390625 
z
" id="DejaVuSans-56"/>
       </defs>
       <use xlink:href="#DejaVuSans-8722"/>
       <use x="83.789062" xlink:href="#DejaVuSans-56"/>
      </g>
     </g>
    </g>
    <g id="xtick_2">
     <g id="line2d_2">
      <g>
       <use style="stroke:#000000;stroke-width:0.8;" x="88.864375" xlink:href="#m0d12fc02d7" y="311.128"/>
      </g>
     </g>
     <g id="text_2">
      <!-- −6 -->
      <g transform="translate(81.493281 325.726437)scale(0.1 -0.1)">
       <defs>
        <path d="M 33.015625 40.375 
Q 26.375 40.375 22.484375 35.828125 
Q 18.609375 31.296875 18.609375 23.390625 
Q 18.609375 15.53125 22.484375 10.953125 
Q 26.375 6.390625 33.015625 6.390625 
Q 39.65625 6.390625 43.53125 10.953125 
Q 47.40625 15.53125 47.40625 23.390625 
Q 47.40625 31.296875 43.53125 35.828125 
Q 39.65625 40.375 33.015625 40.375 
z
M 52.59375 71.296875 
L 52.59375 62.3125 
Q 48.875 64.0625 45.09375 64.984375 
Q 41.3125 65.921875 37.59375 65.921875 
Q 27.828125 65.921875 22.671875 59.328125 
Q 17.53125 52.734375 16.796875 39.40625 
Q 19.671875 43.65625 24.015625 45.921875 
Q 28.375 48.1875 33.59375 48.1875 
Q 44.578125 48.1875 50.953125 41.515625 
Q 57.328125 34.859375 57.328125 23.390625 
Q 57.328125 12.15625 50.6875 5.359375 
Q 44.046875 -1.421875 33.015625 -1.421875 
Q 20.359375 -1.421875 13.671875 8.265625 
Q 6.984375 17.96875 6.984375 36.375 
Q 6.984375 53.65625 15.1875 63.9375 
Q 23.390625 74.21875 37.203125 74.21875 
Q 40.921875 74.21875 44.703125 73.484375 
Q 48.484375 72.75 52.59375 71.296875 
z
" id="DejaVuSans-54"/>
       </defs>
       <use xlink:href="#DejaVuSans-8722"/>
       <use x="83.789062" xlink:href="#DejaVuSans-54"/>
      </g>
     </g>
    </g>
    <g id="xtick_3">
     <g id="line2d_3">
      <g>
       <use style="stroke:#000000;stroke-width:0.8;" x="125.59875" xlink:href="#m0d12fc02d7" y="311.128"/>
      </g>
     </g>
     <g id="text_3">
      <!-- −4 -->
      <g transform="translate(118.227656 325.726437)scale(0.1 -0.1)">
       <defs>
        <path d="M 37.796875 64.3125 
L 12.890625 25.390625 
L 37.796875 25.390625 
z
M 35.203125 72.90625 
L 47.609375 72.90625 
L 47.609375 25.390625 
L 58.015625 25.390625 
L 58.015625 17.1875 
L 47.609375 17.1875 
L 47.609375 0 
L 37.796875 0 
L 37.796875 17.1875 
L 4.890625 17.1875 
L 4.890625 26.703125 
z
" id="DejaVuSans-52"/>
       </defs>
       <use xlink:href="#DejaVuSans-8722"/>
       <use x="83.789062" xlink:href="#DejaVuSans-52"/>
      </g>
     </g>
    </g>
    <g id="xtick_4">
     <g id="line2d_4">
      <g>
       <use style="stroke:#000000;stroke-width:0.8;" x="162.333125" xlink:href="#m0d12fc02d7" y="311.128"/>
      </g>
     </g>
     <g id="text_4">
      <!-- −2 -->
      <g transform="translate(154.962031 325.726437)scale(0.1 -0.1)">
       <defs>
        <path d="M 19.1875 8.296875 
L 53.609375 8.296875 
L 53.609375 0 
L 7.328125 0 
L 7.328125 8.296875 
Q 12.9375 14.109375 22.625 23.890625 
Q 32.328125 33.6875 34.8125 36.53125 
Q 39.546875 41.84375 41.421875 45.53125 
Q 43.3125 49.21875 43.3125 52.78125 
Q 43.3125 58.59375 39.234375 62.25 
Q 35.15625 65.921875 28.609375 65.921875 
Q 23.96875 65.921875 18.8125 64.3125 
Q 13.671875 62.703125 7.8125 59.421875 
L 7.8125 69.390625 
Q 13.765625 71.78125 18.9375 73 
Q 24.125 74.21875 28.421875 74.21875 
Q 39.75 74.21875 46.484375 68.546875 
Q 53.21875 62.890625 53.21875 53.421875 
Q 53.21875 48.921875 51.53125 44.890625 
Q 49.859375 40.875 45.40625 35.40625 
Q 44.1875 33.984375 37.640625 27.21875 
Q 31.109375 20.453125 19.1875 8.296875 
z
" id="DejaVuSans-50"/>
       </defs>
       <use xlink:href="#DejaVuSans-8722"/>
       <use x="83.789062" xlink:href="#DejaVuSans-50"/>
      </g>
     </g>
    </g>
    <g id="xtick_5">
     <g id="line2d_5">
      <g>
       <use style="stroke:#000000;stroke-width:0.8;" x="199.0675" xlink:href="#m0d12fc02d7" y="311.128"/>
      </g>
     </g>
     <g id="text_5">
      <!-- 0 -->
      <g transform="translate(195.88625 325.726437)scale(0.1 -0.1)">
       <defs>
        <path d="M 31.78125 66.40625 
Q 24.171875 66.40625 20.328125 58.90625 
Q 16.5 51.421875 16.5 36.375 
Q 16.5 21.390625 20.328125 13.890625 
Q 24.171875 6.390625 31.78125 6.390625 
Q 39.453125 6.390625 43.28125 13.890625 
Q 47.125 21.390625 47.125 36.375 
Q 47.125 51.421875 43.28125 58.90625 
Q 39.453125 66.40625 31.78125 66.40625 
z
M 31.78125 74.21875 
Q 44.046875 74.21875 50.515625 64.515625 
Q 56.984375 54.828125 56.984375 36.375 
Q 56.984375 17.96875 50.515625 8.265625 
Q 44.046875 -1.421875 31.78125 -1.421875 
Q 19.53125 -1.421875 13.0625 8.265625 
Q 6.59375 17.96875 6.59375 36.375 
Q 6.59375 54.828125 13.0625 64.515625 
Q 19.53125 74.21875 31.78125 74.21875 
z
" id="DejaVuSans-48"/>
       </defs>
       <use xlink:href="#DejaVuSans-48"/>
      </g>
     </g>
    </g>
    <g id="xtick_6">
     <g id="line2d_6">
      <g>
       <use style="stroke:#000000;stroke-width:0.8;" x="235.801875" xlink:href="#m0d12fc02d7" y="311.128"/>
      </g>
     </g>
     <g id="text_6">
      <!-- 2 -->
      <g transform="translate(232.620625 325.726437)scale(0.1 -0.1)">
       <use xlink:href="#DejaVuSans-50"/>
      </g>
     </g>
    </g>
    <g id="xtick_7">
     <g id="line2d_7">
      <g>
       <use style="stroke:#000000;stroke-width:0.8;" x="272.53625" xlink:href="#m0d12fc02d7" y="311.128"/>
      </g>
     </g>
     <g id="text_7">
      <!-- 4 -->
      <g transform="translate(269.355 325.726437)scale(0.1 -0.1)">
       <use xlink:href="#DejaVuSans-52"/>
      </g>
     </g>
    </g>
    <g id="xtick_8">
     <g id="line2d_8">
      <g>
       <use style="stroke:#000000;stroke-width:0.8;" x="309.270625" xlink:href="#m0d12fc02d7" y="311.128"/>
      </g>
     </g>
     <g id="text_8">
      <!-- 6 -->
      <g transform="translate(306.089375 325.726437)scale(0.1 -0.1)">
       <use xlink:href="#DejaVuSans-54"/>
      </g>
     </g>
    </g>
    <g id="xtick_9">
     <g id="line2d_9">
      <g>
       <use style="stroke:#000000;stroke-width:0.8;" x="346.005" xlink:href="#m0d12fc02d7" y="311.128"/>
      </g>
     </g>
     <g id="text_9">
      <!-- 8 -->
      <g transform="translate(342.82375 325.726437)scale(0.1 -0.1)">
       <use xlink:href="#DejaVuSans-56"/>
      </g>
     </g>
    </g>
    <g id="text_10">
     <!-- $\varepsilon_n(k) - \varepsilon_{\mathrm{F}}$ (eV) -->
     <g transform="translate(146.7925 343.203781)scale(0.15 -0.15)">
      <defs>
       <path d="M 19.734375 29.5 
Q 14.453125 30.671875 12.15625 33.84375 
Q 10.453125 36.078125 10.453125 39.109375 
Q 10.453125 47.40625 18.359375 52.25 
Q 24.609375 56.0625 34.1875 56.0625 
Q 37.890625 56.0625 41.9375 55.46875 
Q 46 54.890625 50.53125 53.71875 
L 48.96875 45.5625 
Q 44.484375 46.96875 40.71875 47.609375 
Q 36.859375 48.25 33.40625 48.25 
Q 27.59375 48.25 23.78125 46 
Q 19.1875 43.3125 19.1875 39.40625 
Q 19.1875 36.8125 21.578125 35.015625 
Q 24.421875 32.859375 30.078125 32.859375 
L 37.640625 32.859375 
L 36.234375 25.4375 
L 29 25.4375 
Q 22.265625 25.4375 18.3125 22.953125 
Q 12.9375 19.578125 12.9375 14.3125 
Q 12.9375 10.984375 15.828125 8.796875 
Q 19.4375 6.0625 26.8125 6.0625 
Q 31.34375 6.0625 35.6875 6.9375 
Q 40.046875 7.859375 43.84375 9.671875 
L 42.1875 1.3125 
Q 37.546875 -0.046875 33.296875 -0.734375 
Q 29.046875 -1.421875 25.140625 -1.421875 
Q 13.53125 -1.421875 8.0625 3.03125 
Q 3.90625 6.453125 3.90625 12.203125 
Q 3.90625 19.96875 9.375 24.75 
Q 13.421875 28.328125 19.734375 29.5 
z
" id="DejaVuSans-Oblique-949"/>
       <path d="M 55.71875 33.015625 
L 49.3125 0 
L 40.28125 0 
L 46.6875 32.671875 
Q 47.125 34.96875 47.359375 36.71875 
Q 47.609375 38.484375 47.609375 39.5 
Q 47.609375 43.609375 45.015625 45.890625 
Q 42.4375 48.1875 37.796875 48.1875 
Q 30.5625 48.1875 25.34375 43.375 
Q 20.125 38.578125 18.5 30.328125 
L 12.5 0 
L 3.515625 0 
L 14.109375 54.6875 
L 23.09375 54.6875 
L 21.296875 46.09375 
Q 25.046875 50.828125 30.3125 53.40625 
Q 35.59375 56 41.40625 56 
Q 48.640625 56 52.609375 52.09375 
Q 56.59375 48.1875 56.59375 41.109375 
Q 56.59375 39.359375 56.375 37.359375 
Q 56.15625 35.359375 55.71875 33.015625 
z
" id="DejaVuSans-Oblique-110"/>
       <path d="M 31 75.875 
Q 24.46875 64.65625 21.28125 53.65625 
Q 18.109375 42.671875 18.109375 31.390625 
Q 18.109375 20.125 21.3125 9.0625 
Q 24.515625 -2 31 -13.1875 
L 23.1875 -13.1875 
Q 15.875 -1.703125 12.234375 9.375 
Q 8.59375 20.453125 8.59375 31.390625 
Q 8.59375 42.28125 12.203125 53.3125 
Q 15.828125 64.359375 23.1875 75.875 
z
" id="DejaVuSans-40"/>
       <path d="M 18.3125 75.984375 
L 27.296875 75.984375 
L 18.703125 31.6875 
L 49.515625 54.6875 
L 61.1875 54.6875 
L 26.8125 28.515625 
L 51.90625 0 
L 41.015625 0 
L 17.671875 26.703125 
L 12.5 0 
L 3.515625 0 
z
" id="DejaVuSans-Oblique-107"/>
       <path d="M 8.015625 75.875 
L 15.828125 75.875 
Q 23.140625 64.359375 26.78125 53.3125 
Q 30.421875 42.28125 30.421875 31.390625 
Q 30.421875 20.453125 26.78125 9.375 
Q 23.140625 -1.703125 15.828125 -13.1875 
L 8.015625 -13.1875 
Q 14.5 -2 17.703125 9.0625 
Q 20.90625 20.125 20.90625 31.390625 
Q 20.90625 42.671875 17.703125 53.65625 
Q 14.5 64.65625 8.015625 75.875 
z
" id="DejaVuSans-41"/>
       <path d="M 9.8125 72.90625 
L 51.703125 72.90625 
L 51.703125 64.59375 
L 19.671875 64.59375 
L 19.671875 43.109375 
L 48.578125 43.109375 
L 48.578125 34.8125 
L 19.671875 34.8125 
L 19.671875 0 
L 9.8125 0 
z
" id="DejaVuSans-70"/>
       <path id="DejaVuSans-32"/>
       <path d="M 56.203125 29.59375 
L 56.203125 25.203125 
L 14.890625 25.203125 
Q 15.484375 15.921875 20.484375 11.0625 
Q 25.484375 6.203125 34.421875 6.203125 
Q 39.59375 6.203125 44.453125 7.46875 
Q 49.3125 8.734375 54.109375 11.28125 
L 54.109375 2.78125 
Q 49.265625 0.734375 44.1875 -0.34375 
Q 39.109375 -1.421875 33.890625 -1.421875 
Q 20.796875 -1.421875 13.15625 6.1875 
Q 5.515625 13.8125 5.515625 26.8125 
Q 5.515625 40.234375 12.765625 48.109375 
Q 20.015625 56 32.328125 56 
Q 43.359375 56 49.78125 48.890625 
Q 56.203125 41.796875 56.203125 29.59375 
z
M 47.21875 32.234375 
Q 47.125 39.59375 43.09375 43.984375 
Q 39.0625 48.390625 32.421875 48.390625 
Q 24.90625 48.390625 20.390625 44.140625 
Q 15.875 39.890625 15.1875 32.171875 
z
" id="DejaVuSans-101"/>
       <path d="M 28.609375 0 
L 0.78125 72.90625 
L 11.078125 72.90625 
L 34.1875 11.53125 
L 57.328125 72.90625 
L 67.578125 72.90625 
L 39.796875 0 
z
" id="DejaVuSans-86"/>
      </defs>
      <use transform="translate(0 0.015625)" xlink:href="#DejaVuSans-Oblique-949"/>
      <use transform="translate(54.052734 -16.390625)scale(0.7)" xlink:href="#DejaVuSans-Oblique-110"/>
      <use transform="translate(101.152344 0.015625)" xlink:href="#DejaVuSans-40"/>
      <use transform="translate(140.166016 0.015625)" xlink:href="#DejaVuSans-Oblique-107"/>
      <use transform="translate(198.076172 0.015625)" xlink:href="#DejaVuSans-41"/>
      <use transform="translate(256.572266 0.015625)" xlink:href="#DejaVuSans-8722"/>
      <use transform="translate(359.84375 0.015625)" xlink:href="#DejaVuSans-Oblique-949"/>
      <use transform="translate(413.896484 -16.390625)scale(0.7)" xlink:href="#DejaVuSans-70"/>
      <use transform="translate(456.894531 0.015625)" xlink:href="#DejaVuSans-32"/>
      <use transform="translate(488.681641 0.015625)" xlink:href="#DejaVuSans-40"/>
      <use transform="translate(527.695312 0.015625)" xlink:href="#DejaVuSans-101"/>
      <use transform="translate(589.21875 0.015625)" xlink:href="#DejaVuSans-86"/>
      <use transform="translate(657.626953 0.015625)" xlink:href="#DejaVuSans-41"/>
     </g>
    </g>
   </g>
   <g id="matplotlib.axis_2">
    <g id="ytick_1">
     <g id="line2d_10">
      <defs>
       <path d="M 0 0 
L -3.5 0 
" id="m3cfa957684" style="stroke:#000000;stroke-width:0.8;"/>
      </defs>
      <g>
       <use style="stroke:#000000;stroke-width:0.8;" x="52.13" xlink:href="#m3cfa957684" y="311.128"/>
      </g>
     </g>
     <g id="text_11">
      <!-- 0.0 -->
      <g transform="translate(29.226875 314.927219)scale(0.1 -0.1)">
       <defs>
        <path d="M 10.6875 12.40625 
L 21 12.40625 
L 21 0 
L 10.6875 0 
z
" id="DejaVuSans-46"/>
       </defs>
       <use xlink:href="#DejaVuSans-48"/>
       <use x="63.623047" xlink:href="#DejaVuSans-46"/>
       <use x="95.410156" xlink:href="#DejaVuSans-48"/>
      </g>
     </g>
    </g>
    <g id="ytick_2">
     <g id="line2d_11">
      <g>
       <use style="stroke:#000000;stroke-width:0.8;" x="52.13" xlink:href="#m3cfa957684" y="264.66968"/>
      </g>
     </g>
     <g id="text_12">
      <!-- 0.5 -->
      <g transform="translate(29.226875 268.468899)scale(0.1 -0.1)">
       <defs>
        <path d="M 10.796875 72.90625 
L 49.515625 72.90625 
L 49.515625 64.59375 
L 19.828125 64.59375 
L 19.828125 46.734375 
Q 21.96875 47.46875 24.109375 47.828125 
Q 26.265625 48.1875 28.421875 48.1875 
Q 40.625 48.1875 47.75 41.5 
Q 54.890625 34.8125 54.890625 23.390625 
Q 54.890625 11.625 47.5625 5.09375 
Q 40.234375 -1.421875 26.90625 -1.421875 
Q 22.3125 -1.421875 17.546875 -0.640625 
Q 12.796875 0.140625 7.71875 1.703125 
L 7.71875 11.625 
Q 12.109375 9.234375 16.796875 8.0625 
Q 21.484375 6.890625 26.703125 6.890625 
Q 35.15625 6.890625 40.078125 11.328125 
Q 45.015625 15.765625 45.015625 23.390625 
Q 45.015625 31 40.078125 35.4375 
Q 35.15625 39.890625 26.703125 39.890625 
Q 22.75 39.890625 18.8125 39.015625 
Q 14.890625 38.140625 10.796875 36.28125 
z
" id="DejaVuSans-53"/>
       </defs>
       <use xlink:href="#DejaVuSans-48"/>
       <use x="63.623047" xlink:href="#DejaVuSans-46"/>
       <use x="95.410156" xlink:href="#DejaVuSans-53"/>
      </g>
     </g>
    </g>
    <g id="ytick_3">
     <g id="line2d_12">
      <g>
       <use style="stroke:#000000;stroke-width:0.8;" x="52.13" xlink:href="#m3cfa957684" y="218.211361"/>
      </g>
     </g>
     <g id="text_13">
      <!-- 1.0 -->
      <g transform="translate(29.226875 222.01058)scale(0.1 -0.1)">
       <defs>
        <path d="M 12.40625 8.296875 
L 28.515625 8.296875 
L 28.515625 63.921875 
L 10.984375 60.40625 
L 10.984375 69.390625 
L 28.421875 72.90625 
L 38.28125 72.90625 
L 38.28125 8.296875 
L 54.390625 8.296875 
L 54.390625 0 
L 12.40625 0 
z
" id="DejaVuSans-49"/>
       </defs>
       <use xlink:href="#DejaVuSans-49"/>
       <use x="63.623047" xlink:href="#DejaVuSans-46"/>
       <use x="95.410156" xlink:href="#DejaVuSans-48"/>
      </g>
     </g>
    </g>
    <g id="ytick_4">
     <g id="line2d_13">
      <g>
       <use style="stroke:#000000;stroke-width:0.8;" x="52.13" xlink:href="#m3cfa957684" y="171.753041"/>
      </g>
     </g>
     <g id="text_14">
      <!-- 1.5 -->
      <g transform="translate(29.226875 175.55226)scale(0.1 -0.1)">
       <use xlink:href="#DejaVuSans-49"/>
       <use x="63.623047" xlink:href="#DejaVuSans-46"/>
       <use x="95.410156" xlink:href="#DejaVuSans-53"/>
      </g>
     </g>
    </g>
    <g id="ytick_5">
     <g id="line2d_14">
      <g>
       <use style="stroke:#000000;stroke-width:0.8;" x="52.13" xlink:href="#m3cfa957684" y="125.294722"/>
      </g>
     </g>
     <g id="text_15">
      <!-- 2.0 -->
      <g transform="translate(29.226875 129.093941)scale(0.1 -0.1)">
       <use xlink:href="#DejaVuSans-50"/>
       <use x="63.623047" xlink:href="#DejaVuSans-46"/>
       <use x="95.410156" xlink:href="#DejaVuSans-48"/>
      </g>
     </g>
    </g>
    <g id="ytick_6">
     <g id="line2d_15">
      <g>
       <use style="stroke:#000000;stroke-width:0.8;" x="52.13" xlink:href="#m3cfa957684" y="78.836402"/>
      </g>
     </g>
     <g id="text_16">
      <!-- 2.5 -->
      <g transform="translate(29.226875 82.635621)scale(0.1 -0.1)">
       <use xlink:href="#DejaVuSans-50"/>
       <use x="63.623047" xlink:href="#DejaVuSans-46"/>
       <use x="95.410156" xlink:href="#DejaVuSans-53"/>
      </g>
     </g>
    </g>
    <g id="ytick_7">
     <g id="line2d_16">
      <g>
       <use style="stroke:#000000;stroke-width:0.8;" x="52.13" xlink:href="#m3cfa957684" y="32.378083"/>
      </g>
     </g>
     <g id="text_17">
      <!-- 3.0 -->
      <g transform="translate(29.226875 36.177301)scale(0.1 -0.1)">
       <defs>
        <path d="M 40.578125 39.3125 
Q 47.65625 37.796875 51.625 33 
Q 55.609375 28.21875 55.609375 21.1875 
Q 55.609375 10.40625 48.1875 4.484375 
Q 40.765625 -1.421875 27.09375 -1.421875 
Q 22.515625 -1.421875 17.65625 -0.515625 
Q 12.796875 0.390625 7.625 2.203125 
L 7.625 11.71875 
Q 11.71875 9.328125 16.59375 8.109375 
Q 21.484375 6.890625 26.8125 6.890625 
Q 36.078125 6.890625 40.9375 10.546875 
Q 45.796875 14.203125 45.796875 21.1875 
Q 45.796875 27.640625 41.28125 31.265625 
Q 36.765625 34.90625 28.71875 34.90625 
L 20.21875 34.90625 
L 20.21875 43.015625 
L 29.109375 43.015625 
Q 36.375 43.015625 40.234375 45.921875 
Q 44.09375 48.828125 44.09375 54.296875 
Q 44.09375 59.90625 40.109375 62.90625 
Q 36.140625 65.921875 28.71875 65.921875 
Q 24.65625 65.921875 20.015625 65.03125 
Q 15.375 64.15625 9.8125 62.3125 
L 9.8125 71.09375 
Q 15.4375 72.65625 20.34375 73.4375 
Q 25.25 74.21875 29.59375 74.21875 
Q 40.828125 74.21875 47.359375 69.109375 
Q 53.90625 64.015625 53.90625 55.328125 
Q 53.90625 49.265625 50.4375 45.09375 
Q 46.96875 40.921875 40.578125 39.3125 
z
" id="DejaVuSans-51"/>
       </defs>
       <use xlink:href="#DejaVuSans-51"/>
       <use x="63.623047" xlink:href="#DejaVuSans-46"/>
       <use x="95.410156" xlink:href="#DejaVuSans-48"/>
      </g>
     </g>
    </g>
    <g id="text_18">
     <!-- Density of States (1/eV) -->
     <g transform="translate(22.107344 250.512828)rotate(-90)scale(0.15 -0.15)">
      <defs>
       <path d="M 19.671875 64.796875 
L 19.671875 8.109375 
L 31.59375 8.109375 
Q 46.6875 8.109375 53.6875 14.9375 
Q 60.6875 21.78125 60.6875 36.53125 
Q 60.6875 51.171875 53.6875 57.984375 
Q 46.6875 64.796875 31.59375 64.796875 
z
M 9.8125 72.90625 
L 30.078125 72.90625 
Q 51.265625 72.90625 61.171875 64.09375 
Q 71.09375 55.28125 71.09375 36.53125 
Q 71.09375 17.671875 61.125 8.828125 
Q 51.171875 0 30.078125 0 
L 9.8125 0 
z
" id="DejaVuSans-68"/>
       <path d="M 54.890625 33.015625 
L 54.890625 0 
L 45.90625 0 
L 45.90625 32.71875 
Q 45.90625 40.484375 42.875 44.328125 
Q 39.84375 48.1875 33.796875 48.1875 
Q 26.515625 48.1875 22.3125 43.546875 
Q 18.109375 38.921875 18.109375 30.90625 
L 18.109375 0 
L 9.078125 0 
L 9.078125 54.6875 
L 18.109375 54.6875 
L 18.109375 46.1875 
Q 21.34375 51.125 25.703125 53.5625 
Q 30.078125 56 35.796875 56 
Q 45.21875 56 50.046875 50.171875 
Q 54.890625 44.34375 54.890625 33.015625 
z
" id="DejaVuSans-110"/>
       <path d="M 44.28125 53.078125 
L 44.28125 44.578125 
Q 40.484375 46.53125 36.375 47.5 
Q 32.28125 48.484375 27.875 48.484375 
Q 21.1875 48.484375 17.84375 46.4375 
Q 14.5 44.390625 14.5 40.28125 
Q 14.5 37.15625 16.890625 35.375 
Q 19.28125 33.59375 26.515625 31.984375 
L 29.59375 31.296875 
Q 39.15625 29.25 43.1875 25.515625 
Q 47.21875 21.78125 47.21875 15.09375 
Q 47.21875 7.46875 41.1875 3.015625 
Q 35.15625 -1.421875 24.609375 -1.421875 
Q 20.21875 -1.421875 15.453125 -0.5625 
Q 10.6875 0.296875 5.421875 2 
L 5.421875 11.28125 
Q 10.40625 8.6875 15.234375 7.390625 
Q 20.0625 6.109375 24.8125 6.109375 
Q 31.15625 6.109375 34.5625 8.28125 
Q 37.984375 10.453125 37.984375 14.40625 
Q 37.984375 18.0625 35.515625 20.015625 
Q 33.0625 21.96875 24.703125 23.78125 
L 21.578125 24.515625 
Q 13.234375 26.265625 9.515625 29.90625 
Q 5.8125 33.546875 5.8125 39.890625 
Q 5.8125 47.609375 11.28125 51.796875 
Q 16.75 56 26.8125 56 
Q 31.78125 56 36.171875 55.265625 
Q 40.578125 54.546875 44.28125 53.078125 
z
" id="DejaVuSans-115"/>
       <path d="M 9.421875 54.6875 
L 18.40625 54.6875 
L 18.40625 0 
L 9.421875 0 
z
M 9.421875 75.984375 
L 18.40625 75.984375 
L 18.40625 64.59375 
L 9.421875 64.59375 
z
" id="DejaVuSans-105"/>
       <path d="M 18.3125 70.21875 
L 18.3125 54.6875 
L 36.8125 54.6875 
L 36.8125 47.703125 
L 18.3125 47.703125 
L 18.3125 18.015625 
Q 18.3125 11.328125 20.140625 9.421875 
Q 21.96875 7.515625 27.59375 7.515625 
L 36.8125 7.515625 
L 36.8125 0 
L 27.59375 0 
Q 17.1875 0 13.234375 3.875 
Q 9.28125 7.765625 9.28125 18.015625 
L 9.28125 47.703125 
L 2.6875 47.703125 
L 2.6875 54.6875 
L 9.28125 54.6875 
L 9.28125 70.21875 
z
" id="DejaVuSans-116"/>
       <path d="M 32.171875 -5.078125 
Q 28.375 -14.84375 24.75 -17.8125 
Q 21.140625 -20.796875 15.09375 -20.796875 
L 7.90625 -20.796875 
L 7.90625 -13.28125 
L 13.1875 -13.28125 
Q 16.890625 -13.28125 18.9375 -11.515625 
Q 21 -9.765625 23.484375 -3.21875 
L 25.09375 0.875 
L 2.984375 54.6875 
L 12.5 54.6875 
L 29.59375 11.921875 
L 46.6875 54.6875 
L 56.203125 54.6875 
z
" id="DejaVuSans-121"/>
       <path d="M 30.609375 48.390625 
Q 23.390625 48.390625 19.1875 42.75 
Q 14.984375 37.109375 14.984375 27.296875 
Q 14.984375 17.484375 19.15625 11.84375 
Q 23.34375 6.203125 30.609375 6.203125 
Q 37.796875 6.203125 41.984375 11.859375 
Q 46.1875 17.53125 46.1875 27.296875 
Q 46.1875 37.015625 41.984375 42.703125 
Q 37.796875 48.390625 30.609375 48.390625 
z
M 30.609375 56 
Q 42.328125 56 49.015625 48.375 
Q 55.71875 40.765625 55.71875 27.296875 
Q 55.71875 13.875 49.015625 6.21875 
Q 42.328125 -1.421875 30.609375 -1.421875 
Q 18.84375 -1.421875 12.171875 6.21875 
Q 5.515625 13.875 5.515625 27.296875 
Q 5.515625 40.765625 12.171875 48.375 
Q 18.84375 56 30.609375 56 
z
" id="DejaVuSans-111"/>
       <path d="M 37.109375 75.984375 
L 37.109375 68.5 
L 28.515625 68.5 
Q 23.6875 68.5 21.796875 66.546875 
Q 19.921875 64.59375 19.921875 59.515625 
L 19.921875 54.6875 
L 34.71875 54.6875 
L 34.71875 47.703125 
L 19.921875 47.703125 
L 19.921875 0 
L 10.890625 0 
L 10.890625 47.703125 
L 2.296875 47.703125 
L 2.296875 54.6875 
L 10.890625 54.6875 
L 10.890625 58.5 
Q 10.890625 67.625 15.140625 71.796875 
Q 19.390625 75.984375 28.609375 75.984375 
z
" id="DejaVuSans-102"/>
       <path d="M 53.515625 70.515625 
L 53.515625 60.890625 
Q 47.90625 63.578125 42.921875 64.890625 
Q 37.9375 66.21875 33.296875 66.21875 
Q 25.25 66.21875 20.875 63.09375 
Q 16.5 59.96875 16.5 54.203125 
Q 16.5 49.359375 19.40625 46.890625 
Q 22.3125 44.4375 30.421875 42.921875 
L 36.375 41.703125 
Q 47.40625 39.59375 52.65625 34.296875 
Q 57.90625 29 57.90625 20.125 
Q 57.90625 9.515625 50.796875 4.046875 
Q 43.703125 -1.421875 29.984375 -1.421875 
Q 24.8125 -1.421875 18.96875 -0.25 
Q 13.140625 0.921875 6.890625 3.21875 
L 6.890625 13.375 
Q 12.890625 10.015625 18.65625 8.296875 
Q 24.421875 6.59375 29.984375 6.59375 
Q 38.421875 6.59375 43.015625 9.90625 
Q 47.609375 13.234375 47.609375 19.390625 
Q 47.609375 24.75 44.3125 27.78125 
Q 41.015625 30.8125 33.5 32.328125 
L 27.484375 33.5 
Q 16.453125 35.6875 11.515625 40.375 
Q 6.59375 45.0625 6.59375 53.421875 
Q 6.59375 63.09375 13.40625 68.65625 
Q 20.21875 74.21875 32.171875 74.21875 
Q 37.3125 74.21875 42.625 73.28125 
Q 47.953125 72.359375 53.515625 70.515625 
z
" id="DejaVuSans-83"/>
       <path d="M 34.28125 27.484375 
Q 23.390625 27.484375 19.1875 25 
Q 14.984375 22.515625 14.984375 16.5 
Q 14.984375 11.71875 18.140625 8.90625 
Q 21.296875 6.109375 26.703125 6.109375 
Q 34.1875 6.109375 38.703125 11.40625 
Q 43.21875 16.703125 43.21875 25.484375 
L 43.21875 27.484375 
z
M 52.203125 31.203125 
L 52.203125 0 
L 43.21875 0 
L 43.21875 8.296875 
Q 40.140625 3.328125 35.546875 0.953125 
Q 30.953125 -1.421875 24.3125 -1.421875 
Q 15.921875 -1.421875 10.953125 3.296875 
Q 6 8.015625 6 15.921875 
Q 6 25.140625 12.171875 29.828125 
Q 18.359375 34.515625 30.609375 34.515625 
L 43.21875 34.515625 
L 43.21875 35.40625 
Q 43.21875 41.609375 39.140625 45 
Q 35.0625 48.390625 27.6875 48.390625 
Q 23 48.390625 18.546875 47.265625 
Q 14.109375 46.140625 10.015625 43.890625 
L 10.015625 52.203125 
Q 14.9375 54.109375 19.578125 55.046875 
Q 24.21875 56 28.609375 56 
Q 40.484375 56 46.34375 49.84375 
Q 52.203125 43.703125 52.203125 31.203125 
z
" id="DejaVuSans-97"/>
       <path d="M 25.390625 72.90625 
L 33.6875 72.90625 
L 8.296875 -9.28125 
L 0 -9.28125 
z
" id="DejaVuSans-47"/>
      </defs>
      <use xlink:href="#DejaVuSans-68"/>
      <use x="77.001953" xlink:href="#DejaVuSans-101"/>
      <use x="138.525391" xlink:href="#DejaVuSans-110"/>
      <use x="201.904297" xlink:href="#DejaVuSans-115"/>
      <use x="254.003906" xlink:href="#DejaVuSans-105"/>
      <use x="281.787109" xlink:href="#DejaVuSans-116"/>
      <use x="320.996094" xlink:href="#DejaVuSans-121"/>
      <use x="380.175781" xlink:href="#DejaVuSans-32"/>
      <use x="411.962891" xlink:href="#DejaVuSans-111"/>
      <use x="473.144531" xlink:href="#DejaVuSans-102"/>
      <use x="508.349609" xlink:href="#DejaVuSans-32"/>
      <use x="540.136719" xlink:href="#DejaVuSans-83"/>
      <use x="603.613281" xlink:href="#DejaVuSans-116"/>
      <use x="642.822266" xlink:href="#DejaVuSans-97"/>
      <use x="704.101562" xlink:href="#DejaVuSans-116"/>
      <use x="743.310547" xlink:href="#DejaVuSans-101"/>
      <use x="804.833984" xlink:href="#DejaVuSans-115"/>
      <use x="856.933594" xlink:href="#DejaVuSans-32"/>
      <use x="888.720703" xlink:href="#DejaVuSans-40"/>
      <use x="927.734375" xlink:href="#DejaVuSans-49"/>
      <use x="991.357422" xlink:href="#DejaVuSans-47"/>
      <use x="1025.048828" xlink:href="#DejaVuSans-101"/>
      <use x="1086.572266" xlink:href="#DejaVuSans-86"/>
      <use x="1154.980469" xlink:href="#DejaVuSans-41"/>
     </g>
    </g>
   </g>
   <g id="line2d_17">
    <path clip-path="url(#p582e25ade7)" d="M 51.951841 261.462819 
L 52.344843 255.058163 
L 52.934345 240.117645 
L 53.720349 212.003411 
L 54.702854 177.617167 
L 55.488857 158.516742 
L 56.274861 138.853306 
L 57.060864 111.00995 
L 57.846868 84.216402 
L 58.23987 77.165483 
L 58.436371 76.086938 
L 58.632872 76.795078 
L 58.829372 79.303371 
L 59.222374 89.361037 
L 59.811877 113.888069 
L 60.990882 168.176288 
L 61.580385 186.606219 
L 62.169888 197.980799 
L 62.759391 204.318393 
L 63.348893 207.632834 
L 63.741895 208.758447 
L 63.938396 209.04045 
L 64.134897 209.121206 
L 64.331398 208.969205 
L 64.527899 208.533448 
L 64.9209 206.494869 
L 65.313902 202.131612 
L 65.706904 194.221968 
L 66.099906 181.420458 
L 66.689409 151.162745 
L 67.671913 79.932545 
L 68.261416 43.036647 
L 68.654418 28.838605 
L 68.850918 25.644081 
L 69.047419 25.101333 
L 69.24392 27.099286 
L 69.636922 37.847088 
L 70.226425 66.465841 
L 72.191434 176.415781 
L 72.780936 193.176675 
L 73.370439 202.178332 
L 74.156443 209.169338 
L 74.942446 216.61029 
L 76.514454 232.644337 
L 77.103956 236.448601 
L 77.693459 238.850598 
L 78.282962 240.21369 
L 78.675964 240.68643 
L 79.068965 240.844113 
L 79.461967 240.657224 
L 79.854969 240.046984 
L 80.247971 238.898518 
L 80.640973 237.092082 
L 81.230475 233.024923 
L 82.998983 218.736833 
L 83.195484 218.307731 
L 83.391985 218.338113 
L 83.588486 218.85476 
L 83.981488 221.352808 
L 84.37449 225.606548 
L 85.356994 240.279562 
L 86.142998 250.776404 
L 86.7325 255.901365 
L 87.322003 258.795079 
L 87.715005 259.847185 
L 88.108007 260.457776 
L 88.697509 260.890656 
L 89.287012 261.005239 
L 89.876515 260.912934 
L 90.466018 260.605396 
L 91.05552 259.975443 
L 91.448522 259.267974 
L 91.841524 258.218588 
L 92.431027 255.788236 
L 93.020529 252.257671 
L 94.003034 245.843594 
L 94.396036 244.400253 
L 94.592537 244.157083 
L 94.789037 244.280033 
L 94.985538 244.779579 
L 95.37854 246.839946 
L 95.968043 251.831034 
L 96.950547 260.601089 
L 97.54005 264.041777 
L 98.129553 265.952038 
L 98.522555 266.627429 
L 99.112057 267.133676 
L 99.898061 267.371447 
L 101.077066 267.405714 
L 102.452573 267.213087 
L 103.828079 266.805111 
L 105.203585 266.15326 
L 106.18609 265.478198 
L 106.972093 264.681686 
L 107.561596 263.713401 
L 107.954598 262.703716 
L 108.3476 261.21583 
L 108.740601 259.066877 
L 109.330104 254.333058 
L 110.312609 243.441899 
L 110.902111 237.52927 
L 111.295113 234.954974 
L 111.688115 233.774719 
L 111.884616 233.687567 
L 112.081117 233.888074 
L 112.474119 234.935503 
L 113.849625 239.663109 
L 114.242627 240.191116 
L 114.439128 240.25835 
L 114.635628 240.19136 
L 115.02863 239.631536 
L 115.421632 238.401938 
L 115.814634 236.229221 
L 116.207636 232.584146 
L 116.600637 226.618752 
L 116.993639 217.218655 
L 117.386641 203.284824 
L 117.976144 173.106034 
L 119.155149 106.390989 
L 119.548151 98.483287 
L 119.744652 99.491831 
L 119.941153 103.981144 
L 120.334155 122.582789 
L 120.923657 166.694171 
L 121.906162 239.313348 
L 122.495664 264.923448 
L 122.888666 274.454492 
L 123.281668 279.780396 
L 123.67467 282.475564 
L 124.067672 283.716432 
L 124.460674 284.237712 
L 124.853675 284.435108 
L 125.639679 284.495874 
L 126.818684 284.333993 
L 127.99769 283.940668 
L 128.783693 283.480973 
L 129.373196 282.955518 
L 129.962699 282.154454 
L 130.552201 280.874649 
L 131.141704 278.845258 
L 131.731207 275.904566 
L 133.106713 268.376424 
L 133.499715 267.617066 
L 133.696216 267.668463 
L 133.892717 268.018455 
L 134.285719 269.546857 
L 134.875221 273.303012 
L 136.054227 281.111845 
L 136.643729 283.599846 
L 137.233232 285.159794 
L 137.822735 286.123866 
L 138.608738 286.921919 
L 139.591243 287.54292 
L 140.770248 287.99112 
L 141.949254 288.202483 
L 143.128259 288.173329 
L 143.914263 287.96739 
L 144.503765 287.637395 
L 145.093268 287.009001 
L 145.48627 286.289012 
L 145.879272 285.17989 
L 146.272274 283.528176 
L 146.861776 279.775561 
L 147.64778 272.725012 
L 148.433783 266.174407 
L 148.826785 264.500296 
L 149.023286 264.243608 
L 149.219787 264.390716 
L 149.416288 264.925312 
L 149.80929 266.98986 
L 150.595293 273.291767 
L 151.381297 279.26232 
L 151.9708 282.420537 
L 152.560302 284.539219 
L 153.149805 285.964457 
L 153.935809 287.259218 
L 154.918313 288.371059 
L 156.097319 289.304145 
L 157.276324 289.965805 
L 158.455329 290.38729 
L 159.044832 290.374712 
L 159.437834 290.118945 
L 159.830836 289.459688 
L 160.223838 288.118725 
L 160.616839 285.751144 
L 161.009841 282.030662 
L 161.599344 273.63821 
L 163.171351 246.845871 
L 163.564353 243.685345 
L 163.760854 242.97163 
L 163.957355 242.798731 
L 164.153856 243.10526 
L 164.546857 244.827473 
L 166.511866 256.782063 
L 167.101369 258.556711 
L 167.690872 259.60306 
L 168.280375 260.109365 
L 168.673376 260.190839 
L 169.066378 260.068481 
L 169.45938 259.721711 
L 169.852382 259.112842 
L 170.441884 257.607208 
L 171.031387 255.336394 
L 172.210393 250.431095 
L 172.406893 250.091514 
L 172.603394 250.045599 
L 172.799895 250.342489 
L 173.192897 252.08055 
L 173.585899 255.32235 
L 174.371902 264.651697 
L 175.157906 273.333946 
L 175.550908 276.114935 
L 175.94391 277.62733 
L 176.140411 277.926589 
L 176.336911 277.944538 
L 176.533412 277.701905 
L 176.926414 276.519988 
L 177.515917 273.347261 
L 178.891423 264.777102 
L 179.087924 264.249416 
L 179.284425 264.0588 
L 179.480926 264.229032 
L 179.677427 264.76297 
L 180.070429 266.825358 
L 180.856432 273.327034 
L 181.642436 279.361495 
L 182.231938 281.992631 
L 182.62494 282.797379 
L 182.821441 282.955575 
L 183.017942 282.970618 
L 183.410944 282.612406 
L 183.803946 281.759145 
L 184.196948 280.370162 
L 184.78645 277.061218 
L 185.375953 272.043823 
L 186.94796 256.361133 
L 187.340962 254.987296 
L 187.537463 255.017997 
L 187.733964 255.528321 
L 188.126966 257.830608 
L 188.716468 263.397564 
L 189.698973 272.925063 
L 190.288475 276.75607 
L 190.877978 279.131034 
L 191.467481 280.542255 
L 192.056984 281.41471 
L 192.842987 282.147628 
L 193.825492 282.695303 
L 194.807996 282.9864 
L 195.987002 283.080447 
L 197.166007 282.924108 
L 198.148511 282.59095 
L 199.131016 282.032907 
L 199.91702 281.371374 
L 200.703023 280.432436 
L 201.292526 279.451252 
L 201.882029 278.08612 
L 202.471531 276.095748 
L 203.061034 273.131351 
L 203.650537 268.901292 
L 205.222544 256.279729 
L 205.419045 255.77295 
L 205.615546 255.762514 
L 205.812047 256.286484 
L 206.205048 258.939531 
L 206.794551 266.146022 
L 207.973557 282.500861 
L 208.563059 287.641891 
L 209.152562 290.46609 
L 209.545564 291.46978 
L 210.135066 292.255826 
L 210.724569 292.635157 
L 211.707074 292.974849 
L 213.672083 293.376513 
L 215.24409 293.550376 
L 215.833593 293.455245 
L 216.226594 293.193844 
L 216.619596 292.598285 
L 217.012598 291.431317 
L 217.4056 289.398866 
L 217.798602 286.222929 
L 218.388104 279.085934 
L 219.960112 256.723637 
L 220.353113 254.336039 
L 220.549614 253.914065 
L 220.746115 253.973614 
L 220.942616 254.460248 
L 221.335618 256.422989 
L 223.497128 270.15072 
L 224.283131 272.811633 
L 225.069135 274.677407 
L 226.051639 276.394302 
L 227.034144 277.695315 
L 228.213149 278.913781 
L 229.588656 280.008975 
L 231.160663 280.962563 
L 232.929171 281.755646 
L 234.697679 282.298968 
L 236.269686 282.560416 
L 237.448692 282.553421 
L 238.234695 282.336681 
L 238.824198 281.877382 
L 239.2172 281.286151 
L 239.610202 280.329345 
L 240.003203 278.877231 
L 240.592706 275.602228 
L 242.361214 263.827307 
L 242.754216 263.083326 
L 242.950717 263.092826 
L 243.343719 263.690056 
L 244.129722 265.340394 
L 244.326223 265.416754 
L 244.522724 265.232902 
L 244.719225 264.75076 
L 245.112227 262.842486 
L 245.70173 258.033978 
L 246.487733 251.102373 
L 246.880735 249.044451 
L 247.077236 248.592731 
L 247.273737 248.551172 
L 247.470238 248.906699 
L 247.86324 250.647904 
L 248.452742 254.889158 
L 249.435247 262.185971 
L 250.024749 265.289921 
L 250.614252 267.375978 
L 251.203755 268.602379 
L 251.596757 268.909629 
L 251.793258 268.870903 
L 251.989758 268.676071 
L 252.38276 267.719148 
L 252.775762 265.848227 
L 253.168764 262.944552 
L 253.758267 256.790032 
L 255.330274 238.678188 
L 255.723276 236.034106 
L 256.116277 234.540042 
L 256.312778 234.208368 
L 256.509279 234.131044 
L 256.70578 234.284275 
L 257.098782 235.165994 
L 257.688285 237.417833 
L 258.670789 241.395728 
L 259.260292 242.857002 
L 259.653294 243.268835 
L 260.046295 243.227413 
L 260.439297 242.783816 
L 261.225301 241.220628 
L 261.618303 240.551924 
L 262.011304 240.32605 
L 262.207805 240.450291 
L 262.600807 241.22853 
L 263.19031 243.449471 
L 263.976313 246.380087 
L 264.369315 246.960963 
L 264.565816 246.981819 
L 264.958818 246.655368 
L 265.35182 246.247174 
L 265.548321 246.1806 
L 265.744822 246.279503 
L 265.941322 246.576267 
L 266.334324 247.772335 
L 267.709831 253.403697 
L 268.102832 253.855468 
L 268.495834 253.851234 
L 268.888836 253.868365 
L 269.085337 254.043308 
L 269.478339 254.949616 
L 269.87134 256.681856 
L 270.657344 261.795675 
L 271.443348 266.713478 
L 272.03285 269.181944 
L 272.622353 270.570656 
L 273.015355 271.024249 
L 273.408357 271.181156 
L 273.801358 271.070471 
L 274.19436 270.668621 
L 274.587362 269.89433 
L 274.980364 268.621309 
L 275.373366 266.712573 
L 275.962868 262.470358 
L 276.748872 254.604318 
L 277.731377 244.796929 
L 278.124378 242.33136 
L 278.51738 241.206979 
L 278.713881 241.177281 
L 278.910382 241.48894 
L 279.303384 243.016864 
L 279.892886 246.89127 
L 281.268393 256.611617 
L 281.857895 259.296253 
L 282.447398 261.057661 
L 283.036901 262.149261 
L 283.626404 262.704982 
L 284.019405 262.750241 
L 284.412407 262.43726 
L 284.805409 261.607026 
L 285.198411 260.046813 
L 285.591413 257.546722 
L 286.180915 251.843449 
L 288.145924 229.127131 
L 288.538926 227.011864 
L 288.931928 225.742642 
L 289.521431 224.676642 
L 289.914432 224.257688 
L 290.110933 224.169071 
L 290.307434 224.216647 
L 290.503935 224.457069 
L 290.700436 224.951708 
L 291.093438 226.930934 
L 291.48644 230.482367 
L 292.075942 238.714816 
L 293.84445 267.719615 
L 294.433953 273.195786 
L 295.023456 276.246247 
L 295.416458 277.353007 
L 295.809459 278.007315 
L 296.398962 278.525376 
L 297.184966 278.845227 
L 298.363971 279.047721 
L 299.542977 279.041357 
L 300.32898 278.813067 
L 300.721982 278.522307 
L 301.114984 277.969082 
L 301.507986 276.93917 
L 301.900987 275.09736 
L 302.293989 271.977857 
L 302.686991 267.024374 
L 303.079993 259.701094 
L 303.669495 243.61018 
L 304.455499 213.83688 
L 306.027506 151.989977 
L 306.617009 137.373848 
L 307.010011 132.002567 
L 307.206512 130.80606 
L 307.403013 130.65586 
L 307.599514 131.568938 
L 307.992515 136.520216 
L 308.385517 145.204186 
L 309.171521 169.330537 
L 309.957524 192.415333 
L 310.547027 203.172274 
L 310.940029 206.359136 
L 311.13653 206.814294 
L 311.333031 206.59162 
L 311.529532 205.773781 
L 311.922533 202.738513 
L 312.708537 193.770953 
L 313.887542 177.865624 
L 314.673546 162.641507 
L 315.45955 146.551887 
L 315.852551 142.081647 
L 316.049052 141.50102 
L 316.245553 142.204551 
L 316.442054 144.238112 
L 316.835056 152.076676 
L 317.424559 170.621335 
L 318.407063 202.877426 
L 318.996566 215.085157 
L 319.389568 219.629947 
L 319.782569 221.843759 
L 319.97907 222.263491 
L 320.175571 222.314383 
L 320.372072 222.048705 
L 320.765074 220.70087 
L 321.158076 218.322382 
L 321.551078 214.757204 
L 321.944079 209.631103 
L 322.533582 197.967132 
L 323.123085 180.75833 
L 324.498591 135.880709 
L 324.891593 130.695309 
L 325.088094 130.442823 
L 325.284595 131.785135 
L 325.677596 138.784824 
L 326.267099 156.365738 
L 327.053103 180.23291 
L 327.446105 188.26323 
L 327.839106 192.824652 
L 328.035607 193.857811 
L 328.232108 194.14405 
L 328.428609 193.769373 
L 328.821611 191.444104 
L 330.197117 180.292356 
L 330.393618 180.182426 
L 330.590119 180.787107 
L 330.983121 184.291163 
L 331.376123 190.712923 
L 332.162126 209.292574 
L 333.144631 232.690618 
L 333.734133 242.659251 
L 334.323636 249.056859 
L 334.913139 252.59014 
L 335.306141 253.832018 
L 335.699142 254.497998 
L 336.092144 254.803307 
L 336.681647 254.896223 
L 337.27115 254.743386 
L 337.860652 254.365688 
L 338.450155 253.719788 
L 339.43266 252.155466 
L 340.022162 251.31019 
L 340.415164 251.076193 
L 340.611665 251.121566 
L 341.004667 251.619016 
L 341.397669 252.698167 
L 341.987171 255.238303 
L 343.362678 261.753253 
L 343.95218 263.373004 
L 344.345182 263.944912 
L 344.738184 264.14246 
L 345.131186 263.982649 
L 345.524187 263.456145 
L 345.917189 262.537933 
L 346.11369 261.928502 
L 346.11369 261.928502 
" style="fill:none;stroke:#ff0000;stroke-linecap:square;stroke-width:2;"/>
   </g>
   <g id="patch_3">
    <path d="M 52.13 311.128 
L 52.13 10.8 
" style="fill:none;stroke:#000000;stroke-linecap:square;stroke-linejoin:miter;stroke-width:0.8;"/>
   </g>
   <g id="patch_4">
    <path d="M 346.005 311.128 
L 346.005 10.8 
" style="fill:none;stroke:#000000;stroke-linecap:square;stroke-linejoin:miter;stroke-width:0.8;"/>
   </g>
   <g id="patch_5">
    <path d="M 52.13 311.128 
L 346.005 311.128 
" style="fill:none;stroke:#000000;stroke-linecap:square;stroke-linejoin:miter;stroke-width:0.8;"/>
   </g>
   <g id="patch_6">
    <path d="M 52.13 10.8 
L 346.005 10.8 
" style="fill:none;stroke:#000000;stroke-linecap:square;stroke-linejoin:miter;stroke-width:0.8;"/>
   </g>
  </g>
 </g>
 <defs>
  <clipPath id="p582e25ade7">
   <rect height="300.328" width="293.875" x="52.13" y="10.8"/>
  </clipPath>
 </defs>
</svg>
